<?xml version="1.0" encoding="utf-8" standalone="no"?>
<!DOCTYPE svg PUBLIC "-//W3C//DTD SVG 1.1//EN"
  "http://www.w3.org/Graphics/SVG/1.1/DTD/svg11.dtd">
<!-- Created with matplotlib (https://matplotlib.org/) -->
<svg height="360pt" version="1.1" viewBox="0 0 720 360" width="720pt" xmlns="http://www.w3.org/2000/svg" xmlns:xlink="http://www.w3.org/1999/xlink">
 <metadata>
  <rdf:RDF xmlns:cc="http://creativecommons.org/ns#" xmlns:dc="http://purl.org/dc/elements/1.1/" xmlns:rdf="http://www.w3.org/1999/02/22-rdf-syntax-ns#">
   <cc:Work>
    <dc:type rdf:resource="http://purl.org/dc/dcmitype/StillImage"/>
    <dc:date>2020-11-29T10:24:48.891171</dc:date>
    <dc:format>image/svg+xml</dc:format>
    <dc:creator>
     <cc:Agent>
      <dc:title>Matplotlib v3.3.3, https://matplotlib.org/</dc:title>
     </cc:Agent>
    </dc:creator>
   </cc:Work>
  </rdf:RDF>
 </metadata>
 <defs>
  <style type="text/css">*{stroke-linecap:butt;stroke-linejoin:round;}</style>
 </defs>
 <g id="figure_1">
  <g id="patch_1">
   <path d="M 0 360 
L 720 360 
L 720 0 
L 0 0 
z
" style="fill:#ffffff;"/>
  </g>
  <g id="axes_1">
   <g id="patch_2">
    <path d="M 90 320.4 
L 343.636364 320.4 
L 343.636364 43.2 
L 90 43.2 
z
" style="fill:#ffffff;"/>
   </g>
   <g id="PolyCollection_1">
    <defs>
     <path d="M 101.528926 -52.2 
L 101.528926 -53.390459 
L 101.980156 -53.389572 
L 102.431386 -53.38786 
L 102.882616 -53.384855 
L 103.333845 -53.380715 
L 103.785075 -53.373357 
L 104.236305 -53.368036 
L 104.687535 -53.362151 
L 105.138765 -53.358852 
L 105.589995 -53.353421 
L 106.041225 -53.351324 
L 106.492455 -53.347871 
L 106.943685 -53.345678 
L 107.394915 -53.345071 
L 107.846145 -53.349813 
L 108.297375 -53.355196 
L 108.748605 -53.363225 
L 109.199835 -53.374181 
L 109.651065 -53.39117 
L 110.102295 -53.409377 
L 110.553525 -53.436982 
L 111.004755 -53.464082 
L 111.455985 -53.49535 
L 111.907215 -53.53372 
L 112.358445 -53.577067 
L 112.809675 -53.622651 
L 113.260905 -53.672722 
L 113.712135 -53.730073 
L 114.163365 -53.801048 
L 114.614595 -53.865472 
L 115.065825 -53.937417 
L 115.517055 -54.013946 
L 115.968285 -54.100694 
L 116.419514 -54.193252 
L 116.870744 -54.28606 
L 117.321974 -54.383613 
L 117.773204 -54.491574 
L 118.224434 -54.602703 
L 118.675664 -54.727962 
L 119.126894 -54.852413 
L 119.578124 -54.988802 
L 120.029354 -55.138769 
L 120.480584 -55.284809 
L 120.931814 -55.436293 
L 121.383044 -55.600813 
L 121.834274 -55.787984 
L 122.285504 -55.978907 
L 122.736734 -56.175489 
L 123.187964 -56.402939 
L 123.639194 -56.626765 
L 124.090424 -56.863649 
L 124.541654 -57.114326 
L 124.992884 -57.385246 
L 125.444114 -57.667066 
L 125.895344 -57.96502 
L 126.346574 -58.276857 
L 126.797804 -58.617305 
L 127.249034 -58.978076 
L 127.700264 -59.36223 
L 128.151494 -59.759732 
L 128.602724 -60.183532 
L 129.053954 -60.620976 
L 129.505183 -61.081746 
L 129.956413 -61.566346 
L 130.407643 -62.069475 
L 130.858873 -62.595797 
L 131.310103 -63.145321 
L 131.761333 -63.70938 
L 132.212563 -64.288542 
L 132.663793 -64.883593 
L 133.115023 -65.504244 
L 133.566253 -66.13189 
L 134.017483 -66.768483 
L 134.468713 -67.439181 
L 134.919943 -68.113549 
L 135.371173 -68.790989 
L 135.822403 -69.476978 
L 136.273633 -70.155982 
L 136.724863 -70.854945 
L 137.176093 -71.545201 
L 137.627323 -72.229175 
L 138.078553 -72.909849 
L 138.529783 -73.582416 
L 138.981013 -74.256501 
L 139.432243 -74.939569 
L 139.883473 -75.597678 
L 140.334703 -76.25457 
L 140.785933 -76.917504 
L 141.237163 -77.569397 
L 141.688393 -78.21828 
L 142.139623 -78.859922 
L 142.590852 -79.517572 
L 143.042082 -80.165695 
L 143.493312 -80.826919 
L 143.944542 -81.491236 
L 144.395772 -82.174203 
L 144.847002 -82.857456 
L 145.298232 -83.553932 
L 145.749462 -84.288498 
L 146.200692 -85.029634 
L 146.651922 -85.801415 
L 147.103152 -86.592012 
L 147.554382 -87.398709 
L 148.005612 -88.243789 
L 148.456842 -89.102246 
L 148.908072 -90.002914 
L 149.359302 -90.920632 
L 149.810532 -91.856681 
L 150.261762 -92.831759 
L 150.712992 -93.822864 
L 151.164222 -94.851435 
L 151.615452 -95.88162 
L 152.066682 -96.944532 
L 152.517912 -98.032548 
L 152.969142 -99.130196 
L 153.420372 -100.225651 
L 153.871602 -101.342074 
L 154.322832 -102.467386 
L 154.774062 -103.598262 
L 155.225292 -104.748693 
L 155.676521 -105.911384 
L 156.127751 -107.051654 
L 156.578981 -108.228863 
L 157.030211 -109.398055 
L 157.481441 -110.579034 
L 157.932671 -111.759108 
L 158.383901 -112.959944 
L 158.835131 -114.161652 
L 159.286361 -115.38062 
L 159.737591 -116.626387 
L 160.188821 -117.876577 
L 160.640051 -119.185293 
L 161.091281 -120.526481 
L 161.542511 -121.875888 
L 161.993741 -123.290249 
L 162.444971 -124.721015 
L 162.896201 -126.228678 
L 163.347431 -127.777284 
L 163.798661 -129.381951 
L 164.249891 -131.022016 
L 164.701121 -132.74292 
L 165.152351 -134.520519 
L 165.603581 -136.365857 
L 166.054811 -138.263265 
L 166.506041 -140.217059 
L 166.957271 -142.230182 
L 167.408501 -144.294637 
L 167.859731 -146.416938 
L 168.310961 -148.599256 
L 168.76219 -150.83725 
L 169.21342 -153.102858 
L 169.66465 -155.402744 
L 170.11588 -157.73549 
L 170.56711 -160.116465 
L 171.01834 -162.518841 
L 171.46957 -164.944638 
L 171.9208 -167.40454 
L 172.37203 -169.86077 
L 172.82326 -172.314471 
L 173.27449 -174.764222 
L 173.72572 -177.222692 
L 174.17695 -179.676034 
L 174.62818 -182.164582 
L 175.07941 -184.586452 
L 175.53064 -187.009489 
L 175.98187 -189.389006 
L 176.4331 -191.749915 
L 176.88433 -194.076106 
L 177.33556 -196.370956 
L 177.78679 -198.623368 
L 178.23802 -200.872258 
L 178.68925 -203.068541 
L 179.14048 -205.239419 
L 179.59171 -207.358024 
L 180.04294 -209.426776 
L 180.49417 -211.487617 
L 180.9454 -213.505633 
L 181.39663 -215.495095 
L 181.847859 -217.421262 
L 182.299089 -219.31657 
L 182.750319 -221.187321 
L 183.201549 -223.019344 
L 183.652779 -224.875658 
L 184.104009 -226.620243 
L 184.555239 -228.405134 
L 185.006469 -230.172419 
L 185.457699 -231.927446 
L 185.908929 -233.670923 
L 186.360159 -235.390847 
L 186.811389 -237.149116 
L 187.262619 -238.85138 
L 187.713849 -240.581293 
L 188.165079 -242.353614 
L 188.616309 -244.082517 
L 189.067539 -245.827015 
L 189.518769 -247.618636 
L 189.969999 -249.427592 
L 190.421229 -251.225818 
L 190.872459 -253.021987 
L 191.323689 -254.885843 
L 191.774919 -256.727313 
L 192.226149 -258.585287 
L 192.677379 -260.446909 
L 193.128609 -262.274591 
L 193.579839 -264.134039 
L 194.031069 -265.972366 
L 194.482299 -267.83661 
L 194.933528 -269.638162 
L 195.384758 -271.467177 
L 195.835988 -273.265941 
L 196.287218 -275.053852 
L 196.738448 -276.800733 
L 197.189678 -278.536815 
L 197.640908 -280.233311 
L 198.092138 -281.89577 
L 198.543368 -283.529418 
L 198.994598 -285.089205 
L 199.445828 -286.58465 
L 199.897058 -288.054845 
L 200.348288 -289.482136 
L 200.799518 -290.856769 
L 201.250748 -292.136757 
L 201.701978 -293.365573 
L 202.153208 -294.54034 
L 202.604438 -295.693085 
L 203.055668 -296.742587 
L 203.506898 -297.719148 
L 203.958128 -298.608827 
L 204.409358 -299.4564 
L 204.860588 -300.230384 
L 205.311818 -300.945129 
L 205.763048 -301.63935 
L 206.214278 -302.202045 
L 206.665508 -302.700108 
L 207.116738 -303.132523 
L 207.567968 -303.491601 
L 208.019197 -303.784558 
L 208.470427 -304.012286 
L 208.921657 -304.146442 
L 209.372887 -304.2 
L 209.824117 -304.167299 
L 210.275347 -304.049577 
L 210.726577 -303.902911 
L 211.177807 -303.690102 
L 211.629037 -303.391761 
L 212.080267 -303.039837 
L 212.531497 -302.616392 
L 212.982727 -302.109654 
L 213.433957 -301.598924 
L 213.885187 -301.029071 
L 214.336417 -300.407309 
L 214.787647 -299.717161 
L 215.238877 -298.970857 
L 215.690107 -298.163401 
L 216.141337 -297.330021 
L 216.592567 -296.45549 
L 217.043797 -295.556511 
L 217.495027 -294.632813 
L 217.946257 -293.679237 
L 218.397487 -292.731672 
L 218.848717 -291.707099 
L 219.299947 -290.65178 
L 219.751177 -289.601594 
L 220.202407 -288.580688 
L 220.653637 -287.552076 
L 221.104866 -286.526086 
L 221.556096 -285.506027 
L 222.007326 -284.431086 
L 222.458556 -283.446908 
L 222.909786 -282.420891 
L 223.361016 -281.439362 
L 223.812246 -280.484579 
L 224.263476 -279.577841 
L 224.714706 -278.700946 
L 225.165936 -277.820834 
L 225.617166 -277.011704 
L 226.068396 -276.220227 
L 226.519626 -275.430057 
L 226.970856 -274.698846 
L 227.422086 -274.011454 
L 227.873316 -273.280174 
L 228.324546 -272.59754 
L 228.775776 -271.93179 
L 229.227006 -271.276748 
L 229.678236 -270.566886 
L 230.129466 -269.893957 
L 230.580696 -269.187003 
L 231.031926 -268.442269 
L 231.483156 -267.673537 
L 231.934386 -266.80031 
L 232.385616 -265.884218 
L 232.836846 -264.88555 
L 233.288076 -263.825012 
L 233.739306 -262.639788 
L 234.190535 -261.366845 
L 234.641765 -259.963963 
L 235.092995 -258.462769 
L 235.544225 -256.848752 
L 235.995455 -255.129944 
L 236.446685 -253.265359 
L 236.897915 -251.285255 
L 237.349145 -249.207238 
L 237.800375 -247.056803 
L 238.251605 -244.794022 
L 238.702835 -242.43511 
L 239.154065 -240.009336 
L 239.605295 -237.52495 
L 240.056525 -234.993592 
L 240.507755 -232.400048 
L 240.958985 -229.772234 
L 241.410215 -227.143783 
L 241.861445 -224.521574 
L 242.312675 -221.928273 
L 242.763905 -219.336975 
L 243.215135 -216.783463 
L 243.666365 -214.260452 
L 244.117595 -211.745936 
L 244.568825 -209.344089 
L 245.020055 -206.970678 
L 245.471285 -204.658903 
L 245.922515 -202.424483 
L 246.373745 -200.245883 
L 246.824975 -198.125753 
L 247.276204 -196.080805 
L 247.727434 -194.093579 
L 248.178664 -192.16055 
L 248.629894 -190.274106 
L 249.081124 -188.401986 
L 249.532354 -186.559346 
L 249.983584 -184.786819 
L 250.434814 -183.005618 
L 250.886044 -181.240667 
L 251.337274 -179.491893 
L 251.788504 -177.738706 
L 252.239734 -175.981002 
L 252.690964 -174.235501 
L 253.142194 -172.481623 
L 253.593424 -170.725517 
L 254.044654 -168.935344 
L 254.495884 -167.100076 
L 254.947114 -165.235334 
L 255.398344 -163.352683 
L 255.849574 -161.434069 
L 256.300804 -159.521577 
L 256.752034 -157.578388 
L 257.203264 -155.647434 
L 257.654494 -153.698793 
L 258.105724 -151.734714 
L 258.556954 -149.737913 
L 259.008184 -147.7468 
L 259.459414 -145.750215 
L 259.910644 -143.785865 
L 260.361873 -141.841679 
L 260.813103 -139.911219 
L 261.264333 -138.010019 
L 261.715563 -136.114125 
L 262.166793 -134.262057 
L 262.618023 -132.443735 
L 263.069253 -130.683176 
L 263.520483 -128.97174 
L 263.971713 -127.319094 
L 264.422943 -125.713526 
L 264.874173 -124.163968 
L 265.325403 -122.679242 
L 265.776633 -121.237036 
L 266.227863 -119.872363 
L 266.679093 -118.551841 
L 267.130323 -117.292931 
L 267.581553 -116.080725 
L 268.032783 -114.938798 
L 268.484013 -113.832879 
L 268.935243 -112.756952 
L 269.386473 -111.731324 
L 269.837703 -110.755183 
L 270.288933 -109.815526 
L 270.740163 -108.897183 
L 271.191393 -108.000565 
L 271.642623 -107.121866 
L 272.093853 -106.261742 
L 272.545083 -105.414729 
L 272.996313 -104.592689 
L 273.447542 -103.762291 
L 273.898772 -102.931573 
L 274.350002 -102.093344 
L 274.801232 -101.272391 
L 275.252462 -100.441074 
L 275.703692 -99.601716 
L 276.154922 -98.743402 
L 276.606152 -97.870627 
L 277.057382 -96.988142 
L 277.508612 -96.102316 
L 277.959842 -95.196933 
L 278.411072 -94.271372 
L 278.862302 -93.353534 
L 279.313532 -92.405759 
L 279.764762 -91.455013 
L 280.215992 -90.492895 
L 280.667222 -89.527744 
L 281.118452 -88.55395 
L 281.569682 -87.582996 
L 282.020912 -86.605654 
L 282.472142 -85.639851 
L 282.923372 -84.677048 
L 283.374602 -83.731989 
L 283.825832 -82.791792 
L 284.277062 -81.867178 
L 284.728292 -80.963624 
L 285.179522 -80.076313 
L 285.630752 -79.19775 
L 286.081982 -78.35497 
L 286.533211 -77.530691 
L 286.984441 -76.736199 
L 287.435671 -75.971774 
L 287.886901 -75.227852 
L 288.338131 -74.503445 
L 288.789361 -73.813436 
L 289.240591 -73.14819 
L 289.691821 -72.495004 
L 290.143051 -71.869535 
L 290.594281 -71.272542 
L 291.045511 -70.696363 
L 291.496741 -70.139005 
L 291.947971 -69.592203 
L 292.399201 -69.074194 
L 292.850431 -68.569569 
L 293.301661 -68.08186 
L 293.752891 -67.600069 
L 294.204121 -67.12967 
L 294.655351 -66.669981 
L 295.106581 -66.2108 
L 295.557811 -65.765082 
L 296.009041 -65.336344 
L 296.460271 -64.909224 
L 296.911501 -64.501862 
L 297.362731 -64.100959 
L 297.813961 -63.704624 
L 298.265191 -63.321049 
L 298.716421 -62.95225 
L 299.167651 -62.586192 
L 299.61888 -62.231583 
L 300.07011 -61.89532 
L 300.52134 -61.569127 
L 300.97257 -61.250907 
L 301.4238 -60.939481 
L 301.87503 -60.649279 
L 302.32626 -60.359105 
L 302.77749 -60.089483 
L 303.22872 -59.826434 
L 303.67995 -59.569505 
L 304.13118 -59.318636 
L 304.58241 -59.080451 
L 305.03364 -58.850925 
L 305.48487 -58.624442 
L 305.9361 -58.407835 
L 306.38733 -58.19277 
L 306.83856 -57.983972 
L 307.28979 -57.778333 
L 307.74102 -57.573389 
L 308.19225 -57.371779 
L 308.64348 -57.171094 
L 309.09471 -56.971773 
L 309.54594 -56.77653 
L 309.99717 -56.587609 
L 310.4484 -56.402319 
L 310.89963 -56.225453 
L 311.35086 -56.047229 
L 311.80209 -55.873653 
L 312.25332 -55.707289 
L 312.704549 -55.543388 
L 313.155779 -55.38565 
L 313.607009 -55.239451 
L 314.058239 -55.096648 
L 314.509469 -54.959791 
L 314.960699 -54.83136 
L 315.411929 -54.70417 
L 315.863159 -54.586158 
L 316.314389 -54.474446 
L 316.765619 -54.368959 
L 317.216849 -54.267293 
L 317.668079 -54.17658 
L 318.119309 -54.091008 
L 318.570539 -54.00817 
L 319.021769 -53.928379 
L 319.472999 -53.858665 
L 319.924229 -53.793149 
L 320.375459 -53.729396 
L 320.826689 -53.672278 
L 321.277919 -53.618788 
L 321.729149 -53.568794 
L 322.180379 -53.522165 
L 322.631609 -53.478781 
L 323.082839 -53.433972 
L 323.534069 -53.395411 
L 323.985299 -53.365189 
L 324.436529 -53.333084 
L 324.887759 -53.306344 
L 325.338989 -53.282633 
L 325.790218 -53.259612 
L 326.241448 -53.239383 
L 326.692678 -53.221761 
L 327.143908 -53.206552 
L 327.595138 -53.19583 
L 328.046368 -53.186623 
L 328.497598 -53.176525 
L 328.948828 -53.168139 
L 329.400058 -53.163483 
L 329.851288 -53.162416 
L 330.302518 -53.159783 
L 330.753748 -53.15774 
L 331.204978 -53.156178 
L 331.656208 -53.155004 
L 332.107438 -53.154146 
L 332.107438 -52.2 
L 332.107438 -52.2 
L 331.656208 -52.2 
L 331.204978 -52.2 
L 330.753748 -52.2 
L 330.302518 -52.2 
L 329.851288 -52.2 
L 329.400058 -52.2 
L 328.948828 -52.2 
L 328.497598 -52.2 
L 328.046368 -52.2 
L 327.595138 -52.2 
L 327.143908 -52.2 
L 326.692678 -52.2 
L 326.241448 -52.2 
L 325.790218 -52.2 
L 325.338989 -52.2 
L 324.887759 -52.2 
L 324.436529 -52.2 
L 323.985299 -52.2 
L 323.534069 -52.2 
L 323.082839 -52.2 
L 322.631609 -52.2 
L 322.180379 -52.2 
L 321.729149 -52.2 
L 321.277919 -52.2 
L 320.826689 -52.2 
L 320.375459 -52.2 
L 319.924229 -52.2 
L 319.472999 -52.2 
L 319.021769 -52.2 
L 318.570539 -52.2 
L 318.119309 -52.2 
L 317.668079 -52.2 
L 317.216849 -52.2 
L 316.765619 -52.2 
L 316.314389 -52.2 
L 315.863159 -52.2 
L 315.411929 -52.2 
L 314.960699 -52.2 
L 314.509469 -52.2 
L 314.058239 -52.2 
L 313.607009 -52.2 
L 313.155779 -52.2 
L 312.704549 -52.2 
L 312.25332 -52.2 
L 311.80209 -52.2 
L 311.35086 -52.2 
L 310.89963 -52.2 
L 310.4484 -52.2 
L 309.99717 -52.2 
L 309.54594 -52.2 
L 309.09471 -52.2 
L 308.64348 -52.2 
L 308.19225 -52.2 
L 307.74102 -52.2 
L 307.28979 -52.2 
L 306.83856 -52.2 
L 306.38733 -52.2 
L 305.9361 -52.2 
L 305.48487 -52.2 
L 305.03364 -52.2 
L 304.58241 -52.2 
L 304.13118 -52.2 
L 303.67995 -52.2 
L 303.22872 -52.2 
L 302.77749 -52.2 
L 302.32626 -52.2 
L 301.87503 -52.2 
L 301.4238 -52.2 
L 300.97257 -52.2 
L 300.52134 -52.2 
L 300.07011 -52.2 
L 299.61888 -52.2 
L 299.167651 -52.2 
L 298.716421 -52.2 
L 298.265191 -52.2 
L 297.813961 -52.2 
L 297.362731 -52.2 
L 296.911501 -52.2 
L 296.460271 -52.2 
L 296.009041 -52.2 
L 295.557811 -52.2 
L 295.106581 -52.2 
L 294.655351 -52.2 
L 294.204121 -52.2 
L 293.752891 -52.2 
L 293.301661 -52.2 
L 292.850431 -52.2 
L 292.399201 -52.2 
L 291.947971 -52.2 
L 291.496741 -52.2 
L 291.045511 -52.2 
L 290.594281 -52.2 
L 290.143051 -52.2 
L 289.691821 -52.2 
L 289.240591 -52.2 
L 288.789361 -52.2 
L 288.338131 -52.2 
L 287.886901 -52.2 
L 287.435671 -52.2 
L 286.984441 -52.2 
L 286.533211 -52.2 
L 286.081982 -52.2 
L 285.630752 -52.2 
L 285.179522 -52.2 
L 284.728292 -52.2 
L 284.277062 -52.2 
L 283.825832 -52.2 
L 283.374602 -52.2 
L 282.923372 -52.2 
L 282.472142 -52.2 
L 282.020912 -52.2 
L 281.569682 -52.2 
L 281.118452 -52.2 
L 280.667222 -52.2 
L 280.215992 -52.2 
L 279.764762 -52.2 
L 279.313532 -52.2 
L 278.862302 -52.2 
L 278.411072 -52.2 
L 277.959842 -52.2 
L 277.508612 -52.2 
L 277.057382 -52.2 
L 276.606152 -52.2 
L 276.154922 -52.2 
L 275.703692 -52.2 
L 275.252462 -52.2 
L 274.801232 -52.2 
L 274.350002 -52.2 
L 273.898772 -52.2 
L 273.447542 -52.2 
L 272.996313 -52.2 
L 272.545083 -52.2 
L 272.093853 -52.2 
L 271.642623 -52.2 
L 271.191393 -52.2 
L 270.740163 -52.2 
L 270.288933 -52.2 
L 269.837703 -52.2 
L 269.386473 -52.2 
L 268.935243 -52.2 
L 268.484013 -52.2 
L 268.032783 -52.2 
L 267.581553 -52.2 
L 267.130323 -52.2 
L 266.679093 -52.2 
L 266.227863 -52.2 
L 265.776633 -52.2 
L 265.325403 -52.2 
L 264.874173 -52.2 
L 264.422943 -52.2 
L 263.971713 -52.2 
L 263.520483 -52.2 
L 263.069253 -52.2 
L 262.618023 -52.2 
L 262.166793 -52.2 
L 261.715563 -52.2 
L 261.264333 -52.2 
L 260.813103 -52.2 
L 260.361873 -52.2 
L 259.910644 -52.2 
L 259.459414 -52.2 
L 259.008184 -52.2 
L 258.556954 -52.2 
L 258.105724 -52.2 
L 257.654494 -52.2 
L 257.203264 -52.2 
L 256.752034 -52.2 
L 256.300804 -52.2 
L 255.849574 -52.2 
L 255.398344 -52.2 
L 254.947114 -52.2 
L 254.495884 -52.2 
L 254.044654 -52.2 
L 253.593424 -52.2 
L 253.142194 -52.2 
L 252.690964 -52.2 
L 252.239734 -52.2 
L 251.788504 -52.2 
L 251.337274 -52.2 
L 250.886044 -52.2 
L 250.434814 -52.2 
L 249.983584 -52.2 
L 249.532354 -52.2 
L 249.081124 -52.2 
L 248.629894 -52.2 
L 248.178664 -52.2 
L 247.727434 -52.2 
L 247.276204 -52.2 
L 246.824975 -52.2 
L 246.373745 -52.2 
L 245.922515 -52.2 
L 245.471285 -52.2 
L 245.020055 -52.2 
L 244.568825 -52.2 
L 244.117595 -52.2 
L 243.666365 -52.2 
L 243.215135 -52.2 
L 242.763905 -52.2 
L 242.312675 -52.2 
L 241.861445 -52.2 
L 241.410215 -52.2 
L 240.958985 -52.2 
L 240.507755 -52.2 
L 240.056525 -52.2 
L 239.605295 -52.2 
L 239.154065 -52.2 
L 238.702835 -52.2 
L 238.251605 -52.2 
L 237.800375 -52.2 
L 237.349145 -52.2 
L 236.897915 -52.2 
L 236.446685 -52.2 
L 235.995455 -52.2 
L 235.544225 -52.2 
L 235.092995 -52.2 
L 234.641765 -52.2 
L 234.190535 -52.2 
L 233.739306 -52.2 
L 233.288076 -52.2 
L 232.836846 -52.2 
L 232.385616 -52.2 
L 231.934386 -52.2 
L 231.483156 -52.2 
L 231.031926 -52.2 
L 230.580696 -52.2 
L 230.129466 -52.2 
L 229.678236 -52.2 
L 229.227006 -52.2 
L 228.775776 -52.2 
L 228.324546 -52.2 
L 227.873316 -52.2 
L 227.422086 -52.2 
L 226.970856 -52.2 
L 226.519626 -52.2 
L 226.068396 -52.2 
L 225.617166 -52.2 
L 225.165936 -52.2 
L 224.714706 -52.2 
L 224.263476 -52.2 
L 223.812246 -52.2 
L 223.361016 -52.2 
L 222.909786 -52.2 
L 222.458556 -52.2 
L 222.007326 -52.2 
L 221.556096 -52.2 
L 221.104866 -52.2 
L 220.653637 -52.2 
L 220.202407 -52.2 
L 219.751177 -52.2 
L 219.299947 -52.2 
L 218.848717 -52.2 
L 218.397487 -52.2 
L 217.946257 -52.2 
L 217.495027 -52.2 
L 217.043797 -52.2 
L 216.592567 -52.2 
L 216.141337 -52.2 
L 215.690107 -52.2 
L 215.238877 -52.2 
L 214.787647 -52.2 
L 214.336417 -52.2 
L 213.885187 -52.2 
L 213.433957 -52.2 
L 212.982727 -52.2 
L 212.531497 -52.2 
L 212.080267 -52.2 
L 211.629037 -52.2 
L 211.177807 -52.2 
L 210.726577 -52.2 
L 210.275347 -52.2 
L 209.824117 -52.2 
L 209.372887 -52.2 
L 208.921657 -52.2 
L 208.470427 -52.2 
L 208.019197 -52.2 
L 207.567968 -52.2 
L 207.116738 -52.2 
L 206.665508 -52.2 
L 206.214278 -52.2 
L 205.763048 -52.2 
L 205.311818 -52.2 
L 204.860588 -52.2 
L 204.409358 -52.2 
L 203.958128 -52.2 
L 203.506898 -52.2 
L 203.055668 -52.2 
L 202.604438 -52.2 
L 202.153208 -52.2 
L 201.701978 -52.2 
L 201.250748 -52.2 
L 200.799518 -52.2 
L 200.348288 -52.2 
L 199.897058 -52.2 
L 199.445828 -52.2 
L 198.994598 -52.2 
L 198.543368 -52.2 
L 198.092138 -52.2 
L 197.640908 -52.2 
L 197.189678 -52.2 
L 196.738448 -52.2 
L 196.287218 -52.2 
L 195.835988 -52.2 
L 195.384758 -52.2 
L 194.933528 -52.2 
L 194.482299 -52.2 
L 194.031069 -52.2 
L 193.579839 -52.2 
L 193.128609 -52.2 
L 192.677379 -52.2 
L 192.226149 -52.2 
L 191.774919 -52.2 
L 191.323689 -52.2 
L 190.872459 -52.2 
L 190.421229 -52.2 
L 189.969999 -52.2 
L 189.518769 -52.2 
L 189.067539 -52.2 
L 188.616309 -52.2 
L 188.165079 -52.2 
L 187.713849 -52.2 
L 187.262619 -52.2 
L 186.811389 -52.2 
L 186.360159 -52.2 
L 185.908929 -52.2 
L 185.457699 -52.2 
L 185.006469 -52.2 
L 184.555239 -52.2 
L 184.104009 -52.2 
L 183.652779 -52.2 
L 183.201549 -52.2 
L 182.750319 -52.2 
L 182.299089 -52.2 
L 181.847859 -52.2 
L 181.39663 -52.2 
L 180.9454 -52.2 
L 180.49417 -52.2 
L 180.04294 -52.2 
L 179.59171 -52.2 
L 179.14048 -52.2 
L 178.68925 -52.2 
L 178.23802 -52.2 
L 177.78679 -52.2 
L 177.33556 -52.2 
L 176.88433 -52.2 
L 176.4331 -52.2 
L 175.98187 -52.2 
L 175.53064 -52.2 
L 175.07941 -52.2 
L 174.62818 -52.2 
L 174.17695 -52.2 
L 173.72572 -52.2 
L 173.27449 -52.2 
L 172.82326 -52.2 
L 172.37203 -52.2 
L 171.9208 -52.2 
L 171.46957 -52.2 
L 171.01834 -52.2 
L 170.56711 -52.2 
L 170.11588 -52.2 
L 169.66465 -52.2 
L 169.21342 -52.2 
L 168.76219 -52.2 
L 168.310961 -52.2 
L 167.859731 -52.2 
L 167.408501 -52.2 
L 166.957271 -52.2 
L 166.506041 -52.2 
L 166.054811 -52.2 
L 165.603581 -52.2 
L 165.152351 -52.2 
L 164.701121 -52.2 
L 164.249891 -52.2 
L 163.798661 -52.2 
L 163.347431 -52.2 
L 162.896201 -52.2 
L 162.444971 -52.2 
L 161.993741 -52.2 
L 161.542511 -52.2 
L 161.091281 -52.2 
L 160.640051 -52.2 
L 160.188821 -52.2 
L 159.737591 -52.2 
L 159.286361 -52.2 
L 158.835131 -52.2 
L 158.383901 -52.2 
L 157.932671 -52.2 
L 157.481441 -52.2 
L 157.030211 -52.2 
L 156.578981 -52.2 
L 156.127751 -52.2 
L 155.676521 -52.2 
L 155.225292 -52.2 
L 154.774062 -52.2 
L 154.322832 -52.2 
L 153.871602 -52.2 
L 153.420372 -52.2 
L 152.969142 -52.2 
L 152.517912 -52.2 
L 152.066682 -52.2 
L 151.615452 -52.2 
L 151.164222 -52.2 
L 150.712992 -52.2 
L 150.261762 -52.2 
L 149.810532 -52.2 
L 149.359302 -52.2 
L 148.908072 -52.2 
L 148.456842 -52.2 
L 148.005612 -52.2 
L 147.554382 -52.2 
L 147.103152 -52.2 
L 146.651922 -52.2 
L 146.200692 -52.2 
L 145.749462 -52.2 
L 145.298232 -52.2 
L 144.847002 -52.2 
L 144.395772 -52.2 
L 143.944542 -52.2 
L 143.493312 -52.2 
L 143.042082 -52.2 
L 142.590852 -52.2 
L 142.139623 -52.2 
L 141.688393 -52.2 
L 141.237163 -52.2 
L 140.785933 -52.2 
L 140.334703 -52.2 
L 139.883473 -52.2 
L 139.432243 -52.2 
L 138.981013 -52.2 
L 138.529783 -52.2 
L 138.078553 -52.2 
L 137.627323 -52.2 
L 137.176093 -52.2 
L 136.724863 -52.2 
L 136.273633 -52.2 
L 135.822403 -52.2 
L 135.371173 -52.2 
L 134.919943 -52.2 
L 134.468713 -52.2 
L 134.017483 -52.2 
L 133.566253 -52.2 
L 133.115023 -52.2 
L 132.663793 -52.2 
L 132.212563 -52.2 
L 131.761333 -52.2 
L 131.310103 -52.2 
L 130.858873 -52.2 
L 130.407643 -52.2 
L 129.956413 -52.2 
L 129.505183 -52.2 
L 129.053954 -52.2 
L 128.602724 -52.2 
L 128.151494 -52.2 
L 127.700264 -52.2 
L 127.249034 -52.2 
L 126.797804 -52.2 
L 126.346574 -52.2 
L 125.895344 -52.2 
L 125.444114 -52.2 
L 124.992884 -52.2 
L 124.541654 -52.2 
L 124.090424 -52.2 
L 123.639194 -52.2 
L 123.187964 -52.2 
L 122.736734 -52.2 
L 122.285504 -52.2 
L 121.834274 -52.2 
L 121.383044 -52.2 
L 120.931814 -52.2 
L 120.480584 -52.2 
L 120.029354 -52.2 
L 119.578124 -52.2 
L 119.126894 -52.2 
L 118.675664 -52.2 
L 118.224434 -52.2 
L 117.773204 -52.2 
L 117.321974 -52.2 
L 116.870744 -52.2 
L 116.419514 -52.2 
L 115.968285 -52.2 
L 115.517055 -52.2 
L 115.065825 -52.2 
L 114.614595 -52.2 
L 114.163365 -52.2 
L 113.712135 -52.2 
L 113.260905 -52.2 
L 112.809675 -52.2 
L 112.358445 -52.2 
L 111.907215 -52.2 
L 111.455985 -52.2 
L 111.004755 -52.2 
L 110.553525 -52.2 
L 110.102295 -52.2 
L 109.651065 -52.2 
L 109.199835 -52.2 
L 108.748605 -52.2 
L 108.297375 -52.2 
L 107.846145 -52.2 
L 107.394915 -52.2 
L 106.943685 -52.2 
L 106.492455 -52.2 
L 106.041225 -52.2 
L 105.589995 -52.2 
L 105.138765 -52.2 
L 104.687535 -52.2 
L 104.236305 -52.2 
L 103.785075 -52.2 
L 103.333845 -52.2 
L 102.882616 -52.2 
L 102.431386 -52.2 
L 101.980156 -52.2 
L 101.528926 -52.2 
z
" id="mda14eddd9f" style="stroke:#1f77b4;stroke-opacity:0;"/>
    </defs>
    <g clip-path="url(#p782f6313ea)">
     <use style="fill:#1f77b4;fill-opacity:0;stroke:#1f77b4;stroke-opacity:0;" x="0" xlink:href="#mda14eddd9f" y="360"/>
    </g>
   </g>
   <g id="matplotlib.axis_1">
    <g id="xtick_1">
     <g id="line2d_1">
      <defs>
       <path d="M 0 0 
L 0 3 
" id="m2b96428205" style="stroke:#808080;"/>
      </defs>
      <g>
       <use style="fill:#808080;stroke:#808080;" x="154.249883" xlink:href="#m2b96428205" y="320.4"/>
      </g>
     </g>
     <g id="text_1">
      <!-- 0 -->
      <g transform="translate(149.796133 337.537813)scale(0.14 -0.14)">
       <defs>
        <path d="M 31.78125 66.40625 
Q 24.171875 66.40625 20.328125 58.90625 
Q 16.5 51.421875 16.5 36.375 
Q 16.5 21.390625 20.328125 13.890625 
Q 24.171875 6.390625 31.78125 6.390625 
Q 39.453125 6.390625 43.28125 13.890625 
Q 47.125 21.390625 47.125 36.375 
Q 47.125 51.421875 43.28125 58.90625 
Q 39.453125 66.40625 31.78125 66.40625 
z
M 31.78125 74.21875 
Q 44.046875 74.21875 50.515625 64.515625 
Q 56.984375 54.828125 56.984375 36.375 
Q 56.984375 17.96875 50.515625 8.265625 
Q 44.046875 -1.421875 31.78125 -1.421875 
Q 19.53125 -1.421875 13.0625 8.265625 
Q 6.59375 17.96875 6.59375 36.375 
Q 6.59375 54.828125 13.0625 64.515625 
Q 19.53125 74.21875 31.78125 74.21875 
z
" id="DejaVuSans-48"/>
       </defs>
       <use xlink:href="#DejaVuSans-48"/>
      </g>
     </g>
    </g>
    <g id="xtick_2">
     <g id="line2d_2">
      <g>
       <use style="fill:#808080;stroke:#808080;" x="222.653667" xlink:href="#m2b96428205" y="320.4"/>
      </g>
     </g>
     <g id="text_2">
      <!-- 1 -->
      <g transform="translate(218.199917 337.537813)scale(0.14 -0.14)">
       <defs>
        <path d="M 12.40625 8.296875 
L 28.515625 8.296875 
L 28.515625 63.921875 
L 10.984375 60.40625 
L 10.984375 69.390625 
L 28.421875 72.90625 
L 38.28125 72.90625 
L 38.28125 8.296875 
L 54.390625 8.296875 
L 54.390625 0 
L 12.40625 0 
z
" id="DejaVuSans-49"/>
       </defs>
       <use xlink:href="#DejaVuSans-49"/>
      </g>
     </g>
    </g>
    <g id="xtick_3">
     <g id="line2d_3">
      <g>
       <use style="fill:#808080;stroke:#808080;" x="291.05745" xlink:href="#m2b96428205" y="320.4"/>
      </g>
     </g>
     <g id="text_3">
      <!-- 2 -->
      <g transform="translate(286.6037 337.537813)scale(0.14 -0.14)">
       <defs>
        <path d="M 19.1875 8.296875 
L 53.609375 8.296875 
L 53.609375 0 
L 7.328125 0 
L 7.328125 8.296875 
Q 12.9375 14.109375 22.625 23.890625 
Q 32.328125 33.6875 34.8125 36.53125 
Q 39.546875 41.84375 41.421875 45.53125 
Q 43.3125 49.21875 43.3125 52.78125 
Q 43.3125 58.59375 39.234375 62.25 
Q 35.15625 65.921875 28.609375 65.921875 
Q 23.96875 65.921875 18.8125 64.3125 
Q 13.671875 62.703125 7.8125 59.421875 
L 7.8125 69.390625 
Q 13.765625 71.78125 18.9375 73 
Q 24.125 74.21875 28.421875 74.21875 
Q 39.75 74.21875 46.484375 68.546875 
Q 53.21875 62.890625 53.21875 53.421875 
Q 53.21875 48.921875 51.53125 44.890625 
Q 49.859375 40.875 45.40625 35.40625 
Q 44.1875 33.984375 37.640625 27.21875 
Q 31.109375 20.453125 19.1875 8.296875 
z
" id="DejaVuSans-50"/>
       </defs>
       <use xlink:href="#DejaVuSans-50"/>
      </g>
     </g>
    </g>
   </g>
   <g id="matplotlib.axis_2"/>
   <g id="line2d_4">
    <path clip-path="url(#p782f6313ea)" d="M 101.528926 306.609541 
L 111.004755 306.535918 
L 113.712135 306.269927 
L 117.321974 305.616387 
L 120.029354 304.861231 
L 122.285504 304.021093 
L 124.090424 303.136351 
L 125.895344 302.03498 
L 127.249034 301.021924 
L 129.053954 299.379024 
L 130.858873 297.404203 
L 133.115023 294.495756 
L 135.371173 291.209011 
L 141.688393 281.78172 
L 144.847002 277.142544 
L 146.651922 274.198585 
L 148.456842 270.897754 
L 150.712992 266.177136 
L 153.420372 259.774349 
L 157.030211 250.601945 
L 160.188821 242.123423 
L 162.444971 235.278985 
L 164.249891 228.977984 
L 166.054811 221.736735 
L 167.859731 213.583062 
L 170.11588 202.26451 
L 174.17695 180.323966 
L 176.88433 165.923894 
L 179.59171 152.641976 
L 182.299089 140.68343 
L 185.006469 129.827581 
L 192.677379 99.553091 
L 197.640908 79.766689 
L 199.445828 73.41535 
L 201.250748 67.863243 
L 203.055668 63.257413 
L 204.409358 60.5436 
L 205.763048 58.36065 
L 206.665508 57.299892 
L 207.567968 56.508399 
L 208.470427 55.987714 
L 209.372887 55.8 
L 210.275347 55.950423 
L 211.177807 56.309898 
L 212.080267 56.960163 
L 212.982727 57.890346 
L 213.885187 58.970929 
L 214.787647 60.282839 
L 216.141337 62.669979 
L 218.397487 67.268328 
L 224.263476 80.422159 
L 226.519626 84.569943 
L 228.775776 88.06821 
L 230.580696 90.812997 
L 231.934386 93.19969 
L 233.288076 96.174988 
L 234.641765 100.036037 
L 235.995455 104.870056 
L 237.349145 110.792762 
L 238.702835 117.56489 
L 240.958985 130.227766 
L 244.568825 150.655911 
L 246.373745 159.754117 
L 248.178664 167.83945 
L 250.886044 178.759333 
L 255.398344 196.647317 
L 263.971713 232.680906 
L 265.776633 238.762964 
L 267.581553 243.919275 
L 269.386473 248.268676 
L 271.191393 251.999435 
L 273.898772 257.068427 
L 277.959842 264.803067 
L 281.569682 272.417004 
L 284.728292 279.036376 
L 286.984441 283.263801 
L 288.789361 286.186564 
L 290.594281 288.727458 
L 292.850431 291.430431 
L 295.557811 294.234918 
L 298.265191 296.678951 
L 300.97257 298.749093 
L 303.22872 300.173566 
L 305.9361 301.592165 
L 309.99717 303.412391 
L 313.155779 304.61435 
L 316.314389 305.525554 
L 319.021769 306.071621 
L 322.631609 306.521219 
L 325.790218 306.740388 
L 330.302518 306.840217 
L 332.107438 306.845854 
L 332.107438 306.845854 
" style="fill:none;stroke:#1f77b4;stroke-linecap:square;stroke-width:1.5;"/>
   </g>
   <g id="line2d_5">
    <path clip-path="url(#p782f6313ea)" d="M 153.398361 302.508 
L 276.851742 302.508 
" style="fill:none;stroke:#000000;stroke-width:3;"/>
   </g>
   <g id="patch_3">
    <path d="M 90 320.4 
L 343.636364 320.4 
" style="fill:none;stroke:#808080;stroke-linecap:square;stroke-linejoin:miter;stroke-width:0.8;"/>
   </g>
   <g id="text_4">
    <!-- -0.012  -->
    <g transform="translate(100.277267 289.278)scale(0.15 -0.15)">
     <defs>
      <path d="M 4.890625 31.390625 
L 31.203125 31.390625 
L 31.203125 23.390625 
L 4.890625 23.390625 
z
" id="DejaVuSans-45"/>
      <path d="M 10.6875 12.40625 
L 21 12.40625 
L 21 0 
L 10.6875 0 
z
" id="DejaVuSans-46"/>
      <path id="DejaVuSans-32"/>
     </defs>
     <use xlink:href="#DejaVuSans-45"/>
     <use x="36.083984" xlink:href="#DejaVuSans-48"/>
     <use x="99.707031" xlink:href="#DejaVuSans-46"/>
     <use x="131.494141" xlink:href="#DejaVuSans-48"/>
     <use x="195.117188" xlink:href="#DejaVuSans-49"/>
     <use x="258.740234" xlink:href="#DejaVuSans-50"/>
     <use x="322.363281" xlink:href="#DejaVuSans-32"/>
    </g>
   </g>
   <g id="text_5">
    <!--  1.8 -->
    <g transform="translate(276.851742 289.278)scale(0.15 -0.15)">
     <defs>
      <path d="M 31.78125 34.625 
Q 24.75 34.625 20.71875 30.859375 
Q 16.703125 27.09375 16.703125 20.515625 
Q 16.703125 13.921875 20.71875 10.15625 
Q 24.75 6.390625 31.78125 6.390625 
Q 38.8125 6.390625 42.859375 10.171875 
Q 46.921875 13.96875 46.921875 20.515625 
Q 46.921875 27.09375 42.890625 30.859375 
Q 38.875 34.625 31.78125 34.625 
z
M 21.921875 38.8125 
Q 15.578125 40.375 12.03125 44.71875 
Q 8.5 49.078125 8.5 55.328125 
Q 8.5 64.0625 14.71875 69.140625 
Q 20.953125 74.21875 31.78125 74.21875 
Q 42.671875 74.21875 48.875 69.140625 
Q 55.078125 64.0625 55.078125 55.328125 
Q 55.078125 49.078125 51.53125 44.71875 
Q 48 40.375 41.703125 38.8125 
Q 48.828125 37.15625 52.796875 32.3125 
Q 56.78125 27.484375 56.78125 20.515625 
Q 56.78125 9.90625 50.3125 4.234375 
Q 43.84375 -1.421875 31.78125 -1.421875 
Q 19.734375 -1.421875 13.25 4.234375 
Q 6.78125 9.90625 6.78125 20.515625 
Q 6.78125 27.484375 10.78125 32.3125 
Q 14.796875 37.15625 21.921875 38.8125 
z
M 18.3125 54.390625 
Q 18.3125 48.734375 21.84375 45.5625 
Q 25.390625 42.390625 31.78125 42.390625 
Q 38.140625 42.390625 41.71875 45.5625 
Q 45.3125 48.734375 45.3125 54.390625 
Q 45.3125 60.0625 41.71875 63.234375 
Q 38.140625 66.40625 31.78125 66.40625 
Q 25.390625 66.40625 21.84375 63.234375 
Q 18.3125 60.0625 18.3125 54.390625 
z
" id="DejaVuSans-56"/>
     </defs>
     <use xlink:href="#DejaVuSans-32"/>
     <use x="31.787109" xlink:href="#DejaVuSans-49"/>
     <use x="95.410156" xlink:href="#DejaVuSans-46"/>
     <use x="127.197266" xlink:href="#DejaVuSans-56"/>
    </g>
   </g>
   <g id="text_6">
    <!-- 94% HDI -->
    <g transform="translate(182.443802 228.42)scale(0.15 -0.15)">
     <defs>
      <path d="M 10.984375 1.515625 
L 10.984375 10.5 
Q 14.703125 8.734375 18.5 7.8125 
Q 22.3125 6.890625 25.984375 6.890625 
Q 35.75 6.890625 40.890625 13.453125 
Q 46.046875 20.015625 46.78125 33.40625 
Q 43.953125 29.203125 39.59375 26.953125 
Q 35.25 24.703125 29.984375 24.703125 
Q 19.046875 24.703125 12.671875 31.3125 
Q 6.296875 37.9375 6.296875 49.421875 
Q 6.296875 60.640625 12.9375 67.421875 
Q 19.578125 74.21875 30.609375 74.21875 
Q 43.265625 74.21875 49.921875 64.515625 
Q 56.59375 54.828125 56.59375 36.375 
Q 56.59375 19.140625 48.40625 8.859375 
Q 40.234375 -1.421875 26.421875 -1.421875 
Q 22.703125 -1.421875 18.890625 -0.6875 
Q 15.09375 0.046875 10.984375 1.515625 
z
M 30.609375 32.421875 
Q 37.25 32.421875 41.125 36.953125 
Q 45.015625 41.5 45.015625 49.421875 
Q 45.015625 57.28125 41.125 61.84375 
Q 37.25 66.40625 30.609375 66.40625 
Q 23.96875 66.40625 20.09375 61.84375 
Q 16.21875 57.28125 16.21875 49.421875 
Q 16.21875 41.5 20.09375 36.953125 
Q 23.96875 32.421875 30.609375 32.421875 
z
" id="DejaVuSans-57"/>
      <path d="M 37.796875 64.3125 
L 12.890625 25.390625 
L 37.796875 25.390625 
z
M 35.203125 72.90625 
L 47.609375 72.90625 
L 47.609375 25.390625 
L 58.015625 25.390625 
L 58.015625 17.1875 
L 47.609375 17.1875 
L 47.609375 0 
L 37.796875 0 
L 37.796875 17.1875 
L 4.890625 17.1875 
L 4.890625 26.703125 
z
" id="DejaVuSans-52"/>
      <path d="M 72.703125 32.078125 
Q 68.453125 32.078125 66.03125 28.46875 
Q 63.625 24.859375 63.625 18.40625 
Q 63.625 12.0625 66.03125 8.421875 
Q 68.453125 4.78125 72.703125 4.78125 
Q 76.859375 4.78125 79.265625 8.421875 
Q 81.6875 12.0625 81.6875 18.40625 
Q 81.6875 24.8125 79.265625 28.4375 
Q 76.859375 32.078125 72.703125 32.078125 
z
M 72.703125 38.28125 
Q 80.421875 38.28125 84.953125 32.90625 
Q 89.5 27.546875 89.5 18.40625 
Q 89.5 9.28125 84.9375 3.921875 
Q 80.375 -1.421875 72.703125 -1.421875 
Q 64.890625 -1.421875 60.34375 3.921875 
Q 55.8125 9.28125 55.8125 18.40625 
Q 55.8125 27.59375 60.375 32.9375 
Q 64.9375 38.28125 72.703125 38.28125 
z
M 22.3125 68.015625 
Q 18.109375 68.015625 15.6875 64.375 
Q 13.28125 60.75 13.28125 54.390625 
Q 13.28125 47.953125 15.671875 44.328125 
Q 18.0625 40.71875 22.3125 40.71875 
Q 26.5625 40.71875 28.96875 44.328125 
Q 31.390625 47.953125 31.390625 54.390625 
Q 31.390625 60.6875 28.953125 64.34375 
Q 26.515625 68.015625 22.3125 68.015625 
z
M 66.40625 74.21875 
L 74.21875 74.21875 
L 28.609375 -1.421875 
L 20.796875 -1.421875 
z
M 22.3125 74.21875 
Q 30.03125 74.21875 34.609375 68.875 
Q 39.203125 63.53125 39.203125 54.390625 
Q 39.203125 45.171875 34.640625 39.84375 
Q 30.078125 34.515625 22.3125 34.515625 
Q 14.546875 34.515625 10.03125 39.859375 
Q 5.515625 45.21875 5.515625 54.390625 
Q 5.515625 63.484375 10.046875 68.84375 
Q 14.59375 74.21875 22.3125 74.21875 
z
" id="DejaVuSans-37"/>
      <path d="M 9.8125 72.90625 
L 19.671875 72.90625 
L 19.671875 43.015625 
L 55.515625 43.015625 
L 55.515625 72.90625 
L 65.375 72.90625 
L 65.375 0 
L 55.515625 0 
L 55.515625 34.71875 
L 19.671875 34.71875 
L 19.671875 0 
L 9.8125 0 
z
" id="DejaVuSans-72"/>
      <path d="M 19.671875 64.796875 
L 19.671875 8.109375 
L 31.59375 8.109375 
Q 46.6875 8.109375 53.6875 14.9375 
Q 60.6875 21.78125 60.6875 36.53125 
Q 60.6875 51.171875 53.6875 57.984375 
Q 46.6875 64.796875 31.59375 64.796875 
z
M 9.8125 72.90625 
L 30.078125 72.90625 
Q 51.265625 72.90625 61.171875 64.09375 
Q 71.09375 55.28125 71.09375 36.53125 
Q 71.09375 17.671875 61.125 8.828125 
Q 51.171875 0 30.078125 0 
L 9.8125 0 
z
" id="DejaVuSans-68"/>
      <path d="M 9.8125 72.90625 
L 19.671875 72.90625 
L 19.671875 0 
L 9.8125 0 
z
" id="DejaVuSans-73"/>
     </defs>
     <use xlink:href="#DejaVuSans-57"/>
     <use x="63.623047" xlink:href="#DejaVuSans-52"/>
     <use x="127.246094" xlink:href="#DejaVuSans-37"/>
     <use x="222.265625" xlink:href="#DejaVuSans-32"/>
     <use x="254.052734" xlink:href="#DejaVuSans-72"/>
     <use x="329.248047" xlink:href="#DejaVuSans-68"/>
     <use x="406.25" xlink:href="#DejaVuSans-73"/>
    </g>
   </g>
   <g id="text_7">
    <!-- mean=0.87 -->
    <g transform="translate(169.454899 96.12)scale(0.15 -0.15)">
     <defs>
      <path d="M 52 44.1875 
Q 55.375 50.25 60.0625 53.125 
Q 64.75 56 71.09375 56 
Q 79.640625 56 84.28125 50.015625 
Q 88.921875 44.046875 88.921875 33.015625 
L 88.921875 0 
L 79.890625 0 
L 79.890625 32.71875 
Q 79.890625 40.578125 77.09375 44.375 
Q 74.3125 48.1875 68.609375 48.1875 
Q 61.625 48.1875 57.5625 43.546875 
Q 53.515625 38.921875 53.515625 30.90625 
L 53.515625 0 
L 44.484375 0 
L 44.484375 32.71875 
Q 44.484375 40.625 41.703125 44.40625 
Q 38.921875 48.1875 33.109375 48.1875 
Q 26.21875 48.1875 22.15625 43.53125 
Q 18.109375 38.875 18.109375 30.90625 
L 18.109375 0 
L 9.078125 0 
L 9.078125 54.6875 
L 18.109375 54.6875 
L 18.109375 46.1875 
Q 21.1875 51.21875 25.484375 53.609375 
Q 29.78125 56 35.6875 56 
Q 41.65625 56 45.828125 52.96875 
Q 50 49.953125 52 44.1875 
z
" id="DejaVuSans-109"/>
      <path d="M 56.203125 29.59375 
L 56.203125 25.203125 
L 14.890625 25.203125 
Q 15.484375 15.921875 20.484375 11.0625 
Q 25.484375 6.203125 34.421875 6.203125 
Q 39.59375 6.203125 44.453125 7.46875 
Q 49.3125 8.734375 54.109375 11.28125 
L 54.109375 2.78125 
Q 49.265625 0.734375 44.1875 -0.34375 
Q 39.109375 -1.421875 33.890625 -1.421875 
Q 20.796875 -1.421875 13.15625 6.1875 
Q 5.515625 13.8125 5.515625 26.8125 
Q 5.515625 40.234375 12.765625 48.109375 
Q 20.015625 56 32.328125 56 
Q 43.359375 56 49.78125 48.890625 
Q 56.203125 41.796875 56.203125 29.59375 
z
M 47.21875 32.234375 
Q 47.125 39.59375 43.09375 43.984375 
Q 39.0625 48.390625 32.421875 48.390625 
Q 24.90625 48.390625 20.390625 44.140625 
Q 15.875 39.890625 15.1875 32.171875 
z
" id="DejaVuSans-101"/>
      <path d="M 34.28125 27.484375 
Q 23.390625 27.484375 19.1875 25 
Q 14.984375 22.515625 14.984375 16.5 
Q 14.984375 11.71875 18.140625 8.90625 
Q 21.296875 6.109375 26.703125 6.109375 
Q 34.1875 6.109375 38.703125 11.40625 
Q 43.21875 16.703125 43.21875 25.484375 
L 43.21875 27.484375 
z
M 52.203125 31.203125 
L 52.203125 0 
L 43.21875 0 
L 43.21875 8.296875 
Q 40.140625 3.328125 35.546875 0.953125 
Q 30.953125 -1.421875 24.3125 -1.421875 
Q 15.921875 -1.421875 10.953125 3.296875 
Q 6 8.015625 6 15.921875 
Q 6 25.140625 12.171875 29.828125 
Q 18.359375 34.515625 30.609375 34.515625 
L 43.21875 34.515625 
L 43.21875 35.40625 
Q 43.21875 41.609375 39.140625 45 
Q 35.0625 48.390625 27.6875 48.390625 
Q 23 48.390625 18.546875 47.265625 
Q 14.109375 46.140625 10.015625 43.890625 
L 10.015625 52.203125 
Q 14.9375 54.109375 19.578125 55.046875 
Q 24.21875 56 28.609375 56 
Q 40.484375 56 46.34375 49.84375 
Q 52.203125 43.703125 52.203125 31.203125 
z
" id="DejaVuSans-97"/>
      <path d="M 54.890625 33.015625 
L 54.890625 0 
L 45.90625 0 
L 45.90625 32.71875 
Q 45.90625 40.484375 42.875 44.328125 
Q 39.84375 48.1875 33.796875 48.1875 
Q 26.515625 48.1875 22.3125 43.546875 
Q 18.109375 38.921875 18.109375 30.90625 
L 18.109375 0 
L 9.078125 0 
L 9.078125 54.6875 
L 18.109375 54.6875 
L 18.109375 46.1875 
Q 21.34375 51.125 25.703125 53.5625 
Q 30.078125 56 35.796875 56 
Q 45.21875 56 50.046875 50.171875 
Q 54.890625 44.34375 54.890625 33.015625 
z
" id="DejaVuSans-110"/>
      <path d="M 10.59375 45.40625 
L 73.1875 45.40625 
L 73.1875 37.203125 
L 10.59375 37.203125 
z
M 10.59375 25.484375 
L 73.1875 25.484375 
L 73.1875 17.1875 
L 10.59375 17.1875 
z
" id="DejaVuSans-61"/>
      <path d="M 8.203125 72.90625 
L 55.078125 72.90625 
L 55.078125 68.703125 
L 28.609375 0 
L 18.3125 0 
L 43.21875 64.59375 
L 8.203125 64.59375 
z
" id="DejaVuSans-55"/>
     </defs>
     <use xlink:href="#DejaVuSans-109"/>
     <use x="97.412109" xlink:href="#DejaVuSans-101"/>
     <use x="158.935547" xlink:href="#DejaVuSans-97"/>
     <use x="220.214844" xlink:href="#DejaVuSans-110"/>
     <use x="283.59375" xlink:href="#DejaVuSans-61"/>
     <use x="367.382812" xlink:href="#DejaVuSans-48"/>
     <use x="431.005859" xlink:href="#DejaVuSans-46"/>
     <use x="462.792969" xlink:href="#DejaVuSans-56"/>
     <use x="526.416016" xlink:href="#DejaVuSans-55"/>
    </g>
   </g>
   <g id="text_8">
    <!-- a -->
    <g transform="translate(211.915682 37.2)scale(0.16 -0.16)">
     <use xlink:href="#DejaVuSans-97"/>
    </g>
   </g>
  </g>
  <g id="axes_2">
   <g id="patch_4">
    <path d="M 394.363636 320.4 
L 648 320.4 
L 648 43.2 
L 394.363636 43.2 
z
" style="fill:#ffffff;"/>
   </g>
   <g id="PolyCollection_2">
    <defs>
     <path d="M 405.892562 -52.2 
L 405.892562 -54.026987 
L 406.343792 -54.028056 
L 406.795022 -54.027863 
L 407.246252 -54.03453 
L 407.697482 -54.040067 
L 408.148712 -54.044578 
L 408.599942 -54.050991 
L 409.051172 -54.061693 
L 409.502402 -54.076827 
L 409.953632 -54.091372 
L 410.404862 -54.10546 
L 410.856092 -54.127281 
L 411.307322 -54.148863 
L 411.758552 -54.175551 
L 412.209782 -54.202233 
L 412.661011 -54.234194 
L 413.112241 -54.266257 
L 413.563471 -54.300726 
L 414.014701 -54.337508 
L 414.465931 -54.377034 
L 414.917161 -54.416795 
L 415.368391 -54.467053 
L 415.819621 -54.512047 
L 416.270851 -54.564379 
L 416.722081 -54.618709 
L 417.173311 -54.672044 
L 417.624541 -54.729469 
L 418.075771 -54.78564 
L 418.527001 -54.842738 
L 418.978231 -54.900595 
L 419.429461 -54.961966 
L 419.880691 -55.024465 
L 420.331921 -55.088092 
L 420.783151 -55.158707 
L 421.234381 -55.226079 
L 421.685611 -55.295058 
L 422.136841 -55.368745 
L 422.588071 -55.44513 
L 423.039301 -55.519348 
L 423.490531 -55.602175 
L 423.941761 -55.688857 
L 424.392991 -55.779955 
L 424.844221 -55.873164 
L 425.295451 -55.977205 
L 425.74668 -56.079419 
L 426.19791 -56.193752 
L 426.64914 -56.31097 
L 427.10037 -56.43869 
L 427.5516 -56.571755 
L 428.00283 -56.715968 
L 428.45406 -56.875414 
L 428.90529 -57.049107 
L 429.35652 -57.223949 
L 429.80775 -57.413274 
L 430.25898 -57.623979 
L 430.71021 -57.843414 
L 431.16144 -58.079741 
L 431.61267 -58.3312 
L 432.0639 -58.595409 
L 432.51513 -58.886734 
L 432.96636 -59.187756 
L 433.41759 -59.502987 
L 433.86882 -59.83496 
L 434.32005 -60.192505 
L 434.77128 -60.557242 
L 435.22251 -60.944239 
L 435.67374 -61.345819 
L 436.12497 -61.772823 
L 436.5762 -62.212362 
L 437.02743 -62.675257 
L 437.47866 -63.147965 
L 437.92989 -63.631262 
L 438.38112 -64.138416 
L 438.832349 -64.664253 
L 439.283579 -65.205473 
L 439.734809 -65.767495 
L 440.186039 -66.345418 
L 440.637269 -66.927415 
L 441.088499 -67.528129 
L 441.539729 -68.139545 
L 441.990959 -68.780999 
L 442.442189 -69.41872 
L 442.893419 -70.07741 
L 443.344649 -70.743453 
L 443.795879 -71.435752 
L 444.247109 -72.122899 
L 444.698339 -72.838879 
L 445.149569 -73.557498 
L 445.600799 -74.296077 
L 446.052029 -75.051076 
L 446.503259 -75.802833 
L 446.954489 -76.567331 
L 447.405719 -77.356318 
L 447.856949 -78.158043 
L 448.308179 -78.978898 
L 448.759409 -79.799839 
L 449.210639 -80.643415 
L 449.661869 -81.514876 
L 450.113099 -82.388562 
L 450.564329 -83.288653 
L 451.015559 -84.212276 
L 451.466789 -85.134833 
L 451.918018 -86.076686 
L 452.369248 -87.038996 
L 452.820478 -88.011471 
L 453.271708 -89.013393 
L 453.722938 -90.013121 
L 454.174168 -91.038499 
L 454.625398 -92.085422 
L 455.076628 -93.158073 
L 455.527858 -94.256152 
L 455.979088 -95.381293 
L 456.430318 -96.518345 
L 456.881548 -97.700144 
L 457.332778 -98.896489 
L 457.784008 -100.132187 
L 458.235238 -101.392623 
L 458.686468 -102.686288 
L 459.137698 -104.0175 
L 459.588928 -105.361499 
L 460.040158 -106.734671 
L 460.491388 -108.140067 
L 460.942618 -109.566482 
L 461.393848 -111.031244 
L 461.845078 -112.530519 
L 462.296308 -114.04934 
L 462.747538 -115.600163 
L 463.198768 -117.182911 
L 463.649998 -118.785819 
L 464.101228 -120.40792 
L 464.552458 -122.031581 
L 465.003687 -123.685626 
L 465.454917 -125.326888 
L 465.906147 -127.007085 
L 466.357377 -128.669746 
L 466.808607 -130.355402 
L 467.259837 -132.005022 
L 467.711067 -133.657968 
L 468.162297 -135.298084 
L 468.613527 -136.927662 
L 469.064757 -138.533771 
L 469.515987 -140.106058 
L 469.967217 -141.681986 
L 470.418447 -143.252644 
L 470.869677 -144.799978 
L 471.320907 -146.326335 
L 471.772137 -147.829523 
L 472.223367 -149.327113 
L 472.674597 -150.795628 
L 473.125827 -152.248537 
L 473.577057 -153.687232 
L 474.028287 -155.149479 
L 474.479517 -156.614294 
L 474.930747 -158.100737 
L 475.381977 -159.572415 
L 475.833207 -161.132086 
L 476.284437 -162.686259 
L 476.735667 -164.25368 
L 477.186897 -165.865175 
L 477.638127 -167.530153 
L 478.089356 -169.240882 
L 478.540586 -171.043132 
L 478.991816 -172.896319 
L 479.443046 -174.802581 
L 479.894276 -176.763313 
L 480.345506 -178.811806 
L 480.796736 -180.913328 
L 481.247966 -183.090721 
L 481.699196 -185.34458 
L 482.150426 -187.627134 
L 482.601656 -189.980112 
L 483.052886 -192.352337 
L 483.504116 -194.794111 
L 483.955346 -197.278648 
L 484.406576 -199.785169 
L 484.857806 -202.308322 
L 485.309036 -204.887005 
L 485.760266 -207.431687 
L 486.211496 -210.006084 
L 486.662726 -212.575573 
L 487.113956 -215.103601 
L 487.565186 -217.616871 
L 488.016416 -220.083803 
L 488.467646 -222.521742 
L 488.918876 -224.929785 
L 489.370106 -227.251928 
L 489.821336 -229.539937 
L 490.272566 -231.779302 
L 490.723796 -233.92825 
L 491.175025 -236.024049 
L 491.626255 -238.044483 
L 492.077485 -239.972643 
L 492.528715 -241.871754 
L 492.979945 -243.714276 
L 493.431175 -245.473964 
L 493.882405 -247.174358 
L 494.333635 -248.837721 
L 494.784865 -250.412458 
L 495.236095 -251.985722 
L 495.687325 -253.506222 
L 496.138555 -254.990583 
L 496.589785 -256.414652 
L 497.041015 -257.821539 
L 497.492245 -259.22525 
L 497.943475 -260.624367 
L 498.394705 -261.982654 
L 498.845935 -263.340582 
L 499.297165 -264.697736 
L 499.748395 -266.068331 
L 500.199625 -267.438767 
L 500.650855 -268.837892 
L 501.102085 -270.244837 
L 501.553315 -271.658784 
L 502.004545 -273.084389 
L 502.455775 -274.53065 
L 502.907005 -275.982604 
L 503.358235 -277.429872 
L 503.809465 -278.873704 
L 504.260694 -280.329865 
L 504.711924 -281.780153 
L 505.163154 -283.217067 
L 505.614384 -284.651254 
L 506.065614 -286.032079 
L 506.516844 -287.403462 
L 506.968074 -288.730851 
L 507.419304 -290.02622 
L 507.870534 -291.272947 
L 508.321764 -292.53524 
L 508.772994 -293.697591 
L 509.224224 -294.805393 
L 509.675454 -295.848025 
L 510.126684 -296.804551 
L 510.577914 -297.70089 
L 511.029144 -298.512992 
L 511.480374 -299.239931 
L 511.931604 -299.906869 
L 512.382834 -300.507346 
L 512.834064 -301.060382 
L 513.285294 -301.537258 
L 513.736524 -301.994711 
L 514.187754 -302.367748 
L 514.638984 -302.683004 
L 515.090214 -302.963205 
L 515.541444 -303.215261 
L 515.992674 -303.421528 
L 516.443904 -303.610128 
L 516.895134 -303.724941 
L 517.346363 -303.840374 
L 517.797593 -303.960196 
L 518.248823 -304.059626 
L 518.700053 -304.109652 
L 519.151283 -304.148893 
L 519.602513 -304.170088 
L 520.053743 -304.199745 
L 520.504973 -304.197039 
L 520.956203 -304.2 
L 521.407433 -304.150411 
L 521.858663 -304.0896 
L 522.309893 -303.995859 
L 522.761123 -303.880307 
L 523.212353 -303.755643 
L 523.663583 -303.569502 
L 524.114813 -303.351176 
L 524.566043 -303.067389 
L 525.017273 -302.753753 
L 525.468503 -302.434679 
L 525.919733 -302.044554 
L 526.370963 -301.575298 
L 526.822193 -301.087829 
L 527.273423 -300.555239 
L 527.724653 -299.961682 
L 528.175883 -299.342334 
L 528.627113 -298.717611 
L 529.078343 -298.035406 
L 529.529573 -297.337032 
L 529.980803 -296.582539 
L 530.432032 -295.830677 
L 530.883262 -295.050925 
L 531.334492 -294.239418 
L 531.785722 -293.450392 
L 532.236952 -292.636757 
L 532.688182 -291.826157 
L 533.139412 -291.044141 
L 533.590642 -290.238404 
L 534.041872 -289.412223 
L 534.493102 -288.613619 
L 534.944332 -287.819575 
L 535.395562 -286.983009 
L 535.846792 -286.211428 
L 536.298022 -285.379657 
L 536.749252 -284.539904 
L 537.200482 -283.682685 
L 537.651712 -282.855191 
L 538.102942 -281.990358 
L 538.554172 -281.092764 
L 539.005402 -280.129703 
L 539.456632 -279.174891 
L 539.907862 -278.181473 
L 540.359092 -277.139607 
L 540.810322 -276.032021 
L 541.261552 -274.891275 
L 541.712782 -273.676896 
L 542.164012 -272.396752 
L 542.615242 -271.070497 
L 543.066472 -269.678632 
L 543.517701 -268.184673 
L 543.968931 -266.630148 
L 544.420161 -265.038867 
L 544.871391 -263.398483 
L 545.322621 -261.650009 
L 545.773851 -259.828414 
L 546.225081 -257.964875 
L 546.676311 -256.034104 
L 547.127541 -254.047626 
L 547.578771 -252.007738 
L 548.030001 -249.907213 
L 548.481231 -247.765373 
L 548.932461 -245.573593 
L 549.383691 -243.301425 
L 549.834921 -241.051661 
L 550.286151 -238.771566 
L 550.737381 -236.48656 
L 551.188611 -234.209322 
L 551.639841 -231.915312 
L 552.091071 -229.612594 
L 552.542301 -227.313418 
L 552.993531 -225.030711 
L 553.444761 -222.753086 
L 553.895991 -220.498631 
L 554.347221 -218.269672 
L 554.798451 -216.050288 
L 555.249681 -213.896335 
L 555.700911 -211.761462 
L 556.152141 -209.645681 
L 556.60337 -207.5529 
L 557.0546 -205.537345 
L 557.50583 -203.545561 
L 557.95706 -201.588681 
L 558.40829 -199.659782 
L 558.85952 -197.771765 
L 559.31075 -195.888383 
L 559.76198 -194.053223 
L 560.21321 -192.230513 
L 560.66444 -190.404983 
L 561.11567 -188.579392 
L 561.5669 -186.798283 
L 562.01813 -185.006522 
L 562.46936 -183.232231 
L 562.92059 -181.461723 
L 563.37182 -179.685261 
L 563.82305 -177.913143 
L 564.27428 -176.134718 
L 564.72551 -174.363154 
L 565.17674 -172.591973 
L 565.62797 -170.817638 
L 566.0792 -169.016962 
L 566.53043 -167.199286 
L 566.98166 -165.401865 
L 567.43289 -163.622158 
L 567.88412 -161.83962 
L 568.33535 -160.055618 
L 568.78658 -158.302836 
L 569.23781 -156.551851 
L 569.689039 -154.792524 
L 570.140269 -153.073429 
L 570.591499 -151.328126 
L 571.042729 -149.643195 
L 571.493959 -147.978159 
L 571.945189 -146.326842 
L 572.396419 -144.688968 
L 572.847649 -143.060722 
L 573.298879 -141.469882 
L 573.750109 -139.880969 
L 574.201339 -138.308959 
L 574.652569 -136.754032 
L 575.103799 -135.221048 
L 575.555029 -133.689279 
L 576.006259 -132.168387 
L 576.457489 -130.674485 
L 576.908719 -129.170531 
L 577.359949 -127.675503 
L 577.811179 -126.199916 
L 578.262409 -124.728101 
L 578.713639 -123.240289 
L 579.164869 -121.762929 
L 579.616099 -120.292028 
L 580.067329 -118.841554 
L 580.518559 -117.386644 
L 580.969789 -115.917397 
L 581.421019 -114.473124 
L 581.872249 -113.024656 
L 582.323479 -111.573519 
L 582.774708 -110.155501 
L 583.225938 -108.743859 
L 583.677168 -107.325153 
L 584.128398 -105.925022 
L 584.579628 -104.552546 
L 585.030858 -103.188014 
L 585.482088 -101.831787 
L 585.933318 -100.480225 
L 586.384548 -99.167791 
L 586.835778 -97.888284 
L 587.287008 -96.61466 
L 587.738238 -95.365314 
L 588.189468 -94.151089 
L 588.640698 -92.94635 
L 589.091928 -91.758056 
L 589.543158 -90.599799 
L 589.994388 -89.465463 
L 590.445618 -88.369891 
L 590.896848 -87.292701 
L 591.348078 -86.237175 
L 591.799308 -85.195876 
L 592.250538 -84.18252 
L 592.701768 -83.201608 
L 593.152998 -82.239785 
L 593.604228 -81.319202 
L 594.055458 -80.403535 
L 594.506688 -79.527603 
L 594.957918 -78.665436 
L 595.409148 -77.830404 
L 595.860377 -77.016702 
L 596.311607 -76.226581 
L 596.762837 -75.472789 
L 597.214067 -74.733388 
L 597.665297 -74.024111 
L 598.116527 -73.30466 
L 598.567757 -72.637499 
L 599.018987 -71.990963 
L 599.470217 -71.381773 
L 599.921447 -70.776232 
L 600.372677 -70.203593 
L 600.823907 -69.657296 
L 601.275137 -69.127342 
L 601.726367 -68.61871 
L 602.177597 -68.139917 
L 602.628827 -67.667553 
L 603.080057 -67.223211 
L 603.531287 -66.798402 
L 603.982517 -66.39043 
L 604.433747 -66.00353 
L 604.884977 -65.627333 
L 605.336207 -65.274556 
L 605.787437 -64.938284 
L 606.238667 -64.617958 
L 606.689897 -64.317682 
L 607.141127 -64.031748 
L 607.592357 -63.754958 
L 608.043587 -63.496547 
L 608.494817 -63.250676 
L 608.946046 -63.019084 
L 609.397276 -62.790682 
L 609.848506 -62.566238 
L 610.299736 -62.370298 
L 610.750966 -62.174924 
L 611.202196 -61.989816 
L 611.653426 -61.816019 
L 612.104656 -61.633014 
L 612.555886 -61.461783 
L 613.007116 -61.300253 
L 613.458346 -61.14423 
L 613.909576 -60.987844 
L 614.360806 -60.833307 
L 614.812036 -60.682306 
L 615.263266 -60.524341 
L 615.714496 -60.369718 
L 616.165726 -60.220188 
L 616.616956 -60.074879 
L 617.068186 -59.922661 
L 617.519416 -59.766256 
L 617.970646 -59.608344 
L 618.421876 -59.448762 
L 618.873106 -59.287422 
L 619.324336 -59.126655 
L 619.775566 -58.963691 
L 620.226796 -58.801067 
L 620.678026 -58.633838 
L 621.129256 -58.465162 
L 621.580486 -58.297664 
L 622.031715 -58.126474 
L 622.482945 -57.950662 
L 622.934175 -57.783252 
L 623.385405 -57.613077 
L 623.836635 -57.436374 
L 624.287865 -57.271938 
L 624.739095 -57.106296 
L 625.190325 -56.944579 
L 625.641555 -56.787296 
L 626.092785 -56.627424 
L 626.544015 -56.472948 
L 626.995245 -56.3167 
L 627.446475 -56.169435 
L 627.897705 -56.028657 
L 628.348935 -55.887246 
L 628.800165 -55.753651 
L 629.251395 -55.62118 
L 629.702625 -55.502884 
L 630.153855 -55.385249 
L 630.605085 -55.276148 
L 631.056315 -55.173002 
L 631.507545 -55.076665 
L 631.958775 -54.985614 
L 632.410005 -54.904717 
L 632.861235 -54.830754 
L 633.312465 -54.763934 
L 633.763695 -54.702072 
L 634.214925 -54.650458 
L 634.666155 -54.603916 
L 635.117384 -54.570573 
L 635.568614 -54.546416 
L 636.019844 -54.532138 
L 636.471074 -54.521505 
L 636.471074 -52.2 
L 636.471074 -52.2 
L 636.019844 -52.2 
L 635.568614 -52.2 
L 635.117384 -52.2 
L 634.666155 -52.2 
L 634.214925 -52.2 
L 633.763695 -52.2 
L 633.312465 -52.2 
L 632.861235 -52.2 
L 632.410005 -52.2 
L 631.958775 -52.2 
L 631.507545 -52.2 
L 631.056315 -52.2 
L 630.605085 -52.2 
L 630.153855 -52.2 
L 629.702625 -52.2 
L 629.251395 -52.2 
L 628.800165 -52.2 
L 628.348935 -52.2 
L 627.897705 -52.2 
L 627.446475 -52.2 
L 626.995245 -52.2 
L 626.544015 -52.2 
L 626.092785 -52.2 
L 625.641555 -52.2 
L 625.190325 -52.2 
L 624.739095 -52.2 
L 624.287865 -52.2 
L 623.836635 -52.2 
L 623.385405 -52.2 
L 622.934175 -52.2 
L 622.482945 -52.2 
L 622.031715 -52.2 
L 621.580486 -52.2 
L 621.129256 -52.2 
L 620.678026 -52.2 
L 620.226796 -52.2 
L 619.775566 -52.2 
L 619.324336 -52.2 
L 618.873106 -52.2 
L 618.421876 -52.2 
L 617.970646 -52.2 
L 617.519416 -52.2 
L 617.068186 -52.2 
L 616.616956 -52.2 
L 616.165726 -52.2 
L 615.714496 -52.2 
L 615.263266 -52.2 
L 614.812036 -52.2 
L 614.360806 -52.2 
L 613.909576 -52.2 
L 613.458346 -52.2 
L 613.007116 -52.2 
L 612.555886 -52.2 
L 612.104656 -52.2 
L 611.653426 -52.2 
L 611.202196 -52.2 
L 610.750966 -52.2 
L 610.299736 -52.2 
L 609.848506 -52.2 
L 609.397276 -52.2 
L 608.946046 -52.2 
L 608.494817 -52.2 
L 608.043587 -52.2 
L 607.592357 -52.2 
L 607.141127 -52.2 
L 606.689897 -52.2 
L 606.238667 -52.2 
L 605.787437 -52.2 
L 605.336207 -52.2 
L 604.884977 -52.2 
L 604.433747 -52.2 
L 603.982517 -52.2 
L 603.531287 -52.2 
L 603.080057 -52.2 
L 602.628827 -52.2 
L 602.177597 -52.2 
L 601.726367 -52.2 
L 601.275137 -52.2 
L 600.823907 -52.2 
L 600.372677 -52.2 
L 599.921447 -52.2 
L 599.470217 -52.2 
L 599.018987 -52.2 
L 598.567757 -52.2 
L 598.116527 -52.2 
L 597.665297 -52.2 
L 597.214067 -52.2 
L 596.762837 -52.2 
L 596.311607 -52.2 
L 595.860377 -52.2 
L 595.409148 -52.2 
L 594.957918 -52.2 
L 594.506688 -52.2 
L 594.055458 -52.2 
L 593.604228 -52.2 
L 593.152998 -52.2 
L 592.701768 -52.2 
L 592.250538 -52.2 
L 591.799308 -52.2 
L 591.348078 -52.2 
L 590.896848 -52.2 
L 590.445618 -52.2 
L 589.994388 -52.2 
L 589.543158 -52.2 
L 589.091928 -52.2 
L 588.640698 -52.2 
L 588.189468 -52.2 
L 587.738238 -52.2 
L 587.287008 -52.2 
L 586.835778 -52.2 
L 586.384548 -52.2 
L 585.933318 -52.2 
L 585.482088 -52.2 
L 585.030858 -52.2 
L 584.579628 -52.2 
L 584.128398 -52.2 
L 583.677168 -52.2 
L 583.225938 -52.2 
L 582.774708 -52.2 
L 582.323479 -52.2 
L 581.872249 -52.2 
L 581.421019 -52.2 
L 580.969789 -52.2 
L 580.518559 -52.2 
L 580.067329 -52.2 
L 579.616099 -52.2 
L 579.164869 -52.2 
L 578.713639 -52.2 
L 578.262409 -52.2 
L 577.811179 -52.2 
L 577.359949 -52.2 
L 576.908719 -52.2 
L 576.457489 -52.2 
L 576.006259 -52.2 
L 575.555029 -52.2 
L 575.103799 -52.2 
L 574.652569 -52.2 
L 574.201339 -52.2 
L 573.750109 -52.2 
L 573.298879 -52.2 
L 572.847649 -52.2 
L 572.396419 -52.2 
L 571.945189 -52.2 
L 571.493959 -52.2 
L 571.042729 -52.2 
L 570.591499 -52.2 
L 570.140269 -52.2 
L 569.689039 -52.2 
L 569.23781 -52.2 
L 568.78658 -52.2 
L 568.33535 -52.2 
L 567.88412 -52.2 
L 567.43289 -52.2 
L 566.98166 -52.2 
L 566.53043 -52.2 
L 566.0792 -52.2 
L 565.62797 -52.2 
L 565.17674 -52.2 
L 564.72551 -52.2 
L 564.27428 -52.2 
L 563.82305 -52.2 
L 563.37182 -52.2 
L 562.92059 -52.2 
L 562.46936 -52.2 
L 562.01813 -52.2 
L 561.5669 -52.2 
L 561.11567 -52.2 
L 560.66444 -52.2 
L 560.21321 -52.2 
L 559.76198 -52.2 
L 559.31075 -52.2 
L 558.85952 -52.2 
L 558.40829 -52.2 
L 557.95706 -52.2 
L 557.50583 -52.2 
L 557.0546 -52.2 
L 556.60337 -52.2 
L 556.152141 -52.2 
L 555.700911 -52.2 
L 555.249681 -52.2 
L 554.798451 -52.2 
L 554.347221 -52.2 
L 553.895991 -52.2 
L 553.444761 -52.2 
L 552.993531 -52.2 
L 552.542301 -52.2 
L 552.091071 -52.2 
L 551.639841 -52.2 
L 551.188611 -52.2 
L 550.737381 -52.2 
L 550.286151 -52.2 
L 549.834921 -52.2 
L 549.383691 -52.2 
L 548.932461 -52.2 
L 548.481231 -52.2 
L 548.030001 -52.2 
L 547.578771 -52.2 
L 547.127541 -52.2 
L 546.676311 -52.2 
L 546.225081 -52.2 
L 545.773851 -52.2 
L 545.322621 -52.2 
L 544.871391 -52.2 
L 544.420161 -52.2 
L 543.968931 -52.2 
L 543.517701 -52.2 
L 543.066472 -52.2 
L 542.615242 -52.2 
L 542.164012 -52.2 
L 541.712782 -52.2 
L 541.261552 -52.2 
L 540.810322 -52.2 
L 540.359092 -52.2 
L 539.907862 -52.2 
L 539.456632 -52.2 
L 539.005402 -52.2 
L 538.554172 -52.2 
L 538.102942 -52.2 
L 537.651712 -52.2 
L 537.200482 -52.2 
L 536.749252 -52.2 
L 536.298022 -52.2 
L 535.846792 -52.2 
L 535.395562 -52.2 
L 534.944332 -52.2 
L 534.493102 -52.2 
L 534.041872 -52.2 
L 533.590642 -52.2 
L 533.139412 -52.2 
L 532.688182 -52.2 
L 532.236952 -52.2 
L 531.785722 -52.2 
L 531.334492 -52.2 
L 530.883262 -52.2 
L 530.432032 -52.2 
L 529.980803 -52.2 
L 529.529573 -52.2 
L 529.078343 -52.2 
L 528.627113 -52.2 
L 528.175883 -52.2 
L 527.724653 -52.2 
L 527.273423 -52.2 
L 526.822193 -52.2 
L 526.370963 -52.2 
L 525.919733 -52.2 
L 525.468503 -52.2 
L 525.017273 -52.2 
L 524.566043 -52.2 
L 524.114813 -52.2 
L 523.663583 -52.2 
L 523.212353 -52.2 
L 522.761123 -52.2 
L 522.309893 -52.2 
L 521.858663 -52.2 
L 521.407433 -52.2 
L 520.956203 -52.2 
L 520.504973 -52.2 
L 520.053743 -52.2 
L 519.602513 -52.2 
L 519.151283 -52.2 
L 518.700053 -52.2 
L 518.248823 -52.2 
L 517.797593 -52.2 
L 517.346363 -52.2 
L 516.895134 -52.2 
L 516.443904 -52.2 
L 515.992674 -52.2 
L 515.541444 -52.2 
L 515.090214 -52.2 
L 514.638984 -52.2 
L 514.187754 -52.2 
L 513.736524 -52.2 
L 513.285294 -52.2 
L 512.834064 -52.2 
L 512.382834 -52.2 
L 511.931604 -52.2 
L 511.480374 -52.2 
L 511.029144 -52.2 
L 510.577914 -52.2 
L 510.126684 -52.2 
L 509.675454 -52.2 
L 509.224224 -52.2 
L 508.772994 -52.2 
L 508.321764 -52.2 
L 507.870534 -52.2 
L 507.419304 -52.2 
L 506.968074 -52.2 
L 506.516844 -52.2 
L 506.065614 -52.2 
L 505.614384 -52.2 
L 505.163154 -52.2 
L 504.711924 -52.2 
L 504.260694 -52.2 
L 503.809465 -52.2 
L 503.358235 -52.2 
L 502.907005 -52.2 
L 502.455775 -52.2 
L 502.004545 -52.2 
L 501.553315 -52.2 
L 501.102085 -52.2 
L 500.650855 -52.2 
L 500.199625 -52.2 
L 499.748395 -52.2 
L 499.297165 -52.2 
L 498.845935 -52.2 
L 498.394705 -52.2 
L 497.943475 -52.2 
L 497.492245 -52.2 
L 497.041015 -52.2 
L 496.589785 -52.2 
L 496.138555 -52.2 
L 495.687325 -52.2 
L 495.236095 -52.2 
L 494.784865 -52.2 
L 494.333635 -52.2 
L 493.882405 -52.2 
L 493.431175 -52.2 
L 492.979945 -52.2 
L 492.528715 -52.2 
L 492.077485 -52.2 
L 491.626255 -52.2 
L 491.175025 -52.2 
L 490.723796 -52.2 
L 490.272566 -52.2 
L 489.821336 -52.2 
L 489.370106 -52.2 
L 488.918876 -52.2 
L 488.467646 -52.2 
L 488.016416 -52.2 
L 487.565186 -52.2 
L 487.113956 -52.2 
L 486.662726 -52.2 
L 486.211496 -52.2 
L 485.760266 -52.2 
L 485.309036 -52.2 
L 484.857806 -52.2 
L 484.406576 -52.2 
L 483.955346 -52.2 
L 483.504116 -52.2 
L 483.052886 -52.2 
L 482.601656 -52.2 
L 482.150426 -52.2 
L 481.699196 -52.2 
L 481.247966 -52.2 
L 480.796736 -52.2 
L 480.345506 -52.2 
L 479.894276 -52.2 
L 479.443046 -52.2 
L 478.991816 -52.2 
L 478.540586 -52.2 
L 478.089356 -52.2 
L 477.638127 -52.2 
L 477.186897 -52.2 
L 476.735667 -52.2 
L 476.284437 -52.2 
L 475.833207 -52.2 
L 475.381977 -52.2 
L 474.930747 -52.2 
L 474.479517 -52.2 
L 474.028287 -52.2 
L 473.577057 -52.2 
L 473.125827 -52.2 
L 472.674597 -52.2 
L 472.223367 -52.2 
L 471.772137 -52.2 
L 471.320907 -52.2 
L 470.869677 -52.2 
L 470.418447 -52.2 
L 469.967217 -52.2 
L 469.515987 -52.2 
L 469.064757 -52.2 
L 468.613527 -52.2 
L 468.162297 -52.2 
L 467.711067 -52.2 
L 467.259837 -52.2 
L 466.808607 -52.2 
L 466.357377 -52.2 
L 465.906147 -52.2 
L 465.454917 -52.2 
L 465.003687 -52.2 
L 464.552458 -52.2 
L 464.101228 -52.2 
L 463.649998 -52.2 
L 463.198768 -52.2 
L 462.747538 -52.2 
L 462.296308 -52.2 
L 461.845078 -52.2 
L 461.393848 -52.2 
L 460.942618 -52.2 
L 460.491388 -52.2 
L 460.040158 -52.2 
L 459.588928 -52.2 
L 459.137698 -52.2 
L 458.686468 -52.2 
L 458.235238 -52.2 
L 457.784008 -52.2 
L 457.332778 -52.2 
L 456.881548 -52.2 
L 456.430318 -52.2 
L 455.979088 -52.2 
L 455.527858 -52.2 
L 455.076628 -52.2 
L 454.625398 -52.2 
L 454.174168 -52.2 
L 453.722938 -52.2 
L 453.271708 -52.2 
L 452.820478 -52.2 
L 452.369248 -52.2 
L 451.918018 -52.2 
L 451.466789 -52.2 
L 451.015559 -52.2 
L 450.564329 -52.2 
L 450.113099 -52.2 
L 449.661869 -52.2 
L 449.210639 -52.2 
L 448.759409 -52.2 
L 448.308179 -52.2 
L 447.856949 -52.2 
L 447.405719 -52.2 
L 446.954489 -52.2 
L 446.503259 -52.2 
L 446.052029 -52.2 
L 445.600799 -52.2 
L 445.149569 -52.2 
L 444.698339 -52.2 
L 444.247109 -52.2 
L 443.795879 -52.2 
L 443.344649 -52.2 
L 442.893419 -52.2 
L 442.442189 -52.2 
L 441.990959 -52.2 
L 441.539729 -52.2 
L 441.088499 -52.2 
L 440.637269 -52.2 
L 440.186039 -52.2 
L 439.734809 -52.2 
L 439.283579 -52.2 
L 438.832349 -52.2 
L 438.38112 -52.2 
L 437.92989 -52.2 
L 437.47866 -52.2 
L 437.02743 -52.2 
L 436.5762 -52.2 
L 436.12497 -52.2 
L 435.67374 -52.2 
L 435.22251 -52.2 
L 434.77128 -52.2 
L 434.32005 -52.2 
L 433.86882 -52.2 
L 433.41759 -52.2 
L 432.96636 -52.2 
L 432.51513 -52.2 
L 432.0639 -52.2 
L 431.61267 -52.2 
L 431.16144 -52.2 
L 430.71021 -52.2 
L 430.25898 -52.2 
L 429.80775 -52.2 
L 429.35652 -52.2 
L 428.90529 -52.2 
L 428.45406 -52.2 
L 428.00283 -52.2 
L 427.5516 -52.2 
L 427.10037 -52.2 
L 426.64914 -52.2 
L 426.19791 -52.2 
L 425.74668 -52.2 
L 425.295451 -52.2 
L 424.844221 -52.2 
L 424.392991 -52.2 
L 423.941761 -52.2 
L 423.490531 -52.2 
L 423.039301 -52.2 
L 422.588071 -52.2 
L 422.136841 -52.2 
L 421.685611 -52.2 
L 421.234381 -52.2 
L 420.783151 -52.2 
L 420.331921 -52.2 
L 419.880691 -52.2 
L 419.429461 -52.2 
L 418.978231 -52.2 
L 418.527001 -52.2 
L 418.075771 -52.2 
L 417.624541 -52.2 
L 417.173311 -52.2 
L 416.722081 -52.2 
L 416.270851 -52.2 
L 415.819621 -52.2 
L 415.368391 -52.2 
L 414.917161 -52.2 
L 414.465931 -52.2 
L 414.014701 -52.2 
L 413.563471 -52.2 
L 413.112241 -52.2 
L 412.661011 -52.2 
L 412.209782 -52.2 
L 411.758552 -52.2 
L 411.307322 -52.2 
L 410.856092 -52.2 
L 410.404862 -52.2 
L 409.953632 -52.2 
L 409.502402 -52.2 
L 409.051172 -52.2 
L 408.599942 -52.2 
L 408.148712 -52.2 
L 407.697482 -52.2 
L 407.246252 -52.2 
L 406.795022 -52.2 
L 406.343792 -52.2 
L 405.892562 -52.2 
z
" id="mb7a79b0d38" style="stroke:#1f77b4;stroke-opacity:0;"/>
    </defs>
    <g clip-path="url(#pb324cb613f)">
     <use style="fill:#1f77b4;fill-opacity:0;stroke:#1f77b4;stroke-opacity:0;" x="0" xlink:href="#mb7a79b0d38" y="360"/>
    </g>
   </g>
   <g id="matplotlib.axis_3">
    <g id="xtick_4">
     <g id="line2d_6">
      <g>
       <use style="fill:#808080;stroke:#808080;" x="450.910995" xlink:href="#m2b96428205" y="320.4"/>
      </g>
     </g>
     <g id="text_9">
      <!-- 1 -->
      <g transform="translate(440.591463 337.537813)scale(0.14 -0.14)">
       <defs>
        <path d="M 10.59375 35.5 
L 73.1875 35.5 
L 73.1875 27.203125 
L 10.59375 27.203125 
z
" id="DejaVuSans-8722"/>
       </defs>
       <use xlink:href="#DejaVuSans-8722"/>
       <use x="83.789062" xlink:href="#DejaVuSans-49"/>
      </g>
     </g>
    </g>
    <g id="xtick_5">
     <g id="line2d_7">
      <g>
       <use style="fill:#808080;stroke:#808080;" x="520.870892" xlink:href="#m2b96428205" y="320.4"/>
      </g>
     </g>
     <g id="text_10">
      <!-- 0 -->
      <g transform="translate(516.417142 337.537813)scale(0.14 -0.14)">
       <use xlink:href="#DejaVuSans-48"/>
      </g>
     </g>
    </g>
    <g id="xtick_6">
     <g id="line2d_8">
      <g>
       <use style="fill:#808080;stroke:#808080;" x="590.830789" xlink:href="#m2b96428205" y="320.4"/>
      </g>
     </g>
     <g id="text_11">
      <!-- 1 -->
      <g transform="translate(586.377039 337.537813)scale(0.14 -0.14)">
       <use xlink:href="#DejaVuSans-49"/>
      </g>
     </g>
    </g>
   </g>
   <g id="matplotlib.axis_4"/>
   <g id="line2d_9">
    <path clip-path="url(#pb324cb613f)" d="M 405.892562 305.973013 
L 411.307322 305.851137 
L 415.819621 305.487953 
L 421.685611 304.704942 
L 425.295451 304.022795 
L 427.5516 303.428245 
L 429.35652 302.776051 
L 431.16144 301.920259 
L 432.96636 300.812244 
L 434.77128 299.442758 
L 436.5762 297.787638 
L 438.832349 295.335747 
L 441.088499 292.471871 
L 443.344649 289.256547 
L 446.052029 284.948924 
L 448.308179 281.021102 
L 450.564329 276.711347 
L 453.271708 270.986607 
L 455.527858 265.743848 
L 457.784008 259.867813 
L 460.040158 253.265329 
L 462.296308 245.95066 
L 465.003687 236.314374 
L 471.320907 213.673665 
L 478.089356 190.759118 
L 479.894276 183.236687 
L 481.699196 174.65542 
L 483.955346 162.721352 
L 490.272566 128.220698 
L 492.077485 120.027357 
L 493.882405 112.825642 
L 495.687325 106.493778 
L 497.943475 99.375633 
L 502.455775 85.46935 
L 506.968074 71.269149 
L 508.772994 66.302409 
L 510.126684 63.195449 
L 511.029144 61.487008 
L 512.382834 59.492654 
L 513.736524 58.005289 
L 514.638984 57.316996 
L 515.992674 56.578472 
L 516.895134 56.275059 
L 518.700053 55.890348 
L 520.956203 55.8 
L 522.309893 56.004141 
L 523.663583 56.430498 
L 524.566043 56.932611 
L 525.919733 57.955446 
L 527.273423 59.444761 
L 529.078343 61.964594 
L 530.883262 64.949075 
L 538.554172 78.907236 
L 540.810322 83.967979 
L 542.164012 87.603248 
L 543.517701 91.815327 
L 545.322621 98.349991 
L 547.127541 105.952374 
L 548.932461 114.426407 
L 556.152141 150.354319 
L 558.40829 160.340218 
L 562.01813 174.993478 
L 571.945189 213.673158 
L 575.103799 224.778952 
L 579.616099 239.707972 
L 585.030858 256.811986 
L 587.738238 264.634686 
L 590.445618 271.630109 
L 592.701768 276.798392 
L 594.506688 280.472397 
L 596.311607 283.773419 
L 598.567757 287.362501 
L 600.372677 289.796407 
L 602.177597 291.860083 
L 603.982517 293.60957 
L 605.787437 295.061716 
L 607.592357 296.245042 
L 609.848506 297.433762 
L 613.007116 298.699747 
L 623.385405 302.386923 
L 626.995245 303.6833 
L 630.153855 304.614751 
L 632.861235 305.169246 
L 635.117384 305.429427 
L 636.471074 305.478495 
L 636.471074 305.478495 
" style="fill:none;stroke:#1f77b4;stroke-linecap:square;stroke-width:1.5;"/>
   </g>
   <g id="line2d_10">
    <path clip-path="url(#pb324cb613f)" d="M 459.143148 302.508 
L 585.338877 302.508 
" style="fill:none;stroke:#000000;stroke-width:3;"/>
   </g>
   <g id="patch_5">
    <path d="M 394.363636 320.4 
L 648 320.4 
" style="fill:none;stroke:#808080;stroke-linecap:square;stroke-linejoin:miter;stroke-width:0.8;"/>
   </g>
   <g id="text_12">
    <!-- -0.88  -->
    <g transform="translate(415.565804 289.278)scale(0.15 -0.15)">
     <use xlink:href="#DejaVuSans-45"/>
     <use x="36.083984" xlink:href="#DejaVuSans-48"/>
     <use x="99.707031" xlink:href="#DejaVuSans-46"/>
     <use x="131.494141" xlink:href="#DejaVuSans-56"/>
     <use x="195.117188" xlink:href="#DejaVuSans-56"/>
     <use x="258.740234" xlink:href="#DejaVuSans-32"/>
    </g>
   </g>
   <g id="text_13">
    <!--  0.92 -->
    <g transform="translate(585.338877 289.278)scale(0.15 -0.15)">
     <use xlink:href="#DejaVuSans-32"/>
     <use x="31.787109" xlink:href="#DejaVuSans-48"/>
     <use x="95.410156" xlink:href="#DejaVuSans-46"/>
     <use x="127.197266" xlink:href="#DejaVuSans-57"/>
     <use x="190.820312" xlink:href="#DejaVuSans-50"/>
    </g>
   </g>
   <g id="text_14">
    <!-- 94% HDI -->
    <g transform="translate(489.559763 228.42)scale(0.15 -0.15)">
     <use xlink:href="#DejaVuSans-57"/>
     <use x="63.623047" xlink:href="#DejaVuSans-52"/>
     <use x="127.246094" xlink:href="#DejaVuSans-37"/>
     <use x="222.265625" xlink:href="#DejaVuSans-32"/>
     <use x="254.052734" xlink:href="#DejaVuSans-72"/>
     <use x="329.248047" xlink:href="#DejaVuSans-68"/>
     <use x="406.25" xlink:href="#DejaVuSans-73"/>
    </g>
   </g>
   <g id="text_15">
    <!-- mean=0.015 -->
    <g transform="translate(472.92644 96.12)scale(0.15 -0.15)">
     <defs>
      <path d="M 10.796875 72.90625 
L 49.515625 72.90625 
L 49.515625 64.59375 
L 19.828125 64.59375 
L 19.828125 46.734375 
Q 21.96875 47.46875 24.109375 47.828125 
Q 26.265625 48.1875 28.421875 48.1875 
Q 40.625 48.1875 47.75 41.5 
Q 54.890625 34.8125 54.890625 23.390625 
Q 54.890625 11.625 47.5625 5.09375 
Q 40.234375 -1.421875 26.90625 -1.421875 
Q 22.3125 -1.421875 17.546875 -0.640625 
Q 12.796875 0.140625 7.71875 1.703125 
L 7.71875 11.625 
Q 12.109375 9.234375 16.796875 8.0625 
Q 21.484375 6.890625 26.703125 6.890625 
Q 35.15625 6.890625 40.078125 11.328125 
Q 45.015625 15.765625 45.015625 23.390625 
Q 45.015625 31 40.078125 35.4375 
Q 35.15625 39.890625 26.703125 39.890625 
Q 22.75 39.890625 18.8125 39.015625 
Q 14.890625 38.140625 10.796875 36.28125 
z
" id="DejaVuSans-53"/>
     </defs>
     <use xlink:href="#DejaVuSans-109"/>
     <use x="97.412109" xlink:href="#DejaVuSans-101"/>
     <use x="158.935547" xlink:href="#DejaVuSans-97"/>
     <use x="220.214844" xlink:href="#DejaVuSans-110"/>
     <use x="283.59375" xlink:href="#DejaVuSans-61"/>
     <use x="367.382812" xlink:href="#DejaVuSans-48"/>
     <use x="431.005859" xlink:href="#DejaVuSans-46"/>
     <use x="462.792969" xlink:href="#DejaVuSans-48"/>
     <use x="526.416016" xlink:href="#DejaVuSans-49"/>
     <use x="590.039062" xlink:href="#DejaVuSans-53"/>
    </g>
   </g>
   <g id="text_16">
    <!-- b -->
    <g transform="translate(516.103068 37.2)scale(0.16 -0.16)">
     <defs>
      <path d="M 48.6875 27.296875 
Q 48.6875 37.203125 44.609375 42.84375 
Q 40.53125 48.484375 33.40625 48.484375 
Q 26.265625 48.484375 22.1875 42.84375 
Q 18.109375 37.203125 18.109375 27.296875 
Q 18.109375 17.390625 22.1875 11.75 
Q 26.265625 6.109375 33.40625 6.109375 
Q 40.53125 6.109375 44.609375 11.75 
Q 48.6875 17.390625 48.6875 27.296875 
z
M 18.109375 46.390625 
Q 20.953125 51.265625 25.265625 53.625 
Q 29.59375 56 35.59375 56 
Q 45.5625 56 51.78125 48.09375 
Q 58.015625 40.1875 58.015625 27.296875 
Q 58.015625 14.40625 51.78125 6.484375 
Q 45.5625 -1.421875 35.59375 -1.421875 
Q 29.59375 -1.421875 25.265625 0.953125 
Q 20.953125 3.328125 18.109375 8.203125 
L 18.109375 0 
L 9.078125 0 
L 9.078125 75.984375 
L 18.109375 75.984375 
z
" id="DejaVuSans-98"/>
     </defs>
     <use xlink:href="#DejaVuSans-98"/>
    </g>
   </g>
  </g>
 </g>
 <defs>
  <clipPath id="p782f6313ea">
   <rect height="277.2" width="253.636364" x="90" y="43.2"/>
  </clipPath>
  <clipPath id="pb324cb613f">
   <rect height="277.2" width="253.636364" x="394.363636" y="43.2"/>
  </clipPath>
 </defs>
</svg>
