<?xml version="1.0" encoding="utf-8" standalone="no"?>
<!DOCTYPE svg PUBLIC "-//W3C//DTD SVG 1.1//EN"
  "http://www.w3.org/Graphics/SVG/1.1/DTD/svg11.dtd">
<!-- Created with matplotlib (https://matplotlib.org/) -->
<svg height="360pt" version="1.1" viewBox="0 0 720 360" width="720pt" xmlns="http://www.w3.org/2000/svg" xmlns:xlink="http://www.w3.org/1999/xlink">
 <metadata>
  <rdf:RDF xmlns:cc="http://creativecommons.org/ns#" xmlns:dc="http://purl.org/dc/elements/1.1/" xmlns:rdf="http://www.w3.org/1999/02/22-rdf-syntax-ns#">
   <cc:Work>
    <dc:type rdf:resource="http://purl.org/dc/dcmitype/StillImage"/>
    <dc:date>2020-12-05T13:26:56.955685</dc:date>
    <dc:format>image/svg+xml</dc:format>
    <dc:creator>
     <cc:Agent>
      <dc:title>Matplotlib v3.3.3, https://matplotlib.org/</dc:title>
     </cc:Agent>
    </dc:creator>
   </cc:Work>
  </rdf:RDF>
 </metadata>
 <defs>
  <style type="text/css">*{stroke-linecap:butt;stroke-linejoin:round;}</style>
 </defs>
 <g id="figure_1">
  <g id="patch_1">
   <path d="M 0 360 
L 720 360 
L 720 0 
L 0 0 
z
" style="fill:#ffffff;"/>
  </g>
  <g id="axes_1">
   <g id="patch_2">
    <path d="M 90 320.4 
L 343.636364 320.4 
L 343.636364 43.2 
L 90 43.2 
z
" style="fill:#ffffff;"/>
   </g>
   <g id="PolyCollection_1">
    <defs>
     <path d="M 101.528926 -52.2 
L 101.528926 -52.944559 
L 101.980156 -52.943305 
L 102.431386 -52.94088 
L 102.882616 -52.937445 
L 103.333845 -52.933234 
L 103.785075 -52.928541 
L 104.236305 -52.923717 
L 104.687535 -52.914476 
L 105.138765 -52.911573 
L 105.589995 -52.907201 
L 106.041225 -52.906967 
L 106.492455 -52.908327 
L 106.943685 -52.911645 
L 107.394915 -52.917215 
L 107.846145 -52.925252 
L 108.297375 -52.938843 
L 108.748605 -52.952862 
L 109.199835 -52.969597 
L 109.651065 -52.988899 
L 110.102295 -53.010529 
L 110.553525 -53.034153 
L 111.004755 -53.059363 
L 111.455985 -53.085678 
L 111.907215 -53.112567 
L 112.358445 -53.13946 
L 112.809675 -53.165769 
L 113.260905 -53.193865 
L 113.712135 -53.218024 
L 114.163365 -53.248958 
L 114.614595 -53.273721 
L 115.065825 -53.30275 
L 115.517055 -53.325704 
L 115.968285 -53.344437 
L 116.419514 -53.364393 
L 116.870744 -53.380699 
L 117.321974 -53.399077 
L 117.773204 -53.417888 
L 118.224434 -53.437965 
L 118.675664 -53.457303 
L 119.126894 -53.485085 
L 119.578124 -53.509665 
L 120.029354 -53.53963 
L 120.480584 -53.581276 
L 120.931814 -53.627614 
L 121.383044 -53.682082 
L 121.834274 -53.748666 
L 122.285504 -53.826093 
L 122.736734 -53.912346 
L 123.187964 -54.016345 
L 123.639194 -54.131221 
L 124.090424 -54.262726 
L 124.541654 -54.402999 
L 124.992884 -54.55959 
L 125.444114 -54.732947 
L 125.895344 -54.91455 
L 126.346574 -55.111281 
L 126.797804 -55.319962 
L 127.249034 -55.536589 
L 127.700264 -55.765084 
L 128.151494 -56.004665 
L 128.602724 -56.248636 
L 129.053954 -56.503641 
L 129.505183 -56.766591 
L 129.956413 -57.02802 
L 130.407643 -57.291205 
L 130.858873 -57.551892 
L 131.310103 -57.814078 
L 131.761333 -58.071465 
L 132.212563 -58.32248 
L 132.663793 -58.57746 
L 133.115023 -58.823223 
L 133.566253 -59.073061 
L 134.017483 -59.315078 
L 134.468713 -59.548457 
L 134.919943 -59.775946 
L 135.371173 -60.015175 
L 135.822403 -60.254587 
L 136.273633 -60.489824 
L 136.724863 -60.726992 
L 137.176093 -60.976494 
L 137.627323 -61.224423 
L 138.078553 -61.488276 
L 138.529783 -61.751197 
L 138.981013 -62.023918 
L 139.432243 -62.313604 
L 139.883473 -62.619893 
L 140.334703 -62.94769 
L 140.785933 -63.284876 
L 141.237163 -63.642287 
L 141.688393 -64.021358 
L 142.139623 -64.420521 
L 142.590852 -64.831497 
L 143.042082 -65.25835 
L 143.493312 -65.71197 
L 143.944542 -66.185231 
L 144.395772 -66.66898 
L 144.847002 -67.181869 
L 145.298232 -67.70823 
L 145.749462 -68.25135 
L 146.200692 -68.819258 
L 146.651922 -69.392579 
L 147.103152 -69.994344 
L 147.554382 -70.597576 
L 148.005612 -71.227562 
L 148.456842 -71.872076 
L 148.908072 -72.512819 
L 149.359302 -73.168363 
L 149.810532 -73.839422 
L 150.261762 -74.50855 
L 150.712992 -75.190756 
L 151.164222 -75.889619 
L 151.615452 -76.615096 
L 152.066682 -77.32964 
L 152.517912 -78.064105 
L 152.969142 -78.803868 
L 153.420372 -79.545361 
L 153.871602 -80.290185 
L 154.322832 -81.038226 
L 154.774062 -81.788742 
L 155.225292 -82.549239 
L 155.676521 -83.315932 
L 156.127751 -84.089235 
L 156.578981 -84.871426 
L 157.030211 -85.676429 
L 157.481441 -86.479441 
L 157.932671 -87.298622 
L 158.383901 -88.119637 
L 158.835131 -88.953528 
L 159.286361 -89.833323 
L 159.737591 -90.724706 
L 160.188821 -91.639804 
L 160.640051 -92.580831 
L 161.091281 -93.543462 
L 161.542511 -94.530653 
L 161.993741 -95.544598 
L 162.444971 -96.58823 
L 162.896201 -97.670758 
L 163.347431 -98.786862 
L 163.798661 -99.939668 
L 164.249891 -101.10675 
L 164.701121 -102.316908 
L 165.152351 -103.578126 
L 165.603581 -104.853452 
L 166.054811 -106.141561 
L 166.506041 -107.485415 
L 166.957271 -108.897619 
L 167.408501 -110.30909 
L 167.859731 -111.751801 
L 168.310961 -113.216182 
L 168.76219 -114.701004 
L 169.21342 -116.219723 
L 169.66465 -117.762095 
L 170.11588 -119.327205 
L 170.56711 -120.938486 
L 171.01834 -122.568536 
L 171.46957 -124.196659 
L 171.9208 -125.839597 
L 172.37203 -127.508814 
L 172.82326 -129.194848 
L 173.27449 -130.883416 
L 173.72572 -132.60172 
L 174.17695 -134.35847 
L 174.62818 -136.0997 
L 175.07941 -137.866408 
L 175.53064 -139.652828 
L 175.98187 -141.473964 
L 176.4331 -143.283992 
L 176.88433 -145.077965 
L 177.33556 -146.912282 
L 177.78679 -148.778142 
L 178.23802 -150.64348 
L 178.68925 -152.5379 
L 179.14048 -154.448808 
L 179.59171 -156.410279 
L 180.04294 -158.371613 
L 180.49417 -160.363238 
L 180.9454 -162.365681 
L 181.39663 -164.395876 
L 181.847859 -166.444739 
L 182.299089 -168.53821 
L 182.750319 -170.6712 
L 183.201549 -172.839436 
L 183.652779 -175.041179 
L 184.104009 -177.260951 
L 184.555239 -179.558663 
L 185.006469 -181.849794 
L 185.457699 -184.211932 
L 185.908929 -186.612002 
L 186.360159 -189.031853 
L 186.811389 -191.493732 
L 187.262619 -193.944656 
L 187.713849 -196.452197 
L 188.165079 -198.955452 
L 188.616309 -201.48857 
L 189.067539 -204.005025 
L 189.518769 -206.522618 
L 189.969999 -209.045569 
L 190.421229 -211.548606 
L 190.872459 -214.077058 
L 191.323689 -216.552957 
L 191.774919 -219.016905 
L 192.226149 -221.464475 
L 192.677379 -223.895016 
L 193.128609 -226.290587 
L 193.579839 -228.602245 
L 194.031069 -230.906121 
L 194.482299 -233.149111 
L 194.933528 -235.388777 
L 195.384758 -237.602588 
L 195.835988 -239.738161 
L 196.287218 -241.859997 
L 196.738448 -243.950085 
L 197.189678 -246.014661 
L 197.640908 -248.0507 
L 198.092138 -250.044985 
L 198.543368 -251.998313 
L 198.994598 -253.933726 
L 199.445828 -255.82647 
L 199.897058 -257.690244 
L 200.348288 -259.539175 
L 200.799518 -261.363673 
L 201.250748 -263.111249 
L 201.701978 -264.820647 
L 202.153208 -266.473937 
L 202.604438 -268.122611 
L 203.055668 -269.674379 
L 203.506898 -271.155276 
L 203.958128 -272.591631 
L 204.409358 -273.976086 
L 204.860588 -275.309359 
L 205.311818 -276.567269 
L 205.763048 -277.771534 
L 206.214278 -278.922888 
L 206.665508 -280.019465 
L 207.116738 -281.011357 
L 207.567968 -281.998021 
L 208.019197 -282.971806 
L 208.470427 -283.898762 
L 208.921657 -284.777203 
L 209.372887 -285.653634 
L 209.824117 -286.497721 
L 210.275347 -287.327294 
L 210.726577 -288.114462 
L 211.177807 -288.930196 
L 211.629037 -289.7363 
L 212.080267 -290.553477 
L 212.531497 -291.336521 
L 212.982727 -292.197719 
L 213.433957 -293.047756 
L 213.885187 -293.89032 
L 214.336417 -294.727648 
L 214.787647 -295.566067 
L 215.238877 -296.394107 
L 215.690107 -297.211316 
L 216.141337 -298.012956 
L 216.592567 -298.785592 
L 217.043797 -299.507765 
L 217.495027 -300.233861 
L 217.946257 -300.887031 
L 218.397487 -301.536434 
L 218.848717 -302.103257 
L 219.299947 -302.606588 
L 219.751177 -303.049636 
L 220.202407 -303.425632 
L 220.653637 -303.755834 
L 221.104866 -303.955753 
L 221.556096 -304.121871 
L 222.007326 -304.182836 
L 222.458556 -304.2 
L 222.909786 -304.112618 
L 223.361016 -303.954429 
L 223.812246 -303.753634 
L 224.263476 -303.425885 
L 224.714706 -303.029923 
L 225.165936 -302.556005 
L 225.617166 -302.001075 
L 226.068396 -301.377965 
L 226.519626 -300.677746 
L 226.970856 -299.878052 
L 227.422086 -298.950162 
L 227.873316 -297.985778 
L 228.324546 -296.927393 
L 228.775776 -295.774655 
L 229.227006 -294.549171 
L 229.678236 -293.231802 
L 230.129466 -291.892992 
L 230.580696 -290.492165 
L 231.031926 -289.021936 
L 231.483156 -287.437352 
L 231.934386 -285.807695 
L 232.385616 -284.126378 
L 232.836846 -282.403067 
L 233.288076 -280.632242 
L 233.739306 -278.815691 
L 234.190535 -276.955875 
L 234.641765 -275.083479 
L 235.092995 -273.178142 
L 235.544225 -271.256713 
L 235.995455 -269.304747 
L 236.446685 -267.33526 
L 236.897915 -265.337209 
L 237.349145 -263.362894 
L 237.800375 -261.401719 
L 238.251605 -259.425278 
L 238.702835 -257.449844 
L 239.154065 -255.461079 
L 239.605295 -253.473079 
L 240.056525 -251.486565 
L 240.507755 -249.516933 
L 240.958985 -247.513596 
L 241.410215 -245.51761 
L 241.861445 -243.527932 
L 242.312675 -241.490453 
L 242.763905 -239.455089 
L 243.215135 -237.399265 
L 243.666365 -235.369752 
L 244.117595 -233.276705 
L 244.568825 -231.175624 
L 245.020055 -229.073744 
L 245.471285 -226.954915 
L 245.922515 -224.793447 
L 246.373745 -222.625174 
L 246.824975 -220.435546 
L 247.276204 -218.238636 
L 247.727434 -215.999289 
L 248.178664 -213.75921 
L 248.629894 -211.486931 
L 249.081124 -209.206865 
L 249.532354 -206.885083 
L 249.983584 -204.584665 
L 250.434814 -202.277417 
L 250.886044 -199.9576 
L 251.337274 -197.644642 
L 251.788504 -195.344382 
L 252.239734 -193.050168 
L 252.690964 -190.762946 
L 253.142194 -188.510104 
L 253.593424 -186.283287 
L 254.044654 -184.06409 
L 254.495884 -181.881194 
L 254.947114 -179.699729 
L 255.398344 -177.562311 
L 255.849574 -175.447257 
L 256.300804 -173.386652 
L 256.752034 -171.350173 
L 257.203264 -169.3535 
L 257.654494 -167.394975 
L 258.105724 -165.466826 
L 258.556954 -163.569081 
L 259.008184 -161.656487 
L 259.459414 -159.8129 
L 259.910644 -157.992185 
L 260.361873 -156.177226 
L 260.813103 -154.390955 
L 261.264333 -152.617819 
L 261.715563 -150.878808 
L 262.166793 -149.146508 
L 262.618023 -147.403577 
L 263.069253 -145.661481 
L 263.520483 -143.950669 
L 263.971713 -142.254221 
L 264.422943 -140.537371 
L 264.874173 -138.830529 
L 265.325403 -137.118198 
L 265.776633 -135.401768 
L 266.227863 -133.7174 
L 266.679093 -132.003127 
L 267.130323 -130.271264 
L 267.581553 -128.573213 
L 268.032783 -126.892334 
L 268.484013 -125.195513 
L 268.935243 -123.518273 
L 269.386473 -121.836392 
L 269.837703 -120.174067 
L 270.288933 -118.523477 
L 270.740163 -116.908629 
L 271.191393 -115.298289 
L 271.642623 -113.71651 
L 272.093853 -112.138371 
L 272.545083 -110.598484 
L 272.996313 -109.08477 
L 273.447542 -107.605023 
L 273.898772 -106.134817 
L 274.350002 -104.702362 
L 274.801232 -103.302114 
L 275.252462 -101.959251 
L 275.703692 -100.63341 
L 276.154922 -99.36767 
L 276.606152 -98.123546 
L 277.057382 -96.915037 
L 277.508612 -95.757908 
L 277.959842 -94.618598 
L 278.411072 -93.512393 
L 278.862302 -92.457067 
L 279.313532 -91.422402 
L 279.764762 -90.425805 
L 280.215992 -89.456197 
L 280.667222 -88.524015 
L 281.118452 -87.596163 
L 281.569682 -86.69589 
L 282.020912 -85.824043 
L 282.472142 -84.981656 
L 282.923372 -84.169224 
L 283.374602 -83.353934 
L 283.825832 -82.572493 
L 284.277062 -81.819265 
L 284.728292 -81.071786 
L 285.179522 -80.348292 
L 285.630752 -79.655883 
L 286.081982 -78.968146 
L 286.533211 -78.310839 
L 286.984441 -77.663782 
L 287.435671 -77.040926 
L 287.886901 -76.450795 
L 288.338131 -75.864868 
L 288.789361 -75.311255 
L 289.240591 -74.760864 
L 289.691821 -74.241839 
L 290.143051 -73.743177 
L 290.594281 -73.254028 
L 291.045511 -72.781889 
L 291.496741 -72.319404 
L 291.947971 -71.872485 
L 292.399201 -71.435974 
L 292.850431 -70.995411 
L 293.301661 -70.562889 
L 293.752891 -70.133548 
L 294.204121 -69.705591 
L 294.655351 -69.282039 
L 295.106581 -68.858715 
L 295.557811 -68.437072 
L 296.009041 -68.009087 
L 296.460271 -67.568129 
L 296.911501 -67.124346 
L 297.362731 -66.684644 
L 297.813961 -66.240747 
L 298.265191 -65.783563 
L 298.716421 -65.33488 
L 299.167651 -64.887178 
L 299.61888 -64.436828 
L 300.07011 -63.988463 
L 300.52134 -63.536855 
L 300.97257 -63.101079 
L 301.4238 -62.659651 
L 301.87503 -62.238083 
L 302.32626 -61.826381 
L 302.77749 -61.419907 
L 303.22872 -61.035791 
L 303.67995 -60.666025 
L 304.13118 -60.307871 
L 304.58241 -59.972772 
L 305.03364 -59.655093 
L 305.48487 -59.360168 
L 305.9361 -59.078056 
L 306.38733 -58.81713 
L 306.83856 -58.576752 
L 307.28979 -58.349148 
L 307.74102 -58.139601 
L 308.19225 -57.94727 
L 308.64348 -57.771136 
L 309.09471 -57.610028 
L 309.54594 -57.462639 
L 309.99717 -57.325225 
L 310.4484 -57.201469 
L 310.89963 -57.091552 
L 311.35086 -56.988244 
L 311.80209 -56.887868 
L 312.25332 -56.789579 
L 312.704549 -56.692457 
L 313.155779 -56.595554 
L 313.607009 -56.50727 
L 314.058239 -56.415991 
L 314.509469 -56.326642 
L 314.960699 -56.237289 
L 315.411929 -56.139288 
L 315.863159 -56.0404 
L 316.314389 -55.935127 
L 316.765619 -55.823932 
L 317.216849 -55.714328 
L 317.668079 -55.603031 
L 318.119309 -55.48063 
L 318.570539 -55.363287 
L 319.021769 -55.242896 
L 319.472999 -55.117952 
L 319.924229 -54.994499 
L 320.375459 -54.870482 
L 320.826689 -54.74681 
L 321.277919 -54.622039 
L 321.729149 -54.497535 
L 322.180379 -54.376846 
L 322.631609 -54.265199 
L 323.082839 -54.15743 
L 323.534069 -54.051865 
L 323.985299 -53.954228 
L 324.436529 -53.86264 
L 324.887759 -53.777455 
L 325.338989 -53.698304 
L 325.790218 -53.628286 
L 326.241448 -53.562272 
L 326.692678 -53.502536 
L 327.143908 -53.446587 
L 327.595138 -53.397023 
L 328.046368 -53.355762 
L 328.497598 -53.320134 
L 328.948828 -53.289779 
L 329.400058 -53.266659 
L 329.851288 -53.245235 
L 330.302518 -53.227473 
L 330.753748 -53.213021 
L 331.204978 -53.204513 
L 331.656208 -53.194173 
L 332.107438 -53.189918 
L 332.107438 -52.2 
L 332.107438 -52.2 
L 331.656208 -52.2 
L 331.204978 -52.2 
L 330.753748 -52.2 
L 330.302518 -52.2 
L 329.851288 -52.2 
L 329.400058 -52.2 
L 328.948828 -52.2 
L 328.497598 -52.2 
L 328.046368 -52.2 
L 327.595138 -52.2 
L 327.143908 -52.2 
L 326.692678 -52.2 
L 326.241448 -52.2 
L 325.790218 -52.2 
L 325.338989 -52.2 
L 324.887759 -52.2 
L 324.436529 -52.2 
L 323.985299 -52.2 
L 323.534069 -52.2 
L 323.082839 -52.2 
L 322.631609 -52.2 
L 322.180379 -52.2 
L 321.729149 -52.2 
L 321.277919 -52.2 
L 320.826689 -52.2 
L 320.375459 -52.2 
L 319.924229 -52.2 
L 319.472999 -52.2 
L 319.021769 -52.2 
L 318.570539 -52.2 
L 318.119309 -52.2 
L 317.668079 -52.2 
L 317.216849 -52.2 
L 316.765619 -52.2 
L 316.314389 -52.2 
L 315.863159 -52.2 
L 315.411929 -52.2 
L 314.960699 -52.2 
L 314.509469 -52.2 
L 314.058239 -52.2 
L 313.607009 -52.2 
L 313.155779 -52.2 
L 312.704549 -52.2 
L 312.25332 -52.2 
L 311.80209 -52.2 
L 311.35086 -52.2 
L 310.89963 -52.2 
L 310.4484 -52.2 
L 309.99717 -52.2 
L 309.54594 -52.2 
L 309.09471 -52.2 
L 308.64348 -52.2 
L 308.19225 -52.2 
L 307.74102 -52.2 
L 307.28979 -52.2 
L 306.83856 -52.2 
L 306.38733 -52.2 
L 305.9361 -52.2 
L 305.48487 -52.2 
L 305.03364 -52.2 
L 304.58241 -52.2 
L 304.13118 -52.2 
L 303.67995 -52.2 
L 303.22872 -52.2 
L 302.77749 -52.2 
L 302.32626 -52.2 
L 301.87503 -52.2 
L 301.4238 -52.2 
L 300.97257 -52.2 
L 300.52134 -52.2 
L 300.07011 -52.2 
L 299.61888 -52.2 
L 299.167651 -52.2 
L 298.716421 -52.2 
L 298.265191 -52.2 
L 297.813961 -52.2 
L 297.362731 -52.2 
L 296.911501 -52.2 
L 296.460271 -52.2 
L 296.009041 -52.2 
L 295.557811 -52.2 
L 295.106581 -52.2 
L 294.655351 -52.2 
L 294.204121 -52.2 
L 293.752891 -52.2 
L 293.301661 -52.2 
L 292.850431 -52.2 
L 292.399201 -52.2 
L 291.947971 -52.2 
L 291.496741 -52.2 
L 291.045511 -52.2 
L 290.594281 -52.2 
L 290.143051 -52.2 
L 289.691821 -52.2 
L 289.240591 -52.2 
L 288.789361 -52.2 
L 288.338131 -52.2 
L 287.886901 -52.2 
L 287.435671 -52.2 
L 286.984441 -52.2 
L 286.533211 -52.2 
L 286.081982 -52.2 
L 285.630752 -52.2 
L 285.179522 -52.2 
L 284.728292 -52.2 
L 284.277062 -52.2 
L 283.825832 -52.2 
L 283.374602 -52.2 
L 282.923372 -52.2 
L 282.472142 -52.2 
L 282.020912 -52.2 
L 281.569682 -52.2 
L 281.118452 -52.2 
L 280.667222 -52.2 
L 280.215992 -52.2 
L 279.764762 -52.2 
L 279.313532 -52.2 
L 278.862302 -52.2 
L 278.411072 -52.2 
L 277.959842 -52.2 
L 277.508612 -52.2 
L 277.057382 -52.2 
L 276.606152 -52.2 
L 276.154922 -52.2 
L 275.703692 -52.2 
L 275.252462 -52.2 
L 274.801232 -52.2 
L 274.350002 -52.2 
L 273.898772 -52.2 
L 273.447542 -52.2 
L 272.996313 -52.2 
L 272.545083 -52.2 
L 272.093853 -52.2 
L 271.642623 -52.2 
L 271.191393 -52.2 
L 270.740163 -52.2 
L 270.288933 -52.2 
L 269.837703 -52.2 
L 269.386473 -52.2 
L 268.935243 -52.2 
L 268.484013 -52.2 
L 268.032783 -52.2 
L 267.581553 -52.2 
L 267.130323 -52.2 
L 266.679093 -52.2 
L 266.227863 -52.2 
L 265.776633 -52.2 
L 265.325403 -52.2 
L 264.874173 -52.2 
L 264.422943 -52.2 
L 263.971713 -52.2 
L 263.520483 -52.2 
L 263.069253 -52.2 
L 262.618023 -52.2 
L 262.166793 -52.2 
L 261.715563 -52.2 
L 261.264333 -52.2 
L 260.813103 -52.2 
L 260.361873 -52.2 
L 259.910644 -52.2 
L 259.459414 -52.2 
L 259.008184 -52.2 
L 258.556954 -52.2 
L 258.105724 -52.2 
L 257.654494 -52.2 
L 257.203264 -52.2 
L 256.752034 -52.2 
L 256.300804 -52.2 
L 255.849574 -52.2 
L 255.398344 -52.2 
L 254.947114 -52.2 
L 254.495884 -52.2 
L 254.044654 -52.2 
L 253.593424 -52.2 
L 253.142194 -52.2 
L 252.690964 -52.2 
L 252.239734 -52.2 
L 251.788504 -52.2 
L 251.337274 -52.2 
L 250.886044 -52.2 
L 250.434814 -52.2 
L 249.983584 -52.2 
L 249.532354 -52.2 
L 249.081124 -52.2 
L 248.629894 -52.2 
L 248.178664 -52.2 
L 247.727434 -52.2 
L 247.276204 -52.2 
L 246.824975 -52.2 
L 246.373745 -52.2 
L 245.922515 -52.2 
L 245.471285 -52.2 
L 245.020055 -52.2 
L 244.568825 -52.2 
L 244.117595 -52.2 
L 243.666365 -52.2 
L 243.215135 -52.2 
L 242.763905 -52.2 
L 242.312675 -52.2 
L 241.861445 -52.2 
L 241.410215 -52.2 
L 240.958985 -52.2 
L 240.507755 -52.2 
L 240.056525 -52.2 
L 239.605295 -52.2 
L 239.154065 -52.2 
L 238.702835 -52.2 
L 238.251605 -52.2 
L 237.800375 -52.2 
L 237.349145 -52.2 
L 236.897915 -52.2 
L 236.446685 -52.2 
L 235.995455 -52.2 
L 235.544225 -52.2 
L 235.092995 -52.2 
L 234.641765 -52.2 
L 234.190535 -52.2 
L 233.739306 -52.2 
L 233.288076 -52.2 
L 232.836846 -52.2 
L 232.385616 -52.2 
L 231.934386 -52.2 
L 231.483156 -52.2 
L 231.031926 -52.2 
L 230.580696 -52.2 
L 230.129466 -52.2 
L 229.678236 -52.2 
L 229.227006 -52.2 
L 228.775776 -52.2 
L 228.324546 -52.2 
L 227.873316 -52.2 
L 227.422086 -52.2 
L 226.970856 -52.2 
L 226.519626 -52.2 
L 226.068396 -52.2 
L 225.617166 -52.2 
L 225.165936 -52.2 
L 224.714706 -52.2 
L 224.263476 -52.2 
L 223.812246 -52.2 
L 223.361016 -52.2 
L 222.909786 -52.2 
L 222.458556 -52.2 
L 222.007326 -52.2 
L 221.556096 -52.2 
L 221.104866 -52.2 
L 220.653637 -52.2 
L 220.202407 -52.2 
L 219.751177 -52.2 
L 219.299947 -52.2 
L 218.848717 -52.2 
L 218.397487 -52.2 
L 217.946257 -52.2 
L 217.495027 -52.2 
L 217.043797 -52.2 
L 216.592567 -52.2 
L 216.141337 -52.2 
L 215.690107 -52.2 
L 215.238877 -52.2 
L 214.787647 -52.2 
L 214.336417 -52.2 
L 213.885187 -52.2 
L 213.433957 -52.2 
L 212.982727 -52.2 
L 212.531497 -52.2 
L 212.080267 -52.2 
L 211.629037 -52.2 
L 211.177807 -52.2 
L 210.726577 -52.2 
L 210.275347 -52.2 
L 209.824117 -52.2 
L 209.372887 -52.2 
L 208.921657 -52.2 
L 208.470427 -52.2 
L 208.019197 -52.2 
L 207.567968 -52.2 
L 207.116738 -52.2 
L 206.665508 -52.2 
L 206.214278 -52.2 
L 205.763048 -52.2 
L 205.311818 -52.2 
L 204.860588 -52.2 
L 204.409358 -52.2 
L 203.958128 -52.2 
L 203.506898 -52.2 
L 203.055668 -52.2 
L 202.604438 -52.2 
L 202.153208 -52.2 
L 201.701978 -52.2 
L 201.250748 -52.2 
L 200.799518 -52.2 
L 200.348288 -52.2 
L 199.897058 -52.2 
L 199.445828 -52.2 
L 198.994598 -52.2 
L 198.543368 -52.2 
L 198.092138 -52.2 
L 197.640908 -52.2 
L 197.189678 -52.2 
L 196.738448 -52.2 
L 196.287218 -52.2 
L 195.835988 -52.2 
L 195.384758 -52.2 
L 194.933528 -52.2 
L 194.482299 -52.2 
L 194.031069 -52.2 
L 193.579839 -52.2 
L 193.128609 -52.2 
L 192.677379 -52.2 
L 192.226149 -52.2 
L 191.774919 -52.2 
L 191.323689 -52.2 
L 190.872459 -52.2 
L 190.421229 -52.2 
L 189.969999 -52.2 
L 189.518769 -52.2 
L 189.067539 -52.2 
L 188.616309 -52.2 
L 188.165079 -52.2 
L 187.713849 -52.2 
L 187.262619 -52.2 
L 186.811389 -52.2 
L 186.360159 -52.2 
L 185.908929 -52.2 
L 185.457699 -52.2 
L 185.006469 -52.2 
L 184.555239 -52.2 
L 184.104009 -52.2 
L 183.652779 -52.2 
L 183.201549 -52.2 
L 182.750319 -52.2 
L 182.299089 -52.2 
L 181.847859 -52.2 
L 181.39663 -52.2 
L 180.9454 -52.2 
L 180.49417 -52.2 
L 180.04294 -52.2 
L 179.59171 -52.2 
L 179.14048 -52.2 
L 178.68925 -52.2 
L 178.23802 -52.2 
L 177.78679 -52.2 
L 177.33556 -52.2 
L 176.88433 -52.2 
L 176.4331 -52.2 
L 175.98187 -52.2 
L 175.53064 -52.2 
L 175.07941 -52.2 
L 174.62818 -52.2 
L 174.17695 -52.2 
L 173.72572 -52.2 
L 173.27449 -52.2 
L 172.82326 -52.2 
L 172.37203 -52.2 
L 171.9208 -52.2 
L 171.46957 -52.2 
L 171.01834 -52.2 
L 170.56711 -52.2 
L 170.11588 -52.2 
L 169.66465 -52.2 
L 169.21342 -52.2 
L 168.76219 -52.2 
L 168.310961 -52.2 
L 167.859731 -52.2 
L 167.408501 -52.2 
L 166.957271 -52.2 
L 166.506041 -52.2 
L 166.054811 -52.2 
L 165.603581 -52.2 
L 165.152351 -52.2 
L 164.701121 -52.2 
L 164.249891 -52.2 
L 163.798661 -52.2 
L 163.347431 -52.2 
L 162.896201 -52.2 
L 162.444971 -52.2 
L 161.993741 -52.2 
L 161.542511 -52.2 
L 161.091281 -52.2 
L 160.640051 -52.2 
L 160.188821 -52.2 
L 159.737591 -52.2 
L 159.286361 -52.2 
L 158.835131 -52.2 
L 158.383901 -52.2 
L 157.932671 -52.2 
L 157.481441 -52.2 
L 157.030211 -52.2 
L 156.578981 -52.2 
L 156.127751 -52.2 
L 155.676521 -52.2 
L 155.225292 -52.2 
L 154.774062 -52.2 
L 154.322832 -52.2 
L 153.871602 -52.2 
L 153.420372 -52.2 
L 152.969142 -52.2 
L 152.517912 -52.2 
L 152.066682 -52.2 
L 151.615452 -52.2 
L 151.164222 -52.2 
L 150.712992 -52.2 
L 150.261762 -52.2 
L 149.810532 -52.2 
L 149.359302 -52.2 
L 148.908072 -52.2 
L 148.456842 -52.2 
L 148.005612 -52.2 
L 147.554382 -52.2 
L 147.103152 -52.2 
L 146.651922 -52.2 
L 146.200692 -52.2 
L 145.749462 -52.2 
L 145.298232 -52.2 
L 144.847002 -52.2 
L 144.395772 -52.2 
L 143.944542 -52.2 
L 143.493312 -52.2 
L 143.042082 -52.2 
L 142.590852 -52.2 
L 142.139623 -52.2 
L 141.688393 -52.2 
L 141.237163 -52.2 
L 140.785933 -52.2 
L 140.334703 -52.2 
L 139.883473 -52.2 
L 139.432243 -52.2 
L 138.981013 -52.2 
L 138.529783 -52.2 
L 138.078553 -52.2 
L 137.627323 -52.2 
L 137.176093 -52.2 
L 136.724863 -52.2 
L 136.273633 -52.2 
L 135.822403 -52.2 
L 135.371173 -52.2 
L 134.919943 -52.2 
L 134.468713 -52.2 
L 134.017483 -52.2 
L 133.566253 -52.2 
L 133.115023 -52.2 
L 132.663793 -52.2 
L 132.212563 -52.2 
L 131.761333 -52.2 
L 131.310103 -52.2 
L 130.858873 -52.2 
L 130.407643 -52.2 
L 129.956413 -52.2 
L 129.505183 -52.2 
L 129.053954 -52.2 
L 128.602724 -52.2 
L 128.151494 -52.2 
L 127.700264 -52.2 
L 127.249034 -52.2 
L 126.797804 -52.2 
L 126.346574 -52.2 
L 125.895344 -52.2 
L 125.444114 -52.2 
L 124.992884 -52.2 
L 124.541654 -52.2 
L 124.090424 -52.2 
L 123.639194 -52.2 
L 123.187964 -52.2 
L 122.736734 -52.2 
L 122.285504 -52.2 
L 121.834274 -52.2 
L 121.383044 -52.2 
L 120.931814 -52.2 
L 120.480584 -52.2 
L 120.029354 -52.2 
L 119.578124 -52.2 
L 119.126894 -52.2 
L 118.675664 -52.2 
L 118.224434 -52.2 
L 117.773204 -52.2 
L 117.321974 -52.2 
L 116.870744 -52.2 
L 116.419514 -52.2 
L 115.968285 -52.2 
L 115.517055 -52.2 
L 115.065825 -52.2 
L 114.614595 -52.2 
L 114.163365 -52.2 
L 113.712135 -52.2 
L 113.260905 -52.2 
L 112.809675 -52.2 
L 112.358445 -52.2 
L 111.907215 -52.2 
L 111.455985 -52.2 
L 111.004755 -52.2 
L 110.553525 -52.2 
L 110.102295 -52.2 
L 109.651065 -52.2 
L 109.199835 -52.2 
L 108.748605 -52.2 
L 108.297375 -52.2 
L 107.846145 -52.2 
L 107.394915 -52.2 
L 106.943685 -52.2 
L 106.492455 -52.2 
L 106.041225 -52.2 
L 105.589995 -52.2 
L 105.138765 -52.2 
L 104.687535 -52.2 
L 104.236305 -52.2 
L 103.785075 -52.2 
L 103.333845 -52.2 
L 102.882616 -52.2 
L 102.431386 -52.2 
L 101.980156 -52.2 
L 101.528926 -52.2 
z
" id="md5ab100f5e" style="stroke:#1f77b4;stroke-opacity:0;"/>
    </defs>
    <g clip-path="url(#p6fac016950)">
     <use style="fill:#1f77b4;fill-opacity:0;stroke:#1f77b4;stroke-opacity:0;" x="0" xlink:href="#md5ab100f5e" y="360"/>
    </g>
   </g>
   <g id="matplotlib.axis_1">
    <g id="xtick_1">
     <g id="line2d_1">
      <defs>
       <path d="M 0 0 
L 0 3 
" id="m22afe0fc27" style="stroke:#808080;"/>
      </defs>
      <g>
       <use style="fill:#808080;stroke:#808080;" x="97.395678" xlink:href="#m22afe0fc27" y="320.4"/>
      </g>
     </g>
     <g id="text_1">
      <!-- −1 -->
      <g transform="translate(87.076147 337.537813)scale(0.14 -0.14)">
       <defs>
        <path d="M 10.59375 35.5 
L 73.1875 35.5 
L 73.1875 27.203125 
L 10.59375 27.203125 
z
" id="DejaVuSans-8722"/>
        <path d="M 12.40625 8.296875 
L 28.515625 8.296875 
L 28.515625 63.921875 
L 10.984375 60.40625 
L 10.984375 69.390625 
L 28.421875 72.90625 
L 38.28125 72.90625 
L 38.28125 8.296875 
L 54.390625 8.296875 
L 54.390625 0 
L 12.40625 0 
z
" id="DejaVuSans-49"/>
       </defs>
       <use xlink:href="#DejaVuSans-8722"/>
       <use x="83.789062" xlink:href="#DejaVuSans-49"/>
      </g>
     </g>
    </g>
    <g id="xtick_2">
     <g id="line2d_2">
      <g>
       <use style="fill:#808080;stroke:#808080;" x="163.178427" xlink:href="#m22afe0fc27" y="320.4"/>
      </g>
     </g>
     <g id="text_2">
      <!-- 0 -->
      <g transform="translate(158.724677 337.537813)scale(0.14 -0.14)">
       <defs>
        <path d="M 31.78125 66.40625 
Q 24.171875 66.40625 20.328125 58.90625 
Q 16.5 51.421875 16.5 36.375 
Q 16.5 21.390625 20.328125 13.890625 
Q 24.171875 6.390625 31.78125 6.390625 
Q 39.453125 6.390625 43.28125 13.890625 
Q 47.125 21.390625 47.125 36.375 
Q 47.125 51.421875 43.28125 58.90625 
Q 39.453125 66.40625 31.78125 66.40625 
z
M 31.78125 74.21875 
Q 44.046875 74.21875 50.515625 64.515625 
Q 56.984375 54.828125 56.984375 36.375 
Q 56.984375 17.96875 50.515625 8.265625 
Q 44.046875 -1.421875 31.78125 -1.421875 
Q 19.53125 -1.421875 13.0625 8.265625 
Q 6.59375 17.96875 6.59375 36.375 
Q 6.59375 54.828125 13.0625 64.515625 
Q 19.53125 74.21875 31.78125 74.21875 
z
" id="DejaVuSans-48"/>
       </defs>
       <use xlink:href="#DejaVuSans-48"/>
      </g>
     </g>
    </g>
    <g id="xtick_3">
     <g id="line2d_3">
      <g>
       <use style="fill:#808080;stroke:#808080;" x="228.961176" xlink:href="#m22afe0fc27" y="320.4"/>
      </g>
     </g>
     <g id="text_3">
      <!-- 1 -->
      <g transform="translate(224.507426 337.537813)scale(0.14 -0.14)">
       <use xlink:href="#DejaVuSans-49"/>
      </g>
     </g>
    </g>
    <g id="xtick_4">
     <g id="line2d_4">
      <g>
       <use style="fill:#808080;stroke:#808080;" x="294.743926" xlink:href="#m22afe0fc27" y="320.4"/>
      </g>
     </g>
     <g id="text_4">
      <!-- 2 -->
      <g transform="translate(290.290176 337.537813)scale(0.14 -0.14)">
       <defs>
        <path d="M 19.1875 8.296875 
L 53.609375 8.296875 
L 53.609375 0 
L 7.328125 0 
L 7.328125 8.296875 
Q 12.9375 14.109375 22.625 23.890625 
Q 32.328125 33.6875 34.8125 36.53125 
Q 39.546875 41.84375 41.421875 45.53125 
Q 43.3125 49.21875 43.3125 52.78125 
Q 43.3125 58.59375 39.234375 62.25 
Q 35.15625 65.921875 28.609375 65.921875 
Q 23.96875 65.921875 18.8125 64.3125 
Q 13.671875 62.703125 7.8125 59.421875 
L 7.8125 69.390625 
Q 13.765625 71.78125 18.9375 73 
Q 24.125 74.21875 28.421875 74.21875 
Q 39.75 74.21875 46.484375 68.546875 
Q 53.21875 62.890625 53.21875 53.421875 
Q 53.21875 48.921875 51.53125 44.890625 
Q 49.859375 40.875 45.40625 35.40625 
Q 44.1875 33.984375 37.640625 27.21875 
Q 31.109375 20.453125 19.1875 8.296875 
z
" id="DejaVuSans-50"/>
       </defs>
       <use xlink:href="#DejaVuSans-50"/>
      </g>
     </g>
    </g>
   </g>
   <g id="matplotlib.axis_2"/>
   <g id="line2d_5">
    <path clip-path="url(#p6fac016950)" d="M 101.528926 307.055441 
L 110.102295 306.989471 
L 121.383044 306.317918 
L 123.187964 305.983655 
L 124.992884 305.44041 
L 127.249034 304.463411 
L 129.956413 302.97198 
L 134.468713 300.451543 
L 138.078553 298.511724 
L 139.883473 297.380107 
L 141.688393 295.978642 
L 143.493312 294.28803 
L 145.298232 292.29177 
L 147.554382 289.402424 
L 150.712992 284.809244 
L 153.420372 280.454639 
L 157.030211 274.323571 
L 159.286361 270.166677 
L 161.542511 265.469347 
L 163.347431 261.213138 
L 165.603581 255.146548 
L 167.408501 249.69091 
L 170.11588 240.672795 
L 173.72572 227.39828 
L 177.78679 211.221858 
L 180.49417 199.636762 
L 183.201549 187.160564 
L 185.457699 175.788068 
L 189.067539 155.994975 
L 193.579839 131.397755 
L 196.287218 118.140003 
L 198.994598 106.066274 
L 201.701978 95.179353 
L 203.506898 88.844724 
L 205.311818 83.432731 
L 206.665508 79.980535 
L 208.921657 75.222797 
L 211.177807 71.069804 
L 217.946257 59.112969 
L 218.848717 57.896743 
L 219.751177 56.950364 
L 220.653637 56.244166 
L 221.556096 55.878129 
L 222.458556 55.8 
L 223.361016 56.045571 
L 223.812246 56.246366 
L 224.714706 56.970077 
L 225.617166 57.998925 
L 226.519626 59.322254 
L 227.422086 61.049838 
L 228.324546 63.072607 
L 229.678236 66.768198 
L 231.031926 70.978064 
L 232.836846 77.596933 
L 235.092995 86.821858 
L 239.154065 104.538921 
L 244.568825 128.824376 
L 247.727434 144.000711 
L 252.239734 166.949832 
L 255.398344 182.437689 
L 257.654494 192.605025 
L 260.361873 203.822774 
L 264.422943 219.462629 
L 271.191393 244.701711 
L 273.898772 253.865183 
L 275.703692 259.36659 
L 277.959842 265.381402 
L 279.764762 269.574195 
L 282.020912 274.175957 
L 284.277062 278.180735 
L 286.081982 281.031854 
L 288.338131 284.135132 
L 290.594281 286.745972 
L 293.301661 289.437111 
L 300.07011 296.011537 
L 302.77749 298.580093 
L 304.58241 300.027228 
L 306.38733 301.18287 
L 308.19225 302.05273 
L 309.99717 302.674775 
L 312.704549 303.307543 
L 319.021769 304.757104 
L 323.985299 306.045772 
L 326.692678 306.497464 
L 329.400058 306.733341 
L 332.107438 306.810082 
L 332.107438 306.810082 
" style="fill:none;stroke:#1f77b4;stroke-linecap:square;stroke-width:1.5;"/>
   </g>
   <g id="line2d_6">
    <path clip-path="url(#p6fac016950)" d="M 158.153961 302.508 
L 276.197035 302.508 
" style="fill:none;stroke:#000000;stroke-width:3;"/>
   </g>
   <g id="patch_3">
    <path d="M 90 320.4 
L 343.636364 320.4 
" style="fill:none;stroke:#808080;stroke-linecap:square;stroke-linejoin:miter;stroke-width:0.8;"/>
   </g>
   <g id="text_5">
    <!-- -0.076  -->
    <g transform="translate(105.032867 289.278)scale(0.15 -0.15)">
     <defs>
      <path d="M 4.890625 31.390625 
L 31.203125 31.390625 
L 31.203125 23.390625 
L 4.890625 23.390625 
z
" id="DejaVuSans-45"/>
      <path d="M 10.6875 12.40625 
L 21 12.40625 
L 21 0 
L 10.6875 0 
z
" id="DejaVuSans-46"/>
      <path d="M 8.203125 72.90625 
L 55.078125 72.90625 
L 55.078125 68.703125 
L 28.609375 0 
L 18.3125 0 
L 43.21875 64.59375 
L 8.203125 64.59375 
z
" id="DejaVuSans-55"/>
      <path d="M 33.015625 40.375 
Q 26.375 40.375 22.484375 35.828125 
Q 18.609375 31.296875 18.609375 23.390625 
Q 18.609375 15.53125 22.484375 10.953125 
Q 26.375 6.390625 33.015625 6.390625 
Q 39.65625 6.390625 43.53125 10.953125 
Q 47.40625 15.53125 47.40625 23.390625 
Q 47.40625 31.296875 43.53125 35.828125 
Q 39.65625 40.375 33.015625 40.375 
z
M 52.59375 71.296875 
L 52.59375 62.3125 
Q 48.875 64.0625 45.09375 64.984375 
Q 41.3125 65.921875 37.59375 65.921875 
Q 27.828125 65.921875 22.671875 59.328125 
Q 17.53125 52.734375 16.796875 39.40625 
Q 19.671875 43.65625 24.015625 45.921875 
Q 28.375 48.1875 33.59375 48.1875 
Q 44.578125 48.1875 50.953125 41.515625 
Q 57.328125 34.859375 57.328125 23.390625 
Q 57.328125 12.15625 50.6875 5.359375 
Q 44.046875 -1.421875 33.015625 -1.421875 
Q 20.359375 -1.421875 13.671875 8.265625 
Q 6.984375 17.96875 6.984375 36.375 
Q 6.984375 53.65625 15.1875 63.9375 
Q 23.390625 74.21875 37.203125 74.21875 
Q 40.921875 74.21875 44.703125 73.484375 
Q 48.484375 72.75 52.59375 71.296875 
z
" id="DejaVuSans-54"/>
      <path id="DejaVuSans-32"/>
     </defs>
     <use xlink:href="#DejaVuSans-45"/>
     <use x="36.083984" xlink:href="#DejaVuSans-48"/>
     <use x="99.707031" xlink:href="#DejaVuSans-46"/>
     <use x="131.494141" xlink:href="#DejaVuSans-48"/>
     <use x="195.117188" xlink:href="#DejaVuSans-55"/>
     <use x="258.740234" xlink:href="#DejaVuSans-54"/>
     <use x="322.363281" xlink:href="#DejaVuSans-32"/>
    </g>
   </g>
   <g id="text_6">
    <!--  1.7 -->
    <g transform="translate(276.197035 289.278)scale(0.15 -0.15)">
     <use xlink:href="#DejaVuSans-32"/>
     <use x="31.787109" xlink:href="#DejaVuSans-49"/>
     <use x="95.410156" xlink:href="#DejaVuSans-46"/>
     <use x="127.197266" xlink:href="#DejaVuSans-55"/>
    </g>
   </g>
   <g id="text_7">
    <!-- 94% HDI -->
    <g transform="translate(184.494248 228.42)scale(0.15 -0.15)">
     <defs>
      <path d="M 10.984375 1.515625 
L 10.984375 10.5 
Q 14.703125 8.734375 18.5 7.8125 
Q 22.3125 6.890625 25.984375 6.890625 
Q 35.75 6.890625 40.890625 13.453125 
Q 46.046875 20.015625 46.78125 33.40625 
Q 43.953125 29.203125 39.59375 26.953125 
Q 35.25 24.703125 29.984375 24.703125 
Q 19.046875 24.703125 12.671875 31.3125 
Q 6.296875 37.9375 6.296875 49.421875 
Q 6.296875 60.640625 12.9375 67.421875 
Q 19.578125 74.21875 30.609375 74.21875 
Q 43.265625 74.21875 49.921875 64.515625 
Q 56.59375 54.828125 56.59375 36.375 
Q 56.59375 19.140625 48.40625 8.859375 
Q 40.234375 -1.421875 26.421875 -1.421875 
Q 22.703125 -1.421875 18.890625 -0.6875 
Q 15.09375 0.046875 10.984375 1.515625 
z
M 30.609375 32.421875 
Q 37.25 32.421875 41.125 36.953125 
Q 45.015625 41.5 45.015625 49.421875 
Q 45.015625 57.28125 41.125 61.84375 
Q 37.25 66.40625 30.609375 66.40625 
Q 23.96875 66.40625 20.09375 61.84375 
Q 16.21875 57.28125 16.21875 49.421875 
Q 16.21875 41.5 20.09375 36.953125 
Q 23.96875 32.421875 30.609375 32.421875 
z
" id="DejaVuSans-57"/>
      <path d="M 37.796875 64.3125 
L 12.890625 25.390625 
L 37.796875 25.390625 
z
M 35.203125 72.90625 
L 47.609375 72.90625 
L 47.609375 25.390625 
L 58.015625 25.390625 
L 58.015625 17.1875 
L 47.609375 17.1875 
L 47.609375 0 
L 37.796875 0 
L 37.796875 17.1875 
L 4.890625 17.1875 
L 4.890625 26.703125 
z
" id="DejaVuSans-52"/>
      <path d="M 72.703125 32.078125 
Q 68.453125 32.078125 66.03125 28.46875 
Q 63.625 24.859375 63.625 18.40625 
Q 63.625 12.0625 66.03125 8.421875 
Q 68.453125 4.78125 72.703125 4.78125 
Q 76.859375 4.78125 79.265625 8.421875 
Q 81.6875 12.0625 81.6875 18.40625 
Q 81.6875 24.8125 79.265625 28.4375 
Q 76.859375 32.078125 72.703125 32.078125 
z
M 72.703125 38.28125 
Q 80.421875 38.28125 84.953125 32.90625 
Q 89.5 27.546875 89.5 18.40625 
Q 89.5 9.28125 84.9375 3.921875 
Q 80.375 -1.421875 72.703125 -1.421875 
Q 64.890625 -1.421875 60.34375 3.921875 
Q 55.8125 9.28125 55.8125 18.40625 
Q 55.8125 27.59375 60.375 32.9375 
Q 64.9375 38.28125 72.703125 38.28125 
z
M 22.3125 68.015625 
Q 18.109375 68.015625 15.6875 64.375 
Q 13.28125 60.75 13.28125 54.390625 
Q 13.28125 47.953125 15.671875 44.328125 
Q 18.0625 40.71875 22.3125 40.71875 
Q 26.5625 40.71875 28.96875 44.328125 
Q 31.390625 47.953125 31.390625 54.390625 
Q 31.390625 60.6875 28.953125 64.34375 
Q 26.515625 68.015625 22.3125 68.015625 
z
M 66.40625 74.21875 
L 74.21875 74.21875 
L 28.609375 -1.421875 
L 20.796875 -1.421875 
z
M 22.3125 74.21875 
Q 30.03125 74.21875 34.609375 68.875 
Q 39.203125 63.53125 39.203125 54.390625 
Q 39.203125 45.171875 34.640625 39.84375 
Q 30.078125 34.515625 22.3125 34.515625 
Q 14.546875 34.515625 10.03125 39.859375 
Q 5.515625 45.21875 5.515625 54.390625 
Q 5.515625 63.484375 10.046875 68.84375 
Q 14.59375 74.21875 22.3125 74.21875 
z
" id="DejaVuSans-37"/>
      <path d="M 9.8125 72.90625 
L 19.671875 72.90625 
L 19.671875 43.015625 
L 55.515625 43.015625 
L 55.515625 72.90625 
L 65.375 72.90625 
L 65.375 0 
L 55.515625 0 
L 55.515625 34.71875 
L 19.671875 34.71875 
L 19.671875 0 
L 9.8125 0 
z
" id="DejaVuSans-72"/>
      <path d="M 19.671875 64.796875 
L 19.671875 8.109375 
L 31.59375 8.109375 
Q 46.6875 8.109375 53.6875 14.9375 
Q 60.6875 21.78125 60.6875 36.53125 
Q 60.6875 51.171875 53.6875 57.984375 
Q 46.6875 64.796875 31.59375 64.796875 
z
M 9.8125 72.90625 
L 30.078125 72.90625 
Q 51.265625 72.90625 61.171875 64.09375 
Q 71.09375 55.28125 71.09375 36.53125 
Q 71.09375 17.671875 61.125 8.828125 
Q 51.171875 0 30.078125 0 
L 9.8125 0 
z
" id="DejaVuSans-68"/>
      <path d="M 9.8125 72.90625 
L 19.671875 72.90625 
L 19.671875 0 
L 9.8125 0 
z
" id="DejaVuSans-73"/>
     </defs>
     <use xlink:href="#DejaVuSans-57"/>
     <use x="63.623047" xlink:href="#DejaVuSans-52"/>
     <use x="127.246094" xlink:href="#DejaVuSans-37"/>
     <use x="222.265625" xlink:href="#DejaVuSans-32"/>
     <use x="254.052734" xlink:href="#DejaVuSans-72"/>
     <use x="329.248047" xlink:href="#DejaVuSans-68"/>
     <use x="406.25" xlink:href="#DejaVuSans-73"/>
    </g>
   </g>
   <g id="text_8">
    <!-- mean=0.86 -->
    <g transform="translate(175.71514 96.12)scale(0.15 -0.15)">
     <defs>
      <path d="M 52 44.1875 
Q 55.375 50.25 60.0625 53.125 
Q 64.75 56 71.09375 56 
Q 79.640625 56 84.28125 50.015625 
Q 88.921875 44.046875 88.921875 33.015625 
L 88.921875 0 
L 79.890625 0 
L 79.890625 32.71875 
Q 79.890625 40.578125 77.09375 44.375 
Q 74.3125 48.1875 68.609375 48.1875 
Q 61.625 48.1875 57.5625 43.546875 
Q 53.515625 38.921875 53.515625 30.90625 
L 53.515625 0 
L 44.484375 0 
L 44.484375 32.71875 
Q 44.484375 40.625 41.703125 44.40625 
Q 38.921875 48.1875 33.109375 48.1875 
Q 26.21875 48.1875 22.15625 43.53125 
Q 18.109375 38.875 18.109375 30.90625 
L 18.109375 0 
L 9.078125 0 
L 9.078125 54.6875 
L 18.109375 54.6875 
L 18.109375 46.1875 
Q 21.1875 51.21875 25.484375 53.609375 
Q 29.78125 56 35.6875 56 
Q 41.65625 56 45.828125 52.96875 
Q 50 49.953125 52 44.1875 
z
" id="DejaVuSans-109"/>
      <path d="M 56.203125 29.59375 
L 56.203125 25.203125 
L 14.890625 25.203125 
Q 15.484375 15.921875 20.484375 11.0625 
Q 25.484375 6.203125 34.421875 6.203125 
Q 39.59375 6.203125 44.453125 7.46875 
Q 49.3125 8.734375 54.109375 11.28125 
L 54.109375 2.78125 
Q 49.265625 0.734375 44.1875 -0.34375 
Q 39.109375 -1.421875 33.890625 -1.421875 
Q 20.796875 -1.421875 13.15625 6.1875 
Q 5.515625 13.8125 5.515625 26.8125 
Q 5.515625 40.234375 12.765625 48.109375 
Q 20.015625 56 32.328125 56 
Q 43.359375 56 49.78125 48.890625 
Q 56.203125 41.796875 56.203125 29.59375 
z
M 47.21875 32.234375 
Q 47.125 39.59375 43.09375 43.984375 
Q 39.0625 48.390625 32.421875 48.390625 
Q 24.90625 48.390625 20.390625 44.140625 
Q 15.875 39.890625 15.1875 32.171875 
z
" id="DejaVuSans-101"/>
      <path d="M 34.28125 27.484375 
Q 23.390625 27.484375 19.1875 25 
Q 14.984375 22.515625 14.984375 16.5 
Q 14.984375 11.71875 18.140625 8.90625 
Q 21.296875 6.109375 26.703125 6.109375 
Q 34.1875 6.109375 38.703125 11.40625 
Q 43.21875 16.703125 43.21875 25.484375 
L 43.21875 27.484375 
z
M 52.203125 31.203125 
L 52.203125 0 
L 43.21875 0 
L 43.21875 8.296875 
Q 40.140625 3.328125 35.546875 0.953125 
Q 30.953125 -1.421875 24.3125 -1.421875 
Q 15.921875 -1.421875 10.953125 3.296875 
Q 6 8.015625 6 15.921875 
Q 6 25.140625 12.171875 29.828125 
Q 18.359375 34.515625 30.609375 34.515625 
L 43.21875 34.515625 
L 43.21875 35.40625 
Q 43.21875 41.609375 39.140625 45 
Q 35.0625 48.390625 27.6875 48.390625 
Q 23 48.390625 18.546875 47.265625 
Q 14.109375 46.140625 10.015625 43.890625 
L 10.015625 52.203125 
Q 14.9375 54.109375 19.578125 55.046875 
Q 24.21875 56 28.609375 56 
Q 40.484375 56 46.34375 49.84375 
Q 52.203125 43.703125 52.203125 31.203125 
z
" id="DejaVuSans-97"/>
      <path d="M 54.890625 33.015625 
L 54.890625 0 
L 45.90625 0 
L 45.90625 32.71875 
Q 45.90625 40.484375 42.875 44.328125 
Q 39.84375 48.1875 33.796875 48.1875 
Q 26.515625 48.1875 22.3125 43.546875 
Q 18.109375 38.921875 18.109375 30.90625 
L 18.109375 0 
L 9.078125 0 
L 9.078125 54.6875 
L 18.109375 54.6875 
L 18.109375 46.1875 
Q 21.34375 51.125 25.703125 53.5625 
Q 30.078125 56 35.796875 56 
Q 45.21875 56 50.046875 50.171875 
Q 54.890625 44.34375 54.890625 33.015625 
z
" id="DejaVuSans-110"/>
      <path d="M 10.59375 45.40625 
L 73.1875 45.40625 
L 73.1875 37.203125 
L 10.59375 37.203125 
z
M 10.59375 25.484375 
L 73.1875 25.484375 
L 73.1875 17.1875 
L 10.59375 17.1875 
z
" id="DejaVuSans-61"/>
      <path d="M 31.78125 34.625 
Q 24.75 34.625 20.71875 30.859375 
Q 16.703125 27.09375 16.703125 20.515625 
Q 16.703125 13.921875 20.71875 10.15625 
Q 24.75 6.390625 31.78125 6.390625 
Q 38.8125 6.390625 42.859375 10.171875 
Q 46.921875 13.96875 46.921875 20.515625 
Q 46.921875 27.09375 42.890625 30.859375 
Q 38.875 34.625 31.78125 34.625 
z
M 21.921875 38.8125 
Q 15.578125 40.375 12.03125 44.71875 
Q 8.5 49.078125 8.5 55.328125 
Q 8.5 64.0625 14.71875 69.140625 
Q 20.953125 74.21875 31.78125 74.21875 
Q 42.671875 74.21875 48.875 69.140625 
Q 55.078125 64.0625 55.078125 55.328125 
Q 55.078125 49.078125 51.53125 44.71875 
Q 48 40.375 41.703125 38.8125 
Q 48.828125 37.15625 52.796875 32.3125 
Q 56.78125 27.484375 56.78125 20.515625 
Q 56.78125 9.90625 50.3125 4.234375 
Q 43.84375 -1.421875 31.78125 -1.421875 
Q 19.734375 -1.421875 13.25 4.234375 
Q 6.78125 9.90625 6.78125 20.515625 
Q 6.78125 27.484375 10.78125 32.3125 
Q 14.796875 37.15625 21.921875 38.8125 
z
M 18.3125 54.390625 
Q 18.3125 48.734375 21.84375 45.5625 
Q 25.390625 42.390625 31.78125 42.390625 
Q 38.140625 42.390625 41.71875 45.5625 
Q 45.3125 48.734375 45.3125 54.390625 
Q 45.3125 60.0625 41.71875 63.234375 
Q 38.140625 66.40625 31.78125 66.40625 
Q 25.390625 66.40625 21.84375 63.234375 
Q 18.3125 60.0625 18.3125 54.390625 
z
" id="DejaVuSans-56"/>
     </defs>
     <use xlink:href="#DejaVuSans-109"/>
     <use x="97.412109" xlink:href="#DejaVuSans-101"/>
     <use x="158.935547" xlink:href="#DejaVuSans-97"/>
     <use x="220.214844" xlink:href="#DejaVuSans-110"/>
     <use x="283.59375" xlink:href="#DejaVuSans-61"/>
     <use x="367.382812" xlink:href="#DejaVuSans-48"/>
     <use x="431.005859" xlink:href="#DejaVuSans-46"/>
     <use x="462.792969" xlink:href="#DejaVuSans-56"/>
     <use x="526.416016" xlink:href="#DejaVuSans-54"/>
    </g>
   </g>
   <g id="text_9">
    <!-- a -->
    <g transform="translate(211.915682 37.2)scale(0.16 -0.16)">
     <use xlink:href="#DejaVuSans-97"/>
    </g>
   </g>
  </g>
  <g id="axes_2">
   <g id="patch_4">
    <path d="M 394.363636 320.4 
L 648 320.4 
L 648 43.2 
L 394.363636 43.2 
z
" style="fill:#ffffff;"/>
   </g>
   <g id="PolyCollection_2">
    <defs>
     <path d="M 405.892562 -52.2 
L 405.892562 -52.934107 
L 406.343792 -52.928414 
L 406.795022 -52.91716 
L 407.246252 -52.900605 
L 407.697482 -52.879124 
L 408.148712 -52.853197 
L 408.599942 -52.823388 
L 409.051172 -52.790325 
L 409.502402 -52.754681 
L 409.953632 -52.717147 
L 410.404862 -52.678414 
L 410.856092 -52.63915 
L 411.307322 -52.599983 
L 411.758552 -52.561483 
L 412.209782 -52.524156 
L 412.661011 -52.488429 
L 413.112241 -52.454649 
L 413.563471 -52.423083 
L 414.014701 -52.393913 
L 414.465931 -52.367251 
L 414.917161 -52.343136 
L 415.368391 -52.321548 
L 415.819621 -52.302415 
L 416.270851 -52.285625 
L 416.722081 -52.271032 
L 417.173311 -52.25847 
L 417.624541 -52.247756 
L 418.075771 -52.238702 
L 418.527001 -52.231122 
L 418.978231 -52.224832 
L 419.429461 -52.21966 
L 419.880691 -52.215445 
L 420.331921 -52.212039 
L 420.783151 -52.209311 
L 421.234381 -52.210241 
L 421.685611 -52.207146 
L 422.136841 -52.20526 
L 422.588071 -52.212968 
L 423.039301 -52.216768 
L 423.490531 -52.221515 
L 423.941761 -52.227395 
L 424.392991 -52.234616 
L 424.844221 -52.243407 
L 425.295451 -52.254014 
L 425.74668 -52.2667 
L 426.19791 -52.284832 
L 426.64914 -52.30345 
L 427.10037 -52.328311 
L 427.5516 -52.354486 
L 428.00283 -52.384655 
L 428.45406 -52.419125 
L 428.90529 -52.458161 
L 429.35652 -52.501975 
L 429.80775 -52.55071 
L 430.25898 -52.604423 
L 430.71021 -52.66307 
L 431.16144 -52.73269 
L 431.61267 -52.805632 
L 432.0639 -52.881046 
L 432.51513 -52.963991 
L 432.96636 -53.048746 
L 433.41759 -53.143301 
L 433.86882 -53.236557 
L 434.32005 -53.332602 
L 434.77128 -53.433879 
L 435.22251 -53.534487 
L 435.67374 -53.636147 
L 436.12497 -53.73826 
L 436.5762 -53.843363 
L 437.02743 -53.948818 
L 437.47866 -54.05135 
L 437.92989 -54.159235 
L 438.38112 -54.264924 
L 438.832349 -54.367871 
L 439.283579 -54.470545 
L 439.734809 -54.576232 
L 440.186039 -54.683025 
L 440.637269 -54.788331 
L 441.088499 -54.894826 
L 441.539729 -55.002805 
L 441.990959 -55.112491 
L 442.442189 -55.227098 
L 442.893419 -55.341383 
L 443.344649 -55.460667 
L 443.795879 -55.579432 
L 444.247109 -55.708892 
L 444.698339 -55.835849 
L 445.149569 -55.961488 
L 445.600799 -56.087445 
L 446.052029 -56.212894 
L 446.503259 -56.336921 
L 446.954489 -56.46164 
L 447.405719 -56.586988 
L 447.856949 -56.71005 
L 448.308179 -56.833466 
L 448.759409 -56.948605 
L 449.210639 -57.059887 
L 449.661869 -57.17031 
L 450.113099 -57.271644 
L 450.564329 -57.371821 
L 451.015559 -57.469014 
L 451.466789 -57.563942 
L 451.918018 -57.660609 
L 452.369248 -57.76723 
L 452.820478 -57.872657 
L 453.271708 -57.975007 
L 453.722938 -58.092167 
L 454.174168 -58.215496 
L 454.625398 -58.347877 
L 455.076628 -58.502965 
L 455.527858 -58.662491 
L 455.979088 -58.853145 
L 456.430318 -59.062755 
L 456.881548 -59.286797 
L 457.332778 -59.530901 
L 457.784008 -59.801719 
L 458.235238 -60.104893 
L 458.686468 -60.433772 
L 459.137698 -60.788263 
L 459.588928 -61.186293 
L 460.040158 -61.613018 
L 460.491388 -62.064877 
L 460.942618 -62.539976 
L 461.393848 -63.051137 
L 461.845078 -63.593453 
L 462.296308 -64.160444 
L 462.747538 -64.752994 
L 463.198768 -65.361636 
L 463.649998 -65.994851 
L 464.101228 -66.652629 
L 464.552458 -67.334359 
L 465.003687 -68.04909 
L 465.454917 -68.74501 
L 465.906147 -69.480729 
L 466.357377 -70.221166 
L 466.808607 -70.957502 
L 467.259837 -71.711977 
L 467.711067 -72.492079 
L 468.162297 -73.278065 
L 468.613527 -74.063616 
L 469.064757 -74.865336 
L 469.515987 -75.678818 
L 469.967217 -76.509286 
L 470.418447 -77.344692 
L 470.869677 -78.212967 
L 471.320907 -79.098933 
L 471.772137 -79.999112 
L 472.223367 -80.942039 
L 472.674597 -81.903836 
L 473.125827 -82.898777 
L 473.577057 -83.923927 
L 474.028287 -84.980556 
L 474.479517 -86.101029 
L 474.930747 -87.251565 
L 475.381977 -88.426986 
L 475.833207 -89.653839 
L 476.284437 -90.915249 
L 476.735667 -92.249234 
L 477.186897 -93.596895 
L 477.638127 -94.981707 
L 478.089356 -96.429284 
L 478.540586 -97.914365 
L 478.991816 -99.429244 
L 479.443046 -100.964625 
L 479.894276 -102.535554 
L 480.345506 -104.13447 
L 480.796736 -105.75672 
L 481.247966 -107.412053 
L 481.699196 -109.079696 
L 482.150426 -110.762541 
L 482.601656 -112.444042 
L 483.052886 -114.136296 
L 483.504116 -115.812185 
L 483.955346 -117.487763 
L 484.406576 -119.1382 
L 484.857806 -120.803794 
L 485.309036 -122.445579 
L 485.760266 -124.07042 
L 486.211496 -125.652595 
L 486.662726 -127.21165 
L 487.113956 -128.714569 
L 487.565186 -130.192859 
L 488.016416 -131.649796 
L 488.467646 -133.043346 
L 488.918876 -134.411687 
L 489.370106 -135.760444 
L 489.821336 -137.079516 
L 490.272566 -138.364764 
L 490.723796 -139.632217 
L 491.175025 -140.87526 
L 491.626255 -142.10469 
L 492.077485 -143.316412 
L 492.528715 -144.569674 
L 492.979945 -145.844261 
L 493.431175 -147.137117 
L 493.882405 -148.480441 
L 494.333635 -149.856926 
L 494.784865 -151.289277 
L 495.236095 -152.782429 
L 495.687325 -154.35801 
L 496.138555 -156.023843 
L 496.589785 -157.751341 
L 497.041015 -159.575285 
L 497.492245 -161.529724 
L 497.943475 -163.555833 
L 498.394705 -165.728913 
L 498.845935 -167.98105 
L 499.297165 -170.34489 
L 499.748395 -172.795696 
L 500.199625 -175.33835 
L 500.650855 -177.950758 
L 501.102085 -180.621717 
L 501.553315 -183.377403 
L 502.004545 -186.153207 
L 502.455775 -188.957004 
L 502.907005 -191.777362 
L 503.358235 -194.622262 
L 503.809465 -197.46388 
L 504.260694 -200.248814 
L 504.711924 -203.030042 
L 505.163154 -205.748797 
L 505.614384 -208.432768 
L 506.065614 -211.050393 
L 506.516844 -213.557435 
L 506.968074 -216.039427 
L 507.419304 -218.466737 
L 507.870534 -220.86061 
L 508.321764 -223.219371 
L 508.772994 -225.527591 
L 509.224224 -227.845602 
L 509.675454 -230.148962 
L 510.126684 -232.447575 
L 510.577914 -234.781124 
L 511.029144 -237.149674 
L 511.480374 -239.571052 
L 511.931604 -242.039341 
L 512.382834 -244.597791 
L 512.834064 -247.204467 
L 513.285294 -249.880177 
L 513.736524 -252.645746 
L 514.187754 -255.461876 
L 514.638984 -258.343427 
L 515.090214 -261.251656 
L 515.541444 -264.162351 
L 515.992674 -267.100334 
L 516.443904 -270.033463 
L 516.895134 -272.890645 
L 517.346363 -275.724301 
L 517.797593 -278.445008 
L 518.248823 -281.111153 
L 518.700053 -283.647238 
L 519.151283 -286.0862 
L 519.602513 -288.341668 
L 520.053743 -290.41741 
L 520.504973 -292.396133 
L 520.956203 -294.181879 
L 521.407433 -295.778638 
L 521.858663 -297.208084 
L 522.309893 -298.470477 
L 522.761123 -299.558911 
L 523.212353 -300.521589 
L 523.663583 -301.356016 
L 524.114813 -302.047817 
L 524.566043 -302.589176 
L 525.017273 -303.041352 
L 525.468503 -303.41142 
L 525.919733 -303.69036 
L 526.370963 -303.94004 
L 526.822193 -304.07999 
L 527.273423 -304.173111 
L 527.724653 -304.2 
L 528.175883 -304.185689 
L 528.627113 -304.116847 
L 529.078343 -304.003578 
L 529.529573 -303.818788 
L 529.980803 -303.563888 
L 530.432032 -303.274798 
L 530.883262 -302.946239 
L 531.334492 -302.531979 
L 531.785722 -302.061142 
L 532.236952 -301.547665 
L 532.688182 -300.996172 
L 533.139412 -300.367357 
L 533.590642 -299.675795 
L 534.041872 -298.971334 
L 534.493102 -298.242777 
L 534.944332 -297.482753 
L 535.395562 -296.687034 
L 535.846792 -295.907675 
L 536.298022 -295.164496 
L 536.749252 -294.41793 
L 537.200482 -293.696508 
L 537.651712 -293.023644 
L 538.102942 -292.389701 
L 538.554172 -291.813917 
L 539.005402 -291.267763 
L 539.456632 -290.777136 
L 539.907862 -290.263681 
L 540.359092 -289.782977 
L 540.810322 -289.3079 
L 541.261552 -288.829904 
L 541.712782 -288.341136 
L 542.164012 -287.803749 
L 542.615242 -287.19435 
L 543.066472 -286.531522 
L 543.517701 -285.788804 
L 543.968931 -284.922831 
L 544.420161 -283.911396 
L 544.871391 -282.77306 
L 545.322621 -281.491808 
L 545.773851 -280.034493 
L 546.225081 -278.442055 
L 546.676311 -276.687019 
L 547.127541 -274.771074 
L 547.578771 -272.734315 
L 548.030001 -270.520904 
L 548.481231 -268.188912 
L 548.932461 -265.757418 
L 549.383691 -263.199242 
L 549.834921 -260.578396 
L 550.286151 -257.896569 
L 550.737381 -255.138557 
L 551.188611 -252.339698 
L 551.639841 -249.567112 
L 552.091071 -246.793972 
L 552.542301 -244.001636 
L 552.993531 -241.2667 
L 553.444761 -238.591679 
L 553.895991 -235.960636 
L 554.347221 -233.403226 
L 554.798451 -230.932955 
L 555.249681 -228.537871 
L 555.700911 -226.210303 
L 556.152141 -224.000797 
L 556.60337 -221.883565 
L 557.0546 -219.83073 
L 557.50583 -217.875929 
L 557.95706 -216.004374 
L 558.40829 -214.189637 
L 558.85952 -212.504472 
L 559.31075 -210.87849 
L 559.76198 -209.310043 
L 560.21321 -207.780743 
L 560.66444 -206.309587 
L 561.11567 -204.866236 
L 561.5669 -203.477665 
L 562.01813 -202.122224 
L 562.46936 -200.728159 
L 562.92059 -199.394666 
L 563.37182 -198.081488 
L 563.82305 -196.765458 
L 564.27428 -195.458309 
L 564.72551 -194.166269 
L 565.17674 -192.89065 
L 565.62797 -191.62045 
L 566.0792 -190.344468 
L 566.53043 -189.097857 
L 566.98166 -187.85456 
L 567.43289 -186.623327 
L 567.88412 -185.400452 
L 568.33535 -184.187167 
L 568.78658 -182.999199 
L 569.23781 -181.845264 
L 569.689039 -180.665404 
L 570.140269 -179.49823 
L 570.591499 -178.330072 
L 571.042729 -177.143213 
L 571.493959 -175.923943 
L 571.945189 -174.708353 
L 572.396419 -173.440062 
L 572.847649 -172.125002 
L 573.298879 -170.772887 
L 573.750109 -169.34665 
L 574.201339 -167.851079 
L 574.652569 -166.271875 
L 575.103799 -164.607076 
L 575.555029 -162.843457 
L 576.006259 -160.990728 
L 576.457489 -159.054273 
L 576.908719 -157.034236 
L 577.359949 -154.912282 
L 577.811179 -152.725428 
L 578.262409 -150.452562 
L 578.713639 -148.106265 
L 579.164869 -145.715828 
L 579.616099 -143.269997 
L 580.067329 -140.796647 
L 580.518559 -138.302159 
L 580.969789 -135.791031 
L 581.421019 -133.303688 
L 581.872249 -130.83166 
L 582.323479 -128.360823 
L 582.774708 -125.980621 
L 583.225938 -123.639785 
L 583.677168 -121.346034 
L 584.128398 -119.125469 
L 584.579628 -116.986584 
L 585.030858 -114.926575 
L 585.482088 -112.95242 
L 585.933318 -111.075923 
L 586.384548 -109.288035 
L 586.835778 -107.597807 
L 587.287008 -105.976503 
L 587.738238 -104.445346 
L 588.189468 -102.993366 
L 588.640698 -101.614221 
L 589.091928 -100.316428 
L 589.543158 -99.069165 
L 589.994388 -97.886922 
L 590.445618 -96.764285 
L 590.896848 -95.682826 
L 591.348078 -94.64528 
L 591.799308 -93.652234 
L 592.250538 -92.692446 
L 592.701768 -91.775125 
L 593.152998 -90.874094 
L 593.604228 -90.001633 
L 594.055458 -89.154614 
L 594.506688 -88.321566 
L 594.957918 -87.490374 
L 595.409148 -86.671812 
L 595.860377 -85.875005 
L 596.311607 -85.084647 
L 596.762837 -84.298869 
L 597.214067 -83.526226 
L 597.665297 -82.747284 
L 598.116527 -81.981648 
L 598.567757 -81.215425 
L 599.018987 -80.461617 
L 599.470217 -79.726099 
L 599.921447 -78.992925 
L 600.372677 -78.272071 
L 600.823907 -77.55963 
L 601.275137 -76.855958 
L 601.726367 -76.170336 
L 602.177597 -75.504405 
L 602.628827 -74.850514 
L 603.080057 -74.209777 
L 603.531287 -73.595283 
L 603.982517 -72.990208 
L 604.433747 -72.401837 
L 604.884977 -71.833413 
L 605.336207 -71.264853 
L 605.787437 -70.70755 
L 606.238667 -70.158758 
L 606.689897 -69.634157 
L 607.141127 -69.106098 
L 607.592357 -68.584346 
L 608.043587 -68.080549 
L 608.494817 -67.561601 
L 608.946046 -67.050993 
L 609.397276 -66.534227 
L 609.848506 -66.012241 
L 610.299736 -65.49778 
L 610.750966 -64.986771 
L 611.202196 -64.471913 
L 611.653426 -63.960025 
L 612.104656 -63.44049 
L 612.555886 -62.922427 
L 613.007116 -62.430618 
L 613.458346 -61.934579 
L 613.909576 -61.455792 
L 614.360806 -60.992842 
L 614.812036 -60.535709 
L 615.263266 -60.105347 
L 615.714496 -59.699 
L 616.165726 -59.307577 
L 616.616956 -58.946014 
L 617.068186 -58.606075 
L 617.519416 -58.282846 
L 617.970646 -57.984518 
L 618.421876 -57.705041 
L 618.873106 -57.439283 
L 619.324336 -57.202308 
L 619.775566 -56.983218 
L 620.226796 -56.781853 
L 620.678026 -56.594173 
L 621.129256 -56.419221 
L 621.580486 -56.252303 
L 622.031715 -56.096494 
L 622.482945 -55.95289 
L 622.934175 -55.809943 
L 623.385405 -55.669963 
L 623.836635 -55.535366 
L 624.287865 -55.408125 
L 624.739095 -55.285217 
L 625.190325 -55.170022 
L 625.641555 -55.050726 
L 626.092785 -54.941432 
L 626.544015 -54.846558 
L 626.995245 -54.753172 
L 627.446475 -54.670427 
L 627.897705 -54.595947 
L 628.348935 -54.52795 
L 628.800165 -54.47284 
L 629.251395 -54.430107 
L 629.702625 -54.396116 
L 630.153855 -54.370803 
L 630.605085 -54.349141 
L 631.056315 -54.338753 
L 631.507545 -54.337984 
L 631.958775 -54.342832 
L 632.410005 -54.352216 
L 632.861235 -54.364927 
L 633.312465 -54.377324 
L 633.763695 -54.396439 
L 634.214925 -54.412641 
L 634.666155 -54.43325 
L 635.117384 -54.449759 
L 635.568614 -54.458356 
L 636.019844 -54.465943 
L 636.471074 -54.47512 
L 636.471074 -52.2 
L 636.471074 -52.2 
L 636.019844 -52.2 
L 635.568614 -52.2 
L 635.117384 -52.2 
L 634.666155 -52.2 
L 634.214925 -52.2 
L 633.763695 -52.2 
L 633.312465 -52.2 
L 632.861235 -52.2 
L 632.410005 -52.2 
L 631.958775 -52.2 
L 631.507545 -52.2 
L 631.056315 -52.2 
L 630.605085 -52.2 
L 630.153855 -52.2 
L 629.702625 -52.2 
L 629.251395 -52.2 
L 628.800165 -52.2 
L 628.348935 -52.2 
L 627.897705 -52.2 
L 627.446475 -52.2 
L 626.995245 -52.2 
L 626.544015 -52.2 
L 626.092785 -52.2 
L 625.641555 -52.2 
L 625.190325 -52.2 
L 624.739095 -52.2 
L 624.287865 -52.2 
L 623.836635 -52.2 
L 623.385405 -52.2 
L 622.934175 -52.2 
L 622.482945 -52.2 
L 622.031715 -52.2 
L 621.580486 -52.2 
L 621.129256 -52.2 
L 620.678026 -52.2 
L 620.226796 -52.2 
L 619.775566 -52.2 
L 619.324336 -52.2 
L 618.873106 -52.2 
L 618.421876 -52.2 
L 617.970646 -52.2 
L 617.519416 -52.2 
L 617.068186 -52.2 
L 616.616956 -52.2 
L 616.165726 -52.2 
L 615.714496 -52.2 
L 615.263266 -52.2 
L 614.812036 -52.2 
L 614.360806 -52.2 
L 613.909576 -52.2 
L 613.458346 -52.2 
L 613.007116 -52.2 
L 612.555886 -52.2 
L 612.104656 -52.2 
L 611.653426 -52.2 
L 611.202196 -52.2 
L 610.750966 -52.2 
L 610.299736 -52.2 
L 609.848506 -52.2 
L 609.397276 -52.2 
L 608.946046 -52.2 
L 608.494817 -52.2 
L 608.043587 -52.2 
L 607.592357 -52.2 
L 607.141127 -52.2 
L 606.689897 -52.2 
L 606.238667 -52.2 
L 605.787437 -52.2 
L 605.336207 -52.2 
L 604.884977 -52.2 
L 604.433747 -52.2 
L 603.982517 -52.2 
L 603.531287 -52.2 
L 603.080057 -52.2 
L 602.628827 -52.2 
L 602.177597 -52.2 
L 601.726367 -52.2 
L 601.275137 -52.2 
L 600.823907 -52.2 
L 600.372677 -52.2 
L 599.921447 -52.2 
L 599.470217 -52.2 
L 599.018987 -52.2 
L 598.567757 -52.2 
L 598.116527 -52.2 
L 597.665297 -52.2 
L 597.214067 -52.2 
L 596.762837 -52.2 
L 596.311607 -52.2 
L 595.860377 -52.2 
L 595.409148 -52.2 
L 594.957918 -52.2 
L 594.506688 -52.2 
L 594.055458 -52.2 
L 593.604228 -52.2 
L 593.152998 -52.2 
L 592.701768 -52.2 
L 592.250538 -52.2 
L 591.799308 -52.2 
L 591.348078 -52.2 
L 590.896848 -52.2 
L 590.445618 -52.2 
L 589.994388 -52.2 
L 589.543158 -52.2 
L 589.091928 -52.2 
L 588.640698 -52.2 
L 588.189468 -52.2 
L 587.738238 -52.2 
L 587.287008 -52.2 
L 586.835778 -52.2 
L 586.384548 -52.2 
L 585.933318 -52.2 
L 585.482088 -52.2 
L 585.030858 -52.2 
L 584.579628 -52.2 
L 584.128398 -52.2 
L 583.677168 -52.2 
L 583.225938 -52.2 
L 582.774708 -52.2 
L 582.323479 -52.2 
L 581.872249 -52.2 
L 581.421019 -52.2 
L 580.969789 -52.2 
L 580.518559 -52.2 
L 580.067329 -52.2 
L 579.616099 -52.2 
L 579.164869 -52.2 
L 578.713639 -52.2 
L 578.262409 -52.2 
L 577.811179 -52.2 
L 577.359949 -52.2 
L 576.908719 -52.2 
L 576.457489 -52.2 
L 576.006259 -52.2 
L 575.555029 -52.2 
L 575.103799 -52.2 
L 574.652569 -52.2 
L 574.201339 -52.2 
L 573.750109 -52.2 
L 573.298879 -52.2 
L 572.847649 -52.2 
L 572.396419 -52.2 
L 571.945189 -52.2 
L 571.493959 -52.2 
L 571.042729 -52.2 
L 570.591499 -52.2 
L 570.140269 -52.2 
L 569.689039 -52.2 
L 569.23781 -52.2 
L 568.78658 -52.2 
L 568.33535 -52.2 
L 567.88412 -52.2 
L 567.43289 -52.2 
L 566.98166 -52.2 
L 566.53043 -52.2 
L 566.0792 -52.2 
L 565.62797 -52.2 
L 565.17674 -52.2 
L 564.72551 -52.2 
L 564.27428 -52.2 
L 563.82305 -52.2 
L 563.37182 -52.2 
L 562.92059 -52.2 
L 562.46936 -52.2 
L 562.01813 -52.2 
L 561.5669 -52.2 
L 561.11567 -52.2 
L 560.66444 -52.2 
L 560.21321 -52.2 
L 559.76198 -52.2 
L 559.31075 -52.2 
L 558.85952 -52.2 
L 558.40829 -52.2 
L 557.95706 -52.2 
L 557.50583 -52.2 
L 557.0546 -52.2 
L 556.60337 -52.2 
L 556.152141 -52.2 
L 555.700911 -52.2 
L 555.249681 -52.2 
L 554.798451 -52.2 
L 554.347221 -52.2 
L 553.895991 -52.2 
L 553.444761 -52.2 
L 552.993531 -52.2 
L 552.542301 -52.2 
L 552.091071 -52.2 
L 551.639841 -52.2 
L 551.188611 -52.2 
L 550.737381 -52.2 
L 550.286151 -52.2 
L 549.834921 -52.2 
L 549.383691 -52.2 
L 548.932461 -52.2 
L 548.481231 -52.2 
L 548.030001 -52.2 
L 547.578771 -52.2 
L 547.127541 -52.2 
L 546.676311 -52.2 
L 546.225081 -52.2 
L 545.773851 -52.2 
L 545.322621 -52.2 
L 544.871391 -52.2 
L 544.420161 -52.2 
L 543.968931 -52.2 
L 543.517701 -52.2 
L 543.066472 -52.2 
L 542.615242 -52.2 
L 542.164012 -52.2 
L 541.712782 -52.2 
L 541.261552 -52.2 
L 540.810322 -52.2 
L 540.359092 -52.2 
L 539.907862 -52.2 
L 539.456632 -52.2 
L 539.005402 -52.2 
L 538.554172 -52.2 
L 538.102942 -52.2 
L 537.651712 -52.2 
L 537.200482 -52.2 
L 536.749252 -52.2 
L 536.298022 -52.2 
L 535.846792 -52.2 
L 535.395562 -52.2 
L 534.944332 -52.2 
L 534.493102 -52.2 
L 534.041872 -52.2 
L 533.590642 -52.2 
L 533.139412 -52.2 
L 532.688182 -52.2 
L 532.236952 -52.2 
L 531.785722 -52.2 
L 531.334492 -52.2 
L 530.883262 -52.2 
L 530.432032 -52.2 
L 529.980803 -52.2 
L 529.529573 -52.2 
L 529.078343 -52.2 
L 528.627113 -52.2 
L 528.175883 -52.2 
L 527.724653 -52.2 
L 527.273423 -52.2 
L 526.822193 -52.2 
L 526.370963 -52.2 
L 525.919733 -52.2 
L 525.468503 -52.2 
L 525.017273 -52.2 
L 524.566043 -52.2 
L 524.114813 -52.2 
L 523.663583 -52.2 
L 523.212353 -52.2 
L 522.761123 -52.2 
L 522.309893 -52.2 
L 521.858663 -52.2 
L 521.407433 -52.2 
L 520.956203 -52.2 
L 520.504973 -52.2 
L 520.053743 -52.2 
L 519.602513 -52.2 
L 519.151283 -52.2 
L 518.700053 -52.2 
L 518.248823 -52.2 
L 517.797593 -52.2 
L 517.346363 -52.2 
L 516.895134 -52.2 
L 516.443904 -52.2 
L 515.992674 -52.2 
L 515.541444 -52.2 
L 515.090214 -52.2 
L 514.638984 -52.2 
L 514.187754 -52.2 
L 513.736524 -52.2 
L 513.285294 -52.2 
L 512.834064 -52.2 
L 512.382834 -52.2 
L 511.931604 -52.2 
L 511.480374 -52.2 
L 511.029144 -52.2 
L 510.577914 -52.2 
L 510.126684 -52.2 
L 509.675454 -52.2 
L 509.224224 -52.2 
L 508.772994 -52.2 
L 508.321764 -52.2 
L 507.870534 -52.2 
L 507.419304 -52.2 
L 506.968074 -52.2 
L 506.516844 -52.2 
L 506.065614 -52.2 
L 505.614384 -52.2 
L 505.163154 -52.2 
L 504.711924 -52.2 
L 504.260694 -52.2 
L 503.809465 -52.2 
L 503.358235 -52.2 
L 502.907005 -52.2 
L 502.455775 -52.2 
L 502.004545 -52.2 
L 501.553315 -52.2 
L 501.102085 -52.2 
L 500.650855 -52.2 
L 500.199625 -52.2 
L 499.748395 -52.2 
L 499.297165 -52.2 
L 498.845935 -52.2 
L 498.394705 -52.2 
L 497.943475 -52.2 
L 497.492245 -52.2 
L 497.041015 -52.2 
L 496.589785 -52.2 
L 496.138555 -52.2 
L 495.687325 -52.2 
L 495.236095 -52.2 
L 494.784865 -52.2 
L 494.333635 -52.2 
L 493.882405 -52.2 
L 493.431175 -52.2 
L 492.979945 -52.2 
L 492.528715 -52.2 
L 492.077485 -52.2 
L 491.626255 -52.2 
L 491.175025 -52.2 
L 490.723796 -52.2 
L 490.272566 -52.2 
L 489.821336 -52.2 
L 489.370106 -52.2 
L 488.918876 -52.2 
L 488.467646 -52.2 
L 488.016416 -52.2 
L 487.565186 -52.2 
L 487.113956 -52.2 
L 486.662726 -52.2 
L 486.211496 -52.2 
L 485.760266 -52.2 
L 485.309036 -52.2 
L 484.857806 -52.2 
L 484.406576 -52.2 
L 483.955346 -52.2 
L 483.504116 -52.2 
L 483.052886 -52.2 
L 482.601656 -52.2 
L 482.150426 -52.2 
L 481.699196 -52.2 
L 481.247966 -52.2 
L 480.796736 -52.2 
L 480.345506 -52.2 
L 479.894276 -52.2 
L 479.443046 -52.2 
L 478.991816 -52.2 
L 478.540586 -52.2 
L 478.089356 -52.2 
L 477.638127 -52.2 
L 477.186897 -52.2 
L 476.735667 -52.2 
L 476.284437 -52.2 
L 475.833207 -52.2 
L 475.381977 -52.2 
L 474.930747 -52.2 
L 474.479517 -52.2 
L 474.028287 -52.2 
L 473.577057 -52.2 
L 473.125827 -52.2 
L 472.674597 -52.2 
L 472.223367 -52.2 
L 471.772137 -52.2 
L 471.320907 -52.2 
L 470.869677 -52.2 
L 470.418447 -52.2 
L 469.967217 -52.2 
L 469.515987 -52.2 
L 469.064757 -52.2 
L 468.613527 -52.2 
L 468.162297 -52.2 
L 467.711067 -52.2 
L 467.259837 -52.2 
L 466.808607 -52.2 
L 466.357377 -52.2 
L 465.906147 -52.2 
L 465.454917 -52.2 
L 465.003687 -52.2 
L 464.552458 -52.2 
L 464.101228 -52.2 
L 463.649998 -52.2 
L 463.198768 -52.2 
L 462.747538 -52.2 
L 462.296308 -52.2 
L 461.845078 -52.2 
L 461.393848 -52.2 
L 460.942618 -52.2 
L 460.491388 -52.2 
L 460.040158 -52.2 
L 459.588928 -52.2 
L 459.137698 -52.2 
L 458.686468 -52.2 
L 458.235238 -52.2 
L 457.784008 -52.2 
L 457.332778 -52.2 
L 456.881548 -52.2 
L 456.430318 -52.2 
L 455.979088 -52.2 
L 455.527858 -52.2 
L 455.076628 -52.2 
L 454.625398 -52.2 
L 454.174168 -52.2 
L 453.722938 -52.2 
L 453.271708 -52.2 
L 452.820478 -52.2 
L 452.369248 -52.2 
L 451.918018 -52.2 
L 451.466789 -52.2 
L 451.015559 -52.2 
L 450.564329 -52.2 
L 450.113099 -52.2 
L 449.661869 -52.2 
L 449.210639 -52.2 
L 448.759409 -52.2 
L 448.308179 -52.2 
L 447.856949 -52.2 
L 447.405719 -52.2 
L 446.954489 -52.2 
L 446.503259 -52.2 
L 446.052029 -52.2 
L 445.600799 -52.2 
L 445.149569 -52.2 
L 444.698339 -52.2 
L 444.247109 -52.2 
L 443.795879 -52.2 
L 443.344649 -52.2 
L 442.893419 -52.2 
L 442.442189 -52.2 
L 441.990959 -52.2 
L 441.539729 -52.2 
L 441.088499 -52.2 
L 440.637269 -52.2 
L 440.186039 -52.2 
L 439.734809 -52.2 
L 439.283579 -52.2 
L 438.832349 -52.2 
L 438.38112 -52.2 
L 437.92989 -52.2 
L 437.47866 -52.2 
L 437.02743 -52.2 
L 436.5762 -52.2 
L 436.12497 -52.2 
L 435.67374 -52.2 
L 435.22251 -52.2 
L 434.77128 -52.2 
L 434.32005 -52.2 
L 433.86882 -52.2 
L 433.41759 -52.2 
L 432.96636 -52.2 
L 432.51513 -52.2 
L 432.0639 -52.2 
L 431.61267 -52.2 
L 431.16144 -52.2 
L 430.71021 -52.2 
L 430.25898 -52.2 
L 429.80775 -52.2 
L 429.35652 -52.2 
L 428.90529 -52.2 
L 428.45406 -52.2 
L 428.00283 -52.2 
L 427.5516 -52.2 
L 427.10037 -52.2 
L 426.64914 -52.2 
L 426.19791 -52.2 
L 425.74668 -52.2 
L 425.295451 -52.2 
L 424.844221 -52.2 
L 424.392991 -52.2 
L 423.941761 -52.2 
L 423.490531 -52.2 
L 423.039301 -52.2 
L 422.588071 -52.2 
L 422.136841 -52.2 
L 421.685611 -52.2 
L 421.234381 -52.2 
L 420.783151 -52.2 
L 420.331921 -52.2 
L 419.880691 -52.2 
L 419.429461 -52.2 
L 418.978231 -52.2 
L 418.527001 -52.2 
L 418.075771 -52.2 
L 417.624541 -52.2 
L 417.173311 -52.2 
L 416.722081 -52.2 
L 416.270851 -52.2 
L 415.819621 -52.2 
L 415.368391 -52.2 
L 414.917161 -52.2 
L 414.465931 -52.2 
L 414.014701 -52.2 
L 413.563471 -52.2 
L 413.112241 -52.2 
L 412.661011 -52.2 
L 412.209782 -52.2 
L 411.758552 -52.2 
L 411.307322 -52.2 
L 410.856092 -52.2 
L 410.404862 -52.2 
L 409.953632 -52.2 
L 409.502402 -52.2 
L 409.051172 -52.2 
L 408.599942 -52.2 
L 408.148712 -52.2 
L 407.697482 -52.2 
L 407.246252 -52.2 
L 406.795022 -52.2 
L 406.343792 -52.2 
L 405.892562 -52.2 
z
" id="mdaa600ff4b" style="stroke:#1f77b4;stroke-opacity:0;"/>
    </defs>
    <g clip-path="url(#p4231c30bb4)">
     <use style="fill:#1f77b4;fill-opacity:0;stroke:#1f77b4;stroke-opacity:0;" x="0" xlink:href="#mdaa600ff4b" y="360"/>
    </g>
   </g>
   <g id="matplotlib.axis_3">
    <g id="xtick_5">
     <g id="line2d_7">
      <g>
       <use style="fill:#808080;stroke:#808080;" x="406.099137" xlink:href="#m22afe0fc27" y="320.4"/>
      </g>
     </g>
     <g id="text_10">
      <!-- −2 -->
      <g transform="translate(395.779606 337.537813)scale(0.14 -0.14)">
       <use xlink:href="#DejaVuSans-8722"/>
       <use x="83.789062" xlink:href="#DejaVuSans-50"/>
      </g>
     </g>
    </g>
    <g id="xtick_6">
     <g id="line2d_8">
      <g>
       <use style="fill:#808080;stroke:#808080;" x="470.498477" xlink:href="#m22afe0fc27" y="320.4"/>
      </g>
     </g>
     <g id="text_11">
      <!-- −1 -->
      <g transform="translate(460.178946 337.537813)scale(0.14 -0.14)">
       <use xlink:href="#DejaVuSans-8722"/>
       <use x="83.789062" xlink:href="#DejaVuSans-49"/>
      </g>
     </g>
    </g>
    <g id="xtick_7">
     <g id="line2d_9">
      <g>
       <use style="fill:#808080;stroke:#808080;" x="534.897817" xlink:href="#m22afe0fc27" y="320.4"/>
      </g>
     </g>
     <g id="text_12">
      <!-- 0 -->
      <g transform="translate(530.444067 337.537813)scale(0.14 -0.14)">
       <use xlink:href="#DejaVuSans-48"/>
      </g>
     </g>
    </g>
    <g id="xtick_8">
     <g id="line2d_10">
      <g>
       <use style="fill:#808080;stroke:#808080;" x="599.297157" xlink:href="#m22afe0fc27" y="320.4"/>
      </g>
     </g>
     <g id="text_13">
      <!-- 1 -->
      <g transform="translate(594.843407 337.537813)scale(0.14 -0.14)">
       <use xlink:href="#DejaVuSans-49"/>
      </g>
     </g>
    </g>
   </g>
   <g id="matplotlib.axis_4"/>
   <g id="line2d_11">
    <path clip-path="url(#p4231c30bb4)" d="M 405.892562 307.065893 
L 409.051172 307.209675 
L 417.173311 307.74153 
L 423.039301 307.783232 
L 427.5516 307.645514 
L 430.71021 307.33693 
L 433.86882 306.763443 
L 440.637269 305.211669 
L 445.149569 304.038512 
L 450.564329 302.628179 
L 454.625398 301.652123 
L 456.430318 300.937245 
L 457.784008 300.198281 
L 459.137698 299.211737 
L 460.491388 297.935123 
L 461.845078 296.406547 
L 463.649998 294.005149 
L 465.454917 291.25499 
L 468.613527 285.936384 
L 471.320907 280.901067 
L 473.125827 277.101223 
L 474.930747 272.748435 
L 476.735667 267.750766 
L 478.540586 262.085635 
L 480.796736 254.24328 
L 487.565186 229.807141 
L 489.370106 224.239556 
L 491.626255 217.89531 
L 493.882405 211.519559 
L 495.236095 207.217571 
L 496.589785 202.248659 
L 497.943475 196.444167 
L 499.297165 189.65511 
L 501.102085 179.378283 
L 506.968074 143.960573 
L 510.126684 127.552425 
L 512.382834 115.402209 
L 514.187754 104.538124 
L 518.700053 76.352762 
L 520.053743 69.58259 
L 520.956203 65.818121 
L 521.858663 62.791916 
L 522.761123 60.441089 
L 523.663583 58.643984 
L 524.566043 57.410824 
L 525.468503 56.58858 
L 526.370963 56.05996 
L 527.273423 55.826889 
L 528.175883 55.814311 
L 529.078343 55.996422 
L 529.980803 56.436112 
L 530.883262 57.053761 
L 531.785722 57.938858 
L 533.139412 59.632643 
L 534.944332 62.517247 
L 537.200482 66.303492 
L 538.554172 68.186083 
L 540.359092 70.217023 
L 542.164012 72.196251 
L 543.066472 73.468478 
L 543.968931 75.077169 
L 544.871391 77.22694 
L 545.773851 79.965507 
L 546.676311 83.312981 
L 548.030001 89.479096 
L 549.383691 96.800758 
L 551.639841 110.432888 
L 554.347221 126.596774 
L 556.152141 135.999203 
L 557.95706 143.995626 
L 559.31075 149.12151 
L 561.11567 155.133764 
L 564.27428 164.541691 
L 567.88412 174.599548 
L 573.750109 190.65335 
L 575.103799 195.392924 
L 576.457489 200.945727 
L 577.811179 207.274572 
L 580.067329 219.203353 
L 583.677168 238.653966 
L 585.482088 247.04758 
L 586.835778 252.402193 
L 588.189468 257.006634 
L 589.543158 260.930835 
L 591.348078 265.35472 
L 593.152998 269.125906 
L 595.860377 274.124995 
L 599.470217 280.273901 
L 602.177597 284.495595 
L 604.433747 287.598163 
L 607.592357 291.415654 
L 615.263266 299.894653 
L 617.068186 301.393925 
L 618.873106 302.560717 
L 620.678026 303.405827 
L 622.934175 304.190057 
L 626.092785 305.058568 
L 628.800165 305.52716 
L 631.056315 305.661247 
L 634.666155 305.56675 
L 636.471074 305.52488 
L 636.471074 305.52488 
" style="fill:none;stroke:#1f77b4;stroke-linecap:square;stroke-width:1.5;"/>
   </g>
   <g id="line2d_12">
    <path clip-path="url(#p4231c30bb4)" d="M 479.112377 302.508 
L 591.520626 302.508 
" style="fill:none;stroke:#000000;stroke-width:3;"/>
   </g>
   <g id="patch_5">
    <path d="M 394.363636 320.4 
L 648 320.4 
" style="fill:none;stroke:#808080;stroke-linecap:square;stroke-linejoin:miter;stroke-width:0.8;"/>
   </g>
   <g id="text_14">
    <!-- -0.87  -->
    <g transform="translate(435.535034 289.278)scale(0.15 -0.15)">
     <use xlink:href="#DejaVuSans-45"/>
     <use x="36.083984" xlink:href="#DejaVuSans-48"/>
     <use x="99.707031" xlink:href="#DejaVuSans-46"/>
     <use x="131.494141" xlink:href="#DejaVuSans-56"/>
     <use x="195.117188" xlink:href="#DejaVuSans-55"/>
     <use x="258.740234" xlink:href="#DejaVuSans-32"/>
    </g>
   </g>
   <g id="text_15">
    <!--  0.88 -->
    <g transform="translate(591.520626 289.278)scale(0.15 -0.15)">
     <use xlink:href="#DejaVuSans-32"/>
     <use x="31.787109" xlink:href="#DejaVuSans-48"/>
     <use x="95.410156" xlink:href="#DejaVuSans-46"/>
     <use x="127.197266" xlink:href="#DejaVuSans-56"/>
     <use x="190.820312" xlink:href="#DejaVuSans-56"/>
    </g>
   </g>
   <g id="text_16">
    <!-- 94% HDI -->
    <g transform="translate(502.635252 228.42)scale(0.15 -0.15)">
     <use xlink:href="#DejaVuSans-57"/>
     <use x="63.623047" xlink:href="#DejaVuSans-52"/>
     <use x="127.246094" xlink:href="#DejaVuSans-37"/>
     <use x="222.265625" xlink:href="#DejaVuSans-32"/>
     <use x="254.052734" xlink:href="#DejaVuSans-72"/>
     <use x="329.248047" xlink:href="#DejaVuSans-68"/>
     <use x="406.25" xlink:href="#DejaVuSans-73"/>
    </g>
   </g>
   <g id="text_17">
    <!-- mean=-0.0039 -->
    <g transform="translate(478.145842 96.12)scale(0.15 -0.15)">
     <defs>
      <path d="M 40.578125 39.3125 
Q 47.65625 37.796875 51.625 33 
Q 55.609375 28.21875 55.609375 21.1875 
Q 55.609375 10.40625 48.1875 4.484375 
Q 40.765625 -1.421875 27.09375 -1.421875 
Q 22.515625 -1.421875 17.65625 -0.515625 
Q 12.796875 0.390625 7.625 2.203125 
L 7.625 11.71875 
Q 11.71875 9.328125 16.59375 8.109375 
Q 21.484375 6.890625 26.8125 6.890625 
Q 36.078125 6.890625 40.9375 10.546875 
Q 45.796875 14.203125 45.796875 21.1875 
Q 45.796875 27.640625 41.28125 31.265625 
Q 36.765625 34.90625 28.71875 34.90625 
L 20.21875 34.90625 
L 20.21875 43.015625 
L 29.109375 43.015625 
Q 36.375 43.015625 40.234375 45.921875 
Q 44.09375 48.828125 44.09375 54.296875 
Q 44.09375 59.90625 40.109375 62.90625 
Q 36.140625 65.921875 28.71875 65.921875 
Q 24.65625 65.921875 20.015625 65.03125 
Q 15.375 64.15625 9.8125 62.3125 
L 9.8125 71.09375 
Q 15.4375 72.65625 20.34375 73.4375 
Q 25.25 74.21875 29.59375 74.21875 
Q 40.828125 74.21875 47.359375 69.109375 
Q 53.90625 64.015625 53.90625 55.328125 
Q 53.90625 49.265625 50.4375 45.09375 
Q 46.96875 40.921875 40.578125 39.3125 
z
" id="DejaVuSans-51"/>
     </defs>
     <use xlink:href="#DejaVuSans-109"/>
     <use x="97.412109" xlink:href="#DejaVuSans-101"/>
     <use x="158.935547" xlink:href="#DejaVuSans-97"/>
     <use x="220.214844" xlink:href="#DejaVuSans-110"/>
     <use x="283.59375" xlink:href="#DejaVuSans-61"/>
     <use x="367.382812" xlink:href="#DejaVuSans-45"/>
     <use x="403.466797" xlink:href="#DejaVuSans-48"/>
     <use x="467.089844" xlink:href="#DejaVuSans-46"/>
     <use x="498.876953" xlink:href="#DejaVuSans-48"/>
     <use x="562.5" xlink:href="#DejaVuSans-48"/>
     <use x="626.123047" xlink:href="#DejaVuSans-51"/>
     <use x="689.746094" xlink:href="#DejaVuSans-57"/>
    </g>
   </g>
   <g id="text_18">
    <!-- b -->
    <g transform="translate(516.103068 37.2)scale(0.16 -0.16)">
     <defs>
      <path d="M 48.6875 27.296875 
Q 48.6875 37.203125 44.609375 42.84375 
Q 40.53125 48.484375 33.40625 48.484375 
Q 26.265625 48.484375 22.1875 42.84375 
Q 18.109375 37.203125 18.109375 27.296875 
Q 18.109375 17.390625 22.1875 11.75 
Q 26.265625 6.109375 33.40625 6.109375 
Q 40.53125 6.109375 44.609375 11.75 
Q 48.6875 17.390625 48.6875 27.296875 
z
M 18.109375 46.390625 
Q 20.953125 51.265625 25.265625 53.625 
Q 29.59375 56 35.59375 56 
Q 45.5625 56 51.78125 48.09375 
Q 58.015625 40.1875 58.015625 27.296875 
Q 58.015625 14.40625 51.78125 6.484375 
Q 45.5625 -1.421875 35.59375 -1.421875 
Q 29.59375 -1.421875 25.265625 0.953125 
Q 20.953125 3.328125 18.109375 8.203125 
L 18.109375 0 
L 9.078125 0 
L 9.078125 75.984375 
L 18.109375 75.984375 
z
" id="DejaVuSans-98"/>
     </defs>
     <use xlink:href="#DejaVuSans-98"/>
    </g>
   </g>
  </g>
 </g>
 <defs>
  <clipPath id="p6fac016950">
   <rect height="277.2" width="253.636364" x="90" y="43.2"/>
  </clipPath>
  <clipPath id="p4231c30bb4">
   <rect height="277.2" width="253.636364" x="394.363636" y="43.2"/>
  </clipPath>
 </defs>
</svg>
