<?xml version="1.0" encoding="utf-8" standalone="no"?>
<!DOCTYPE svg PUBLIC "-//W3C//DTD SVG 1.1//EN"
  "http://www.w3.org/Graphics/SVG/1.1/DTD/svg11.dtd">
<!-- Created with matplotlib (https://matplotlib.org/) -->
<svg height="504pt" version="1.1" viewBox="0 0 504 504" width="504pt" xmlns="http://www.w3.org/2000/svg" xmlns:xlink="http://www.w3.org/1999/xlink">
 <metadata>
  <rdf:RDF xmlns:cc="http://creativecommons.org/ns#" xmlns:dc="http://purl.org/dc/elements/1.1/" xmlns:rdf="http://www.w3.org/1999/02/22-rdf-syntax-ns#">
   <cc:Work>
    <dc:type rdf:resource="http://purl.org/dc/dcmitype/StillImage"/>
    <dc:date>2021-01-02T15:28:57.776494</dc:date>
    <dc:format>image/svg+xml</dc:format>
    <dc:creator>
     <cc:Agent>
      <dc:title>Matplotlib v3.3.3, https://matplotlib.org/</dc:title>
     </cc:Agent>
    </dc:creator>
   </cc:Work>
  </rdf:RDF>
 </metadata>
 <defs>
  <style type="text/css">*{stroke-linecap:butt;stroke-linejoin:round;}</style>
 </defs>
 <g id="figure_1">
  <g id="patch_1">
   <path d="M 0 504 
L 504 504 
L 504 0 
L 0 0 
z
" style="fill:#ffffff;"/>
  </g>
  <g id="axes_1">
   <g id="patch_2">
    <path d="M 63 448.56 
L 453.6 448.56 
L 453.6 60.48 
L 63 60.48 
z
" style="fill:#ffffff;"/>
   </g>
   <g id="PolyCollection_1">
    <path clip-path="url(#pbf5bbd5297)" d="M 128.1 355.440854 
L 128.1 518.353227 
L 128.752305 517.679778 
L 129.404609 517.00492 
L 130.056914 516.293741 
L 130.709218 515.663686 
L 131.361523 515.699696 
L 132.013828 512.641352 
L 132.666132 512.259178 
L 133.318437 511.395914 
L 133.970741 510.597877 
L 134.623046 509.913949 
L 135.275351 508.923319 
L 135.927655 508.184667 
L 136.57996 507.539916 
L 137.232265 506.702573 
L 137.884569 505.959131 
L 138.536874 505.25484 
L 139.189178 505.130714 
L 139.841483 504.392498 
L 140.493788 503.631272 
L 141.146092 503.088358 
L 141.798397 502.544578 
L 142.450701 501.709039 
L 143.103006 501.101387 
L 143.755311 500.492668 
L 144.407615 499.88288 
L 145.05992 498.916812 
L 145.712224 498.154042 
L 146.364529 497.507651 
L 147.016834 496.860076 
L 147.669138 496.197558 
L 148.321443 494.140224 
L 148.973747 494.514635 
L 149.626052 496.752898 
L 150.278357 497.711011 
L 150.930661 497.046319 
L 151.582966 496.471642 
L 152.235271 495.713095 
L 152.887575 494.382591 
L 153.53988 493.56232 
L 154.192184 492.740193 
L 154.844489 491.916209 
L 155.496794 491.090369 
L 156.149098 491.183232 
L 156.801403 490.457944 
L 157.453707 486.884812 
L 158.106012 486.04142 
L 158.758317 485.35584 
L 159.410621 484.418235 
L 160.062926 483.675874 
L 160.71523 483.050718 
L 161.367535 482.310458 
L 162.01984 481.506191 
L 162.672144 480.731593 
L 163.324449 479.955437 
L 163.976754 479.191026 
L 164.629058 478.606413 
L 165.281363 477.930178 
L 165.933667 477.303858 
L 166.585972 476.767904 
L 167.238277 476.188711 
L 167.890581 475.518471 
L 168.542886 472.594532 
L 169.19519 471.997956 
L 169.847495 473.788229 
L 170.4998 473.209635 
L 171.152104 469.963085 
L 171.804409 468.92058 
L 172.456713 467.8756 
L 173.109018 468.534086 
L 173.761323 467.325019 
L 174.413627 467.258517 
L 175.065932 466.679525 
L 175.718236 465.574376 
L 176.370541 465.028542 
L 177.022846 464.066715 
L 177.67515 463.165708 
L 178.327455 462.140387 
L 178.97976 461.105953 
L 179.632064 460.198373 
L 180.284369 459.228353 
L 180.936673 458.492282 
L 181.588978 457.590326 
L 182.241283 457.072158 
L 182.893587 456.13916 
L 183.545892 455.459949 
L 184.198196 455.569456 
L 184.850501 454.961355 
L 185.502806 453.311787 
L 186.15511 452.857116 
L 186.807415 452.046706 
L 187.459719 451.324977 
L 188.112024 450.629205 
L 188.764329 449.878079 
L 189.416633 449.146057 
L 190.068938 448.384214 
L 190.721242 448.860366 
L 191.373547 448.289632 
L 192.025852 447.664267 
L 192.678156 446.503335 
L 193.330461 445.896342 
L 193.982766 444.946867 
L 194.63507 443.736799 
L 195.287375 443.036699 
L 195.939679 439.161996 
L 196.591984 438.728847 
L 197.244289 437.502586 
L 197.896593 436.837609 
L 198.548898 436.196948 
L 199.201202 441.853512 
L 199.853507 441.100153 
L 200.505812 440.417324 
L 201.158116 439.670042 
L 201.810421 438.953124 
L 202.462725 438.23496 
L 203.11503 432.20766 
L 203.767335 436.051473 
L 204.419639 435.618926 
L 205.071944 434.833287 
L 205.724248 432.036373 
L 206.376553 431.674987 
L 207.028858 431.150746 
L 207.681162 425.550041 
L 208.333467 429.987571 
L 208.985772 424.441303 
L 209.638076 428.22656 
L 210.290381 427.495868 
L 210.942685 425.096816 
L 211.59499 420.375584 
L 212.247295 423.095222 
L 212.899599 422.161883 
L 213.551904 421.243007 
L 214.204208 420.828377 
L 214.856513 418.276021 
L 215.508818 417.667425 
L 216.161122 416.586591 
L 216.813427 415.794004 
L 217.465731 415.627493 
L 218.118036 414.821064 
L 218.770341 414.764791 
L 219.422645 412.610407 
L 220.07495 411.81119 
L 220.727255 411.221252 
L 221.379559 410.76854 
L 222.031864 409.953953 
L 222.684168 409.529 
L 223.336473 408.651129 
L 223.988778 408.430759 
L 224.641082 407.808412 
L 225.293387 406.008552 
L 225.945691 406.382759 
L 226.597996 404.776343 
L 227.250301 403.884364 
L 227.902605 403.327917 
L 228.55491 402.860204 
L 229.207214 405.28668 
L 229.859519 404.538881 
L 230.511824 403.78982 
L 231.164128 403.079327 
L 231.816433 402.381481 
L 232.468737 401.535042 
L 233.121042 400.864864 
L 233.773347 399.854134 
L 234.425651 400.41033 
L 235.077956 398.38152 
L 235.730261 397.450913 
L 236.382565 396.991088 
L 237.03487 394.806197 
L 237.687174 393.923168 
L 238.339479 393.240815 
L 238.991784 392.895642 
L 239.644088 392.117131 
L 240.296393 391.79482 
L 240.948697 391.062305 
L 241.601002 390.340265 
L 242.253307 389.743434 
L 242.905611 388.812665 
L 243.557916 388.158519 
L 244.21022 388.369142 
L 244.862525 387.538884 
L 245.51483 386.766818 
L 246.167134 388.008289 
L 246.819439 387.313999 
L 247.471743 385.645646 
L 248.124048 384.801493 
L 248.776353 385.415023 
L 249.428657 384.564552 
L 250.080962 383.888707 
L 250.733267 383.296023 
L 251.385571 382.629535 
L 252.037876 381.987488 
L 252.69018 381.173459 
L 253.342485 378.384045 
L 253.99479 377.381283 
L 254.647094 376.589954 
L 255.299399 375.965268 
L 255.951703 376.806723 
L 256.604008 373.749713 
L 257.256313 373.120672 
L 257.908617 372.490525 
L 258.560922 372.194826 
L 259.213226 371.300103 
L 259.865531 367.862865 
L 260.517836 366.947964 
L 261.17014 366.238263 
L 261.822445 364.172859 
L 262.474749 363.424417 
L 263.127054 362.91971 
L 263.779359 362.548894 
L 264.431663 361.874309 
L 265.083968 363.20769 
L 265.736273 362.295569 
L 266.388577 361.495721 
L 267.040882 360.694484 
L 267.693186 359.891857 
L 268.345491 359.411509 
L 268.997796 358.522962 
L 269.6501 356.775892 
L 270.302405 355.855079 
L 270.954709 354.983792 
L 271.607014 354.028564 
L 272.259319 354.234238 
L 272.911623 353.249408 
L 273.563928 352.605067 
L 274.216232 351.896004 
L 274.868537 351.281744 
L 275.520842 348.941523 
L 276.173146 348.648881 
L 276.825451 347.975909 
L 277.477756 347.320779 
L 278.13006 349.29373 
L 278.782365 348.900676 
L 279.434669 348.025285 
L 280.086974 346.779661 
L 280.739279 346.022745 
L 281.391583 345.308344 
L 282.043888 344.601619 
L 282.696192 343.818489 
L 283.348497 343.203162 
L 284.000802 341.993738 
L 284.653106 341.399363 
L 285.305411 340.857003 
L 285.957715 339.91642 
L 286.61002 339.217376 
L 287.262325 338.278981 
L 287.914629 337.680476 
L 288.566934 335.92704 
L 289.219238 334.671421 
L 289.871543 333.978274 
L 290.523848 333.431109 
L 291.176152 332.27242 
L 291.828457 332.78248 
L 292.480762 331.723645 
L 293.133066 330.963668 
L 293.785371 330.141433 
L 294.437675 333.504409 
L 295.08998 332.700823 
L 295.742285 332.179041 
L 296.394589 330.320563 
L 297.046894 330.402539 
L 297.699198 329.713362 
L 298.351503 329.129482 
L 299.003808 328.107332 
L 299.656112 327.110434 
L 300.308417 326.594784 
L 300.960721 325.87054 
L 301.613026 325.075907 
L 302.265331 324.625047 
L 302.917635 323.762103 
L 303.56994 323.007884 
L 304.222244 322.334262 
L 304.874549 320.707263 
L 305.526854 321.028605 
L 306.179158 318.856181 
L 306.831463 318.145017 
L 307.483768 320.353177 
L 308.136072 319.211053 
L 308.788377 318.416531 
L 309.440681 317.901825 
L 310.092986 317.087824 
L 310.745291 316.616691 
L 311.397595 315.749879 
L 312.0499 314.787961 
L 312.702204 314.051428 
L 313.354509 313.294459 
L 314.006814 313.150482 
L 314.659118 312.630389 
L 315.311423 311.844512 
L 315.963727 311.314452 
L 316.616032 310.532007 
L 317.268337 309.873273 
L 317.920641 308.027789 
L 318.572946 307.113953 
L 319.225251 306.402925 
L 319.877555 305.950978 
L 320.52986 305.22251 
L 321.182164 302.012478 
L 321.834469 299.796077 
L 322.486774 299.041689 
L 323.139078 298.069206 
L 323.791383 297.56684 
L 324.443687 296.861813 
L 325.095992 296.154996 
L 325.748297 295.446378 
L 326.400601 294.763642 
L 327.052906 294.100846 
L 327.70521 293.476077 
L 328.357515 292.673523 
L 329.00982 292.101744 
L 329.662124 291.584757 
L 330.314429 290.931552 
L 330.966733 290.295896 
L 331.619038 289.410731 
L 332.271343 288.384735 
L 332.923647 287.611852 
L 333.575952 286.3562 
L 334.228257 285.649224 
L 334.880561 284.761445 
L 335.532866 283.871524 
L 336.18517 283.390927 
L 336.837475 283.110753 
L 337.48978 279.899581 
L 338.142084 280.290191 
L 338.794389 279.389387 
L 339.446693 278.70912 
L 340.098998 278.201646 
L 340.751303 277.692452 
L 341.403607 275.780186 
L 342.055912 275.340744 
L 342.708216 274.579373 
L 343.360521 273.790656 
L 344.012826 273.012287 
L 344.66513 272.305957 
L 345.317435 271.72166 
L 345.969739 271.135375 
L 346.622044 270.568794 
L 347.274349 269.809448 
L 347.926653 268.568179 
L 348.578958 267.900359 
L 349.231263 269.217659 
L 349.883567 267.826089 
L 350.535872 267.046438 
L 351.188176 266.371016 
L 351.840481 265.826742 
L 352.492786 265.158535 
L 353.14509 263.858901 
L 353.797395 263.057922 
L 354.449699 262.254378 
L 355.102004 261.52317 
L 355.754309 261.28936 
L 356.406613 260.424985 
L 357.058918 259.014075 
L 357.711222 258.606472 
L 358.363527 257.706643 
L 359.015832 257.226521 
L 359.668136 256.540214 
L 360.320441 255.763526 
L 360.972745 255.086882 
L 361.62505 254.648579 
L 362.277355 253.85354 
L 362.929659 252.857518 
L 363.581964 251.957504 
L 364.234269 251.810421 
L 364.886573 250.625447 
L 365.538878 249.776906 
L 366.191182 248.958606 
L 366.843487 247.669626 
L 367.495792 246.633369 
L 368.148096 245.735787 
L 368.800401 245.193636 
L 369.452705 244.365037 
L 370.10501 243.63791 
L 370.757315 243.021355 
L 371.409619 242.142199 
L 372.061924 241.324883 
L 372.714228 240.675182 
L 373.366533 239.871061 
L 374.018838 239.25276 
L 374.671142 238.333966 
L 375.323447 237.531496 
L 375.975752 236.906449 
L 376.628056 237.337605 
L 377.280361 236.317627 
L 377.932665 235.454153 
L 378.58497 234.586892 
L 379.237275 230.329886 
L 379.889579 229.608117 
L 380.541884 228.362425 
L 381.194188 227.448689 
L 381.846493 229.249929 
L 382.498798 228.440454 
L 383.151102 227.232244 
L 383.803407 226.366862 
L 384.455711 225.556431 
L 385.108016 224.94086 
L 385.760321 221.700273 
L 386.412625 221.004651 
L 387.06493 223.665482 
L 387.717234 222.870348 
L 388.369539 222.001248 
L 389.021844 220.853316 
L 389.674148 220.218984 
L 390.326453 219.259332 
L 390.978758 218.234617 
L 391.631062 217.329335 
L 392.283367 215.567812 
L 392.935671 214.622227 
L 393.587976 213.47425 
L 394.240281 213.417823 
L 394.892585 211.984333 
L 395.54489 211.373958 
L 396.197194 210.283961 
L 396.849499 209.346147 
L 397.501804 208.674031 
L 398.154108 207.277378 
L 398.806413 206.911445 
L 399.458717 205.993223 
L 400.111022 204.92873 
L 400.763327 204.038929 
L 401.415631 201.408859 
L 402.067936 200.364618 
L 402.72024 199.457745 
L 403.372545 198.554139 
L 404.02485 197.855432 
L 404.677154 196.706833 
L 405.329459 195.826993 
L 405.981764 194.727568 
L 406.634068 193.714569 
L 407.286373 192.784038 
L 407.938677 191.727832 
L 408.590982 190.917571 
L 409.243287 189.39883 
L 409.895591 186.00201 
L 410.547896 184.981477 
L 411.2002 185.795832 
L 411.852505 184.690476 
L 412.50481 181.940815 
L 413.157114 180.969786 
L 413.809419 179.880535 
L 414.461723 178.98473 
L 415.114028 178.012215 
L 415.766333 177.239786 
L 416.418637 176.387833 
L 417.070942 174.722194 
L 417.723246 173.677654 
L 418.375551 172.135299 
L 419.027856 171.064148 
L 419.68016 170.128934 
L 420.332465 169.190876 
L 420.98477 168.114213 
L 421.637074 165.519052 
L 422.289379 164.160577 
L 422.941683 162.78964 
L 423.593988 161.417485 
L 424.246293 160.259925 
L 424.898597 159.136182 
L 425.550902 158.0998 
L 426.203206 156.849389 
L 426.855511 155.608317 
L 427.507816 153.064463 
L 428.16012 151.620436 
L 428.812425 150.160029 
L 429.464729 148.893743 
L 430.117034 147.677638 
L 430.769339 146.213296 
L 431.421643 144.871407 
L 432.073948 143.370303 
L 432.726253 141.795462 
L 433.378557 140.229741 
L 434.030862 138.759006 
L 434.683166 137.429019 
L 435.335471 135.46742 
L 435.987776 133.964389 
L 436.64008 132.434027 
L 437.292385 130.953452 
L 437.944689 129.629454 
L 438.596994 128.175542 
L 439.249299 126.385339 
L 439.901603 124.522433 
L 440.553908 122.704112 
L 441.206212 121.13394 
L 441.858517 119.910122 
L 442.510822 118.008679 
L 443.163126 115.95182 
L 443.815431 113.664904 
L 444.467735 111.752859 
L 445.12004 109.358221 
L 445.772345 107.176554 
L 446.424649 105.149583 
L 447.076954 102.55562 
L 447.729259 99.842627 
L 448.381563 97.231918 
L 449.033868 94.514435 
L 449.686172 91.940546 
L 450.338477 88.724348 
L 450.990782 85.4418 
L 451.643086 81.460136 
L 452.295391 77.080921 
L 452.947695 71.576111 
L 452.947695 60.482058 
L 452.947695 60.482058 
L 452.295391 60.488208 
L 451.643086 60.498453 
L 450.990782 60.525763 
L 450.338477 60.531276 
L 449.686172 60.553889 
L 449.033868 60.58066 
L 448.381563 60.611609 
L 447.729259 60.646756 
L 447.076954 60.686121 
L 446.424649 60.729726 
L 445.772345 60.777592 
L 445.12004 60.829739 
L 444.467735 60.975511 
L 443.815431 60.946963 
L 443.163126 61.324879 
L 442.510822 61.42384 
L 441.858517 61.665739 
L 441.206212 61.23374 
L 440.553908 61.316463 
L 439.901603 61.558358 
L 439.249299 61.993511 
L 438.596994 62.284683 
L 437.944689 62.421572 
L 437.292385 62.394322 
L 436.64008 62.537646 
L 435.987776 62.685804 
L 435.335471 62.838783 
L 434.683166 63.615305 
L 434.030862 63.817201 
L 433.378557 64.024991 
L 432.726253 64.238658 
L 432.073948 64.45819 
L 431.421643 64.683574 
L 430.769339 64.911442 
L 430.117034 65.151854 
L 429.464729 65.394728 
L 428.812425 65.643413 
L 428.16012 65.895519 
L 427.507816 66.158179 
L 426.855511 67.679306 
L 426.203206 68.09684 
L 425.550902 68.398348 
L 424.898597 68.491828 
L 424.246293 68.788408 
L 423.593988 69.097365 
L 422.941683 69.394369 
L 422.289379 69.976905 
L 421.637074 70.45886 
L 420.98477 72.094478 
L 420.332465 72.464764 
L 419.68016 72.790632 
L 419.027856 73.087424 
L 418.375551 73.450085 
L 417.723246 74.038749 
L 417.070942 74.425509 
L 416.418637 75.347142 
L 415.766333 75.49772 
L 415.114028 75.556619 
L 414.461723 75.934585 
L 413.809419 76.189411 
L 413.157114 76.612217 
L 412.50481 76.918006 
L 411.852505 79.044296 
L 411.2002 79.506832 
L 410.547896 78.268294 
L 409.895591 78.668053 
L 409.243287 81.457074 
L 408.590982 82.472338 
L 407.938677 82.881816 
L 407.286373 83.433646 
L 406.634068 83.919623 
L 405.981764 84.40912 
L 405.329459 85.127193 
L 404.677154 85.489764 
L 404.02485 86.201026 
L 403.372545 86.401897 
L 402.72024 86.90869 
L 402.067936 87.367465 
L 401.415631 87.932456 
L 400.763327 90.081465 
L 400.111022 90.700189 
L 399.458717 91.453194 
L 398.806413 92.014453 
L 398.154108 92.016989 
L 397.501804 93.184201 
L 396.849499 93.46161 
L 396.197194 94.037275 
L 395.54489 94.660628 
L 394.892585 94.955995 
L 394.240281 96.092903 
L 393.587976 95.793517 
L 392.935671 96.70928 
L 392.283367 97.363267 
L 391.631062 98.966832 
L 390.978758 99.575844 
L 390.326453 100.188096 
L 389.674148 100.960792 
L 389.021844 101.422249 
L 388.369539 102.172931 
L 387.717234 102.740428 
L 387.06493 103.24341 
L 386.412625 100.394995 
L 385.760321 100.846021 
L 385.108016 103.867613 
L 384.455711 104.434805 
L 383.803407 104.978602 
L 383.151102 105.575437 
L 382.498798 106.5475 
L 381.846493 107.197829 
L 381.194188 105.116561 
L 380.541884 105.691922 
L 379.889579 106.799446 
L 379.237275 107.446585 
L 378.58497 111.55246 
L 377.932665 112.224607 
L 377.280361 112.855365 
L 376.628056 113.763269 
L 375.975752 113.112735 
L 375.323447 113.784604 
L 374.671142 114.383099 
L 374.018838 115.369481 
L 373.366533 115.99114 
L 372.714228 116.817263 
L 372.061924 117.503743 
L 371.409619 118.193004 
L 370.757315 118.938408 
L 370.10501 119.579809 
L 369.452705 120.277325 
L 368.800401 120.977563 
L 368.148096 121.36461 
L 367.495792 122.070411 
L 366.843487 122.778936 
L 366.191182 123.915339 
L 365.538878 124.519092 
L 364.886573 125.235367 
L 364.234269 126.447184 
L 363.581964 126.361928 
L 362.929659 127.228294 
L 362.277355 128.126559 
L 361.62505 129.019478 
L 360.972745 129.330162 
L 360.320441 130.010909 
L 359.668136 130.703868 
L 359.015832 131.267547 
L 358.363527 131.831343 
L 357.711222 132.525733 
L 357.058918 132.885406 
L 356.406613 134.474343 
L 355.754309 135.227034 
L 355.102004 135.57292 
L 354.449699 136.276115 
L 353.797395 136.981182 
L 353.14509 137.688113 
L 352.492786 138.825205 
L 351.840481 139.339646 
L 351.188176 139.949607 
L 350.535872 140.560437 
L 349.883567 141.172133 
L 349.231263 142.512778 
L 348.578958 141.108959 
L 347.926653 141.733491 
L 347.274349 143.123778 
L 346.622044 143.918224 
L 345.969739 144.715238 
L 345.317435 145.477899 
L 344.66513 146.096375 
L 344.012826 146.638792 
L 343.360521 147.335813 
L 342.708216 147.956768 
L 342.055912 148.666877 
L 341.403607 149.20113 
L 340.751303 151.182061 
L 340.098998 151.618634 
L 339.446693 152.284949 
L 338.794389 152.888001 
L 338.142084 153.572779 
L 337.48978 152.953572 
L 336.837475 156.296526 
L 336.18517 156.689248 
L 335.532866 157.442712 
L 334.880561 158.268685 
L 334.228257 158.954396 
L 333.575952 159.587636 
L 332.923647 160.929487 
L 332.271343 161.618309 
L 331.619038 162.592896 
L 330.966733 163.565997 
L 330.314429 164.193132 
L 329.662124 164.806427 
L 329.00982 165.208367 
L 328.357515 165.833615 
L 327.70521 166.605529 
L 327.052906 167.1536 
L 326.400601 167.716239 
L 325.748297 168.344482 
L 325.095992 169.118141 
L 324.443687 169.774291 
L 323.791383 170.408811 
L 323.139078 170.862499 
L 322.486774 171.74201 
L 321.834469 172.405325 
L 321.182164 174.695797 
L 320.52986 178.054966 
L 319.877555 178.8716 
L 319.225251 179.428347 
L 318.572946 180.32038 
L 317.920641 181.19183 
L 317.268337 183.126076 
L 316.616032 183.975826 
L 315.963727 184.788037 
L 315.311423 185.414886 
L 314.659118 186.35677 
L 314.006814 187.086909 
L 313.354509 187.2773 
L 312.702204 188.124287 
L 312.0499 188.933819 
L 311.397595 189.822466 
L 310.745291 190.748114 
L 310.092986 191.472248 
L 309.440681 192.206133 
L 308.788377 192.653323 
L 308.136072 193.518429 
L 307.483768 194.426401 
L 306.831463 192.122388 
L 306.179158 192.85389 
L 305.526854 194.993482 
L 304.874549 194.829793 
L 304.222244 196.506807 
L 303.56994 197.278496 
L 302.917635 198.02443 
L 302.265331 198.73488 
L 301.613026 199.1965 
L 300.960721 200.037939 
L 300.308417 200.678845 
L 299.656112 201.077221 
L 299.003808 201.961351 
L 298.351503 203.150259 
L 297.699198 203.765277 
L 297.046894 204.2926 
L 296.394589 204.286073 
L 295.742285 206.044148 
L 295.08998 206.580478 
L 294.437675 207.368614 
L 293.785371 204.020428 
L 293.133066 204.888474 
L 292.480762 205.633217 
L 291.828457 206.714468 
L 291.176152 206.268022 
L 290.523848 207.654889 
L 289.871543 208.32946 
L 289.219238 208.798447 
L 288.566934 210.180471 
L 287.914629 211.995103 
L 287.262325 212.584789 
L 286.61002 213.61409 
L 285.957715 214.418804 
L 285.305411 215.358293 
L 284.653106 216.001365 
L 284.000802 216.663627 
L 283.348497 217.695305 
L 282.696192 218.506783 
L 282.043888 219.257644 
L 281.391583 219.879827 
L 280.739279 220.502136 
L 280.086974 221.12457 
L 279.434669 222.469598 
L 278.782365 223.197889 
L 278.13006 223.588947 
L 277.477756 221.467883 
L 276.825451 222.197365 
L 276.173146 222.9199 
L 275.520842 223.21075 
L 274.868537 225.570128 
L 274.216232 226.354289 
L 273.563928 227.096945 
L 272.911623 227.697652 
L 272.259319 228.446504 
L 271.607014 228.308146 
L 270.954709 229.273601 
L 270.302405 230.182626 
L 269.6501 231.025022 
L 268.997796 232.607396 
L 268.345491 233.564066 
L 267.693186 234.122694 
L 267.040882 235.028726 
L 266.388577 235.816239 
L 265.736273 236.567891 
L 265.083968 237.483911 
L 264.431663 236.100439 
L 263.779359 236.888909 
L 263.127054 237.351662 
L 262.474749 237.977459 
L 261.822445 238.599788 
L 261.17014 240.519975 
L 260.517836 241.299175 
L 259.865531 242.141177 
L 259.213226 245.627946 
L 258.560922 246.610056 
L 257.908617 246.825478 
L 257.256313 247.533435 
L 256.604008 248.315148 
L 255.951703 251.224572 
L 255.299399 250.629424 
L 254.647094 251.419179 
L 253.99479 252.061238 
L 253.342485 252.938987 
L 252.69018 255.697531 
L 252.037876 256.645451 
L 251.385571 257.386567 
L 250.733267 258.127939 
L 250.080962 258.806242 
L 249.428657 259.504059 
L 248.776353 260.20418 
L 248.124048 259.439886 
L 247.471743 260.132297 
L 246.819439 261.72846 
L 246.167134 262.371059 
L 245.51483 260.996266 
L 244.862525 261.782257 
L 244.21022 262.533404 
L 243.557916 262.373445 
L 242.905611 263.07879 
L 242.253307 263.904975 
L 241.601002 264.666954 
L 240.948697 265.142118 
L 240.296393 265.526563 
L 239.644088 265.735346 
L 238.991784 266.11049 
L 238.339479 266.167992 
L 237.687174 266.693499 
L 237.03487 267.437474 
L 236.382565 269.500642 
L 235.730261 269.911296 
L 235.077956 270.584831 
L 234.425651 272.410443 
L 233.773347 271.598364 
L 233.121042 272.509184 
L 232.468737 273.280222 
L 231.816433 273.916008 
L 231.164128 274.335831 
L 230.511824 274.96913 
L 229.859519 275.630339 
L 229.207214 276.195715 
L 228.55491 273.351554 
L 227.902605 273.754471 
L 227.250301 274.067902 
L 226.597996 274.612234 
L 225.945691 275.883212 
L 225.293387 275.433194 
L 224.641082 277.1496 
L 223.988778 277.768401 
L 223.336473 277.607841 
L 222.684168 278.333263 
L 222.031864 278.731771 
L 221.379559 279.162769 
L 220.727255 279.460616 
L 220.07495 279.758292 
L 219.422645 280.416806 
L 218.770341 282.372729 
L 218.118036 282.439937 
L 217.465731 283.174666 
L 216.813427 283.275279 
L 216.161122 283.933578 
L 215.508818 284.649583 
L 214.856513 284.97382 
L 214.204208 287.254758 
L 213.551904 287.576388 
L 212.899599 288.300088 
L 212.247295 288.998742 
L 211.59499 286.052487 
L 210.942685 290.53683 
L 210.290381 292.746188 
L 209.638076 293.394035 
L 208.985772 289.464265 
L 208.333467 295.087857 
L 207.681162 290.365699 
L 207.028858 295.752243 
L 206.376553 296.057621 
L 205.724248 296.280788 
L 205.071944 299.008408 
L 204.419639 299.542121 
L 203.767335 299.757892 
L 203.11503 295.758081 
L 202.462725 301.558147 
L 201.810421 302.173253 
L 201.158116 302.788403 
L 200.505812 303.255184 
L 199.853507 303.747488 
L 199.201202 304.400006 
L 198.548898 298.630478 
L 197.896593 299.133689 
L 197.244289 299.468598 
L 196.591984 300.436291 
L 195.939679 300.856756 
L 195.287375 304.457534 
L 194.63507 304.923698 
L 193.982766 305.876324 
L 193.330461 306.77382 
L 192.678156 307.254333 
L 192.025852 308.245138 
L 191.373547 308.716258 
L 190.721242 309.183715 
L 190.068938 308.684262 
L 189.416633 309.347305 
L 188.764329 309.895303 
L 188.112024 310.592937 
L 187.459719 311.17797 
L 186.807415 311.813304 
L 186.15511 312.348754 
L 185.502806 312.679581 
L 184.850501 314.293899 
L 184.198196 314.775651 
L 183.545892 314.514981 
L 182.893587 315.09852 
L 182.241283 315.882034 
L 181.588978 316.273483 
L 180.936673 317.151308 
L 180.284369 317.804938 
L 179.632064 318.446144 
L 178.97976 319.009442 
L 178.327455 319.728405 
L 177.67515 320.365486 
L 177.022846 320.977019 
L 176.370541 321.522193 
L 175.718236 321.825471 
L 175.065932 322.394106 
L 174.413627 322.630571 
L 173.761323 322.478951 
L 173.109018 323.435522 
L 172.456713 322.578244 
L 171.804409 323.353472 
L 171.152104 323.907808 
L 170.4998 326.977907 
L 169.847495 327.355931 
L 169.19519 325.373234 
L 168.542886 325.649597 
L 167.890581 328.376111 
L 167.238277 328.753199 
L 166.585972 329.019586 
L 165.933667 329.451595 
L 165.281363 329.800741 
L 164.629058 330.149854 
L 163.976754 330.498937 
L 163.324449 331.093387 
L 162.672144 331.553449 
L 162.01984 332.01353 
L 161.367535 332.473633 
L 160.71523 333.003628 
L 160.062926 333.393909 
L 159.410621 333.790735 
L 158.758317 334.280337 
L 158.106012 334.702095 
L 157.453707 335.123867 
L 156.801403 338.334346 
L 156.149098 338.714421 
L 155.496794 338.459553 
L 154.844489 339.003591 
L 154.192184 339.553486 
L 153.53988 340.054005 
L 152.887575 340.532901 
L 152.235271 341.676202 
L 151.582966 342.135236 
L 150.930661 342.568081 
L 150.278357 342.832366 
L 149.626052 341.480264 
L 148.973747 339.010714 
L 148.321443 338.344813 
L 147.669138 340.126258 
L 147.016834 340.635099 
L 146.364529 341.14404 
L 145.712224 341.558669 
L 145.05992 342.162224 
L 144.407615 342.776459 
L 143.755311 343.180823 
L 143.103006 343.623633 
L 142.450701 343.996838 
L 141.798397 344.461732 
L 141.146092 344.719633 
L 140.493788 345.055619 
L 139.841483 345.609222 
L 139.189178 346.166703 
L 138.536874 345.992109 
L 137.884569 346.650751 
L 137.232265 347.139963 
L 136.57996 347.863527 
L 135.927655 348.287931 
L 135.275351 348.712419 
L 134.623046 349.448709 
L 133.970741 349.886774 
L 133.318437 350.324933 
L 132.666132 350.763189 
L 132.013828 350.836172 
L 131.361523 353.658934 
L 130.709218 353.442556 
L 130.056914 353.904258 
L 129.404609 354.416315 
L 128.752305 354.928513 
L 128.1 355.440854 
z
" style="fill:#1f77b4;"/>
   </g>
   <g id="PolyCollection_2">
    <path clip-path="url(#pbf5bbd5297)" d="M 128.1 412.137359 
L 128.1 468.927579 
L 128.752305 468.118085 
L 129.404609 467.510746 
L 130.056914 466.626209 
L 130.709218 466.048219 
L 131.361523 465.314849 
L 132.013828 465.162073 
L 132.666132 464.489813 
L 133.318437 463.210874 
L 133.970741 462.613253 
L 134.623046 462.020621 
L 135.275351 461.584785 
L 135.927655 461.655078 
L 136.57996 460.966049 
L 137.232265 460.334561 
L 137.884569 457.700187 
L 138.536874 459.752694 
L 139.189178 458.906532 
L 139.841483 458.097165 
L 140.493788 457.467498 
L 141.146092 456.917467 
L 141.798397 452.58075 
L 142.450701 451.879355 
L 143.103006 451.431133 
L 143.755311 450.859542 
L 144.407615 455.369739 
L 145.05992 454.695846 
L 145.712224 453.96827 
L 146.364529 453.407866 
L 147.016834 452.493043 
L 147.669138 452.057311 
L 148.321443 451.36568 
L 148.973747 450.78864 
L 149.626052 450.223949 
L 150.278357 446.664296 
L 150.930661 446.379843 
L 151.582966 445.61187 
L 152.235271 444.903671 
L 152.887575 444.249768 
L 153.53988 443.840269 
L 154.192184 443.076811 
L 154.844489 442.147562 
L 155.496794 441.936655 
L 156.149098 441.380816 
L 156.801403 440.862097 
L 157.453707 440.322024 
L 158.106012 439.521707 
L 158.758317 438.972864 
L 159.410621 438.435933 
L 160.062926 429.600653 
L 160.71523 429.137117 
L 161.367535 430.987667 
L 162.01984 430.26901 
L 162.672144 430.142173 
L 163.324449 429.354241 
L 163.976754 429.37994 
L 164.629058 428.033719 
L 165.281363 427.415178 
L 165.933667 427.368767 
L 166.585972 426.053001 
L 167.238277 425.537997 
L 167.890581 425.377587 
L 168.542886 424.156347 
L 169.19519 423.409953 
L 169.847495 422.516632 
L 170.4998 420.855408 
L 171.152104 420.03193 
L 171.804409 419.76411 
L 172.456713 419.994012 
L 173.109018 419.329993 
L 173.761323 418.487245 
L 174.413627 417.712523 
L 175.065932 417.011422 
L 175.718236 418.629217 
L 176.370541 417.838653 
L 177.022846 417.397326 
L 177.67515 416.672347 
L 178.327455 415.570463 
L 178.97976 408.520433 
L 179.632064 407.293594 
L 180.284369 405.950592 
L 180.936673 405.413699 
L 181.588978 404.799185 
L 182.241283 403.953341 
L 182.893587 403.503273 
L 183.545892 403.024172 
L 184.198196 402.481976 
L 184.850501 401.628821 
L 185.502806 400.934326 
L 186.15511 400.481722 
L 186.807415 401.146126 
L 187.459719 400.707389 
L 188.112024 398.971998 
L 188.764329 398.731712 
L 189.416633 397.97401 
L 190.068938 397.140206 
L 190.721242 396.434682 
L 191.373547 395.817109 
L 192.025852 395.138995 
L 192.678156 394.571152 
L 193.330461 393.840822 
L 193.982766 393.104091 
L 194.63507 392.759554 
L 195.287375 392.276927 
L 195.939679 391.377812 
L 196.591984 390.633369 
L 197.244289 390.23378 
L 197.896593 390.202787 
L 198.548898 389.444155 
L 199.201202 388.414192 
L 199.853507 387.600471 
L 200.505812 386.355629 
L 201.158116 385.650656 
L 201.810421 385.791157 
L 202.462725 385.212555 
L 203.11503 384.923815 
L 203.767335 383.944719 
L 204.419639 383.474972 
L 205.071944 383.003778 
L 205.724248 385.38131 
L 206.376553 384.955976 
L 207.028858 383.961988 
L 207.681162 382.996331 
L 208.333467 382.064118 
L 208.985772 381.811816 
L 209.638076 380.618599 
L 210.290381 379.880006 
L 210.942685 379.12946 
L 211.59499 378.452065 
L 212.247295 377.84491 
L 212.899599 377.408104 
L 213.551904 376.708267 
L 214.204208 375.796068 
L 214.856513 375.177303 
L 215.508818 374.151761 
L 216.161122 373.376742 
L 216.813427 372.497522 
L 217.465731 371.939124 
L 218.118036 371.303525 
L 218.770341 370.139206 
L 219.422645 372.900733 
L 220.07495 372.263377 
L 220.727255 371.385293 
L 221.379559 370.660619 
L 222.031864 369.897602 
L 222.684168 363.132195 
L 223.336473 368.306279 
L 223.988778 361.633184 
L 224.641082 361.008307 
L 225.293387 360.391565 
L 225.945691 359.773498 
L 226.597996 359.619379 
L 227.250301 358.968589 
L 227.902605 358.452953 
L 228.55491 356.665071 
L 229.207214 357.18763 
L 229.859519 356.588384 
L 230.511824 355.592039 
L 231.164128 352.205168 
L 231.816433 354.378719 
L 232.468737 353.685264 
L 233.121042 353.173038 
L 233.773347 352.695677 
L 234.425651 349.291493 
L 235.077956 348.704095 
L 235.730261 348.14266 
L 236.382565 348.881746 
L 237.03487 347.540726 
L 237.687174 346.729376 
L 238.339479 346.540071 
L 238.991784 345.775831 
L 239.644088 345.016751 
L 240.296393 344.093144 
L 240.948697 343.511574 
L 241.601002 342.793953 
L 242.253307 342.269954 
L 242.905611 341.060596 
L 243.557916 339.914963 
L 244.21022 339.557794 
L 244.862525 338.727093 
L 245.51483 338.238793 
L 246.167134 337.606352 
L 246.819439 336.730039 
L 247.471743 336.340853 
L 248.124048 335.78509 
L 248.776353 334.935377 
L 249.428657 334.124513 
L 250.080962 333.204591 
L 250.733267 333.016872 
L 251.385571 332.622415 
L 252.037876 331.882647 
L 252.69018 329.879881 
L 253.342485 328.843644 
L 253.99479 327.812115 
L 254.647094 327.132251 
L 255.299399 325.841565 
L 255.951703 325.69312 
L 256.604008 325.216003 
L 257.256313 324.527643 
L 257.908617 323.689286 
L 258.560922 323.019869 
L 259.213226 322.349711 
L 259.865531 321.34984 
L 260.517836 320.874779 
L 261.17014 319.905499 
L 261.822445 319.146902 
L 262.474749 319.356867 
L 263.127054 317.667923 
L 263.779359 317.049877 
L 264.431663 316.730182 
L 265.083968 315.8552 
L 265.736273 315.444137 
L 266.388577 314.940799 
L 267.040882 314.377195 
L 267.693186 313.569019 
L 268.345491 312.787464 
L 268.997796 312.209673 
L 269.6501 311.228466 
L 270.302405 309.580638 
L 270.954709 308.939337 
L 271.607014 307.714648 
L 272.259319 307.568518 
L 272.911623 306.331301 
L 273.563928 305.477039 
L 274.216232 304.764862 
L 274.868537 303.882586 
L 275.520842 303.018647 
L 276.173146 302.369553 
L 276.825451 301.881942 
L 277.477756 301.072695 
L 278.13006 300.484014 
L 278.782365 298.605627 
L 279.434669 297.165236 
L 280.086974 296.306155 
L 280.739279 295.778281 
L 281.391583 295.068253 
L 282.043888 294.392981 
L 282.696192 293.507982 
L 283.348497 292.747109 
L 284.000802 291.967936 
L 284.653106 291.344565 
L 285.305411 290.580177 
L 285.957715 289.76196 
L 286.61002 298.520698 
L 287.262325 288.824168 
L 287.914629 292.321394 
L 288.566934 291.702353 
L 289.219238 296.590678 
L 289.871543 290.102072 
L 290.523848 294.415208 
L 291.176152 289.876895 
L 291.828457 288.915677 
L 292.480762 287.895626 
L 293.133066 286.859328 
L 293.785371 286.35096 
L 294.437675 285.254384 
L 295.08998 284.710382 
L 295.742285 283.858322 
L 296.394589 283.054396 
L 297.046894 282.551493 
L 297.699198 282.09435 
L 298.351503 281.019864 
L 299.003808 282.470852 
L 299.656112 281.670407 
L 300.308417 278.887633 
L 300.960721 281.346035 
L 301.613026 280.399069 
L 302.265331 279.512802 
L 302.917635 279.834803 
L 303.56994 278.995196 
L 304.222244 277.123391 
L 304.874549 276.159333 
L 305.526854 275.318572 
L 306.179158 273.950639 
L 306.831463 274.292588 
L 307.483768 272.26671 
L 308.136072 271.975324 
L 308.788377 270.022004 
L 309.440681 270.443318 
L 310.092986 269.612316 
L 310.745291 269.785381 
L 311.397595 269.020508 
L 312.0499 268.395111 
L 312.702204 267.584445 
L 313.354509 266.864782 
L 314.006814 266.502382 
L 314.659118 265.771762 
L 315.311423 265.223468 
L 315.963727 264.431115 
L 316.616032 263.728745 
L 317.268337 263.039403 
L 317.920641 262.267671 
L 318.572946 264.627608 
L 319.225251 261.030961 
L 319.877555 263.290868 
L 320.52986 261.664308 
L 321.182164 261.080823 
L 321.834469 260.643099 
L 322.486774 259.81957 
L 323.139078 259.096849 
L 323.791383 258.309537 
L 324.443687 256.229955 
L 325.095992 255.442089 
L 325.748297 254.77478 
L 326.400601 255.166304 
L 327.052906 254.500648 
L 327.70521 253.658123 
L 328.357515 252.141531 
L 329.00982 251.25668 
L 329.662124 250.199448 
L 330.314429 249.45194 
L 330.966733 249.457555 
L 331.619038 248.591313 
L 332.271343 248.040345 
L 332.923647 247.373345 
L 333.575952 245.906695 
L 334.228257 245.104919 
L 334.880561 244.411593 
L 335.532866 243.464055 
L 336.18517 242.645096 
L 336.837475 241.454018 
L 337.48978 240.549641 
L 338.142084 242.127138 
L 338.794389 241.451179 
L 339.446693 240.531971 
L 340.098998 237.630046 
L 340.751303 237.680505 
L 341.403607 236.941545 
L 342.055912 236.409112 
L 342.708216 234.75167 
L 343.360521 233.944989 
L 344.012826 232.671999 
L 344.66513 231.99254 
L 345.317435 230.797116 
L 345.969739 230.179736 
L 346.622044 229.52555 
L 347.274349 226.450411 
L 347.926653 227.861284 
L 348.578958 226.848155 
L 349.231263 225.774039 
L 349.883567 223.956507 
L 350.535872 223.079421 
L 351.188176 222.375433 
L 351.840481 222.354933 
L 352.492786 221.6596 
L 353.14509 220.969869 
L 353.797395 220.37517 
L 354.449699 219.759637 
L 355.102004 218.939582 
L 355.754309 217.862141 
L 356.406613 217.035937 
L 357.058918 216.16303 
L 357.711222 215.573506 
L 358.363527 214.49105 
L 359.015832 213.626974 
L 359.668136 213.257205 
L 360.320441 212.984064 
L 360.972745 212.111741 
L 361.62505 210.89386 
L 362.277355 210.146116 
L 362.929659 209.657656 
L 363.581964 208.721601 
L 364.234269 208.130645 
L 364.886573 207.791412 
L 365.538878 206.869013 
L 366.191182 206.017219 
L 366.843487 204.417487 
L 367.495792 204.332663 
L 368.148096 203.60296 
L 368.800401 202.324289 
L 369.452705 201.421905 
L 370.10501 200.61753 
L 370.757315 199.894618 
L 371.409619 199.014284 
L 372.061924 198.178809 
L 372.714228 197.483067 
L 373.366533 196.98778 
L 374.018838 195.527157 
L 374.671142 194.751461 
L 375.323447 193.944261 
L 375.975752 193.361144 
L 376.628056 192.294789 
L 377.280361 191.481162 
L 377.932665 190.734749 
L 378.58497 190.036015 
L 379.237275 189.11428 
L 379.889579 188.34739 
L 380.541884 186.022515 
L 381.194188 185.36484 
L 381.846493 184.592763 
L 382.498798 183.647186 
L 383.151102 182.808555 
L 383.803407 181.920223 
L 384.455711 181.308724 
L 385.108016 180.418462 
L 385.760321 179.68566 
L 386.412625 179.022506 
L 387.06493 176.649148 
L 387.717234 175.54386 
L 388.369539 174.834372 
L 389.021844 173.989112 
L 389.674148 173.15394 
L 390.326453 172.025766 
L 390.978758 171.325675 
L 391.631062 170.302087 
L 392.283367 169.464593 
L 392.935671 168.803871 
L 393.587976 167.882622 
L 394.240281 164.894683 
L 394.892585 163.988742 
L 395.54489 163.154293 
L 396.197194 162.326816 
L 396.849499 161.291743 
L 397.501804 160.536469 
L 398.154108 159.676974 
L 398.806413 158.830688 
L 399.458717 157.409638 
L 400.111022 156.499358 
L 400.763327 156.431648 
L 401.415631 155.388592 
L 402.067936 154.405513 
L 402.72024 152.308461 
L 403.372545 150.953454 
L 404.02485 150.023897 
L 404.677154 149.20199 
L 405.329459 148.029488 
L 405.981764 147.046886 
L 406.634068 146.215398 
L 407.286373 145.762316 
L 407.938677 144.737834 
L 408.590982 143.776464 
L 409.243287 142.080498 
L 409.895591 141.345751 
L 410.547896 138.265093 
L 411.2002 138.868782 
L 411.852505 137.871634 
L 412.50481 133.780982 
L 413.157114 132.931869 
L 413.809419 131.943436 
L 414.461723 131.141846 
L 415.114028 130.149046 
L 415.766333 129.14021 
L 416.418637 128.030829 
L 417.070942 126.901809 
L 417.723246 125.872332 
L 418.375551 124.450598 
L 419.027856 124.085985 
L 419.68016 122.558807 
L 420.332465 121.840367 
L 420.98477 120.772521 
L 421.637074 118.926119 
L 422.289379 118.549221 
L 422.941683 116.831387 
L 423.593988 115.731398 
L 424.246293 114.819206 
L 424.898597 113.805145 
L 425.550902 113.289228 
L 426.203206 108.636981 
L 426.855511 107.6468 
L 427.507816 106.633732 
L 428.16012 105.644985 
L 428.812425 102.321564 
L 429.464729 103.627547 
L 430.117034 101.047962 
L 430.769339 99.277739 
L 431.421643 98.313118 
L 432.073948 97.585807 
L 432.726253 96.468838 
L 433.378557 95.853711 
L 434.030862 94.84617 
L 434.683166 93.735438 
L 435.335471 92.64779 
L 435.987776 91.688275 
L 436.64008 90.154055 
L 437.292385 88.745878 
L 437.944689 88.050425 
L 438.596994 86.75593 
L 439.249299 86.004201 
L 439.901603 84.748193 
L 440.553908 83.559791 
L 441.206212 82.015531 
L 441.858517 81.528604 
L 442.510822 80.435277 
L 443.163126 78.6389 
L 443.815431 77.600556 
L 444.467735 76.449274 
L 445.12004 75.400429 
L 445.772345 74.159374 
L 446.424649 73.099589 
L 447.076954 71.658914 
L 447.729259 70.553955 
L 448.381563 69.492154 
L 449.033868 68.414904 
L 449.686172 67.324782 
L 450.338477 66.176183 
L 450.990782 65.06479 
L 451.643086 63.977319 
L 452.295391 62.785444 
L 452.947695 61.66355 
L 452.947695 60.492033 
L 452.947695 60.492033 
L 452.295391 60.529517 
L 451.643086 60.666362 
L 450.990782 60.752005 
L 450.338477 60.882484 
L 449.686172 61.074463 
L 449.033868 61.232172 
L 448.381563 61.386901 
L 447.729259 61.570763 
L 447.076954 61.792016 
L 446.424649 62.432401 
L 445.772345 62.656159 
L 445.12004 63.09572 
L 444.467735 63.365909 
L 443.815431 63.770784 
L 443.163126 64.105638 
L 442.510822 65.149762 
L 441.858517 65.532805 
L 441.206212 65.30158 
L 440.553908 66.179829 
L 439.901603 66.716683 
L 439.249299 67.335423 
L 438.596994 67.457647 
L 437.944689 68.113812 
L 437.292385 68.220121 
L 436.64008 69.031659 
L 435.987776 69.96409 
L 435.335471 70.383088 
L 434.683166 70.917639 
L 434.030862 71.467061 
L 433.378557 71.889331 
L 432.726253 71.937977 
L 432.073948 72.539758 
L 431.421643 72.716948 
L 430.769339 73.163664 
L 430.117034 74.431935 
L 429.464729 76.503125 
L 428.812425 74.725427 
L 428.16012 77.625413 
L 427.507816 78.132598 
L 426.855511 78.695218 
L 426.203206 79.171343 
L 425.550902 83.418444 
L 424.898597 83.59012 
L 424.246293 84.243058 
L 423.593988 84.749468 
L 422.941683 85.473136 
L 422.289379 86.849378 
L 421.637074 86.856323 
L 420.98477 88.331977 
L 420.332465 89.097789 
L 419.68016 89.478521 
L 419.027856 90.723904 
L 418.375551 90.768557 
L 417.723246 91.966986 
L 417.070942 92.677405 
L 416.418637 93.448004 
L 415.766333 94.24573 
L 415.114028 94.970542 
L 414.461723 95.667794 
L 413.809419 96.207139 
L 413.157114 96.880313 
L 412.50481 97.473648 
L 411.852505 101.321481 
L 411.2002 102.153366 
L 410.547896 101.280099 
L 409.895591 104.116345 
L 409.243287 104.670393 
L 408.590982 106.10731 
L 407.938677 106.89235 
L 407.286373 107.694347 
L 406.634068 107.907569 
L 405.981764 108.563787 
L 405.329459 109.386942 
L 404.677154 110.377869 
L 404.02485 111.033534 
L 403.372545 111.675999 
L 402.72024 112.879857 
L 402.067936 114.819222 
L 401.415631 115.613041 
L 400.763327 116.562394 
L 400.111022 116.488503 
L 399.458717 117.283023 
L 398.806413 118.585767 
L 398.154108 119.430714 
L 397.501804 120.159743 
L 396.849499 120.760846 
L 396.197194 121.624359 
L 395.54489 122.298909 
L 394.892585 123.004938 
L 394.240281 123.722669 
L 393.587976 126.573868 
L 392.935671 127.463631 
L 392.283367 128.109376 
L 391.631062 128.857778 
L 390.978758 129.726123 
L 390.326453 130.392758 
L 389.674148 131.334844 
L 389.021844 132.098524 
L 388.369539 132.86198 
L 387.717234 133.453107 
L 387.06493 134.53223 
L 386.412625 136.754733 
L 385.760321 137.331174 
L 385.108016 138.150141 
L 384.455711 138.998938 
L 383.803407 139.492402 
L 383.151102 140.427039 
L 382.498798 141.191212 
L 381.846493 142.082299 
L 381.194188 142.70185 
L 380.541884 143.314864 
L 379.889579 145.580496 
L 379.237275 146.329347 
L 378.58497 147.17437 
L 377.932665 147.90168 
L 377.280361 148.625677 
L 376.628056 149.433991 
L 375.975752 150.433301 
L 375.323447 151.004669 
L 374.671142 151.792205 
L 374.018838 152.551427 
L 373.366533 153.986383 
L 372.714228 154.580331 
L 372.061924 155.233802 
L 371.409619 156.043696 
L 370.757315 156.844361 
L 370.10501 157.545018 
L 369.452705 158.305935 
L 368.800401 159.112871 
L 368.148096 160.268867 
L 367.495792 160.999131 
L 366.843487 161.023129 
L 366.191182 162.59777 
L 365.538878 163.451405 
L 364.886573 164.325455 
L 364.234269 164.616447 
L 363.581964 165.174745 
L 362.929659 166.004031 
L 362.277355 166.479162 
L 361.62505 167.162704 
L 360.972745 168.386344 
L 360.320441 169.204624 
L 359.668136 169.412301 
L 359.015832 169.785925 
L 358.363527 170.656365 
L 357.711222 171.716284 
L 357.058918 172.286105 
L 356.406613 173.155918 
L 355.754309 173.909086 
L 355.102004 174.985515 
L 354.449699 175.877507 
L 353.797395 176.480667 
L 353.14509 177.102971 
L 352.492786 177.737561 
L 351.840481 178.439306 
L 351.188176 178.506755 
L 350.535872 179.185973 
L 349.883567 180.047023 
L 349.231263 181.838643 
L 348.578958 182.857489 
L 347.926653 183.806018 
L 347.274349 182.529266 
L 346.622044 185.601474 
L 345.969739 186.292538 
L 345.317435 186.922832 
L 344.66513 188.130378 
L 344.012826 188.856814 
L 343.360521 190.144811 
L 342.708216 190.898138 
L 342.055912 192.541904 
L 341.403607 193.129443 
L 340.751303 193.845797 
L 340.098998 193.831626 
L 339.446693 196.762983 
L 338.794389 197.712225 
L 338.142084 198.419461 
L 337.48978 196.882648 
L 336.837475 197.788683 
L 336.18517 199.013671 
L 335.532866 200.004425 
L 334.880561 200.914773 
L 334.228257 201.626652 
L 333.575952 202.438041 
L 332.923647 203.925083 
L 332.271343 204.578208 
L 331.619038 205.157602 
L 330.966733 206.029229 
L 330.314429 206.073827 
L 329.662124 206.928731 
L 329.00982 207.97054 
L 328.357515 208.911406 
L 327.70521 210.437378 
L 327.052906 211.287351 
L 326.400601 211.991022 
L 325.748297 211.582739 
L 325.095992 212.371537 
L 324.443687 213.154369 
L 323.791383 215.211223 
L 323.139078 216.053814 
L 322.486774 216.790903 
L 321.834469 217.628872 
L 321.182164 217.984659 
L 320.52986 218.544279 
L 319.877555 220.16253 
L 319.225251 217.945121 
L 318.572946 221.61915 
L 317.920641 219.271427 
L 317.268337 220.053347 
L 316.616032 220.792975 
L 315.963727 221.612142 
L 315.311423 222.386763 
L 314.659118 223.002012 
L 314.006814 223.767978 
L 313.354509 224.193365 
L 312.702204 224.985256 
L 312.0499 225.786524 
L 311.397595 226.276147 
L 310.745291 227.028866 
L 310.092986 226.779137 
L 309.440681 227.591205 
L 308.788377 227.175365 
L 308.136072 229.102189 
L 307.483768 229.347562 
L 306.831463 231.307371 
L 306.179158 230.958622 
L 305.526854 232.312027 
L 304.874549 233.154096 
L 304.222244 234.171502 
L 303.56994 236.115561 
L 302.917635 236.908825 
L 302.265331 236.615563 
L 301.613026 237.493262 
L 300.960721 238.374279 
L 300.308417 235.834722 
L 299.656112 238.691811 
L 299.003808 239.516222 
L 298.351503 238.026334 
L 297.699198 239.198171 
L 297.046894 239.765601 
L 296.394589 240.350985 
L 295.742285 241.187076 
L 295.08998 242.075535 
L 294.437675 242.590568 
L 293.785371 243.6147 
L 293.133066 244.134434 
L 292.480762 245.130168 
L 291.828457 246.123428 
L 291.176152 246.950313 
L 290.523848 251.517094 
L 289.871543 247.214562 
L 289.219238 253.744416 
L 288.566934 248.99633 
L 287.914629 249.567052 
L 287.262325 245.988078 
L 286.61002 255.693695 
L 285.957715 246.949072 
L 285.305411 247.815662 
L 284.653106 248.57178 
L 284.000802 249.216011 
L 283.348497 250.031565 
L 282.696192 250.839507 
L 282.043888 251.770323 
L 281.391583 252.493401 
L 280.739279 253.106257 
L 280.086974 253.652003 
L 279.434669 254.393102 
L 278.782365 255.72452 
L 278.13006 257.739156 
L 277.477756 258.321197 
L 276.825451 259.095841 
L 276.173146 259.568258 
L 275.520842 260.254444 
L 274.868537 261.117027 
L 274.216232 262.064429 
L 273.563928 262.833379 
L 272.911623 263.601447 
L 272.259319 264.788534 
L 271.607014 264.936053 
L 270.954709 266.194649 
L 270.302405 266.870504 
L 269.6501 268.600901 
L 268.997796 269.59598 
L 268.345491 270.277424 
L 267.693186 271.080619 
L 267.040882 271.950809 
L 266.388577 272.479425 
L 265.736273 272.918818 
L 265.083968 273.300748 
L 264.431663 274.089074 
L 263.779359 274.300279 
L 263.127054 274.915386 
L 262.474749 276.582026 
L 261.822445 276.343989 
L 261.17014 277.083804 
L 260.517836 278.074995 
L 259.865531 278.549469 
L 259.213226 279.577187 
L 258.560922 280.345607 
L 257.908617 281.100445 
L 257.256313 281.855094 
L 256.604008 282.541772 
L 255.951703 282.962232 
L 255.299399 283.149271 
L 254.647094 284.35747 
L 253.99479 285.048708 
L 253.342485 286.081452 
L 252.69018 287.128 
L 252.037876 289.06226 
L 251.385571 289.831283 
L 250.733267 290.273805 
L 250.080962 290.462924 
L 249.428657 291.499904 
L 248.776353 292.227392 
L 248.124048 293.081785 
L 247.471743 293.566789 
L 246.819439 293.902531 
L 246.167134 294.82957 
L 245.51483 295.383093 
L 244.862525 295.81127 
L 244.21022 296.548916 
L 243.557916 296.881726 
L 242.905611 298.051233 
L 242.253307 299.244545 
L 241.601002 299.837783 
L 240.948697 300.511912 
L 240.296393 301.075168 
L 239.644088 301.946526 
L 238.991784 302.618379 
L 238.339479 303.272102 
L 237.687174 303.439054 
L 237.03487 304.054506 
L 236.382565 305.280829 
L 235.730261 304.444398 
L 235.077956 305.015144 
L 234.425651 305.613054 
L 233.773347 308.884143 
L 233.121042 309.297672 
L 232.468737 309.743484 
L 231.816433 310.350536 
L 231.164128 308.113555 
L 230.511824 311.394674 
L 229.859519 312.26598 
L 229.207214 312.775543 
L 228.55491 312.181351 
L 227.902605 313.859636 
L 227.250301 314.316636 
L 226.597996 314.976546 
L 225.945691 315.020223 
L 225.293387 315.5574 
L 224.641082 316.17522 
L 223.988778 316.658666 
L 223.336473 323.273782 
L 222.684168 318.010177 
L 222.031864 324.770607 
L 221.379559 325.453671 
L 220.727255 326.071567 
L 220.07495 326.876035 
L 219.422645 327.398689 
L 218.770341 324.523533 
L 218.118036 325.706906 
L 217.465731 326.406012 
L 216.813427 326.941105 
L 216.161122 327.835642 
L 215.508818 328.484828 
L 214.856513 329.489429 
L 214.204208 330.012214 
L 213.551904 330.851879 
L 212.899599 331.45357 
L 212.247295 331.791629 
L 211.59499 332.405477 
L 210.942685 332.963519 
L 210.290381 333.68073 
L 209.638076 334.207215 
L 208.985772 335.286345 
L 208.333467 335.374466 
L 207.681162 336.255762 
L 207.028858 337.176075 
L 206.376553 338.099332 
L 205.724248 338.349295 
L 205.071944 335.984473 
L 204.419639 336.451949 
L 203.767335 336.915264 
L 203.11503 337.825406 
L 202.462725 338.024463 
L 201.810421 338.501676 
L 201.158116 338.438969 
L 200.505812 339.099873 
L 199.853507 340.173038 
L 199.201202 340.994111 
L 198.548898 341.911437 
L 197.896593 342.570983 
L 197.244289 342.502745 
L 196.591984 342.747563 
L 195.939679 343.393136 
L 195.287375 344.201829 
L 194.63507 344.654225 
L 193.982766 344.97508 
L 193.330461 345.728465 
L 192.678156 346.375413 
L 192.025852 346.802356 
L 191.373547 347.387667 
L 190.721242 347.902137 
L 190.068938 348.571834 
L 189.416633 349.223527 
L 188.764329 349.864689 
L 188.112024 349.936462 
L 187.459719 351.560469 
L 186.807415 351.914549 
L 186.15511 351.277484 
L 185.502806 351.664784 
L 184.850501 352.339705 
L 184.198196 352.990301 
L 183.545892 353.457279 
L 182.893587 353.927782 
L 182.241283 354.245558 
L 181.588978 354.952859 
L 180.936673 355.460993 
L 180.284369 355.820646 
L 179.632064 356.957632 
L 178.97976 358.114605 
L 178.327455 365.004593 
L 177.67515 366.091996 
L 177.022846 366.753693 
L 176.370541 367.136412 
L 175.718236 367.793207 
L 175.065932 366.117814 
L 174.413627 366.778304 
L 173.761323 367.424528 
L 173.109018 368.240061 
L 172.456713 368.825073 
L 171.804409 368.568581 
L 171.152104 368.782889 
L 170.4998 369.548197 
L 169.847495 371.137361 
L 169.19519 371.997311 
L 168.542886 372.670867 
L 167.890581 373.824677 
L 167.238277 373.960149 
L 166.585972 374.394192 
L 165.933667 375.580248 
L 165.281363 375.523933 
L 164.629058 376.034554 
L 163.976754 377.206927 
L 163.324449 377.042231 
L 162.672144 377.569848 
L 162.01984 377.622034 
L 161.367535 378.173109 
L 160.71523 376.262995 
L 160.062926 376.654459 
L 159.410621 385.410713 
L 158.758317 385.845493 
L 158.106012 386.399118 
L 157.453707 387.072116 
L 156.801403 387.564688 
L 156.149098 388.109655 
L 155.496794 388.565664 
L 154.844489 388.697405 
L 154.192184 389.572477 
L 153.53988 390.25194 
L 152.887575 390.580334 
L 152.235271 391.122444 
L 151.582966 391.678252 
L 150.930661 392.186688 
L 150.278357 392.313611 
L 149.626052 395.82476 
L 148.973747 396.377238 
L 148.321443 396.980436 
L 147.669138 397.565602 
L 147.016834 397.910575 
L 146.364529 398.700205 
L 145.712224 399.260227 
L 145.05992 400.003054 
L 144.407615 400.518579 
L 143.755311 395.908844 
L 143.103006 396.444699 
L 142.450701 396.737815 
L 141.798397 397.336145 
L 141.146092 401.595579 
L 140.493788 402.094589 
L 139.841483 402.656019 
L 139.189178 403.35215 
L 138.536874 404.118022 
L 137.884569 401.992782 
L 137.232265 404.561501 
L 136.57996 405.077739 
L 135.927655 405.668683 
L 135.275351 405.476565 
L 134.623046 405.904077 
L 133.970741 406.386118 
L 133.318437 407.022806 
L 132.666132 408.105733 
L 132.013828 408.743575 
L 131.361523 408.769632 
L 130.709218 409.554674 
L 130.056914 409.932568 
L 129.404609 410.875653 
L 128.752305 411.361049 
L 128.1 412.137359 
z
" style="fill:#ff7f0e;"/>
   </g>
   <g id="matplotlib.axis_1">
    <g id="xtick_1">
     <g id="line2d_1">
      <defs>
       <path d="M 0 0 
L 0 3.5 
" id="m9f147fc0e4" style="stroke:#000000;stroke-width:0.8;"/>
      </defs>
      <g>
       <use style="stroke:#000000;stroke-width:0.8;" x="63" xlink:href="#m9f147fc0e4" y="448.56"/>
      </g>
     </g>
     <g id="text_1">
      <!-- 0.4 -->
      <g transform="translate(55.048437 463.158437)scale(0.1 -0.1)">
       <defs>
        <path d="M 31.78125 66.40625 
Q 24.171875 66.40625 20.328125 58.90625 
Q 16.5 51.421875 16.5 36.375 
Q 16.5 21.390625 20.328125 13.890625 
Q 24.171875 6.390625 31.78125 6.390625 
Q 39.453125 6.390625 43.28125 13.890625 
Q 47.125 21.390625 47.125 36.375 
Q 47.125 51.421875 43.28125 58.90625 
Q 39.453125 66.40625 31.78125 66.40625 
z
M 31.78125 74.21875 
Q 44.046875 74.21875 50.515625 64.515625 
Q 56.984375 54.828125 56.984375 36.375 
Q 56.984375 17.96875 50.515625 8.265625 
Q 44.046875 -1.421875 31.78125 -1.421875 
Q 19.53125 -1.421875 13.0625 8.265625 
Q 6.59375 17.96875 6.59375 36.375 
Q 6.59375 54.828125 13.0625 64.515625 
Q 19.53125 74.21875 31.78125 74.21875 
z
" id="DejaVuSans-48"/>
        <path d="M 10.6875 12.40625 
L 21 12.40625 
L 21 0 
L 10.6875 0 
z
" id="DejaVuSans-46"/>
        <path d="M 37.796875 64.3125 
L 12.890625 25.390625 
L 37.796875 25.390625 
z
M 35.203125 72.90625 
L 47.609375 72.90625 
L 47.609375 25.390625 
L 58.015625 25.390625 
L 58.015625 17.1875 
L 47.609375 17.1875 
L 47.609375 0 
L 37.796875 0 
L 37.796875 17.1875 
L 4.890625 17.1875 
L 4.890625 26.703125 
z
" id="DejaVuSans-52"/>
       </defs>
       <use xlink:href="#DejaVuSans-48"/>
       <use x="63.623047" xlink:href="#DejaVuSans-46"/>
       <use x="95.410156" xlink:href="#DejaVuSans-52"/>
      </g>
     </g>
    </g>
    <g id="xtick_2">
     <g id="line2d_2">
      <g>
       <use style="stroke:#000000;stroke-width:0.8;" x="128.1" xlink:href="#m9f147fc0e4" y="448.56"/>
      </g>
     </g>
     <g id="text_2">
      <!-- 0.5 -->
      <g transform="translate(120.148438 463.158437)scale(0.1 -0.1)">
       <defs>
        <path d="M 10.796875 72.90625 
L 49.515625 72.90625 
L 49.515625 64.59375 
L 19.828125 64.59375 
L 19.828125 46.734375 
Q 21.96875 47.46875 24.109375 47.828125 
Q 26.265625 48.1875 28.421875 48.1875 
Q 40.625 48.1875 47.75 41.5 
Q 54.890625 34.8125 54.890625 23.390625 
Q 54.890625 11.625 47.5625 5.09375 
Q 40.234375 -1.421875 26.90625 -1.421875 
Q 22.3125 -1.421875 17.546875 -0.640625 
Q 12.796875 0.140625 7.71875 1.703125 
L 7.71875 11.625 
Q 12.109375 9.234375 16.796875 8.0625 
Q 21.484375 6.890625 26.703125 6.890625 
Q 35.15625 6.890625 40.078125 11.328125 
Q 45.015625 15.765625 45.015625 23.390625 
Q 45.015625 31 40.078125 35.4375 
Q 35.15625 39.890625 26.703125 39.890625 
Q 22.75 39.890625 18.8125 39.015625 
Q 14.890625 38.140625 10.796875 36.28125 
z
" id="DejaVuSans-53"/>
       </defs>
       <use xlink:href="#DejaVuSans-48"/>
       <use x="63.623047" xlink:href="#DejaVuSans-46"/>
       <use x="95.410156" xlink:href="#DejaVuSans-53"/>
      </g>
     </g>
    </g>
    <g id="xtick_3">
     <g id="line2d_3">
      <g>
       <use style="stroke:#000000;stroke-width:0.8;" x="193.2" xlink:href="#m9f147fc0e4" y="448.56"/>
      </g>
     </g>
     <g id="text_3">
      <!-- 0.6 -->
      <g transform="translate(185.248438 463.158437)scale(0.1 -0.1)">
       <defs>
        <path d="M 33.015625 40.375 
Q 26.375 40.375 22.484375 35.828125 
Q 18.609375 31.296875 18.609375 23.390625 
Q 18.609375 15.53125 22.484375 10.953125 
Q 26.375 6.390625 33.015625 6.390625 
Q 39.65625 6.390625 43.53125 10.953125 
Q 47.40625 15.53125 47.40625 23.390625 
Q 47.40625 31.296875 43.53125 35.828125 
Q 39.65625 40.375 33.015625 40.375 
z
M 52.59375 71.296875 
L 52.59375 62.3125 
Q 48.875 64.0625 45.09375 64.984375 
Q 41.3125 65.921875 37.59375 65.921875 
Q 27.828125 65.921875 22.671875 59.328125 
Q 17.53125 52.734375 16.796875 39.40625 
Q 19.671875 43.65625 24.015625 45.921875 
Q 28.375 48.1875 33.59375 48.1875 
Q 44.578125 48.1875 50.953125 41.515625 
Q 57.328125 34.859375 57.328125 23.390625 
Q 57.328125 12.15625 50.6875 5.359375 
Q 44.046875 -1.421875 33.015625 -1.421875 
Q 20.359375 -1.421875 13.671875 8.265625 
Q 6.984375 17.96875 6.984375 36.375 
Q 6.984375 53.65625 15.1875 63.9375 
Q 23.390625 74.21875 37.203125 74.21875 
Q 40.921875 74.21875 44.703125 73.484375 
Q 48.484375 72.75 52.59375 71.296875 
z
" id="DejaVuSans-54"/>
       </defs>
       <use xlink:href="#DejaVuSans-48"/>
       <use x="63.623047" xlink:href="#DejaVuSans-46"/>
       <use x="95.410156" xlink:href="#DejaVuSans-54"/>
      </g>
     </g>
    </g>
    <g id="xtick_4">
     <g id="line2d_4">
      <g>
       <use style="stroke:#000000;stroke-width:0.8;" x="258.3" xlink:href="#m9f147fc0e4" y="448.56"/>
      </g>
     </g>
     <g id="text_4">
      <!-- 0.7 -->
      <g transform="translate(250.348438 463.158437)scale(0.1 -0.1)">
       <defs>
        <path d="M 8.203125 72.90625 
L 55.078125 72.90625 
L 55.078125 68.703125 
L 28.609375 0 
L 18.3125 0 
L 43.21875 64.59375 
L 8.203125 64.59375 
z
" id="DejaVuSans-55"/>
       </defs>
       <use xlink:href="#DejaVuSans-48"/>
       <use x="63.623047" xlink:href="#DejaVuSans-46"/>
       <use x="95.410156" xlink:href="#DejaVuSans-55"/>
      </g>
     </g>
    </g>
    <g id="xtick_5">
     <g id="line2d_5">
      <g>
       <use style="stroke:#000000;stroke-width:0.8;" x="323.4" xlink:href="#m9f147fc0e4" y="448.56"/>
      </g>
     </g>
     <g id="text_5">
      <!-- 0.8 -->
      <g transform="translate(315.448438 463.158437)scale(0.1 -0.1)">
       <defs>
        <path d="M 31.78125 34.625 
Q 24.75 34.625 20.71875 30.859375 
Q 16.703125 27.09375 16.703125 20.515625 
Q 16.703125 13.921875 20.71875 10.15625 
Q 24.75 6.390625 31.78125 6.390625 
Q 38.8125 6.390625 42.859375 10.171875 
Q 46.921875 13.96875 46.921875 20.515625 
Q 46.921875 27.09375 42.890625 30.859375 
Q 38.875 34.625 31.78125 34.625 
z
M 21.921875 38.8125 
Q 15.578125 40.375 12.03125 44.71875 
Q 8.5 49.078125 8.5 55.328125 
Q 8.5 64.0625 14.71875 69.140625 
Q 20.953125 74.21875 31.78125 74.21875 
Q 42.671875 74.21875 48.875 69.140625 
Q 55.078125 64.0625 55.078125 55.328125 
Q 55.078125 49.078125 51.53125 44.71875 
Q 48 40.375 41.703125 38.8125 
Q 48.828125 37.15625 52.796875 32.3125 
Q 56.78125 27.484375 56.78125 20.515625 
Q 56.78125 9.90625 50.3125 4.234375 
Q 43.84375 -1.421875 31.78125 -1.421875 
Q 19.734375 -1.421875 13.25 4.234375 
Q 6.78125 9.90625 6.78125 20.515625 
Q 6.78125 27.484375 10.78125 32.3125 
Q 14.796875 37.15625 21.921875 38.8125 
z
M 18.3125 54.390625 
Q 18.3125 48.734375 21.84375 45.5625 
Q 25.390625 42.390625 31.78125 42.390625 
Q 38.140625 42.390625 41.71875 45.5625 
Q 45.3125 48.734375 45.3125 54.390625 
Q 45.3125 60.0625 41.71875 63.234375 
Q 38.140625 66.40625 31.78125 66.40625 
Q 25.390625 66.40625 21.84375 63.234375 
Q 18.3125 60.0625 18.3125 54.390625 
z
" id="DejaVuSans-56"/>
       </defs>
       <use xlink:href="#DejaVuSans-48"/>
       <use x="63.623047" xlink:href="#DejaVuSans-46"/>
       <use x="95.410156" xlink:href="#DejaVuSans-56"/>
      </g>
     </g>
    </g>
    <g id="xtick_6">
     <g id="line2d_6">
      <g>
       <use style="stroke:#000000;stroke-width:0.8;" x="388.5" xlink:href="#m9f147fc0e4" y="448.56"/>
      </g>
     </g>
     <g id="text_6">
      <!-- 0.9 -->
      <g transform="translate(380.548438 463.158437)scale(0.1 -0.1)">
       <defs>
        <path d="M 10.984375 1.515625 
L 10.984375 10.5 
Q 14.703125 8.734375 18.5 7.8125 
Q 22.3125 6.890625 25.984375 6.890625 
Q 35.75 6.890625 40.890625 13.453125 
Q 46.046875 20.015625 46.78125 33.40625 
Q 43.953125 29.203125 39.59375 26.953125 
Q 35.25 24.703125 29.984375 24.703125 
Q 19.046875 24.703125 12.671875 31.3125 
Q 6.296875 37.9375 6.296875 49.421875 
Q 6.296875 60.640625 12.9375 67.421875 
Q 19.578125 74.21875 30.609375 74.21875 
Q 43.265625 74.21875 49.921875 64.515625 
Q 56.59375 54.828125 56.59375 36.375 
Q 56.59375 19.140625 48.40625 8.859375 
Q 40.234375 -1.421875 26.421875 -1.421875 
Q 22.703125 -1.421875 18.890625 -0.6875 
Q 15.09375 0.046875 10.984375 1.515625 
z
M 30.609375 32.421875 
Q 37.25 32.421875 41.125 36.953125 
Q 45.015625 41.5 45.015625 49.421875 
Q 45.015625 57.28125 41.125 61.84375 
Q 37.25 66.40625 30.609375 66.40625 
Q 23.96875 66.40625 20.09375 61.84375 
Q 16.21875 57.28125 16.21875 49.421875 
Q 16.21875 41.5 20.09375 36.953125 
Q 23.96875 32.421875 30.609375 32.421875 
z
" id="DejaVuSans-57"/>
       </defs>
       <use xlink:href="#DejaVuSans-48"/>
       <use x="63.623047" xlink:href="#DejaVuSans-46"/>
       <use x="95.410156" xlink:href="#DejaVuSans-57"/>
      </g>
     </g>
    </g>
    <g id="xtick_7">
     <g id="line2d_7">
      <g>
       <use style="stroke:#000000;stroke-width:0.8;" x="453.6" xlink:href="#m9f147fc0e4" y="448.56"/>
      </g>
     </g>
     <g id="text_7">
      <!-- 1.0 -->
      <g transform="translate(445.648438 463.158437)scale(0.1 -0.1)">
       <defs>
        <path d="M 12.40625 8.296875 
L 28.515625 8.296875 
L 28.515625 63.921875 
L 10.984375 60.40625 
L 10.984375 69.390625 
L 28.421875 72.90625 
L 38.28125 72.90625 
L 38.28125 8.296875 
L 54.390625 8.296875 
L 54.390625 0 
L 12.40625 0 
z
" id="DejaVuSans-49"/>
       </defs>
       <use xlink:href="#DejaVuSans-49"/>
       <use x="63.623047" xlink:href="#DejaVuSans-46"/>
       <use x="95.410156" xlink:href="#DejaVuSans-48"/>
      </g>
     </g>
    </g>
    <g id="text_8">
     <!-- If I predict something with this probability... -->
     <g transform="translate(149.657031 476.836563)scale(0.1 -0.1)">
      <defs>
       <path d="M 9.8125 72.90625 
L 19.671875 72.90625 
L 19.671875 0 
L 9.8125 0 
z
" id="DejaVuSans-73"/>
       <path d="M 37.109375 75.984375 
L 37.109375 68.5 
L 28.515625 68.5 
Q 23.6875 68.5 21.796875 66.546875 
Q 19.921875 64.59375 19.921875 59.515625 
L 19.921875 54.6875 
L 34.71875 54.6875 
L 34.71875 47.703125 
L 19.921875 47.703125 
L 19.921875 0 
L 10.890625 0 
L 10.890625 47.703125 
L 2.296875 47.703125 
L 2.296875 54.6875 
L 10.890625 54.6875 
L 10.890625 58.5 
Q 10.890625 67.625 15.140625 71.796875 
Q 19.390625 75.984375 28.609375 75.984375 
z
" id="DejaVuSans-102"/>
       <path id="DejaVuSans-32"/>
       <path d="M 18.109375 8.203125 
L 18.109375 -20.796875 
L 9.078125 -20.796875 
L 9.078125 54.6875 
L 18.109375 54.6875 
L 18.109375 46.390625 
Q 20.953125 51.265625 25.265625 53.625 
Q 29.59375 56 35.59375 56 
Q 45.5625 56 51.78125 48.09375 
Q 58.015625 40.1875 58.015625 27.296875 
Q 58.015625 14.40625 51.78125 6.484375 
Q 45.5625 -1.421875 35.59375 -1.421875 
Q 29.59375 -1.421875 25.265625 0.953125 
Q 20.953125 3.328125 18.109375 8.203125 
z
M 48.6875 27.296875 
Q 48.6875 37.203125 44.609375 42.84375 
Q 40.53125 48.484375 33.40625 48.484375 
Q 26.265625 48.484375 22.1875 42.84375 
Q 18.109375 37.203125 18.109375 27.296875 
Q 18.109375 17.390625 22.1875 11.75 
Q 26.265625 6.109375 33.40625 6.109375 
Q 40.53125 6.109375 44.609375 11.75 
Q 48.6875 17.390625 48.6875 27.296875 
z
" id="DejaVuSans-112"/>
       <path d="M 41.109375 46.296875 
Q 39.59375 47.171875 37.8125 47.578125 
Q 36.03125 48 33.890625 48 
Q 26.265625 48 22.1875 43.046875 
Q 18.109375 38.09375 18.109375 28.8125 
L 18.109375 0 
L 9.078125 0 
L 9.078125 54.6875 
L 18.109375 54.6875 
L 18.109375 46.1875 
Q 20.953125 51.171875 25.484375 53.578125 
Q 30.03125 56 36.53125 56 
Q 37.453125 56 38.578125 55.875 
Q 39.703125 55.765625 41.0625 55.515625 
z
" id="DejaVuSans-114"/>
       <path d="M 56.203125 29.59375 
L 56.203125 25.203125 
L 14.890625 25.203125 
Q 15.484375 15.921875 20.484375 11.0625 
Q 25.484375 6.203125 34.421875 6.203125 
Q 39.59375 6.203125 44.453125 7.46875 
Q 49.3125 8.734375 54.109375 11.28125 
L 54.109375 2.78125 
Q 49.265625 0.734375 44.1875 -0.34375 
Q 39.109375 -1.421875 33.890625 -1.421875 
Q 20.796875 -1.421875 13.15625 6.1875 
Q 5.515625 13.8125 5.515625 26.8125 
Q 5.515625 40.234375 12.765625 48.109375 
Q 20.015625 56 32.328125 56 
Q 43.359375 56 49.78125 48.890625 
Q 56.203125 41.796875 56.203125 29.59375 
z
M 47.21875 32.234375 
Q 47.125 39.59375 43.09375 43.984375 
Q 39.0625 48.390625 32.421875 48.390625 
Q 24.90625 48.390625 20.390625 44.140625 
Q 15.875 39.890625 15.1875 32.171875 
z
" id="DejaVuSans-101"/>
       <path d="M 45.40625 46.390625 
L 45.40625 75.984375 
L 54.390625 75.984375 
L 54.390625 0 
L 45.40625 0 
L 45.40625 8.203125 
Q 42.578125 3.328125 38.25 0.953125 
Q 33.9375 -1.421875 27.875 -1.421875 
Q 17.96875 -1.421875 11.734375 6.484375 
Q 5.515625 14.40625 5.515625 27.296875 
Q 5.515625 40.1875 11.734375 48.09375 
Q 17.96875 56 27.875 56 
Q 33.9375 56 38.25 53.625 
Q 42.578125 51.265625 45.40625 46.390625 
z
M 14.796875 27.296875 
Q 14.796875 17.390625 18.875 11.75 
Q 22.953125 6.109375 30.078125 6.109375 
Q 37.203125 6.109375 41.296875 11.75 
Q 45.40625 17.390625 45.40625 27.296875 
Q 45.40625 37.203125 41.296875 42.84375 
Q 37.203125 48.484375 30.078125 48.484375 
Q 22.953125 48.484375 18.875 42.84375 
Q 14.796875 37.203125 14.796875 27.296875 
z
" id="DejaVuSans-100"/>
       <path d="M 9.421875 54.6875 
L 18.40625 54.6875 
L 18.40625 0 
L 9.421875 0 
z
M 9.421875 75.984375 
L 18.40625 75.984375 
L 18.40625 64.59375 
L 9.421875 64.59375 
z
" id="DejaVuSans-105"/>
       <path d="M 48.78125 52.59375 
L 48.78125 44.1875 
Q 44.96875 46.296875 41.140625 47.34375 
Q 37.3125 48.390625 33.40625 48.390625 
Q 24.65625 48.390625 19.8125 42.84375 
Q 14.984375 37.3125 14.984375 27.296875 
Q 14.984375 17.28125 19.8125 11.734375 
Q 24.65625 6.203125 33.40625 6.203125 
Q 37.3125 6.203125 41.140625 7.25 
Q 44.96875 8.296875 48.78125 10.40625 
L 48.78125 2.09375 
Q 45.015625 0.34375 40.984375 -0.53125 
Q 36.96875 -1.421875 32.421875 -1.421875 
Q 20.0625 -1.421875 12.78125 6.34375 
Q 5.515625 14.109375 5.515625 27.296875 
Q 5.515625 40.671875 12.859375 48.328125 
Q 20.21875 56 33.015625 56 
Q 37.15625 56 41.109375 55.140625 
Q 45.0625 54.296875 48.78125 52.59375 
z
" id="DejaVuSans-99"/>
       <path d="M 18.3125 70.21875 
L 18.3125 54.6875 
L 36.8125 54.6875 
L 36.8125 47.703125 
L 18.3125 47.703125 
L 18.3125 18.015625 
Q 18.3125 11.328125 20.140625 9.421875 
Q 21.96875 7.515625 27.59375 7.515625 
L 36.8125 7.515625 
L 36.8125 0 
L 27.59375 0 
Q 17.1875 0 13.234375 3.875 
Q 9.28125 7.765625 9.28125 18.015625 
L 9.28125 47.703125 
L 2.6875 47.703125 
L 2.6875 54.6875 
L 9.28125 54.6875 
L 9.28125 70.21875 
z
" id="DejaVuSans-116"/>
       <path d="M 44.28125 53.078125 
L 44.28125 44.578125 
Q 40.484375 46.53125 36.375 47.5 
Q 32.28125 48.484375 27.875 48.484375 
Q 21.1875 48.484375 17.84375 46.4375 
Q 14.5 44.390625 14.5 40.28125 
Q 14.5 37.15625 16.890625 35.375 
Q 19.28125 33.59375 26.515625 31.984375 
L 29.59375 31.296875 
Q 39.15625 29.25 43.1875 25.515625 
Q 47.21875 21.78125 47.21875 15.09375 
Q 47.21875 7.46875 41.1875 3.015625 
Q 35.15625 -1.421875 24.609375 -1.421875 
Q 20.21875 -1.421875 15.453125 -0.5625 
Q 10.6875 0.296875 5.421875 2 
L 5.421875 11.28125 
Q 10.40625 8.6875 15.234375 7.390625 
Q 20.0625 6.109375 24.8125 6.109375 
Q 31.15625 6.109375 34.5625 8.28125 
Q 37.984375 10.453125 37.984375 14.40625 
Q 37.984375 18.0625 35.515625 20.015625 
Q 33.0625 21.96875 24.703125 23.78125 
L 21.578125 24.515625 
Q 13.234375 26.265625 9.515625 29.90625 
Q 5.8125 33.546875 5.8125 39.890625 
Q 5.8125 47.609375 11.28125 51.796875 
Q 16.75 56 26.8125 56 
Q 31.78125 56 36.171875 55.265625 
Q 40.578125 54.546875 44.28125 53.078125 
z
" id="DejaVuSans-115"/>
       <path d="M 30.609375 48.390625 
Q 23.390625 48.390625 19.1875 42.75 
Q 14.984375 37.109375 14.984375 27.296875 
Q 14.984375 17.484375 19.15625 11.84375 
Q 23.34375 6.203125 30.609375 6.203125 
Q 37.796875 6.203125 41.984375 11.859375 
Q 46.1875 17.53125 46.1875 27.296875 
Q 46.1875 37.015625 41.984375 42.703125 
Q 37.796875 48.390625 30.609375 48.390625 
z
M 30.609375 56 
Q 42.328125 56 49.015625 48.375 
Q 55.71875 40.765625 55.71875 27.296875 
Q 55.71875 13.875 49.015625 6.21875 
Q 42.328125 -1.421875 30.609375 -1.421875 
Q 18.84375 -1.421875 12.171875 6.21875 
Q 5.515625 13.875 5.515625 27.296875 
Q 5.515625 40.765625 12.171875 48.375 
Q 18.84375 56 30.609375 56 
z
" id="DejaVuSans-111"/>
       <path d="M 52 44.1875 
Q 55.375 50.25 60.0625 53.125 
Q 64.75 56 71.09375 56 
Q 79.640625 56 84.28125 50.015625 
Q 88.921875 44.046875 88.921875 33.015625 
L 88.921875 0 
L 79.890625 0 
L 79.890625 32.71875 
Q 79.890625 40.578125 77.09375 44.375 
Q 74.3125 48.1875 68.609375 48.1875 
Q 61.625 48.1875 57.5625 43.546875 
Q 53.515625 38.921875 53.515625 30.90625 
L 53.515625 0 
L 44.484375 0 
L 44.484375 32.71875 
Q 44.484375 40.625 41.703125 44.40625 
Q 38.921875 48.1875 33.109375 48.1875 
Q 26.21875 48.1875 22.15625 43.53125 
Q 18.109375 38.875 18.109375 30.90625 
L 18.109375 0 
L 9.078125 0 
L 9.078125 54.6875 
L 18.109375 54.6875 
L 18.109375 46.1875 
Q 21.1875 51.21875 25.484375 53.609375 
Q 29.78125 56 35.6875 56 
Q 41.65625 56 45.828125 52.96875 
Q 50 49.953125 52 44.1875 
z
" id="DejaVuSans-109"/>
       <path d="M 54.890625 33.015625 
L 54.890625 0 
L 45.90625 0 
L 45.90625 32.71875 
Q 45.90625 40.484375 42.875 44.328125 
Q 39.84375 48.1875 33.796875 48.1875 
Q 26.515625 48.1875 22.3125 43.546875 
Q 18.109375 38.921875 18.109375 30.90625 
L 18.109375 0 
L 9.078125 0 
L 9.078125 75.984375 
L 18.109375 75.984375 
L 18.109375 46.1875 
Q 21.34375 51.125 25.703125 53.5625 
Q 30.078125 56 35.796875 56 
Q 45.21875 56 50.046875 50.171875 
Q 54.890625 44.34375 54.890625 33.015625 
z
" id="DejaVuSans-104"/>
       <path d="M 54.890625 33.015625 
L 54.890625 0 
L 45.90625 0 
L 45.90625 32.71875 
Q 45.90625 40.484375 42.875 44.328125 
Q 39.84375 48.1875 33.796875 48.1875 
Q 26.515625 48.1875 22.3125 43.546875 
Q 18.109375 38.921875 18.109375 30.90625 
L 18.109375 0 
L 9.078125 0 
L 9.078125 54.6875 
L 18.109375 54.6875 
L 18.109375 46.1875 
Q 21.34375 51.125 25.703125 53.5625 
Q 30.078125 56 35.796875 56 
Q 45.21875 56 50.046875 50.171875 
Q 54.890625 44.34375 54.890625 33.015625 
z
" id="DejaVuSans-110"/>
       <path d="M 45.40625 27.984375 
Q 45.40625 37.75 41.375 43.109375 
Q 37.359375 48.484375 30.078125 48.484375 
Q 22.859375 48.484375 18.828125 43.109375 
Q 14.796875 37.75 14.796875 27.984375 
Q 14.796875 18.265625 18.828125 12.890625 
Q 22.859375 7.515625 30.078125 7.515625 
Q 37.359375 7.515625 41.375 12.890625 
Q 45.40625 18.265625 45.40625 27.984375 
z
M 54.390625 6.78125 
Q 54.390625 -7.171875 48.1875 -13.984375 
Q 42 -20.796875 29.203125 -20.796875 
Q 24.46875 -20.796875 20.265625 -20.09375 
Q 16.0625 -19.390625 12.109375 -17.921875 
L 12.109375 -9.1875 
Q 16.0625 -11.328125 19.921875 -12.34375 
Q 23.78125 -13.375 27.78125 -13.375 
Q 36.625 -13.375 41.015625 -8.765625 
Q 45.40625 -4.15625 45.40625 5.171875 
L 45.40625 9.625 
Q 42.625 4.78125 38.28125 2.390625 
Q 33.9375 0 27.875 0 
Q 17.828125 0 11.671875 7.65625 
Q 5.515625 15.328125 5.515625 27.984375 
Q 5.515625 40.671875 11.671875 48.328125 
Q 17.828125 56 27.875 56 
Q 33.9375 56 38.28125 53.609375 
Q 42.625 51.21875 45.40625 46.390625 
L 45.40625 54.6875 
L 54.390625 54.6875 
z
" id="DejaVuSans-103"/>
       <path d="M 4.203125 54.6875 
L 13.1875 54.6875 
L 24.421875 12.015625 
L 35.59375 54.6875 
L 46.1875 54.6875 
L 57.421875 12.015625 
L 68.609375 54.6875 
L 77.59375 54.6875 
L 63.28125 0 
L 52.6875 0 
L 40.921875 44.828125 
L 29.109375 0 
L 18.5 0 
z
" id="DejaVuSans-119"/>
       <path d="M 48.6875 27.296875 
Q 48.6875 37.203125 44.609375 42.84375 
Q 40.53125 48.484375 33.40625 48.484375 
Q 26.265625 48.484375 22.1875 42.84375 
Q 18.109375 37.203125 18.109375 27.296875 
Q 18.109375 17.390625 22.1875 11.75 
Q 26.265625 6.109375 33.40625 6.109375 
Q 40.53125 6.109375 44.609375 11.75 
Q 48.6875 17.390625 48.6875 27.296875 
z
M 18.109375 46.390625 
Q 20.953125 51.265625 25.265625 53.625 
Q 29.59375 56 35.59375 56 
Q 45.5625 56 51.78125 48.09375 
Q 58.015625 40.1875 58.015625 27.296875 
Q 58.015625 14.40625 51.78125 6.484375 
Q 45.5625 -1.421875 35.59375 -1.421875 
Q 29.59375 -1.421875 25.265625 0.953125 
Q 20.953125 3.328125 18.109375 8.203125 
L 18.109375 0 
L 9.078125 0 
L 9.078125 75.984375 
L 18.109375 75.984375 
z
" id="DejaVuSans-98"/>
       <path d="M 34.28125 27.484375 
Q 23.390625 27.484375 19.1875 25 
Q 14.984375 22.515625 14.984375 16.5 
Q 14.984375 11.71875 18.140625 8.90625 
Q 21.296875 6.109375 26.703125 6.109375 
Q 34.1875 6.109375 38.703125 11.40625 
Q 43.21875 16.703125 43.21875 25.484375 
L 43.21875 27.484375 
z
M 52.203125 31.203125 
L 52.203125 0 
L 43.21875 0 
L 43.21875 8.296875 
Q 40.140625 3.328125 35.546875 0.953125 
Q 30.953125 -1.421875 24.3125 -1.421875 
Q 15.921875 -1.421875 10.953125 3.296875 
Q 6 8.015625 6 15.921875 
Q 6 25.140625 12.171875 29.828125 
Q 18.359375 34.515625 30.609375 34.515625 
L 43.21875 34.515625 
L 43.21875 35.40625 
Q 43.21875 41.609375 39.140625 45 
Q 35.0625 48.390625 27.6875 48.390625 
Q 23 48.390625 18.546875 47.265625 
Q 14.109375 46.140625 10.015625 43.890625 
L 10.015625 52.203125 
Q 14.9375 54.109375 19.578125 55.046875 
Q 24.21875 56 28.609375 56 
Q 40.484375 56 46.34375 49.84375 
Q 52.203125 43.703125 52.203125 31.203125 
z
" id="DejaVuSans-97"/>
       <path d="M 9.421875 75.984375 
L 18.40625 75.984375 
L 18.40625 0 
L 9.421875 0 
z
" id="DejaVuSans-108"/>
       <path d="M 32.171875 -5.078125 
Q 28.375 -14.84375 24.75 -17.8125 
Q 21.140625 -20.796875 15.09375 -20.796875 
L 7.90625 -20.796875 
L 7.90625 -13.28125 
L 13.1875 -13.28125 
Q 16.890625 -13.28125 18.9375 -11.515625 
Q 21 -9.765625 23.484375 -3.21875 
L 25.09375 0.875 
L 2.984375 54.6875 
L 12.5 54.6875 
L 29.59375 11.921875 
L 46.6875 54.6875 
L 56.203125 54.6875 
z
" id="DejaVuSans-121"/>
      </defs>
      <use xlink:href="#DejaVuSans-73"/>
      <use x="29.492188" xlink:href="#DejaVuSans-102"/>
      <use x="64.697266" xlink:href="#DejaVuSans-32"/>
      <use x="96.484375" xlink:href="#DejaVuSans-73"/>
      <use x="125.976562" xlink:href="#DejaVuSans-32"/>
      <use x="157.763672" xlink:href="#DejaVuSans-112"/>
      <use x="221.240234" xlink:href="#DejaVuSans-114"/>
      <use x="260.103516" xlink:href="#DejaVuSans-101"/>
      <use x="321.626953" xlink:href="#DejaVuSans-100"/>
      <use x="385.103516" xlink:href="#DejaVuSans-105"/>
      <use x="412.886719" xlink:href="#DejaVuSans-99"/>
      <use x="467.867188" xlink:href="#DejaVuSans-116"/>
      <use x="507.076172" xlink:href="#DejaVuSans-32"/>
      <use x="538.863281" xlink:href="#DejaVuSans-115"/>
      <use x="590.962891" xlink:href="#DejaVuSans-111"/>
      <use x="652.144531" xlink:href="#DejaVuSans-109"/>
      <use x="749.556641" xlink:href="#DejaVuSans-101"/>
      <use x="811.080078" xlink:href="#DejaVuSans-116"/>
      <use x="850.289062" xlink:href="#DejaVuSans-104"/>
      <use x="913.667969" xlink:href="#DejaVuSans-105"/>
      <use x="941.451172" xlink:href="#DejaVuSans-110"/>
      <use x="1004.830078" xlink:href="#DejaVuSans-103"/>
      <use x="1068.306641" xlink:href="#DejaVuSans-32"/>
      <use x="1100.09375" xlink:href="#DejaVuSans-119"/>
      <use x="1181.880859" xlink:href="#DejaVuSans-105"/>
      <use x="1209.664062" xlink:href="#DejaVuSans-116"/>
      <use x="1248.873047" xlink:href="#DejaVuSans-104"/>
      <use x="1312.251953" xlink:href="#DejaVuSans-32"/>
      <use x="1344.039062" xlink:href="#DejaVuSans-116"/>
      <use x="1383.248047" xlink:href="#DejaVuSans-104"/>
      <use x="1446.626953" xlink:href="#DejaVuSans-105"/>
      <use x="1474.410156" xlink:href="#DejaVuSans-115"/>
      <use x="1526.509766" xlink:href="#DejaVuSans-32"/>
      <use x="1558.296875" xlink:href="#DejaVuSans-112"/>
      <use x="1621.773438" xlink:href="#DejaVuSans-114"/>
      <use x="1660.636719" xlink:href="#DejaVuSans-111"/>
      <use x="1721.818359" xlink:href="#DejaVuSans-98"/>
      <use x="1785.294922" xlink:href="#DejaVuSans-97"/>
      <use x="1846.574219" xlink:href="#DejaVuSans-98"/>
      <use x="1910.050781" xlink:href="#DejaVuSans-105"/>
      <use x="1937.833984" xlink:href="#DejaVuSans-108"/>
      <use x="1965.617188" xlink:href="#DejaVuSans-105"/>
      <use x="1993.400391" xlink:href="#DejaVuSans-116"/>
      <use x="2032.609375" xlink:href="#DejaVuSans-121"/>
      <use x="2077.539062" xlink:href="#DejaVuSans-46"/>
      <use x="2109.326172" xlink:href="#DejaVuSans-46"/>
      <use x="2141.113281" xlink:href="#DejaVuSans-46"/>
     </g>
    </g>
   </g>
   <g id="matplotlib.axis_2">
    <g id="ytick_1">
     <g id="line2d_8">
      <defs>
       <path d="M 0 0 
L -3.5 0 
" id="m942a96dabf" style="stroke:#000000;stroke-width:0.8;"/>
      </defs>
      <g>
       <use style="stroke:#000000;stroke-width:0.8;" x="63" xlink:href="#m942a96dabf" y="448.56"/>
      </g>
     </g>
     <g id="text_9">
      <!-- 0.4 -->
      <g transform="translate(40.096875 452.359219)scale(0.1 -0.1)">
       <use xlink:href="#DejaVuSans-48"/>
       <use x="63.623047" xlink:href="#DejaVuSans-46"/>
       <use x="95.410156" xlink:href="#DejaVuSans-52"/>
      </g>
     </g>
    </g>
    <g id="ytick_2">
     <g id="line2d_9">
      <g>
       <use style="stroke:#000000;stroke-width:0.8;" x="63" xlink:href="#m942a96dabf" y="383.88"/>
      </g>
     </g>
     <g id="text_10">
      <!-- 0.5 -->
      <g transform="translate(40.096875 387.679219)scale(0.1 -0.1)">
       <use xlink:href="#DejaVuSans-48"/>
       <use x="63.623047" xlink:href="#DejaVuSans-46"/>
       <use x="95.410156" xlink:href="#DejaVuSans-53"/>
      </g>
     </g>
    </g>
    <g id="ytick_3">
     <g id="line2d_10">
      <g>
       <use style="stroke:#000000;stroke-width:0.8;" x="63" xlink:href="#m942a96dabf" y="319.2"/>
      </g>
     </g>
     <g id="text_11">
      <!-- 0.6 -->
      <g transform="translate(40.096875 322.999219)scale(0.1 -0.1)">
       <use xlink:href="#DejaVuSans-48"/>
       <use x="63.623047" xlink:href="#DejaVuSans-46"/>
       <use x="95.410156" xlink:href="#DejaVuSans-54"/>
      </g>
     </g>
    </g>
    <g id="ytick_4">
     <g id="line2d_11">
      <g>
       <use style="stroke:#000000;stroke-width:0.8;" x="63" xlink:href="#m942a96dabf" y="254.52"/>
      </g>
     </g>
     <g id="text_12">
      <!-- 0.7 -->
      <g transform="translate(40.096875 258.319219)scale(0.1 -0.1)">
       <use xlink:href="#DejaVuSans-48"/>
       <use x="63.623047" xlink:href="#DejaVuSans-46"/>
       <use x="95.410156" xlink:href="#DejaVuSans-55"/>
      </g>
     </g>
    </g>
    <g id="ytick_5">
     <g id="line2d_12">
      <g>
       <use style="stroke:#000000;stroke-width:0.8;" x="63" xlink:href="#m942a96dabf" y="189.84"/>
      </g>
     </g>
     <g id="text_13">
      <!-- 0.8 -->
      <g transform="translate(40.096875 193.639219)scale(0.1 -0.1)">
       <use xlink:href="#DejaVuSans-48"/>
       <use x="63.623047" xlink:href="#DejaVuSans-46"/>
       <use x="95.410156" xlink:href="#DejaVuSans-56"/>
      </g>
     </g>
    </g>
    <g id="ytick_6">
     <g id="line2d_13">
      <g>
       <use style="stroke:#000000;stroke-width:0.8;" x="63" xlink:href="#m942a96dabf" y="125.16"/>
      </g>
     </g>
     <g id="text_14">
      <!-- 0.9 -->
      <g transform="translate(40.096875 128.959219)scale(0.1 -0.1)">
       <use xlink:href="#DejaVuSans-48"/>
       <use x="63.623047" xlink:href="#DejaVuSans-46"/>
       <use x="95.410156" xlink:href="#DejaVuSans-57"/>
      </g>
     </g>
    </g>
    <g id="ytick_7">
     <g id="line2d_14">
      <g>
       <use style="stroke:#000000;stroke-width:0.8;" x="63" xlink:href="#m942a96dabf" y="60.48"/>
      </g>
     </g>
     <g id="text_15">
      <!-- 1.0 -->
      <g transform="translate(40.096875 64.279219)scale(0.1 -0.1)">
       <use xlink:href="#DejaVuSans-49"/>
       <use x="63.623047" xlink:href="#DejaVuSans-46"/>
       <use x="95.410156" xlink:href="#DejaVuSans-48"/>
      </g>
     </g>
    </g>
    <g id="text_16">
     <!-- then it has this probability of coming true... -->
     <g transform="translate(34.017187 363.261406)rotate(-90)scale(0.1 -0.1)">
      <defs>
       <path d="M 8.5 21.578125 
L 8.5 54.6875 
L 17.484375 54.6875 
L 17.484375 21.921875 
Q 17.484375 14.15625 20.5 10.265625 
Q 23.53125 6.390625 29.59375 6.390625 
Q 36.859375 6.390625 41.078125 11.03125 
Q 45.3125 15.671875 45.3125 23.6875 
L 45.3125 54.6875 
L 54.296875 54.6875 
L 54.296875 0 
L 45.3125 0 
L 45.3125 8.40625 
Q 42.046875 3.421875 37.71875 1 
Q 33.40625 -1.421875 27.6875 -1.421875 
Q 18.265625 -1.421875 13.375 4.4375 
Q 8.5 10.296875 8.5 21.578125 
z
M 31.109375 56 
z
" id="DejaVuSans-117"/>
      </defs>
      <use xlink:href="#DejaVuSans-116"/>
      <use x="39.208984" xlink:href="#DejaVuSans-104"/>
      <use x="102.587891" xlink:href="#DejaVuSans-101"/>
      <use x="164.111328" xlink:href="#DejaVuSans-110"/>
      <use x="227.490234" xlink:href="#DejaVuSans-32"/>
      <use x="259.277344" xlink:href="#DejaVuSans-105"/>
      <use x="287.060547" xlink:href="#DejaVuSans-116"/>
      <use x="326.269531" xlink:href="#DejaVuSans-32"/>
      <use x="358.056641" xlink:href="#DejaVuSans-104"/>
      <use x="421.435547" xlink:href="#DejaVuSans-97"/>
      <use x="482.714844" xlink:href="#DejaVuSans-115"/>
      <use x="534.814453" xlink:href="#DejaVuSans-32"/>
      <use x="566.601562" xlink:href="#DejaVuSans-116"/>
      <use x="605.810547" xlink:href="#DejaVuSans-104"/>
      <use x="669.189453" xlink:href="#DejaVuSans-105"/>
      <use x="696.972656" xlink:href="#DejaVuSans-115"/>
      <use x="749.072266" xlink:href="#DejaVuSans-32"/>
      <use x="780.859375" xlink:href="#DejaVuSans-112"/>
      <use x="844.335938" xlink:href="#DejaVuSans-114"/>
      <use x="883.199219" xlink:href="#DejaVuSans-111"/>
      <use x="944.380859" xlink:href="#DejaVuSans-98"/>
      <use x="1007.857422" xlink:href="#DejaVuSans-97"/>
      <use x="1069.136719" xlink:href="#DejaVuSans-98"/>
      <use x="1132.613281" xlink:href="#DejaVuSans-105"/>
      <use x="1160.396484" xlink:href="#DejaVuSans-108"/>
      <use x="1188.179688" xlink:href="#DejaVuSans-105"/>
      <use x="1215.962891" xlink:href="#DejaVuSans-116"/>
      <use x="1255.171875" xlink:href="#DejaVuSans-121"/>
      <use x="1314.351562" xlink:href="#DejaVuSans-32"/>
      <use x="1346.138672" xlink:href="#DejaVuSans-111"/>
      <use x="1407.320312" xlink:href="#DejaVuSans-102"/>
      <use x="1442.525391" xlink:href="#DejaVuSans-32"/>
      <use x="1474.3125" xlink:href="#DejaVuSans-99"/>
      <use x="1529.292969" xlink:href="#DejaVuSans-111"/>
      <use x="1590.474609" xlink:href="#DejaVuSans-109"/>
      <use x="1687.886719" xlink:href="#DejaVuSans-105"/>
      <use x="1715.669922" xlink:href="#DejaVuSans-110"/>
      <use x="1779.048828" xlink:href="#DejaVuSans-103"/>
      <use x="1842.525391" xlink:href="#DejaVuSans-32"/>
      <use x="1874.3125" xlink:href="#DejaVuSans-116"/>
      <use x="1913.521484" xlink:href="#DejaVuSans-114"/>
      <use x="1954.634766" xlink:href="#DejaVuSans-117"/>
      <use x="2018.013672" xlink:href="#DejaVuSans-101"/>
      <use x="2079.537109" xlink:href="#DejaVuSans-46"/>
      <use x="2111.324219" xlink:href="#DejaVuSans-46"/>
      <use x="2143.111328" xlink:href="#DejaVuSans-46"/>
     </g>
    </g>
   </g>
   <g id="line2d_15">
    <path clip-path="url(#pbf5bbd5297)" d="M 128.1 437.624359 
L 146.364529 420.343345 
L 163.976754 403.371811 
L 181.588978 386.083658 
L 198.548898 369.122328 
L 215.508818 351.838691 
L 231.816433 334.901308 
L 248.124048 317.636468 
L 263.779359 300.739037 
L 279.434669 283.50907 
L 294.437675 266.668972 
L 309.440681 249.490685 
L 323.791383 232.725403 
L 338.142084 215.61465 
L 351.840481 198.939605 
L 365.538878 181.908184 
L 378.58497 165.332387 
L 390.978758 149.238224 
L 403.372545 132.774229 
L 415.114028 116.797194 
L 426.203206 101.319426 
L 435.987776 87.28717 
L 444.467735 74.753789 
L 450.990782 64.737226 
L 452.947695 61.591032 
L 452.947695 61.591032 
" style="fill:none;stroke:#0000ff;stroke-linecap:square;stroke-width:1.5;"/>
   </g>
   <g id="line2d_16">
    <path clip-path="url(#pbf5bbd5297)" d="M 128.1 383.88 
L 452.947695 61.128096 
L 452.947695 61.128096 
" style="fill:none;stroke:#000000;stroke-linecap:square;stroke-width:1.5;"/>
   </g>
   <g id="patch_3">
    <path d="M 63 448.56 
L 63 60.48 
" style="fill:none;stroke:#000000;stroke-linecap:square;stroke-linejoin:miter;stroke-width:0.8;"/>
   </g>
   <g id="patch_4">
    <path d="M 453.6 448.56 
L 453.6 60.48 
" style="fill:none;stroke:#000000;stroke-linecap:square;stroke-linejoin:miter;stroke-width:0.8;"/>
   </g>
   <g id="patch_5">
    <path d="M 63 448.56 
L 453.6 448.56 
" style="fill:none;stroke:#000000;stroke-linecap:square;stroke-linejoin:miter;stroke-width:0.8;"/>
   </g>
   <g id="patch_6">
    <path d="M 63 60.48 
L 453.6 60.48 
" style="fill:none;stroke:#000000;stroke-linecap:square;stroke-linejoin:miter;stroke-width:0.8;"/>
   </g>
   <g id="text_17">
    <!-- Posterior Predictive of Bayesian Logistic Model -->
    <g transform="translate(118.742813 54.48)scale(0.12 -0.12)">
     <defs>
      <path d="M 19.671875 64.796875 
L 19.671875 37.40625 
L 32.078125 37.40625 
Q 38.96875 37.40625 42.71875 40.96875 
Q 46.484375 44.53125 46.484375 51.125 
Q 46.484375 57.671875 42.71875 61.234375 
Q 38.96875 64.796875 32.078125 64.796875 
z
M 9.8125 72.90625 
L 32.078125 72.90625 
Q 44.34375 72.90625 50.609375 67.359375 
Q 56.890625 61.8125 56.890625 51.125 
Q 56.890625 40.328125 50.609375 34.8125 
Q 44.34375 29.296875 32.078125 29.296875 
L 19.671875 29.296875 
L 19.671875 0 
L 9.8125 0 
z
" id="DejaVuSans-80"/>
      <path d="M 2.984375 54.6875 
L 12.5 54.6875 
L 29.59375 8.796875 
L 46.6875 54.6875 
L 56.203125 54.6875 
L 35.6875 0 
L 23.484375 0 
z
" id="DejaVuSans-118"/>
      <path d="M 19.671875 34.8125 
L 19.671875 8.109375 
L 35.5 8.109375 
Q 43.453125 8.109375 47.28125 11.40625 
Q 51.125 14.703125 51.125 21.484375 
Q 51.125 28.328125 47.28125 31.5625 
Q 43.453125 34.8125 35.5 34.8125 
z
M 19.671875 64.796875 
L 19.671875 42.828125 
L 34.28125 42.828125 
Q 41.5 42.828125 45.03125 45.53125 
Q 48.578125 48.25 48.578125 53.8125 
Q 48.578125 59.328125 45.03125 62.0625 
Q 41.5 64.796875 34.28125 64.796875 
z
M 9.8125 72.90625 
L 35.015625 72.90625 
Q 46.296875 72.90625 52.390625 68.21875 
Q 58.5 63.53125 58.5 54.890625 
Q 58.5 48.1875 55.375 44.234375 
Q 52.25 40.28125 46.1875 39.3125 
Q 53.46875 37.75 57.5 32.78125 
Q 61.53125 27.828125 61.53125 20.40625 
Q 61.53125 10.640625 54.890625 5.3125 
Q 48.25 0 35.984375 0 
L 9.8125 0 
z
" id="DejaVuSans-66"/>
      <path d="M 9.8125 72.90625 
L 19.671875 72.90625 
L 19.671875 8.296875 
L 55.171875 8.296875 
L 55.171875 0 
L 9.8125 0 
z
" id="DejaVuSans-76"/>
      <path d="M 9.8125 72.90625 
L 24.515625 72.90625 
L 43.109375 23.296875 
L 61.8125 72.90625 
L 76.515625 72.90625 
L 76.515625 0 
L 66.890625 0 
L 66.890625 64.015625 
L 48.09375 14.015625 
L 38.1875 14.015625 
L 19.390625 64.015625 
L 19.390625 0 
L 9.8125 0 
z
" id="DejaVuSans-77"/>
     </defs>
     <use xlink:href="#DejaVuSans-80"/>
     <use x="56.677734" xlink:href="#DejaVuSans-111"/>
     <use x="117.859375" xlink:href="#DejaVuSans-115"/>
     <use x="169.958984" xlink:href="#DejaVuSans-116"/>
     <use x="209.167969" xlink:href="#DejaVuSans-101"/>
     <use x="270.691406" xlink:href="#DejaVuSans-114"/>
     <use x="311.804688" xlink:href="#DejaVuSans-105"/>
     <use x="339.587891" xlink:href="#DejaVuSans-111"/>
     <use x="400.769531" xlink:href="#DejaVuSans-114"/>
     <use x="441.882812" xlink:href="#DejaVuSans-32"/>
     <use x="473.669922" xlink:href="#DejaVuSans-80"/>
     <use x="532.222656" xlink:href="#DejaVuSans-114"/>
     <use x="571.085938" xlink:href="#DejaVuSans-101"/>
     <use x="632.609375" xlink:href="#DejaVuSans-100"/>
     <use x="696.085938" xlink:href="#DejaVuSans-105"/>
     <use x="723.869141" xlink:href="#DejaVuSans-99"/>
     <use x="778.849609" xlink:href="#DejaVuSans-116"/>
     <use x="818.058594" xlink:href="#DejaVuSans-105"/>
     <use x="845.841797" xlink:href="#DejaVuSans-118"/>
     <use x="905.021484" xlink:href="#DejaVuSans-101"/>
     <use x="966.544922" xlink:href="#DejaVuSans-32"/>
     <use x="998.332031" xlink:href="#DejaVuSans-111"/>
     <use x="1059.513672" xlink:href="#DejaVuSans-102"/>
     <use x="1094.71875" xlink:href="#DejaVuSans-32"/>
     <use x="1126.505859" xlink:href="#DejaVuSans-66"/>
     <use x="1195.109375" xlink:href="#DejaVuSans-97"/>
     <use x="1256.388672" xlink:href="#DejaVuSans-121"/>
     <use x="1315.568359" xlink:href="#DejaVuSans-101"/>
     <use x="1377.091797" xlink:href="#DejaVuSans-115"/>
     <use x="1429.191406" xlink:href="#DejaVuSans-105"/>
     <use x="1456.974609" xlink:href="#DejaVuSans-97"/>
     <use x="1518.253906" xlink:href="#DejaVuSans-110"/>
     <use x="1581.632812" xlink:href="#DejaVuSans-32"/>
     <use x="1613.419922" xlink:href="#DejaVuSans-76"/>
     <use x="1667.382812" xlink:href="#DejaVuSans-111"/>
     <use x="1728.564453" xlink:href="#DejaVuSans-103"/>
     <use x="1792.041016" xlink:href="#DejaVuSans-105"/>
     <use x="1819.824219" xlink:href="#DejaVuSans-115"/>
     <use x="1871.923828" xlink:href="#DejaVuSans-116"/>
     <use x="1911.132812" xlink:href="#DejaVuSans-105"/>
     <use x="1938.916016" xlink:href="#DejaVuSans-99"/>
     <use x="1993.896484" xlink:href="#DejaVuSans-32"/>
     <use x="2025.683594" xlink:href="#DejaVuSans-77"/>
     <use x="2111.962891" xlink:href="#DejaVuSans-111"/>
     <use x="2173.144531" xlink:href="#DejaVuSans-100"/>
     <use x="2236.621094" xlink:href="#DejaVuSans-101"/>
     <use x="2298.144531" xlink:href="#DejaVuSans-108"/>
    </g>
   </g>
  </g>
 </g>
 <defs>
  <clipPath id="pbf5bbd5297">
   <rect height="388.08" width="390.6" x="63" y="60.48"/>
  </clipPath>
 </defs>
</svg>
