<?xml version="1.0" encoding="utf-8" standalone="no"?>
<!DOCTYPE svg PUBLIC "-//W3C//DTD SVG 1.1//EN"
  "http://www.w3.org/Graphics/SVG/1.1/DTD/svg11.dtd">
<!-- Created with matplotlib (https://matplotlib.org/) -->
<svg height="504pt" version="1.1" viewBox="0 0 504 504" width="504pt" xmlns="http://www.w3.org/2000/svg" xmlns:xlink="http://www.w3.org/1999/xlink">
 <metadata>
  <rdf:RDF xmlns:cc="http://creativecommons.org/ns#" xmlns:dc="http://purl.org/dc/elements/1.1/" xmlns:rdf="http://www.w3.org/1999/02/22-rdf-syntax-ns#">
   <cc:Work>
    <dc:type rdf:resource="http://purl.org/dc/dcmitype/StillImage"/>
    <dc:date>2020-12-13T07:19:22.741417</dc:date>
    <dc:format>image/svg+xml</dc:format>
    <dc:creator>
     <cc:Agent>
      <dc:title>Matplotlib v3.3.3, https://matplotlib.org/</dc:title>
     </cc:Agent>
    </dc:creator>
   </cc:Work>
  </rdf:RDF>
 </metadata>
 <defs>
  <style type="text/css">*{stroke-linecap:butt;stroke-linejoin:round;}</style>
 </defs>
 <g id="figure_1">
  <g id="patch_1">
   <path d="M 0 504 
L 504 504 
L 504 0 
L 0 0 
z
" style="fill:#ffffff;"/>
  </g>
  <g id="axes_1">
   <g id="patch_2">
    <path d="M 63 448.56 
L 453.6 448.56 
L 453.6 60.48 
L 63 60.48 
z
" style="fill:#ffffff;"/>
   </g>
   <g id="PolyCollection_1">
    <path clip-path="url(#pab65125fca)" d="M 128.1 356.868811 
L 128.1 513.543904 
L 128.752305 512.26033 
L 129.404609 512.209763 
L 130.056914 511.540724 
L 130.709218 510.739305 
L 131.361523 509.686879 
L 132.013828 508.855027 
L 132.666132 508.041932 
L 133.318437 507.251301 
L 133.970741 506.591609 
L 134.623046 506.165543 
L 135.275351 505.829541 
L 135.927655 505.493202 
L 136.57996 504.77793 
L 137.232265 504.210982 
L 137.884569 503.56994 
L 138.536874 502.773551 
L 139.189178 504.39354 
L 139.841483 503.691273 
L 140.493788 503.129206 
L 141.146092 502.79009 
L 141.798397 502.873752 
L 142.450701 499.634923 
L 143.103006 501.135435 
L 143.755311 499.709675 
L 144.407615 499.522219 
L 145.05992 498.235819 
L 145.712224 497.712589 
L 146.364529 496.767197 
L 147.016834 495.896619 
L 147.669138 493.678233 
L 148.321443 492.957707 
L 148.973747 492.186436 
L 149.626052 491.438294 
L 150.278357 490.877523 
L 150.930661 489.937521 
L 151.582966 489.816879 
L 152.235271 488.858277 
L 152.887575 488.133962 
L 153.53988 487.250636 
L 154.192184 486.246856 
L 154.844489 485.290201 
L 155.496794 484.412984 
L 156.149098 484.280388 
L 156.801403 483.109894 
L 157.453707 482.343774 
L 158.106012 482.331978 
L 158.758317 481.695846 
L 159.410621 481.341484 
L 160.062926 480.654756 
L 160.71523 479.858678 
L 161.367535 479.140527 
L 162.01984 478.761225 
L 162.672144 477.97829 
L 163.324449 477.307242 
L 163.976754 475.247386 
L 164.629058 474.287523 
L 165.281363 473.669174 
L 165.933667 473.213141 
L 166.585972 472.575426 
L 167.238277 471.80812 
L 167.890581 471.190314 
L 168.542886 472.266625 
L 169.19519 471.214776 
L 169.847495 470.531911 
L 170.4998 469.541378 
L 171.152104 468.857945 
L 171.804409 468.476162 
L 172.456713 466.940086 
L 173.109018 465.981574 
L 173.761323 465.308294 
L 174.413627 464.426393 
L 175.065932 463.364537 
L 175.718236 462.656953 
L 176.370541 462.019644 
L 177.022846 461.317877 
L 177.67515 462.771439 
L 178.327455 461.594461 
L 178.97976 460.863917 
L 179.632064 460.164432 
L 180.284369 455.18744 
L 180.936673 454.63195 
L 181.588978 454.452269 
L 182.241283 453.675104 
L 182.893587 452.896559 
L 183.545892 452.281704 
L 184.198196 451.650869 
L 184.850501 450.879639 
L 185.502806 450.290709 
L 186.15511 449.647714 
L 186.807415 449.010748 
L 187.459719 448.224939 
L 188.112024 447.621954 
L 188.764329 446.960533 
L 189.416633 446.396701 
L 190.068938 445.860896 
L 190.721242 445.066791 
L 191.373547 444.395545 
L 192.025852 443.448126 
L 192.678156 442.78073 
L 193.330461 442.438048 
L 193.982766 441.790086 
L 194.63507 441.141801 
L 195.287375 439.041365 
L 195.939679 436.784437 
L 196.591984 436.075572 
L 197.244289 435.447962 
L 197.896593 434.879298 
L 198.548898 434.043954 
L 199.201202 433.591617 
L 199.853507 433.078141 
L 200.505812 431.873199 
L 201.158116 431.179156 
L 201.810421 430.501643 
L 202.462725 429.841608 
L 203.11503 429.090394 
L 203.767335 428.542272 
L 204.419639 427.891091 
L 205.071944 427.089604 
L 205.724248 426.49511 
L 206.376553 429.293924 
L 207.028858 428.745423 
L 207.681162 427.971293 
L 208.333467 427.316556 
L 208.985772 427.634614 
L 209.638076 426.720137 
L 210.290381 426.302487 
L 210.942685 425.371483 
L 211.59499 424.504187 
L 212.247295 417.109561 
L 212.899599 416.197746 
L 213.551904 423.246118 
L 214.204208 422.533552 
L 214.856513 421.819791 
L 215.508818 421.104832 
L 216.161122 419.376768 
L 216.813427 418.708117 
L 217.465731 418.134904 
L 218.118036 417.096631 
L 218.770341 415.813603 
L 219.422645 415.292804 
L 220.07495 414.612267 
L 220.727255 414.337039 
L 221.379559 412.707637 
L 222.031864 411.938775 
L 222.684168 412.339799 
L 223.336473 411.757615 
L 223.988778 410.861863 
L 224.641082 410.636764 
L 225.293387 408.346219 
L 225.945691 407.430866 
L 226.597996 409.279143 
L 227.250301 408.579945 
L 227.902605 406.653488 
L 228.55491 405.948003 
L 229.207214 405.241341 
L 229.859519 404.533499 
L 230.511824 403.824474 
L 231.164128 403.141931 
L 231.816433 402.440332 
L 232.468737 401.913999 
L 233.121042 401.339305 
L 233.773347 400.68202 
L 234.425651 400.231624 
L 235.077956 399.285984 
L 235.730261 398.519991 
L 236.382565 394.746922 
L 237.03487 397.584225 
L 237.687174 397.105593 
L 238.339479 391.049701 
L 238.991784 395.430528 
L 239.644088 388.522274 
L 240.296393 387.846876 
L 240.948697 387.042037 
L 241.601002 386.423839 
L 242.253307 385.807518 
L 242.905611 384.928795 
L 243.557916 384.101938 
L 244.21022 383.660814 
L 244.862525 382.572335 
L 245.51483 383.035178 
L 246.167134 382.269559 
L 246.819439 381.644751 
L 247.471743 381.018906 
L 248.124048 379.805886 
L 248.776353 379.02913 
L 249.428657 378.298859 
L 250.080962 377.715524 
L 250.733267 377.083661 
L 251.385571 376.231403 
L 252.037876 375.83623 
L 252.69018 374.667214 
L 253.342485 374.02477 
L 253.99479 373.381241 
L 254.647094 372.736621 
L 255.299399 372.090906 
L 255.951703 371.44409 
L 256.604008 370.796169 
L 257.256313 370.020946 
L 257.908617 369.231525 
L 258.560922 367.946304 
L 259.213226 367.232405 
L 259.865531 366.23201 
L 260.517836 367.956662 
L 261.17014 367.037184 
L 261.822445 366.293257 
L 262.474749 365.531879 
L 263.127054 367.102309 
L 263.779359 363.864661 
L 264.431663 363.561938 
L 265.083968 363.711304 
L 265.736273 362.964338 
L 266.388577 361.937809 
L 267.040882 361.086466 
L 267.693186 360.268419 
L 268.345491 360.565194 
L 268.997796 359.780476 
L 269.6501 359.190505 
L 270.302405 356.509052 
L 270.954709 355.749081 
L 271.607014 354.891547 
L 272.259319 354.19732 
L 272.911623 353.426784 
L 273.563928 352.590352 
L 274.216232 351.775873 
L 274.868537 350.966856 
L 275.520842 350.18671 
L 276.173146 349.23009 
L 276.825451 347.295925 
L 277.477756 346.371469 
L 278.13006 345.731735 
L 278.782365 344.854968 
L 279.434669 344.038304 
L 280.086974 343.57476 
L 280.739279 343.125 
L 281.391583 342.592024 
L 282.043888 341.658266 
L 282.696192 341.805237 
L 283.348497 341.242769 
L 284.000802 343.365508 
L 284.653106 342.643937 
L 285.305411 339.853259 
L 285.957715 339.568854 
L 286.61002 338.895663 
L 287.262325 338.046312 
L 287.914629 336.415013 
L 288.566934 336.006505 
L 289.219238 335.383066 
L 289.871543 334.668685 
L 290.523848 337.637246 
L 291.176152 336.904519 
L 291.828457 336.172636 
L 292.480762 335.439277 
L 293.133066 334.704433 
L 293.785371 334.023276 
L 294.437675 333.343807 
L 295.08998 332.662911 
L 295.742285 329.735745 
L 296.394589 329.112748 
L 297.046894 325.689735 
L 297.699198 324.889717 
L 298.351503 324.339589 
L 299.003808 323.361693 
L 299.656112 322.607055 
L 300.308417 321.894923 
L 300.960721 321.181317 
L 301.613026 320.603306 
L 302.265331 319.851901 
L 302.917635 319.031574 
L 303.56994 318.341987 
L 304.222244 317.806776 
L 304.874549 317.026308 
L 305.526854 316.144111 
L 306.179158 315.622552 
L 306.831463 314.750068 
L 307.483768 313.733952 
L 308.136072 314.331828 
L 308.788377 313.753512 
L 309.440681 312.679032 
L 310.092986 311.488691 
L 310.745291 310.905158 
L 311.397595 310.069896 
L 312.0499 309.496654 
L 312.702204 308.921997 
L 313.354509 308.15461 
L 314.006814 307.599735 
L 314.659118 307.189422 
L 315.311423 306.732202 
L 315.963727 306.146599 
L 316.616032 305.976732 
L 317.268337 304.904819 
L 317.920641 304.272418 
L 318.572946 303.344148 
L 319.225251 302.760581 
L 319.877555 301.709314 
L 320.52986 301.00146 
L 321.182164 300.24881 
L 321.834469 300.074409 
L 322.486774 300.124367 
L 323.139078 296.650281 
L 323.791383 298.346499 
L 324.443687 297.530739 
L 325.095992 294.760698 
L 325.748297 293.7466 
L 326.400601 293.00894 
L 327.052906 291.726769 
L 327.70521 290.796831 
L 328.357515 290.232201 
L 329.00982 289.063881 
L 329.662124 288.342939 
L 330.314429 287.665638 
L 330.966733 288.558239 
L 331.619038 287.807123 
L 332.271343 286.927421 
L 332.923647 286.270923 
L 333.575952 285.655633 
L 334.228257 285.075891 
L 334.880561 284.050562 
L 335.532866 284.089609 
L 336.18517 283.696914 
L 336.837475 282.866961 
L 337.48978 278.707124 
L 338.142084 279.02779 
L 338.794389 278.210985 
L 339.446693 277.297173 
L 340.098998 276.54466 
L 340.751303 276.688293 
L 341.403607 276.093536 
L 342.055912 274.405292 
L 342.708216 275.121165 
L 343.360521 274.486667 
L 344.012826 271.620142 
L 344.66513 270.932114 
L 345.317435 270.447281 
L 345.969739 269.697165 
L 346.622044 268.855176 
L 347.274349 268.124174 
L 347.926653 267.345221 
L 348.578958 266.570395 
L 349.231263 265.904152 
L 349.883567 265.186059 
L 350.535872 264.736071 
L 351.188176 264.037497 
L 351.840481 263.385178 
L 352.492786 262.78056 
L 353.14509 262.826226 
L 353.797395 261.998492 
L 354.449699 260.777456 
L 355.102004 259.964979 
L 355.754309 259.293779 
L 356.406613 258.332235 
L 357.058918 257.623578 
L 357.711222 257.035399 
L 358.363527 256.537692 
L 359.015832 255.631171 
L 359.668136 255.560506 
L 360.320441 253.731551 
L 360.972745 252.983663 
L 361.62505 252.382933 
L 362.277355 251.519975 
L 362.929659 250.635701 
L 363.581964 249.964614 
L 364.234269 249.457915 
L 364.886573 248.584791 
L 365.538878 247.708649 
L 366.191182 247.047348 
L 366.843487 246.151024 
L 367.495792 245.425216 
L 368.148096 244.755909 
L 368.800401 243.813065 
L 369.452705 243.688081 
L 370.10501 242.352378 
L 370.757315 241.683268 
L 371.409619 241.011164 
L 372.061924 240.336026 
L 372.714228 239.657815 
L 373.366533 238.976491 
L 374.018838 238.292012 
L 374.671142 237.604336 
L 375.323447 236.91342 
L 375.975752 234.670058 
L 376.628056 233.780127 
L 377.280361 232.886563 
L 377.932665 232.206138 
L 378.58497 231.088361 
L 379.237275 230.532723 
L 379.889579 229.325194 
L 380.541884 228.41684 
L 381.194188 227.521808 
L 381.846493 226.817632 
L 382.498798 225.958629 
L 383.151102 225.101537 
L 383.803407 224.096791 
L 384.455711 223.424134 
L 385.108016 222.763616 
L 385.760321 222.158791 
L 386.412625 221.356211 
L 387.06493 219.856723 
L 387.717234 219.043865 
L 388.369539 218.226674 
L 389.021844 217.526621 
L 389.674148 216.885148 
L 390.326453 215.832654 
L 390.978758 214.753176 
L 391.631062 214.272593 
L 392.283367 213.228743 
L 392.935671 212.249491 
L 393.587976 211.524923 
L 394.240281 207.341675 
L 394.892585 206.864754 
L 395.54489 205.877577 
L 396.197194 204.973709 
L 396.849499 203.294512 
L 397.501804 202.37889 
L 398.154108 201.607121 
L 398.806413 201.041453 
L 399.458717 200.197919 
L 400.111022 199.044304 
L 400.763327 198.679508 
L 401.415631 197.633549 
L 402.067936 196.925453 
L 402.72024 198.339595 
L 403.372545 197.278901 
L 404.02485 196.194659 
L 404.677154 195.274489 
L 405.329459 194.393339 
L 405.981764 192.580562 
L 406.634068 191.560324 
L 407.286373 190.961817 
L 407.938677 186.200364 
L 408.590982 185.344988 
L 409.243287 184.399643 
L 409.895591 183.607897 
L 410.547896 181.360337 
L 411.2002 180.41179 
L 411.852505 181.048013 
L 412.50481 178.091321 
L 413.157114 177.951627 
L 413.809419 177.117885 
L 414.461723 175.976336 
L 415.114028 174.550257 
L 415.766333 173.543078 
L 416.418637 172.526666 
L 417.070942 170.476718 
L 417.723246 169.270478 
L 418.375551 168.188423 
L 419.027856 167.070521 
L 419.68016 165.839584 
L 420.332465 164.717387 
L 420.98477 163.455558 
L 421.637074 162.376505 
L 422.289379 161.623437 
L 422.941683 160.412056 
L 423.593988 159.180064 
L 424.246293 158.078712 
L 424.898597 156.628892 
L 425.550902 155.569616 
L 426.203206 154.260482 
L 426.855511 153.094414 
L 427.507816 151.913333 
L 428.16012 150.721584 
L 428.812425 149.503868 
L 429.464729 147.342226 
L 430.117034 145.950803 
L 430.769339 144.592212 
L 431.421643 143.30795 
L 432.073948 142.656732 
L 432.726253 141.247307 
L 433.378557 139.543466 
L 434.030862 138.122127 
L 434.683166 136.708519 
L 435.335471 134.983173 
L 435.987776 133.401735 
L 436.64008 132.258036 
L 437.292385 130.513812 
L 437.944689 129.104364 
L 438.596994 127.504912 
L 439.249299 125.779265 
L 439.901603 124.181695 
L 440.553908 122.772618 
L 441.206212 120.874382 
L 441.858517 119.14443 
L 442.510822 117.058131 
L 443.163126 115.505362 
L 443.815431 113.372611 
L 444.467735 111.163757 
L 445.12004 108.795531 
L 445.772345 106.599124 
L 446.424649 103.96808 
L 447.076954 101.504082 
L 447.729259 99.099558 
L 448.381563 96.376474 
L 449.033868 93.961892 
L 449.686172 90.882781 
L 450.338477 87.791979 
L 450.990782 84.559701 
L 451.643086 80.761055 
L 452.295391 76.530839 
L 452.947695 71.103802 
L 452.947695 60.484326 
L 452.947695 60.484326 
L 452.295391 60.495809 
L 451.643086 60.524149 
L 450.990782 60.615824 
L 450.338477 60.567933 
L 449.686172 60.603811 
L 449.033868 60.826321 
L 448.381563 60.692603 
L 447.729259 60.785342 
L 447.076954 60.803626 
L 446.424649 60.91535 
L 445.772345 61.40042 
L 445.12004 61.453401 
L 444.467735 61.674771 
L 443.815431 61.929031 
L 443.163126 62.185249 
L 442.510822 62.139932 
L 441.858517 62.535804 
L 441.206212 62.581716 
L 440.553908 62.910635 
L 439.901603 62.752905 
L 439.249299 62.941594 
L 438.596994 63.200125 
L 437.944689 63.466354 
L 437.292385 63.545679 
L 436.64008 63.903731 
L 435.987776 63.808455 
L 435.335471 64.019778 
L 434.683166 64.570027 
L 434.030862 64.795231 
L 433.378557 65.025 
L 432.726253 65.573274 
L 432.073948 65.841889 
L 431.421643 65.400751 
L 430.769339 65.649407 
L 430.117034 65.90326 
L 429.464729 66.141168 
L 428.812425 67.265755 
L 428.16012 67.571575 
L 427.507816 67.850166 
L 426.855511 68.149457 
L 426.203206 68.27937 
L 425.550902 68.762045 
L 424.898597 68.931615 
L 424.246293 69.494428 
L 423.593988 69.715479 
L 422.941683 70.042389 
L 422.289379 70.468106 
L 421.637074 70.660886 
L 420.98477 71.023475 
L 420.332465 71.391592 
L 419.68016 71.743979 
L 419.027856 72.097534 
L 418.375551 72.455447 
L 417.723246 72.817696 
L 417.070942 73.18426 
L 416.418637 74.532699 
L 415.766333 74.927875 
L 415.114028 75.327299 
L 414.461723 76.02426 
L 413.809419 76.421231 
L 413.157114 76.430938 
L 412.50481 75.869336 
L 411.852505 78.266114 
L 411.2002 77.103715 
L 410.547896 77.480335 
L 409.895591 79.029718 
L 409.243287 79.250793 
L 408.590982 79.550554 
L 407.938677 79.905382 
L 407.286373 84.26136 
L 406.634068 84.388478 
L 405.981764 85.032334 
L 405.329459 86.336999 
L 404.677154 86.872058 
L 404.02485 87.410506 
L 403.372545 87.952802 
L 402.72024 88.498924 
L 402.067936 86.797042 
L 401.415631 87.236649 
L 400.763327 87.90583 
L 400.111022 87.935431 
L 399.458717 88.690066 
L 398.806413 89.233481 
L 398.154108 89.370983 
L 397.501804 89.854579 
L 396.849499 90.340691 
L 396.197194 91.56408 
L 395.54489 92.031472 
L 394.892585 92.500713 
L 394.240281 92.506686 
L 393.587976 96.347246 
L 392.935671 96.783439 
L 392.283367 97.427545 
L 391.631062 98.26543 
L 390.978758 98.456932 
L 390.326453 99.346449 
L 389.674148 99.999812 
L 389.021844 100.435865 
L 388.369539 100.983692 
L 387.717234 101.533583 
L 387.06493 102.085525 
L 386.412625 103.302377 
L 385.760321 103.973333 
L 385.108016 104.476554 
L 384.455711 105.0672 
L 383.803407 105.6602 
L 383.151102 106.560202 
L 382.498798 107.215049 
L 381.846493 107.873116 
L 381.194188 108.534385 
L 380.541884 109.198838 
L 379.889579 109.866461 
L 379.237275 110.95779 
L 378.58497 111.37209 
L 377.932665 112.398118 
L 377.280361 113.123983 
L 376.628056 113.849442 
L 375.975752 114.542796 
L 375.323447 116.57331 
L 374.671142 117.195554 
L 374.018838 117.853476 
L 373.366533 118.481703 
L 372.714228 119.023161 
L 372.061924 119.508474 
L 371.409619 120.169617 
L 370.757315 120.659532 
L 370.10501 121.283765 
L 369.452705 122.519364 
L 368.800401 122.727084 
L 368.148096 123.510575 
L 367.495792 124.129492 
L 366.843487 124.83432 
L 366.191182 125.541545 
L 365.538878 126.042748 
L 364.886573 126.786074 
L 364.234269 127.479615 
L 363.581964 127.762374 
L 362.929659 128.284331 
L 362.277355 129.031498 
L 361.62505 129.673678 
L 360.972745 130.149358 
L 360.320441 130.888559 
L 359.668136 132.558935 
L 359.015832 132.62003 
L 358.363527 133.520575 
L 357.711222 133.938 
L 357.058918 134.61545 
L 356.406613 135.239612 
L 355.754309 136.055812 
L 355.102004 136.692525 
L 354.449699 137.373143 
L 353.797395 138.400171 
L 353.14509 139.059456 
L 352.492786 139.007093 
L 351.840481 139.638707 
L 351.188176 140.201584 
L 350.535872 140.738197 
L 349.883567 141.092042 
L 349.231263 141.855297 
L 348.578958 142.495602 
L 347.926653 143.303336 
L 347.274349 144.064776 
L 346.622044 144.728708 
L 345.969739 145.616141 
L 345.317435 146.257189 
L 344.66513 146.606466 
L 344.012826 147.2979 
L 343.360521 150.139208 
L 342.708216 150.844434 
L 342.055912 149.83217 
L 341.403607 151.498937 
L 340.751303 152.309215 
L 340.098998 152.167861 
L 339.446693 152.871198 
L 338.794389 153.715685 
L 338.142084 154.50072 
L 337.48978 154.26464 
L 336.837475 158.578648 
L 336.18517 159.328343 
L 335.532866 159.565973 
L 334.880561 159.629485 
L 334.228257 160.869922 
L 333.575952 161.653662 
L 332.923647 162.440948 
L 332.271343 163.045062 
L 331.619038 163.885978 
L 330.966733 164.623935 
L 330.314429 163.956487 
L 329.662124 164.853781 
L 329.00982 165.478684 
L 328.357515 166.706335 
L 327.70521 167.513337 
L 327.052906 168.0919 
L 326.400601 169.3491 
L 325.748297 170.105749 
L 325.095992 171.207556 
L 324.443687 174.07281 
L 323.791383 174.781232 
L 323.139078 173.067206 
L 322.486774 176.559912 
L 321.834469 176.540939 
L 321.182164 176.737504 
L 320.52986 177.684411 
L 319.877555 178.559539 
L 319.225251 179.523689 
L 318.572946 180.041921 
L 317.920641 181.052309 
L 317.268337 181.611648 
L 316.616032 182.777117 
L 315.963727 183.154554 
L 315.311423 183.856589 
L 314.659118 184.55926 
L 314.006814 185.176344 
L 313.354509 185.966495 
L 312.702204 186.671052 
L 312.0499 187.37623 
L 311.397595 188.082025 
L 310.745291 189.018736 
L 310.092986 189.495451 
L 309.440681 190.713122 
L 308.788377 191.746435 
L 308.136072 192.164947 
L 307.483768 191.505266 
L 306.831463 192.558468 
L 306.179158 193.349107 
L 305.526854 193.759504 
L 304.874549 194.51254 
L 304.222244 195.318361 
L 303.56994 196.021011 
L 302.917635 196.776437 
L 302.265331 197.705996 
L 301.613026 198.623026 
L 300.960721 199.220108 
L 300.308417 199.9962 
L 299.656112 200.565242 
L 299.003808 201.325301 
L 298.351503 202.047333 
L 297.699198 202.643684 
L 297.046894 203.41679 
L 296.394589 206.735917 
L 295.742285 207.395338 
L 295.08998 210.296101 
L 294.437675 211.165803 
L 293.785371 211.984733 
L 293.133066 212.721438 
L 292.480762 213.217541 
L 291.828457 213.973094 
L 291.176152 214.796509 
L 290.523848 215.330398 
L 289.871543 212.218056 
L 289.219238 212.928006 
L 288.566934 213.558229 
L 287.914629 214.069008 
L 287.262325 215.677955 
L 286.61002 216.457291 
L 285.957715 217.062521 
L 285.305411 217.336791 
L 284.653106 219.967722 
L 284.000802 220.660813 
L 283.348497 218.47918 
L 282.696192 219.157529 
L 282.043888 218.930393 
L 281.391583 219.970397 
L 280.739279 220.57082 
L 280.086974 221.011791 
L 279.434669 221.435004 
L 278.782365 222.355746 
L 278.13006 223.067228 
L 277.477756 223.701823 
L 276.825451 224.269783 
L 276.173146 226.147695 
L 275.520842 227.14121 
L 274.868537 227.907301 
L 274.216232 228.680284 
L 273.563928 229.582049 
L 272.911623 230.48266 
L 272.259319 231.283941 
L 271.607014 231.888756 
L 270.954709 232.619072 
L 270.302405 233.231396 
L 269.6501 236.043828 
L 268.997796 236.733583 
L 268.345491 237.349971 
L 267.693186 237.081149 
L 267.040882 237.989508 
L 266.388577 238.692464 
L 265.736273 239.583546 
L 265.083968 240.270433 
L 264.431663 240.013761 
L 263.779359 240.363487 
L 263.127054 243.648724 
L 262.474749 242.136599 
L 261.822445 242.783636 
L 261.17014 243.369039 
L 260.517836 244.12142 
L 259.865531 242.479985 
L 259.213226 243.527234 
L 258.560922 244.105856 
L 257.908617 245.442597 
L 257.256313 246.432738 
L 256.604008 247.198995 
L 255.951703 247.794232 
L 255.299399 248.389481 
L 254.647094 248.869614 
L 253.99479 249.507789 
L 253.342485 250.112965 
L 252.69018 250.770616 
L 252.037876 251.858344 
L 251.385571 252.189017 
L 250.733267 252.944033 
L 250.080962 253.4025 
L 249.428657 253.716985 
L 248.776353 254.342814 
L 248.124048 254.868319 
L 247.471743 255.995347 
L 246.819439 256.643853 
L 246.167134 257.292477 
L 245.51483 257.911701 
L 244.862525 257.226931 
L 244.21022 258.246015 
L 243.557916 258.866313 
L 242.905611 259.610872 
L 242.253307 260.293597 
L 241.601002 260.639457 
L 240.948697 261.105947 
L 240.296393 261.78646 
L 239.644088 262.275591 
L 238.991784 268.89425 
L 238.339479 264.394019 
L 237.687174 270.326983 
L 237.03487 270.81562 
L 236.382565 267.921581 
L 235.730261 271.827039 
L 235.077956 272.471312 
L 234.425651 273.231209 
L 233.773347 273.610358 
L 233.121042 274.211659 
L 232.468737 274.704147 
L 231.816433 275.152804 
L 231.164128 275.791852 
L 230.511824 276.344243 
L 229.859519 276.890791 
L 229.207214 277.490353 
L 228.55491 278.131655 
L 227.902605 278.67173 
L 227.250301 280.449797 
L 226.597996 280.930589 
L 225.945691 279.036659 
L 225.293387 279.777034 
L 224.641082 281.980611 
L 223.988778 281.946632 
L 223.336473 282.908555 
L 222.684168 283.488113 
L 222.031864 282.859369 
L 221.379559 283.475942 
L 220.727255 284.954795 
L 220.07495 285.180536 
L 219.422645 285.719305 
L 218.770341 286.084003 
L 218.118036 287.239255 
L 217.465731 288.12381 
L 216.813427 288.628071 
L 216.161122 289.125625 
L 215.508818 290.55565 
L 214.856513 291.324495 
L 214.204208 292.027049 
L 213.551904 292.502992 
L 212.899599 285.2841 
L 212.247295 285.897902 
L 211.59499 293.101218 
L 210.942685 293.907325 
L 210.290381 294.713764 
L 209.638076 294.804359 
L 208.985772 295.561318 
L 208.333467 295.102183 
L 207.681162 295.634532 
L 207.028858 296.115804 
L 206.376553 296.529165 
L 205.724248 293.712039 
L 205.071944 294.315197 
L 204.419639 295.004123 
L 203.767335 295.412872 
L 203.11503 295.817355 
L 202.462725 296.638189 
L 201.810421 297.252745 
L 201.158116 297.745311 
L 200.505812 298.328545 
L 199.853507 299.495736 
L 199.201202 299.840546 
L 198.548898 300.191586 
L 197.896593 300.900045 
L 197.244289 301.229023 
L 196.591984 301.675193 
L 195.939679 302.185588 
L 195.287375 304.297088 
L 194.63507 306.162443 
L 193.982766 306.740022 
L 193.330461 307.301641 
L 192.678156 307.529786 
L 192.025852 307.981466 
L 191.373547 308.851066 
L 190.721242 309.388656 
L 190.068938 309.965321 
L 189.416633 310.430924 
L 188.764329 310.775991 
L 188.112024 311.266277 
L 187.459719 311.686604 
L 186.807415 312.143583 
L 186.15511 312.419403 
L 185.502806 312.845658 
L 184.850501 313.196574 
L 184.198196 313.838499 
L 183.545892 314.311485 
L 182.893587 314.649651 
L 182.241283 315.257395 
L 181.588978 315.735826 
L 180.936673 315.716065 
L 180.284369 316.016117 
L 179.632064 320.686884 
L 178.97976 321.321694 
L 178.327455 321.848651 
L 177.67515 322.840489 
L 177.022846 321.042636 
L 176.370541 321.587762 
L 175.718236 322.132925 
L 175.065932 322.657968 
L 174.413627 323.578108 
L 173.761323 324.338353 
L 173.109018 324.644171 
L 172.456713 325.329293 
L 171.804409 326.674246 
L 171.152104 326.927832 
L 170.4998 327.474212 
L 169.847495 328.141613 
L 169.19519 328.619642 
L 168.542886 329.519262 
L 167.890581 328.305559 
L 167.238277 328.75506 
L 166.585972 329.251108 
L 165.933667 329.723901 
L 165.281363 329.9202 
L 164.629058 330.238858 
L 163.976754 331.000465 
L 163.324449 332.759283 
L 162.672144 333.362843 
L 162.01984 333.878544 
L 161.367535 334.138199 
L 160.71523 334.684538 
L 160.062926 335.230942 
L 159.410621 335.59617 
L 158.758317 335.665177 
L 158.106012 335.993713 
L 157.453707 335.818496 
L 156.801403 336.345371 
L 156.149098 337.169991 
L 155.496794 337.215357 
L 154.844489 337.761585 
L 154.192184 338.366587 
L 153.53988 339.192866 
L 152.887575 339.875478 
L 152.235271 340.360919 
L 151.582966 340.980013 
L 150.930661 340.791654 
L 150.278357 341.804588 
L 149.626052 342.301187 
L 148.973747 342.641694 
L 148.321443 342.96518 
L 147.669138 343.288669 
L 147.016834 345.373965 
L 146.364529 346.023794 
L 145.712224 346.780715 
L 145.05992 347.026101 
L 144.407615 348.152479 
L 143.755311 348.050586 
L 143.103006 349.196543 
L 142.450701 347.548386 
L 141.798397 350.561952 
L 141.146092 350.202602 
L 140.493788 350.473596 
L 139.841483 350.958424 
L 139.189178 351.433183 
L 138.536874 349.571443 
L 137.884569 350.237492 
L 137.232265 350.678994 
L 136.57996 351.041632 
L 135.927655 351.642309 
L 135.275351 351.992311 
L 134.623046 352.070742 
L 133.970741 352.487537 
L 133.318437 352.889501 
L 132.666132 353.321354 
L 132.013828 353.73838 
L 131.361523 354.155487 
L 130.709218 355.09848 
L 130.056914 355.638073 
L 129.404609 356.043369 
L 128.752305 355.824765 
L 128.1 356.868811 
z
" style="fill:#1f77b4;"/>
   </g>
   <g id="PolyCollection_2">
    <path clip-path="url(#pab65125fca)" d="M 128.1 419.524368 
L 128.1 476.952883 
L 128.752305 476.280981 
L 129.404609 475.596713 
L 130.056914 474.323552 
L 130.709218 473.684995 
L 131.361523 473.064275 
L 132.013828 472.432408 
L 132.666132 471.898563 
L 133.318437 471.58746 
L 133.970741 470.259324 
L 134.623046 470.308966 
L 135.275351 467.336017 
L 135.927655 466.537834 
L 136.57996 465.919828 
L 137.232265 464.940457 
L 137.884569 465.410631 
L 138.536874 464.737846 
L 139.189178 463.871016 
L 139.841483 463.49219 
L 140.493788 462.878347 
L 141.146092 462.13734 
L 141.798397 460.904059 
L 142.450701 460.329543 
L 143.103006 459.554246 
L 143.755311 458.932142 
L 144.407615 458.253983 
L 145.05992 457.849583 
L 145.712224 457.73431 
L 146.364529 456.487316 
L 147.016834 455.851911 
L 147.669138 454.551659 
L 148.321443 453.789544 
L 148.973747 453.132418 
L 149.626052 452.385697 
L 150.278357 451.770005 
L 150.930661 452.555615 
L 151.582966 450.162995 
L 152.235271 449.044098 
L 152.887575 448.160983 
L 153.53988 448.418363 
L 154.192184 447.697086 
L 154.844489 446.484946 
L 155.496794 445.740132 
L 156.149098 444.893369 
L 156.801403 444.305395 
L 157.453707 443.945951 
L 158.106012 443.132012 
L 158.758317 442.667317 
L 159.410621 442.020602 
L 160.062926 441.180614 
L 160.71523 440.464357 
L 161.367535 439.609342 
L 162.01984 439.032062 
L 162.672144 438.467404 
L 163.324449 437.885712 
L 163.976754 430.189444 
L 164.629058 429.508049 
L 165.281363 428.852958 
L 165.933667 423.969745 
L 166.585972 427.61287 
L 167.238277 427.247775 
L 167.890581 426.357711 
L 168.542886 421.617363 
L 169.19519 425.135338 
L 169.847495 420.265776 
L 170.4998 419.631802 
L 171.152104 416.602516 
L 171.804409 416.420223 
L 172.456713 415.735414 
L 173.109018 415.035673 
L 173.761323 414.393997 
L 174.413627 413.74065 
L 175.065932 418.655802 
L 175.718236 412.996452 
L 176.370541 417.236203 
L 177.022846 414.961402 
L 177.67515 414.504259 
L 178.327455 414.09958 
L 178.97976 412.750739 
L 179.632064 412.033771 
L 180.284369 411.319902 
L 180.936673 410.321333 
L 181.588978 409.436651 
L 182.241283 408.702659 
L 182.893587 408.506928 
L 183.545892 407.766796 
L 184.198196 407.327885 
L 184.850501 406.655433 
L 185.502806 406.044365 
L 186.15511 405.197494 
L 186.807415 405.91055 
L 187.459719 405.410606 
L 188.112024 404.732478 
L 188.764329 402.79491 
L 189.416633 403.858613 
L 190.068938 403.363917 
L 190.721242 402.479422 
L 191.373547 401.767086 
L 192.025852 401.290447 
L 192.678156 400.831612 
L 193.330461 399.243998 
L 193.982766 398.643673 
L 194.63507 398.124994 
L 195.287375 397.413568 
L 195.939679 396.500122 
L 196.591984 395.016789 
L 197.244289 395.151575 
L 197.896593 394.6333 
L 198.548898 393.977165 
L 199.201202 393.343942 
L 199.853507 392.650376 
L 200.505812 389.011175 
L 201.158116 388.371743 
L 201.810421 387.798343 
L 202.462725 387.196619 
L 203.11503 386.540594 
L 203.767335 385.244722 
L 204.419639 385.78504 
L 205.071944 384.904237 
L 205.724248 383.677076 
L 206.376553 384.597045 
L 207.028858 384.069394 
L 207.681162 383.26216 
L 208.333467 382.760065 
L 208.985772 381.780772 
L 209.638076 380.371193 
L 210.290381 379.854872 
L 210.942685 380.337315 
L 211.59499 379.440551 
L 212.247295 378.110938 
L 212.899599 377.53196 
L 213.551904 376.797152 
L 214.204208 376.074845 
L 214.856513 375.79502 
L 215.508818 375.17378 
L 216.161122 374.53456 
L 216.813427 369.601465 
L 217.465731 368.981551 
L 218.118036 368.521773 
L 218.770341 372.999921 
L 219.422645 372.607328 
L 220.07495 371.714013 
L 220.727255 370.950391 
L 221.379559 366.198908 
L 222.031864 365.683835 
L 222.684168 364.590446 
L 223.336473 363.761486 
L 223.988778 363.948934 
L 224.641082 365.149862 
L 225.293387 364.367538 
L 225.945691 363.82843 
L 226.597996 362.754441 
L 227.250301 359.383959 
L 227.902605 361.825499 
L 228.55491 360.961092 
L 229.207214 361.4666 
L 229.859519 361.035057 
L 230.511824 360.035203 
L 231.164128 359.424791 
L 231.816433 358.625915 
L 232.468737 357.833336 
L 233.121042 357.024163 
L 233.773347 354.559795 
L 234.425651 354.320372 
L 235.077956 351.623427 
L 235.730261 350.920176 
L 236.382565 350.306613 
L 237.03487 351.545182 
L 237.687174 347.537679 
L 238.339479 347.037637 
L 238.991784 346.862626 
L 239.644088 346.095171 
L 240.296393 345.414648 
L 240.948697 345.027644 
L 241.601002 344.176534 
L 242.253307 343.592349 
L 242.905611 342.752606 
L 243.557916 341.993629 
L 244.21022 342.539203 
L 244.862525 342.073998 
L 245.51483 341.402399 
L 246.167134 340.689403 
L 246.819439 339.771521 
L 247.471743 339.047755 
L 248.124048 338.797681 
L 248.776353 338.345963 
L 249.428657 337.736488 
L 250.080962 336.633858 
L 250.733267 336.235574 
L 251.385571 335.609824 
L 252.037876 334.99389 
L 252.69018 334.247835 
L 253.342485 333.161007 
L 253.99479 332.957078 
L 254.647094 331.62594 
L 255.299399 331.023575 
L 255.951703 330.403952 
L 256.604008 330.999824 
L 257.256313 330.279952 
L 257.908617 329.209393 
L 258.560922 328.330316 
L 259.213226 327.467634 
L 259.865531 326.604827 
L 260.517836 326.070258 
L 261.17014 325.471019 
L 261.822445 324.450663 
L 262.474749 323.735082 
L 263.127054 323.073372 
L 263.779359 322.213027 
L 264.431663 321.61964 
L 265.083968 321.008111 
L 265.736273 320.160609 
L 266.388577 319.243473 
L 267.040882 316.521359 
L 267.693186 315.693796 
L 268.345491 315.058094 
L 268.997796 314.189868 
L 269.6501 313.492814 
L 270.302405 312.390624 
L 270.954709 315.952192 
L 271.607014 315.388554 
L 272.259319 314.67479 
L 272.911623 314.068755 
L 273.563928 313.990919 
L 274.216232 313.160468 
L 274.868537 312.439603 
L 275.520842 311.227164 
L 276.173146 310.653491 
L 276.825451 308.412054 
L 277.477756 308.093753 
L 278.13006 307.40247 
L 278.782365 306.285477 
L 279.434669 306.152574 
L 280.086974 305.537697 
L 280.739279 305.043721 
L 281.391583 304.083179 
L 282.043888 303.448711 
L 282.696192 302.844886 
L 283.348497 302.125551 
L 284.000802 301.439399 
L 284.653106 301.114238 
L 285.305411 300.459522 
L 285.957715 300.05341 
L 286.61002 299.253669 
L 287.262325 298.071065 
L 287.914629 293.405246 
L 288.566934 292.845631 
L 289.219238 298.257741 
L 289.871543 297.481683 
L 290.523848 294.634769 
L 291.176152 295.657637 
L 291.828457 294.952903 
L 292.480762 289.30132 
L 293.133066 288.420495 
L 293.785371 288.982633 
L 294.437675 287.736511 
L 295.08998 287.092206 
L 295.742285 286.513096 
L 296.394589 285.736376 
L 297.046894 285.07654 
L 297.699198 284.598725 
L 298.351503 284.104166 
L 299.003808 283.575199 
L 299.656112 282.427423 
L 300.308417 281.814694 
L 300.960721 280.927673 
L 301.613026 280.247659 
L 302.265331 279.616861 
L 302.917635 278.824181 
L 303.56994 277.917805 
L 304.222244 277.279309 
L 304.874549 277.44755 
L 305.526854 276.230466 
L 306.179158 275.491352 
L 306.831463 274.779542 
L 307.483768 273.91503 
L 308.136072 273.165731 
L 308.788377 272.574515 
L 309.440681 272.4755 
L 310.092986 271.265912 
L 310.745291 270.570904 
L 311.397595 270.146835 
L 312.0499 269.440658 
L 312.702204 266.379333 
L 313.354509 263.040222 
L 314.006814 267.057188 
L 314.659118 263.989627 
L 315.311423 264.875411 
L 315.963727 263.894117 
L 316.616032 263.099616 
L 317.268337 261.910768 
L 317.920641 261.262532 
L 318.572946 260.361986 
L 319.225251 259.563264 
L 319.877555 258.276059 
L 320.52986 257.456957 
L 321.182164 256.796526 
L 321.834469 256.094828 
L 322.486774 255.871283 
L 323.139078 252.098815 
L 323.791383 254.560777 
L 324.443687 253.995965 
L 325.095992 252.815588 
L 325.748297 252.130207 
L 326.400601 251.25322 
L 327.052906 250.232633 
L 327.70521 249.220233 
L 328.357515 248.564892 
L 329.00982 247.823979 
L 329.662124 246.674921 
L 330.314429 246.117311 
L 330.966733 245.287935 
L 331.619038 245.020168 
L 332.271343 244.005975 
L 332.923647 243.282188 
L 333.575952 241.949609 
L 334.228257 241.551817 
L 334.880561 240.540607 
L 335.532866 240.022469 
L 336.18517 239.179956 
L 336.837475 237.658929 
L 337.48978 236.860082 
L 338.142084 236.367278 
L 338.794389 235.719976 
L 339.446693 235.38856 
L 340.098998 234.879949 
L 340.751303 234.430861 
L 341.403607 233.51593 
L 342.055912 231.073972 
L 342.708216 230.564907 
L 343.360521 229.753733 
L 344.012826 229.016804 
L 344.66513 227.804406 
L 345.317435 227.387857 
L 345.969739 226.615436 
L 346.622044 225.24711 
L 347.274349 225.645173 
L 347.926653 225.470085 
L 348.578958 224.934271 
L 349.231263 223.830209 
L 349.883567 223.025699 
L 350.535872 222.303925 
L 351.188176 221.583982 
L 351.840481 220.766034 
L 352.492786 219.877127 
L 353.14509 219.470533 
L 353.797395 218.644842 
L 354.449699 218.065039 
L 355.102004 217.230704 
L 355.754309 212.205316 
L 356.406613 215.292571 
L 357.058918 214.452436 
L 357.711222 210.688746 
L 358.363527 209.914618 
L 359.015832 209.438345 
L 359.668136 209.141206 
L 360.320441 208.202255 
L 360.972745 207.436843 
L 361.62505 204.167482 
L 362.277355 203.362748 
L 362.929659 203.402905 
L 363.581964 202.734935 
L 364.234269 201.840634 
L 364.886573 200.336333 
L 365.538878 199.399765 
L 366.191182 199.629417 
L 366.843487 198.57375 
L 367.495792 197.82566 
L 368.148096 197.057488 
L 368.800401 196.388994 
L 369.452705 195.396044 
L 370.10501 194.476863 
L 370.757315 193.727749 
L 371.409619 192.978444 
L 372.061924 192.369369 
L 372.714228 191.27834 
L 373.366533 190.547723 
L 374.018838 189.795583 
L 374.671142 188.755934 
L 375.323447 188.070696 
L 375.975752 187.480626 
L 376.628056 185.546103 
L 377.280361 184.845484 
L 377.932665 183.959003 
L 378.58497 185.909428 
L 379.237275 184.908605 
L 379.889579 184.042353 
L 380.541884 181.563973 
L 381.194188 182.307764 
L 381.846493 180.010071 
L 382.498798 179.002413 
L 383.151102 178.385595 
L 383.803407 177.938051 
L 384.455711 176.932937 
L 385.108016 176.091532 
L 385.760321 175.141966 
L 386.412625 174.254584 
L 387.06493 173.809862 
L 387.717234 173.163706 
L 388.369539 172.304071 
L 389.021844 171.404783 
L 389.674148 170.675223 
L 390.326453 169.446498 
L 390.978758 168.823675 
L 391.631062 168.122772 
L 392.283367 167.210351 
L 392.935671 166.381367 
L 393.587976 164.084181 
L 394.240281 164.960833 
L 394.892585 163.928866 
L 395.54489 163.102384 
L 396.197194 162.255088 
L 396.849499 161.307392 
L 397.501804 160.427399 
L 398.154108 158.027927 
L 398.806413 157.425642 
L 399.458717 156.500957 
L 400.111022 155.615552 
L 400.763327 154.656063 
L 401.415631 153.70708 
L 402.067936 153.663967 
L 402.72024 152.737538 
L 403.372545 151.866389 
L 404.02485 150.982338 
L 404.677154 145.994828 
L 405.329459 145.450215 
L 405.981764 144.36143 
L 406.634068 143.357114 
L 407.286373 142.438712 
L 407.938677 141.881356 
L 408.590982 140.966805 
L 409.243287 139.406846 
L 409.895591 138.531357 
L 410.547896 137.598793 
L 411.2002 136.441992 
L 411.852505 135.532718 
L 412.50481 134.635201 
L 413.157114 134.156727 
L 413.809419 133.195914 
L 414.461723 132.135328 
L 415.114028 131.172422 
L 415.766333 130.329797 
L 416.418637 129.29283 
L 417.070942 127.502264 
L 417.723246 126.460783 
L 418.375551 125.171542 
L 419.027856 124.182365 
L 419.68016 123.117103 
L 420.332465 121.577772 
L 420.98477 120.464008 
L 421.637074 119.409594 
L 422.289379 117.589047 
L 422.941683 117.459489 
L 423.593988 116.48871 
L 424.246293 115.302796 
L 424.898597 114.288762 
L 425.550902 113.008829 
L 426.203206 111.888699 
L 426.855511 108.628034 
L 427.507816 107.66446 
L 428.16012 108.71557 
L 428.812425 107.687293 
L 429.464729 106.5864 
L 430.117034 103.372623 
L 430.769339 102.361362 
L 431.421643 101.154982 
L 432.073948 100.120889 
L 432.726253 99.096982 
L 433.378557 97.35518 
L 434.030862 97.05516 
L 434.683166 94.095166 
L 435.335471 92.982126 
L 435.987776 91.868819 
L 436.64008 90.310906 
L 437.292385 89.2691 
L 437.944689 88.240431 
L 438.596994 87.303576 
L 439.249299 86.188315 
L 439.901603 85.08108 
L 440.553908 84.030298 
L 441.206212 82.966307 
L 441.858517 81.805716 
L 442.510822 80.722749 
L 443.163126 79.794731 
L 443.815431 78.267121 
L 444.467735 77.22163 
L 445.12004 76.069569 
L 445.772345 75.037881 
L 446.424649 73.460518 
L 447.076954 72.351939 
L 447.729259 71.232061 
L 448.381563 69.658917 
L 449.033868 68.549567 
L 449.686172 67.413086 
L 450.338477 66.292472 
L 450.990782 65.167297 
L 451.643086 63.967937 
L 452.295391 62.818451 
L 452.947695 61.688257 
L 452.947695 60.501724 
L 452.947695 60.501724 
L 452.295391 60.522147 
L 451.643086 60.61232 
L 450.990782 60.796182 
L 450.338477 60.923516 
L 449.686172 61.06651 
L 449.033868 61.289916 
L 448.381563 61.475264 
L 447.729259 62.202404 
L 447.076954 62.469726 
L 446.424649 62.747988 
L 445.772345 63.522327 
L 445.12004 63.768311 
L 444.467735 64.145374 
L 443.815431 64.455254 
L 443.163126 65.275518 
L 442.510822 65.50707 
L 441.858517 65.919401 
L 441.206212 66.468858 
L 440.553908 66.857311 
L 439.901603 67.241313 
L 439.249299 67.674111 
L 438.596994 68.120814 
L 437.944689 68.432933 
L 437.292385 68.831554 
L 436.64008 69.262467 
L 435.987776 70.231005 
L 435.335471 70.765119 
L 434.683166 71.321862 
L 434.030862 73.7156 
L 433.378557 73.507776 
L 432.726253 74.777844 
L 432.073948 75.370767 
L 431.421643 75.95967 
L 430.769339 76.680886 
L 430.117034 77.267973 
L 429.464729 79.976706 
L 428.812425 80.694114 
L 428.16012 81.276152 
L 427.507816 79.814408 
L 426.855511 80.38305 
L 426.203206 83.237206 
L 425.550902 83.921817 
L 424.898597 84.794913 
L 424.246293 85.451103 
L 423.593988 86.309625 
L 422.941683 86.901114 
L 422.289379 86.598679 
L 421.637074 88.043327 
L 420.98477 88.738024 
L 420.332465 89.458485 
L 419.68016 90.666287 
L 419.027856 91.403833 
L 418.375551 92.052491 
L 417.723246 93.047688 
L 417.070942 93.786416 
L 416.418637 95.27233 
L 415.766333 96.096018 
L 415.114028 96.653098 
L 414.461723 97.386549 
L 413.809419 98.221066 
L 413.157114 98.85744 
L 412.50481 99.097329 
L 411.852505 99.810929 
L 411.2002 100.49434 
L 410.547896 101.446817 
L 409.895591 102.108136 
L 409.243287 102.759105 
L 408.590982 104.042928 
L 407.938677 104.694654 
L 407.286373 105.043387 
L 406.634068 105.741161 
L 405.981764 106.509691 
L 405.329459 107.39256 
L 404.677154 107.698481 
L 404.02485 112.541764 
L 403.372545 113.282674 
L 402.72024 113.985455 
L 402.067936 114.72263 
L 401.415631 114.633151 
L 400.763327 115.464491 
L 400.111022 116.298531 
L 399.458717 116.969033 
L 398.806413 117.718354 
L 398.154108 118.080489 
L 397.501804 120.347775 
L 396.849499 121.108543 
L 396.197194 121.887209 
L 395.54489 122.571626 
L 394.892585 123.269859 
L 394.240281 124.164518 
L 393.587976 123.120275 
L 392.935671 125.331392 
L 392.283367 126.042332 
L 391.631062 126.846124 
L 390.978758 127.418601 
L 390.326453 127.919932 
L 389.674148 129.094295 
L 389.021844 129.673197 
L 388.369539 130.502385 
L 387.717234 131.298964 
L 387.06493 131.820327 
L 386.412625 132.150598 
L 385.760321 132.994909 
L 385.108016 133.813585 
L 384.455711 134.573532 
L 383.803407 135.471874 
L 383.151102 135.753506 
L 382.498798 136.290886 
L 381.846493 137.221817 
L 381.194188 139.379354 
L 380.541884 138.522535 
L 379.889579 140.916882 
L 379.237275 141.707311 
L 378.58497 142.622466 
L 377.932665 140.524924 
L 377.280361 141.336696 
L 376.628056 141.943131 
L 375.975752 143.806942 
L 375.323447 144.414315 
L 374.671142 145.031836 
L 374.018838 146.017514 
L 373.366533 146.735293 
L 372.714228 147.508853 
L 372.061924 148.547059 
L 371.409619 149.119638 
L 370.757315 149.864373 
L 370.10501 150.59155 
L 369.452705 151.408762 
L 368.800401 152.322908 
L 368.148096 152.883234 
L 367.495792 153.622729 
L 366.843487 154.289225 
L 366.191182 155.271619 
L 365.538878 154.945268 
L 364.886573 155.879984 
L 364.234269 157.272983 
L 363.581964 158.113513 
L 362.929659 158.709045 
L 362.277355 158.622019 
L 361.62505 159.343674 
L 360.972745 162.59021 
L 360.320441 163.263068 
L 359.668136 164.190744 
L 359.015832 164.382627 
L 358.363527 164.78081 
L 357.711222 165.561232 
L 357.058918 169.275706 
L 356.406613 170.110408 
L 355.754309 167.07386 
L 355.102004 172.159993 
L 354.449699 172.981097 
L 353.797395 173.567483 
L 353.14509 174.459579 
L 352.492786 174.867924 
L 351.840481 175.807583 
L 351.188176 176.682312 
L 350.535872 177.316939 
L 349.883567 178.037887 
L 349.231263 178.878691 
L 348.578958 179.902647 
L 347.926653 180.359771 
L 347.274349 180.528567 
L 346.622044 180.191532 
L 345.969739 181.633727 
L 345.317435 182.498041 
L 344.66513 182.904817 
L 344.012826 184.129727 
L 343.360521 184.871384 
L 342.708216 185.708371 
L 342.055912 186.158755 
L 341.403607 188.560395 
L 340.751303 189.567531 
L 340.098998 189.984224 
L 339.446693 190.579974 
L 338.794389 191.023352 
L 338.142084 191.736928 
L 337.48978 192.137218 
L 336.837475 192.985815 
L 336.18517 194.420138 
L 335.532866 195.335287 
L 334.880561 195.850791 
L 334.228257 196.841793 
L 333.575952 197.237479 
L 332.923647 198.597359 
L 332.271343 199.413149 
L 331.619038 200.483701 
L 330.966733 200.759748 
L 330.314429 201.624871 
L 329.662124 202.169649 
L 329.00982 203.32844 
L 328.357515 204.092073 
L 327.70521 204.633183 
L 327.052906 205.533248 
L 326.400601 206.520783 
L 325.748297 207.364607 
L 325.095992 208.086833 
L 324.443687 209.208933 
L 323.791383 209.811743 
L 323.139078 207.356636 
L 322.486774 211.08296 
L 321.834469 211.496315 
L 321.182164 212.254299 
L 320.52986 212.885851 
L 319.877555 213.660762 
L 319.225251 214.890562 
L 318.572946 215.687563 
L 317.920641 216.52004 
L 317.268337 217.163022 
L 316.616032 218.34133 
L 315.963727 219.188232 
L 315.311423 220.181487 
L 314.659118 219.29839 
L 314.006814 222.375193 
L 313.354509 218.385188 
L 312.702204 221.698195 
L 312.0499 224.72594 
L 311.397595 225.54491 
L 310.745291 226.008285 
L 310.092986 226.7187 
L 309.440681 227.954107 
L 308.788377 228.154652 
L 308.136072 228.783872 
L 307.483768 229.552068 
L 306.831463 230.415356 
L 306.179158 231.191174 
L 305.526854 231.911623 
L 304.874549 233.105095 
L 304.222244 232.949689 
L 303.56994 233.697806 
L 302.917635 234.675482 
L 302.265331 235.52511 
L 301.613026 236.110087 
L 300.960721 236.807804 
L 300.308417 237.676388 
L 299.656112 238.267014 
L 299.003808 239.34367 
L 298.351503 239.929456 
L 297.699198 240.400921 
L 297.046894 240.95931 
L 296.394589 241.677413 
L 295.742285 242.466092 
L 295.08998 243.031924 
L 294.437675 243.70459 
L 293.785371 244.848463 
L 293.133066 244.264436 
L 292.480762 245.198283 
L 291.828457 250.881307 
L 291.176152 251.640129 
L 290.523848 250.604198 
L 289.871543 253.556366 
L 289.219238 254.34059 
L 288.566934 248.991704 
L 287.914629 249.487563 
L 287.262325 254.165901 
L 286.61002 255.442275 
L 285.957715 256.30879 
L 285.305411 256.747189 
L 284.653106 257.488841 
L 284.000802 257.855762 
L 283.348497 258.615706 
L 282.696192 259.292267 
L 282.043888 259.975928 
L 281.391583 260.579661 
L 280.739279 261.627392 
L 280.086974 262.054403 
L 279.434669 262.725017 
L 278.782365 262.831194 
L 278.13006 263.97693 
L 277.477756 264.642186 
L 276.825451 264.88455 
L 276.173146 267.222408 
L 275.520842 267.821315 
L 274.868537 269.022427 
L 274.216232 269.758183 
L 273.563928 270.5781 
L 272.911623 270.624894 
L 272.259319 271.271351 
L 271.607014 271.976521 
L 270.954709 272.565546 
L 270.302405 269.070164 
L 269.6501 270.287106 
L 268.997796 271.066552 
L 268.345491 271.8917 
L 267.693186 272.503923 
L 267.040882 273.287007 
L 266.388577 276.031813 
L 265.736273 276.954222 
L 265.083968 277.837793 
L 264.431663 278.48631 
L 263.779359 279.044699 
L 263.127054 279.886361 
L 262.474749 280.627478 
L 261.822445 281.338488 
L 261.17014 282.518027 
L 260.517836 283.093257 
L 259.865531 283.610451 
L 259.213226 284.466784 
L 258.560922 285.290774 
L 257.908617 286.182315 
L 257.256313 287.149892 
L 256.604008 287.831964 
L 255.951703 287.220397 
L 255.299399 287.805968 
L 254.647094 288.391147 
L 253.99479 289.712184 
L 253.342485 289.926456 
L 252.69018 291.015824 
L 252.037876 291.795874 
L 251.385571 292.38042 
L 250.733267 292.984772 
L 250.080962 293.407848 
L 249.428657 294.549219 
L 248.776353 295.131246 
L 248.124048 295.609985 
L 247.471743 295.838625 
L 246.819439 296.562709 
L 246.167134 297.477088 
L 245.51483 298.175669 
L 244.862525 298.763395 
L 244.21022 299.238597 
L 243.557916 298.673612 
L 242.905611 299.435529 
L 242.253307 300.255851 
L 241.601002 300.843803 
L 240.948697 301.651175 
L 240.296393 301.971515 
L 239.644088 302.675752 
L 238.991784 303.325554 
L 238.339479 303.457136 
L 237.687174 303.989329 
L 237.03487 307.885627 
L 236.382565 306.58751 
L 235.730261 307.153629 
L 235.077956 307.876005 
L 234.425651 310.498501 
L 233.773347 310.66976 
L 233.121042 313.073485 
L 232.468737 313.864096 
L 231.816433 314.719162 
L 231.164128 315.464297 
L 230.511824 316.024553 
L 229.859519 316.949092 
L 229.207214 317.261111 
L 228.55491 316.7202 
L 227.902605 317.490361 
L 227.250301 315.000861 
L 226.597996 318.335505 
L 225.945691 319.429422 
L 225.293387 319.99709 
L 224.641082 320.576157 
L 223.988778 319.318032 
L 223.336473 318.966082 
L 222.684168 319.756914 
L 222.031864 320.817187 
L 221.379559 321.316267 
L 220.727255 325.969193 
L 220.07495 326.68234 
L 219.422645 327.507207 
L 218.770341 327.80042 
L 218.118036 323.193126 
L 217.465731 323.594471 
L 216.813427 324.117345 
L 216.161122 329.069034 
L 215.508818 329.680641 
L 214.856513 330.221914 
L 214.204208 330.498837 
L 213.551904 331.317521 
L 212.899599 331.995277 
L 212.247295 332.435785 
L 211.59499 333.580751 
L 210.942685 334.413107 
L 210.290381 333.746639 
L 209.638076 334.243368 
L 208.985772 335.538403 
L 208.333467 336.411417 
L 207.681162 336.77738 
L 207.028858 337.497922 
L 206.376553 337.8732 
L 205.724248 336.8327 
L 205.071944 338.042886 
L 204.419639 338.754352 
L 203.767335 338.151711 
L 203.11503 339.358229 
L 202.462725 339.919861 
L 201.810421 340.491633 
L 201.158116 340.949928 
L 200.505812 341.508088 
L 199.853507 344.991586 
L 199.201202 345.615046 
L 198.548898 346.126138 
L 197.896593 346.688398 
L 197.244289 347.093073 
L 196.591984 346.924278 
L 195.939679 348.372336 
L 195.287375 349.235465 
L 194.63507 349.889597 
L 193.982766 350.280605 
L 193.330461 350.744079 
L 192.678156 352.269884 
L 192.025852 352.579772 
L 191.373547 352.998211 
L 190.721242 353.694441 
L 190.068938 354.36761 
L 189.416633 354.77164 
L 188.764329 353.523993 
L 188.112024 355.405665 
L 187.459719 356.010851 
L 186.807415 356.396448 
L 186.15511 355.568151 
L 185.502806 356.297104 
L 184.850501 356.846203 
L 184.198196 357.436507 
L 183.545892 357.844299 
L 182.893587 358.477274 
L 182.241283 358.593718 
L 181.588978 359.347511 
L 180.936673 360.062432 
L 180.284369 361.083285 
L 179.632064 361.659618 
L 178.97976 362.213255 
L 178.327455 363.355609 
L 177.67515 363.6178 
L 177.022846 363.928742 
L 176.370541 366.090083 
L 175.718236 361.750181 
L 175.065932 367.398616 
L 174.413627 362.371763 
L 173.761323 362.956563 
L 173.109018 363.527941 
L 172.456713 364.082416 
L 171.804409 364.58483 
L 171.152104 364.700902 
L 170.4998 367.634003 
L 169.847495 368.153603 
L 169.19519 372.9091 
L 168.542886 369.369304 
L 167.890581 374.017651 
L 167.238277 374.837347 
L 166.585972 375.136346 
L 165.933667 371.392959 
L 165.281363 376.129076 
L 164.629058 376.623172 
L 163.976754 377.214548 
L 163.324449 384.87358 
L 162.672144 385.306588 
L 162.01984 385.835711 
L 161.367535 386.353613 
L 160.71523 387.131981 
L 160.062926 387.742897 
L 159.410621 388.59687 
L 158.758317 389.269246 
L 158.106012 389.678947 
L 157.453707 390.369967 
L 156.801403 390.599751 
L 156.149098 391.089954 
L 155.496794 391.841887 
L 154.844489 392.531723 
L 154.192184 393.605276 
L 153.53988 394.261674 
L 152.887575 393.93062 
L 152.235271 394.678336 
L 151.582966 395.747907 
L 150.930661 398.091211 
L 150.278357 397.192613 
L 149.626052 397.857274 
L 148.973747 398.52164 
L 148.321443 399.074086 
L 147.669138 399.767206 
L 147.016834 401.02313 
L 146.364529 401.561203 
L 145.712224 402.763056 
L 145.05992 402.796265 
L 144.407615 403.144357 
L 143.755311 403.80444 
L 143.103006 404.277588 
L 142.450701 404.921953 
L 141.798397 405.3321 
L 141.146092 406.475733 
L 140.493788 407.125893 
L 139.841483 407.648641 
L 139.189178 408.052259 
L 138.536874 408.734562 
L 137.884569 409.263387 
L 137.232265 408.668595 
L 136.57996 409.586515 
L 135.927655 410.113449 
L 135.275351 410.766907 
L 134.623046 413.620204 
L 133.970741 413.502348 
L 133.318437 414.75108 
L 132.666132 415.032913 
L 132.013828 415.502685 
L 131.361523 416.084751 
L 130.709218 416.56955 
L 130.056914 417.129669 
L 129.404609 418.315139 
L 128.752305 418.970332 
L 128.1 419.524368 
z
" style="fill:#ff7f0e;"/>
   </g>
   <g id="matplotlib.axis_1">
    <g id="xtick_1">
     <g id="line2d_1">
      <defs>
       <path d="M 0 0 
L 0 3.5 
" id="mf522810b7a" style="stroke:#000000;stroke-width:0.8;"/>
      </defs>
      <g>
       <use style="stroke:#000000;stroke-width:0.8;" x="63" xlink:href="#mf522810b7a" y="448.56"/>
      </g>
     </g>
     <g id="text_1">
      <!-- 0.4 -->
      <g transform="translate(55.048437 463.158437)scale(0.1 -0.1)">
       <defs>
        <path d="M 31.78125 66.40625 
Q 24.171875 66.40625 20.328125 58.90625 
Q 16.5 51.421875 16.5 36.375 
Q 16.5 21.390625 20.328125 13.890625 
Q 24.171875 6.390625 31.78125 6.390625 
Q 39.453125 6.390625 43.28125 13.890625 
Q 47.125 21.390625 47.125 36.375 
Q 47.125 51.421875 43.28125 58.90625 
Q 39.453125 66.40625 31.78125 66.40625 
z
M 31.78125 74.21875 
Q 44.046875 74.21875 50.515625 64.515625 
Q 56.984375 54.828125 56.984375 36.375 
Q 56.984375 17.96875 50.515625 8.265625 
Q 44.046875 -1.421875 31.78125 -1.421875 
Q 19.53125 -1.421875 13.0625 8.265625 
Q 6.59375 17.96875 6.59375 36.375 
Q 6.59375 54.828125 13.0625 64.515625 
Q 19.53125 74.21875 31.78125 74.21875 
z
" id="DejaVuSans-48"/>
        <path d="M 10.6875 12.40625 
L 21 12.40625 
L 21 0 
L 10.6875 0 
z
" id="DejaVuSans-46"/>
        <path d="M 37.796875 64.3125 
L 12.890625 25.390625 
L 37.796875 25.390625 
z
M 35.203125 72.90625 
L 47.609375 72.90625 
L 47.609375 25.390625 
L 58.015625 25.390625 
L 58.015625 17.1875 
L 47.609375 17.1875 
L 47.609375 0 
L 37.796875 0 
L 37.796875 17.1875 
L 4.890625 17.1875 
L 4.890625 26.703125 
z
" id="DejaVuSans-52"/>
       </defs>
       <use xlink:href="#DejaVuSans-48"/>
       <use x="63.623047" xlink:href="#DejaVuSans-46"/>
       <use x="95.410156" xlink:href="#DejaVuSans-52"/>
      </g>
     </g>
    </g>
    <g id="xtick_2">
     <g id="line2d_2">
      <g>
       <use style="stroke:#000000;stroke-width:0.8;" x="128.1" xlink:href="#mf522810b7a" y="448.56"/>
      </g>
     </g>
     <g id="text_2">
      <!-- 0.5 -->
      <g transform="translate(120.148438 463.158437)scale(0.1 -0.1)">
       <defs>
        <path d="M 10.796875 72.90625 
L 49.515625 72.90625 
L 49.515625 64.59375 
L 19.828125 64.59375 
L 19.828125 46.734375 
Q 21.96875 47.46875 24.109375 47.828125 
Q 26.265625 48.1875 28.421875 48.1875 
Q 40.625 48.1875 47.75 41.5 
Q 54.890625 34.8125 54.890625 23.390625 
Q 54.890625 11.625 47.5625 5.09375 
Q 40.234375 -1.421875 26.90625 -1.421875 
Q 22.3125 -1.421875 17.546875 -0.640625 
Q 12.796875 0.140625 7.71875 1.703125 
L 7.71875 11.625 
Q 12.109375 9.234375 16.796875 8.0625 
Q 21.484375 6.890625 26.703125 6.890625 
Q 35.15625 6.890625 40.078125 11.328125 
Q 45.015625 15.765625 45.015625 23.390625 
Q 45.015625 31 40.078125 35.4375 
Q 35.15625 39.890625 26.703125 39.890625 
Q 22.75 39.890625 18.8125 39.015625 
Q 14.890625 38.140625 10.796875 36.28125 
z
" id="DejaVuSans-53"/>
       </defs>
       <use xlink:href="#DejaVuSans-48"/>
       <use x="63.623047" xlink:href="#DejaVuSans-46"/>
       <use x="95.410156" xlink:href="#DejaVuSans-53"/>
      </g>
     </g>
    </g>
    <g id="xtick_3">
     <g id="line2d_3">
      <g>
       <use style="stroke:#000000;stroke-width:0.8;" x="193.2" xlink:href="#mf522810b7a" y="448.56"/>
      </g>
     </g>
     <g id="text_3">
      <!-- 0.6 -->
      <g transform="translate(185.248438 463.158437)scale(0.1 -0.1)">
       <defs>
        <path d="M 33.015625 40.375 
Q 26.375 40.375 22.484375 35.828125 
Q 18.609375 31.296875 18.609375 23.390625 
Q 18.609375 15.53125 22.484375 10.953125 
Q 26.375 6.390625 33.015625 6.390625 
Q 39.65625 6.390625 43.53125 10.953125 
Q 47.40625 15.53125 47.40625 23.390625 
Q 47.40625 31.296875 43.53125 35.828125 
Q 39.65625 40.375 33.015625 40.375 
z
M 52.59375 71.296875 
L 52.59375 62.3125 
Q 48.875 64.0625 45.09375 64.984375 
Q 41.3125 65.921875 37.59375 65.921875 
Q 27.828125 65.921875 22.671875 59.328125 
Q 17.53125 52.734375 16.796875 39.40625 
Q 19.671875 43.65625 24.015625 45.921875 
Q 28.375 48.1875 33.59375 48.1875 
Q 44.578125 48.1875 50.953125 41.515625 
Q 57.328125 34.859375 57.328125 23.390625 
Q 57.328125 12.15625 50.6875 5.359375 
Q 44.046875 -1.421875 33.015625 -1.421875 
Q 20.359375 -1.421875 13.671875 8.265625 
Q 6.984375 17.96875 6.984375 36.375 
Q 6.984375 53.65625 15.1875 63.9375 
Q 23.390625 74.21875 37.203125 74.21875 
Q 40.921875 74.21875 44.703125 73.484375 
Q 48.484375 72.75 52.59375 71.296875 
z
" id="DejaVuSans-54"/>
       </defs>
       <use xlink:href="#DejaVuSans-48"/>
       <use x="63.623047" xlink:href="#DejaVuSans-46"/>
       <use x="95.410156" xlink:href="#DejaVuSans-54"/>
      </g>
     </g>
    </g>
    <g id="xtick_4">
     <g id="line2d_4">
      <g>
       <use style="stroke:#000000;stroke-width:0.8;" x="258.3" xlink:href="#mf522810b7a" y="448.56"/>
      </g>
     </g>
     <g id="text_4">
      <!-- 0.7 -->
      <g transform="translate(250.348438 463.158437)scale(0.1 -0.1)">
       <defs>
        <path d="M 8.203125 72.90625 
L 55.078125 72.90625 
L 55.078125 68.703125 
L 28.609375 0 
L 18.3125 0 
L 43.21875 64.59375 
L 8.203125 64.59375 
z
" id="DejaVuSans-55"/>
       </defs>
       <use xlink:href="#DejaVuSans-48"/>
       <use x="63.623047" xlink:href="#DejaVuSans-46"/>
       <use x="95.410156" xlink:href="#DejaVuSans-55"/>
      </g>
     </g>
    </g>
    <g id="xtick_5">
     <g id="line2d_5">
      <g>
       <use style="stroke:#000000;stroke-width:0.8;" x="323.4" xlink:href="#mf522810b7a" y="448.56"/>
      </g>
     </g>
     <g id="text_5">
      <!-- 0.8 -->
      <g transform="translate(315.448438 463.158437)scale(0.1 -0.1)">
       <defs>
        <path d="M 31.78125 34.625 
Q 24.75 34.625 20.71875 30.859375 
Q 16.703125 27.09375 16.703125 20.515625 
Q 16.703125 13.921875 20.71875 10.15625 
Q 24.75 6.390625 31.78125 6.390625 
Q 38.8125 6.390625 42.859375 10.171875 
Q 46.921875 13.96875 46.921875 20.515625 
Q 46.921875 27.09375 42.890625 30.859375 
Q 38.875 34.625 31.78125 34.625 
z
M 21.921875 38.8125 
Q 15.578125 40.375 12.03125 44.71875 
Q 8.5 49.078125 8.5 55.328125 
Q 8.5 64.0625 14.71875 69.140625 
Q 20.953125 74.21875 31.78125 74.21875 
Q 42.671875 74.21875 48.875 69.140625 
Q 55.078125 64.0625 55.078125 55.328125 
Q 55.078125 49.078125 51.53125 44.71875 
Q 48 40.375 41.703125 38.8125 
Q 48.828125 37.15625 52.796875 32.3125 
Q 56.78125 27.484375 56.78125 20.515625 
Q 56.78125 9.90625 50.3125 4.234375 
Q 43.84375 -1.421875 31.78125 -1.421875 
Q 19.734375 -1.421875 13.25 4.234375 
Q 6.78125 9.90625 6.78125 20.515625 
Q 6.78125 27.484375 10.78125 32.3125 
Q 14.796875 37.15625 21.921875 38.8125 
z
M 18.3125 54.390625 
Q 18.3125 48.734375 21.84375 45.5625 
Q 25.390625 42.390625 31.78125 42.390625 
Q 38.140625 42.390625 41.71875 45.5625 
Q 45.3125 48.734375 45.3125 54.390625 
Q 45.3125 60.0625 41.71875 63.234375 
Q 38.140625 66.40625 31.78125 66.40625 
Q 25.390625 66.40625 21.84375 63.234375 
Q 18.3125 60.0625 18.3125 54.390625 
z
" id="DejaVuSans-56"/>
       </defs>
       <use xlink:href="#DejaVuSans-48"/>
       <use x="63.623047" xlink:href="#DejaVuSans-46"/>
       <use x="95.410156" xlink:href="#DejaVuSans-56"/>
      </g>
     </g>
    </g>
    <g id="xtick_6">
     <g id="line2d_6">
      <g>
       <use style="stroke:#000000;stroke-width:0.8;" x="388.5" xlink:href="#mf522810b7a" y="448.56"/>
      </g>
     </g>
     <g id="text_6">
      <!-- 0.9 -->
      <g transform="translate(380.548438 463.158437)scale(0.1 -0.1)">
       <defs>
        <path d="M 10.984375 1.515625 
L 10.984375 10.5 
Q 14.703125 8.734375 18.5 7.8125 
Q 22.3125 6.890625 25.984375 6.890625 
Q 35.75 6.890625 40.890625 13.453125 
Q 46.046875 20.015625 46.78125 33.40625 
Q 43.953125 29.203125 39.59375 26.953125 
Q 35.25 24.703125 29.984375 24.703125 
Q 19.046875 24.703125 12.671875 31.3125 
Q 6.296875 37.9375 6.296875 49.421875 
Q 6.296875 60.640625 12.9375 67.421875 
Q 19.578125 74.21875 30.609375 74.21875 
Q 43.265625 74.21875 49.921875 64.515625 
Q 56.59375 54.828125 56.59375 36.375 
Q 56.59375 19.140625 48.40625 8.859375 
Q 40.234375 -1.421875 26.421875 -1.421875 
Q 22.703125 -1.421875 18.890625 -0.6875 
Q 15.09375 0.046875 10.984375 1.515625 
z
M 30.609375 32.421875 
Q 37.25 32.421875 41.125 36.953125 
Q 45.015625 41.5 45.015625 49.421875 
Q 45.015625 57.28125 41.125 61.84375 
Q 37.25 66.40625 30.609375 66.40625 
Q 23.96875 66.40625 20.09375 61.84375 
Q 16.21875 57.28125 16.21875 49.421875 
Q 16.21875 41.5 20.09375 36.953125 
Q 23.96875 32.421875 30.609375 32.421875 
z
" id="DejaVuSans-57"/>
       </defs>
       <use xlink:href="#DejaVuSans-48"/>
       <use x="63.623047" xlink:href="#DejaVuSans-46"/>
       <use x="95.410156" xlink:href="#DejaVuSans-57"/>
      </g>
     </g>
    </g>
    <g id="xtick_7">
     <g id="line2d_7">
      <g>
       <use style="stroke:#000000;stroke-width:0.8;" x="453.6" xlink:href="#mf522810b7a" y="448.56"/>
      </g>
     </g>
     <g id="text_7">
      <!-- 1.0 -->
      <g transform="translate(445.648438 463.158437)scale(0.1 -0.1)">
       <defs>
        <path d="M 12.40625 8.296875 
L 28.515625 8.296875 
L 28.515625 63.921875 
L 10.984375 60.40625 
L 10.984375 69.390625 
L 28.421875 72.90625 
L 38.28125 72.90625 
L 38.28125 8.296875 
L 54.390625 8.296875 
L 54.390625 0 
L 12.40625 0 
z
" id="DejaVuSans-49"/>
       </defs>
       <use xlink:href="#DejaVuSans-49"/>
       <use x="63.623047" xlink:href="#DejaVuSans-46"/>
       <use x="95.410156" xlink:href="#DejaVuSans-48"/>
      </g>
     </g>
    </g>
    <g id="text_8">
     <!-- If I predict something with this probability... -->
     <g transform="translate(149.657031 476.836563)scale(0.1 -0.1)">
      <defs>
       <path d="M 9.8125 72.90625 
L 19.671875 72.90625 
L 19.671875 0 
L 9.8125 0 
z
" id="DejaVuSans-73"/>
       <path d="M 37.109375 75.984375 
L 37.109375 68.5 
L 28.515625 68.5 
Q 23.6875 68.5 21.796875 66.546875 
Q 19.921875 64.59375 19.921875 59.515625 
L 19.921875 54.6875 
L 34.71875 54.6875 
L 34.71875 47.703125 
L 19.921875 47.703125 
L 19.921875 0 
L 10.890625 0 
L 10.890625 47.703125 
L 2.296875 47.703125 
L 2.296875 54.6875 
L 10.890625 54.6875 
L 10.890625 58.5 
Q 10.890625 67.625 15.140625 71.796875 
Q 19.390625 75.984375 28.609375 75.984375 
z
" id="DejaVuSans-102"/>
       <path id="DejaVuSans-32"/>
       <path d="M 18.109375 8.203125 
L 18.109375 -20.796875 
L 9.078125 -20.796875 
L 9.078125 54.6875 
L 18.109375 54.6875 
L 18.109375 46.390625 
Q 20.953125 51.265625 25.265625 53.625 
Q 29.59375 56 35.59375 56 
Q 45.5625 56 51.78125 48.09375 
Q 58.015625 40.1875 58.015625 27.296875 
Q 58.015625 14.40625 51.78125 6.484375 
Q 45.5625 -1.421875 35.59375 -1.421875 
Q 29.59375 -1.421875 25.265625 0.953125 
Q 20.953125 3.328125 18.109375 8.203125 
z
M 48.6875 27.296875 
Q 48.6875 37.203125 44.609375 42.84375 
Q 40.53125 48.484375 33.40625 48.484375 
Q 26.265625 48.484375 22.1875 42.84375 
Q 18.109375 37.203125 18.109375 27.296875 
Q 18.109375 17.390625 22.1875 11.75 
Q 26.265625 6.109375 33.40625 6.109375 
Q 40.53125 6.109375 44.609375 11.75 
Q 48.6875 17.390625 48.6875 27.296875 
z
" id="DejaVuSans-112"/>
       <path d="M 41.109375 46.296875 
Q 39.59375 47.171875 37.8125 47.578125 
Q 36.03125 48 33.890625 48 
Q 26.265625 48 22.1875 43.046875 
Q 18.109375 38.09375 18.109375 28.8125 
L 18.109375 0 
L 9.078125 0 
L 9.078125 54.6875 
L 18.109375 54.6875 
L 18.109375 46.1875 
Q 20.953125 51.171875 25.484375 53.578125 
Q 30.03125 56 36.53125 56 
Q 37.453125 56 38.578125 55.875 
Q 39.703125 55.765625 41.0625 55.515625 
z
" id="DejaVuSans-114"/>
       <path d="M 56.203125 29.59375 
L 56.203125 25.203125 
L 14.890625 25.203125 
Q 15.484375 15.921875 20.484375 11.0625 
Q 25.484375 6.203125 34.421875 6.203125 
Q 39.59375 6.203125 44.453125 7.46875 
Q 49.3125 8.734375 54.109375 11.28125 
L 54.109375 2.78125 
Q 49.265625 0.734375 44.1875 -0.34375 
Q 39.109375 -1.421875 33.890625 -1.421875 
Q 20.796875 -1.421875 13.15625 6.1875 
Q 5.515625 13.8125 5.515625 26.8125 
Q 5.515625 40.234375 12.765625 48.109375 
Q 20.015625 56 32.328125 56 
Q 43.359375 56 49.78125 48.890625 
Q 56.203125 41.796875 56.203125 29.59375 
z
M 47.21875 32.234375 
Q 47.125 39.59375 43.09375 43.984375 
Q 39.0625 48.390625 32.421875 48.390625 
Q 24.90625 48.390625 20.390625 44.140625 
Q 15.875 39.890625 15.1875 32.171875 
z
" id="DejaVuSans-101"/>
       <path d="M 45.40625 46.390625 
L 45.40625 75.984375 
L 54.390625 75.984375 
L 54.390625 0 
L 45.40625 0 
L 45.40625 8.203125 
Q 42.578125 3.328125 38.25 0.953125 
Q 33.9375 -1.421875 27.875 -1.421875 
Q 17.96875 -1.421875 11.734375 6.484375 
Q 5.515625 14.40625 5.515625 27.296875 
Q 5.515625 40.1875 11.734375 48.09375 
Q 17.96875 56 27.875 56 
Q 33.9375 56 38.25 53.625 
Q 42.578125 51.265625 45.40625 46.390625 
z
M 14.796875 27.296875 
Q 14.796875 17.390625 18.875 11.75 
Q 22.953125 6.109375 30.078125 6.109375 
Q 37.203125 6.109375 41.296875 11.75 
Q 45.40625 17.390625 45.40625 27.296875 
Q 45.40625 37.203125 41.296875 42.84375 
Q 37.203125 48.484375 30.078125 48.484375 
Q 22.953125 48.484375 18.875 42.84375 
Q 14.796875 37.203125 14.796875 27.296875 
z
" id="DejaVuSans-100"/>
       <path d="M 9.421875 54.6875 
L 18.40625 54.6875 
L 18.40625 0 
L 9.421875 0 
z
M 9.421875 75.984375 
L 18.40625 75.984375 
L 18.40625 64.59375 
L 9.421875 64.59375 
z
" id="DejaVuSans-105"/>
       <path d="M 48.78125 52.59375 
L 48.78125 44.1875 
Q 44.96875 46.296875 41.140625 47.34375 
Q 37.3125 48.390625 33.40625 48.390625 
Q 24.65625 48.390625 19.8125 42.84375 
Q 14.984375 37.3125 14.984375 27.296875 
Q 14.984375 17.28125 19.8125 11.734375 
Q 24.65625 6.203125 33.40625 6.203125 
Q 37.3125 6.203125 41.140625 7.25 
Q 44.96875 8.296875 48.78125 10.40625 
L 48.78125 2.09375 
Q 45.015625 0.34375 40.984375 -0.53125 
Q 36.96875 -1.421875 32.421875 -1.421875 
Q 20.0625 -1.421875 12.78125 6.34375 
Q 5.515625 14.109375 5.515625 27.296875 
Q 5.515625 40.671875 12.859375 48.328125 
Q 20.21875 56 33.015625 56 
Q 37.15625 56 41.109375 55.140625 
Q 45.0625 54.296875 48.78125 52.59375 
z
" id="DejaVuSans-99"/>
       <path d="M 18.3125 70.21875 
L 18.3125 54.6875 
L 36.8125 54.6875 
L 36.8125 47.703125 
L 18.3125 47.703125 
L 18.3125 18.015625 
Q 18.3125 11.328125 20.140625 9.421875 
Q 21.96875 7.515625 27.59375 7.515625 
L 36.8125 7.515625 
L 36.8125 0 
L 27.59375 0 
Q 17.1875 0 13.234375 3.875 
Q 9.28125 7.765625 9.28125 18.015625 
L 9.28125 47.703125 
L 2.6875 47.703125 
L 2.6875 54.6875 
L 9.28125 54.6875 
L 9.28125 70.21875 
z
" id="DejaVuSans-116"/>
       <path d="M 44.28125 53.078125 
L 44.28125 44.578125 
Q 40.484375 46.53125 36.375 47.5 
Q 32.28125 48.484375 27.875 48.484375 
Q 21.1875 48.484375 17.84375 46.4375 
Q 14.5 44.390625 14.5 40.28125 
Q 14.5 37.15625 16.890625 35.375 
Q 19.28125 33.59375 26.515625 31.984375 
L 29.59375 31.296875 
Q 39.15625 29.25 43.1875 25.515625 
Q 47.21875 21.78125 47.21875 15.09375 
Q 47.21875 7.46875 41.1875 3.015625 
Q 35.15625 -1.421875 24.609375 -1.421875 
Q 20.21875 -1.421875 15.453125 -0.5625 
Q 10.6875 0.296875 5.421875 2 
L 5.421875 11.28125 
Q 10.40625 8.6875 15.234375 7.390625 
Q 20.0625 6.109375 24.8125 6.109375 
Q 31.15625 6.109375 34.5625 8.28125 
Q 37.984375 10.453125 37.984375 14.40625 
Q 37.984375 18.0625 35.515625 20.015625 
Q 33.0625 21.96875 24.703125 23.78125 
L 21.578125 24.515625 
Q 13.234375 26.265625 9.515625 29.90625 
Q 5.8125 33.546875 5.8125 39.890625 
Q 5.8125 47.609375 11.28125 51.796875 
Q 16.75 56 26.8125 56 
Q 31.78125 56 36.171875 55.265625 
Q 40.578125 54.546875 44.28125 53.078125 
z
" id="DejaVuSans-115"/>
       <path d="M 30.609375 48.390625 
Q 23.390625 48.390625 19.1875 42.75 
Q 14.984375 37.109375 14.984375 27.296875 
Q 14.984375 17.484375 19.15625 11.84375 
Q 23.34375 6.203125 30.609375 6.203125 
Q 37.796875 6.203125 41.984375 11.859375 
Q 46.1875 17.53125 46.1875 27.296875 
Q 46.1875 37.015625 41.984375 42.703125 
Q 37.796875 48.390625 30.609375 48.390625 
z
M 30.609375 56 
Q 42.328125 56 49.015625 48.375 
Q 55.71875 40.765625 55.71875 27.296875 
Q 55.71875 13.875 49.015625 6.21875 
Q 42.328125 -1.421875 30.609375 -1.421875 
Q 18.84375 -1.421875 12.171875 6.21875 
Q 5.515625 13.875 5.515625 27.296875 
Q 5.515625 40.765625 12.171875 48.375 
Q 18.84375 56 30.609375 56 
z
" id="DejaVuSans-111"/>
       <path d="M 52 44.1875 
Q 55.375 50.25 60.0625 53.125 
Q 64.75 56 71.09375 56 
Q 79.640625 56 84.28125 50.015625 
Q 88.921875 44.046875 88.921875 33.015625 
L 88.921875 0 
L 79.890625 0 
L 79.890625 32.71875 
Q 79.890625 40.578125 77.09375 44.375 
Q 74.3125 48.1875 68.609375 48.1875 
Q 61.625 48.1875 57.5625 43.546875 
Q 53.515625 38.921875 53.515625 30.90625 
L 53.515625 0 
L 44.484375 0 
L 44.484375 32.71875 
Q 44.484375 40.625 41.703125 44.40625 
Q 38.921875 48.1875 33.109375 48.1875 
Q 26.21875 48.1875 22.15625 43.53125 
Q 18.109375 38.875 18.109375 30.90625 
L 18.109375 0 
L 9.078125 0 
L 9.078125 54.6875 
L 18.109375 54.6875 
L 18.109375 46.1875 
Q 21.1875 51.21875 25.484375 53.609375 
Q 29.78125 56 35.6875 56 
Q 41.65625 56 45.828125 52.96875 
Q 50 49.953125 52 44.1875 
z
" id="DejaVuSans-109"/>
       <path d="M 54.890625 33.015625 
L 54.890625 0 
L 45.90625 0 
L 45.90625 32.71875 
Q 45.90625 40.484375 42.875 44.328125 
Q 39.84375 48.1875 33.796875 48.1875 
Q 26.515625 48.1875 22.3125 43.546875 
Q 18.109375 38.921875 18.109375 30.90625 
L 18.109375 0 
L 9.078125 0 
L 9.078125 75.984375 
L 18.109375 75.984375 
L 18.109375 46.1875 
Q 21.34375 51.125 25.703125 53.5625 
Q 30.078125 56 35.796875 56 
Q 45.21875 56 50.046875 50.171875 
Q 54.890625 44.34375 54.890625 33.015625 
z
" id="DejaVuSans-104"/>
       <path d="M 54.890625 33.015625 
L 54.890625 0 
L 45.90625 0 
L 45.90625 32.71875 
Q 45.90625 40.484375 42.875 44.328125 
Q 39.84375 48.1875 33.796875 48.1875 
Q 26.515625 48.1875 22.3125 43.546875 
Q 18.109375 38.921875 18.109375 30.90625 
L 18.109375 0 
L 9.078125 0 
L 9.078125 54.6875 
L 18.109375 54.6875 
L 18.109375 46.1875 
Q 21.34375 51.125 25.703125 53.5625 
Q 30.078125 56 35.796875 56 
Q 45.21875 56 50.046875 50.171875 
Q 54.890625 44.34375 54.890625 33.015625 
z
" id="DejaVuSans-110"/>
       <path d="M 45.40625 27.984375 
Q 45.40625 37.75 41.375 43.109375 
Q 37.359375 48.484375 30.078125 48.484375 
Q 22.859375 48.484375 18.828125 43.109375 
Q 14.796875 37.75 14.796875 27.984375 
Q 14.796875 18.265625 18.828125 12.890625 
Q 22.859375 7.515625 30.078125 7.515625 
Q 37.359375 7.515625 41.375 12.890625 
Q 45.40625 18.265625 45.40625 27.984375 
z
M 54.390625 6.78125 
Q 54.390625 -7.171875 48.1875 -13.984375 
Q 42 -20.796875 29.203125 -20.796875 
Q 24.46875 -20.796875 20.265625 -20.09375 
Q 16.0625 -19.390625 12.109375 -17.921875 
L 12.109375 -9.1875 
Q 16.0625 -11.328125 19.921875 -12.34375 
Q 23.78125 -13.375 27.78125 -13.375 
Q 36.625 -13.375 41.015625 -8.765625 
Q 45.40625 -4.15625 45.40625 5.171875 
L 45.40625 9.625 
Q 42.625 4.78125 38.28125 2.390625 
Q 33.9375 0 27.875 0 
Q 17.828125 0 11.671875 7.65625 
Q 5.515625 15.328125 5.515625 27.984375 
Q 5.515625 40.671875 11.671875 48.328125 
Q 17.828125 56 27.875 56 
Q 33.9375 56 38.28125 53.609375 
Q 42.625 51.21875 45.40625 46.390625 
L 45.40625 54.6875 
L 54.390625 54.6875 
z
" id="DejaVuSans-103"/>
       <path d="M 4.203125 54.6875 
L 13.1875 54.6875 
L 24.421875 12.015625 
L 35.59375 54.6875 
L 46.1875 54.6875 
L 57.421875 12.015625 
L 68.609375 54.6875 
L 77.59375 54.6875 
L 63.28125 0 
L 52.6875 0 
L 40.921875 44.828125 
L 29.109375 0 
L 18.5 0 
z
" id="DejaVuSans-119"/>
       <path d="M 48.6875 27.296875 
Q 48.6875 37.203125 44.609375 42.84375 
Q 40.53125 48.484375 33.40625 48.484375 
Q 26.265625 48.484375 22.1875 42.84375 
Q 18.109375 37.203125 18.109375 27.296875 
Q 18.109375 17.390625 22.1875 11.75 
Q 26.265625 6.109375 33.40625 6.109375 
Q 40.53125 6.109375 44.609375 11.75 
Q 48.6875 17.390625 48.6875 27.296875 
z
M 18.109375 46.390625 
Q 20.953125 51.265625 25.265625 53.625 
Q 29.59375 56 35.59375 56 
Q 45.5625 56 51.78125 48.09375 
Q 58.015625 40.1875 58.015625 27.296875 
Q 58.015625 14.40625 51.78125 6.484375 
Q 45.5625 -1.421875 35.59375 -1.421875 
Q 29.59375 -1.421875 25.265625 0.953125 
Q 20.953125 3.328125 18.109375 8.203125 
L 18.109375 0 
L 9.078125 0 
L 9.078125 75.984375 
L 18.109375 75.984375 
z
" id="DejaVuSans-98"/>
       <path d="M 34.28125 27.484375 
Q 23.390625 27.484375 19.1875 25 
Q 14.984375 22.515625 14.984375 16.5 
Q 14.984375 11.71875 18.140625 8.90625 
Q 21.296875 6.109375 26.703125 6.109375 
Q 34.1875 6.109375 38.703125 11.40625 
Q 43.21875 16.703125 43.21875 25.484375 
L 43.21875 27.484375 
z
M 52.203125 31.203125 
L 52.203125 0 
L 43.21875 0 
L 43.21875 8.296875 
Q 40.140625 3.328125 35.546875 0.953125 
Q 30.953125 -1.421875 24.3125 -1.421875 
Q 15.921875 -1.421875 10.953125 3.296875 
Q 6 8.015625 6 15.921875 
Q 6 25.140625 12.171875 29.828125 
Q 18.359375 34.515625 30.609375 34.515625 
L 43.21875 34.515625 
L 43.21875 35.40625 
Q 43.21875 41.609375 39.140625 45 
Q 35.0625 48.390625 27.6875 48.390625 
Q 23 48.390625 18.546875 47.265625 
Q 14.109375 46.140625 10.015625 43.890625 
L 10.015625 52.203125 
Q 14.9375 54.109375 19.578125 55.046875 
Q 24.21875 56 28.609375 56 
Q 40.484375 56 46.34375 49.84375 
Q 52.203125 43.703125 52.203125 31.203125 
z
" id="DejaVuSans-97"/>
       <path d="M 9.421875 75.984375 
L 18.40625 75.984375 
L 18.40625 0 
L 9.421875 0 
z
" id="DejaVuSans-108"/>
       <path d="M 32.171875 -5.078125 
Q 28.375 -14.84375 24.75 -17.8125 
Q 21.140625 -20.796875 15.09375 -20.796875 
L 7.90625 -20.796875 
L 7.90625 -13.28125 
L 13.1875 -13.28125 
Q 16.890625 -13.28125 18.9375 -11.515625 
Q 21 -9.765625 23.484375 -3.21875 
L 25.09375 0.875 
L 2.984375 54.6875 
L 12.5 54.6875 
L 29.59375 11.921875 
L 46.6875 54.6875 
L 56.203125 54.6875 
z
" id="DejaVuSans-121"/>
      </defs>
      <use xlink:href="#DejaVuSans-73"/>
      <use x="29.492188" xlink:href="#DejaVuSans-102"/>
      <use x="64.697266" xlink:href="#DejaVuSans-32"/>
      <use x="96.484375" xlink:href="#DejaVuSans-73"/>
      <use x="125.976562" xlink:href="#DejaVuSans-32"/>
      <use x="157.763672" xlink:href="#DejaVuSans-112"/>
      <use x="221.240234" xlink:href="#DejaVuSans-114"/>
      <use x="260.103516" xlink:href="#DejaVuSans-101"/>
      <use x="321.626953" xlink:href="#DejaVuSans-100"/>
      <use x="385.103516" xlink:href="#DejaVuSans-105"/>
      <use x="412.886719" xlink:href="#DejaVuSans-99"/>
      <use x="467.867188" xlink:href="#DejaVuSans-116"/>
      <use x="507.076172" xlink:href="#DejaVuSans-32"/>
      <use x="538.863281" xlink:href="#DejaVuSans-115"/>
      <use x="590.962891" xlink:href="#DejaVuSans-111"/>
      <use x="652.144531" xlink:href="#DejaVuSans-109"/>
      <use x="749.556641" xlink:href="#DejaVuSans-101"/>
      <use x="811.080078" xlink:href="#DejaVuSans-116"/>
      <use x="850.289062" xlink:href="#DejaVuSans-104"/>
      <use x="913.667969" xlink:href="#DejaVuSans-105"/>
      <use x="941.451172" xlink:href="#DejaVuSans-110"/>
      <use x="1004.830078" xlink:href="#DejaVuSans-103"/>
      <use x="1068.306641" xlink:href="#DejaVuSans-32"/>
      <use x="1100.09375" xlink:href="#DejaVuSans-119"/>
      <use x="1181.880859" xlink:href="#DejaVuSans-105"/>
      <use x="1209.664062" xlink:href="#DejaVuSans-116"/>
      <use x="1248.873047" xlink:href="#DejaVuSans-104"/>
      <use x="1312.251953" xlink:href="#DejaVuSans-32"/>
      <use x="1344.039062" xlink:href="#DejaVuSans-116"/>
      <use x="1383.248047" xlink:href="#DejaVuSans-104"/>
      <use x="1446.626953" xlink:href="#DejaVuSans-105"/>
      <use x="1474.410156" xlink:href="#DejaVuSans-115"/>
      <use x="1526.509766" xlink:href="#DejaVuSans-32"/>
      <use x="1558.296875" xlink:href="#DejaVuSans-112"/>
      <use x="1621.773438" xlink:href="#DejaVuSans-114"/>
      <use x="1660.636719" xlink:href="#DejaVuSans-111"/>
      <use x="1721.818359" xlink:href="#DejaVuSans-98"/>
      <use x="1785.294922" xlink:href="#DejaVuSans-97"/>
      <use x="1846.574219" xlink:href="#DejaVuSans-98"/>
      <use x="1910.050781" xlink:href="#DejaVuSans-105"/>
      <use x="1937.833984" xlink:href="#DejaVuSans-108"/>
      <use x="1965.617188" xlink:href="#DejaVuSans-105"/>
      <use x="1993.400391" xlink:href="#DejaVuSans-116"/>
      <use x="2032.609375" xlink:href="#DejaVuSans-121"/>
      <use x="2077.539062" xlink:href="#DejaVuSans-46"/>
      <use x="2109.326172" xlink:href="#DejaVuSans-46"/>
      <use x="2141.113281" xlink:href="#DejaVuSans-46"/>
     </g>
    </g>
   </g>
   <g id="matplotlib.axis_2">
    <g id="ytick_1">
     <g id="line2d_8">
      <defs>
       <path d="M 0 0 
L -3.5 0 
" id="mba40f2daa5" style="stroke:#000000;stroke-width:0.8;"/>
      </defs>
      <g>
       <use style="stroke:#000000;stroke-width:0.8;" x="63" xlink:href="#mba40f2daa5" y="448.56"/>
      </g>
     </g>
     <g id="text_9">
      <!-- 0.4 -->
      <g transform="translate(40.096875 452.359219)scale(0.1 -0.1)">
       <use xlink:href="#DejaVuSans-48"/>
       <use x="63.623047" xlink:href="#DejaVuSans-46"/>
       <use x="95.410156" xlink:href="#DejaVuSans-52"/>
      </g>
     </g>
    </g>
    <g id="ytick_2">
     <g id="line2d_9">
      <g>
       <use style="stroke:#000000;stroke-width:0.8;" x="63" xlink:href="#mba40f2daa5" y="383.88"/>
      </g>
     </g>
     <g id="text_10">
      <!-- 0.5 -->
      <g transform="translate(40.096875 387.679219)scale(0.1 -0.1)">
       <use xlink:href="#DejaVuSans-48"/>
       <use x="63.623047" xlink:href="#DejaVuSans-46"/>
       <use x="95.410156" xlink:href="#DejaVuSans-53"/>
      </g>
     </g>
    </g>
    <g id="ytick_3">
     <g id="line2d_10">
      <g>
       <use style="stroke:#000000;stroke-width:0.8;" x="63" xlink:href="#mba40f2daa5" y="319.2"/>
      </g>
     </g>
     <g id="text_11">
      <!-- 0.6 -->
      <g transform="translate(40.096875 322.999219)scale(0.1 -0.1)">
       <use xlink:href="#DejaVuSans-48"/>
       <use x="63.623047" xlink:href="#DejaVuSans-46"/>
       <use x="95.410156" xlink:href="#DejaVuSans-54"/>
      </g>
     </g>
    </g>
    <g id="ytick_4">
     <g id="line2d_11">
      <g>
       <use style="stroke:#000000;stroke-width:0.8;" x="63" xlink:href="#mba40f2daa5" y="254.52"/>
      </g>
     </g>
     <g id="text_12">
      <!-- 0.7 -->
      <g transform="translate(40.096875 258.319219)scale(0.1 -0.1)">
       <use xlink:href="#DejaVuSans-48"/>
       <use x="63.623047" xlink:href="#DejaVuSans-46"/>
       <use x="95.410156" xlink:href="#DejaVuSans-55"/>
      </g>
     </g>
    </g>
    <g id="ytick_5">
     <g id="line2d_12">
      <g>
       <use style="stroke:#000000;stroke-width:0.8;" x="63" xlink:href="#mba40f2daa5" y="189.84"/>
      </g>
     </g>
     <g id="text_13">
      <!-- 0.8 -->
      <g transform="translate(40.096875 193.639219)scale(0.1 -0.1)">
       <use xlink:href="#DejaVuSans-48"/>
       <use x="63.623047" xlink:href="#DejaVuSans-46"/>
       <use x="95.410156" xlink:href="#DejaVuSans-56"/>
      </g>
     </g>
    </g>
    <g id="ytick_6">
     <g id="line2d_13">
      <g>
       <use style="stroke:#000000;stroke-width:0.8;" x="63" xlink:href="#mba40f2daa5" y="125.16"/>
      </g>
     </g>
     <g id="text_14">
      <!-- 0.9 -->
      <g transform="translate(40.096875 128.959219)scale(0.1 -0.1)">
       <use xlink:href="#DejaVuSans-48"/>
       <use x="63.623047" xlink:href="#DejaVuSans-46"/>
       <use x="95.410156" xlink:href="#DejaVuSans-57"/>
      </g>
     </g>
    </g>
    <g id="ytick_7">
     <g id="line2d_14">
      <g>
       <use style="stroke:#000000;stroke-width:0.8;" x="63" xlink:href="#mba40f2daa5" y="60.48"/>
      </g>
     </g>
     <g id="text_15">
      <!-- 1.0 -->
      <g transform="translate(40.096875 64.279219)scale(0.1 -0.1)">
       <use xlink:href="#DejaVuSans-49"/>
       <use x="63.623047" xlink:href="#DejaVuSans-46"/>
       <use x="95.410156" xlink:href="#DejaVuSans-48"/>
      </g>
     </g>
    </g>
    <g id="text_16">
     <!-- then it has this probability of coming true... -->
     <g transform="translate(34.017187 363.261406)rotate(-90)scale(0.1 -0.1)">
      <defs>
       <path d="M 8.5 21.578125 
L 8.5 54.6875 
L 17.484375 54.6875 
L 17.484375 21.921875 
Q 17.484375 14.15625 20.5 10.265625 
Q 23.53125 6.390625 29.59375 6.390625 
Q 36.859375 6.390625 41.078125 11.03125 
Q 45.3125 15.671875 45.3125 23.6875 
L 45.3125 54.6875 
L 54.296875 54.6875 
L 54.296875 0 
L 45.3125 0 
L 45.3125 8.40625 
Q 42.046875 3.421875 37.71875 1 
Q 33.40625 -1.421875 27.6875 -1.421875 
Q 18.265625 -1.421875 13.375 4.4375 
Q 8.5 10.296875 8.5 21.578125 
z
M 31.109375 56 
z
" id="DejaVuSans-117"/>
      </defs>
      <use xlink:href="#DejaVuSans-116"/>
      <use x="39.208984" xlink:href="#DejaVuSans-104"/>
      <use x="102.587891" xlink:href="#DejaVuSans-101"/>
      <use x="164.111328" xlink:href="#DejaVuSans-110"/>
      <use x="227.490234" xlink:href="#DejaVuSans-32"/>
      <use x="259.277344" xlink:href="#DejaVuSans-105"/>
      <use x="287.060547" xlink:href="#DejaVuSans-116"/>
      <use x="326.269531" xlink:href="#DejaVuSans-32"/>
      <use x="358.056641" xlink:href="#DejaVuSans-104"/>
      <use x="421.435547" xlink:href="#DejaVuSans-97"/>
      <use x="482.714844" xlink:href="#DejaVuSans-115"/>
      <use x="534.814453" xlink:href="#DejaVuSans-32"/>
      <use x="566.601562" xlink:href="#DejaVuSans-116"/>
      <use x="605.810547" xlink:href="#DejaVuSans-104"/>
      <use x="669.189453" xlink:href="#DejaVuSans-105"/>
      <use x="696.972656" xlink:href="#DejaVuSans-115"/>
      <use x="749.072266" xlink:href="#DejaVuSans-32"/>
      <use x="780.859375" xlink:href="#DejaVuSans-112"/>
      <use x="844.335938" xlink:href="#DejaVuSans-114"/>
      <use x="883.199219" xlink:href="#DejaVuSans-111"/>
      <use x="944.380859" xlink:href="#DejaVuSans-98"/>
      <use x="1007.857422" xlink:href="#DejaVuSans-97"/>
      <use x="1069.136719" xlink:href="#DejaVuSans-98"/>
      <use x="1132.613281" xlink:href="#DejaVuSans-105"/>
      <use x="1160.396484" xlink:href="#DejaVuSans-108"/>
      <use x="1188.179688" xlink:href="#DejaVuSans-105"/>
      <use x="1215.962891" xlink:href="#DejaVuSans-116"/>
      <use x="1255.171875" xlink:href="#DejaVuSans-121"/>
      <use x="1314.351562" xlink:href="#DejaVuSans-32"/>
      <use x="1346.138672" xlink:href="#DejaVuSans-111"/>
      <use x="1407.320312" xlink:href="#DejaVuSans-102"/>
      <use x="1442.525391" xlink:href="#DejaVuSans-32"/>
      <use x="1474.3125" xlink:href="#DejaVuSans-99"/>
      <use x="1529.292969" xlink:href="#DejaVuSans-111"/>
      <use x="1590.474609" xlink:href="#DejaVuSans-109"/>
      <use x="1687.886719" xlink:href="#DejaVuSans-105"/>
      <use x="1715.669922" xlink:href="#DejaVuSans-110"/>
      <use x="1779.048828" xlink:href="#DejaVuSans-103"/>
      <use x="1842.525391" xlink:href="#DejaVuSans-32"/>
      <use x="1874.3125" xlink:href="#DejaVuSans-116"/>
      <use x="1913.521484" xlink:href="#DejaVuSans-114"/>
      <use x="1954.634766" xlink:href="#DejaVuSans-117"/>
      <use x="2018.013672" xlink:href="#DejaVuSans-101"/>
      <use x="2079.537109" xlink:href="#DejaVuSans-46"/>
      <use x="2111.324219" xlink:href="#DejaVuSans-46"/>
      <use x="2143.111328" xlink:href="#DejaVuSans-46"/>
     </g>
    </g>
   </g>
   <g id="line2d_15">
    <path clip-path="url(#pab65125fca)" d="M 128.1 437.205978 
L 146.364529 419.994572 
L 163.976754 403.094245 
L 181.588978 385.88067 
L 198.548898 368.993684 
L 215.508818 351.786157 
L 231.816433 334.922876 
L 248.124048 317.732208 
L 263.779359 300.905169 
L 279.434669 283.743801 
L 294.437675 266.966688 
L 309.440681 249.847456 
L 323.791383 233.133636 
L 338.142084 216.067841 
L 351.840481 199.427867 
L 364.886573 183.240224 
L 377.932665 166.695445 
L 390.326453 150.618937 
L 402.067936 135.034459 
L 413.157114 119.963367 
L 423.593988 105.42224 
L 433.378557 91.417444 
L 441.858517 78.90924 
L 449.033868 67.928067 
L 452.947695 61.620915 
L 452.947695 61.620915 
" style="fill:none;stroke:#0000ff;stroke-linecap:square;stroke-width:1.5;"/>
   </g>
   <g id="line2d_16">
    <path clip-path="url(#pab65125fca)" d="M 128.1 383.88 
L 452.947695 61.128096 
L 452.947695 61.128096 
" style="fill:none;stroke:#000000;stroke-linecap:square;stroke-width:1.5;"/>
   </g>
   <g id="patch_3">
    <path d="M 63 448.56 
L 63 60.48 
" style="fill:none;stroke:#000000;stroke-linecap:square;stroke-linejoin:miter;stroke-width:0.8;"/>
   </g>
   <g id="patch_4">
    <path d="M 453.6 448.56 
L 453.6 60.48 
" style="fill:none;stroke:#000000;stroke-linecap:square;stroke-linejoin:miter;stroke-width:0.8;"/>
   </g>
   <g id="patch_5">
    <path d="M 63 448.56 
L 453.6 448.56 
" style="fill:none;stroke:#000000;stroke-linecap:square;stroke-linejoin:miter;stroke-width:0.8;"/>
   </g>
   <g id="patch_6">
    <path d="M 63 60.48 
L 453.6 60.48 
" style="fill:none;stroke:#000000;stroke-linecap:square;stroke-linejoin:miter;stroke-width:0.8;"/>
   </g>
   <g id="text_17">
    <!-- Posterior Predictive of Bayesian Logistic Model -->
    <g transform="translate(118.742813 54.48)scale(0.12 -0.12)">
     <defs>
      <path d="M 19.671875 64.796875 
L 19.671875 37.40625 
L 32.078125 37.40625 
Q 38.96875 37.40625 42.71875 40.96875 
Q 46.484375 44.53125 46.484375 51.125 
Q 46.484375 57.671875 42.71875 61.234375 
Q 38.96875 64.796875 32.078125 64.796875 
z
M 9.8125 72.90625 
L 32.078125 72.90625 
Q 44.34375 72.90625 50.609375 67.359375 
Q 56.890625 61.8125 56.890625 51.125 
Q 56.890625 40.328125 50.609375 34.8125 
Q 44.34375 29.296875 32.078125 29.296875 
L 19.671875 29.296875 
L 19.671875 0 
L 9.8125 0 
z
" id="DejaVuSans-80"/>
      <path d="M 2.984375 54.6875 
L 12.5 54.6875 
L 29.59375 8.796875 
L 46.6875 54.6875 
L 56.203125 54.6875 
L 35.6875 0 
L 23.484375 0 
z
" id="DejaVuSans-118"/>
      <path d="M 19.671875 34.8125 
L 19.671875 8.109375 
L 35.5 8.109375 
Q 43.453125 8.109375 47.28125 11.40625 
Q 51.125 14.703125 51.125 21.484375 
Q 51.125 28.328125 47.28125 31.5625 
Q 43.453125 34.8125 35.5 34.8125 
z
M 19.671875 64.796875 
L 19.671875 42.828125 
L 34.28125 42.828125 
Q 41.5 42.828125 45.03125 45.53125 
Q 48.578125 48.25 48.578125 53.8125 
Q 48.578125 59.328125 45.03125 62.0625 
Q 41.5 64.796875 34.28125 64.796875 
z
M 9.8125 72.90625 
L 35.015625 72.90625 
Q 46.296875 72.90625 52.390625 68.21875 
Q 58.5 63.53125 58.5 54.890625 
Q 58.5 48.1875 55.375 44.234375 
Q 52.25 40.28125 46.1875 39.3125 
Q 53.46875 37.75 57.5 32.78125 
Q 61.53125 27.828125 61.53125 20.40625 
Q 61.53125 10.640625 54.890625 5.3125 
Q 48.25 0 35.984375 0 
L 9.8125 0 
z
" id="DejaVuSans-66"/>
      <path d="M 9.8125 72.90625 
L 19.671875 72.90625 
L 19.671875 8.296875 
L 55.171875 8.296875 
L 55.171875 0 
L 9.8125 0 
z
" id="DejaVuSans-76"/>
      <path d="M 9.8125 72.90625 
L 24.515625 72.90625 
L 43.109375 23.296875 
L 61.8125 72.90625 
L 76.515625 72.90625 
L 76.515625 0 
L 66.890625 0 
L 66.890625 64.015625 
L 48.09375 14.015625 
L 38.1875 14.015625 
L 19.390625 64.015625 
L 19.390625 0 
L 9.8125 0 
z
" id="DejaVuSans-77"/>
     </defs>
     <use xlink:href="#DejaVuSans-80"/>
     <use x="56.677734" xlink:href="#DejaVuSans-111"/>
     <use x="117.859375" xlink:href="#DejaVuSans-115"/>
     <use x="169.958984" xlink:href="#DejaVuSans-116"/>
     <use x="209.167969" xlink:href="#DejaVuSans-101"/>
     <use x="270.691406" xlink:href="#DejaVuSans-114"/>
     <use x="311.804688" xlink:href="#DejaVuSans-105"/>
     <use x="339.587891" xlink:href="#DejaVuSans-111"/>
     <use x="400.769531" xlink:href="#DejaVuSans-114"/>
     <use x="441.882812" xlink:href="#DejaVuSans-32"/>
     <use x="473.669922" xlink:href="#DejaVuSans-80"/>
     <use x="532.222656" xlink:href="#DejaVuSans-114"/>
     <use x="571.085938" xlink:href="#DejaVuSans-101"/>
     <use x="632.609375" xlink:href="#DejaVuSans-100"/>
     <use x="696.085938" xlink:href="#DejaVuSans-105"/>
     <use x="723.869141" xlink:href="#DejaVuSans-99"/>
     <use x="778.849609" xlink:href="#DejaVuSans-116"/>
     <use x="818.058594" xlink:href="#DejaVuSans-105"/>
     <use x="845.841797" xlink:href="#DejaVuSans-118"/>
     <use x="905.021484" xlink:href="#DejaVuSans-101"/>
     <use x="966.544922" xlink:href="#DejaVuSans-32"/>
     <use x="998.332031" xlink:href="#DejaVuSans-111"/>
     <use x="1059.513672" xlink:href="#DejaVuSans-102"/>
     <use x="1094.71875" xlink:href="#DejaVuSans-32"/>
     <use x="1126.505859" xlink:href="#DejaVuSans-66"/>
     <use x="1195.109375" xlink:href="#DejaVuSans-97"/>
     <use x="1256.388672" xlink:href="#DejaVuSans-121"/>
     <use x="1315.568359" xlink:href="#DejaVuSans-101"/>
     <use x="1377.091797" xlink:href="#DejaVuSans-115"/>
     <use x="1429.191406" xlink:href="#DejaVuSans-105"/>
     <use x="1456.974609" xlink:href="#DejaVuSans-97"/>
     <use x="1518.253906" xlink:href="#DejaVuSans-110"/>
     <use x="1581.632812" xlink:href="#DejaVuSans-32"/>
     <use x="1613.419922" xlink:href="#DejaVuSans-76"/>
     <use x="1667.382812" xlink:href="#DejaVuSans-111"/>
     <use x="1728.564453" xlink:href="#DejaVuSans-103"/>
     <use x="1792.041016" xlink:href="#DejaVuSans-105"/>
     <use x="1819.824219" xlink:href="#DejaVuSans-115"/>
     <use x="1871.923828" xlink:href="#DejaVuSans-116"/>
     <use x="1911.132812" xlink:href="#DejaVuSans-105"/>
     <use x="1938.916016" xlink:href="#DejaVuSans-99"/>
     <use x="1993.896484" xlink:href="#DejaVuSans-32"/>
     <use x="2025.683594" xlink:href="#DejaVuSans-77"/>
     <use x="2111.962891" xlink:href="#DejaVuSans-111"/>
     <use x="2173.144531" xlink:href="#DejaVuSans-100"/>
     <use x="2236.621094" xlink:href="#DejaVuSans-101"/>
     <use x="2298.144531" xlink:href="#DejaVuSans-108"/>
    </g>
   </g>
  </g>
 </g>
 <defs>
  <clipPath id="pab65125fca">
   <rect height="388.08" width="390.6" x="63" y="60.48"/>
  </clipPath>
 </defs>
</svg>
