<?xml version="1.0" encoding="utf-8" standalone="no"?>
<!DOCTYPE svg PUBLIC "-//W3C//DTD SVG 1.1//EN"
  "http://www.w3.org/Graphics/SVG/1.1/DTD/svg11.dtd">
<!-- Created with matplotlib (https://matplotlib.org/) -->
<svg height="360pt" version="1.1" viewBox="0 0 720 360" width="720pt" xmlns="http://www.w3.org/2000/svg" xmlns:xlink="http://www.w3.org/1999/xlink">
 <metadata>
  <rdf:RDF xmlns:cc="http://creativecommons.org/ns#" xmlns:dc="http://purl.org/dc/elements/1.1/" xmlns:rdf="http://www.w3.org/1999/02/22-rdf-syntax-ns#">
   <cc:Work>
    <dc:type rdf:resource="http://purl.org/dc/dcmitype/StillImage"/>
    <dc:date>2020-12-05T13:32:02.168148</dc:date>
    <dc:format>image/svg+xml</dc:format>
    <dc:creator>
     <cc:Agent>
      <dc:title>Matplotlib v3.3.3, https://matplotlib.org/</dc:title>
     </cc:Agent>
    </dc:creator>
   </cc:Work>
  </rdf:RDF>
 </metadata>
 <defs>
  <style type="text/css">*{stroke-linecap:butt;stroke-linejoin:round;}</style>
 </defs>
 <g id="figure_1">
  <g id="patch_1">
   <path d="M 0 360 
L 720 360 
L 720 0 
L 0 0 
z
" style="fill:#ffffff;"/>
  </g>
  <g id="axes_1">
   <g id="patch_2">
    <path d="M 90 320.4 
L 343.636364 320.4 
L 343.636364 43.2 
L 90 43.2 
z
" style="fill:#ffffff;"/>
   </g>
   <g id="PolyCollection_1">
    <defs>
     <path d="M 101.528926 -52.2 
L 101.528926 -56.877413 
L 101.980156 -56.879455 
L 102.431386 -56.884381 
L 102.882616 -56.897578 
L 103.333845 -56.91529 
L 103.785075 -56.934786 
L 104.236305 -56.966416 
L 104.687535 -56.995467 
L 105.138765 -57.031767 
L 105.589995 -57.072567 
L 106.041225 -57.120597 
L 106.492455 -57.169275 
L 106.943685 -57.227935 
L 107.394915 -57.291221 
L 107.846145 -57.354289 
L 108.297375 -57.424253 
L 108.748605 -57.501121 
L 109.199835 -57.581049 
L 109.651065 -57.677229 
L 110.102295 -57.76918 
L 110.553525 -57.868572 
L 111.004755 -57.97054 
L 111.455985 -58.082769 
L 111.907215 -58.203699 
L 112.358445 -58.323117 
L 112.809675 -58.451399 
L 113.260905 -58.583591 
L 113.712135 -58.726791 
L 114.163365 -58.871143 
L 114.614595 -59.023184 
L 115.065825 -59.183865 
L 115.517055 -59.348738 
L 115.968285 -59.519417 
L 116.419514 -59.69305 
L 116.870744 -59.879863 
L 117.321974 -60.067764 
L 117.773204 -60.258339 
L 118.224434 -60.458551 
L 118.675664 -60.666654 
L 119.126894 -60.877747 
L 119.578124 -61.094566 
L 120.029354 -61.322616 
L 120.480584 -61.548972 
L 120.931814 -61.780827 
L 121.383044 -62.023696 
L 121.834274 -62.270126 
L 122.285504 -62.522528 
L 122.736734 -62.778882 
L 123.187964 -63.044794 
L 123.639194 -63.320514 
L 124.090424 -63.603665 
L 124.541654 -63.889135 
L 124.992884 -64.182056 
L 125.444114 -64.49628 
L 125.895344 -64.820806 
L 126.346574 -65.143104 
L 126.797804 -65.477218 
L 127.249034 -65.834362 
L 127.700264 -66.190433 
L 128.151494 -66.559523 
L 128.602724 -66.934731 
L 129.053954 -67.328789 
L 129.505183 -67.735341 
L 129.956413 -68.160176 
L 130.407643 -68.591127 
L 130.858873 -69.03011 
L 131.310103 -69.481048 
L 131.761333 -69.943357 
L 132.212563 -70.422892 
L 132.663793 -70.920682 
L 133.115023 -71.432956 
L 133.566253 -71.984557 
L 134.017483 -72.539096 
L 134.468713 -73.107784 
L 134.919943 -73.693397 
L 135.371173 -74.288288 
L 135.822403 -74.904911 
L 136.273633 -75.547542 
L 136.724863 -76.200403 
L 137.176093 -76.85918 
L 137.627323 -77.550414 
L 138.078553 -78.250861 
L 138.529783 -78.98875 
L 138.981013 -79.748812 
L 139.432243 -80.513736 
L 139.883473 -81.338167 
L 140.334703 -82.169597 
L 140.785933 -83.021235 
L 141.237163 -83.896015 
L 141.688393 -84.801726 
L 142.139623 -85.734677 
L 142.590852 -86.690104 
L 143.042082 -87.664691 
L 143.493312 -88.672194 
L 143.944542 -89.724235 
L 144.395772 -90.798321 
L 144.847002 -91.899632 
L 145.298232 -93.0254 
L 145.749462 -94.195096 
L 146.200692 -95.389371 
L 146.651922 -96.602348 
L 147.103152 -97.863852 
L 147.554382 -99.141427 
L 148.005612 -100.436831 
L 148.456842 -101.761037 
L 148.908072 -103.108328 
L 149.359302 -104.481635 
L 149.810532 -105.890874 
L 150.261762 -107.306797 
L 150.712992 -108.743168 
L 151.164222 -110.174568 
L 151.615452 -111.644626 
L 152.066682 -113.103616 
L 152.517912 -114.573013 
L 152.969142 -116.04949 
L 153.420372 -117.512283 
L 153.871602 -118.983673 
L 154.322832 -120.4516 
L 154.774062 -121.909992 
L 155.225292 -123.36438 
L 155.676521 -124.805848 
L 156.127751 -126.221382 
L 156.578981 -127.642303 
L 157.030211 -129.060122 
L 157.481441 -130.437491 
L 157.932671 -131.807114 
L 158.383901 -133.172403 
L 158.835131 -134.530346 
L 159.286361 -135.892755 
L 159.737591 -137.2515 
L 160.188821 -138.597036 
L 160.640051 -139.916584 
L 161.091281 -141.234127 
L 161.542511 -142.560513 
L 161.993741 -143.908608 
L 162.444971 -145.269966 
L 162.896201 -146.628421 
L 163.347431 -147.999217 
L 163.798661 -149.402605 
L 164.249891 -150.8284 
L 164.701121 -152.300966 
L 165.152351 -153.803256 
L 165.603581 -155.324701 
L 166.054811 -156.903318 
L 166.506041 -158.521195 
L 166.957271 -160.19538 
L 167.408501 -161.905485 
L 167.859731 -163.647899 
L 168.310961 -165.47121 
L 168.76219 -167.361355 
L 169.21342 -169.289757 
L 169.66465 -171.258634 
L 170.11588 -173.280838 
L 170.56711 -175.372525 
L 171.01834 -177.514611 
L 171.46957 -179.689333 
L 171.9208 -181.914086 
L 172.37203 -184.19855 
L 172.82326 -186.555769 
L 173.27449 -188.942936 
L 173.72572 -191.360728 
L 174.17695 -193.800803 
L 174.62818 -196.247371 
L 175.07941 -198.736743 
L 175.53064 -201.280547 
L 175.98187 -203.806166 
L 176.4331 -206.346324 
L 176.88433 -208.921908 
L 177.33556 -211.481379 
L 177.78679 -214.052026 
L 178.23802 -216.615148 
L 178.68925 -219.160318 
L 179.14048 -221.708978 
L 179.59171 -224.214923 
L 180.04294 -226.690736 
L 180.49417 -229.155304 
L 180.9454 -231.575073 
L 181.39663 -233.946793 
L 181.847859 -236.272359 
L 182.299089 -238.524256 
L 182.750319 -240.746465 
L 183.201549 -242.926335 
L 183.652779 -245.06554 
L 184.104009 -247.135313 
L 184.555239 -249.132241 
L 185.006469 -251.083553 
L 185.457699 -252.994668 
L 185.908929 -254.81927 
L 186.360159 -256.568956 
L 186.811389 -258.278792 
L 187.262619 -259.900766 
L 187.713849 -261.480511 
L 188.165079 -263.005361 
L 188.616309 -264.440832 
L 189.067539 -265.8558 
L 189.518769 -267.196954 
L 189.969999 -268.468311 
L 190.421229 -269.713228 
L 190.872459 -270.888341 
L 191.323689 -272.004494 
L 191.774919 -273.059634 
L 192.226149 -274.057179 
L 192.677379 -275.053641 
L 193.128609 -275.992719 
L 193.579839 -276.89835 
L 194.031069 -277.744842 
L 194.482299 -278.562033 
L 194.933528 -279.340097 
L 195.384758 -280.094633 
L 195.835988 -280.833901 
L 196.287218 -281.536958 
L 196.738448 -282.205645 
L 197.189678 -282.892779 
L 197.640908 -283.528094 
L 198.092138 -284.158823 
L 198.543368 -284.76757 
L 198.994598 -285.376038 
L 199.445828 -285.953244 
L 199.897058 -286.542653 
L 200.348288 -287.122089 
L 200.799518 -287.700733 
L 201.250748 -288.274947 
L 201.701978 -288.841186 
L 202.153208 -289.425011 
L 202.604438 -290.000748 
L 203.055668 -290.616361 
L 203.506898 -291.247596 
L 203.958128 -291.869139 
L 204.409358 -292.493136 
L 204.860588 -293.121681 
L 205.311818 -293.783131 
L 205.763048 -294.444113 
L 206.214278 -295.091891 
L 206.665508 -295.747403 
L 207.116738 -296.379021 
L 207.567968 -297.021641 
L 208.019197 -297.673027 
L 208.470427 -298.309013 
L 208.921657 -298.918807 
L 209.372887 -299.519641 
L 209.824117 -300.118822 
L 210.275347 -300.696352 
L 210.726577 -301.204047 
L 211.177807 -301.685768 
L 211.629037 -302.15602 
L 212.080267 -302.579183 
L 212.531497 -302.985654 
L 212.982727 -303.323076 
L 213.433957 -303.603178 
L 213.885187 -303.850525 
L 214.336417 -304.038811 
L 214.787647 -304.134267 
L 215.238877 -304.2 
L 215.690107 -304.187962 
L 216.141337 -304.151718 
L 216.592567 -304.046161 
L 217.043797 -303.871408 
L 217.495027 -303.613696 
L 217.946257 -303.260226 
L 218.397487 -302.873797 
L 218.848717 -302.458262 
L 219.299947 -301.948234 
L 219.751177 -301.417978 
L 220.202407 -300.82871 
L 220.653637 -300.181875 
L 221.104866 -299.515082 
L 221.556096 -298.762901 
L 222.007326 -298.014148 
L 222.458556 -297.239124 
L 222.909786 -296.408707 
L 223.361016 -295.548001 
L 223.812246 -294.692106 
L 224.263476 -293.825101 
L 224.714706 -292.950157 
L 225.165936 -292.059139 
L 225.617166 -291.14988 
L 226.068396 -290.22958 
L 226.519626 -289.311975 
L 226.970856 -288.389197 
L 227.422086 -287.455827 
L 227.873316 -286.507497 
L 228.324546 -285.564958 
L 228.775776 -284.618646 
L 229.227006 -283.639117 
L 229.678236 -282.687655 
L 230.129466 -281.705864 
L 230.580696 -280.693882 
L 231.031926 -279.695619 
L 231.483156 -278.60849 
L 231.934386 -277.49443 
L 232.385616 -276.356861 
L 232.836846 -275.185766 
L 233.288076 -273.965566 
L 233.739306 -272.698968 
L 234.190535 -271.378134 
L 234.641765 -270.017516 
L 235.092995 -268.557636 
L 235.544225 -267.05851 
L 235.995455 -265.513279 
L 236.446685 -263.894779 
L 236.897915 -262.235116 
L 237.349145 -260.508394 
L 237.800375 -258.714793 
L 238.251605 -256.866734 
L 238.702835 -254.960211 
L 239.154065 -253.026166 
L 239.605295 -251.024309 
L 240.056525 -249.004907 
L 240.507755 -246.943882 
L 240.958985 -244.866497 
L 241.410215 -242.769511 
L 241.861445 -240.652137 
L 242.312675 -238.528006 
L 242.763905 -236.38632 
L 243.215135 -234.245267 
L 243.666365 -232.105717 
L 244.117595 -229.974299 
L 244.568825 -227.829222 
L 245.020055 -225.73415 
L 245.471285 -223.647017 
L 245.922515 -221.5487 
L 246.373745 -219.494346 
L 246.824975 -217.424437 
L 247.276204 -215.379247 
L 247.727434 -213.359059 
L 248.178664 -211.358616 
L 248.629894 -209.376385 
L 249.081124 -207.417186 
L 249.532354 -205.469486 
L 249.983584 -203.526464 
L 250.434814 -201.600597 
L 250.886044 -199.680221 
L 251.337274 -197.785109 
L 251.788504 -195.877819 
L 252.239734 -193.970749 
L 252.690964 -192.080585 
L 253.142194 -190.201602 
L 253.593424 -188.324552 
L 254.044654 -186.451615 
L 254.495884 -184.588031 
L 254.947114 -182.717844 
L 255.398344 -180.849655 
L 255.849574 -179.014861 
L 256.300804 -177.15673 
L 256.752034 -175.301933 
L 257.203264 -173.47937 
L 257.654494 -171.624394 
L 258.105724 -169.805211 
L 258.556954 -167.970417 
L 259.008184 -166.169458 
L 259.459414 -164.382489 
L 259.910644 -162.607341 
L 260.361873 -160.835755 
L 260.813103 -159.069764 
L 261.264333 -157.304349 
L 261.715563 -155.559521 
L 262.166793 -153.809888 
L 262.618023 -152.081649 
L 263.069253 -150.366759 
L 263.520483 -148.638419 
L 263.971713 -146.958396 
L 264.422943 -145.28516 
L 264.874173 -143.597689 
L 265.325403 -141.935452 
L 265.776633 -140.289029 
L 266.227863 -138.64023 
L 266.679093 -137.009618 
L 267.130323 -135.37837 
L 267.581553 -133.769721 
L 268.032783 -132.171067 
L 268.484013 -130.577993 
L 268.935243 -129.002969 
L 269.386473 -127.466394 
L 269.837703 -125.927326 
L 270.288933 -124.398773 
L 270.740163 -122.885827 
L 271.191393 -121.396283 
L 271.642623 -119.939208 
L 272.093853 -118.466846 
L 272.545083 -117.017218 
L 272.996313 -115.588711 
L 273.447542 -114.181938 
L 273.898772 -112.818735 
L 274.350002 -111.477662 
L 274.801232 -110.156536 
L 275.252462 -108.825941 
L 275.703692 -107.532471 
L 276.154922 -106.262333 
L 276.606152 -105.020492 
L 277.057382 -103.772322 
L 277.508612 -102.572661 
L 277.959842 -101.386459 
L 278.411072 -100.225101 
L 278.862302 -99.091315 
L 279.313532 -97.977557 
L 279.764762 -96.900443 
L 280.215992 -95.840089 
L 280.667222 -94.813111 
L 281.118452 -93.812742 
L 281.569682 -92.832675 
L 282.020912 -91.883889 
L 282.472142 -90.970861 
L 282.923372 -90.092745 
L 283.374602 -89.242643 
L 283.825832 -88.402179 
L 284.277062 -87.608453 
L 284.728292 -86.83906 
L 285.179522 -86.108018 
L 285.630752 -85.390806 
L 286.081982 -84.707315 
L 286.533211 -84.044387 
L 286.984441 -83.423836 
L 287.435671 -82.81711 
L 287.886901 -82.218053 
L 288.338131 -81.658589 
L 288.789361 -81.106685 
L 289.240591 -80.598762 
L 289.691821 -80.098932 
L 290.143051 -79.609402 
L 290.594281 -79.128995 
L 291.045511 -78.657643 
L 291.496741 -78.189681 
L 291.947971 -77.735425 
L 292.399201 -77.290172 
L 292.850431 -76.841149 
L 293.301661 -76.38982 
L 293.752891 -75.944301 
L 294.204121 -75.50484 
L 294.655351 -75.065442 
L 295.106581 -74.616401 
L 295.557811 -74.171657 
L 296.009041 -73.718511 
L 296.460271 -73.255673 
L 296.911501 -72.793343 
L 297.362731 -72.324327 
L 297.813961 -71.860719 
L 298.265191 -71.381296 
L 298.716421 -70.920185 
L 299.167651 -70.461679 
L 299.61888 -69.990147 
L 300.07011 -69.516569 
L 300.52134 -69.057511 
L 300.97257 -68.593134 
L 301.4238 -68.123085 
L 301.87503 -67.662797 
L 302.32626 -67.198707 
L 302.77749 -66.744014 
L 303.22872 -66.295655 
L 303.67995 -65.847213 
L 304.13118 -65.409159 
L 304.58241 -64.981668 
L 305.03364 -64.55119 
L 305.48487 -64.133024 
L 305.9361 -63.726685 
L 306.38733 -63.325138 
L 306.83856 -62.927176 
L 307.28979 -62.540761 
L 307.74102 -62.168418 
L 308.19225 -61.800664 
L 308.64348 -61.442668 
L 309.09471 -61.094592 
L 309.54594 -60.756549 
L 309.99717 -60.42639 
L 310.4484 -60.109026 
L 310.89963 -59.80395 
L 311.35086 -59.51123 
L 311.80209 -59.215423 
L 312.25332 -58.940924 
L 312.704549 -58.676216 
L 313.155779 -58.425692 
L 313.607009 -58.177303 
L 314.058239 -57.932393 
L 314.509469 -57.712051 
L 314.960699 -57.4977 
L 315.411929 -57.292566 
L 315.863159 -57.09438 
L 316.314389 -56.907443 
L 316.765619 -56.7245 
L 317.216849 -56.555217 
L 317.668079 -56.394027 
L 318.119309 -56.238601 
L 318.570539 -56.096428 
L 319.021769 -55.955321 
L 319.472999 -55.829334 
L 319.924229 -55.703521 
L 320.375459 -55.5902 
L 320.826689 -55.48201 
L 321.277919 -55.383649 
L 321.729149 -55.291681 
L 322.180379 -55.208134 
L 322.631609 -55.130137 
L 323.082839 -55.053081 
L 323.534069 -54.984302 
L 323.985299 -54.926262 
L 324.436529 -54.868949 
L 324.887759 -54.816541 
L 325.338989 -54.768766 
L 325.790218 -54.723125 
L 326.241448 -54.679772 
L 326.692678 -54.645454 
L 327.143908 -54.616679 
L 327.595138 -54.588335 
L 328.046368 -54.56514 
L 328.497598 -54.544716 
L 328.948828 -54.526913 
L 329.400058 -54.511071 
L 329.851288 -54.494822 
L 330.302518 -54.485635 
L 330.753748 -54.481255 
L 331.204978 -54.474065 
L 331.656208 -54.468947 
L 332.107438 -54.46584 
L 332.107438 -52.2 
L 332.107438 -52.2 
L 331.656208 -52.2 
L 331.204978 -52.2 
L 330.753748 -52.2 
L 330.302518 -52.2 
L 329.851288 -52.2 
L 329.400058 -52.2 
L 328.948828 -52.2 
L 328.497598 -52.2 
L 328.046368 -52.2 
L 327.595138 -52.2 
L 327.143908 -52.2 
L 326.692678 -52.2 
L 326.241448 -52.2 
L 325.790218 -52.2 
L 325.338989 -52.2 
L 324.887759 -52.2 
L 324.436529 -52.2 
L 323.985299 -52.2 
L 323.534069 -52.2 
L 323.082839 -52.2 
L 322.631609 -52.2 
L 322.180379 -52.2 
L 321.729149 -52.2 
L 321.277919 -52.2 
L 320.826689 -52.2 
L 320.375459 -52.2 
L 319.924229 -52.2 
L 319.472999 -52.2 
L 319.021769 -52.2 
L 318.570539 -52.2 
L 318.119309 -52.2 
L 317.668079 -52.2 
L 317.216849 -52.2 
L 316.765619 -52.2 
L 316.314389 -52.2 
L 315.863159 -52.2 
L 315.411929 -52.2 
L 314.960699 -52.2 
L 314.509469 -52.2 
L 314.058239 -52.2 
L 313.607009 -52.2 
L 313.155779 -52.2 
L 312.704549 -52.2 
L 312.25332 -52.2 
L 311.80209 -52.2 
L 311.35086 -52.2 
L 310.89963 -52.2 
L 310.4484 -52.2 
L 309.99717 -52.2 
L 309.54594 -52.2 
L 309.09471 -52.2 
L 308.64348 -52.2 
L 308.19225 -52.2 
L 307.74102 -52.2 
L 307.28979 -52.2 
L 306.83856 -52.2 
L 306.38733 -52.2 
L 305.9361 -52.2 
L 305.48487 -52.2 
L 305.03364 -52.2 
L 304.58241 -52.2 
L 304.13118 -52.2 
L 303.67995 -52.2 
L 303.22872 -52.2 
L 302.77749 -52.2 
L 302.32626 -52.2 
L 301.87503 -52.2 
L 301.4238 -52.2 
L 300.97257 -52.2 
L 300.52134 -52.2 
L 300.07011 -52.2 
L 299.61888 -52.2 
L 299.167651 -52.2 
L 298.716421 -52.2 
L 298.265191 -52.2 
L 297.813961 -52.2 
L 297.362731 -52.2 
L 296.911501 -52.2 
L 296.460271 -52.2 
L 296.009041 -52.2 
L 295.557811 -52.2 
L 295.106581 -52.2 
L 294.655351 -52.2 
L 294.204121 -52.2 
L 293.752891 -52.2 
L 293.301661 -52.2 
L 292.850431 -52.2 
L 292.399201 -52.2 
L 291.947971 -52.2 
L 291.496741 -52.2 
L 291.045511 -52.2 
L 290.594281 -52.2 
L 290.143051 -52.2 
L 289.691821 -52.2 
L 289.240591 -52.2 
L 288.789361 -52.2 
L 288.338131 -52.2 
L 287.886901 -52.2 
L 287.435671 -52.2 
L 286.984441 -52.2 
L 286.533211 -52.2 
L 286.081982 -52.2 
L 285.630752 -52.2 
L 285.179522 -52.2 
L 284.728292 -52.2 
L 284.277062 -52.2 
L 283.825832 -52.2 
L 283.374602 -52.2 
L 282.923372 -52.2 
L 282.472142 -52.2 
L 282.020912 -52.2 
L 281.569682 -52.2 
L 281.118452 -52.2 
L 280.667222 -52.2 
L 280.215992 -52.2 
L 279.764762 -52.2 
L 279.313532 -52.2 
L 278.862302 -52.2 
L 278.411072 -52.2 
L 277.959842 -52.2 
L 277.508612 -52.2 
L 277.057382 -52.2 
L 276.606152 -52.2 
L 276.154922 -52.2 
L 275.703692 -52.2 
L 275.252462 -52.2 
L 274.801232 -52.2 
L 274.350002 -52.2 
L 273.898772 -52.2 
L 273.447542 -52.2 
L 272.996313 -52.2 
L 272.545083 -52.2 
L 272.093853 -52.2 
L 271.642623 -52.2 
L 271.191393 -52.2 
L 270.740163 -52.2 
L 270.288933 -52.2 
L 269.837703 -52.2 
L 269.386473 -52.2 
L 268.935243 -52.2 
L 268.484013 -52.2 
L 268.032783 -52.2 
L 267.581553 -52.2 
L 267.130323 -52.2 
L 266.679093 -52.2 
L 266.227863 -52.2 
L 265.776633 -52.2 
L 265.325403 -52.2 
L 264.874173 -52.2 
L 264.422943 -52.2 
L 263.971713 -52.2 
L 263.520483 -52.2 
L 263.069253 -52.2 
L 262.618023 -52.2 
L 262.166793 -52.2 
L 261.715563 -52.2 
L 261.264333 -52.2 
L 260.813103 -52.2 
L 260.361873 -52.2 
L 259.910644 -52.2 
L 259.459414 -52.2 
L 259.008184 -52.2 
L 258.556954 -52.2 
L 258.105724 -52.2 
L 257.654494 -52.2 
L 257.203264 -52.2 
L 256.752034 -52.2 
L 256.300804 -52.2 
L 255.849574 -52.2 
L 255.398344 -52.2 
L 254.947114 -52.2 
L 254.495884 -52.2 
L 254.044654 -52.2 
L 253.593424 -52.2 
L 253.142194 -52.2 
L 252.690964 -52.2 
L 252.239734 -52.2 
L 251.788504 -52.2 
L 251.337274 -52.2 
L 250.886044 -52.2 
L 250.434814 -52.2 
L 249.983584 -52.2 
L 249.532354 -52.2 
L 249.081124 -52.2 
L 248.629894 -52.2 
L 248.178664 -52.2 
L 247.727434 -52.2 
L 247.276204 -52.2 
L 246.824975 -52.2 
L 246.373745 -52.2 
L 245.922515 -52.2 
L 245.471285 -52.2 
L 245.020055 -52.2 
L 244.568825 -52.2 
L 244.117595 -52.2 
L 243.666365 -52.2 
L 243.215135 -52.2 
L 242.763905 -52.2 
L 242.312675 -52.2 
L 241.861445 -52.2 
L 241.410215 -52.2 
L 240.958985 -52.2 
L 240.507755 -52.2 
L 240.056525 -52.2 
L 239.605295 -52.2 
L 239.154065 -52.2 
L 238.702835 -52.2 
L 238.251605 -52.2 
L 237.800375 -52.2 
L 237.349145 -52.2 
L 236.897915 -52.2 
L 236.446685 -52.2 
L 235.995455 -52.2 
L 235.544225 -52.2 
L 235.092995 -52.2 
L 234.641765 -52.2 
L 234.190535 -52.2 
L 233.739306 -52.2 
L 233.288076 -52.2 
L 232.836846 -52.2 
L 232.385616 -52.2 
L 231.934386 -52.2 
L 231.483156 -52.2 
L 231.031926 -52.2 
L 230.580696 -52.2 
L 230.129466 -52.2 
L 229.678236 -52.2 
L 229.227006 -52.2 
L 228.775776 -52.2 
L 228.324546 -52.2 
L 227.873316 -52.2 
L 227.422086 -52.2 
L 226.970856 -52.2 
L 226.519626 -52.2 
L 226.068396 -52.2 
L 225.617166 -52.2 
L 225.165936 -52.2 
L 224.714706 -52.2 
L 224.263476 -52.2 
L 223.812246 -52.2 
L 223.361016 -52.2 
L 222.909786 -52.2 
L 222.458556 -52.2 
L 222.007326 -52.2 
L 221.556096 -52.2 
L 221.104866 -52.2 
L 220.653637 -52.2 
L 220.202407 -52.2 
L 219.751177 -52.2 
L 219.299947 -52.2 
L 218.848717 -52.2 
L 218.397487 -52.2 
L 217.946257 -52.2 
L 217.495027 -52.2 
L 217.043797 -52.2 
L 216.592567 -52.2 
L 216.141337 -52.2 
L 215.690107 -52.2 
L 215.238877 -52.2 
L 214.787647 -52.2 
L 214.336417 -52.2 
L 213.885187 -52.2 
L 213.433957 -52.2 
L 212.982727 -52.2 
L 212.531497 -52.2 
L 212.080267 -52.2 
L 211.629037 -52.2 
L 211.177807 -52.2 
L 210.726577 -52.2 
L 210.275347 -52.2 
L 209.824117 -52.2 
L 209.372887 -52.2 
L 208.921657 -52.2 
L 208.470427 -52.2 
L 208.019197 -52.2 
L 207.567968 -52.2 
L 207.116738 -52.2 
L 206.665508 -52.2 
L 206.214278 -52.2 
L 205.763048 -52.2 
L 205.311818 -52.2 
L 204.860588 -52.2 
L 204.409358 -52.2 
L 203.958128 -52.2 
L 203.506898 -52.2 
L 203.055668 -52.2 
L 202.604438 -52.2 
L 202.153208 -52.2 
L 201.701978 -52.2 
L 201.250748 -52.2 
L 200.799518 -52.2 
L 200.348288 -52.2 
L 199.897058 -52.2 
L 199.445828 -52.2 
L 198.994598 -52.2 
L 198.543368 -52.2 
L 198.092138 -52.2 
L 197.640908 -52.2 
L 197.189678 -52.2 
L 196.738448 -52.2 
L 196.287218 -52.2 
L 195.835988 -52.2 
L 195.384758 -52.2 
L 194.933528 -52.2 
L 194.482299 -52.2 
L 194.031069 -52.2 
L 193.579839 -52.2 
L 193.128609 -52.2 
L 192.677379 -52.2 
L 192.226149 -52.2 
L 191.774919 -52.2 
L 191.323689 -52.2 
L 190.872459 -52.2 
L 190.421229 -52.2 
L 189.969999 -52.2 
L 189.518769 -52.2 
L 189.067539 -52.2 
L 188.616309 -52.2 
L 188.165079 -52.2 
L 187.713849 -52.2 
L 187.262619 -52.2 
L 186.811389 -52.2 
L 186.360159 -52.2 
L 185.908929 -52.2 
L 185.457699 -52.2 
L 185.006469 -52.2 
L 184.555239 -52.2 
L 184.104009 -52.2 
L 183.652779 -52.2 
L 183.201549 -52.2 
L 182.750319 -52.2 
L 182.299089 -52.2 
L 181.847859 -52.2 
L 181.39663 -52.2 
L 180.9454 -52.2 
L 180.49417 -52.2 
L 180.04294 -52.2 
L 179.59171 -52.2 
L 179.14048 -52.2 
L 178.68925 -52.2 
L 178.23802 -52.2 
L 177.78679 -52.2 
L 177.33556 -52.2 
L 176.88433 -52.2 
L 176.4331 -52.2 
L 175.98187 -52.2 
L 175.53064 -52.2 
L 175.07941 -52.2 
L 174.62818 -52.2 
L 174.17695 -52.2 
L 173.72572 -52.2 
L 173.27449 -52.2 
L 172.82326 -52.2 
L 172.37203 -52.2 
L 171.9208 -52.2 
L 171.46957 -52.2 
L 171.01834 -52.2 
L 170.56711 -52.2 
L 170.11588 -52.2 
L 169.66465 -52.2 
L 169.21342 -52.2 
L 168.76219 -52.2 
L 168.310961 -52.2 
L 167.859731 -52.2 
L 167.408501 -52.2 
L 166.957271 -52.2 
L 166.506041 -52.2 
L 166.054811 -52.2 
L 165.603581 -52.2 
L 165.152351 -52.2 
L 164.701121 -52.2 
L 164.249891 -52.2 
L 163.798661 -52.2 
L 163.347431 -52.2 
L 162.896201 -52.2 
L 162.444971 -52.2 
L 161.993741 -52.2 
L 161.542511 -52.2 
L 161.091281 -52.2 
L 160.640051 -52.2 
L 160.188821 -52.2 
L 159.737591 -52.2 
L 159.286361 -52.2 
L 158.835131 -52.2 
L 158.383901 -52.2 
L 157.932671 -52.2 
L 157.481441 -52.2 
L 157.030211 -52.2 
L 156.578981 -52.2 
L 156.127751 -52.2 
L 155.676521 -52.2 
L 155.225292 -52.2 
L 154.774062 -52.2 
L 154.322832 -52.2 
L 153.871602 -52.2 
L 153.420372 -52.2 
L 152.969142 -52.2 
L 152.517912 -52.2 
L 152.066682 -52.2 
L 151.615452 -52.2 
L 151.164222 -52.2 
L 150.712992 -52.2 
L 150.261762 -52.2 
L 149.810532 -52.2 
L 149.359302 -52.2 
L 148.908072 -52.2 
L 148.456842 -52.2 
L 148.005612 -52.2 
L 147.554382 -52.2 
L 147.103152 -52.2 
L 146.651922 -52.2 
L 146.200692 -52.2 
L 145.749462 -52.2 
L 145.298232 -52.2 
L 144.847002 -52.2 
L 144.395772 -52.2 
L 143.944542 -52.2 
L 143.493312 -52.2 
L 143.042082 -52.2 
L 142.590852 -52.2 
L 142.139623 -52.2 
L 141.688393 -52.2 
L 141.237163 -52.2 
L 140.785933 -52.2 
L 140.334703 -52.2 
L 139.883473 -52.2 
L 139.432243 -52.2 
L 138.981013 -52.2 
L 138.529783 -52.2 
L 138.078553 -52.2 
L 137.627323 -52.2 
L 137.176093 -52.2 
L 136.724863 -52.2 
L 136.273633 -52.2 
L 135.822403 -52.2 
L 135.371173 -52.2 
L 134.919943 -52.2 
L 134.468713 -52.2 
L 134.017483 -52.2 
L 133.566253 -52.2 
L 133.115023 -52.2 
L 132.663793 -52.2 
L 132.212563 -52.2 
L 131.761333 -52.2 
L 131.310103 -52.2 
L 130.858873 -52.2 
L 130.407643 -52.2 
L 129.956413 -52.2 
L 129.505183 -52.2 
L 129.053954 -52.2 
L 128.602724 -52.2 
L 128.151494 -52.2 
L 127.700264 -52.2 
L 127.249034 -52.2 
L 126.797804 -52.2 
L 126.346574 -52.2 
L 125.895344 -52.2 
L 125.444114 -52.2 
L 124.992884 -52.2 
L 124.541654 -52.2 
L 124.090424 -52.2 
L 123.639194 -52.2 
L 123.187964 -52.2 
L 122.736734 -52.2 
L 122.285504 -52.2 
L 121.834274 -52.2 
L 121.383044 -52.2 
L 120.931814 -52.2 
L 120.480584 -52.2 
L 120.029354 -52.2 
L 119.578124 -52.2 
L 119.126894 -52.2 
L 118.675664 -52.2 
L 118.224434 -52.2 
L 117.773204 -52.2 
L 117.321974 -52.2 
L 116.870744 -52.2 
L 116.419514 -52.2 
L 115.968285 -52.2 
L 115.517055 -52.2 
L 115.065825 -52.2 
L 114.614595 -52.2 
L 114.163365 -52.2 
L 113.712135 -52.2 
L 113.260905 -52.2 
L 112.809675 -52.2 
L 112.358445 -52.2 
L 111.907215 -52.2 
L 111.455985 -52.2 
L 111.004755 -52.2 
L 110.553525 -52.2 
L 110.102295 -52.2 
L 109.651065 -52.2 
L 109.199835 -52.2 
L 108.748605 -52.2 
L 108.297375 -52.2 
L 107.846145 -52.2 
L 107.394915 -52.2 
L 106.943685 -52.2 
L 106.492455 -52.2 
L 106.041225 -52.2 
L 105.589995 -52.2 
L 105.138765 -52.2 
L 104.687535 -52.2 
L 104.236305 -52.2 
L 103.785075 -52.2 
L 103.333845 -52.2 
L 102.882616 -52.2 
L 102.431386 -52.2 
L 101.980156 -52.2 
L 101.528926 -52.2 
z
" id="m4243b9d5bc" style="stroke:#1f77b4;stroke-opacity:0;"/>
    </defs>
    <g clip-path="url(#p0047d5c040)">
     <use style="fill:#1f77b4;fill-opacity:0;stroke:#1f77b4;stroke-opacity:0;" x="0" xlink:href="#m4243b9d5bc" y="360"/>
    </g>
   </g>
   <g id="matplotlib.axis_1">
    <g id="xtick_1">
     <g id="line2d_1">
      <defs>
       <path d="M 0 0 
L 0 3 
" id="ma6afbfbb06" style="stroke:#808080;"/>
      </defs>
      <g>
       <use style="fill:#808080;stroke:#808080;" x="148.774251" xlink:href="#ma6afbfbb06" y="320.4"/>
      </g>
     </g>
     <g id="text_1">
      <!-- 0 -->
      <g transform="translate(144.320501 337.537813)scale(0.14 -0.14)">
       <defs>
        <path d="M 31.78125 66.40625 
Q 24.171875 66.40625 20.328125 58.90625 
Q 16.5 51.421875 16.5 36.375 
Q 16.5 21.390625 20.328125 13.890625 
Q 24.171875 6.390625 31.78125 6.390625 
Q 39.453125 6.390625 43.28125 13.890625 
Q 47.125 21.390625 47.125 36.375 
Q 47.125 51.421875 43.28125 58.90625 
Q 39.453125 66.40625 31.78125 66.40625 
z
M 31.78125 74.21875 
Q 44.046875 74.21875 50.515625 64.515625 
Q 56.984375 54.828125 56.984375 36.375 
Q 56.984375 17.96875 50.515625 8.265625 
Q 44.046875 -1.421875 31.78125 -1.421875 
Q 19.53125 -1.421875 13.0625 8.265625 
Q 6.59375 17.96875 6.59375 36.375 
Q 6.59375 54.828125 13.0625 64.515625 
Q 19.53125 74.21875 31.78125 74.21875 
z
" id="DejaVuSans-48"/>
       </defs>
       <use xlink:href="#DejaVuSans-48"/>
      </g>
     </g>
    </g>
    <g id="xtick_2">
     <g id="line2d_2">
      <g>
       <use style="fill:#808080;stroke:#808080;" x="222.910103" xlink:href="#ma6afbfbb06" y="320.4"/>
      </g>
     </g>
     <g id="text_2">
      <!-- 1 -->
      <g transform="translate(218.456353 337.537813)scale(0.14 -0.14)">
       <defs>
        <path d="M 12.40625 8.296875 
L 28.515625 8.296875 
L 28.515625 63.921875 
L 10.984375 60.40625 
L 10.984375 69.390625 
L 28.421875 72.90625 
L 38.28125 72.90625 
L 38.28125 8.296875 
L 54.390625 8.296875 
L 54.390625 0 
L 12.40625 0 
z
" id="DejaVuSans-49"/>
       </defs>
       <use xlink:href="#DejaVuSans-49"/>
      </g>
     </g>
    </g>
    <g id="xtick_3">
     <g id="line2d_3">
      <g>
       <use style="fill:#808080;stroke:#808080;" x="297.045956" xlink:href="#ma6afbfbb06" y="320.4"/>
      </g>
     </g>
     <g id="text_3">
      <!-- 2 -->
      <g transform="translate(292.592206 337.537813)scale(0.14 -0.14)">
       <defs>
        <path d="M 19.1875 8.296875 
L 53.609375 8.296875 
L 53.609375 0 
L 7.328125 0 
L 7.328125 8.296875 
Q 12.9375 14.109375 22.625 23.890625 
Q 32.328125 33.6875 34.8125 36.53125 
Q 39.546875 41.84375 41.421875 45.53125 
Q 43.3125 49.21875 43.3125 52.78125 
Q 43.3125 58.59375 39.234375 62.25 
Q 35.15625 65.921875 28.609375 65.921875 
Q 23.96875 65.921875 18.8125 64.3125 
Q 13.671875 62.703125 7.8125 59.421875 
L 7.8125 69.390625 
Q 13.765625 71.78125 18.9375 73 
Q 24.125 74.21875 28.421875 74.21875 
Q 39.75 74.21875 46.484375 68.546875 
Q 53.21875 62.890625 53.21875 53.421875 
Q 53.21875 48.921875 51.53125 44.890625 
Q 49.859375 40.875 45.40625 35.40625 
Q 44.1875 33.984375 37.640625 27.21875 
Q 31.109375 20.453125 19.1875 8.296875 
z
" id="DejaVuSans-50"/>
       </defs>
       <use xlink:href="#DejaVuSans-50"/>
      </g>
     </g>
    </g>
   </g>
   <g id="matplotlib.axis_2"/>
   <g id="line2d_4">
    <path clip-path="url(#p0047d5c040)" d="M 101.528926 303.122587 
L 104.687535 303.004533 
L 107.846145 302.645711 
L 110.553525 302.131428 
L 113.260905 301.416409 
L 116.419514 300.30695 
L 119.578124 298.905434 
L 122.736734 297.221118 
L 125.444114 295.50372 
L 128.151494 293.440477 
L 129.956413 291.839824 
L 132.212563 289.577108 
L 134.017483 287.460904 
L 136.273633 284.452458 
L 138.529783 281.01125 
L 140.334703 277.830403 
L 142.139623 274.265323 
L 143.944542 270.275765 
L 145.749462 265.804904 
L 148.005612 259.563169 
L 150.261762 252.693203 
L 160.188821 221.402964 
L 163.798661 210.597395 
L 165.603581 204.675299 
L 167.408501 198.094515 
L 169.21342 190.710243 
L 171.01834 182.485389 
L 172.82326 173.444231 
L 175.98187 156.193834 
L 181.847859 123.727641 
L 184.104009 112.864687 
L 185.908929 105.18073 
L 187.713849 98.519489 
L 189.518769 92.803046 
L 191.323689 87.995506 
L 193.128609 84.007281 
L 194.482299 81.437967 
L 196.287218 78.463042 
L 198.994598 74.623962 
L 203.958128 68.130861 
L 208.019197 62.326973 
L 210.275347 59.303648 
L 212.080267 57.420817 
L 212.982727 56.676924 
L 214.336417 55.961189 
L 215.238877 55.8 
L 216.141337 55.848282 
L 217.043797 56.128592 
L 217.946257 56.739774 
L 218.848717 57.541738 
L 220.202407 59.17129 
L 221.556096 61.237099 
L 222.909786 63.591293 
L 226.519626 70.688025 
L 230.129466 78.294136 
L 231.934386 82.50557 
L 233.739306 87.301032 
L 235.092995 91.442364 
L 236.897915 97.764884 
L 238.702835 105.039789 
L 240.958985 115.133503 
L 249.532354 154.530514 
L 254.044654 173.548385 
L 259.910644 197.392659 
L 264.422943 214.71484 
L 268.032783 227.828933 
L 271.191393 238.603717 
L 274.350002 248.522338 
L 277.508612 257.427339 
L 279.764762 263.099557 
L 281.569682 267.167325 
L 283.374602 270.757357 
L 285.179522 273.891982 
L 286.984441 276.576164 
L 288.789361 278.893315 
L 291.496741 281.810319 
L 306.38733 296.674862 
L 308.64348 298.557332 
L 310.89963 300.19605 
L 313.607009 301.822697 
L 315.411929 302.707434 
L 317.668079 303.605973 
L 319.924229 304.296479 
L 322.631609 304.869863 
L 325.338989 305.231234 
L 328.497598 305.455284 
L 332.107438 305.53416 
L 332.107438 305.53416 
" style="fill:none;stroke:#1f77b4;stroke-linecap:square;stroke-width:1.5;"/>
   </g>
   <g id="line2d_5">
    <path clip-path="url(#p0047d5c040)" d="M 146.037676 302.508 
L 278.261398 302.508 
" style="fill:none;stroke:#000000;stroke-width:3;"/>
   </g>
   <g id="patch_3">
    <path d="M 90 320.4 
L 343.636364 320.4 
" style="fill:none;stroke:#808080;stroke-linecap:square;stroke-linejoin:miter;stroke-width:0.8;"/>
   </g>
   <g id="text_4">
    <!-- -0.037  -->
    <g transform="translate(92.916582 289.278)scale(0.15 -0.15)">
     <defs>
      <path d="M 4.890625 31.390625 
L 31.203125 31.390625 
L 31.203125 23.390625 
L 4.890625 23.390625 
z
" id="DejaVuSans-45"/>
      <path d="M 10.6875 12.40625 
L 21 12.40625 
L 21 0 
L 10.6875 0 
z
" id="DejaVuSans-46"/>
      <path d="M 40.578125 39.3125 
Q 47.65625 37.796875 51.625 33 
Q 55.609375 28.21875 55.609375 21.1875 
Q 55.609375 10.40625 48.1875 4.484375 
Q 40.765625 -1.421875 27.09375 -1.421875 
Q 22.515625 -1.421875 17.65625 -0.515625 
Q 12.796875 0.390625 7.625 2.203125 
L 7.625 11.71875 
Q 11.71875 9.328125 16.59375 8.109375 
Q 21.484375 6.890625 26.8125 6.890625 
Q 36.078125 6.890625 40.9375 10.546875 
Q 45.796875 14.203125 45.796875 21.1875 
Q 45.796875 27.640625 41.28125 31.265625 
Q 36.765625 34.90625 28.71875 34.90625 
L 20.21875 34.90625 
L 20.21875 43.015625 
L 29.109375 43.015625 
Q 36.375 43.015625 40.234375 45.921875 
Q 44.09375 48.828125 44.09375 54.296875 
Q 44.09375 59.90625 40.109375 62.90625 
Q 36.140625 65.921875 28.71875 65.921875 
Q 24.65625 65.921875 20.015625 65.03125 
Q 15.375 64.15625 9.8125 62.3125 
L 9.8125 71.09375 
Q 15.4375 72.65625 20.34375 73.4375 
Q 25.25 74.21875 29.59375 74.21875 
Q 40.828125 74.21875 47.359375 69.109375 
Q 53.90625 64.015625 53.90625 55.328125 
Q 53.90625 49.265625 50.4375 45.09375 
Q 46.96875 40.921875 40.578125 39.3125 
z
" id="DejaVuSans-51"/>
      <path d="M 8.203125 72.90625 
L 55.078125 72.90625 
L 55.078125 68.703125 
L 28.609375 0 
L 18.3125 0 
L 43.21875 64.59375 
L 8.203125 64.59375 
z
" id="DejaVuSans-55"/>
      <path id="DejaVuSans-32"/>
     </defs>
     <use xlink:href="#DejaVuSans-45"/>
     <use x="36.083984" xlink:href="#DejaVuSans-48"/>
     <use x="99.707031" xlink:href="#DejaVuSans-46"/>
     <use x="131.494141" xlink:href="#DejaVuSans-48"/>
     <use x="195.117188" xlink:href="#DejaVuSans-51"/>
     <use x="258.740234" xlink:href="#DejaVuSans-55"/>
     <use x="322.363281" xlink:href="#DejaVuSans-32"/>
    </g>
   </g>
   <g id="text_5">
    <!--  1.7 -->
    <g transform="translate(278.261398 289.278)scale(0.15 -0.15)">
     <use xlink:href="#DejaVuSans-32"/>
     <use x="31.787109" xlink:href="#DejaVuSans-49"/>
     <use x="95.410156" xlink:href="#DejaVuSans-46"/>
     <use x="127.197266" xlink:href="#DejaVuSans-55"/>
    </g>
   </g>
   <g id="text_6">
    <!-- 94% HDI -->
    <g transform="translate(179.468287 228.42)scale(0.15 -0.15)">
     <defs>
      <path d="M 10.984375 1.515625 
L 10.984375 10.5 
Q 14.703125 8.734375 18.5 7.8125 
Q 22.3125 6.890625 25.984375 6.890625 
Q 35.75 6.890625 40.890625 13.453125 
Q 46.046875 20.015625 46.78125 33.40625 
Q 43.953125 29.203125 39.59375 26.953125 
Q 35.25 24.703125 29.984375 24.703125 
Q 19.046875 24.703125 12.671875 31.3125 
Q 6.296875 37.9375 6.296875 49.421875 
Q 6.296875 60.640625 12.9375 67.421875 
Q 19.578125 74.21875 30.609375 74.21875 
Q 43.265625 74.21875 49.921875 64.515625 
Q 56.59375 54.828125 56.59375 36.375 
Q 56.59375 19.140625 48.40625 8.859375 
Q 40.234375 -1.421875 26.421875 -1.421875 
Q 22.703125 -1.421875 18.890625 -0.6875 
Q 15.09375 0.046875 10.984375 1.515625 
z
M 30.609375 32.421875 
Q 37.25 32.421875 41.125 36.953125 
Q 45.015625 41.5 45.015625 49.421875 
Q 45.015625 57.28125 41.125 61.84375 
Q 37.25 66.40625 30.609375 66.40625 
Q 23.96875 66.40625 20.09375 61.84375 
Q 16.21875 57.28125 16.21875 49.421875 
Q 16.21875 41.5 20.09375 36.953125 
Q 23.96875 32.421875 30.609375 32.421875 
z
" id="DejaVuSans-57"/>
      <path d="M 37.796875 64.3125 
L 12.890625 25.390625 
L 37.796875 25.390625 
z
M 35.203125 72.90625 
L 47.609375 72.90625 
L 47.609375 25.390625 
L 58.015625 25.390625 
L 58.015625 17.1875 
L 47.609375 17.1875 
L 47.609375 0 
L 37.796875 0 
L 37.796875 17.1875 
L 4.890625 17.1875 
L 4.890625 26.703125 
z
" id="DejaVuSans-52"/>
      <path d="M 72.703125 32.078125 
Q 68.453125 32.078125 66.03125 28.46875 
Q 63.625 24.859375 63.625 18.40625 
Q 63.625 12.0625 66.03125 8.421875 
Q 68.453125 4.78125 72.703125 4.78125 
Q 76.859375 4.78125 79.265625 8.421875 
Q 81.6875 12.0625 81.6875 18.40625 
Q 81.6875 24.8125 79.265625 28.4375 
Q 76.859375 32.078125 72.703125 32.078125 
z
M 72.703125 38.28125 
Q 80.421875 38.28125 84.953125 32.90625 
Q 89.5 27.546875 89.5 18.40625 
Q 89.5 9.28125 84.9375 3.921875 
Q 80.375 -1.421875 72.703125 -1.421875 
Q 64.890625 -1.421875 60.34375 3.921875 
Q 55.8125 9.28125 55.8125 18.40625 
Q 55.8125 27.59375 60.375 32.9375 
Q 64.9375 38.28125 72.703125 38.28125 
z
M 22.3125 68.015625 
Q 18.109375 68.015625 15.6875 64.375 
Q 13.28125 60.75 13.28125 54.390625 
Q 13.28125 47.953125 15.671875 44.328125 
Q 18.0625 40.71875 22.3125 40.71875 
Q 26.5625 40.71875 28.96875 44.328125 
Q 31.390625 47.953125 31.390625 54.390625 
Q 31.390625 60.6875 28.953125 64.34375 
Q 26.515625 68.015625 22.3125 68.015625 
z
M 66.40625 74.21875 
L 74.21875 74.21875 
L 28.609375 -1.421875 
L 20.796875 -1.421875 
z
M 22.3125 74.21875 
Q 30.03125 74.21875 34.609375 68.875 
Q 39.203125 63.53125 39.203125 54.390625 
Q 39.203125 45.171875 34.640625 39.84375 
Q 30.078125 34.515625 22.3125 34.515625 
Q 14.546875 34.515625 10.03125 39.859375 
Q 5.515625 45.21875 5.515625 54.390625 
Q 5.515625 63.484375 10.046875 68.84375 
Q 14.59375 74.21875 22.3125 74.21875 
z
" id="DejaVuSans-37"/>
      <path d="M 9.8125 72.90625 
L 19.671875 72.90625 
L 19.671875 43.015625 
L 55.515625 43.015625 
L 55.515625 72.90625 
L 65.375 72.90625 
L 65.375 0 
L 55.515625 0 
L 55.515625 34.71875 
L 19.671875 34.71875 
L 19.671875 0 
L 9.8125 0 
z
" id="DejaVuSans-72"/>
      <path d="M 19.671875 64.796875 
L 19.671875 8.109375 
L 31.59375 8.109375 
Q 46.6875 8.109375 53.6875 14.9375 
Q 60.6875 21.78125 60.6875 36.53125 
Q 60.6875 51.171875 53.6875 57.984375 
Q 46.6875 64.796875 31.59375 64.796875 
z
M 9.8125 72.90625 
L 30.078125 72.90625 
Q 51.265625 72.90625 61.171875 64.09375 
Q 71.09375 55.28125 71.09375 36.53125 
Q 71.09375 17.671875 61.125 8.828125 
Q 51.171875 0 30.078125 0 
L 9.8125 0 
z
" id="DejaVuSans-68"/>
      <path d="M 9.8125 72.90625 
L 19.671875 72.90625 
L 19.671875 0 
L 9.8125 0 
z
" id="DejaVuSans-73"/>
     </defs>
     <use xlink:href="#DejaVuSans-57"/>
     <use x="63.623047" xlink:href="#DejaVuSans-52"/>
     <use x="127.246094" xlink:href="#DejaVuSans-37"/>
     <use x="222.265625" xlink:href="#DejaVuSans-32"/>
     <use x="254.052734" xlink:href="#DejaVuSans-72"/>
     <use x="329.248047" xlink:href="#DejaVuSans-68"/>
     <use x="406.25" xlink:href="#DejaVuSans-73"/>
    </g>
   </g>
   <g id="text_7">
    <!-- mean=0.87 -->
    <g transform="translate(169.015076 96.12)scale(0.15 -0.15)">
     <defs>
      <path d="M 52 44.1875 
Q 55.375 50.25 60.0625 53.125 
Q 64.75 56 71.09375 56 
Q 79.640625 56 84.28125 50.015625 
Q 88.921875 44.046875 88.921875 33.015625 
L 88.921875 0 
L 79.890625 0 
L 79.890625 32.71875 
Q 79.890625 40.578125 77.09375 44.375 
Q 74.3125 48.1875 68.609375 48.1875 
Q 61.625 48.1875 57.5625 43.546875 
Q 53.515625 38.921875 53.515625 30.90625 
L 53.515625 0 
L 44.484375 0 
L 44.484375 32.71875 
Q 44.484375 40.625 41.703125 44.40625 
Q 38.921875 48.1875 33.109375 48.1875 
Q 26.21875 48.1875 22.15625 43.53125 
Q 18.109375 38.875 18.109375 30.90625 
L 18.109375 0 
L 9.078125 0 
L 9.078125 54.6875 
L 18.109375 54.6875 
L 18.109375 46.1875 
Q 21.1875 51.21875 25.484375 53.609375 
Q 29.78125 56 35.6875 56 
Q 41.65625 56 45.828125 52.96875 
Q 50 49.953125 52 44.1875 
z
" id="DejaVuSans-109"/>
      <path d="M 56.203125 29.59375 
L 56.203125 25.203125 
L 14.890625 25.203125 
Q 15.484375 15.921875 20.484375 11.0625 
Q 25.484375 6.203125 34.421875 6.203125 
Q 39.59375 6.203125 44.453125 7.46875 
Q 49.3125 8.734375 54.109375 11.28125 
L 54.109375 2.78125 
Q 49.265625 0.734375 44.1875 -0.34375 
Q 39.109375 -1.421875 33.890625 -1.421875 
Q 20.796875 -1.421875 13.15625 6.1875 
Q 5.515625 13.8125 5.515625 26.8125 
Q 5.515625 40.234375 12.765625 48.109375 
Q 20.015625 56 32.328125 56 
Q 43.359375 56 49.78125 48.890625 
Q 56.203125 41.796875 56.203125 29.59375 
z
M 47.21875 32.234375 
Q 47.125 39.59375 43.09375 43.984375 
Q 39.0625 48.390625 32.421875 48.390625 
Q 24.90625 48.390625 20.390625 44.140625 
Q 15.875 39.890625 15.1875 32.171875 
z
" id="DejaVuSans-101"/>
      <path d="M 34.28125 27.484375 
Q 23.390625 27.484375 19.1875 25 
Q 14.984375 22.515625 14.984375 16.5 
Q 14.984375 11.71875 18.140625 8.90625 
Q 21.296875 6.109375 26.703125 6.109375 
Q 34.1875 6.109375 38.703125 11.40625 
Q 43.21875 16.703125 43.21875 25.484375 
L 43.21875 27.484375 
z
M 52.203125 31.203125 
L 52.203125 0 
L 43.21875 0 
L 43.21875 8.296875 
Q 40.140625 3.328125 35.546875 0.953125 
Q 30.953125 -1.421875 24.3125 -1.421875 
Q 15.921875 -1.421875 10.953125 3.296875 
Q 6 8.015625 6 15.921875 
Q 6 25.140625 12.171875 29.828125 
Q 18.359375 34.515625 30.609375 34.515625 
L 43.21875 34.515625 
L 43.21875 35.40625 
Q 43.21875 41.609375 39.140625 45 
Q 35.0625 48.390625 27.6875 48.390625 
Q 23 48.390625 18.546875 47.265625 
Q 14.109375 46.140625 10.015625 43.890625 
L 10.015625 52.203125 
Q 14.9375 54.109375 19.578125 55.046875 
Q 24.21875 56 28.609375 56 
Q 40.484375 56 46.34375 49.84375 
Q 52.203125 43.703125 52.203125 31.203125 
z
" id="DejaVuSans-97"/>
      <path d="M 54.890625 33.015625 
L 54.890625 0 
L 45.90625 0 
L 45.90625 32.71875 
Q 45.90625 40.484375 42.875 44.328125 
Q 39.84375 48.1875 33.796875 48.1875 
Q 26.515625 48.1875 22.3125 43.546875 
Q 18.109375 38.921875 18.109375 30.90625 
L 18.109375 0 
L 9.078125 0 
L 9.078125 54.6875 
L 18.109375 54.6875 
L 18.109375 46.1875 
Q 21.34375 51.125 25.703125 53.5625 
Q 30.078125 56 35.796875 56 
Q 45.21875 56 50.046875 50.171875 
Q 54.890625 44.34375 54.890625 33.015625 
z
" id="DejaVuSans-110"/>
      <path d="M 10.59375 45.40625 
L 73.1875 45.40625 
L 73.1875 37.203125 
L 10.59375 37.203125 
z
M 10.59375 25.484375 
L 73.1875 25.484375 
L 73.1875 17.1875 
L 10.59375 17.1875 
z
" id="DejaVuSans-61"/>
      <path d="M 31.78125 34.625 
Q 24.75 34.625 20.71875 30.859375 
Q 16.703125 27.09375 16.703125 20.515625 
Q 16.703125 13.921875 20.71875 10.15625 
Q 24.75 6.390625 31.78125 6.390625 
Q 38.8125 6.390625 42.859375 10.171875 
Q 46.921875 13.96875 46.921875 20.515625 
Q 46.921875 27.09375 42.890625 30.859375 
Q 38.875 34.625 31.78125 34.625 
z
M 21.921875 38.8125 
Q 15.578125 40.375 12.03125 44.71875 
Q 8.5 49.078125 8.5 55.328125 
Q 8.5 64.0625 14.71875 69.140625 
Q 20.953125 74.21875 31.78125 74.21875 
Q 42.671875 74.21875 48.875 69.140625 
Q 55.078125 64.0625 55.078125 55.328125 
Q 55.078125 49.078125 51.53125 44.71875 
Q 48 40.375 41.703125 38.8125 
Q 48.828125 37.15625 52.796875 32.3125 
Q 56.78125 27.484375 56.78125 20.515625 
Q 56.78125 9.90625 50.3125 4.234375 
Q 43.84375 -1.421875 31.78125 -1.421875 
Q 19.734375 -1.421875 13.25 4.234375 
Q 6.78125 9.90625 6.78125 20.515625 
Q 6.78125 27.484375 10.78125 32.3125 
Q 14.796875 37.15625 21.921875 38.8125 
z
M 18.3125 54.390625 
Q 18.3125 48.734375 21.84375 45.5625 
Q 25.390625 42.390625 31.78125 42.390625 
Q 38.140625 42.390625 41.71875 45.5625 
Q 45.3125 48.734375 45.3125 54.390625 
Q 45.3125 60.0625 41.71875 63.234375 
Q 38.140625 66.40625 31.78125 66.40625 
Q 25.390625 66.40625 21.84375 63.234375 
Q 18.3125 60.0625 18.3125 54.390625 
z
" id="DejaVuSans-56"/>
     </defs>
     <use xlink:href="#DejaVuSans-109"/>
     <use x="97.412109" xlink:href="#DejaVuSans-101"/>
     <use x="158.935547" xlink:href="#DejaVuSans-97"/>
     <use x="220.214844" xlink:href="#DejaVuSans-110"/>
     <use x="283.59375" xlink:href="#DejaVuSans-61"/>
     <use x="367.382812" xlink:href="#DejaVuSans-48"/>
     <use x="431.005859" xlink:href="#DejaVuSans-46"/>
     <use x="462.792969" xlink:href="#DejaVuSans-56"/>
     <use x="526.416016" xlink:href="#DejaVuSans-55"/>
    </g>
   </g>
   <g id="text_8">
    <!-- a -->
    <g transform="translate(211.915682 37.2)scale(0.16 -0.16)">
     <use xlink:href="#DejaVuSans-97"/>
    </g>
   </g>
  </g>
  <g id="axes_2">
   <g id="patch_4">
    <path d="M 394.363636 320.4 
L 648 320.4 
L 648 43.2 
L 394.363636 43.2 
z
" style="fill:#ffffff;"/>
   </g>
   <g id="PolyCollection_2">
    <defs>
     <path d="M 405.892562 -52.2 
L 405.892562 -52.891534 
L 406.343792 -52.891513 
L 406.795022 -52.889351 
L 407.246252 -52.880025 
L 407.697482 -52.869135 
L 408.148712 -52.859363 
L 408.599942 -52.848219 
L 409.051172 -52.836295 
L 409.502402 -52.824224 
L 409.953632 -52.812665 
L 410.404862 -52.802284 
L 410.856092 -52.793741 
L 411.307322 -52.787668 
L 411.758552 -52.784655 
L 412.209782 -52.791283 
L 412.661011 -52.797529 
L 413.112241 -52.80856 
L 413.563471 -52.824707 
L 414.014701 -52.846201 
L 414.465931 -52.873159 
L 414.917161 -52.905583 
L 415.368391 -52.943357 
L 415.819621 -52.986245 
L 416.270851 -53.033897 
L 416.722081 -53.085851 
L 417.173311 -53.144569 
L 417.624541 -53.207185 
L 418.075771 -53.270129 
L 418.527001 -53.335039 
L 418.978231 -53.401145 
L 419.429461 -53.467657 
L 419.880691 -53.536804 
L 420.331921 -53.602568 
L 420.783151 -53.669626 
L 421.234381 -53.735097 
L 421.685611 -53.79554 
L 422.136841 -53.852867 
L 422.588071 -53.90671 
L 423.039301 -53.956803 
L 423.490531 -54.000613 
L 423.941761 -54.044 
L 424.392991 -54.087047 
L 424.844221 -54.133136 
L 425.295451 -54.178303 
L 425.74668 -54.214409 
L 426.19791 -54.252208 
L 426.64914 -54.287146 
L 427.10037 -54.325373 
L 427.5516 -54.362436 
L 428.00283 -54.401529 
L 428.45406 -54.44952 
L 428.90529 -54.496721 
L 429.35652 -54.551699 
L 429.80775 -54.61601 
L 430.25898 -54.694343 
L 430.71021 -54.774172 
L 431.16144 -54.860422 
L 431.61267 -54.956074 
L 432.0639 -55.067676 
L 432.51513 -55.194202 
L 432.96636 -55.324969 
L 433.41759 -55.470354 
L 433.86882 -55.640343 
L 434.32005 -55.81109 
L 434.77128 -56.000463 
L 435.22251 -56.200833 
L 435.67374 -56.414456 
L 436.12497 -56.644123 
L 436.5762 -56.893319 
L 437.02743 -57.148251 
L 437.47866 -57.415562 
L 437.92989 -57.694684 
L 438.38112 -57.991003 
L 438.832349 -58.296313 
L 439.283579 -58.606308 
L 439.734809 -58.928428 
L 440.186039 -59.254015 
L 440.637269 -59.595011 
L 441.088499 -59.939787 
L 441.539729 -60.289682 
L 441.990959 -60.641238 
L 442.442189 -60.999235 
L 442.893419 -61.359501 
L 443.344649 -61.72323 
L 443.795879 -62.105133 
L 444.247109 -62.478735 
L 444.698339 -62.843825 
L 445.149569 -63.206499 
L 445.600799 -63.574825 
L 446.052029 -63.935108 
L 446.503259 -64.294373 
L 446.954489 -64.649726 
L 447.405719 -65.012856 
L 447.856949 -65.354751 
L 448.308179 -65.694579 
L 448.759409 -66.0285 
L 449.210639 -66.368569 
L 449.661869 -66.712056 
L 450.113099 -67.046393 
L 450.564329 -67.376747 
L 451.015559 -67.718743 
L 451.466789 -68.067896 
L 451.918018 -68.415182 
L 452.369248 -68.776025 
L 452.820478 -69.149131 
L 453.271708 -69.532156 
L 453.722938 -69.929159 
L 454.174168 -70.341801 
L 454.625398 -70.775294 
L 455.076628 -71.235433 
L 455.527858 -71.72632 
L 455.979088 -72.263502 
L 456.430318 -72.832462 
L 456.881548 -73.435508 
L 457.332778 -74.091294 
L 457.784008 -74.777342 
L 458.235238 -75.504208 
L 458.686468 -76.284478 
L 459.137698 -77.109115 
L 459.588928 -77.987687 
L 460.040158 -78.916445 
L 460.491388 -79.896642 
L 460.942618 -80.914061 
L 461.393848 -81.986207 
L 461.845078 -83.121342 
L 462.296308 -84.301254 
L 462.747538 -85.511823 
L 463.198768 -86.762535 
L 463.649998 -88.047026 
L 464.101228 -89.374902 
L 464.552458 -90.73006 
L 465.003687 -92.122265 
L 465.454917 -93.551687 
L 465.906147 -94.983298 
L 466.357377 -96.452057 
L 466.808607 -97.950242 
L 467.259837 -99.468426 
L 467.711067 -100.985395 
L 468.162297 -102.51165 
L 468.613527 -104.057758 
L 469.064757 -105.617164 
L 469.515987 -107.159896 
L 469.967217 -108.713436 
L 470.418447 -110.264024 
L 470.869677 -111.803914 
L 471.320907 -113.364717 
L 471.772137 -114.922019 
L 472.223367 -116.482505 
L 472.674597 -118.054958 
L 473.125827 -119.60729 
L 473.577057 -121.167863 
L 474.028287 -122.71974 
L 474.479517 -124.273705 
L 474.930747 -125.831696 
L 475.381977 -127.383458 
L 475.833207 -128.940046 
L 476.284437 -130.476081 
L 476.735667 -132.035492 
L 477.186897 -133.587894 
L 477.638127 -135.155756 
L 478.089356 -136.710682 
L 478.540586 -138.267003 
L 478.991816 -139.839889 
L 479.443046 -141.416781 
L 479.894276 -142.995337 
L 480.345506 -144.596697 
L 480.796736 -146.215139 
L 481.247966 -147.832324 
L 481.699196 -149.465187 
L 482.150426 -151.097287 
L 482.601656 -152.760371 
L 483.052886 -154.423719 
L 483.504116 -156.128721 
L 483.955346 -157.845954 
L 484.406576 -159.605212 
L 484.857806 -161.350346 
L 485.309036 -163.12493 
L 485.760266 -164.939165 
L 486.211496 -166.794621 
L 486.662726 -168.694812 
L 487.113956 -170.620039 
L 487.565186 -172.599712 
L 488.016416 -174.614148 
L 488.467646 -176.67365 
L 488.918876 -178.775489 
L 489.370106 -180.916836 
L 489.821336 -183.103903 
L 490.272566 -185.315546 
L 490.723796 -187.577301 
L 491.175025 -189.889237 
L 491.626255 -192.222467 
L 492.077485 -194.597985 
L 492.528715 -197.002309 
L 492.979945 -199.415954 
L 493.431175 -201.882427 
L 493.882405 -204.35889 
L 494.333635 -206.837244 
L 494.784865 -209.317079 
L 495.236095 -211.811043 
L 495.687325 -214.294706 
L 496.138555 -216.773798 
L 496.589785 -219.24174 
L 497.041015 -221.685075 
L 497.492245 -224.075884 
L 497.943475 -226.465758 
L 498.394705 -228.80226 
L 498.845935 -231.127868 
L 499.297165 -233.425223 
L 499.748395 -235.653313 
L 500.199625 -237.824991 
L 500.650855 -239.956969 
L 501.102085 -242.043375 
L 501.553315 -244.135553 
L 502.004545 -246.150866 
L 502.455775 -248.109514 
L 502.907005 -250.0231 
L 503.358235 -251.922489 
L 503.809465 -253.7831 
L 504.260694 -255.616426 
L 504.711924 -257.398962 
L 505.163154 -259.18338 
L 505.614384 -260.92112 
L 506.065614 -262.639238 
L 506.516844 -264.330749 
L 506.968074 -265.985418 
L 507.419304 -267.630507 
L 507.870534 -269.234199 
L 508.321764 -270.84055 
L 508.772994 -272.452854 
L 509.224224 -273.996194 
L 509.675454 -275.561022 
L 510.126684 -277.10198 
L 510.577914 -278.604407 
L 511.029144 -280.080132 
L 511.480374 -281.559732 
L 511.931604 -282.988415 
L 512.382834 -284.384618 
L 512.834064 -285.740001 
L 513.285294 -287.051054 
L 513.736524 -288.364126 
L 514.187754 -289.611105 
L 514.638984 -290.777811 
L 515.090214 -291.886058 
L 515.541444 -292.98197 
L 515.992674 -294.010156 
L 516.443904 -295.007964 
L 516.895134 -295.949861 
L 517.346363 -296.828459 
L 517.797593 -297.658353 
L 518.248823 -298.457814 
L 518.700053 -299.177844 
L 519.151283 -299.862629 
L 519.602513 -300.498247 
L 520.053743 -301.090771 
L 520.504973 -301.645679 
L 520.956203 -302.110154 
L 521.407433 -302.549835 
L 521.858663 -302.935265 
L 522.309893 -303.259065 
L 522.761123 -303.559424 
L 523.212353 -303.775553 
L 523.663583 -303.954391 
L 524.114813 -304.07648 
L 524.566043 -304.155309 
L 525.017273 -304.2 
L 525.468503 -304.171452 
L 525.919733 -304.103823 
L 526.370963 -303.926754 
L 526.822193 -303.691268 
L 527.273423 -303.415908 
L 527.724653 -303.072865 
L 528.175883 -302.673193 
L 528.627113 -302.208165 
L 529.078343 -301.653504 
L 529.529573 -301.020524 
L 529.980803 -300.303896 
L 530.432032 -299.525797 
L 530.883262 -298.696199 
L 531.334492 -297.781004 
L 531.785722 -296.778479 
L 532.236952 -295.70748 
L 532.688182 -294.571789 
L 533.139412 -293.362718 
L 533.590642 -292.057605 
L 534.041872 -290.703365 
L 534.493102 -289.25269 
L 534.944332 -287.727334 
L 535.395562 -286.133597 
L 535.846792 -284.491247 
L 536.298022 -282.757478 
L 536.749252 -280.936292 
L 537.200482 -279.023995 
L 537.651712 -277.083519 
L 538.102942 -275.111076 
L 538.554172 -273.055662 
L 539.005402 -270.942172 
L 539.456632 -268.800873 
L 539.907862 -266.585666 
L 540.359092 -264.336853 
L 540.810322 -262.031384 
L 541.261552 -259.735815 
L 541.712782 -257.399512 
L 542.164012 -255.042158 
L 542.615242 -252.675141 
L 543.066472 -250.270535 
L 543.517701 -247.898702 
L 543.968931 -245.500332 
L 544.420161 -243.102679 
L 544.871391 -240.73267 
L 545.322621 -238.334923 
L 545.773851 -235.939337 
L 546.225081 -233.591642 
L 546.676311 -231.236938 
L 547.127541 -228.901268 
L 547.578771 -226.603783 
L 548.030001 -224.315125 
L 548.481231 -222.096371 
L 548.932461 -219.883907 
L 549.383691 -217.678823 
L 549.834921 -215.547117 
L 550.286151 -213.474023 
L 550.737381 -211.458496 
L 551.188611 -209.456239 
L 551.639841 -207.530165 
L 552.091071 -205.63616 
L 552.542301 -203.823216 
L 552.993531 -202.081433 
L 553.444761 -200.401193 
L 553.895991 -198.749078 
L 554.347221 -197.198124 
L 554.798451 -195.683151 
L 555.249681 -194.230972 
L 555.700911 -192.801597 
L 556.152141 -191.447206 
L 556.60337 -190.155991 
L 557.0546 -188.853472 
L 557.50583 -187.577097 
L 557.95706 -186.315794 
L 558.40829 -185.04979 
L 558.85952 -183.796601 
L 559.31075 -182.517471 
L 559.76198 -181.222514 
L 560.21321 -179.885505 
L 560.66444 -178.488934 
L 561.11567 -177.054108 
L 561.5669 -175.543396 
L 562.01813 -173.996004 
L 562.46936 -172.354053 
L 562.92059 -170.632716 
L 563.37182 -168.827399 
L 563.82305 -166.951657 
L 564.27428 -165.014936 
L 564.72551 -162.996826 
L 565.17674 -160.93042 
L 565.62797 -158.803298 
L 566.0792 -156.604013 
L 566.53043 -154.31956 
L 566.98166 -152.014014 
L 567.43289 -149.688765 
L 567.88412 -147.330059 
L 568.33535 -144.941067 
L 568.78658 -142.550478 
L 569.23781 -140.180987 
L 569.689039 -137.805078 
L 570.140269 -135.449719 
L 570.591499 -133.123195 
L 571.042729 -130.84309 
L 571.493959 -128.602817 
L 571.945189 -126.418897 
L 572.396419 -124.311203 
L 572.847649 -122.2574 
L 573.298879 -120.276251 
L 573.750109 -118.354735 
L 574.201339 -116.531324 
L 574.652569 -114.77538 
L 575.103799 -113.08507 
L 575.555029 -111.498325 
L 576.006259 -109.991406 
L 576.457489 -108.555587 
L 576.908719 -107.179666 
L 577.359949 -105.866604 
L 577.811179 -104.622307 
L 578.262409 -103.424752 
L 578.713639 -102.292187 
L 579.164869 -101.177963 
L 579.616099 -100.109045 
L 580.067329 -99.080814 
L 580.518559 -98.097049 
L 580.969789 -97.11597 
L 581.421019 -96.167795 
L 581.872249 -95.208971 
L 582.323479 -94.272054 
L 582.774708 -93.311539 
L 583.225938 -92.364595 
L 583.677168 -91.404961 
L 584.128398 -90.418014 
L 584.579628 -89.453244 
L 585.030858 -88.47997 
L 585.482088 -87.492429 
L 585.933318 -86.497969 
L 586.384548 -85.484282 
L 586.835778 -84.481763 
L 587.287008 -83.465728 
L 587.738238 -82.457003 
L 588.189468 -81.448047 
L 588.640698 -80.449143 
L 589.091928 -79.462379 
L 589.543158 -78.488218 
L 589.994388 -77.530005 
L 590.445618 -76.593896 
L 590.896848 -75.682243 
L 591.348078 -74.801283 
L 591.799308 -73.937605 
L 592.250538 -73.102149 
L 592.701768 -72.303426 
L 593.152998 -71.531974 
L 593.604228 -70.789792 
L 594.055458 -70.079379 
L 594.506688 -69.409936 
L 594.957918 -68.759758 
L 595.409148 -68.132775 
L 595.860377 -67.536351 
L 596.311607 -66.970349 
L 596.762837 -66.429908 
L 597.214067 -65.923237 
L 597.665297 -65.432073 
L 598.116527 -64.963106 
L 598.567757 -64.513723 
L 599.018987 -64.086612 
L 599.470217 -63.668049 
L 599.921447 -63.255835 
L 600.372677 -62.867157 
L 600.823907 -62.482206 
L 601.275137 -62.109228 
L 601.726367 -61.747624 
L 602.177597 -61.394637 
L 602.628827 -61.060084 
L 603.080057 -60.728038 
L 603.531287 -60.417012 
L 603.982517 -60.117877 
L 604.433747 -59.825968 
L 604.884977 -59.528266 
L 605.336207 -59.264483 
L 605.787437 -59.006371 
L 606.238667 -58.760264 
L 606.689897 -58.531059 
L 607.141127 -58.312981 
L 607.592357 -58.103735 
L 608.043587 -57.901346 
L 608.494817 -57.720646 
L 608.946046 -57.542121 
L 609.397276 -57.371572 
L 609.848506 -57.21798 
L 610.299736 -57.071425 
L 610.750966 -56.930939 
L 611.202196 -56.795458 
L 611.653426 -56.663862 
L 612.104656 -56.537378 
L 612.555886 -56.404876 
L 613.007116 -56.281185 
L 613.458346 -56.156396 
L 613.909576 -56.022658 
L 614.360806 -55.89277 
L 614.812036 -55.762506 
L 615.263266 -55.628597 
L 615.714496 -55.486221 
L 616.165726 -55.336506 
L 616.616956 -55.19475 
L 617.068186 -55.044641 
L 617.519416 -54.892624 
L 617.970646 -54.741616 
L 618.421876 -54.587028 
L 618.873106 -54.440405 
L 619.324336 -54.294568 
L 619.775566 -54.147763 
L 620.226796 -53.998739 
L 620.678026 -53.859106 
L 621.129256 -53.723878 
L 621.580486 -53.591663 
L 622.031715 -53.466234 
L 622.482945 -53.350622 
L 622.934175 -53.240121 
L 623.385405 -53.135818 
L 623.836635 -53.0433 
L 624.287865 -52.962145 
L 624.739095 -52.889585 
L 625.190325 -52.825741 
L 625.641555 -52.770617 
L 626.092785 -52.721731 
L 626.544015 -52.684137 
L 626.995245 -52.654531 
L 627.446475 -52.632547 
L 627.897705 -52.617749 
L 628.348935 -52.609634 
L 628.800165 -52.605275 
L 629.251395 -52.606963 
L 629.702625 -52.616317 
L 630.153855 -52.627311 
L 630.605085 -52.644549 
L 631.056315 -52.661976 
L 631.507545 -52.684184 
L 631.958775 -52.707489 
L 632.410005 -52.731232 
L 632.861235 -52.752398 
L 633.312465 -52.775625 
L 633.763695 -52.794946 
L 634.214925 -52.807985 
L 634.666155 -52.827051 
L 635.117384 -52.842734 
L 635.568614 -52.854754 
L 636.019844 -52.862891 
L 636.471074 -52.866998 
L 636.471074 -52.2 
L 636.471074 -52.2 
L 636.019844 -52.2 
L 635.568614 -52.2 
L 635.117384 -52.2 
L 634.666155 -52.2 
L 634.214925 -52.2 
L 633.763695 -52.2 
L 633.312465 -52.2 
L 632.861235 -52.2 
L 632.410005 -52.2 
L 631.958775 -52.2 
L 631.507545 -52.2 
L 631.056315 -52.2 
L 630.605085 -52.2 
L 630.153855 -52.2 
L 629.702625 -52.2 
L 629.251395 -52.2 
L 628.800165 -52.2 
L 628.348935 -52.2 
L 627.897705 -52.2 
L 627.446475 -52.2 
L 626.995245 -52.2 
L 626.544015 -52.2 
L 626.092785 -52.2 
L 625.641555 -52.2 
L 625.190325 -52.2 
L 624.739095 -52.2 
L 624.287865 -52.2 
L 623.836635 -52.2 
L 623.385405 -52.2 
L 622.934175 -52.2 
L 622.482945 -52.2 
L 622.031715 -52.2 
L 621.580486 -52.2 
L 621.129256 -52.2 
L 620.678026 -52.2 
L 620.226796 -52.2 
L 619.775566 -52.2 
L 619.324336 -52.2 
L 618.873106 -52.2 
L 618.421876 -52.2 
L 617.970646 -52.2 
L 617.519416 -52.2 
L 617.068186 -52.2 
L 616.616956 -52.2 
L 616.165726 -52.2 
L 615.714496 -52.2 
L 615.263266 -52.2 
L 614.812036 -52.2 
L 614.360806 -52.2 
L 613.909576 -52.2 
L 613.458346 -52.2 
L 613.007116 -52.2 
L 612.555886 -52.2 
L 612.104656 -52.2 
L 611.653426 -52.2 
L 611.202196 -52.2 
L 610.750966 -52.2 
L 610.299736 -52.2 
L 609.848506 -52.2 
L 609.397276 -52.2 
L 608.946046 -52.2 
L 608.494817 -52.2 
L 608.043587 -52.2 
L 607.592357 -52.2 
L 607.141127 -52.2 
L 606.689897 -52.2 
L 606.238667 -52.2 
L 605.787437 -52.2 
L 605.336207 -52.2 
L 604.884977 -52.2 
L 604.433747 -52.2 
L 603.982517 -52.2 
L 603.531287 -52.2 
L 603.080057 -52.2 
L 602.628827 -52.2 
L 602.177597 -52.2 
L 601.726367 -52.2 
L 601.275137 -52.2 
L 600.823907 -52.2 
L 600.372677 -52.2 
L 599.921447 -52.2 
L 599.470217 -52.2 
L 599.018987 -52.2 
L 598.567757 -52.2 
L 598.116527 -52.2 
L 597.665297 -52.2 
L 597.214067 -52.2 
L 596.762837 -52.2 
L 596.311607 -52.2 
L 595.860377 -52.2 
L 595.409148 -52.2 
L 594.957918 -52.2 
L 594.506688 -52.2 
L 594.055458 -52.2 
L 593.604228 -52.2 
L 593.152998 -52.2 
L 592.701768 -52.2 
L 592.250538 -52.2 
L 591.799308 -52.2 
L 591.348078 -52.2 
L 590.896848 -52.2 
L 590.445618 -52.2 
L 589.994388 -52.2 
L 589.543158 -52.2 
L 589.091928 -52.2 
L 588.640698 -52.2 
L 588.189468 -52.2 
L 587.738238 -52.2 
L 587.287008 -52.2 
L 586.835778 -52.2 
L 586.384548 -52.2 
L 585.933318 -52.2 
L 585.482088 -52.2 
L 585.030858 -52.2 
L 584.579628 -52.2 
L 584.128398 -52.2 
L 583.677168 -52.2 
L 583.225938 -52.2 
L 582.774708 -52.2 
L 582.323479 -52.2 
L 581.872249 -52.2 
L 581.421019 -52.2 
L 580.969789 -52.2 
L 580.518559 -52.2 
L 580.067329 -52.2 
L 579.616099 -52.2 
L 579.164869 -52.2 
L 578.713639 -52.2 
L 578.262409 -52.2 
L 577.811179 -52.2 
L 577.359949 -52.2 
L 576.908719 -52.2 
L 576.457489 -52.2 
L 576.006259 -52.2 
L 575.555029 -52.2 
L 575.103799 -52.2 
L 574.652569 -52.2 
L 574.201339 -52.2 
L 573.750109 -52.2 
L 573.298879 -52.2 
L 572.847649 -52.2 
L 572.396419 -52.2 
L 571.945189 -52.2 
L 571.493959 -52.2 
L 571.042729 -52.2 
L 570.591499 -52.2 
L 570.140269 -52.2 
L 569.689039 -52.2 
L 569.23781 -52.2 
L 568.78658 -52.2 
L 568.33535 -52.2 
L 567.88412 -52.2 
L 567.43289 -52.2 
L 566.98166 -52.2 
L 566.53043 -52.2 
L 566.0792 -52.2 
L 565.62797 -52.2 
L 565.17674 -52.2 
L 564.72551 -52.2 
L 564.27428 -52.2 
L 563.82305 -52.2 
L 563.37182 -52.2 
L 562.92059 -52.2 
L 562.46936 -52.2 
L 562.01813 -52.2 
L 561.5669 -52.2 
L 561.11567 -52.2 
L 560.66444 -52.2 
L 560.21321 -52.2 
L 559.76198 -52.2 
L 559.31075 -52.2 
L 558.85952 -52.2 
L 558.40829 -52.2 
L 557.95706 -52.2 
L 557.50583 -52.2 
L 557.0546 -52.2 
L 556.60337 -52.2 
L 556.152141 -52.2 
L 555.700911 -52.2 
L 555.249681 -52.2 
L 554.798451 -52.2 
L 554.347221 -52.2 
L 553.895991 -52.2 
L 553.444761 -52.2 
L 552.993531 -52.2 
L 552.542301 -52.2 
L 552.091071 -52.2 
L 551.639841 -52.2 
L 551.188611 -52.2 
L 550.737381 -52.2 
L 550.286151 -52.2 
L 549.834921 -52.2 
L 549.383691 -52.2 
L 548.932461 -52.2 
L 548.481231 -52.2 
L 548.030001 -52.2 
L 547.578771 -52.2 
L 547.127541 -52.2 
L 546.676311 -52.2 
L 546.225081 -52.2 
L 545.773851 -52.2 
L 545.322621 -52.2 
L 544.871391 -52.2 
L 544.420161 -52.2 
L 543.968931 -52.2 
L 543.517701 -52.2 
L 543.066472 -52.2 
L 542.615242 -52.2 
L 542.164012 -52.2 
L 541.712782 -52.2 
L 541.261552 -52.2 
L 540.810322 -52.2 
L 540.359092 -52.2 
L 539.907862 -52.2 
L 539.456632 -52.2 
L 539.005402 -52.2 
L 538.554172 -52.2 
L 538.102942 -52.2 
L 537.651712 -52.2 
L 537.200482 -52.2 
L 536.749252 -52.2 
L 536.298022 -52.2 
L 535.846792 -52.2 
L 535.395562 -52.2 
L 534.944332 -52.2 
L 534.493102 -52.2 
L 534.041872 -52.2 
L 533.590642 -52.2 
L 533.139412 -52.2 
L 532.688182 -52.2 
L 532.236952 -52.2 
L 531.785722 -52.2 
L 531.334492 -52.2 
L 530.883262 -52.2 
L 530.432032 -52.2 
L 529.980803 -52.2 
L 529.529573 -52.2 
L 529.078343 -52.2 
L 528.627113 -52.2 
L 528.175883 -52.2 
L 527.724653 -52.2 
L 527.273423 -52.2 
L 526.822193 -52.2 
L 526.370963 -52.2 
L 525.919733 -52.2 
L 525.468503 -52.2 
L 525.017273 -52.2 
L 524.566043 -52.2 
L 524.114813 -52.2 
L 523.663583 -52.2 
L 523.212353 -52.2 
L 522.761123 -52.2 
L 522.309893 -52.2 
L 521.858663 -52.2 
L 521.407433 -52.2 
L 520.956203 -52.2 
L 520.504973 -52.2 
L 520.053743 -52.2 
L 519.602513 -52.2 
L 519.151283 -52.2 
L 518.700053 -52.2 
L 518.248823 -52.2 
L 517.797593 -52.2 
L 517.346363 -52.2 
L 516.895134 -52.2 
L 516.443904 -52.2 
L 515.992674 -52.2 
L 515.541444 -52.2 
L 515.090214 -52.2 
L 514.638984 -52.2 
L 514.187754 -52.2 
L 513.736524 -52.2 
L 513.285294 -52.2 
L 512.834064 -52.2 
L 512.382834 -52.2 
L 511.931604 -52.2 
L 511.480374 -52.2 
L 511.029144 -52.2 
L 510.577914 -52.2 
L 510.126684 -52.2 
L 509.675454 -52.2 
L 509.224224 -52.2 
L 508.772994 -52.2 
L 508.321764 -52.2 
L 507.870534 -52.2 
L 507.419304 -52.2 
L 506.968074 -52.2 
L 506.516844 -52.2 
L 506.065614 -52.2 
L 505.614384 -52.2 
L 505.163154 -52.2 
L 504.711924 -52.2 
L 504.260694 -52.2 
L 503.809465 -52.2 
L 503.358235 -52.2 
L 502.907005 -52.2 
L 502.455775 -52.2 
L 502.004545 -52.2 
L 501.553315 -52.2 
L 501.102085 -52.2 
L 500.650855 -52.2 
L 500.199625 -52.2 
L 499.748395 -52.2 
L 499.297165 -52.2 
L 498.845935 -52.2 
L 498.394705 -52.2 
L 497.943475 -52.2 
L 497.492245 -52.2 
L 497.041015 -52.2 
L 496.589785 -52.2 
L 496.138555 -52.2 
L 495.687325 -52.2 
L 495.236095 -52.2 
L 494.784865 -52.2 
L 494.333635 -52.2 
L 493.882405 -52.2 
L 493.431175 -52.2 
L 492.979945 -52.2 
L 492.528715 -52.2 
L 492.077485 -52.2 
L 491.626255 -52.2 
L 491.175025 -52.2 
L 490.723796 -52.2 
L 490.272566 -52.2 
L 489.821336 -52.2 
L 489.370106 -52.2 
L 488.918876 -52.2 
L 488.467646 -52.2 
L 488.016416 -52.2 
L 487.565186 -52.2 
L 487.113956 -52.2 
L 486.662726 -52.2 
L 486.211496 -52.2 
L 485.760266 -52.2 
L 485.309036 -52.2 
L 484.857806 -52.2 
L 484.406576 -52.2 
L 483.955346 -52.2 
L 483.504116 -52.2 
L 483.052886 -52.2 
L 482.601656 -52.2 
L 482.150426 -52.2 
L 481.699196 -52.2 
L 481.247966 -52.2 
L 480.796736 -52.2 
L 480.345506 -52.2 
L 479.894276 -52.2 
L 479.443046 -52.2 
L 478.991816 -52.2 
L 478.540586 -52.2 
L 478.089356 -52.2 
L 477.638127 -52.2 
L 477.186897 -52.2 
L 476.735667 -52.2 
L 476.284437 -52.2 
L 475.833207 -52.2 
L 475.381977 -52.2 
L 474.930747 -52.2 
L 474.479517 -52.2 
L 474.028287 -52.2 
L 473.577057 -52.2 
L 473.125827 -52.2 
L 472.674597 -52.2 
L 472.223367 -52.2 
L 471.772137 -52.2 
L 471.320907 -52.2 
L 470.869677 -52.2 
L 470.418447 -52.2 
L 469.967217 -52.2 
L 469.515987 -52.2 
L 469.064757 -52.2 
L 468.613527 -52.2 
L 468.162297 -52.2 
L 467.711067 -52.2 
L 467.259837 -52.2 
L 466.808607 -52.2 
L 466.357377 -52.2 
L 465.906147 -52.2 
L 465.454917 -52.2 
L 465.003687 -52.2 
L 464.552458 -52.2 
L 464.101228 -52.2 
L 463.649998 -52.2 
L 463.198768 -52.2 
L 462.747538 -52.2 
L 462.296308 -52.2 
L 461.845078 -52.2 
L 461.393848 -52.2 
L 460.942618 -52.2 
L 460.491388 -52.2 
L 460.040158 -52.2 
L 459.588928 -52.2 
L 459.137698 -52.2 
L 458.686468 -52.2 
L 458.235238 -52.2 
L 457.784008 -52.2 
L 457.332778 -52.2 
L 456.881548 -52.2 
L 456.430318 -52.2 
L 455.979088 -52.2 
L 455.527858 -52.2 
L 455.076628 -52.2 
L 454.625398 -52.2 
L 454.174168 -52.2 
L 453.722938 -52.2 
L 453.271708 -52.2 
L 452.820478 -52.2 
L 452.369248 -52.2 
L 451.918018 -52.2 
L 451.466789 -52.2 
L 451.015559 -52.2 
L 450.564329 -52.2 
L 450.113099 -52.2 
L 449.661869 -52.2 
L 449.210639 -52.2 
L 448.759409 -52.2 
L 448.308179 -52.2 
L 447.856949 -52.2 
L 447.405719 -52.2 
L 446.954489 -52.2 
L 446.503259 -52.2 
L 446.052029 -52.2 
L 445.600799 -52.2 
L 445.149569 -52.2 
L 444.698339 -52.2 
L 444.247109 -52.2 
L 443.795879 -52.2 
L 443.344649 -52.2 
L 442.893419 -52.2 
L 442.442189 -52.2 
L 441.990959 -52.2 
L 441.539729 -52.2 
L 441.088499 -52.2 
L 440.637269 -52.2 
L 440.186039 -52.2 
L 439.734809 -52.2 
L 439.283579 -52.2 
L 438.832349 -52.2 
L 438.38112 -52.2 
L 437.92989 -52.2 
L 437.47866 -52.2 
L 437.02743 -52.2 
L 436.5762 -52.2 
L 436.12497 -52.2 
L 435.67374 -52.2 
L 435.22251 -52.2 
L 434.77128 -52.2 
L 434.32005 -52.2 
L 433.86882 -52.2 
L 433.41759 -52.2 
L 432.96636 -52.2 
L 432.51513 -52.2 
L 432.0639 -52.2 
L 431.61267 -52.2 
L 431.16144 -52.2 
L 430.71021 -52.2 
L 430.25898 -52.2 
L 429.80775 -52.2 
L 429.35652 -52.2 
L 428.90529 -52.2 
L 428.45406 -52.2 
L 428.00283 -52.2 
L 427.5516 -52.2 
L 427.10037 -52.2 
L 426.64914 -52.2 
L 426.19791 -52.2 
L 425.74668 -52.2 
L 425.295451 -52.2 
L 424.844221 -52.2 
L 424.392991 -52.2 
L 423.941761 -52.2 
L 423.490531 -52.2 
L 423.039301 -52.2 
L 422.588071 -52.2 
L 422.136841 -52.2 
L 421.685611 -52.2 
L 421.234381 -52.2 
L 420.783151 -52.2 
L 420.331921 -52.2 
L 419.880691 -52.2 
L 419.429461 -52.2 
L 418.978231 -52.2 
L 418.527001 -52.2 
L 418.075771 -52.2 
L 417.624541 -52.2 
L 417.173311 -52.2 
L 416.722081 -52.2 
L 416.270851 -52.2 
L 415.819621 -52.2 
L 415.368391 -52.2 
L 414.917161 -52.2 
L 414.465931 -52.2 
L 414.014701 -52.2 
L 413.563471 -52.2 
L 413.112241 -52.2 
L 412.661011 -52.2 
L 412.209782 -52.2 
L 411.758552 -52.2 
L 411.307322 -52.2 
L 410.856092 -52.2 
L 410.404862 -52.2 
L 409.953632 -52.2 
L 409.502402 -52.2 
L 409.051172 -52.2 
L 408.599942 -52.2 
L 408.148712 -52.2 
L 407.697482 -52.2 
L 407.246252 -52.2 
L 406.795022 -52.2 
L 406.343792 -52.2 
L 405.892562 -52.2 
z
" id="m521f876dd2" style="stroke:#1f77b4;stroke-opacity:0;"/>
    </defs>
    <g clip-path="url(#p9cef0b6ac1)">
     <use style="fill:#1f77b4;fill-opacity:0;stroke:#1f77b4;stroke-opacity:0;" x="0" xlink:href="#m521f876dd2" y="360"/>
    </g>
   </g>
   <g id="matplotlib.axis_3">
    <g id="xtick_4">
     <g id="line2d_6">
      <g>
       <use style="fill:#808080;stroke:#808080;" x="457.923883" xlink:href="#ma6afbfbb06" y="320.4"/>
      </g>
     </g>
     <g id="text_9">
      <!-- 1 -->
      <g transform="translate(447.604351 337.537813)scale(0.14 -0.14)">
       <defs>
        <path d="M 10.59375 35.5 
L 73.1875 35.5 
L 73.1875 27.203125 
L 10.59375 27.203125 
z
" id="DejaVuSans-8722"/>
       </defs>
       <use xlink:href="#DejaVuSans-8722"/>
       <use x="83.789062" xlink:href="#DejaVuSans-49"/>
      </g>
     </g>
    </g>
    <g id="xtick_5">
     <g id="line2d_7">
      <g>
       <use style="fill:#808080;stroke:#808080;" x="523.343814" xlink:href="#ma6afbfbb06" y="320.4"/>
      </g>
     </g>
     <g id="text_10">
      <!-- 0 -->
      <g transform="translate(518.890064 337.537813)scale(0.14 -0.14)">
       <use xlink:href="#DejaVuSans-48"/>
      </g>
     </g>
    </g>
    <g id="xtick_6">
     <g id="line2d_8">
      <g>
       <use style="fill:#808080;stroke:#808080;" x="588.763746" xlink:href="#ma6afbfbb06" y="320.4"/>
      </g>
     </g>
     <g id="text_11">
      <!-- 1 -->
      <g transform="translate(584.309996 337.537813)scale(0.14 -0.14)">
       <use xlink:href="#DejaVuSans-49"/>
      </g>
     </g>
    </g>
   </g>
   <g id="matplotlib.axis_4"/>
   <g id="line2d_9">
    <path clip-path="url(#p9cef0b6ac1)" d="M 405.892562 307.108466 
L 415.819621 307.013755 
L 419.429461 306.532343 
L 423.490531 305.999387 
L 430.71021 305.225828 
L 432.51513 304.805798 
L 434.32005 304.18891 
L 436.12497 303.355877 
L 438.38112 302.008997 
L 441.088499 300.060213 
L 445.600799 296.425175 
L 450.113099 292.953607 
L 452.820478 290.850869 
L 454.625398 289.224706 
L 455.979088 287.736498 
L 457.332778 285.908706 
L 458.686468 283.715522 
L 460.040158 281.083555 
L 461.393848 278.013793 
L 463.198768 273.237465 
L 465.003687 267.877735 
L 467.711067 259.014605 
L 474.028287 237.28026 
L 481.699196 210.534813 
L 484.406576 200.394788 
L 486.662726 191.305188 
L 488.918876 181.224511 
L 491.175025 170.110763 
L 493.882405 155.64111 
L 498.845935 128.872132 
L 501.102085 117.956625 
L 502.907005 109.9769 
L 505.163154 100.81662 
L 507.870534 90.765801 
L 511.029144 79.919868 
L 512.834064 74.259999 
L 514.638984 69.222189 
L 516.443904 64.992036 
L 517.797593 62.341647 
L 519.151283 60.137371 
L 520.504973 58.354321 
L 521.858663 57.064735 
L 523.212353 56.224447 
L 524.114813 55.92352 
L 525.017273 55.8 
L 525.919733 55.896177 
L 526.822193 56.308732 
L 527.724653 56.927135 
L 528.627113 57.791835 
L 529.529573 58.979476 
L 530.883262 61.303801 
L 532.236952 64.29252 
L 533.590642 67.942395 
L 534.944332 72.272666 
L 536.298022 77.242522 
L 538.102942 84.888924 
L 540.359092 95.663147 
L 544.871391 119.26733 
L 548.481231 137.903629 
L 550.737381 148.541504 
L 552.542301 156.176784 
L 554.347221 162.801876 
L 556.152141 168.552794 
L 561.11567 182.945892 
L 562.92059 189.367284 
L 564.72551 197.003174 
L 566.53043 205.68044 
L 573.298879 239.723749 
L 574.652569 245.22462 
L 576.006259 250.008594 
L 577.359949 254.133396 
L 579.164869 258.822037 
L 580.969789 262.88403 
L 586.384548 274.515718 
L 590.896848 284.317757 
L 592.701768 287.696574 
L 594.506688 290.590064 
L 596.311607 293.029651 
L 598.116527 295.036894 
L 600.372677 297.132843 
L 602.628827 298.939916 
L 604.884977 300.471734 
L 607.141127 301.687019 
L 609.397276 302.628428 
L 612.555886 303.595124 
L 616.616956 304.80525 
L 622.482945 306.649378 
L 624.739095 307.110415 
L 626.995245 307.345469 
L 629.702625 307.383683 
L 636.471074 307.133002 
L 636.471074 307.133002 
" style="fill:none;stroke:#1f77b4;stroke-linecap:square;stroke-width:1.5;"/>
   </g>
   <g id="line2d_10">
    <path clip-path="url(#p9cef0b6ac1)" d="M 467.115437 302.508 
L 580.402009 302.508 
" style="fill:none;stroke:#000000;stroke-width:3;"/>
   </g>
   <g id="patch_5">
    <path d="M 394.363636 320.4 
L 648 320.4 
" style="fill:none;stroke:#808080;stroke-linecap:square;stroke-linejoin:miter;stroke-width:0.8;"/>
   </g>
   <g id="text_12">
    <!-- -0.86  -->
    <g transform="translate(423.538094 289.278)scale(0.15 -0.15)">
     <defs>
      <path d="M 33.015625 40.375 
Q 26.375 40.375 22.484375 35.828125 
Q 18.609375 31.296875 18.609375 23.390625 
Q 18.609375 15.53125 22.484375 10.953125 
Q 26.375 6.390625 33.015625 6.390625 
Q 39.65625 6.390625 43.53125 10.953125 
Q 47.40625 15.53125 47.40625 23.390625 
Q 47.40625 31.296875 43.53125 35.828125 
Q 39.65625 40.375 33.015625 40.375 
z
M 52.59375 71.296875 
L 52.59375 62.3125 
Q 48.875 64.0625 45.09375 64.984375 
Q 41.3125 65.921875 37.59375 65.921875 
Q 27.828125 65.921875 22.671875 59.328125 
Q 17.53125 52.734375 16.796875 39.40625 
Q 19.671875 43.65625 24.015625 45.921875 
Q 28.375 48.1875 33.59375 48.1875 
Q 44.578125 48.1875 50.953125 41.515625 
Q 57.328125 34.859375 57.328125 23.390625 
Q 57.328125 12.15625 50.6875 5.359375 
Q 44.046875 -1.421875 33.015625 -1.421875 
Q 20.359375 -1.421875 13.671875 8.265625 
Q 6.984375 17.96875 6.984375 36.375 
Q 6.984375 53.65625 15.1875 63.9375 
Q 23.390625 74.21875 37.203125 74.21875 
Q 40.921875 74.21875 44.703125 73.484375 
Q 48.484375 72.75 52.59375 71.296875 
z
" id="DejaVuSans-54"/>
     </defs>
     <use xlink:href="#DejaVuSans-45"/>
     <use x="36.083984" xlink:href="#DejaVuSans-48"/>
     <use x="99.707031" xlink:href="#DejaVuSans-46"/>
     <use x="131.494141" xlink:href="#DejaVuSans-56"/>
     <use x="195.117188" xlink:href="#DejaVuSans-54"/>
     <use x="258.740234" xlink:href="#DejaVuSans-32"/>
    </g>
   </g>
   <g id="text_13">
    <!--  0.87 -->
    <g transform="translate(580.402009 289.278)scale(0.15 -0.15)">
     <use xlink:href="#DejaVuSans-32"/>
     <use x="31.787109" xlink:href="#DejaVuSans-48"/>
     <use x="95.410156" xlink:href="#DejaVuSans-46"/>
     <use x="127.197266" xlink:href="#DejaVuSans-56"/>
     <use x="190.820312" xlink:href="#DejaVuSans-55"/>
    </g>
   </g>
   <g id="text_14">
    <!-- 94% HDI -->
    <g transform="translate(491.077473 228.42)scale(0.15 -0.15)">
     <use xlink:href="#DejaVuSans-57"/>
     <use x="63.623047" xlink:href="#DejaVuSans-52"/>
     <use x="127.246094" xlink:href="#DejaVuSans-37"/>
     <use x="222.265625" xlink:href="#DejaVuSans-32"/>
     <use x="254.052734" xlink:href="#DejaVuSans-72"/>
     <use x="329.248047" xlink:href="#DejaVuSans-68"/>
     <use x="406.25" xlink:href="#DejaVuSans-73"/>
    </g>
   </g>
   <g id="text_15">
    <!-- mean=0.006 -->
    <g transform="translate(474.710633 96.12)scale(0.15 -0.15)">
     <use xlink:href="#DejaVuSans-109"/>
     <use x="97.412109" xlink:href="#DejaVuSans-101"/>
     <use x="158.935547" xlink:href="#DejaVuSans-97"/>
     <use x="220.214844" xlink:href="#DejaVuSans-110"/>
     <use x="283.59375" xlink:href="#DejaVuSans-61"/>
     <use x="367.382812" xlink:href="#DejaVuSans-48"/>
     <use x="431.005859" xlink:href="#DejaVuSans-46"/>
     <use x="462.792969" xlink:href="#DejaVuSans-48"/>
     <use x="526.416016" xlink:href="#DejaVuSans-48"/>
     <use x="590.039062" xlink:href="#DejaVuSans-54"/>
    </g>
   </g>
   <g id="text_16">
    <!-- b -->
    <g transform="translate(516.103068 37.2)scale(0.16 -0.16)">
     <defs>
      <path d="M 48.6875 27.296875 
Q 48.6875 37.203125 44.609375 42.84375 
Q 40.53125 48.484375 33.40625 48.484375 
Q 26.265625 48.484375 22.1875 42.84375 
Q 18.109375 37.203125 18.109375 27.296875 
Q 18.109375 17.390625 22.1875 11.75 
Q 26.265625 6.109375 33.40625 6.109375 
Q 40.53125 6.109375 44.609375 11.75 
Q 48.6875 17.390625 48.6875 27.296875 
z
M 18.109375 46.390625 
Q 20.953125 51.265625 25.265625 53.625 
Q 29.59375 56 35.59375 56 
Q 45.5625 56 51.78125 48.09375 
Q 58.015625 40.1875 58.015625 27.296875 
Q 58.015625 14.40625 51.78125 6.484375 
Q 45.5625 -1.421875 35.59375 -1.421875 
Q 29.59375 -1.421875 25.265625 0.953125 
Q 20.953125 3.328125 18.109375 8.203125 
L 18.109375 0 
L 9.078125 0 
L 9.078125 75.984375 
L 18.109375 75.984375 
z
" id="DejaVuSans-98"/>
     </defs>
     <use xlink:href="#DejaVuSans-98"/>
    </g>
   </g>
  </g>
 </g>
 <defs>
  <clipPath id="p0047d5c040">
   <rect height="277.2" width="253.636364" x="90" y="43.2"/>
  </clipPath>
  <clipPath id="p9cef0b6ac1">
   <rect height="277.2" width="253.636364" x="394.363636" y="43.2"/>
  </clipPath>
 </defs>
</svg>
