<?xml version="1.0" encoding="utf-8" standalone="no"?>
<!DOCTYPE svg PUBLIC "-//W3C//DTD SVG 1.1//EN"
  "http://www.w3.org/Graphics/SVG/1.1/DTD/svg11.dtd">
<!-- Created with matplotlib (https://matplotlib.org/) -->
<svg height="360pt" version="1.1" viewBox="0 0 720 360" width="720pt" xmlns="http://www.w3.org/2000/svg" xmlns:xlink="http://www.w3.org/1999/xlink">
 <metadata>
  <rdf:RDF xmlns:cc="http://creativecommons.org/ns#" xmlns:dc="http://purl.org/dc/elements/1.1/" xmlns:rdf="http://www.w3.org/1999/02/22-rdf-syntax-ns#">
   <cc:Work>
    <dc:type rdf:resource="http://purl.org/dc/dcmitype/StillImage"/>
    <dc:date>2020-12-05T14:00:08.405424</dc:date>
    <dc:format>image/svg+xml</dc:format>
    <dc:creator>
     <cc:Agent>
      <dc:title>Matplotlib v3.3.3, https://matplotlib.org/</dc:title>
     </cc:Agent>
    </dc:creator>
   </cc:Work>
  </rdf:RDF>
 </metadata>
 <defs>
  <style type="text/css">*{stroke-linecap:butt;stroke-linejoin:round;}</style>
 </defs>
 <g id="figure_1">
  <g id="patch_1">
   <path d="M 0 360 
L 720 360 
L 720 0 
L 0 0 
z
" style="fill:#ffffff;"/>
  </g>
  <g id="axes_1">
   <g id="patch_2">
    <path d="M 90 320.4 
L 343.636364 320.4 
L 343.636364 43.2 
L 90 43.2 
z
" style="fill:#ffffff;"/>
   </g>
   <g id="PolyCollection_1">
    <defs>
     <path d="M 101.528926 -52.2 
L 101.528926 -52.879897 
L 101.980156 -52.877816 
L 102.431386 -52.87161 
L 102.882616 -52.861394 
L 103.333845 -52.847352 
L 103.785075 -52.829736 
L 104.236305 -52.808854 
L 104.687535 -52.785066 
L 105.138765 -52.758771 
L 105.589995 -52.730396 
L 106.041225 -52.700385 
L 106.492455 -52.669186 
L 106.943685 -52.637243 
L 107.394915 -52.604984 
L 107.846145 -52.572813 
L 108.297375 -52.541099 
L 108.748605 -52.510175 
L 109.199835 -52.480331 
L 109.651065 -52.45181 
L 110.102295 -52.424808 
L 110.553525 -52.399474 
L 111.004755 -52.375914 
L 111.455985 -52.354188 
L 111.907215 -52.334319 
L 112.358445 -52.316295 
L 112.809675 -52.300075 
L 113.260905 -52.28559 
L 113.712135 -52.272754 
L 114.163365 -52.261466 
L 114.614595 -52.251611 
L 115.065825 -52.243072 
L 115.517055 -52.235725 
L 115.968285 -52.229451 
L 116.419514 -52.22413 
L 116.870744 -52.21965 
L 117.321974 -52.21873 
L 117.773204 -52.216384 
L 118.224434 -52.214763 
L 118.675664 -52.213819 
L 119.126894 -52.213518 
L 119.578124 -52.211629 
L 120.029354 -52.210847 
L 120.480584 -52.213283 
L 120.931814 -52.216168 
L 121.383044 -52.219558 
L 121.834274 -52.223514 
L 122.285504 -52.230924 
L 122.736734 -52.239786 
L 123.187964 -52.253166 
L 123.639194 -52.263614 
L 124.090424 -52.275734 
L 124.541654 -52.292539 
L 124.992884 -52.309336 
L 125.444114 -52.328564 
L 125.895344 -52.350457 
L 126.346574 -52.375246 
L 126.797804 -52.408816 
L 127.249034 -52.441612 
L 127.700264 -52.481149 
L 128.151494 -52.522792 
L 128.602724 -52.571846 
L 129.053954 -52.62649 
L 129.505183 -52.687118 
L 129.956413 -52.754116 
L 130.407643 -52.825037 
L 130.858873 -52.902307 
L 131.310103 -52.986094 
L 131.761333 -53.079332 
L 132.212563 -53.18 
L 132.663793 -53.288244 
L 133.115023 -53.404153 
L 133.566253 -53.53059 
L 134.017483 -53.659814 
L 134.468713 -53.801695 
L 134.919943 -53.948988 
L 135.371173 -54.106555 
L 135.822403 -54.277752 
L 136.273633 -54.449872 
L 136.724863 -54.626511 
L 137.176093 -54.812325 
L 137.627323 -55.010478 
L 138.078553 -55.210902 
L 138.529783 -55.417783 
L 138.981013 -55.628071 
L 139.432243 -55.866235 
L 139.883473 -56.104111 
L 140.334703 -56.339705 
L 140.785933 -56.581869 
L 141.237163 -56.833472 
L 141.688393 -57.092519 
L 142.139623 -57.370575 
L 142.590852 -57.64837 
L 143.042082 -57.935164 
L 143.493312 -58.234201 
L 143.944542 -58.555128 
L 144.395772 -58.878925 
L 144.847002 -59.223526 
L 145.298232 -59.571999 
L 145.749462 -59.942087 
L 146.200692 -60.319422 
L 146.651922 -60.713699 
L 147.103152 -61.134229 
L 147.554382 -61.561514 
L 148.005612 -62.007216 
L 148.456842 -62.46909 
L 148.908072 -62.955421 
L 149.359302 -63.456845 
L 149.810532 -63.969797 
L 150.261762 -64.49255 
L 150.712992 -65.031435 
L 151.164222 -65.583311 
L 151.615452 -66.169731 
L 152.066682 -66.761718 
L 152.517912 -67.350709 
L 152.969142 -67.959986 
L 153.420372 -68.580532 
L 153.871602 -69.214432 
L 154.322832 -69.858325 
L 154.774062 -70.506092 
L 155.225292 -71.169953 
L 155.676521 -71.843059 
L 156.127751 -72.528127 
L 156.578981 -73.217435 
L 157.030211 -73.932336 
L 157.481441 -74.640715 
L 157.932671 -75.363823 
L 158.383901 -76.101136 
L 158.835131 -76.851763 
L 159.286361 -77.608685 
L 159.737591 -78.37282 
L 160.188821 -79.158957 
L 160.640051 -79.953998 
L 161.091281 -80.768518 
L 161.542511 -81.606692 
L 161.993741 -82.45453 
L 162.444971 -83.325001 
L 162.896201 -84.210156 
L 163.347431 -85.117841 
L 163.798661 -86.045898 
L 164.249891 -86.997729 
L 164.701121 -87.974552 
L 165.152351 -88.964109 
L 165.603581 -89.98087 
L 166.054811 -91.000688 
L 166.506041 -92.074015 
L 166.957271 -93.149235 
L 167.408501 -94.243085 
L 167.859731 -95.360546 
L 168.310961 -96.504972 
L 168.76219 -97.677085 
L 169.21342 -98.855279 
L 169.66465 -100.029804 
L 170.11588 -101.229668 
L 170.56711 -102.439352 
L 171.01834 -103.665549 
L 171.46957 -104.876962 
L 171.9208 -106.123834 
L 172.37203 -107.352082 
L 172.82326 -108.604839 
L 173.27449 -109.836283 
L 173.72572 -111.061122 
L 174.17695 -112.279623 
L 174.62818 -113.505769 
L 175.07941 -114.736301 
L 175.53064 -115.947138 
L 175.98187 -117.170193 
L 176.4331 -118.376514 
L 176.88433 -119.592584 
L 177.33556 -120.80785 
L 177.78679 -122.039611 
L 178.23802 -123.263258 
L 178.68925 -124.503351 
L 179.14048 -125.748749 
L 179.59171 -127.016539 
L 180.04294 -128.284724 
L 180.49417 -129.591204 
L 180.9454 -130.931845 
L 181.39663 -132.303126 
L 181.847859 -133.738962 
L 182.299089 -135.216801 
L 182.750319 -136.767167 
L 183.201549 -138.344199 
L 183.652779 -139.996959 
L 184.104009 -141.719551 
L 184.555239 -143.5028 
L 185.006469 -145.379641 
L 185.457699 -147.335696 
L 185.908929 -149.387338 
L 186.360159 -151.505868 
L 186.811389 -153.726574 
L 187.262619 -156.02969 
L 187.713849 -158.37627 
L 188.165079 -160.805916 
L 188.616309 -163.345899 
L 189.067539 -165.94706 
L 189.518769 -168.596759 
L 189.969999 -171.293376 
L 190.421229 -174.055056 
L 190.872459 -176.859879 
L 191.323689 -179.703422 
L 191.774919 -182.582974 
L 192.226149 -185.470013 
L 192.677379 -188.380002 
L 193.128609 -191.287439 
L 193.579839 -194.209492 
L 194.031069 -197.097593 
L 194.482299 -199.977722 
L 194.933528 -202.843991 
L 195.384758 -205.682739 
L 195.835988 -208.47936 
L 196.287218 -211.235926 
L 196.738448 -213.955819 
L 197.189678 -216.628477 
L 197.640908 -219.252831 
L 198.092138 -221.831463 
L 198.543368 -224.359817 
L 198.994598 -226.804058 
L 199.445828 -229.210431 
L 199.897058 -231.540681 
L 200.348288 -233.812458 
L 200.799518 -236.024087 
L 201.250748 -238.17137 
L 201.701978 -240.258379 
L 202.153208 -242.309053 
L 202.604438 -244.264939 
L 203.055668 -246.157759 
L 203.506898 -247.992076 
L 203.958128 -249.778955 
L 204.409358 -251.485623 
L 204.860588 -253.131404 
L 205.311818 -254.751954 
L 205.763048 -256.355965 
L 206.214278 -257.884396 
L 206.665508 -259.390342 
L 207.116738 -260.850457 
L 207.567968 -262.317922 
L 208.019197 -263.722975 
L 208.470427 -265.132065 
L 208.921657 -266.554444 
L 209.372887 -267.978281 
L 209.824117 -269.381552 
L 210.275347 -270.769745 
L 210.726577 -272.177155 
L 211.177807 -273.578064 
L 211.629037 -274.942853 
L 212.080267 -276.299572 
L 212.531497 -277.717283 
L 212.982727 -279.076345 
L 213.433957 -280.440246 
L 213.885187 -281.801415 
L 214.336417 -283.122371 
L 214.787647 -284.425646 
L 215.238877 -285.711222 
L 215.690107 -286.933462 
L 216.141337 -288.150394 
L 216.592567 -289.295239 
L 217.043797 -290.4091 
L 217.495027 -291.470037 
L 217.946257 -292.479143 
L 218.397487 -293.449348 
L 218.848717 -294.352377 
L 219.299947 -295.209678 
L 219.751177 -296.048065 
L 220.202407 -296.814388 
L 220.653637 -297.547328 
L 221.104866 -298.22756 
L 221.556096 -298.852802 
L 222.007326 -299.47638 
L 222.458556 -300.077051 
L 222.909786 -300.600236 
L 223.361016 -301.10421 
L 223.812246 -301.580449 
L 224.263476 -302.043726 
L 224.714706 -302.445002 
L 225.165936 -302.792118 
L 225.617166 -303.144006 
L 226.068396 -303.452933 
L 226.519626 -303.686878 
L 226.970856 -303.902573 
L 227.422086 -304.049718 
L 227.873316 -304.137977 
L 228.324546 -304.2 
L 228.775776 -304.137823 
L 229.227006 -304.03907 
L 229.678236 -303.887257 
L 230.129466 -303.687903 
L 230.580696 -303.383822 
L 231.031926 -303.03355 
L 231.483156 -302.612819 
L 231.934386 -302.141978 
L 232.385616 -301.607365 
L 232.836846 -301.016066 
L 233.288076 -300.367416 
L 233.739306 -299.665749 
L 234.190535 -298.911134 
L 234.641765 -298.108082 
L 235.092995 -297.311367 
L 235.544225 -296.49754 
L 235.995455 -295.64182 
L 236.446685 -294.771782 
L 236.897915 -293.861359 
L 237.349145 -292.947718 
L 237.800375 -292.024072 
L 238.251605 -291.060085 
L 238.702835 -290.073665 
L 239.154065 -289.096096 
L 239.605295 -288.075071 
L 240.056525 -287.014047 
L 240.507755 -285.941397 
L 240.958985 -284.829903 
L 241.410215 -283.657312 
L 241.861445 -282.413832 
L 242.312675 -281.157864 
L 242.763905 -279.812195 
L 243.215135 -278.405271 
L 243.666365 -276.909446 
L 244.117595 -275.340053 
L 244.568825 -273.709434 
L 245.020055 -271.942439 
L 245.471285 -270.105697 
L 245.922515 -268.213078 
L 246.373745 -266.243155 
L 246.824975 -264.166545 
L 247.276204 -262.012556 
L 247.727434 -259.805631 
L 248.178664 -257.515506 
L 248.629894 -255.116096 
L 249.081124 -252.69474 
L 249.532354 -250.216534 
L 249.983584 -247.666899 
L 250.434814 -245.109379 
L 250.886044 -242.506759 
L 251.337274 -239.882699 
L 251.788504 -237.259032 
L 252.239734 -234.595592 
L 252.690964 -231.978566 
L 253.142194 -229.32658 
L 253.593424 -226.704126 
L 254.044654 -224.111634 
L 254.495884 -221.535287 
L 254.947114 -218.995761 
L 255.398344 -216.509545 
L 255.849574 -214.032248 
L 256.300804 -211.629172 
L 256.752034 -209.243993 
L 257.203264 -206.898122 
L 257.654494 -204.624849 
L 258.105724 -202.351475 
L 258.556954 -200.138758 
L 259.008184 -197.987704 
L 259.459414 -195.873257 
L 259.910644 -193.797663 
L 260.361873 -191.743862 
L 260.813103 -189.72861 
L 261.264333 -187.755327 
L 261.715563 -185.782559 
L 262.166793 -183.83858 
L 262.618023 -181.926379 
L 263.069253 -179.995916 
L 263.520483 -178.089109 
L 263.971713 -176.19665 
L 264.422943 -174.2923 
L 264.874173 -172.434227 
L 265.325403 -170.541153 
L 265.776633 -168.631993 
L 266.227863 -166.712017 
L 266.679093 -164.806538 
L 267.130323 -162.862768 
L 267.581553 -160.928677 
L 268.032783 -158.982233 
L 268.484013 -157.024835 
L 268.935243 -155.044593 
L 269.386473 -153.064782 
L 269.837703 -151.075437 
L 270.288933 -149.085093 
L 270.740163 -147.0856 
L 271.191393 -145.066015 
L 271.642623 -143.010687 
L 272.093853 -140.984144 
L 272.545083 -138.937394 
L 272.996313 -136.906627 
L 273.447542 -134.865345 
L 273.898772 -132.807153 
L 274.350002 -130.764958 
L 274.801232 -128.734929 
L 275.252462 -126.697501 
L 275.703692 -124.669506 
L 276.154922 -122.654241 
L 276.606152 -120.641501 
L 277.057382 -118.643465 
L 277.508612 -116.667445 
L 277.959842 -114.714891 
L 278.411072 -112.765467 
L 278.862302 -110.856073 
L 279.313532 -108.978204 
L 279.764762 -107.12915 
L 280.215992 -105.321715 
L 280.667222 -103.540596 
L 281.118452 -101.817231 
L 281.569682 -100.135939 
L 282.020912 -98.499468 
L 282.472142 -96.923005 
L 282.923372 -95.389192 
L 283.374602 -93.91937 
L 283.825832 -92.515119 
L 284.277062 -91.173612 
L 284.728292 -89.885768 
L 285.179522 -88.660866 
L 285.630752 -87.481649 
L 286.081982 -86.37743 
L 286.533211 -85.33504 
L 286.984441 -84.370209 
L 287.435671 -83.444477 
L 287.886901 -82.586929 
L 288.338131 -81.779798 
L 288.789361 -81.001656 
L 289.240591 -80.290062 
L 289.691821 -79.624863 
L 290.143051 -78.971832 
L 290.594281 -78.385383 
L 291.045511 -77.832002 
L 291.496741 -77.313508 
L 291.947971 -76.821768 
L 292.399201 -76.349748 
L 292.850431 -75.922264 
L 293.301661 -75.504897 
L 293.752891 -75.101713 
L 294.204121 -74.722685 
L 294.655351 -74.349129 
L 295.106581 -73.987898 
L 295.557811 -73.624987 
L 296.009041 -73.275032 
L 296.460271 -72.915187 
L 296.911501 -72.553589 
L 297.362731 -72.192839 
L 297.813961 -71.818639 
L 298.265191 -71.441057 
L 298.716421 -71.053334 
L 299.167651 -70.66126 
L 299.61888 -70.250562 
L 300.07011 -69.821128 
L 300.52134 -69.380186 
L 300.97257 -68.931438 
L 301.4238 -68.46044 
L 301.87503 -67.980727 
L 302.32626 -67.492356 
L 302.77749 -66.992167 
L 303.22872 -66.482334 
L 303.67995 -65.960261 
L 304.13118 -65.439031 
L 304.58241 -64.907 
L 305.03364 -64.388379 
L 305.48487 -63.870624 
L 305.9361 -63.357348 
L 306.38733 -62.855745 
L 306.83856 -62.363503 
L 307.28979 -61.881378 
L 307.74102 -61.421886 
L 308.19225 -60.978985 
L 308.64348 -60.558459 
L 309.09471 -60.154192 
L 309.54594 -59.774542 
L 309.99717 -59.419176 
L 310.4484 -59.087532 
L 310.89963 -58.774406 
L 311.35086 -58.481997 
L 311.80209 -58.213838 
L 312.25332 -57.952363 
L 312.704549 -57.716646 
L 313.155779 -57.496844 
L 313.607009 -57.291519 
L 314.058239 -57.101415 
L 314.509469 -56.925199 
L 314.960699 -56.75729 
L 315.411929 -56.598703 
L 315.863159 -56.449948 
L 316.314389 -56.30513 
L 316.765619 -56.166188 
L 317.216849 -56.027935 
L 317.668079 -55.899563 
L 318.119309 -55.766098 
L 318.570539 -55.637984 
L 319.021769 -55.518961 
L 319.472999 -55.405311 
L 319.924229 -55.296355 
L 320.375459 -55.18938 
L 320.826689 -55.086723 
L 321.277919 -54.981397 
L 321.729149 -54.884088 
L 322.180379 -54.787218 
L 322.631609 -54.695372 
L 323.082839 -54.597154 
L 323.534069 -54.51246 
L 323.985299 -54.424262 
L 324.436529 -54.347578 
L 324.887759 -54.273631 
L 325.338989 -54.205516 
L 325.790218 -54.138562 
L 326.241448 -54.075175 
L 326.692678 -54.018337 
L 327.143908 -53.963274 
L 327.595138 -53.912299 
L 328.046368 -53.865484 
L 328.497598 -53.822867 
L 328.948828 -53.784458 
L 329.400058 -53.750239 
L 329.851288 -53.717952 
L 330.302518 -53.690849 
L 330.753748 -53.673798 
L 331.204978 -53.656239 
L 331.656208 -53.64307 
L 332.107438 -53.636978 
L 332.107438 -52.2 
L 332.107438 -52.2 
L 331.656208 -52.2 
L 331.204978 -52.2 
L 330.753748 -52.2 
L 330.302518 -52.2 
L 329.851288 -52.2 
L 329.400058 -52.2 
L 328.948828 -52.2 
L 328.497598 -52.2 
L 328.046368 -52.2 
L 327.595138 -52.2 
L 327.143908 -52.2 
L 326.692678 -52.2 
L 326.241448 -52.2 
L 325.790218 -52.2 
L 325.338989 -52.2 
L 324.887759 -52.2 
L 324.436529 -52.2 
L 323.985299 -52.2 
L 323.534069 -52.2 
L 323.082839 -52.2 
L 322.631609 -52.2 
L 322.180379 -52.2 
L 321.729149 -52.2 
L 321.277919 -52.2 
L 320.826689 -52.2 
L 320.375459 -52.2 
L 319.924229 -52.2 
L 319.472999 -52.2 
L 319.021769 -52.2 
L 318.570539 -52.2 
L 318.119309 -52.2 
L 317.668079 -52.2 
L 317.216849 -52.2 
L 316.765619 -52.2 
L 316.314389 -52.2 
L 315.863159 -52.2 
L 315.411929 -52.2 
L 314.960699 -52.2 
L 314.509469 -52.2 
L 314.058239 -52.2 
L 313.607009 -52.2 
L 313.155779 -52.2 
L 312.704549 -52.2 
L 312.25332 -52.2 
L 311.80209 -52.2 
L 311.35086 -52.2 
L 310.89963 -52.2 
L 310.4484 -52.2 
L 309.99717 -52.2 
L 309.54594 -52.2 
L 309.09471 -52.2 
L 308.64348 -52.2 
L 308.19225 -52.2 
L 307.74102 -52.2 
L 307.28979 -52.2 
L 306.83856 -52.2 
L 306.38733 -52.2 
L 305.9361 -52.2 
L 305.48487 -52.2 
L 305.03364 -52.2 
L 304.58241 -52.2 
L 304.13118 -52.2 
L 303.67995 -52.2 
L 303.22872 -52.2 
L 302.77749 -52.2 
L 302.32626 -52.2 
L 301.87503 -52.2 
L 301.4238 -52.2 
L 300.97257 -52.2 
L 300.52134 -52.2 
L 300.07011 -52.2 
L 299.61888 -52.2 
L 299.167651 -52.2 
L 298.716421 -52.2 
L 298.265191 -52.2 
L 297.813961 -52.2 
L 297.362731 -52.2 
L 296.911501 -52.2 
L 296.460271 -52.2 
L 296.009041 -52.2 
L 295.557811 -52.2 
L 295.106581 -52.2 
L 294.655351 -52.2 
L 294.204121 -52.2 
L 293.752891 -52.2 
L 293.301661 -52.2 
L 292.850431 -52.2 
L 292.399201 -52.2 
L 291.947971 -52.2 
L 291.496741 -52.2 
L 291.045511 -52.2 
L 290.594281 -52.2 
L 290.143051 -52.2 
L 289.691821 -52.2 
L 289.240591 -52.2 
L 288.789361 -52.2 
L 288.338131 -52.2 
L 287.886901 -52.2 
L 287.435671 -52.2 
L 286.984441 -52.2 
L 286.533211 -52.2 
L 286.081982 -52.2 
L 285.630752 -52.2 
L 285.179522 -52.2 
L 284.728292 -52.2 
L 284.277062 -52.2 
L 283.825832 -52.2 
L 283.374602 -52.2 
L 282.923372 -52.2 
L 282.472142 -52.2 
L 282.020912 -52.2 
L 281.569682 -52.2 
L 281.118452 -52.2 
L 280.667222 -52.2 
L 280.215992 -52.2 
L 279.764762 -52.2 
L 279.313532 -52.2 
L 278.862302 -52.2 
L 278.411072 -52.2 
L 277.959842 -52.2 
L 277.508612 -52.2 
L 277.057382 -52.2 
L 276.606152 -52.2 
L 276.154922 -52.2 
L 275.703692 -52.2 
L 275.252462 -52.2 
L 274.801232 -52.2 
L 274.350002 -52.2 
L 273.898772 -52.2 
L 273.447542 -52.2 
L 272.996313 -52.2 
L 272.545083 -52.2 
L 272.093853 -52.2 
L 271.642623 -52.2 
L 271.191393 -52.2 
L 270.740163 -52.2 
L 270.288933 -52.2 
L 269.837703 -52.2 
L 269.386473 -52.2 
L 268.935243 -52.2 
L 268.484013 -52.2 
L 268.032783 -52.2 
L 267.581553 -52.2 
L 267.130323 -52.2 
L 266.679093 -52.2 
L 266.227863 -52.2 
L 265.776633 -52.2 
L 265.325403 -52.2 
L 264.874173 -52.2 
L 264.422943 -52.2 
L 263.971713 -52.2 
L 263.520483 -52.2 
L 263.069253 -52.2 
L 262.618023 -52.2 
L 262.166793 -52.2 
L 261.715563 -52.2 
L 261.264333 -52.2 
L 260.813103 -52.2 
L 260.361873 -52.2 
L 259.910644 -52.2 
L 259.459414 -52.2 
L 259.008184 -52.2 
L 258.556954 -52.2 
L 258.105724 -52.2 
L 257.654494 -52.2 
L 257.203264 -52.2 
L 256.752034 -52.2 
L 256.300804 -52.2 
L 255.849574 -52.2 
L 255.398344 -52.2 
L 254.947114 -52.2 
L 254.495884 -52.2 
L 254.044654 -52.2 
L 253.593424 -52.2 
L 253.142194 -52.2 
L 252.690964 -52.2 
L 252.239734 -52.2 
L 251.788504 -52.2 
L 251.337274 -52.2 
L 250.886044 -52.2 
L 250.434814 -52.2 
L 249.983584 -52.2 
L 249.532354 -52.2 
L 249.081124 -52.2 
L 248.629894 -52.2 
L 248.178664 -52.2 
L 247.727434 -52.2 
L 247.276204 -52.2 
L 246.824975 -52.2 
L 246.373745 -52.2 
L 245.922515 -52.2 
L 245.471285 -52.2 
L 245.020055 -52.2 
L 244.568825 -52.2 
L 244.117595 -52.2 
L 243.666365 -52.2 
L 243.215135 -52.2 
L 242.763905 -52.2 
L 242.312675 -52.2 
L 241.861445 -52.2 
L 241.410215 -52.2 
L 240.958985 -52.2 
L 240.507755 -52.2 
L 240.056525 -52.2 
L 239.605295 -52.2 
L 239.154065 -52.2 
L 238.702835 -52.2 
L 238.251605 -52.2 
L 237.800375 -52.2 
L 237.349145 -52.2 
L 236.897915 -52.2 
L 236.446685 -52.2 
L 235.995455 -52.2 
L 235.544225 -52.2 
L 235.092995 -52.2 
L 234.641765 -52.2 
L 234.190535 -52.2 
L 233.739306 -52.2 
L 233.288076 -52.2 
L 232.836846 -52.2 
L 232.385616 -52.2 
L 231.934386 -52.2 
L 231.483156 -52.2 
L 231.031926 -52.2 
L 230.580696 -52.2 
L 230.129466 -52.2 
L 229.678236 -52.2 
L 229.227006 -52.2 
L 228.775776 -52.2 
L 228.324546 -52.2 
L 227.873316 -52.2 
L 227.422086 -52.2 
L 226.970856 -52.2 
L 226.519626 -52.2 
L 226.068396 -52.2 
L 225.617166 -52.2 
L 225.165936 -52.2 
L 224.714706 -52.2 
L 224.263476 -52.2 
L 223.812246 -52.2 
L 223.361016 -52.2 
L 222.909786 -52.2 
L 222.458556 -52.2 
L 222.007326 -52.2 
L 221.556096 -52.2 
L 221.104866 -52.2 
L 220.653637 -52.2 
L 220.202407 -52.2 
L 219.751177 -52.2 
L 219.299947 -52.2 
L 218.848717 -52.2 
L 218.397487 -52.2 
L 217.946257 -52.2 
L 217.495027 -52.2 
L 217.043797 -52.2 
L 216.592567 -52.2 
L 216.141337 -52.2 
L 215.690107 -52.2 
L 215.238877 -52.2 
L 214.787647 -52.2 
L 214.336417 -52.2 
L 213.885187 -52.2 
L 213.433957 -52.2 
L 212.982727 -52.2 
L 212.531497 -52.2 
L 212.080267 -52.2 
L 211.629037 -52.2 
L 211.177807 -52.2 
L 210.726577 -52.2 
L 210.275347 -52.2 
L 209.824117 -52.2 
L 209.372887 -52.2 
L 208.921657 -52.2 
L 208.470427 -52.2 
L 208.019197 -52.2 
L 207.567968 -52.2 
L 207.116738 -52.2 
L 206.665508 -52.2 
L 206.214278 -52.2 
L 205.763048 -52.2 
L 205.311818 -52.2 
L 204.860588 -52.2 
L 204.409358 -52.2 
L 203.958128 -52.2 
L 203.506898 -52.2 
L 203.055668 -52.2 
L 202.604438 -52.2 
L 202.153208 -52.2 
L 201.701978 -52.2 
L 201.250748 -52.2 
L 200.799518 -52.2 
L 200.348288 -52.2 
L 199.897058 -52.2 
L 199.445828 -52.2 
L 198.994598 -52.2 
L 198.543368 -52.2 
L 198.092138 -52.2 
L 197.640908 -52.2 
L 197.189678 -52.2 
L 196.738448 -52.2 
L 196.287218 -52.2 
L 195.835988 -52.2 
L 195.384758 -52.2 
L 194.933528 -52.2 
L 194.482299 -52.2 
L 194.031069 -52.2 
L 193.579839 -52.2 
L 193.128609 -52.2 
L 192.677379 -52.2 
L 192.226149 -52.2 
L 191.774919 -52.2 
L 191.323689 -52.2 
L 190.872459 -52.2 
L 190.421229 -52.2 
L 189.969999 -52.2 
L 189.518769 -52.2 
L 189.067539 -52.2 
L 188.616309 -52.2 
L 188.165079 -52.2 
L 187.713849 -52.2 
L 187.262619 -52.2 
L 186.811389 -52.2 
L 186.360159 -52.2 
L 185.908929 -52.2 
L 185.457699 -52.2 
L 185.006469 -52.2 
L 184.555239 -52.2 
L 184.104009 -52.2 
L 183.652779 -52.2 
L 183.201549 -52.2 
L 182.750319 -52.2 
L 182.299089 -52.2 
L 181.847859 -52.2 
L 181.39663 -52.2 
L 180.9454 -52.2 
L 180.49417 -52.2 
L 180.04294 -52.2 
L 179.59171 -52.2 
L 179.14048 -52.2 
L 178.68925 -52.2 
L 178.23802 -52.2 
L 177.78679 -52.2 
L 177.33556 -52.2 
L 176.88433 -52.2 
L 176.4331 -52.2 
L 175.98187 -52.2 
L 175.53064 -52.2 
L 175.07941 -52.2 
L 174.62818 -52.2 
L 174.17695 -52.2 
L 173.72572 -52.2 
L 173.27449 -52.2 
L 172.82326 -52.2 
L 172.37203 -52.2 
L 171.9208 -52.2 
L 171.46957 -52.2 
L 171.01834 -52.2 
L 170.56711 -52.2 
L 170.11588 -52.2 
L 169.66465 -52.2 
L 169.21342 -52.2 
L 168.76219 -52.2 
L 168.310961 -52.2 
L 167.859731 -52.2 
L 167.408501 -52.2 
L 166.957271 -52.2 
L 166.506041 -52.2 
L 166.054811 -52.2 
L 165.603581 -52.2 
L 165.152351 -52.2 
L 164.701121 -52.2 
L 164.249891 -52.2 
L 163.798661 -52.2 
L 163.347431 -52.2 
L 162.896201 -52.2 
L 162.444971 -52.2 
L 161.993741 -52.2 
L 161.542511 -52.2 
L 161.091281 -52.2 
L 160.640051 -52.2 
L 160.188821 -52.2 
L 159.737591 -52.2 
L 159.286361 -52.2 
L 158.835131 -52.2 
L 158.383901 -52.2 
L 157.932671 -52.2 
L 157.481441 -52.2 
L 157.030211 -52.2 
L 156.578981 -52.2 
L 156.127751 -52.2 
L 155.676521 -52.2 
L 155.225292 -52.2 
L 154.774062 -52.2 
L 154.322832 -52.2 
L 153.871602 -52.2 
L 153.420372 -52.2 
L 152.969142 -52.2 
L 152.517912 -52.2 
L 152.066682 -52.2 
L 151.615452 -52.2 
L 151.164222 -52.2 
L 150.712992 -52.2 
L 150.261762 -52.2 
L 149.810532 -52.2 
L 149.359302 -52.2 
L 148.908072 -52.2 
L 148.456842 -52.2 
L 148.005612 -52.2 
L 147.554382 -52.2 
L 147.103152 -52.2 
L 146.651922 -52.2 
L 146.200692 -52.2 
L 145.749462 -52.2 
L 145.298232 -52.2 
L 144.847002 -52.2 
L 144.395772 -52.2 
L 143.944542 -52.2 
L 143.493312 -52.2 
L 143.042082 -52.2 
L 142.590852 -52.2 
L 142.139623 -52.2 
L 141.688393 -52.2 
L 141.237163 -52.2 
L 140.785933 -52.2 
L 140.334703 -52.2 
L 139.883473 -52.2 
L 139.432243 -52.2 
L 138.981013 -52.2 
L 138.529783 -52.2 
L 138.078553 -52.2 
L 137.627323 -52.2 
L 137.176093 -52.2 
L 136.724863 -52.2 
L 136.273633 -52.2 
L 135.822403 -52.2 
L 135.371173 -52.2 
L 134.919943 -52.2 
L 134.468713 -52.2 
L 134.017483 -52.2 
L 133.566253 -52.2 
L 133.115023 -52.2 
L 132.663793 -52.2 
L 132.212563 -52.2 
L 131.761333 -52.2 
L 131.310103 -52.2 
L 130.858873 -52.2 
L 130.407643 -52.2 
L 129.956413 -52.2 
L 129.505183 -52.2 
L 129.053954 -52.2 
L 128.602724 -52.2 
L 128.151494 -52.2 
L 127.700264 -52.2 
L 127.249034 -52.2 
L 126.797804 -52.2 
L 126.346574 -52.2 
L 125.895344 -52.2 
L 125.444114 -52.2 
L 124.992884 -52.2 
L 124.541654 -52.2 
L 124.090424 -52.2 
L 123.639194 -52.2 
L 123.187964 -52.2 
L 122.736734 -52.2 
L 122.285504 -52.2 
L 121.834274 -52.2 
L 121.383044 -52.2 
L 120.931814 -52.2 
L 120.480584 -52.2 
L 120.029354 -52.2 
L 119.578124 -52.2 
L 119.126894 -52.2 
L 118.675664 -52.2 
L 118.224434 -52.2 
L 117.773204 -52.2 
L 117.321974 -52.2 
L 116.870744 -52.2 
L 116.419514 -52.2 
L 115.968285 -52.2 
L 115.517055 -52.2 
L 115.065825 -52.2 
L 114.614595 -52.2 
L 114.163365 -52.2 
L 113.712135 -52.2 
L 113.260905 -52.2 
L 112.809675 -52.2 
L 112.358445 -52.2 
L 111.907215 -52.2 
L 111.455985 -52.2 
L 111.004755 -52.2 
L 110.553525 -52.2 
L 110.102295 -52.2 
L 109.651065 -52.2 
L 109.199835 -52.2 
L 108.748605 -52.2 
L 108.297375 -52.2 
L 107.846145 -52.2 
L 107.394915 -52.2 
L 106.943685 -52.2 
L 106.492455 -52.2 
L 106.041225 -52.2 
L 105.589995 -52.2 
L 105.138765 -52.2 
L 104.687535 -52.2 
L 104.236305 -52.2 
L 103.785075 -52.2 
L 103.333845 -52.2 
L 102.882616 -52.2 
L 102.431386 -52.2 
L 101.980156 -52.2 
L 101.528926 -52.2 
z
" id="m23a678ac93" style="stroke:#1f77b4;stroke-opacity:0;"/>
    </defs>
    <g clip-path="url(#p4395c5761a)">
     <use style="fill:#1f77b4;fill-opacity:0;stroke:#1f77b4;stroke-opacity:0;" x="0" xlink:href="#m23a678ac93" y="360"/>
    </g>
   </g>
   <g id="matplotlib.axis_1">
    <g id="xtick_1">
     <g id="line2d_1">
      <defs>
       <path d="M 0 0 
L 0 3 
" id="m6aa22910ea" style="stroke:#808080;"/>
      </defs>
      <g>
       <use style="fill:#808080;stroke:#808080;" x="109.478362" xlink:href="#m6aa22910ea" y="320.4"/>
      </g>
     </g>
     <g id="text_1">
      <!-- −1 -->
      <g transform="translate(99.15883 337.537813)scale(0.14 -0.14)">
       <defs>
        <path d="M 10.59375 35.5 
L 73.1875 35.5 
L 73.1875 27.203125 
L 10.59375 27.203125 
z
" id="DejaVuSans-8722"/>
        <path d="M 12.40625 8.296875 
L 28.515625 8.296875 
L 28.515625 63.921875 
L 10.984375 60.40625 
L 10.984375 69.390625 
L 28.421875 72.90625 
L 38.28125 72.90625 
L 38.28125 8.296875 
L 54.390625 8.296875 
L 54.390625 0 
L 12.40625 0 
z
" id="DejaVuSans-49"/>
       </defs>
       <use xlink:href="#DejaVuSans-8722"/>
       <use x="83.789062" xlink:href="#DejaVuSans-49"/>
      </g>
     </g>
    </g>
    <g id="xtick_2">
     <g id="line2d_2">
      <g>
       <use style="fill:#808080;stroke:#808080;" x="171.99311" xlink:href="#m6aa22910ea" y="320.4"/>
      </g>
     </g>
     <g id="text_2">
      <!-- 0 -->
      <g transform="translate(167.53936 337.537813)scale(0.14 -0.14)">
       <defs>
        <path d="M 31.78125 66.40625 
Q 24.171875 66.40625 20.328125 58.90625 
Q 16.5 51.421875 16.5 36.375 
Q 16.5 21.390625 20.328125 13.890625 
Q 24.171875 6.390625 31.78125 6.390625 
Q 39.453125 6.390625 43.28125 13.890625 
Q 47.125 21.390625 47.125 36.375 
Q 47.125 51.421875 43.28125 58.90625 
Q 39.453125 66.40625 31.78125 66.40625 
z
M 31.78125 74.21875 
Q 44.046875 74.21875 50.515625 64.515625 
Q 56.984375 54.828125 56.984375 36.375 
Q 56.984375 17.96875 50.515625 8.265625 
Q 44.046875 -1.421875 31.78125 -1.421875 
Q 19.53125 -1.421875 13.0625 8.265625 
Q 6.59375 17.96875 6.59375 36.375 
Q 6.59375 54.828125 13.0625 64.515625 
Q 19.53125 74.21875 31.78125 74.21875 
z
" id="DejaVuSans-48"/>
       </defs>
       <use xlink:href="#DejaVuSans-48"/>
      </g>
     </g>
    </g>
    <g id="xtick_3">
     <g id="line2d_3">
      <g>
       <use style="fill:#808080;stroke:#808080;" x="234.507858" xlink:href="#m6aa22910ea" y="320.4"/>
      </g>
     </g>
     <g id="text_3">
      <!-- 1 -->
      <g transform="translate(230.054108 337.537813)scale(0.14 -0.14)">
       <use xlink:href="#DejaVuSans-49"/>
      </g>
     </g>
    </g>
    <g id="xtick_4">
     <g id="line2d_4">
      <g>
       <use style="fill:#808080;stroke:#808080;" x="297.022606" xlink:href="#m6aa22910ea" y="320.4"/>
      </g>
     </g>
     <g id="text_4">
      <!-- 2 -->
      <g transform="translate(292.568856 337.537813)scale(0.14 -0.14)">
       <defs>
        <path d="M 19.1875 8.296875 
L 53.609375 8.296875 
L 53.609375 0 
L 7.328125 0 
L 7.328125 8.296875 
Q 12.9375 14.109375 22.625 23.890625 
Q 32.328125 33.6875 34.8125 36.53125 
Q 39.546875 41.84375 41.421875 45.53125 
Q 43.3125 49.21875 43.3125 52.78125 
Q 43.3125 58.59375 39.234375 62.25 
Q 35.15625 65.921875 28.609375 65.921875 
Q 23.96875 65.921875 18.8125 64.3125 
Q 13.671875 62.703125 7.8125 59.421875 
L 7.8125 69.390625 
Q 13.765625 71.78125 18.9375 73 
Q 24.125 74.21875 28.421875 74.21875 
Q 39.75 74.21875 46.484375 68.546875 
Q 53.21875 62.890625 53.21875 53.421875 
Q 53.21875 48.921875 51.53125 44.890625 
Q 49.859375 40.875 45.40625 35.40625 
Q 44.1875 33.984375 37.640625 27.21875 
Q 31.109375 20.453125 19.1875 8.296875 
z
" id="DejaVuSans-50"/>
       </defs>
       <use xlink:href="#DejaVuSans-50"/>
      </g>
     </g>
    </g>
   </g>
   <g id="matplotlib.axis_2"/>
   <g id="line2d_5">
    <path clip-path="url(#p4395c5761a)" d="M 101.528926 307.120103 
L 105.138765 307.241229 
L 115.065825 307.756928 
L 122.285504 307.769076 
L 126.797804 307.591184 
L 129.505183 307.312882 
L 132.212563 306.82 
L 134.468713 306.198305 
L 136.724863 305.373489 
L 138.981013 304.371929 
L 142.590852 302.35163 
L 144.395772 301.121075 
L 146.651922 299.286301 
L 148.908072 297.044579 
L 151.164222 294.416689 
L 154.322832 290.141675 
L 157.030211 286.067664 
L 159.737591 281.62718 
L 161.993741 277.54547 
L 164.249891 273.002271 
L 166.506041 267.925985 
L 168.76219 262.322915 
L 172.37203 252.647918 
L 177.33556 239.19215 
L 180.9454 229.068155 
L 182.750319 223.232833 
L 184.104009 218.280449 
L 185.457699 212.664304 
L 187.262619 203.97031 
L 189.067539 194.05294 
L 191.323689 180.296578 
L 197.189678 143.371523 
L 199.445828 130.789569 
L 201.250748 121.82863 
L 203.055668 113.842241 
L 204.860588 106.868596 
L 207.116738 99.149543 
L 210.275347 89.230255 
L 214.336417 76.877629 
L 216.141337 71.849606 
L 217.946257 67.520857 
L 219.299947 64.790322 
L 220.653637 62.452672 
L 222.458556 59.922949 
L 224.263476 57.956274 
L 225.617166 56.855994 
L 226.519626 56.313122 
L 227.422086 55.950282 
L 228.324546 55.8 
L 229.227006 55.96093 
L 230.129466 56.312097 
L 231.031926 56.96645 
L 231.934386 57.858022 
L 233.288076 59.632584 
L 234.641765 61.891918 
L 236.446685 65.228218 
L 239.154065 70.903904 
L 240.958985 75.170097 
L 242.312675 78.842136 
L 243.666365 83.090554 
L 245.020055 88.057561 
L 246.824975 95.833455 
L 248.629894 104.883904 
L 250.886044 117.493241 
L 256.300804 148.370828 
L 258.556954 159.861242 
L 261.264333 172.244673 
L 264.874173 187.565773 
L 269.386473 206.935218 
L 274.801232 231.265071 
L 278.862302 249.143927 
L 281.118452 258.182769 
L 282.923372 264.610808 
L 284.728292 270.114232 
L 286.081982 273.62257 
L 287.435671 276.555523 
L 288.789361 278.998344 
L 290.143051 281.028168 
L 291.496741 282.686492 
L 293.301661 284.495103 
L 295.557811 286.375013 
L 298.716421 288.946666 
L 300.52134 290.619814 
L 302.77749 293.007833 
L 308.19225 299.021015 
L 309.99717 300.580824 
L 311.80209 301.786162 
L 313.607009 302.708481 
L 315.863159 303.550052 
L 319.472999 304.594689 
L 323.985299 305.575738 
L 327.595138 306.087701 
L 330.753748 306.326202 
L 332.107438 306.363022 
L 332.107438 306.363022 
" style="fill:none;stroke:#1f77b4;stroke-linecap:square;stroke-width:1.5;"/>
   </g>
   <g id="line2d_6">
    <path clip-path="url(#p4395c5761a)" d="M 169.085609 302.508 
L 281.827328 302.508 
" style="fill:none;stroke:#000000;stroke-width:3;"/>
   </g>
   <g id="patch_3">
    <path d="M 90 320.4 
L 343.636364 320.4 
" style="fill:none;stroke:#808080;stroke-linecap:square;stroke-linejoin:miter;stroke-width:0.8;"/>
   </g>
   <g id="text_5">
    <!-- -0.047  -->
    <g transform="translate(115.964515 289.278)scale(0.15 -0.15)">
     <defs>
      <path d="M 4.890625 31.390625 
L 31.203125 31.390625 
L 31.203125 23.390625 
L 4.890625 23.390625 
z
" id="DejaVuSans-45"/>
      <path d="M 10.6875 12.40625 
L 21 12.40625 
L 21 0 
L 10.6875 0 
z
" id="DejaVuSans-46"/>
      <path d="M 37.796875 64.3125 
L 12.890625 25.390625 
L 37.796875 25.390625 
z
M 35.203125 72.90625 
L 47.609375 72.90625 
L 47.609375 25.390625 
L 58.015625 25.390625 
L 58.015625 17.1875 
L 47.609375 17.1875 
L 47.609375 0 
L 37.796875 0 
L 37.796875 17.1875 
L 4.890625 17.1875 
L 4.890625 26.703125 
z
" id="DejaVuSans-52"/>
      <path d="M 8.203125 72.90625 
L 55.078125 72.90625 
L 55.078125 68.703125 
L 28.609375 0 
L 18.3125 0 
L 43.21875 64.59375 
L 8.203125 64.59375 
z
" id="DejaVuSans-55"/>
      <path id="DejaVuSans-32"/>
     </defs>
     <use xlink:href="#DejaVuSans-45"/>
     <use x="36.083984" xlink:href="#DejaVuSans-48"/>
     <use x="99.707031" xlink:href="#DejaVuSans-46"/>
     <use x="131.494141" xlink:href="#DejaVuSans-48"/>
     <use x="195.117188" xlink:href="#DejaVuSans-52"/>
     <use x="258.740234" xlink:href="#DejaVuSans-55"/>
     <use x="322.363281" xlink:href="#DejaVuSans-32"/>
    </g>
   </g>
   <g id="text_6">
    <!--  1.8 -->
    <g transform="translate(281.827328 289.278)scale(0.15 -0.15)">
     <defs>
      <path d="M 31.78125 34.625 
Q 24.75 34.625 20.71875 30.859375 
Q 16.703125 27.09375 16.703125 20.515625 
Q 16.703125 13.921875 20.71875 10.15625 
Q 24.75 6.390625 31.78125 6.390625 
Q 38.8125 6.390625 42.859375 10.171875 
Q 46.921875 13.96875 46.921875 20.515625 
Q 46.921875 27.09375 42.890625 30.859375 
Q 38.875 34.625 31.78125 34.625 
z
M 21.921875 38.8125 
Q 15.578125 40.375 12.03125 44.71875 
Q 8.5 49.078125 8.5 55.328125 
Q 8.5 64.0625 14.71875 69.140625 
Q 20.953125 74.21875 31.78125 74.21875 
Q 42.671875 74.21875 48.875 69.140625 
Q 55.078125 64.0625 55.078125 55.328125 
Q 55.078125 49.078125 51.53125 44.71875 
Q 48 40.375 41.703125 38.8125 
Q 48.828125 37.15625 52.796875 32.3125 
Q 56.78125 27.484375 56.78125 20.515625 
Q 56.78125 9.90625 50.3125 4.234375 
Q 43.84375 -1.421875 31.78125 -1.421875 
Q 19.734375 -1.421875 13.25 4.234375 
Q 6.78125 9.90625 6.78125 20.515625 
Q 6.78125 27.484375 10.78125 32.3125 
Q 14.796875 37.15625 21.921875 38.8125 
z
M 18.3125 54.390625 
Q 18.3125 48.734375 21.84375 45.5625 
Q 25.390625 42.390625 31.78125 42.390625 
Q 38.140625 42.390625 41.71875 45.5625 
Q 45.3125 48.734375 45.3125 54.390625 
Q 45.3125 60.0625 41.71875 63.234375 
Q 38.140625 66.40625 31.78125 66.40625 
Q 25.390625 66.40625 21.84375 63.234375 
Q 18.3125 60.0625 18.3125 54.390625 
z
" id="DejaVuSans-56"/>
     </defs>
     <use xlink:href="#DejaVuSans-32"/>
     <use x="31.787109" xlink:href="#DejaVuSans-49"/>
     <use x="95.410156" xlink:href="#DejaVuSans-46"/>
     <use x="127.197266" xlink:href="#DejaVuSans-56"/>
    </g>
   </g>
   <g id="text_7">
    <!-- 94% HDI -->
    <g transform="translate(192.775218 228.42)scale(0.15 -0.15)">
     <defs>
      <path d="M 10.984375 1.515625 
L 10.984375 10.5 
Q 14.703125 8.734375 18.5 7.8125 
Q 22.3125 6.890625 25.984375 6.890625 
Q 35.75 6.890625 40.890625 13.453125 
Q 46.046875 20.015625 46.78125 33.40625 
Q 43.953125 29.203125 39.59375 26.953125 
Q 35.25 24.703125 29.984375 24.703125 
Q 19.046875 24.703125 12.671875 31.3125 
Q 6.296875 37.9375 6.296875 49.421875 
Q 6.296875 60.640625 12.9375 67.421875 
Q 19.578125 74.21875 30.609375 74.21875 
Q 43.265625 74.21875 49.921875 64.515625 
Q 56.59375 54.828125 56.59375 36.375 
Q 56.59375 19.140625 48.40625 8.859375 
Q 40.234375 -1.421875 26.421875 -1.421875 
Q 22.703125 -1.421875 18.890625 -0.6875 
Q 15.09375 0.046875 10.984375 1.515625 
z
M 30.609375 32.421875 
Q 37.25 32.421875 41.125 36.953125 
Q 45.015625 41.5 45.015625 49.421875 
Q 45.015625 57.28125 41.125 61.84375 
Q 37.25 66.40625 30.609375 66.40625 
Q 23.96875 66.40625 20.09375 61.84375 
Q 16.21875 57.28125 16.21875 49.421875 
Q 16.21875 41.5 20.09375 36.953125 
Q 23.96875 32.421875 30.609375 32.421875 
z
" id="DejaVuSans-57"/>
      <path d="M 72.703125 32.078125 
Q 68.453125 32.078125 66.03125 28.46875 
Q 63.625 24.859375 63.625 18.40625 
Q 63.625 12.0625 66.03125 8.421875 
Q 68.453125 4.78125 72.703125 4.78125 
Q 76.859375 4.78125 79.265625 8.421875 
Q 81.6875 12.0625 81.6875 18.40625 
Q 81.6875 24.8125 79.265625 28.4375 
Q 76.859375 32.078125 72.703125 32.078125 
z
M 72.703125 38.28125 
Q 80.421875 38.28125 84.953125 32.90625 
Q 89.5 27.546875 89.5 18.40625 
Q 89.5 9.28125 84.9375 3.921875 
Q 80.375 -1.421875 72.703125 -1.421875 
Q 64.890625 -1.421875 60.34375 3.921875 
Q 55.8125 9.28125 55.8125 18.40625 
Q 55.8125 27.59375 60.375 32.9375 
Q 64.9375 38.28125 72.703125 38.28125 
z
M 22.3125 68.015625 
Q 18.109375 68.015625 15.6875 64.375 
Q 13.28125 60.75 13.28125 54.390625 
Q 13.28125 47.953125 15.671875 44.328125 
Q 18.0625 40.71875 22.3125 40.71875 
Q 26.5625 40.71875 28.96875 44.328125 
Q 31.390625 47.953125 31.390625 54.390625 
Q 31.390625 60.6875 28.953125 64.34375 
Q 26.515625 68.015625 22.3125 68.015625 
z
M 66.40625 74.21875 
L 74.21875 74.21875 
L 28.609375 -1.421875 
L 20.796875 -1.421875 
z
M 22.3125 74.21875 
Q 30.03125 74.21875 34.609375 68.875 
Q 39.203125 63.53125 39.203125 54.390625 
Q 39.203125 45.171875 34.640625 39.84375 
Q 30.078125 34.515625 22.3125 34.515625 
Q 14.546875 34.515625 10.03125 39.859375 
Q 5.515625 45.21875 5.515625 54.390625 
Q 5.515625 63.484375 10.046875 68.84375 
Q 14.59375 74.21875 22.3125 74.21875 
z
" id="DejaVuSans-37"/>
      <path d="M 9.8125 72.90625 
L 19.671875 72.90625 
L 19.671875 43.015625 
L 55.515625 43.015625 
L 55.515625 72.90625 
L 65.375 72.90625 
L 65.375 0 
L 55.515625 0 
L 55.515625 34.71875 
L 19.671875 34.71875 
L 19.671875 0 
L 9.8125 0 
z
" id="DejaVuSans-72"/>
      <path d="M 19.671875 64.796875 
L 19.671875 8.109375 
L 31.59375 8.109375 
Q 46.6875 8.109375 53.6875 14.9375 
Q 60.6875 21.78125 60.6875 36.53125 
Q 60.6875 51.171875 53.6875 57.984375 
Q 46.6875 64.796875 31.59375 64.796875 
z
M 9.8125 72.90625 
L 30.078125 72.90625 
Q 51.265625 72.90625 61.171875 64.09375 
Q 71.09375 55.28125 71.09375 36.53125 
Q 71.09375 17.671875 61.125 8.828125 
Q 51.171875 0 30.078125 0 
L 9.8125 0 
z
" id="DejaVuSans-68"/>
      <path d="M 9.8125 72.90625 
L 19.671875 72.90625 
L 19.671875 0 
L 9.8125 0 
z
" id="DejaVuSans-73"/>
     </defs>
     <use xlink:href="#DejaVuSans-57"/>
     <use x="63.623047" xlink:href="#DejaVuSans-52"/>
     <use x="127.246094" xlink:href="#DejaVuSans-37"/>
     <use x="222.265625" xlink:href="#DejaVuSans-32"/>
     <use x="254.052734" xlink:href="#DejaVuSans-72"/>
     <use x="329.248047" xlink:href="#DejaVuSans-68"/>
     <use x="406.25" xlink:href="#DejaVuSans-73"/>
    </g>
   </g>
   <g id="text_8">
    <!-- mean=0.88 -->
    <g transform="translate(182.443191 96.12)scale(0.15 -0.15)">
     <defs>
      <path d="M 52 44.1875 
Q 55.375 50.25 60.0625 53.125 
Q 64.75 56 71.09375 56 
Q 79.640625 56 84.28125 50.015625 
Q 88.921875 44.046875 88.921875 33.015625 
L 88.921875 0 
L 79.890625 0 
L 79.890625 32.71875 
Q 79.890625 40.578125 77.09375 44.375 
Q 74.3125 48.1875 68.609375 48.1875 
Q 61.625 48.1875 57.5625 43.546875 
Q 53.515625 38.921875 53.515625 30.90625 
L 53.515625 0 
L 44.484375 0 
L 44.484375 32.71875 
Q 44.484375 40.625 41.703125 44.40625 
Q 38.921875 48.1875 33.109375 48.1875 
Q 26.21875 48.1875 22.15625 43.53125 
Q 18.109375 38.875 18.109375 30.90625 
L 18.109375 0 
L 9.078125 0 
L 9.078125 54.6875 
L 18.109375 54.6875 
L 18.109375 46.1875 
Q 21.1875 51.21875 25.484375 53.609375 
Q 29.78125 56 35.6875 56 
Q 41.65625 56 45.828125 52.96875 
Q 50 49.953125 52 44.1875 
z
" id="DejaVuSans-109"/>
      <path d="M 56.203125 29.59375 
L 56.203125 25.203125 
L 14.890625 25.203125 
Q 15.484375 15.921875 20.484375 11.0625 
Q 25.484375 6.203125 34.421875 6.203125 
Q 39.59375 6.203125 44.453125 7.46875 
Q 49.3125 8.734375 54.109375 11.28125 
L 54.109375 2.78125 
Q 49.265625 0.734375 44.1875 -0.34375 
Q 39.109375 -1.421875 33.890625 -1.421875 
Q 20.796875 -1.421875 13.15625 6.1875 
Q 5.515625 13.8125 5.515625 26.8125 
Q 5.515625 40.234375 12.765625 48.109375 
Q 20.015625 56 32.328125 56 
Q 43.359375 56 49.78125 48.890625 
Q 56.203125 41.796875 56.203125 29.59375 
z
M 47.21875 32.234375 
Q 47.125 39.59375 43.09375 43.984375 
Q 39.0625 48.390625 32.421875 48.390625 
Q 24.90625 48.390625 20.390625 44.140625 
Q 15.875 39.890625 15.1875 32.171875 
z
" id="DejaVuSans-101"/>
      <path d="M 34.28125 27.484375 
Q 23.390625 27.484375 19.1875 25 
Q 14.984375 22.515625 14.984375 16.5 
Q 14.984375 11.71875 18.140625 8.90625 
Q 21.296875 6.109375 26.703125 6.109375 
Q 34.1875 6.109375 38.703125 11.40625 
Q 43.21875 16.703125 43.21875 25.484375 
L 43.21875 27.484375 
z
M 52.203125 31.203125 
L 52.203125 0 
L 43.21875 0 
L 43.21875 8.296875 
Q 40.140625 3.328125 35.546875 0.953125 
Q 30.953125 -1.421875 24.3125 -1.421875 
Q 15.921875 -1.421875 10.953125 3.296875 
Q 6 8.015625 6 15.921875 
Q 6 25.140625 12.171875 29.828125 
Q 18.359375 34.515625 30.609375 34.515625 
L 43.21875 34.515625 
L 43.21875 35.40625 
Q 43.21875 41.609375 39.140625 45 
Q 35.0625 48.390625 27.6875 48.390625 
Q 23 48.390625 18.546875 47.265625 
Q 14.109375 46.140625 10.015625 43.890625 
L 10.015625 52.203125 
Q 14.9375 54.109375 19.578125 55.046875 
Q 24.21875 56 28.609375 56 
Q 40.484375 56 46.34375 49.84375 
Q 52.203125 43.703125 52.203125 31.203125 
z
" id="DejaVuSans-97"/>
      <path d="M 54.890625 33.015625 
L 54.890625 0 
L 45.90625 0 
L 45.90625 32.71875 
Q 45.90625 40.484375 42.875 44.328125 
Q 39.84375 48.1875 33.796875 48.1875 
Q 26.515625 48.1875 22.3125 43.546875 
Q 18.109375 38.921875 18.109375 30.90625 
L 18.109375 0 
L 9.078125 0 
L 9.078125 54.6875 
L 18.109375 54.6875 
L 18.109375 46.1875 
Q 21.34375 51.125 25.703125 53.5625 
Q 30.078125 56 35.796875 56 
Q 45.21875 56 50.046875 50.171875 
Q 54.890625 44.34375 54.890625 33.015625 
z
" id="DejaVuSans-110"/>
      <path d="M 10.59375 45.40625 
L 73.1875 45.40625 
L 73.1875 37.203125 
L 10.59375 37.203125 
z
M 10.59375 25.484375 
L 73.1875 25.484375 
L 73.1875 17.1875 
L 10.59375 17.1875 
z
" id="DejaVuSans-61"/>
     </defs>
     <use xlink:href="#DejaVuSans-109"/>
     <use x="97.412109" xlink:href="#DejaVuSans-101"/>
     <use x="158.935547" xlink:href="#DejaVuSans-97"/>
     <use x="220.214844" xlink:href="#DejaVuSans-110"/>
     <use x="283.59375" xlink:href="#DejaVuSans-61"/>
     <use x="367.382812" xlink:href="#DejaVuSans-48"/>
     <use x="431.005859" xlink:href="#DejaVuSans-46"/>
     <use x="462.792969" xlink:href="#DejaVuSans-56"/>
     <use x="526.416016" xlink:href="#DejaVuSans-56"/>
    </g>
   </g>
   <g id="text_9">
    <!-- a -->
    <g transform="translate(211.915682 37.2)scale(0.16 -0.16)">
     <use xlink:href="#DejaVuSans-97"/>
    </g>
   </g>
  </g>
  <g id="axes_2">
   <g id="patch_4">
    <path d="M 394.363636 320.4 
L 648 320.4 
L 648 43.2 
L 394.363636 43.2 
z
" style="fill:#ffffff;"/>
   </g>
   <g id="PolyCollection_2">
    <defs>
     <path d="M 405.892562 -52.2 
L 405.892562 -55.62584 
L 406.343792 -55.638768 
L 406.795022 -55.659223 
L 407.246252 -55.69569 
L 407.697482 -55.736038 
L 408.148712 -55.790567 
L 408.599942 -55.856256 
L 409.051172 -55.935585 
L 409.502402 -56.019584 
L 409.953632 -56.116084 
L 410.404862 -56.231092 
L 410.856092 -56.354434 
L 411.307322 -56.48567 
L 411.758552 -56.633887 
L 412.209782 -56.785861 
L 412.661011 -56.940932 
L 413.112241 -57.114588 
L 413.563471 -57.303671 
L 414.014701 -57.500272 
L 414.465931 -57.709782 
L 414.917161 -57.927249 
L 415.368391 -58.154973 
L 415.819621 -58.392765 
L 416.270851 -58.640398 
L 416.722081 -58.900073 
L 417.173311 -59.163635 
L 417.624541 -59.436118 
L 418.075771 -59.725544 
L 418.527001 -60.027342 
L 418.978231 -60.338936 
L 419.429461 -60.656622 
L 419.880691 -60.985672 
L 420.331921 -61.314423 
L 420.783151 -61.65587 
L 421.234381 -61.993292 
L 421.685611 -62.350994 
L 422.136841 -62.709886 
L 422.588071 -63.068471 
L 423.039301 -63.446234 
L 423.490531 -63.822313 
L 423.941761 -64.206814 
L 424.392991 -64.596554 
L 424.844221 -64.991419 
L 425.295451 -65.394372 
L 425.74668 -65.793961 
L 426.19791 -66.221628 
L 426.64914 -66.640841 
L 427.10037 -67.070209 
L 427.5516 -67.507158 
L 428.00283 -67.945605 
L 428.45406 -68.393885 
L 428.90529 -68.856119 
L 429.35652 -69.331197 
L 429.80775 -69.81155 
L 430.25898 -70.312542 
L 430.71021 -70.824923 
L 431.16144 -71.354735 
L 431.61267 -71.885633 
L 432.0639 -72.427617 
L 432.51513 -72.993349 
L 432.96636 -73.564126 
L 433.41759 -74.182828 
L 433.86882 -74.802558 
L 434.32005 -75.459307 
L 434.77128 -76.127359 
L 435.22251 -76.805693 
L 435.67374 -77.519455 
L 436.12497 -78.25086 
L 436.5762 -79.005664 
L 437.02743 -79.78044 
L 437.47866 -80.592161 
L 437.92989 -81.417323 
L 438.38112 -82.253482 
L 438.832349 -83.127906 
L 439.283579 -84.025567 
L 439.734809 -84.95765 
L 440.186039 -85.905208 
L 440.637269 -86.875228 
L 441.088499 -87.853799 
L 441.539729 -88.873938 
L 441.990959 -89.904819 
L 442.442189 -90.960979 
L 442.893419 -92.039324 
L 443.344649 -93.133802 
L 443.795879 -94.252243 
L 444.247109 -95.383757 
L 444.698339 -96.523507 
L 445.149569 -97.678452 
L 445.600799 -98.860277 
L 446.052029 -100.034928 
L 446.503259 -101.260117 
L 446.954489 -102.499205 
L 447.405719 -103.736579 
L 447.856949 -104.989582 
L 448.308179 -106.256014 
L 448.759409 -107.565922 
L 449.210639 -108.865927 
L 449.661869 -110.172734 
L 450.113099 -111.498458 
L 450.564329 -112.838223 
L 451.015559 -114.201179 
L 451.466789 -115.579209 
L 451.918018 -116.966083 
L 452.369248 -118.371593 
L 452.820478 -119.812796 
L 453.271708 -121.259517 
L 453.722938 -122.704329 
L 454.174168 -124.18214 
L 454.625398 -125.678956 
L 455.076628 -127.188682 
L 455.527858 -128.747912 
L 455.979088 -130.294543 
L 456.430318 -131.866588 
L 456.881548 -133.456797 
L 457.332778 -135.054949 
L 457.784008 -136.676471 
L 458.235238 -138.319149 
L 458.686468 -139.974234 
L 459.137698 -141.643181 
L 459.588928 -143.321289 
L 460.040158 -145.00478 
L 460.491388 -146.711359 
L 460.942618 -148.427544 
L 461.393848 -150.147381 
L 461.845078 -151.874394 
L 462.296308 -153.630313 
L 462.747538 -155.364146 
L 463.198768 -157.116669 
L 463.649998 -158.869892 
L 464.101228 -160.617551 
L 464.552458 -162.366803 
L 465.003687 -164.100909 
L 465.454917 -165.84468 
L 465.906147 -167.580262 
L 466.357377 -169.338875 
L 466.808607 -171.07725 
L 467.259837 -172.797483 
L 467.711067 -174.558143 
L 468.162297 -176.302176 
L 468.613527 -178.05167 
L 469.064757 -179.781093 
L 469.515987 -181.501329 
L 469.967217 -183.245343 
L 470.418447 -184.973262 
L 470.869677 -186.726226 
L 471.320907 -188.454328 
L 471.772137 -190.169291 
L 472.223367 -191.890464 
L 472.674597 -193.635337 
L 473.125827 -195.350682 
L 473.577057 -197.075587 
L 474.028287 -198.815066 
L 474.479517 -200.535534 
L 474.930747 -202.286926 
L 475.381977 -204.013456 
L 475.833207 -205.72652 
L 476.284437 -207.446139 
L 476.735667 -209.156543 
L 477.186897 -210.918025 
L 477.638127 -212.628313 
L 478.089356 -214.335489 
L 478.540586 -216.020507 
L 478.991816 -217.726358 
L 479.443046 -219.427246 
L 479.894276 -221.11782 
L 480.345506 -222.797808 
L 480.796736 -224.488738 
L 481.247966 -226.203867 
L 481.699196 -227.884188 
L 482.150426 -229.561752 
L 482.601656 -231.273642 
L 483.052886 -232.98138 
L 483.504116 -234.69202 
L 483.955346 -236.412544 
L 484.406576 -238.115596 
L 484.857806 -239.837239 
L 485.309036 -241.550508 
L 485.760266 -243.265041 
L 486.211496 -244.974243 
L 486.662726 -246.745159 
L 487.113956 -248.465276 
L 487.565186 -250.188215 
L 488.016416 -251.935397 
L 488.467646 -253.653187 
L 488.918876 -255.371385 
L 489.370106 -257.110736 
L 489.821336 -258.835397 
L 490.272566 -260.548581 
L 490.723796 -262.234685 
L 491.175025 -263.917252 
L 491.626255 -265.64017 
L 492.077485 -267.315211 
L 492.528715 -268.946627 
L 492.979945 -270.595164 
L 493.431175 -272.189094 
L 493.882405 -273.753617 
L 494.333635 -275.272131 
L 494.784865 -276.755937 
L 495.236095 -278.243241 
L 495.687325 -279.700949 
L 496.138555 -281.09826 
L 496.589785 -282.43964 
L 497.041015 -283.761874 
L 497.492245 -285.009111 
L 497.943475 -286.24441 
L 498.394705 -287.443837 
L 498.845935 -288.5717 
L 499.297165 -289.652244 
L 499.748395 -290.703307 
L 500.199625 -291.7105 
L 500.650855 -292.656512 
L 501.102085 -293.549411 
L 501.553315 -294.386834 
L 502.004545 -295.191125 
L 502.455775 -295.939388 
L 502.907005 -296.625926 
L 503.358235 -297.31105 
L 503.809465 -297.931797 
L 504.260694 -298.509362 
L 504.711924 -299.063894 
L 505.163154 -299.573753 
L 505.614384 -300.055263 
L 506.065614 -300.471371 
L 506.516844 -300.886352 
L 506.968074 -301.25508 
L 507.419304 -301.605163 
L 507.870534 -301.901965 
L 508.321764 -302.160973 
L 508.772994 -302.421419 
L 509.224224 -302.687124 
L 509.675454 -302.871862 
L 510.126684 -303.031599 
L 510.577914 -303.208529 
L 511.029144 -303.396125 
L 511.480374 -303.551305 
L 511.931604 -303.656921 
L 512.382834 -303.763087 
L 512.834064 -303.850519 
L 513.285294 -303.961275 
L 513.736524 -304.055107 
L 514.187754 -304.117373 
L 514.638984 -304.133461 
L 515.090214 -304.168063 
L 515.541444 -304.194705 
L 515.992674 -304.2 
L 516.443904 -304.189715 
L 516.895134 -304.137695 
L 517.346363 -304.091865 
L 517.797593 -304.063259 
L 518.248823 -303.980515 
L 518.700053 -303.895617 
L 519.151283 -303.770373 
L 519.602513 -303.655564 
L 520.053743 -303.528489 
L 520.504973 -303.359448 
L 520.956203 -303.130234 
L 521.407433 -302.860657 
L 521.858663 -302.575335 
L 522.309893 -302.254273 
L 522.761123 -301.870549 
L 523.212353 -301.416474 
L 523.663583 -300.928748 
L 524.114813 -300.42349 
L 524.566043 -299.823433 
L 525.017273 -299.184448 
L 525.468503 -298.489043 
L 525.919733 -297.726997 
L 526.370963 -296.940873 
L 526.822193 -296.077833 
L 527.273423 -295.177078 
L 527.724653 -294.205506 
L 528.175883 -293.197054 
L 528.627113 -292.081666 
L 529.078343 -290.994006 
L 529.529573 -289.825494 
L 529.980803 -288.601214 
L 530.432032 -287.339253 
L 530.883262 -286.057972 
L 531.334492 -284.745224 
L 531.785722 -283.402444 
L 532.236952 -282.031548 
L 532.688182 -280.645366 
L 533.139412 -279.267478 
L 533.590642 -277.843513 
L 534.041872 -276.457584 
L 534.493102 -275.08314 
L 534.944332 -273.679511 
L 535.395562 -272.306149 
L 535.846792 -270.954803 
L 536.298022 -269.589485 
L 536.749252 -268.250483 
L 537.200482 -266.875476 
L 537.651712 -265.515953 
L 538.102942 -264.167044 
L 538.554172 -262.833944 
L 539.005402 -261.480066 
L 539.456632 -260.117605 
L 539.907862 -258.755391 
L 540.359092 -257.366762 
L 540.810322 -255.978306 
L 541.261552 -254.575977 
L 541.712782 -253.096373 
L 542.164012 -251.582239 
L 542.615242 -250.040149 
L 543.066472 -248.474977 
L 543.517701 -246.851376 
L 543.968931 -245.160251 
L 544.420161 -243.403306 
L 544.871391 -241.626602 
L 545.322621 -239.719208 
L 545.773851 -237.791437 
L 546.225081 -235.780363 
L 546.676311 -233.709817 
L 547.127541 -231.553528 
L 547.578771 -229.33256 
L 548.030001 -227.08426 
L 548.481231 -224.760105 
L 548.932461 -222.3738 
L 549.383691 -219.916607 
L 549.834921 -217.431608 
L 550.286151 -214.886443 
L 550.737381 -212.306242 
L 551.188611 -209.660115 
L 551.639841 -207.031731 
L 552.091071 -204.37333 
L 552.542301 -201.681914 
L 552.993531 -198.97871 
L 553.444761 -196.292576 
L 553.895991 -193.61482 
L 554.347221 -190.934754 
L 554.798451 -188.253542 
L 555.249681 -185.581829 
L 555.700911 -182.957266 
L 556.152141 -180.378757 
L 556.60337 -177.841774 
L 557.0546 -175.337985 
L 557.50583 -172.858735 
L 557.95706 -170.419153 
L 558.40829 -168.041571 
L 558.85952 -165.721648 
L 559.31075 -163.426643 
L 559.76198 -161.189311 
L 560.21321 -159.005212 
L 560.66444 -156.881046 
L 561.11567 -154.792573 
L 561.5669 -152.767155 
L 562.01813 -150.78418 
L 562.46936 -148.875628 
L 562.92059 -147.015162 
L 563.37182 -145.193726 
L 563.82305 -143.407919 
L 564.27428 -141.674714 
L 564.72551 -139.966168 
L 565.17674 -138.314061 
L 565.62797 -136.712025 
L 566.0792 -135.109543 
L 566.53043 -133.560204 
L 566.98166 -132.039836 
L 567.43289 -130.547903 
L 567.88412 -129.098061 
L 568.33535 -127.658201 
L 568.78658 -126.2443 
L 569.23781 -124.851794 
L 569.689039 -123.491998 
L 570.140269 -122.144335 
L 570.591499 -120.832449 
L 571.042729 -119.507404 
L 571.493959 -118.227179 
L 571.945189 -116.966242 
L 572.396419 -115.718009 
L 572.847649 -114.474549 
L 573.298879 -113.248265 
L 573.750109 -112.048907 
L 574.201339 -110.859572 
L 574.652569 -109.679651 
L 575.103799 -108.496245 
L 575.555029 -107.322858 
L 576.006259 -106.157161 
L 576.457489 -105.006663 
L 576.908719 -103.866302 
L 577.359949 -102.740976 
L 577.811179 -101.616387 
L 578.262409 -100.521918 
L 578.713639 -99.41023 
L 579.164869 -98.330694 
L 579.616099 -97.25938 
L 580.067329 -96.19962 
L 580.518559 -95.143846 
L 580.969789 -94.093906 
L 581.421019 -93.058808 
L 581.872249 -92.037247 
L 582.323479 -91.023001 
L 582.774708 -90.029246 
L 583.225938 -89.044944 
L 583.677168 -88.091181 
L 584.128398 -87.148139 
L 584.579628 -86.221898 
L 585.030858 -85.295238 
L 585.482088 -84.40152 
L 585.933318 -83.51863 
L 586.384548 -82.652179 
L 586.835778 -81.784415 
L 587.287008 -80.968363 
L 587.738238 -80.140604 
L 588.189468 -79.340702 
L 588.640698 -78.553905 
L 589.091928 -77.797108 
L 589.543158 -77.040054 
L 589.994388 -76.302419 
L 590.445618 -75.563729 
L 590.896848 -74.856087 
L 591.348078 -74.160569 
L 591.799308 -73.481891 
L 592.250538 -72.811512 
L 592.701768 -72.142468 
L 593.152998 -71.501095 
L 593.604228 -70.852101 
L 594.055458 -70.225945 
L 594.506688 -69.605483 
L 594.957918 -68.994052 
L 595.409148 -68.399311 
L 595.860377 -67.820677 
L 596.311607 -67.252337 
L 596.762837 -66.689077 
L 597.214067 -66.144433 
L 597.665297 -65.609749 
L 598.116527 -65.070686 
L 598.567757 -64.555087 
L 599.018987 -64.048666 
L 599.470217 -63.562029 
L 599.921447 -63.084123 
L 600.372677 -62.613413 
L 600.823907 -62.156081 
L 601.275137 -61.717162 
L 601.726367 -61.291458 
L 602.177597 -60.886606 
L 602.628827 -60.486071 
L 603.080057 -60.096592 
L 603.531287 -59.723617 
L 603.982517 -59.364132 
L 604.433747 -59.020559 
L 604.884977 -58.689876 
L 605.336207 -58.372026 
L 605.787437 -58.069357 
L 606.238667 -57.776309 
L 606.689897 -57.495687 
L 607.141127 -57.222307 
L 607.592357 -56.96174 
L 608.043587 -56.723346 
L 608.494817 -56.487541 
L 608.946046 -56.26545 
L 609.397276 -56.048801 
L 609.848506 -55.848047 
L 610.299736 -55.656823 
L 610.750966 -55.477282 
L 611.202196 -55.306181 
L 611.653426 -55.146321 
L 612.104656 -54.99209 
L 612.555886 -54.840795 
L 613.007116 -54.705448 
L 613.458346 -54.574388 
L 613.909576 -54.450412 
L 614.360806 -54.333288 
L 614.812036 -54.222775 
L 615.263266 -54.111251 
L 615.714496 -54.012758 
L 616.165726 -53.926441 
L 616.616956 -53.840706 
L 617.068186 -53.765715 
L 617.519416 -53.695368 
L 617.970646 -53.627145 
L 618.421876 -53.566363 
L 618.873106 -53.502537 
L 619.324336 -53.451763 
L 619.775566 -53.402445 
L 620.226796 -53.36049 
L 620.678026 -53.317917 
L 621.129256 -53.28492 
L 621.580486 -53.252983 
L 622.031715 -53.227493 
L 622.482945 -53.205424 
L 622.934175 -53.186772 
L 623.385405 -53.171521 
L 623.836635 -53.154726 
L 624.287865 -53.144676 
L 624.739095 -53.140683 
L 625.190325 -53.139694 
L 625.641555 -53.141661 
L 626.092785 -53.146515 
L 626.544015 -53.154154 
L 626.995245 -53.164452 
L 627.446475 -53.174792 
L 627.897705 -53.187916 
L 628.348935 -53.205982 
L 628.800165 -53.22574 
L 629.251395 -53.244472 
L 629.702625 -53.267285 
L 630.153855 -53.291418 
L 630.605085 -53.316562 
L 631.056315 -53.341833 
L 631.507545 -53.366899 
L 631.958775 -53.391418 
L 632.410005 -53.412583 
L 632.861235 -53.435441 
L 633.312465 -53.456642 
L 633.763695 -53.475877 
L 634.214925 -53.492859 
L 634.666155 -53.507323 
L 635.117384 -53.519039 
L 635.568614 -53.527811 
L 636.019844 -53.536514 
L 636.471074 -53.539659 
L 636.471074 -52.2 
L 636.471074 -52.2 
L 636.019844 -52.2 
L 635.568614 -52.2 
L 635.117384 -52.2 
L 634.666155 -52.2 
L 634.214925 -52.2 
L 633.763695 -52.2 
L 633.312465 -52.2 
L 632.861235 -52.2 
L 632.410005 -52.2 
L 631.958775 -52.2 
L 631.507545 -52.2 
L 631.056315 -52.2 
L 630.605085 -52.2 
L 630.153855 -52.2 
L 629.702625 -52.2 
L 629.251395 -52.2 
L 628.800165 -52.2 
L 628.348935 -52.2 
L 627.897705 -52.2 
L 627.446475 -52.2 
L 626.995245 -52.2 
L 626.544015 -52.2 
L 626.092785 -52.2 
L 625.641555 -52.2 
L 625.190325 -52.2 
L 624.739095 -52.2 
L 624.287865 -52.2 
L 623.836635 -52.2 
L 623.385405 -52.2 
L 622.934175 -52.2 
L 622.482945 -52.2 
L 622.031715 -52.2 
L 621.580486 -52.2 
L 621.129256 -52.2 
L 620.678026 -52.2 
L 620.226796 -52.2 
L 619.775566 -52.2 
L 619.324336 -52.2 
L 618.873106 -52.2 
L 618.421876 -52.2 
L 617.970646 -52.2 
L 617.519416 -52.2 
L 617.068186 -52.2 
L 616.616956 -52.2 
L 616.165726 -52.2 
L 615.714496 -52.2 
L 615.263266 -52.2 
L 614.812036 -52.2 
L 614.360806 -52.2 
L 613.909576 -52.2 
L 613.458346 -52.2 
L 613.007116 -52.2 
L 612.555886 -52.2 
L 612.104656 -52.2 
L 611.653426 -52.2 
L 611.202196 -52.2 
L 610.750966 -52.2 
L 610.299736 -52.2 
L 609.848506 -52.2 
L 609.397276 -52.2 
L 608.946046 -52.2 
L 608.494817 -52.2 
L 608.043587 -52.2 
L 607.592357 -52.2 
L 607.141127 -52.2 
L 606.689897 -52.2 
L 606.238667 -52.2 
L 605.787437 -52.2 
L 605.336207 -52.2 
L 604.884977 -52.2 
L 604.433747 -52.2 
L 603.982517 -52.2 
L 603.531287 -52.2 
L 603.080057 -52.2 
L 602.628827 -52.2 
L 602.177597 -52.2 
L 601.726367 -52.2 
L 601.275137 -52.2 
L 600.823907 -52.2 
L 600.372677 -52.2 
L 599.921447 -52.2 
L 599.470217 -52.2 
L 599.018987 -52.2 
L 598.567757 -52.2 
L 598.116527 -52.2 
L 597.665297 -52.2 
L 597.214067 -52.2 
L 596.762837 -52.2 
L 596.311607 -52.2 
L 595.860377 -52.2 
L 595.409148 -52.2 
L 594.957918 -52.2 
L 594.506688 -52.2 
L 594.055458 -52.2 
L 593.604228 -52.2 
L 593.152998 -52.2 
L 592.701768 -52.2 
L 592.250538 -52.2 
L 591.799308 -52.2 
L 591.348078 -52.2 
L 590.896848 -52.2 
L 590.445618 -52.2 
L 589.994388 -52.2 
L 589.543158 -52.2 
L 589.091928 -52.2 
L 588.640698 -52.2 
L 588.189468 -52.2 
L 587.738238 -52.2 
L 587.287008 -52.2 
L 586.835778 -52.2 
L 586.384548 -52.2 
L 585.933318 -52.2 
L 585.482088 -52.2 
L 585.030858 -52.2 
L 584.579628 -52.2 
L 584.128398 -52.2 
L 583.677168 -52.2 
L 583.225938 -52.2 
L 582.774708 -52.2 
L 582.323479 -52.2 
L 581.872249 -52.2 
L 581.421019 -52.2 
L 580.969789 -52.2 
L 580.518559 -52.2 
L 580.067329 -52.2 
L 579.616099 -52.2 
L 579.164869 -52.2 
L 578.713639 -52.2 
L 578.262409 -52.2 
L 577.811179 -52.2 
L 577.359949 -52.2 
L 576.908719 -52.2 
L 576.457489 -52.2 
L 576.006259 -52.2 
L 575.555029 -52.2 
L 575.103799 -52.2 
L 574.652569 -52.2 
L 574.201339 -52.2 
L 573.750109 -52.2 
L 573.298879 -52.2 
L 572.847649 -52.2 
L 572.396419 -52.2 
L 571.945189 -52.2 
L 571.493959 -52.2 
L 571.042729 -52.2 
L 570.591499 -52.2 
L 570.140269 -52.2 
L 569.689039 -52.2 
L 569.23781 -52.2 
L 568.78658 -52.2 
L 568.33535 -52.2 
L 567.88412 -52.2 
L 567.43289 -52.2 
L 566.98166 -52.2 
L 566.53043 -52.2 
L 566.0792 -52.2 
L 565.62797 -52.2 
L 565.17674 -52.2 
L 564.72551 -52.2 
L 564.27428 -52.2 
L 563.82305 -52.2 
L 563.37182 -52.2 
L 562.92059 -52.2 
L 562.46936 -52.2 
L 562.01813 -52.2 
L 561.5669 -52.2 
L 561.11567 -52.2 
L 560.66444 -52.2 
L 560.21321 -52.2 
L 559.76198 -52.2 
L 559.31075 -52.2 
L 558.85952 -52.2 
L 558.40829 -52.2 
L 557.95706 -52.2 
L 557.50583 -52.2 
L 557.0546 -52.2 
L 556.60337 -52.2 
L 556.152141 -52.2 
L 555.700911 -52.2 
L 555.249681 -52.2 
L 554.798451 -52.2 
L 554.347221 -52.2 
L 553.895991 -52.2 
L 553.444761 -52.2 
L 552.993531 -52.2 
L 552.542301 -52.2 
L 552.091071 -52.2 
L 551.639841 -52.2 
L 551.188611 -52.2 
L 550.737381 -52.2 
L 550.286151 -52.2 
L 549.834921 -52.2 
L 549.383691 -52.2 
L 548.932461 -52.2 
L 548.481231 -52.2 
L 548.030001 -52.2 
L 547.578771 -52.2 
L 547.127541 -52.2 
L 546.676311 -52.2 
L 546.225081 -52.2 
L 545.773851 -52.2 
L 545.322621 -52.2 
L 544.871391 -52.2 
L 544.420161 -52.2 
L 543.968931 -52.2 
L 543.517701 -52.2 
L 543.066472 -52.2 
L 542.615242 -52.2 
L 542.164012 -52.2 
L 541.712782 -52.2 
L 541.261552 -52.2 
L 540.810322 -52.2 
L 540.359092 -52.2 
L 539.907862 -52.2 
L 539.456632 -52.2 
L 539.005402 -52.2 
L 538.554172 -52.2 
L 538.102942 -52.2 
L 537.651712 -52.2 
L 537.200482 -52.2 
L 536.749252 -52.2 
L 536.298022 -52.2 
L 535.846792 -52.2 
L 535.395562 -52.2 
L 534.944332 -52.2 
L 534.493102 -52.2 
L 534.041872 -52.2 
L 533.590642 -52.2 
L 533.139412 -52.2 
L 532.688182 -52.2 
L 532.236952 -52.2 
L 531.785722 -52.2 
L 531.334492 -52.2 
L 530.883262 -52.2 
L 530.432032 -52.2 
L 529.980803 -52.2 
L 529.529573 -52.2 
L 529.078343 -52.2 
L 528.627113 -52.2 
L 528.175883 -52.2 
L 527.724653 -52.2 
L 527.273423 -52.2 
L 526.822193 -52.2 
L 526.370963 -52.2 
L 525.919733 -52.2 
L 525.468503 -52.2 
L 525.017273 -52.2 
L 524.566043 -52.2 
L 524.114813 -52.2 
L 523.663583 -52.2 
L 523.212353 -52.2 
L 522.761123 -52.2 
L 522.309893 -52.2 
L 521.858663 -52.2 
L 521.407433 -52.2 
L 520.956203 -52.2 
L 520.504973 -52.2 
L 520.053743 -52.2 
L 519.602513 -52.2 
L 519.151283 -52.2 
L 518.700053 -52.2 
L 518.248823 -52.2 
L 517.797593 -52.2 
L 517.346363 -52.2 
L 516.895134 -52.2 
L 516.443904 -52.2 
L 515.992674 -52.2 
L 515.541444 -52.2 
L 515.090214 -52.2 
L 514.638984 -52.2 
L 514.187754 -52.2 
L 513.736524 -52.2 
L 513.285294 -52.2 
L 512.834064 -52.2 
L 512.382834 -52.2 
L 511.931604 -52.2 
L 511.480374 -52.2 
L 511.029144 -52.2 
L 510.577914 -52.2 
L 510.126684 -52.2 
L 509.675454 -52.2 
L 509.224224 -52.2 
L 508.772994 -52.2 
L 508.321764 -52.2 
L 507.870534 -52.2 
L 507.419304 -52.2 
L 506.968074 -52.2 
L 506.516844 -52.2 
L 506.065614 -52.2 
L 505.614384 -52.2 
L 505.163154 -52.2 
L 504.711924 -52.2 
L 504.260694 -52.2 
L 503.809465 -52.2 
L 503.358235 -52.2 
L 502.907005 -52.2 
L 502.455775 -52.2 
L 502.004545 -52.2 
L 501.553315 -52.2 
L 501.102085 -52.2 
L 500.650855 -52.2 
L 500.199625 -52.2 
L 499.748395 -52.2 
L 499.297165 -52.2 
L 498.845935 -52.2 
L 498.394705 -52.2 
L 497.943475 -52.2 
L 497.492245 -52.2 
L 497.041015 -52.2 
L 496.589785 -52.2 
L 496.138555 -52.2 
L 495.687325 -52.2 
L 495.236095 -52.2 
L 494.784865 -52.2 
L 494.333635 -52.2 
L 493.882405 -52.2 
L 493.431175 -52.2 
L 492.979945 -52.2 
L 492.528715 -52.2 
L 492.077485 -52.2 
L 491.626255 -52.2 
L 491.175025 -52.2 
L 490.723796 -52.2 
L 490.272566 -52.2 
L 489.821336 -52.2 
L 489.370106 -52.2 
L 488.918876 -52.2 
L 488.467646 -52.2 
L 488.016416 -52.2 
L 487.565186 -52.2 
L 487.113956 -52.2 
L 486.662726 -52.2 
L 486.211496 -52.2 
L 485.760266 -52.2 
L 485.309036 -52.2 
L 484.857806 -52.2 
L 484.406576 -52.2 
L 483.955346 -52.2 
L 483.504116 -52.2 
L 483.052886 -52.2 
L 482.601656 -52.2 
L 482.150426 -52.2 
L 481.699196 -52.2 
L 481.247966 -52.2 
L 480.796736 -52.2 
L 480.345506 -52.2 
L 479.894276 -52.2 
L 479.443046 -52.2 
L 478.991816 -52.2 
L 478.540586 -52.2 
L 478.089356 -52.2 
L 477.638127 -52.2 
L 477.186897 -52.2 
L 476.735667 -52.2 
L 476.284437 -52.2 
L 475.833207 -52.2 
L 475.381977 -52.2 
L 474.930747 -52.2 
L 474.479517 -52.2 
L 474.028287 -52.2 
L 473.577057 -52.2 
L 473.125827 -52.2 
L 472.674597 -52.2 
L 472.223367 -52.2 
L 471.772137 -52.2 
L 471.320907 -52.2 
L 470.869677 -52.2 
L 470.418447 -52.2 
L 469.967217 -52.2 
L 469.515987 -52.2 
L 469.064757 -52.2 
L 468.613527 -52.2 
L 468.162297 -52.2 
L 467.711067 -52.2 
L 467.259837 -52.2 
L 466.808607 -52.2 
L 466.357377 -52.2 
L 465.906147 -52.2 
L 465.454917 -52.2 
L 465.003687 -52.2 
L 464.552458 -52.2 
L 464.101228 -52.2 
L 463.649998 -52.2 
L 463.198768 -52.2 
L 462.747538 -52.2 
L 462.296308 -52.2 
L 461.845078 -52.2 
L 461.393848 -52.2 
L 460.942618 -52.2 
L 460.491388 -52.2 
L 460.040158 -52.2 
L 459.588928 -52.2 
L 459.137698 -52.2 
L 458.686468 -52.2 
L 458.235238 -52.2 
L 457.784008 -52.2 
L 457.332778 -52.2 
L 456.881548 -52.2 
L 456.430318 -52.2 
L 455.979088 -52.2 
L 455.527858 -52.2 
L 455.076628 -52.2 
L 454.625398 -52.2 
L 454.174168 -52.2 
L 453.722938 -52.2 
L 453.271708 -52.2 
L 452.820478 -52.2 
L 452.369248 -52.2 
L 451.918018 -52.2 
L 451.466789 -52.2 
L 451.015559 -52.2 
L 450.564329 -52.2 
L 450.113099 -52.2 
L 449.661869 -52.2 
L 449.210639 -52.2 
L 448.759409 -52.2 
L 448.308179 -52.2 
L 447.856949 -52.2 
L 447.405719 -52.2 
L 446.954489 -52.2 
L 446.503259 -52.2 
L 446.052029 -52.2 
L 445.600799 -52.2 
L 445.149569 -52.2 
L 444.698339 -52.2 
L 444.247109 -52.2 
L 443.795879 -52.2 
L 443.344649 -52.2 
L 442.893419 -52.2 
L 442.442189 -52.2 
L 441.990959 -52.2 
L 441.539729 -52.2 
L 441.088499 -52.2 
L 440.637269 -52.2 
L 440.186039 -52.2 
L 439.734809 -52.2 
L 439.283579 -52.2 
L 438.832349 -52.2 
L 438.38112 -52.2 
L 437.92989 -52.2 
L 437.47866 -52.2 
L 437.02743 -52.2 
L 436.5762 -52.2 
L 436.12497 -52.2 
L 435.67374 -52.2 
L 435.22251 -52.2 
L 434.77128 -52.2 
L 434.32005 -52.2 
L 433.86882 -52.2 
L 433.41759 -52.2 
L 432.96636 -52.2 
L 432.51513 -52.2 
L 432.0639 -52.2 
L 431.61267 -52.2 
L 431.16144 -52.2 
L 430.71021 -52.2 
L 430.25898 -52.2 
L 429.80775 -52.2 
L 429.35652 -52.2 
L 428.90529 -52.2 
L 428.45406 -52.2 
L 428.00283 -52.2 
L 427.5516 -52.2 
L 427.10037 -52.2 
L 426.64914 -52.2 
L 426.19791 -52.2 
L 425.74668 -52.2 
L 425.295451 -52.2 
L 424.844221 -52.2 
L 424.392991 -52.2 
L 423.941761 -52.2 
L 423.490531 -52.2 
L 423.039301 -52.2 
L 422.588071 -52.2 
L 422.136841 -52.2 
L 421.685611 -52.2 
L 421.234381 -52.2 
L 420.783151 -52.2 
L 420.331921 -52.2 
L 419.880691 -52.2 
L 419.429461 -52.2 
L 418.978231 -52.2 
L 418.527001 -52.2 
L 418.075771 -52.2 
L 417.624541 -52.2 
L 417.173311 -52.2 
L 416.722081 -52.2 
L 416.270851 -52.2 
L 415.819621 -52.2 
L 415.368391 -52.2 
L 414.917161 -52.2 
L 414.465931 -52.2 
L 414.014701 -52.2 
L 413.563471 -52.2 
L 413.112241 -52.2 
L 412.661011 -52.2 
L 412.209782 -52.2 
L 411.758552 -52.2 
L 411.307322 -52.2 
L 410.856092 -52.2 
L 410.404862 -52.2 
L 409.953632 -52.2 
L 409.502402 -52.2 
L 409.051172 -52.2 
L 408.599942 -52.2 
L 408.148712 -52.2 
L 407.697482 -52.2 
L 407.246252 -52.2 
L 406.795022 -52.2 
L 406.343792 -52.2 
L 405.892562 -52.2 
z
" id="mf766c3b05d" style="stroke:#1f77b4;stroke-opacity:0;"/>
    </defs>
    <g clip-path="url(#p41443ed3a3)">
     <use style="fill:#1f77b4;fill-opacity:0;stroke:#1f77b4;stroke-opacity:0;" x="0" xlink:href="#mf766c3b05d" y="360"/>
    </g>
   </g>
   <g id="matplotlib.axis_3">
    <g id="xtick_5">
     <g id="line2d_7">
      <g>
       <use style="fill:#808080;stroke:#808080;" x="442.324087" xlink:href="#m6aa22910ea" y="320.4"/>
      </g>
     </g>
     <g id="text_10">
      <!-- −1 -->
      <g transform="translate(432.004555 337.537813)scale(0.14 -0.14)">
       <use xlink:href="#DejaVuSans-8722"/>
       <use x="83.789062" xlink:href="#DejaVuSans-49"/>
      </g>
     </g>
    </g>
    <g id="xtick_6">
     <g id="line2d_8">
      <g>
       <use style="fill:#808080;stroke:#808080;" x="512.860957" xlink:href="#m6aa22910ea" y="320.4"/>
      </g>
     </g>
     <g id="text_11">
      <!-- 0 -->
      <g transform="translate(508.407207 337.537813)scale(0.14 -0.14)">
       <use xlink:href="#DejaVuSans-48"/>
      </g>
     </g>
    </g>
    <g id="xtick_7">
     <g id="line2d_9">
      <g>
       <use style="fill:#808080;stroke:#808080;" x="583.397828" xlink:href="#m6aa22910ea" y="320.4"/>
      </g>
     </g>
     <g id="text_12">
      <!-- 1 -->
      <g transform="translate(578.944078 337.537813)scale(0.14 -0.14)">
       <use xlink:href="#DejaVuSans-49"/>
      </g>
     </g>
    </g>
   </g>
   <g id="matplotlib.axis_4"/>
   <g id="line2d_10">
    <path clip-path="url(#p41443ed3a3)" d="M 405.892562 304.37416 
L 408.148712 304.209433 
L 410.404862 303.768908 
L 412.661011 303.059068 
L 414.917161 302.072751 
L 417.173311 300.836365 
L 418.978231 299.661064 
L 421.685611 297.649006 
L 424.844221 295.008581 
L 428.00283 292.054395 
L 430.25898 289.687458 
L 432.51513 287.006651 
L 433.86882 285.197442 
L 436.12497 281.74914 
L 437.92989 278.582677 
L 439.734809 275.04235 
L 441.990959 270.095181 
L 444.698339 263.476493 
L 447.405719 256.263421 
L 450.113099 248.501542 
L 452.820478 240.187204 
L 455.979088 229.705457 
L 459.137698 218.356819 
L 463.198768 202.883331 
L 475.381977 155.986544 
L 493.431175 87.810906 
L 495.687325 80.299051 
L 497.492245 74.990889 
L 499.297165 70.347756 
L 500.650855 67.343488 
L 502.004545 64.808875 
L 503.358235 62.68895 
L 504.711924 60.936106 
L 506.065614 59.528629 
L 507.419304 58.394837 
L 509.224224 57.312876 
L 511.480374 56.448695 
L 514.187754 55.882627 
L 516.895134 55.862305 
L 518.700053 56.104383 
L 520.504973 56.640552 
L 521.858663 57.424665 
L 522.761123 58.129451 
L 524.114813 59.57651 
L 525.468503 61.510957 
L 526.822193 63.922167 
L 528.175883 66.802946 
L 530.432032 72.660747 
L 532.688182 79.354634 
L 542.615242 109.959851 
L 544.420161 116.596694 
L 545.773851 122.208563 
L 547.578771 130.66744 
L 549.383691 140.083393 
L 551.639841 152.968269 
L 557.95706 189.580847 
L 560.21321 200.994788 
L 562.46936 211.124372 
L 564.72551 220.033832 
L 566.98166 227.960164 
L 569.23781 235.148206 
L 571.945189 243.033758 
L 575.103799 251.503755 
L 578.713639 260.58977 
L 582.323479 268.976999 
L 585.030858 274.704762 
L 587.738238 279.859396 
L 590.445618 284.436271 
L 593.152998 288.498905 
L 595.409148 291.600689 
L 598.116527 294.929314 
L 600.372677 297.386587 
L 602.177597 299.113394 
L 604.433747 300.979441 
L 606.689897 302.504313 
L 608.494817 303.512459 
L 610.750966 304.522718 
L 613.007116 305.294552 
L 615.714496 305.987242 
L 618.873106 306.497463 
L 622.482945 306.794576 
L 626.092785 306.853485 
L 630.605085 306.683438 
L 636.471074 306.460341 
L 636.471074 306.460341 
" style="fill:none;stroke:#1f77b4;stroke-linecap:square;stroke-width:1.5;"/>
   </g>
   <g id="line2d_11">
    <path clip-path="url(#p41443ed3a3)" d="M 446.570621 302.508 
L 575.772326 302.508 
" style="fill:none;stroke:#000000;stroke-width:3;"/>
   </g>
   <g id="patch_5">
    <path d="M 394.363636 320.4 
L 648 320.4 
" style="fill:none;stroke:#808080;stroke-linecap:square;stroke-linejoin:miter;stroke-width:0.8;"/>
   </g>
   <g id="text_13">
    <!-- -0.94  -->
    <g transform="translate(402.993278 289.278)scale(0.15 -0.15)">
     <use xlink:href="#DejaVuSans-45"/>
     <use x="36.083984" xlink:href="#DejaVuSans-48"/>
     <use x="99.707031" xlink:href="#DejaVuSans-46"/>
     <use x="131.494141" xlink:href="#DejaVuSans-57"/>
     <use x="195.117188" xlink:href="#DejaVuSans-52"/>
     <use x="258.740234" xlink:href="#DejaVuSans-32"/>
    </g>
   </g>
   <g id="text_14">
    <!--  0.89 -->
    <g transform="translate(575.772326 289.278)scale(0.15 -0.15)">
     <use xlink:href="#DejaVuSans-32"/>
     <use x="31.787109" xlink:href="#DejaVuSans-48"/>
     <use x="95.410156" xlink:href="#DejaVuSans-46"/>
     <use x="127.197266" xlink:href="#DejaVuSans-56"/>
     <use x="190.820312" xlink:href="#DejaVuSans-57"/>
    </g>
   </g>
   <g id="text_15">
    <!-- 94% HDI -->
    <g transform="translate(478.490223 228.42)scale(0.15 -0.15)">
     <use xlink:href="#DejaVuSans-57"/>
     <use x="63.623047" xlink:href="#DejaVuSans-52"/>
     <use x="127.246094" xlink:href="#DejaVuSans-37"/>
     <use x="222.265625" xlink:href="#DejaVuSans-32"/>
     <use x="254.052734" xlink:href="#DejaVuSans-72"/>
     <use x="329.248047" xlink:href="#DejaVuSans-68"/>
     <use x="406.25" xlink:href="#DejaVuSans-73"/>
    </g>
   </g>
   <g id="text_16">
    <!-- mean=-0.0024 -->
    <g transform="translate(456.185333 96.12)scale(0.15 -0.15)">
     <use xlink:href="#DejaVuSans-109"/>
     <use x="97.412109" xlink:href="#DejaVuSans-101"/>
     <use x="158.935547" xlink:href="#DejaVuSans-97"/>
     <use x="220.214844" xlink:href="#DejaVuSans-110"/>
     <use x="283.59375" xlink:href="#DejaVuSans-61"/>
     <use x="367.382812" xlink:href="#DejaVuSans-45"/>
     <use x="403.466797" xlink:href="#DejaVuSans-48"/>
     <use x="467.089844" xlink:href="#DejaVuSans-46"/>
     <use x="498.876953" xlink:href="#DejaVuSans-48"/>
     <use x="562.5" xlink:href="#DejaVuSans-48"/>
     <use x="626.123047" xlink:href="#DejaVuSans-50"/>
     <use x="689.746094" xlink:href="#DejaVuSans-52"/>
    </g>
   </g>
   <g id="text_17">
    <!-- b -->
    <g transform="translate(516.103068 37.2)scale(0.16 -0.16)">
     <defs>
      <path d="M 48.6875 27.296875 
Q 48.6875 37.203125 44.609375 42.84375 
Q 40.53125 48.484375 33.40625 48.484375 
Q 26.265625 48.484375 22.1875 42.84375 
Q 18.109375 37.203125 18.109375 27.296875 
Q 18.109375 17.390625 22.1875 11.75 
Q 26.265625 6.109375 33.40625 6.109375 
Q 40.53125 6.109375 44.609375 11.75 
Q 48.6875 17.390625 48.6875 27.296875 
z
M 18.109375 46.390625 
Q 20.953125 51.265625 25.265625 53.625 
Q 29.59375 56 35.59375 56 
Q 45.5625 56 51.78125 48.09375 
Q 58.015625 40.1875 58.015625 27.296875 
Q 58.015625 14.40625 51.78125 6.484375 
Q 45.5625 -1.421875 35.59375 -1.421875 
Q 29.59375 -1.421875 25.265625 0.953125 
Q 20.953125 3.328125 18.109375 8.203125 
L 18.109375 0 
L 9.078125 0 
L 9.078125 75.984375 
L 18.109375 75.984375 
z
" id="DejaVuSans-98"/>
     </defs>
     <use xlink:href="#DejaVuSans-98"/>
    </g>
   </g>
  </g>
 </g>
 <defs>
  <clipPath id="p4395c5761a">
   <rect height="277.2" width="253.636364" x="90" y="43.2"/>
  </clipPath>
  <clipPath id="p41443ed3a3">
   <rect height="277.2" width="253.636364" x="394.363636" y="43.2"/>
  </clipPath>
 </defs>
</svg>
