<?xml version="1.0" encoding="utf-8" standalone="no"?>
<!DOCTYPE svg PUBLIC "-//W3C//DTD SVG 1.1//EN"
  "http://www.w3.org/Graphics/SVG/1.1/DTD/svg11.dtd">
<!-- Created with matplotlib (https://matplotlib.org/) -->
<svg height="504pt" version="1.1" viewBox="0 0 504 504" width="504pt" xmlns="http://www.w3.org/2000/svg" xmlns:xlink="http://www.w3.org/1999/xlink">
 <metadata>
  <rdf:RDF xmlns:cc="http://creativecommons.org/ns#" xmlns:dc="http://purl.org/dc/elements/1.1/" xmlns:rdf="http://www.w3.org/1999/02/22-rdf-syntax-ns#">
   <cc:Work>
    <dc:type rdf:resource="http://purl.org/dc/dcmitype/StillImage"/>
    <dc:date>2020-12-26T11:18:18.627666</dc:date>
    <dc:format>image/svg+xml</dc:format>
    <dc:creator>
     <cc:Agent>
      <dc:title>Matplotlib v3.3.3, https://matplotlib.org/</dc:title>
     </cc:Agent>
    </dc:creator>
   </cc:Work>
  </rdf:RDF>
 </metadata>
 <defs>
  <style type="text/css">*{stroke-linecap:butt;stroke-linejoin:round;}</style>
 </defs>
 <g id="figure_1">
  <g id="patch_1">
   <path d="M 0 504 
L 504 504 
L 504 0 
L 0 0 
z
" style="fill:#ffffff;"/>
  </g>
  <g id="axes_1">
   <g id="patch_2">
    <path d="M 63 448.56 
L 453.6 448.56 
L 453.6 60.48 
L 63 60.48 
z
" style="fill:#ffffff;"/>
   </g>
   <g id="PolyCollection_1">
    <path clip-path="url(#p5d37ee4fce)" d="M 128.1 352.459755 
L 128.1 516.826107 
L 128.752305 516.129457 
L 129.404609 515.50596 
L 130.056914 514.968184 
L 130.709218 514.036515 
L 131.361523 513.367304 
L 132.013828 513.194285 
L 132.666132 512.586182 
L 133.318437 511.801487 
L 133.970741 510.968686 
L 134.623046 510.512537 
L 135.275351 509.865757 
L 135.927655 509.242124 
L 136.57996 508.664616 
L 137.232265 507.545442 
L 137.884569 505.875798 
L 138.536874 505.094396 
L 139.189178 504.472059 
L 139.841483 503.912829 
L 140.493788 503.61969 
L 141.146092 502.791622 
L 141.798397 502.069934 
L 142.450701 501.292185 
L 143.103006 503.143776 
L 143.755311 502.273236 
L 144.407615 500.484441 
L 145.05992 499.723275 
L 145.712224 498.960474 
L 146.364529 498.269836 
L 147.016834 497.568598 
L 147.669138 496.734846 
L 148.321443 496.114548 
L 148.973747 495.156717 
L 149.626052 494.7445 
L 150.278357 494.128041 
L 150.930661 493.615656 
L 151.582966 493.138967 
L 152.235271 492.64563 
L 152.887575 492.182765 
L 153.53988 491.288378 
L 154.192184 490.486924 
L 154.844489 489.915028 
L 155.496794 490.324852 
L 156.149098 488.864912 
L 156.801403 488.33865 
L 157.453707 486.553041 
L 158.106012 486.071121 
L 158.758317 485.16493 
L 159.410621 484.327338 
L 160.062926 483.658726 
L 160.71523 482.988904 
L 161.367535 480.162362 
L 162.01984 479.389322 
L 162.672144 478.574488 
L 163.324449 477.757986 
L 163.976754 476.766869 
L 164.629058 476.127497 
L 165.281363 475.381408 
L 165.933667 474.502119 
L 166.585972 474.253229 
L 167.238277 473.33062 
L 167.890581 472.683549 
L 168.542886 472.096378 
L 169.19519 471.60477 
L 169.847495 470.823653 
L 170.4998 470.329296 
L 171.152104 469.311193 
L 171.804409 468.471278 
L 172.456713 467.684144 
L 173.109018 465.651252 
L 173.761323 464.95587 
L 174.413627 464.06265 
L 175.065932 463.615213 
L 175.718236 462.943193 
L 176.370541 462.21084 
L 177.022846 461.349176 
L 177.67515 460.633237 
L 178.327455 460.036229 
L 178.97976 459.416095 
L 179.632064 458.981652 
L 180.284369 458.207294 
L 180.936673 457.816349 
L 181.588978 456.970282 
L 182.241283 456.356411 
L 182.893587 455.748804 
L 183.545892 454.663002 
L 184.198196 454.107014 
L 184.850501 453.301253 
L 185.502806 452.591045 
L 186.15511 451.85464 
L 186.807415 450.804972 
L 187.459719 449.990688 
L 188.112024 449.144728 
L 188.764329 448.312301 
L 189.416633 447.53742 
L 190.068938 446.88239 
L 190.721242 446.234091 
L 191.373547 446.055677 
L 192.025852 445.176484 
L 192.678156 444.295629 
L 193.330461 443.53837 
L 193.982766 442.671456 
L 194.63507 440.751438 
L 195.287375 439.903686 
L 195.939679 439.167714 
L 196.591984 438.479083 
L 197.244289 437.695231 
L 197.896593 436.957141 
L 198.548898 436.293431 
L 199.201202 435.62461 
L 199.853507 434.9936 
L 200.505812 433.117969 
L 201.158116 434.025511 
L 201.810421 433.11753 
L 202.462725 432.459671 
L 203.11503 431.580321 
L 203.767335 431.186732 
L 204.419639 429.548181 
L 205.071944 428.791436 
L 205.724248 428.003336 
L 206.376553 427.573656 
L 207.028858 425.758869 
L 207.681162 424.871054 
L 208.333467 424.243032 
L 208.985772 424.037672 
L 209.638076 422.508499 
L 210.290381 422.14037 
L 210.942685 421.275506 
L 211.59499 420.670957 
L 212.247295 420.320016 
L 212.899599 419.637359 
L 213.551904 418.874881 
L 214.204208 418.150555 
L 214.856513 417.425055 
L 215.508818 416.730287 
L 216.161122 416.093361 
L 216.813427 415.455437 
L 217.465731 415.830402 
L 218.118036 414.176579 
L 218.770341 413.087421 
L 219.422645 412.452882 
L 220.07495 411.578506 
L 220.727255 411.113411 
L 221.379559 410.453318 
L 222.031864 406.777237 
L 222.684168 405.50229 
L 223.336473 405.028278 
L 223.988778 404.237593 
L 224.641082 403.510169 
L 225.293387 403.134006 
L 225.945691 402.668586 
L 226.597996 401.94191 
L 227.250301 401.163232 
L 227.902605 400.574241 
L 228.55491 400.002126 
L 229.207214 399.506411 
L 229.859519 399.535792 
L 230.511824 398.572077 
L 231.164128 397.645997 
L 231.816433 397.021026 
L 232.468737 396.036401 
L 233.121042 395.679893 
L 233.773347 395.082673 
L 234.425651 394.633573 
L 235.077956 394.340117 
L 235.730261 393.723224 
L 236.382565 393.099518 
L 237.03487 392.230898 
L 237.687174 390.665511 
L 238.339479 389.614563 
L 238.991784 388.399409 
L 239.644088 387.103342 
L 240.296393 386.268806 
L 240.948697 385.633369 
L 241.601002 385.066873 
L 242.253307 384.152914 
L 242.905611 383.237484 
L 243.557916 382.320585 
L 244.21022 381.422725 
L 244.862525 381.356016 
L 245.51483 379.651649 
L 246.167134 378.638335 
L 246.819439 377.838819 
L 247.471743 377.29312 
L 248.124048 376.811245 
L 248.776353 376.029623 
L 249.428657 375.254221 
L 250.080962 374.477572 
L 250.733267 375.210846 
L 251.385571 374.541981 
L 252.037876 374.123929 
L 252.69018 373.44216 
L 253.342485 372.759257 
L 253.99479 372.075216 
L 254.647094 371.230598 
L 255.299399 370.703705 
L 255.951703 369.823046 
L 256.604008 368.805068 
L 257.256313 368.098149 
L 257.908617 368.711915 
L 258.560922 367.907469 
L 259.213226 367.313451 
L 259.865531 366.749966 
L 260.517836 367.2004 
L 261.17014 365.864745 
L 261.822445 360.384295 
L 262.474749 363.257605 
L 263.127054 365.203091 
L 263.779359 364.442975 
L 264.431663 363.937985 
L 265.083968 363.299533 
L 265.736273 362.424137 
L 266.388577 361.801003 
L 267.040882 360.957751 
L 267.693186 360.103374 
L 268.345491 359.379604 
L 268.997796 356.189948 
L 269.6501 355.327302 
L 270.302405 357.707271 
L 270.954709 356.797259 
L 271.607014 356.205496 
L 272.259319 355.471327 
L 272.911623 354.199428 
L 273.563928 353.229152 
L 274.216232 352.332306 
L 274.868537 352.056637 
L 275.520842 351.471732 
L 276.173146 350.879641 
L 276.825451 348.656095 
L 277.477756 347.657458 
L 278.13006 347.120537 
L 278.782365 345.193776 
L 279.434669 344.671864 
L 280.086974 343.918424 
L 280.739279 344.53309 
L 281.391583 343.520187 
L 282.043888 342.822863 
L 282.696192 342.021129 
L 283.348497 341.285949 
L 284.000802 340.545912 
L 284.653106 339.607218 
L 285.305411 338.870194 
L 285.957715 338.4959 
L 286.61002 337.731431 
L 287.262325 337.336135 
L 287.914629 336.479087 
L 288.566934 335.685977 
L 289.219238 335.04531 
L 289.871543 334.448133 
L 290.523848 333.804026 
L 291.176152 333.304925 
L 291.828457 332.628903 
L 292.480762 332.039667 
L 293.133066 331.1739 
L 293.785371 330.191124 
L 294.437675 329.329672 
L 295.08998 329.22022 
L 295.742285 328.121509 
L 296.394589 323.630322 
L 297.046894 322.954569 
L 297.699198 322.369334 
L 298.351503 321.768921 
L 299.003808 320.945309 
L 299.656112 322.932125 
L 300.308417 321.731536 
L 300.960721 321.160827 
L 301.613026 319.48546 
L 302.265331 319.387561 
L 302.917635 318.610198 
L 303.56994 322.193193 
L 304.222244 320.138943 
L 304.874549 319.558279 
L 305.526854 318.889806 
L 306.179158 318.561887 
L 306.831463 317.661854 
L 307.483768 317.014602 
L 308.136072 315.935903 
L 308.788377 314.575713 
L 309.440681 314.118286 
L 310.092986 313.24783 
L 310.745291 310.098059 
L 311.397595 309.285636 
L 312.0499 308.891843 
L 312.702204 307.978105 
L 313.354509 307.224134 
L 314.006814 306.25792 
L 314.659118 304.625572 
L 315.311423 304.530703 
L 315.963727 303.342028 
L 316.616032 302.62135 
L 317.268337 303.274378 
L 317.920641 302.441112 
L 318.572946 301.863829 
L 319.225251 300.884249 
L 319.877555 300.248689 
L 320.52986 299.512269 
L 321.182164 297.819576 
L 321.834469 297.040938 
L 322.486774 296.408244 
L 323.139078 295.852317 
L 323.791383 295.523177 
L 324.443687 295.041166 
L 325.095992 292.727514 
L 325.748297 291.67504 
L 326.400601 290.896425 
L 327.052906 295.469263 
L 327.70521 294.512284 
L 328.357515 293.133584 
L 329.00982 292.575502 
L 329.662124 292.031359 
L 330.314429 291.0591 
L 330.966733 290.536976 
L 331.619038 289.786841 
L 332.271343 289.188702 
L 332.923647 282.006103 
L 333.575952 281.97782 
L 334.228257 281.008771 
L 334.880561 280.180938 
L 335.532866 279.651352 
L 336.18517 280.926591 
L 336.837475 280.261572 
L 337.48978 279.326173 
L 338.142084 277.557583 
L 338.794389 277.128262 
L 339.446693 276.16856 
L 340.098998 275.617029 
L 340.751303 274.936374 
L 341.403607 274.344488 
L 342.055912 274.353164 
L 342.708216 273.155004 
L 343.360521 268.629362 
L 344.012826 267.916334 
L 344.66513 272.851491 
L 345.317435 272.225283 
L 345.969739 272.639658 
L 346.622044 270.36991 
L 347.274349 271.058198 
L 347.926653 270.349012 
L 348.578958 269.542156 
L 349.231263 268.732878 
L 349.883567 268.644712 
L 350.535872 266.649911 
L 351.188176 266.830875 
L 351.840481 265.725663 
L 352.492786 265.032441 
L 353.14509 263.961354 
L 353.797395 263.400182 
L 354.449699 262.335966 
L 355.102004 261.364584 
L 355.754309 260.616519 
L 356.406613 259.52885 
L 357.058918 258.604998 
L 357.711222 258.307343 
L 358.363527 255.843464 
L 359.015832 256.62394 
L 359.668136 254.131621 
L 360.320441 253.422891 
L 360.972745 252.69733 
L 361.62505 253.609653 
L 362.277355 251.522989 
L 362.929659 251.85223 
L 363.581964 250.989686 
L 364.234269 250.124168 
L 364.886573 249.347628 
L 365.538878 248.525682 
L 366.191182 248.033718 
L 366.843487 247.548488 
L 367.495792 240.938561 
L 368.148096 239.660893 
L 368.800401 238.835836 
L 369.452705 238.37435 
L 370.10501 237.411543 
L 370.757315 236.291175 
L 371.409619 235.262262 
L 372.061924 234.537699 
L 372.714228 233.842084 
L 373.366533 233.079831 
L 374.018838 232.139181 
L 374.671142 231.356828 
L 375.323447 230.571194 
L 375.975752 230.124623 
L 376.628056 229.219962 
L 377.280361 228.627599 
L 377.932665 227.874021 
L 378.58497 227.980461 
L 379.237275 226.90948 
L 379.889579 226.009684 
L 380.541884 224.908867 
L 381.194188 224.205856 
L 381.846493 223.54939 
L 382.498798 222.500106 
L 383.151102 221.795793 
L 383.803407 222.218624 
L 384.455711 221.262892 
L 385.108016 220.325032 
L 385.760321 219.013257 
L 386.412625 218.072206 
L 387.06493 217.215381 
L 387.717234 216.341103 
L 388.369539 215.416369 
L 389.021844 214.496683 
L 389.674148 213.673332 
L 390.326453 212.845542 
L 390.978758 211.780556 
L 391.631062 210.932719 
L 392.283367 210.637373 
L 392.935671 209.531618 
L 393.587976 208.751435 
L 394.240281 208.082793 
L 394.892585 207.824674 
L 395.54489 206.830287 
L 396.197194 205.507696 
L 396.849499 204.674894 
L 397.501804 203.870381 
L 398.154108 203.060616 
L 398.806413 202.245504 
L 399.458717 201.430534 
L 400.111022 200.628616 
L 400.763327 199.791261 
L 401.415631 196.828757 
L 402.067936 196.021841 
L 402.72024 196.958834 
L 403.372545 194.165021 
L 404.02485 193.240378 
L 404.677154 192.026847 
L 405.329459 191.16356 
L 405.981764 190.129543 
L 406.634068 188.506422 
L 407.286373 187.819128 
L 407.938677 186.809651 
L 408.590982 185.950974 
L 409.243287 184.908301 
L 409.895591 184.230497 
L 410.547896 181.440184 
L 411.2002 181.248669 
L 411.852505 178.368669 
L 412.50481 177.146779 
L 413.157114 176.077292 
L 413.809419 174.917974 
L 414.461723 173.993529 
L 415.114028 173.12224 
L 415.766333 172.811619 
L 416.418637 171.672862 
L 417.070942 169.546619 
L 417.723246 168.431656 
L 418.375551 167.386191 
L 419.027856 166.330662 
L 419.68016 165.164744 
L 420.332465 164.188284 
L 420.98477 163.331653 
L 421.637074 162.044875 
L 422.289379 161.150372 
L 422.941683 159.968012 
L 423.593988 158.715497 
L 424.246293 157.487661 
L 424.898597 156.327227 
L 425.550902 154.879562 
L 426.203206 153.667649 
L 426.855511 152.445416 
L 427.507816 151.365974 
L 428.16012 150.033031 
L 428.812425 148.758828 
L 429.464729 147.401004 
L 430.117034 145.777981 
L 430.769339 144.28353 
L 431.421643 143.039216 
L 432.073948 141.80571 
L 432.726253 140.552085 
L 433.378557 139.277396 
L 434.030862 137.67889 
L 434.683166 136.312221 
L 435.335471 134.921162 
L 435.987776 133.458746 
L 436.64008 131.9122 
L 437.292385 129.644128 
L 437.944689 128.293316 
L 438.596994 126.387476 
L 439.249299 124.766487 
L 439.901603 123.116979 
L 440.553908 121.45134 
L 441.206212 119.440556 
L 441.858517 117.804273 
L 442.510822 115.958785 
L 443.163126 113.725668 
L 443.815431 111.844404 
L 444.467735 109.593241 
L 445.12004 107.665708 
L 445.772345 105.864443 
L 446.424649 103.663487 
L 447.076954 101.376762 
L 447.729259 98.703168 
L 448.381563 96.058345 
L 449.033868 93.332014 
L 449.686172 90.418193 
L 450.338477 87.401444 
L 450.990782 84.085342 
L 451.643086 80.43589 
L 452.295391 76.10227 
L 452.947695 70.775543 
L 452.947695 60.4834 
L 452.947695 60.4834 
L 452.295391 60.49251 
L 451.643086 60.506823 
L 450.990782 60.526108 
L 450.338477 60.550216 
L 449.686172 60.579044 
L 449.033868 60.612514 
L 448.381563 60.650563 
L 447.729259 60.713288 
L 447.076954 61.097581 
L 446.424649 61.25894 
L 445.772345 61.33224 
L 445.12004 61.158177 
L 444.467735 61.256376 
L 443.815431 61.637065 
L 443.163126 61.774865 
L 442.510822 62.209136 
L 441.858517 62.375788 
L 441.206212 62.317186 
L 440.553908 62.616138 
L 439.901603 62.691463 
L 439.249299 62.839624 
L 438.596994 63.025943 
L 437.944689 63.477761 
L 437.292385 63.461103 
L 436.64008 64.439712 
L 435.987776 64.682437 
L 435.335471 64.969264 
L 434.683166 65.184031 
L 434.030862 65.461639 
L 433.378557 65.915935 
L 432.726253 66.095867 
L 432.073948 66.377109 
L 431.421643 66.624453 
L 430.769339 66.813633 
L 430.117034 67.10288 
L 429.464729 67.527009 
L 428.812425 67.838656 
L 428.16012 68.15563 
L 427.507816 68.477891 
L 426.855511 68.793568 
L 426.203206 69.11053 
L 425.550902 69.461357 
L 424.898597 70.020446 
L 424.246293 70.358219 
L 423.593988 70.692785 
L 422.941683 71.031302 
L 422.289379 71.373737 
L 421.637074 71.449964 
L 420.98477 71.983555 
L 420.332465 72.010362 
L 419.68016 72.347641 
L 419.027856 72.798549 
L 418.375551 73.246339 
L 417.723246 73.617793 
L 417.070942 73.993249 
L 416.418637 75.365246 
L 415.766333 75.849462 
L 415.114028 75.561504 
L 414.461723 75.932076 
L 413.809419 76.34477 
L 413.157114 76.76168 
L 412.50481 77.084201 
L 411.852505 77.490409 
L 411.2002 79.739571 
L 410.547896 79.295402 
L 409.895591 81.538785 
L 409.243287 81.74635 
L 408.590982 82.276434 
L 407.938677 82.777863 
L 407.286373 83.229187 
L 406.634068 83.366287 
L 405.981764 84.636727 
L 405.329459 85.291027 
L 404.677154 85.627949 
L 404.02485 86.225621 
L 403.372545 86.6924 
L 402.72024 89.032602 
L 402.067936 87.773365 
L 401.415631 88.403203 
L 400.763327 90.855867 
L 400.111022 91.387729 
L 399.458717 91.899214 
L 398.806413 92.280317 
L 398.154108 92.76605 
L 397.501804 93.347918 
L 396.849499 93.707387 
L 396.197194 94.239541 
L 395.54489 95.188681 
L 394.892585 95.792111 
L 394.240281 95.850872 
L 393.587976 96.392889 
L 392.935671 96.937336 
L 392.283367 97.610229 
L 391.631062 97.640937 
L 390.978758 98.272017 
L 390.326453 99.139127 
L 389.674148 99.511358 
L 389.021844 100.011221 
L 388.369539 100.596609 
L 387.717234 101.144297 
L 387.06493 101.685158 
L 386.412625 102.369518 
L 385.760321 102.96602 
L 385.108016 103.998856 
L 384.455711 104.853483 
L 383.803407 105.413512 
L 383.151102 104.807295 
L 382.498798 105.429067 
L 381.846493 106.359686 
L 381.194188 106.936156 
L 380.541884 107.392359 
L 379.889579 108.315518 
L 379.237275 108.907916 
L 378.58497 109.705395 
L 377.932665 109.383021 
L 377.280361 110.014716 
L 376.628056 110.522912 
L 375.975752 111.196195 
L 375.323447 111.462355 
L 374.671142 112.164031 
L 374.018838 112.84819 
L 373.366533 113.578565 
L 372.714228 114.291391 
L 372.061924 114.939102 
L 371.409619 115.593147 
L 370.757315 116.317252 
L 370.10501 117.140481 
L 369.452705 117.804043 
L 368.800401 117.972523 
L 368.148096 118.571652 
L 367.495792 119.810112 
L 366.843487 126.468531 
L 366.191182 126.992925 
L 365.538878 127.613334 
L 364.886573 128.340235 
L 364.234269 129.069524 
L 363.581964 129.801186 
L 362.929659 130.535207 
L 362.277355 130.079314 
L 361.62505 132.10624 
L 360.972745 131.178082 
L 360.320441 131.996248 
L 359.668136 132.524938 
L 359.015832 134.748531 
L 358.363527 133.921604 
L 357.711222 136.177434 
L 357.058918 136.395238 
L 356.406613 137.244706 
L 355.754309 138.226364 
L 355.102004 138.912259 
L 354.449699 139.910928 
L 353.797395 140.799212 
L 353.14509 141.479997 
L 352.492786 142.475405 
L 351.840481 143.223875 
L 351.188176 144.096166 
L 350.535872 143.753507 
L 349.883567 145.683544 
L 349.231263 145.909457 
L 348.578958 146.711336 
L 347.926653 147.515515 
L 347.274349 148.160066 
L 346.622044 147.394621 
L 345.969739 149.582605 
L 345.317435 149.298407 
L 344.66513 149.944327 
L 344.012826 144.98748 
L 343.360521 145.661103 
L 342.708216 150.057567 
L 342.055912 151.406278 
L 341.403607 151.529858 
L 340.751303 152.376498 
L 340.098998 153.147422 
L 339.446693 153.663195 
L 338.794389 154.626435 
L 338.142084 155.092085 
L 337.48978 156.647392 
L 336.837475 157.702624 
L 336.18517 158.373864 
L 335.532866 157.14953 
L 334.880561 157.850725 
L 334.228257 158.54908 
L 333.575952 159.469946 
L 332.923647 159.505971 
L 332.271343 166.921326 
L 331.619038 167.586784 
L 330.966733 168.35338 
L 330.314429 168.859527 
L 329.662124 169.793794 
L 329.00982 170.507585 
L 328.357515 171.165675 
L 327.70521 172.572786 
L 327.052906 173.41143 
L 326.400601 168.988032 
L 325.748297 169.677502 
L 325.095992 170.774255 
L 324.443687 173.069378 
L 323.791383 173.658024 
L 323.139078 174.132867 
L 322.486774 174.852113 
L 321.834469 175.571773 
L 321.182164 176.381369 
L 320.52986 178.125977 
L 319.877555 178.948342 
L 319.225251 179.537798 
L 318.572946 180.439971 
L 317.920641 181.179408 
L 317.268337 182.109343 
L 316.616032 181.478621 
L 315.963727 182.213771 
L 315.311423 183.182817 
L 314.659118 183.283801 
L 314.006814 185.040538 
L 313.354509 185.91652 
L 312.702204 186.607287 
L 312.0499 187.518578 
L 311.397595 188.029858 
L 310.745291 188.71147 
L 310.092986 191.857519 
L 309.440681 192.863243 
L 308.788377 193.314993 
L 308.136072 194.687273 
L 307.483768 195.938752 
L 306.831463 196.66217 
L 306.179158 197.448247 
L 305.526854 197.684735 
L 304.874549 198.235032 
L 304.222244 198.513401 
L 303.56994 200.407582 
L 302.917635 196.820894 
L 302.265331 197.587007 
L 301.613026 197.614771 
L 300.960721 199.321625 
L 300.308417 200.00129 
L 299.656112 201.089415 
L 299.003808 199.108266 
L 298.351503 200.027587 
L 297.699198 200.669449 
L 297.046894 201.204308 
L 296.394589 201.816655 
L 295.742285 206.253282 
L 295.08998 207.40906 
L 294.437675 207.720583 
L 293.785371 208.570785 
L 293.133066 209.64207 
L 292.480762 210.589745 
L 291.828457 211.142246 
L 291.176152 211.934298 
L 290.523848 212.383216 
L 289.871543 213.117135 
L 289.219238 213.982674 
L 288.566934 214.758486 
L 287.914629 215.466394 
L 287.262325 216.138263 
L 286.61002 216.23359 
L 285.957715 217.08523 
L 285.305411 217.400871 
L 284.653106 218.104074 
L 284.000802 218.953649 
L 283.348497 219.836645 
L 282.696192 220.472534 
L 282.043888 221.017383 
L 281.391583 221.56214 
L 280.739279 222.367152 
L 280.086974 221.936188 
L 279.434669 222.61159 
L 278.782365 223.013142 
L 278.13006 224.953618 
L 277.477756 225.511413 
L 276.825451 226.299674 
L 276.173146 228.521282 
L 275.520842 229.386007 
L 274.868537 230.07867 
L 274.216232 230.448403 
L 273.563928 231.24217 
L 272.911623 232.072826 
L 272.259319 232.976669 
L 271.607014 233.653932 
L 270.954709 234.33139 
L 270.302405 235.152722 
L 269.6501 232.731856 
L 268.997796 233.631065 
L 268.345491 236.695003 
L 267.693186 237.24712 
L 267.040882 238.150839 
L 266.388577 238.764772 
L 265.736273 239.361937 
L 265.083968 240.150888 
L 264.431663 240.849761 
L 263.779359 241.220847 
L 263.127054 241.75632 
L 262.474749 239.787252 
L 261.822445 236.670673 
L 261.17014 242.073466 
L 260.517836 243.240964 
L 259.865531 242.789216 
L 259.213226 243.462741 
L 258.560922 244.100053 
L 257.908617 244.737481 
L 257.256313 244.11252 
L 256.604008 244.687018 
L 255.951703 245.719896 
L 255.299399 246.63498 
L 254.647094 247.255132 
L 253.99479 247.976418 
L 253.342485 248.49569 
L 252.69018 248.979127 
L 252.037876 249.428943 
L 251.385571 249.602963 
L 250.733267 250.290528 
L 250.080962 249.365491 
L 249.428657 250.125506 
L 248.776353 250.836175 
L 248.124048 251.698839 
L 247.471743 252.212124 
L 246.819439 252.410131 
L 246.167134 253.20307 
L 245.51483 253.917938 
L 244.862525 255.402776 
L 244.21022 255.409156 
L 243.557916 256.178587 
L 242.905611 256.982179 
L 242.253307 257.739277 
L 241.601002 258.602738 
L 240.948697 259.254725 
L 240.296393 259.954329 
L 239.644088 260.418076 
L 238.991784 261.406908 
L 238.339479 262.596739 
L 237.687174 263.408902 
L 237.03487 264.983998 
L 236.382565 265.646923 
L 235.730261 266.159637 
L 235.077956 266.623105 
L 234.425651 266.815474 
L 233.773347 267.191066 
L 233.121042 267.93275 
L 232.468737 268.391826 
L 231.816433 269.230747 
L 231.164128 269.74647 
L 230.511824 270.796184 
L 229.859519 271.397603 
L 229.207214 271.238512 
L 228.55491 271.794544 
L 227.902605 272.306404 
L 227.250301 272.818205 
L 226.597996 273.457854 
L 225.945691 273.962476 
L 225.293387 274.335599 
L 224.641082 274.731075 
L 223.988778 275.37637 
L 223.336473 275.808186 
L 222.684168 275.896636 
L 222.031864 276.988938 
L 221.379559 280.554355 
L 220.727255 281.129848 
L 220.07495 281.543729 
L 219.422645 282.258387 
L 218.770341 282.766104 
L 218.118036 283.824107 
L 217.465731 285.568442 
L 216.813427 285.120396 
L 216.161122 285.74827 
L 215.508818 286.336587 
L 214.856513 287.00385 
L 214.204208 287.631759 
L 213.551904 288.25975 
L 212.899599 288.885589 
L 212.247295 289.515972 
L 211.59499 289.799128 
L 210.942685 290.326211 
L 210.290381 290.953455 
L 209.638076 291.115185 
L 208.985772 292.519987 
L 208.333467 292.529246 
L 207.681162 293.03389 
L 207.028858 293.670388 
L 206.376553 295.144261 
L 205.724248 295.428697 
L 205.071944 296.00436 
L 204.419639 296.294019 
L 203.767335 297.621897 
L 203.11503 297.665331 
L 202.462725 298.307254 
L 201.810421 298.699639 
L 201.158116 299.216752 
L 200.505812 298.036828 
L 199.853507 299.666633 
L 199.201202 300.260275 
L 198.548898 300.801882 
L 197.896593 301.334791 
L 197.244289 301.885115 
L 196.591984 302.426744 
L 195.939679 302.925769 
L 195.287375 303.367297 
L 194.63507 303.808763 
L 193.982766 305.321567 
L 193.330461 305.950387 
L 192.678156 306.544185 
L 192.025852 307.026007 
L 191.373547 307.507797 
L 190.721242 307.302005 
L 190.068938 307.843792 
L 189.416633 308.385601 
L 188.764329 308.927434 
L 188.112024 309.528961 
L 187.459719 310.072703 
L 186.807415 310.4338 
L 186.15511 311.095034 
L 185.502806 311.623479 
L 184.850501 312.140425 
L 184.198196 312.721049 
L 183.545892 312.97318 
L 182.893587 313.768873 
L 182.241283 314.208355 
L 181.588978 314.605328 
L 180.936673 314.970223 
L 180.284369 315.036553 
L 179.632064 315.659853 
L 178.97976 315.861626 
L 178.327455 316.274111 
L 177.67515 316.593401 
L 177.022846 317.09899 
L 176.370541 317.511388 
L 175.718236 317.887398 
L 175.065932 318.251827 
L 174.413627 318.297155 
L 173.761323 318.980564 
L 173.109018 319.344876 
L 172.456713 321.129111 
L 171.804409 321.535931 
L 171.152104 322.013953 
L 170.4998 322.664259 
L 169.847495 322.824108 
L 169.19519 323.461132 
L 168.542886 323.642677 
L 167.890581 324.221435 
L 167.238277 324.485178 
L 166.585972 325.048288 
L 165.933667 324.966606 
L 165.281363 325.783029 
L 164.629058 326.271235 
L 163.976754 326.589768 
L 163.324449 327.300983 
L 162.672144 327.850818 
L 162.01984 328.287699 
L 161.367535 328.644921 
L 160.71523 331.289071 
L 160.062926 331.807549 
L 159.410621 332.326096 
L 158.758317 332.823655 
L 158.106012 333.363401 
L 157.453707 333.641435 
L 156.801403 335.266683 
L 156.149098 335.499528 
L 155.496794 336.764442 
L 154.844489 336.224178 
L 154.192184 336.772207 
L 153.53988 337.414714 
L 152.887575 338.231975 
L 152.235271 338.454933 
L 151.582966 338.887722 
L 150.930661 339.23062 
L 150.278357 339.583861 
L 149.626052 339.895972 
L 148.973747 340.17694 
L 148.321443 340.859066 
L 147.669138 341.319683 
L 147.016834 341.753424 
L 146.364529 342.124317 
L 145.712224 342.495238 
L 145.05992 342.866189 
L 144.407615 343.237171 
L 143.755311 344.690531 
L 143.103006 345.092366 
L 142.450701 342.887953 
L 141.798397 343.409898 
L 141.146092 343.874019 
L 140.493788 344.26644 
L 139.841483 344.215976 
L 139.189178 344.678718 
L 138.536874 345.14156 
L 137.884569 345.515897 
L 137.232265 346.710011 
L 136.57996 347.553399 
L 135.927655 347.872188 
L 135.275351 348.348434 
L 134.623046 348.807112 
L 133.970741 349.063281 
L 133.318437 349.542839 
L 132.666132 349.92261 
L 132.013828 350.29458 
L 131.361523 350.239919 
L 130.709218 350.704098 
L 130.056914 351.385131 
L 129.404609 351.743264 
L 128.752305 352.097383 
L 128.1 352.459755 
z
" style="fill:#1f77b4;"/>
   </g>
   <g id="PolyCollection_2">
    <path clip-path="url(#p5d37ee4fce)" d="M 128.1 413.551007 
L 128.1 473.100726 
L 128.752305 474.851449 
L 129.404609 474.489829 
L 130.056914 473.680182 
L 130.709218 473.134659 
L 131.361523 472.455765 
L 132.013828 471.793214 
L 132.666132 469.987984 
L 133.318437 469.688083 
L 133.970741 469.174843 
L 134.623046 468.340005 
L 135.275351 467.62147 
L 135.927655 466.848583 
L 136.57996 466.015079 
L 137.232265 465.16413 
L 137.884569 465.249674 
L 138.536874 464.009033 
L 139.189178 463.561499 
L 139.841483 462.771766 
L 140.493788 462.065832 
L 141.146092 461.290152 
L 141.798397 459.184641 
L 142.450701 458.46152 
L 143.103006 458.354802 
L 143.755311 457.605688 
L 144.407615 456.212234 
L 145.05992 456.028993 
L 145.712224 455.927498 
L 146.364529 455.139447 
L 147.016834 454.529652 
L 147.669138 453.853571 
L 148.321443 453.34036 
L 148.973747 452.573549 
L 149.626052 451.861848 
L 150.278357 450.974739 
L 150.930661 450.609828 
L 151.582966 449.573036 
L 152.235271 448.805896 
L 152.887575 446.745401 
L 153.53988 446.169397 
L 154.192184 446.32596 
L 154.844489 444.716242 
L 155.496794 444.727586 
L 156.149098 444.084386 
L 156.801403 442.557912 
L 157.453707 441.636132 
L 158.106012 441.18026 
L 158.758317 440.561455 
L 159.410621 440.121938 
L 160.062926 439.511066 
L 160.71523 439.362118 
L 161.367535 438.64554 
L 162.01984 438.074761 
L 162.672144 437.359133 
L 163.324449 436.760835 
L 163.976754 435.23153 
L 164.629058 434.594426 
L 165.281363 432.084044 
L 165.933667 431.173314 
L 166.585972 434.907442 
L 167.238277 434.360698 
L 167.890581 429.656028 
L 168.542886 428.979828 
L 169.19519 428.253007 
L 169.847495 430.991401 
L 170.4998 430.195036 
L 171.152104 429.873731 
L 171.804409 428.987439 
L 172.456713 428.47039 
L 173.109018 427.810396 
L 173.761323 427.140464 
L 174.413627 427.840748 
L 175.065932 427.140809 
L 175.718236 425.38045 
L 176.370541 424.880532 
L 177.022846 424.246259 
L 177.67515 423.693558 
L 178.327455 423.180866 
L 178.97976 422.53876 
L 179.632064 421.609128 
L 180.284369 417.449983 
L 180.936673 416.69073 
L 181.588978 415.995525 
L 182.241283 415.518772 
L 182.893587 414.750422 
L 183.545892 414.213159 
L 184.198196 413.559286 
L 184.850501 412.85717 
L 185.502806 412.243066 
L 186.15511 411.502874 
L 186.807415 406.818965 
L 187.459719 406.712806 
L 188.112024 405.671826 
L 188.764329 405.085154 
L 189.416633 404.983818 
L 190.068938 404.240516 
L 190.721242 403.499325 
L 191.373547 402.923761 
L 192.025852 402.113487 
L 192.678156 401.404137 
L 193.330461 400.782059 
L 193.982766 400.014421 
L 194.63507 396.638244 
L 195.287375 395.770299 
L 195.939679 394.975567 
L 196.591984 394.325314 
L 197.244289 396.080763 
L 197.896593 395.298523 
L 198.548898 394.787003 
L 199.201202 391.113076 
L 199.853507 390.345579 
L 200.505812 389.588892 
L 201.158116 388.982909 
L 201.810421 390.124659 
L 202.462725 386.84114 
L 203.11503 389.440479 
L 203.767335 384.571193 
L 204.419639 388.650194 
L 205.071944 387.597574 
L 205.724248 386.944524 
L 206.376553 386.214043 
L 207.028858 385.454209 
L 207.681162 384.483476 
L 208.333467 380.393934 
L 208.985772 379.672387 
L 209.638076 378.970448 
L 210.290381 377.610339 
L 210.942685 376.920005 
L 211.59499 376.270723 
L 212.247295 375.606889 
L 212.899599 376.271835 
L 213.551904 375.5479 
L 214.204208 374.897401 
L 214.856513 374.219414 
L 215.508818 373.544881 
L 216.161122 374.152302 
L 216.813427 373.44952 
L 217.465731 372.830232 
L 218.118036 372.399916 
L 218.770341 371.581205 
L 219.422645 370.957404 
L 220.07495 370.419388 
L 220.727255 369.496731 
L 221.379559 369.506504 
L 222.031864 368.524718 
L 222.684168 367.514848 
L 223.336473 368.076018 
L 223.988778 367.431476 
L 224.641082 365.052992 
L 225.293387 364.184933 
L 225.945691 363.365162 
L 226.597996 361.195691 
L 227.250301 363.566334 
L 227.902605 362.819446 
L 228.55491 362.72256 
L 229.207214 361.137423 
L 229.859519 360.59807 
L 230.511824 360.475152 
L 231.164128 354.21761 
L 231.816433 353.539456 
L 232.468737 352.192775 
L 233.121042 351.587022 
L 233.773347 350.833679 
L 234.425651 350.262903 
L 235.077956 349.636975 
L 235.730261 350.0214 
L 236.382565 349.744257 
L 237.03487 349.184573 
L 237.687174 348.349544 
L 238.339479 348.046387 
L 238.991784 347.13284 
L 239.644088 345.688969 
L 240.296393 346.320791 
L 240.948697 345.770072 
L 241.601002 345.020854 
L 242.253307 344.596654 
L 242.905611 343.613624 
L 243.557916 343.035408 
L 244.21022 342.245336 
L 244.862525 341.353649 
L 245.51483 341.778245 
L 246.167134 341.03394 
L 246.819439 340.25529 
L 247.471743 339.621732 
L 248.124048 338.795839 
L 248.776353 338.394463 
L 249.428657 337.547624 
L 250.080962 336.765142 
L 250.733267 336.237668 
L 251.385571 332.91425 
L 252.037876 331.675798 
L 252.69018 331.146889 
L 253.342485 330.410172 
L 253.99479 329.462598 
L 254.647094 328.40647 
L 255.299399 327.626011 
L 255.951703 329.588271 
L 256.604008 329.021277 
L 257.256313 326.099987 
L 257.908617 325.315485 
L 258.560922 324.556627 
L 259.213226 323.839354 
L 259.865531 324.226741 
L 260.517836 323.621707 
L 261.17014 323.164088 
L 261.822445 322.314714 
L 262.474749 321.50945 
L 263.127054 318.884302 
L 263.779359 317.893058 
L 264.431663 316.921092 
L 265.083968 316.38494 
L 265.736273 315.766572 
L 266.388577 315.970365 
L 267.040882 315.217058 
L 267.693186 314.511462 
L 268.345491 313.717306 
L 268.997796 313.15338 
L 269.6501 312.531907 
L 270.302405 311.758271 
L 270.954709 311.117128 
L 271.607014 311.438367 
L 272.259319 311.037647 
L 272.911623 310.09274 
L 273.563928 309.794998 
L 274.216232 310.344565 
L 274.868537 309.569483 
L 275.520842 308.883385 
L 276.173146 307.696993 
L 276.825451 306.554705 
L 277.477756 309.092495 
L 278.13006 308.113212 
L 278.782365 307.281687 
L 279.434669 305.224909 
L 280.086974 304.447899 
L 280.739279 303.873079 
L 281.391583 303.035057 
L 282.043888 302.194068 
L 282.696192 301.634474 
L 283.348497 300.811111 
L 284.000802 301.438252 
L 284.653106 298.973031 
L 285.305411 297.76679 
L 285.957715 298.584574 
L 286.61002 297.795664 
L 287.262325 297.342822 
L 287.914629 296.552297 
L 288.566934 295.948763 
L 289.219238 292.569159 
L 289.871543 294.202082 
L 290.523848 291.522708 
L 291.176152 290.73058 
L 291.828457 289.961806 
L 292.480762 290.169802 
L 293.133066 289.734747 
L 293.785371 288.958194 
L 294.437675 288.113709 
L 295.08998 287.182419 
L 295.742285 286.222773 
L 296.394589 285.504283 
L 297.046894 284.913387 
L 297.699198 284.101625 
L 298.351503 283.393866 
L 299.003808 282.56025 
L 299.656112 281.81426 
L 300.308417 281.169627 
L 300.960721 280.419743 
L 301.613026 279.621018 
L 302.265331 277.919932 
L 302.917635 277.080026 
L 303.56994 276.315885 
L 304.222244 275.527312 
L 304.874549 274.313932 
L 305.526854 273.455587 
L 306.179158 272.513532 
L 306.831463 272.12463 
L 307.483768 271.628305 
L 308.136072 270.783152 
L 308.788377 270.148704 
L 309.440681 269.690519 
L 310.092986 268.952273 
L 310.745291 268.239085 
L 311.397595 267.154031 
L 312.0499 266.206041 
L 312.702204 265.607673 
L 313.354509 264.497567 
L 314.006814 264.000569 
L 314.659118 263.929987 
L 315.311423 264.058313 
L 315.963727 264.298886 
L 316.616032 263.684711 
L 317.268337 262.983088 
L 317.920641 261.889388 
L 318.572946 261.166953 
L 319.225251 260.614129 
L 319.877555 256.364631 
L 320.52986 260.303924 
L 321.182164 254.276374 
L 321.834469 251.873059 
L 322.486774 251.402209 
L 323.139078 250.68723 
L 323.791383 249.971141 
L 324.443687 249.698126 
L 325.095992 248.418289 
L 325.748297 248.009836 
L 326.400601 248.209802 
L 327.052906 247.439639 
L 327.70521 245.773906 
L 328.357515 244.968109 
L 329.00982 244.318989 
L 329.662124 243.486497 
L 330.314429 242.229522 
L 330.966733 242.01897 
L 331.619038 241.656522 
L 332.271343 239.929174 
L 332.923647 239.899958 
L 333.575952 239.123 
L 334.228257 238.227891 
L 334.880561 237.350563 
L 335.532866 236.776833 
L 336.18517 236.023124 
L 336.837475 235.1348 
L 337.48978 233.812632 
L 338.142084 234.029916 
L 338.794389 233.542553 
L 339.446693 232.820859 
L 340.098998 234.614427 
L 340.751303 234.006562 
L 341.403607 230.484017 
L 342.055912 229.589709 
L 342.708216 231.569417 
L 343.360521 230.567793 
L 344.012826 229.724648 
L 344.66513 228.665281 
L 345.317435 227.973707 
L 345.969739 226.851554 
L 346.622044 226.565578 
L 347.274349 225.611639 
L 347.926653 224.307244 
L 348.578958 223.583896 
L 349.231263 222.757386 
L 349.883567 221.980279 
L 350.535872 221.836135 
L 351.188176 221.186947 
L 351.840481 219.708888 
L 352.492786 219.093205 
L 353.14509 218.294547 
L 353.797395 218.482145 
L 354.449699 216.498934 
L 355.102004 215.783819 
L 355.754309 214.690934 
L 356.406613 213.861689 
L 357.058918 213.333139 
L 357.711222 212.401772 
L 358.363527 212.271828 
L 359.015832 211.77537 
L 359.668136 211.017932 
L 360.320441 210.268547 
L 360.972745 209.381375 
L 361.62505 208.610447 
L 362.277355 207.866085 
L 362.929659 206.89277 
L 363.581964 206.127136 
L 364.234269 205.081245 
L 364.886573 204.555428 
L 365.538878 203.627045 
L 366.191182 202.887637 
L 366.843487 201.843968 
L 367.495792 200.936018 
L 368.148096 200.068991 
L 368.800401 199.746034 
L 369.452705 198.838348 
L 370.10501 198.13845 
L 370.757315 195.078863 
L 371.409619 193.093063 
L 372.061924 191.665931 
L 372.714228 187.16263 
L 373.366533 190.66342 
L 374.018838 189.814435 
L 374.671142 185.139298 
L 375.323447 184.2822 
L 375.975752 185.795727 
L 376.628056 184.947951 
L 377.280361 184.615509 
L 377.932665 183.577419 
L 378.58497 182.561128 
L 379.237275 182.019808 
L 379.889579 181.088513 
L 380.541884 180.160747 
L 381.194188 178.406833 
L 381.846493 178.284463 
L 382.498798 177.365577 
L 383.151102 176.401202 
L 383.803407 175.431864 
L 384.455711 174.122499 
L 385.108016 173.225638 
L 385.760321 172.277986 
L 386.412625 171.399808 
L 387.06493 170.988843 
L 387.717234 170.110977 
L 388.369539 169.230997 
L 389.021844 168.355636 
L 389.674148 167.715038 
L 390.326453 166.944713 
L 390.978758 166.200191 
L 391.631062 165.29538 
L 392.283367 165.64822 
L 392.935671 163.529864 
L 393.587976 163.540896 
L 394.240281 162.549997 
L 394.892585 161.553912 
L 395.54489 160.913278 
L 396.197194 160.155803 
L 396.849499 159.016975 
L 397.501804 158.183345 
L 398.154108 157.067543 
L 398.806413 156.183548 
L 399.458717 155.439745 
L 400.111022 154.546845 
L 400.763327 153.838963 
L 401.415631 152.174164 
L 402.067936 151.144817 
L 402.72024 145.84124 
L 403.372545 147.449685 
L 404.02485 146.543102 
L 404.677154 145.537755 
L 405.329459 144.589382 
L 405.981764 143.707559 
L 406.634068 142.150692 
L 407.286373 141.329805 
L 407.938677 140.32414 
L 408.590982 139.387586 
L 409.243287 138.504226 
L 409.895591 137.395992 
L 410.547896 136.294591 
L 411.2002 135.291579 
L 411.852505 134.38479 
L 412.50481 132.717845 
L 413.157114 131.670157 
L 413.809419 130.957855 
L 414.461723 129.907928 
L 415.114028 128.970697 
L 415.766333 128.102774 
L 416.418637 126.310404 
L 417.070942 125.212706 
L 417.723246 124.119396 
L 418.375551 123.134235 
L 419.027856 122.127749 
L 419.68016 121.103953 
L 420.332465 121.15071 
L 420.98477 119.756467 
L 421.637074 118.96372 
L 422.289379 118.100579 
L 422.941683 116.690013 
L 423.593988 115.813995 
L 424.246293 115.021606 
L 424.898597 113.696321 
L 425.550902 112.721885 
L 426.203206 111.719027 
L 426.855511 110.670374 
L 427.507816 109.431829 
L 428.16012 108.719005 
L 428.812425 107.68991 
L 429.464729 106.385476 
L 430.117034 105.399345 
L 430.769339 104.182889 
L 431.421643 103.110483 
L 432.073948 100.16686 
L 432.726253 99.598601 
L 433.378557 98.399365 
L 434.030862 97.268111 
L 434.683166 96.419541 
L 435.335471 95.347028 
L 435.987776 94.285685 
L 436.64008 91.140375 
L 437.292385 90.214029 
L 437.944689 89.132669 
L 438.596994 88.192383 
L 439.249299 87.097061 
L 439.901603 84.987336 
L 440.553908 83.806494 
L 441.206212 82.677027 
L 441.858517 81.369179 
L 442.510822 80.624067 
L 443.163126 78.593003 
L 443.815431 77.653719 
L 444.467735 76.502468 
L 445.12004 75.478549 
L 445.772345 74.276385 
L 446.424649 73.439554 
L 447.076954 72.358552 
L 447.729259 71.167719 
L 448.381563 69.981904 
L 449.033868 68.240055 
L 449.686172 67.082275 
L 450.338477 66.119522 
L 450.990782 64.995064 
L 451.643086 63.879764 
L 452.295391 62.805794 
L 452.947695 61.664472 
L 452.947695 60.492793 
L 452.947695 60.492793 
L 452.295391 60.562668 
L 451.643086 60.603659 
L 450.990782 60.706603 
L 450.338477 60.857807 
L 449.686172 60.862832 
L 449.033868 61.090817 
L 448.381563 61.947925 
L 447.729259 62.292211 
L 447.076954 62.689398 
L 446.424649 62.964378 
L 445.772345 63.01505 
L 445.12004 63.448496 
L 444.467735 63.729674 
L 443.815431 64.139285 
L 443.163126 64.386324 
L 442.510822 65.67225 
L 441.858517 65.767338 
L 441.206212 66.41612 
L 440.553908 66.905298 
L 439.901603 67.470345 
L 439.249299 68.964306 
L 438.596994 69.450957 
L 437.944689 69.813446 
L 437.292385 70.3346 
L 436.64008 70.717294 
L 435.987776 73.376234 
L 435.335471 73.880003 
L 434.683166 74.452767 
L 434.030862 74.807468 
L 433.378557 75.45448 
L 432.726253 76.185012 
L 432.073948 76.321923 
L 431.421643 78.875201 
L 430.769339 79.4927 
L 430.117034 80.30848 
L 429.464729 80.934285 
L 428.812425 81.768625 
L 428.16012 82.403539 
L 427.507816 82.796937 
L 426.855511 83.649306 
L 426.203206 84.390555 
L 425.550902 85.018807 
L 424.898597 85.621576 
L 424.246293 86.56915 
L 423.593988 86.991414 
L 422.941683 87.47732 
L 422.289379 88.533413 
L 421.637074 89.074031 
L 420.98477 89.527821 
L 420.332465 90.583596 
L 419.68016 90.319873 
L 419.027856 90.968386 
L 418.375551 91.682244 
L 417.723246 92.383949 
L 417.070942 93.155085 
L 416.418637 93.96629 
L 415.766333 95.516257 
L 415.114028 96.102171 
L 414.461723 96.793953 
L 413.809419 97.499357 
L 413.157114 97.975916 
L 412.50481 98.755335 
L 411.852505 100.214418 
L 411.2002 100.932114 
L 410.547896 101.703515 
L 409.895591 102.537756 
L 409.243287 103.428755 
L 408.590982 104.125911 
L 407.938677 104.850698 
L 407.286373 105.589966 
L 406.634068 106.17178 
L 405.981764 107.448222 
L 405.329459 108.100997 
L 404.677154 108.839057 
L 404.02485 109.623553 
L 403.372545 110.319127 
L 402.72024 108.4129 
L 402.067936 113.553449 
L 401.415631 114.407895 
L 400.763327 115.893196 
L 400.111022 116.472246 
L 399.458717 117.304225 
L 398.806413 117.873795 
L 398.154108 118.616007 
L 397.501804 119.578482 
L 396.849499 120.301632 
L 396.197194 121.254063 
L 395.54489 121.912165 
L 394.892585 122.417736 
L 394.240281 123.267206 
L 393.587976 124.1094 
L 392.935671 123.965909 
L 392.283367 125.968176 
L 391.631062 125.539308 
L 390.978758 126.283051 
L 390.326453 126.886084 
L 389.674148 127.560791 
L 389.021844 128.144043 
L 388.369539 128.961416 
L 387.717234 129.729129 
L 387.06493 130.445833 
L 386.412625 130.769818 
L 385.760321 131.615715 
L 385.108016 132.453145 
L 384.455711 133.221607 
L 383.803407 134.384212 
L 383.151102 135.266769 
L 382.498798 136.149074 
L 381.846493 136.997581 
L 381.194188 137.000666 
L 380.541884 138.693305 
L 379.889579 139.605719 
L 379.237275 140.507304 
L 378.58497 141.042738 
L 377.932665 141.988602 
L 377.280361 142.766784 
L 376.628056 143.062316 
L 375.975752 143.757693 
L 375.323447 142.088823 
L 374.671142 142.884474 
L 374.018838 147.451802 
L 373.366533 148.309802 
L 372.714228 144.69329 
L 372.061924 149.140263 
L 371.409619 150.605321 
L 370.757315 152.606895 
L 370.10501 155.642285 
L 369.452705 156.370313 
L 368.800401 157.293618 
L 368.148096 157.646497 
L 367.495792 158.539531 
L 366.843487 159.413311 
L 366.191182 160.415783 
L 365.538878 161.159715 
L 364.886573 162.181901 
L 364.234269 162.630312 
L 363.581964 163.699836 
L 362.929659 164.483379 
L 362.277355 165.446242 
L 361.62505 166.262947 
L 360.972745 167.056185 
L 360.320441 167.886124 
L 359.668136 168.607856 
L 359.015832 169.302265 
L 358.363527 169.764442 
L 357.711222 169.923691 
L 357.058918 170.812923 
L 356.406613 171.378837 
L 355.754309 172.186088 
L 355.102004 173.26448 
L 354.449699 174.035641 
L 353.797395 176.04274 
L 353.14509 175.907411 
L 352.492786 176.74931 
L 351.840481 177.294573 
L 351.188176 178.821839 
L 350.535872 179.459732 
L 349.883567 179.593319 
L 349.231263 180.397746 
L 348.578958 181.202275 
L 347.926653 181.899192 
L 347.274349 183.194833 
L 346.622044 184.170661 
L 345.969739 184.521611 
L 345.317435 185.667476 
L 344.66513 186.433446 
L 344.012826 187.471255 
L 343.360521 188.26369 
L 342.708216 189.246769 
L 342.055912 187.208606 
L 341.403607 188.073679 
L 340.751303 191.536602 
L 340.098998 192.083121 
L 339.446693 190.30904 
L 338.794389 191.000428 
L 338.142084 191.465963 
L 337.48978 191.264044 
L 336.837475 192.607374 
L 336.18517 193.535578 
L 335.532866 194.321111 
L 334.880561 194.929368 
L 334.228257 195.823081 
L 333.575952 196.73464 
L 332.923647 197.433416 
L 332.271343 197.453885 
L 331.619038 199.24914 
L 330.966733 199.620464 
L 330.314429 199.846639 
L 329.662124 201.140069 
L 329.00982 201.901249 
L 328.357515 202.55549 
L 327.70521 203.375838 
L 327.052906 205.076503 
L 326.400601 205.828249 
L 325.748297 205.649218 
L 325.095992 206.149226 
L 324.443687 207.381355 
L 323.791383 207.685508 
L 323.139078 208.408617 
L 322.486774 209.141258 
L 321.834469 209.631932 
L 321.182164 212.046564 
L 320.52986 218.026257 
L 319.877555 214.17887 
L 319.225251 218.443954 
L 318.572946 219.143762 
L 317.920641 219.862048 
L 317.268337 221.025693 
L 316.616032 221.78758 
L 315.963727 222.474311 
L 315.311423 222.259652 
L 314.659118 222.282043 
L 314.006814 222.43592 
L 313.354509 223.041188 
L 312.702204 224.249464 
L 312.0499 224.912142 
L 311.397595 225.923838 
L 310.745291 227.114796 
L 310.092986 227.857798 
L 309.440681 228.628177 
L 308.788377 229.147958 
L 308.136072 229.822131 
L 307.483768 230.536676 
L 306.831463 230.977369 
L 306.179158 231.508979 
L 305.526854 232.409295 
L 304.874549 233.221725 
L 304.222244 234.486036 
L 303.56994 235.242662 
L 302.917635 236.016808 
L 302.265331 236.86203 
L 301.613026 238.701851 
L 300.960721 239.516279 
L 300.308417 240.277441 
L 299.656112 241.006032 
L 299.003808 241.724578 
L 298.351503 242.477656 
L 297.699198 243.20337 
L 297.046894 243.998735 
L 296.394589 244.654672 
L 295.742285 245.344931 
L 295.08998 246.3175 
L 294.437675 247.281836 
L 293.785371 248.163647 
L 293.133066 248.931133 
L 292.480762 249.342526 
L 291.828457 249.145516 
L 291.176152 249.903875 
L 290.523848 250.865173 
L 289.871543 253.39493 
L 289.219238 251.73302 
L 288.566934 255.099101 
L 287.914629 255.739018 
L 287.262325 256.586235 
L 286.61002 257.054426 
L 285.957715 257.855398 
L 285.305411 256.974444 
L 284.653106 258.129077 
L 284.000802 260.614051 
L 283.348497 260.076938 
L 282.696192 260.863718 
L 282.043888 261.477778 
L 281.391583 262.322578 
L 280.739279 263.102089 
L 280.086974 263.53135 
L 279.434669 264.251634 
L 278.782365 266.329346 
L 278.13006 267.189618 
L 277.477756 268.192079 
L 276.825451 265.566526 
L 276.173146 266.674298 
L 275.520842 267.822843 
L 274.868537 268.508293 
L 274.216232 269.237223 
L 273.563928 268.656928 
L 272.911623 268.968829 
L 272.259319 269.881894 
L 271.607014 270.214535 
L 270.954709 269.914579 
L 270.302405 270.538142 
L 269.6501 271.362651 
L 268.997796 271.932589 
L 268.345491 272.523429 
L 267.693186 273.344196 
L 267.040882 274.077133 
L 266.388577 274.791315 
L 265.736273 274.498208 
L 265.083968 275.095067 
L 264.431663 275.656148 
L 263.779359 276.474599 
L 263.127054 277.366419 
L 262.474749 279.942182 
L 261.822445 280.728568 
L 261.17014 281.508815 
L 260.517836 281.913717 
L 259.865531 282.393743 
L 259.213226 282.010702 
L 258.560922 282.689275 
L 257.908617 283.383019 
L 257.256313 284.000009 
L 256.604008 286.853208 
L 255.951703 287.262955 
L 255.299399 285.287588 
L 254.647094 285.980078 
L 253.99479 286.986355 
L 253.342485 287.873745 
L 252.69018 288.562491 
L 252.037876 289.017168 
L 251.385571 290.174216 
L 250.733267 293.495563 
L 250.080962 294.007466 
L 249.428657 294.722034 
L 248.776353 295.591533 
L 248.124048 295.84271 
L 247.471743 296.703303 
L 246.819439 297.27958 
L 246.167134 297.980177 
L 245.51483 298.722806 
L 244.862525 298.217526 
L 244.21022 299.110141 
L 243.557916 299.875433 
L 242.905611 300.363374 
L 242.253307 301.338218 
L 241.601002 301.733488 
L 240.948697 302.41784 
L 240.296393 302.856864 
L 239.644088 302.095329 
L 238.991784 303.637081 
L 238.339479 304.521077 
L 237.687174 304.816649 
L 237.03487 305.492354 
L 236.382565 305.915506 
L 235.730261 306.099581 
L 235.077956 305.647448 
L 234.425651 306.304946 
L 233.773347 307.019589 
L 233.121042 307.670915 
L 232.468737 308.154267 
L 231.816433 309.418615 
L 231.164128 309.945613 
L 230.511824 316.102049 
L 229.859519 316.146069 
L 229.207214 316.706539 
L 228.55491 318.230279 
L 227.902605 318.26054 
L 227.250301 318.997974 
L 226.597996 316.489899 
L 225.945691 318.617902 
L 225.293387 319.47502 
L 224.641082 320.319523 
L 223.988778 322.630235 
L 223.336473 323.141166 
L 222.684168 322.559836 
L 222.031864 323.541592 
L 221.379559 324.481864 
L 220.727255 324.444774 
L 220.07495 325.285118 
L 219.422645 325.791166 
L 218.770341 326.414577 
L 218.118036 327.081525 
L 217.465731 327.476459 
L 216.813427 328.12292 
L 216.161122 328.661311 
L 215.508818 327.880309 
L 214.856513 328.586442 
L 214.204208 329.233539 
L 213.551904 329.821933 
L 212.899599 330.289359 
L 212.247295 329.530072 
L 211.59499 330.087198 
L 210.942685 330.628925 
L 210.290381 331.193819 
L 209.638076 332.437945 
L 208.985772 333.085639 
L 208.333467 333.654515 
L 207.681162 337.589823 
L 207.028858 338.484755 
L 206.376553 339.127572 
L 205.724248 339.794055 
L 205.071944 340.308014 
L 204.419639 341.20732 
L 203.767335 337.033297 
L 203.11503 341.785074 
L 202.462725 339.041759 
L 201.810421 342.225062 
L 201.158116 341.020876 
L 200.505812 341.569871 
L 199.853507 342.186903 
L 199.201202 342.762233 
L 198.548898 346.319714 
L 197.896593 346.738832 
L 197.244289 347.485546 
L 196.591984 345.607166 
L 195.939679 346.258627 
L 195.287375 346.842204 
L 194.63507 347.510523 
L 193.982766 350.841604 
L 193.330461 351.497888 
L 192.678156 352.078491 
L 192.025852 352.709337 
L 191.373547 353.394875 
L 190.721242 353.822628 
L 190.068938 354.448477 
L 189.416633 355.044333 
L 188.764329 354.998663 
L 188.112024 355.448769 
L 187.459719 356.377154 
L 186.807415 356.307503 
L 186.15511 360.865581 
L 185.502806 361.570486 
L 184.850501 362.080377 
L 184.198196 362.697802 
L 183.545892 363.314943 
L 182.893587 363.708181 
L 182.241283 364.310064 
L 181.588978 364.689185 
L 180.936673 365.261866 
L 180.284369 365.900527 
L 179.632064 369.89579 
L 178.97976 370.792045 
L 178.327455 371.414236 
L 177.67515 371.906884 
L 177.022846 372.360844 
L 176.370541 372.874961 
L 175.718236 373.17852 
L 175.065932 374.708623 
L 174.413627 375.349147 
L 173.761323 374.572626 
L 173.109018 375.226598 
L 172.456713 375.675975 
L 171.804409 376.032432 
L 171.152104 376.709646 
L 170.4998 376.910476 
L 169.847495 377.587765 
L 169.19519 374.638104 
L 168.542886 375.31805 
L 167.890581 375.871711 
L 167.238277 380.438505 
L 166.585972 380.860338 
L 165.933667 377.081362 
L 165.281363 377.882657 
L 164.629058 380.35625 
L 163.976754 380.910065 
L 163.324449 382.373187 
L 162.672144 382.937795 
L 162.01984 383.581244 
L 161.367535 384.069219 
L 160.71523 384.752377 
L 160.062926 384.762462 
L 159.410621 385.336164 
L 158.758317 385.696006 
L 158.106012 386.18674 
L 157.453707 386.594016 
L 156.801403 387.433685 
L 156.149098 388.891176 
L 155.496794 389.432877 
L 154.844489 389.251602 
L 154.192184 390.743115 
L 153.53988 390.508067 
L 152.887575 390.934623 
L 152.235271 392.931082 
L 151.582966 393.553053 
L 150.930661 394.578614 
L 150.278357 394.959109 
L 149.626052 395.721297 
L 148.973747 396.393186 
L 148.321443 397.086351 
L 147.669138 397.49324 
L 147.016834 398.013868 
L 146.364529 398.533385 
L 145.712224 399.217265 
L 145.05992 399.183768 
L 144.407615 399.218527 
L 143.755311 400.55834 
L 143.103006 401.133598 
L 142.450701 401.112062 
L 141.798397 401.749431 
L 141.146092 403.776125 
L 140.493788 404.394998 
L 139.841483 405.092669 
L 139.189178 405.68563 
L 138.536874 405.985012 
L 137.884569 407.125467 
L 137.232265 407.010022 
L 136.57996 407.770827 
L 135.927655 408.608524 
L 135.275351 409.295476 
L 134.623046 409.830018 
L 133.970741 410.499917 
L 133.318437 410.900489 
L 132.666132 411.126769 
L 132.013828 412.844316 
L 131.361523 413.455584 
L 130.709218 414.028059 
L 130.056914 414.458909 
L 129.404609 415.186475 
L 128.752305 415.388488 
L 128.1 413.551007 
z
" style="fill:#ff7f0e;"/>
   </g>
   <g id="matplotlib.axis_1">
    <g id="xtick_1">
     <g id="line2d_1">
      <defs>
       <path d="M 0 0 
L 0 3.5 
" id="mfcee3adf30" style="stroke:#000000;stroke-width:0.8;"/>
      </defs>
      <g>
       <use style="stroke:#000000;stroke-width:0.8;" x="63" xlink:href="#mfcee3adf30" y="448.56"/>
      </g>
     </g>
     <g id="text_1">
      <!-- 0.4 -->
      <g transform="translate(55.048437 463.158437)scale(0.1 -0.1)">
       <defs>
        <path d="M 31.78125 66.40625 
Q 24.171875 66.40625 20.328125 58.90625 
Q 16.5 51.421875 16.5 36.375 
Q 16.5 21.390625 20.328125 13.890625 
Q 24.171875 6.390625 31.78125 6.390625 
Q 39.453125 6.390625 43.28125 13.890625 
Q 47.125 21.390625 47.125 36.375 
Q 47.125 51.421875 43.28125 58.90625 
Q 39.453125 66.40625 31.78125 66.40625 
z
M 31.78125 74.21875 
Q 44.046875 74.21875 50.515625 64.515625 
Q 56.984375 54.828125 56.984375 36.375 
Q 56.984375 17.96875 50.515625 8.265625 
Q 44.046875 -1.421875 31.78125 -1.421875 
Q 19.53125 -1.421875 13.0625 8.265625 
Q 6.59375 17.96875 6.59375 36.375 
Q 6.59375 54.828125 13.0625 64.515625 
Q 19.53125 74.21875 31.78125 74.21875 
z
" id="DejaVuSans-48"/>
        <path d="M 10.6875 12.40625 
L 21 12.40625 
L 21 0 
L 10.6875 0 
z
" id="DejaVuSans-46"/>
        <path d="M 37.796875 64.3125 
L 12.890625 25.390625 
L 37.796875 25.390625 
z
M 35.203125 72.90625 
L 47.609375 72.90625 
L 47.609375 25.390625 
L 58.015625 25.390625 
L 58.015625 17.1875 
L 47.609375 17.1875 
L 47.609375 0 
L 37.796875 0 
L 37.796875 17.1875 
L 4.890625 17.1875 
L 4.890625 26.703125 
z
" id="DejaVuSans-52"/>
       </defs>
       <use xlink:href="#DejaVuSans-48"/>
       <use x="63.623047" xlink:href="#DejaVuSans-46"/>
       <use x="95.410156" xlink:href="#DejaVuSans-52"/>
      </g>
     </g>
    </g>
    <g id="xtick_2">
     <g id="line2d_2">
      <g>
       <use style="stroke:#000000;stroke-width:0.8;" x="128.1" xlink:href="#mfcee3adf30" y="448.56"/>
      </g>
     </g>
     <g id="text_2">
      <!-- 0.5 -->
      <g transform="translate(120.148438 463.158437)scale(0.1 -0.1)">
       <defs>
        <path d="M 10.796875 72.90625 
L 49.515625 72.90625 
L 49.515625 64.59375 
L 19.828125 64.59375 
L 19.828125 46.734375 
Q 21.96875 47.46875 24.109375 47.828125 
Q 26.265625 48.1875 28.421875 48.1875 
Q 40.625 48.1875 47.75 41.5 
Q 54.890625 34.8125 54.890625 23.390625 
Q 54.890625 11.625 47.5625 5.09375 
Q 40.234375 -1.421875 26.90625 -1.421875 
Q 22.3125 -1.421875 17.546875 -0.640625 
Q 12.796875 0.140625 7.71875 1.703125 
L 7.71875 11.625 
Q 12.109375 9.234375 16.796875 8.0625 
Q 21.484375 6.890625 26.703125 6.890625 
Q 35.15625 6.890625 40.078125 11.328125 
Q 45.015625 15.765625 45.015625 23.390625 
Q 45.015625 31 40.078125 35.4375 
Q 35.15625 39.890625 26.703125 39.890625 
Q 22.75 39.890625 18.8125 39.015625 
Q 14.890625 38.140625 10.796875 36.28125 
z
" id="DejaVuSans-53"/>
       </defs>
       <use xlink:href="#DejaVuSans-48"/>
       <use x="63.623047" xlink:href="#DejaVuSans-46"/>
       <use x="95.410156" xlink:href="#DejaVuSans-53"/>
      </g>
     </g>
    </g>
    <g id="xtick_3">
     <g id="line2d_3">
      <g>
       <use style="stroke:#000000;stroke-width:0.8;" x="193.2" xlink:href="#mfcee3adf30" y="448.56"/>
      </g>
     </g>
     <g id="text_3">
      <!-- 0.6 -->
      <g transform="translate(185.248438 463.158437)scale(0.1 -0.1)">
       <defs>
        <path d="M 33.015625 40.375 
Q 26.375 40.375 22.484375 35.828125 
Q 18.609375 31.296875 18.609375 23.390625 
Q 18.609375 15.53125 22.484375 10.953125 
Q 26.375 6.390625 33.015625 6.390625 
Q 39.65625 6.390625 43.53125 10.953125 
Q 47.40625 15.53125 47.40625 23.390625 
Q 47.40625 31.296875 43.53125 35.828125 
Q 39.65625 40.375 33.015625 40.375 
z
M 52.59375 71.296875 
L 52.59375 62.3125 
Q 48.875 64.0625 45.09375 64.984375 
Q 41.3125 65.921875 37.59375 65.921875 
Q 27.828125 65.921875 22.671875 59.328125 
Q 17.53125 52.734375 16.796875 39.40625 
Q 19.671875 43.65625 24.015625 45.921875 
Q 28.375 48.1875 33.59375 48.1875 
Q 44.578125 48.1875 50.953125 41.515625 
Q 57.328125 34.859375 57.328125 23.390625 
Q 57.328125 12.15625 50.6875 5.359375 
Q 44.046875 -1.421875 33.015625 -1.421875 
Q 20.359375 -1.421875 13.671875 8.265625 
Q 6.984375 17.96875 6.984375 36.375 
Q 6.984375 53.65625 15.1875 63.9375 
Q 23.390625 74.21875 37.203125 74.21875 
Q 40.921875 74.21875 44.703125 73.484375 
Q 48.484375 72.75 52.59375 71.296875 
z
" id="DejaVuSans-54"/>
       </defs>
       <use xlink:href="#DejaVuSans-48"/>
       <use x="63.623047" xlink:href="#DejaVuSans-46"/>
       <use x="95.410156" xlink:href="#DejaVuSans-54"/>
      </g>
     </g>
    </g>
    <g id="xtick_4">
     <g id="line2d_4">
      <g>
       <use style="stroke:#000000;stroke-width:0.8;" x="258.3" xlink:href="#mfcee3adf30" y="448.56"/>
      </g>
     </g>
     <g id="text_4">
      <!-- 0.7 -->
      <g transform="translate(250.348438 463.158437)scale(0.1 -0.1)">
       <defs>
        <path d="M 8.203125 72.90625 
L 55.078125 72.90625 
L 55.078125 68.703125 
L 28.609375 0 
L 18.3125 0 
L 43.21875 64.59375 
L 8.203125 64.59375 
z
" id="DejaVuSans-55"/>
       </defs>
       <use xlink:href="#DejaVuSans-48"/>
       <use x="63.623047" xlink:href="#DejaVuSans-46"/>
       <use x="95.410156" xlink:href="#DejaVuSans-55"/>
      </g>
     </g>
    </g>
    <g id="xtick_5">
     <g id="line2d_5">
      <g>
       <use style="stroke:#000000;stroke-width:0.8;" x="323.4" xlink:href="#mfcee3adf30" y="448.56"/>
      </g>
     </g>
     <g id="text_5">
      <!-- 0.8 -->
      <g transform="translate(315.448438 463.158437)scale(0.1 -0.1)">
       <defs>
        <path d="M 31.78125 34.625 
Q 24.75 34.625 20.71875 30.859375 
Q 16.703125 27.09375 16.703125 20.515625 
Q 16.703125 13.921875 20.71875 10.15625 
Q 24.75 6.390625 31.78125 6.390625 
Q 38.8125 6.390625 42.859375 10.171875 
Q 46.921875 13.96875 46.921875 20.515625 
Q 46.921875 27.09375 42.890625 30.859375 
Q 38.875 34.625 31.78125 34.625 
z
M 21.921875 38.8125 
Q 15.578125 40.375 12.03125 44.71875 
Q 8.5 49.078125 8.5 55.328125 
Q 8.5 64.0625 14.71875 69.140625 
Q 20.953125 74.21875 31.78125 74.21875 
Q 42.671875 74.21875 48.875 69.140625 
Q 55.078125 64.0625 55.078125 55.328125 
Q 55.078125 49.078125 51.53125 44.71875 
Q 48 40.375 41.703125 38.8125 
Q 48.828125 37.15625 52.796875 32.3125 
Q 56.78125 27.484375 56.78125 20.515625 
Q 56.78125 9.90625 50.3125 4.234375 
Q 43.84375 -1.421875 31.78125 -1.421875 
Q 19.734375 -1.421875 13.25 4.234375 
Q 6.78125 9.90625 6.78125 20.515625 
Q 6.78125 27.484375 10.78125 32.3125 
Q 14.796875 37.15625 21.921875 38.8125 
z
M 18.3125 54.390625 
Q 18.3125 48.734375 21.84375 45.5625 
Q 25.390625 42.390625 31.78125 42.390625 
Q 38.140625 42.390625 41.71875 45.5625 
Q 45.3125 48.734375 45.3125 54.390625 
Q 45.3125 60.0625 41.71875 63.234375 
Q 38.140625 66.40625 31.78125 66.40625 
Q 25.390625 66.40625 21.84375 63.234375 
Q 18.3125 60.0625 18.3125 54.390625 
z
" id="DejaVuSans-56"/>
       </defs>
       <use xlink:href="#DejaVuSans-48"/>
       <use x="63.623047" xlink:href="#DejaVuSans-46"/>
       <use x="95.410156" xlink:href="#DejaVuSans-56"/>
      </g>
     </g>
    </g>
    <g id="xtick_6">
     <g id="line2d_6">
      <g>
       <use style="stroke:#000000;stroke-width:0.8;" x="388.5" xlink:href="#mfcee3adf30" y="448.56"/>
      </g>
     </g>
     <g id="text_6">
      <!-- 0.9 -->
      <g transform="translate(380.548438 463.158437)scale(0.1 -0.1)">
       <defs>
        <path d="M 10.984375 1.515625 
L 10.984375 10.5 
Q 14.703125 8.734375 18.5 7.8125 
Q 22.3125 6.890625 25.984375 6.890625 
Q 35.75 6.890625 40.890625 13.453125 
Q 46.046875 20.015625 46.78125 33.40625 
Q 43.953125 29.203125 39.59375 26.953125 
Q 35.25 24.703125 29.984375 24.703125 
Q 19.046875 24.703125 12.671875 31.3125 
Q 6.296875 37.9375 6.296875 49.421875 
Q 6.296875 60.640625 12.9375 67.421875 
Q 19.578125 74.21875 30.609375 74.21875 
Q 43.265625 74.21875 49.921875 64.515625 
Q 56.59375 54.828125 56.59375 36.375 
Q 56.59375 19.140625 48.40625 8.859375 
Q 40.234375 -1.421875 26.421875 -1.421875 
Q 22.703125 -1.421875 18.890625 -0.6875 
Q 15.09375 0.046875 10.984375 1.515625 
z
M 30.609375 32.421875 
Q 37.25 32.421875 41.125 36.953125 
Q 45.015625 41.5 45.015625 49.421875 
Q 45.015625 57.28125 41.125 61.84375 
Q 37.25 66.40625 30.609375 66.40625 
Q 23.96875 66.40625 20.09375 61.84375 
Q 16.21875 57.28125 16.21875 49.421875 
Q 16.21875 41.5 20.09375 36.953125 
Q 23.96875 32.421875 30.609375 32.421875 
z
" id="DejaVuSans-57"/>
       </defs>
       <use xlink:href="#DejaVuSans-48"/>
       <use x="63.623047" xlink:href="#DejaVuSans-46"/>
       <use x="95.410156" xlink:href="#DejaVuSans-57"/>
      </g>
     </g>
    </g>
    <g id="xtick_7">
     <g id="line2d_7">
      <g>
       <use style="stroke:#000000;stroke-width:0.8;" x="453.6" xlink:href="#mfcee3adf30" y="448.56"/>
      </g>
     </g>
     <g id="text_7">
      <!-- 1.0 -->
      <g transform="translate(445.648438 463.158437)scale(0.1 -0.1)">
       <defs>
        <path d="M 12.40625 8.296875 
L 28.515625 8.296875 
L 28.515625 63.921875 
L 10.984375 60.40625 
L 10.984375 69.390625 
L 28.421875 72.90625 
L 38.28125 72.90625 
L 38.28125 8.296875 
L 54.390625 8.296875 
L 54.390625 0 
L 12.40625 0 
z
" id="DejaVuSans-49"/>
       </defs>
       <use xlink:href="#DejaVuSans-49"/>
       <use x="63.623047" xlink:href="#DejaVuSans-46"/>
       <use x="95.410156" xlink:href="#DejaVuSans-48"/>
      </g>
     </g>
    </g>
    <g id="text_8">
     <!-- If I predict something with this probability... -->
     <g transform="translate(149.657031 476.836563)scale(0.1 -0.1)">
      <defs>
       <path d="M 9.8125 72.90625 
L 19.671875 72.90625 
L 19.671875 0 
L 9.8125 0 
z
" id="DejaVuSans-73"/>
       <path d="M 37.109375 75.984375 
L 37.109375 68.5 
L 28.515625 68.5 
Q 23.6875 68.5 21.796875 66.546875 
Q 19.921875 64.59375 19.921875 59.515625 
L 19.921875 54.6875 
L 34.71875 54.6875 
L 34.71875 47.703125 
L 19.921875 47.703125 
L 19.921875 0 
L 10.890625 0 
L 10.890625 47.703125 
L 2.296875 47.703125 
L 2.296875 54.6875 
L 10.890625 54.6875 
L 10.890625 58.5 
Q 10.890625 67.625 15.140625 71.796875 
Q 19.390625 75.984375 28.609375 75.984375 
z
" id="DejaVuSans-102"/>
       <path id="DejaVuSans-32"/>
       <path d="M 18.109375 8.203125 
L 18.109375 -20.796875 
L 9.078125 -20.796875 
L 9.078125 54.6875 
L 18.109375 54.6875 
L 18.109375 46.390625 
Q 20.953125 51.265625 25.265625 53.625 
Q 29.59375 56 35.59375 56 
Q 45.5625 56 51.78125 48.09375 
Q 58.015625 40.1875 58.015625 27.296875 
Q 58.015625 14.40625 51.78125 6.484375 
Q 45.5625 -1.421875 35.59375 -1.421875 
Q 29.59375 -1.421875 25.265625 0.953125 
Q 20.953125 3.328125 18.109375 8.203125 
z
M 48.6875 27.296875 
Q 48.6875 37.203125 44.609375 42.84375 
Q 40.53125 48.484375 33.40625 48.484375 
Q 26.265625 48.484375 22.1875 42.84375 
Q 18.109375 37.203125 18.109375 27.296875 
Q 18.109375 17.390625 22.1875 11.75 
Q 26.265625 6.109375 33.40625 6.109375 
Q 40.53125 6.109375 44.609375 11.75 
Q 48.6875 17.390625 48.6875 27.296875 
z
" id="DejaVuSans-112"/>
       <path d="M 41.109375 46.296875 
Q 39.59375 47.171875 37.8125 47.578125 
Q 36.03125 48 33.890625 48 
Q 26.265625 48 22.1875 43.046875 
Q 18.109375 38.09375 18.109375 28.8125 
L 18.109375 0 
L 9.078125 0 
L 9.078125 54.6875 
L 18.109375 54.6875 
L 18.109375 46.1875 
Q 20.953125 51.171875 25.484375 53.578125 
Q 30.03125 56 36.53125 56 
Q 37.453125 56 38.578125 55.875 
Q 39.703125 55.765625 41.0625 55.515625 
z
" id="DejaVuSans-114"/>
       <path d="M 56.203125 29.59375 
L 56.203125 25.203125 
L 14.890625 25.203125 
Q 15.484375 15.921875 20.484375 11.0625 
Q 25.484375 6.203125 34.421875 6.203125 
Q 39.59375 6.203125 44.453125 7.46875 
Q 49.3125 8.734375 54.109375 11.28125 
L 54.109375 2.78125 
Q 49.265625 0.734375 44.1875 -0.34375 
Q 39.109375 -1.421875 33.890625 -1.421875 
Q 20.796875 -1.421875 13.15625 6.1875 
Q 5.515625 13.8125 5.515625 26.8125 
Q 5.515625 40.234375 12.765625 48.109375 
Q 20.015625 56 32.328125 56 
Q 43.359375 56 49.78125 48.890625 
Q 56.203125 41.796875 56.203125 29.59375 
z
M 47.21875 32.234375 
Q 47.125 39.59375 43.09375 43.984375 
Q 39.0625 48.390625 32.421875 48.390625 
Q 24.90625 48.390625 20.390625 44.140625 
Q 15.875 39.890625 15.1875 32.171875 
z
" id="DejaVuSans-101"/>
       <path d="M 45.40625 46.390625 
L 45.40625 75.984375 
L 54.390625 75.984375 
L 54.390625 0 
L 45.40625 0 
L 45.40625 8.203125 
Q 42.578125 3.328125 38.25 0.953125 
Q 33.9375 -1.421875 27.875 -1.421875 
Q 17.96875 -1.421875 11.734375 6.484375 
Q 5.515625 14.40625 5.515625 27.296875 
Q 5.515625 40.1875 11.734375 48.09375 
Q 17.96875 56 27.875 56 
Q 33.9375 56 38.25 53.625 
Q 42.578125 51.265625 45.40625 46.390625 
z
M 14.796875 27.296875 
Q 14.796875 17.390625 18.875 11.75 
Q 22.953125 6.109375 30.078125 6.109375 
Q 37.203125 6.109375 41.296875 11.75 
Q 45.40625 17.390625 45.40625 27.296875 
Q 45.40625 37.203125 41.296875 42.84375 
Q 37.203125 48.484375 30.078125 48.484375 
Q 22.953125 48.484375 18.875 42.84375 
Q 14.796875 37.203125 14.796875 27.296875 
z
" id="DejaVuSans-100"/>
       <path d="M 9.421875 54.6875 
L 18.40625 54.6875 
L 18.40625 0 
L 9.421875 0 
z
M 9.421875 75.984375 
L 18.40625 75.984375 
L 18.40625 64.59375 
L 9.421875 64.59375 
z
" id="DejaVuSans-105"/>
       <path d="M 48.78125 52.59375 
L 48.78125 44.1875 
Q 44.96875 46.296875 41.140625 47.34375 
Q 37.3125 48.390625 33.40625 48.390625 
Q 24.65625 48.390625 19.8125 42.84375 
Q 14.984375 37.3125 14.984375 27.296875 
Q 14.984375 17.28125 19.8125 11.734375 
Q 24.65625 6.203125 33.40625 6.203125 
Q 37.3125 6.203125 41.140625 7.25 
Q 44.96875 8.296875 48.78125 10.40625 
L 48.78125 2.09375 
Q 45.015625 0.34375 40.984375 -0.53125 
Q 36.96875 -1.421875 32.421875 -1.421875 
Q 20.0625 -1.421875 12.78125 6.34375 
Q 5.515625 14.109375 5.515625 27.296875 
Q 5.515625 40.671875 12.859375 48.328125 
Q 20.21875 56 33.015625 56 
Q 37.15625 56 41.109375 55.140625 
Q 45.0625 54.296875 48.78125 52.59375 
z
" id="DejaVuSans-99"/>
       <path d="M 18.3125 70.21875 
L 18.3125 54.6875 
L 36.8125 54.6875 
L 36.8125 47.703125 
L 18.3125 47.703125 
L 18.3125 18.015625 
Q 18.3125 11.328125 20.140625 9.421875 
Q 21.96875 7.515625 27.59375 7.515625 
L 36.8125 7.515625 
L 36.8125 0 
L 27.59375 0 
Q 17.1875 0 13.234375 3.875 
Q 9.28125 7.765625 9.28125 18.015625 
L 9.28125 47.703125 
L 2.6875 47.703125 
L 2.6875 54.6875 
L 9.28125 54.6875 
L 9.28125 70.21875 
z
" id="DejaVuSans-116"/>
       <path d="M 44.28125 53.078125 
L 44.28125 44.578125 
Q 40.484375 46.53125 36.375 47.5 
Q 32.28125 48.484375 27.875 48.484375 
Q 21.1875 48.484375 17.84375 46.4375 
Q 14.5 44.390625 14.5 40.28125 
Q 14.5 37.15625 16.890625 35.375 
Q 19.28125 33.59375 26.515625 31.984375 
L 29.59375 31.296875 
Q 39.15625 29.25 43.1875 25.515625 
Q 47.21875 21.78125 47.21875 15.09375 
Q 47.21875 7.46875 41.1875 3.015625 
Q 35.15625 -1.421875 24.609375 -1.421875 
Q 20.21875 -1.421875 15.453125 -0.5625 
Q 10.6875 0.296875 5.421875 2 
L 5.421875 11.28125 
Q 10.40625 8.6875 15.234375 7.390625 
Q 20.0625 6.109375 24.8125 6.109375 
Q 31.15625 6.109375 34.5625 8.28125 
Q 37.984375 10.453125 37.984375 14.40625 
Q 37.984375 18.0625 35.515625 20.015625 
Q 33.0625 21.96875 24.703125 23.78125 
L 21.578125 24.515625 
Q 13.234375 26.265625 9.515625 29.90625 
Q 5.8125 33.546875 5.8125 39.890625 
Q 5.8125 47.609375 11.28125 51.796875 
Q 16.75 56 26.8125 56 
Q 31.78125 56 36.171875 55.265625 
Q 40.578125 54.546875 44.28125 53.078125 
z
" id="DejaVuSans-115"/>
       <path d="M 30.609375 48.390625 
Q 23.390625 48.390625 19.1875 42.75 
Q 14.984375 37.109375 14.984375 27.296875 
Q 14.984375 17.484375 19.15625 11.84375 
Q 23.34375 6.203125 30.609375 6.203125 
Q 37.796875 6.203125 41.984375 11.859375 
Q 46.1875 17.53125 46.1875 27.296875 
Q 46.1875 37.015625 41.984375 42.703125 
Q 37.796875 48.390625 30.609375 48.390625 
z
M 30.609375 56 
Q 42.328125 56 49.015625 48.375 
Q 55.71875 40.765625 55.71875 27.296875 
Q 55.71875 13.875 49.015625 6.21875 
Q 42.328125 -1.421875 30.609375 -1.421875 
Q 18.84375 -1.421875 12.171875 6.21875 
Q 5.515625 13.875 5.515625 27.296875 
Q 5.515625 40.765625 12.171875 48.375 
Q 18.84375 56 30.609375 56 
z
" id="DejaVuSans-111"/>
       <path d="M 52 44.1875 
Q 55.375 50.25 60.0625 53.125 
Q 64.75 56 71.09375 56 
Q 79.640625 56 84.28125 50.015625 
Q 88.921875 44.046875 88.921875 33.015625 
L 88.921875 0 
L 79.890625 0 
L 79.890625 32.71875 
Q 79.890625 40.578125 77.09375 44.375 
Q 74.3125 48.1875 68.609375 48.1875 
Q 61.625 48.1875 57.5625 43.546875 
Q 53.515625 38.921875 53.515625 30.90625 
L 53.515625 0 
L 44.484375 0 
L 44.484375 32.71875 
Q 44.484375 40.625 41.703125 44.40625 
Q 38.921875 48.1875 33.109375 48.1875 
Q 26.21875 48.1875 22.15625 43.53125 
Q 18.109375 38.875 18.109375 30.90625 
L 18.109375 0 
L 9.078125 0 
L 9.078125 54.6875 
L 18.109375 54.6875 
L 18.109375 46.1875 
Q 21.1875 51.21875 25.484375 53.609375 
Q 29.78125 56 35.6875 56 
Q 41.65625 56 45.828125 52.96875 
Q 50 49.953125 52 44.1875 
z
" id="DejaVuSans-109"/>
       <path d="M 54.890625 33.015625 
L 54.890625 0 
L 45.90625 0 
L 45.90625 32.71875 
Q 45.90625 40.484375 42.875 44.328125 
Q 39.84375 48.1875 33.796875 48.1875 
Q 26.515625 48.1875 22.3125 43.546875 
Q 18.109375 38.921875 18.109375 30.90625 
L 18.109375 0 
L 9.078125 0 
L 9.078125 75.984375 
L 18.109375 75.984375 
L 18.109375 46.1875 
Q 21.34375 51.125 25.703125 53.5625 
Q 30.078125 56 35.796875 56 
Q 45.21875 56 50.046875 50.171875 
Q 54.890625 44.34375 54.890625 33.015625 
z
" id="DejaVuSans-104"/>
       <path d="M 54.890625 33.015625 
L 54.890625 0 
L 45.90625 0 
L 45.90625 32.71875 
Q 45.90625 40.484375 42.875 44.328125 
Q 39.84375 48.1875 33.796875 48.1875 
Q 26.515625 48.1875 22.3125 43.546875 
Q 18.109375 38.921875 18.109375 30.90625 
L 18.109375 0 
L 9.078125 0 
L 9.078125 54.6875 
L 18.109375 54.6875 
L 18.109375 46.1875 
Q 21.34375 51.125 25.703125 53.5625 
Q 30.078125 56 35.796875 56 
Q 45.21875 56 50.046875 50.171875 
Q 54.890625 44.34375 54.890625 33.015625 
z
" id="DejaVuSans-110"/>
       <path d="M 45.40625 27.984375 
Q 45.40625 37.75 41.375 43.109375 
Q 37.359375 48.484375 30.078125 48.484375 
Q 22.859375 48.484375 18.828125 43.109375 
Q 14.796875 37.75 14.796875 27.984375 
Q 14.796875 18.265625 18.828125 12.890625 
Q 22.859375 7.515625 30.078125 7.515625 
Q 37.359375 7.515625 41.375 12.890625 
Q 45.40625 18.265625 45.40625 27.984375 
z
M 54.390625 6.78125 
Q 54.390625 -7.171875 48.1875 -13.984375 
Q 42 -20.796875 29.203125 -20.796875 
Q 24.46875 -20.796875 20.265625 -20.09375 
Q 16.0625 -19.390625 12.109375 -17.921875 
L 12.109375 -9.1875 
Q 16.0625 -11.328125 19.921875 -12.34375 
Q 23.78125 -13.375 27.78125 -13.375 
Q 36.625 -13.375 41.015625 -8.765625 
Q 45.40625 -4.15625 45.40625 5.171875 
L 45.40625 9.625 
Q 42.625 4.78125 38.28125 2.390625 
Q 33.9375 0 27.875 0 
Q 17.828125 0 11.671875 7.65625 
Q 5.515625 15.328125 5.515625 27.984375 
Q 5.515625 40.671875 11.671875 48.328125 
Q 17.828125 56 27.875 56 
Q 33.9375 56 38.28125 53.609375 
Q 42.625 51.21875 45.40625 46.390625 
L 45.40625 54.6875 
L 54.390625 54.6875 
z
" id="DejaVuSans-103"/>
       <path d="M 4.203125 54.6875 
L 13.1875 54.6875 
L 24.421875 12.015625 
L 35.59375 54.6875 
L 46.1875 54.6875 
L 57.421875 12.015625 
L 68.609375 54.6875 
L 77.59375 54.6875 
L 63.28125 0 
L 52.6875 0 
L 40.921875 44.828125 
L 29.109375 0 
L 18.5 0 
z
" id="DejaVuSans-119"/>
       <path d="M 48.6875 27.296875 
Q 48.6875 37.203125 44.609375 42.84375 
Q 40.53125 48.484375 33.40625 48.484375 
Q 26.265625 48.484375 22.1875 42.84375 
Q 18.109375 37.203125 18.109375 27.296875 
Q 18.109375 17.390625 22.1875 11.75 
Q 26.265625 6.109375 33.40625 6.109375 
Q 40.53125 6.109375 44.609375 11.75 
Q 48.6875 17.390625 48.6875 27.296875 
z
M 18.109375 46.390625 
Q 20.953125 51.265625 25.265625 53.625 
Q 29.59375 56 35.59375 56 
Q 45.5625 56 51.78125 48.09375 
Q 58.015625 40.1875 58.015625 27.296875 
Q 58.015625 14.40625 51.78125 6.484375 
Q 45.5625 -1.421875 35.59375 -1.421875 
Q 29.59375 -1.421875 25.265625 0.953125 
Q 20.953125 3.328125 18.109375 8.203125 
L 18.109375 0 
L 9.078125 0 
L 9.078125 75.984375 
L 18.109375 75.984375 
z
" id="DejaVuSans-98"/>
       <path d="M 34.28125 27.484375 
Q 23.390625 27.484375 19.1875 25 
Q 14.984375 22.515625 14.984375 16.5 
Q 14.984375 11.71875 18.140625 8.90625 
Q 21.296875 6.109375 26.703125 6.109375 
Q 34.1875 6.109375 38.703125 11.40625 
Q 43.21875 16.703125 43.21875 25.484375 
L 43.21875 27.484375 
z
M 52.203125 31.203125 
L 52.203125 0 
L 43.21875 0 
L 43.21875 8.296875 
Q 40.140625 3.328125 35.546875 0.953125 
Q 30.953125 -1.421875 24.3125 -1.421875 
Q 15.921875 -1.421875 10.953125 3.296875 
Q 6 8.015625 6 15.921875 
Q 6 25.140625 12.171875 29.828125 
Q 18.359375 34.515625 30.609375 34.515625 
L 43.21875 34.515625 
L 43.21875 35.40625 
Q 43.21875 41.609375 39.140625 45 
Q 35.0625 48.390625 27.6875 48.390625 
Q 23 48.390625 18.546875 47.265625 
Q 14.109375 46.140625 10.015625 43.890625 
L 10.015625 52.203125 
Q 14.9375 54.109375 19.578125 55.046875 
Q 24.21875 56 28.609375 56 
Q 40.484375 56 46.34375 49.84375 
Q 52.203125 43.703125 52.203125 31.203125 
z
" id="DejaVuSans-97"/>
       <path d="M 9.421875 75.984375 
L 18.40625 75.984375 
L 18.40625 0 
L 9.421875 0 
z
" id="DejaVuSans-108"/>
       <path d="M 32.171875 -5.078125 
Q 28.375 -14.84375 24.75 -17.8125 
Q 21.140625 -20.796875 15.09375 -20.796875 
L 7.90625 -20.796875 
L 7.90625 -13.28125 
L 13.1875 -13.28125 
Q 16.890625 -13.28125 18.9375 -11.515625 
Q 21 -9.765625 23.484375 -3.21875 
L 25.09375 0.875 
L 2.984375 54.6875 
L 12.5 54.6875 
L 29.59375 11.921875 
L 46.6875 54.6875 
L 56.203125 54.6875 
z
" id="DejaVuSans-121"/>
      </defs>
      <use xlink:href="#DejaVuSans-73"/>
      <use x="29.492188" xlink:href="#DejaVuSans-102"/>
      <use x="64.697266" xlink:href="#DejaVuSans-32"/>
      <use x="96.484375" xlink:href="#DejaVuSans-73"/>
      <use x="125.976562" xlink:href="#DejaVuSans-32"/>
      <use x="157.763672" xlink:href="#DejaVuSans-112"/>
      <use x="221.240234" xlink:href="#DejaVuSans-114"/>
      <use x="260.103516" xlink:href="#DejaVuSans-101"/>
      <use x="321.626953" xlink:href="#DejaVuSans-100"/>
      <use x="385.103516" xlink:href="#DejaVuSans-105"/>
      <use x="412.886719" xlink:href="#DejaVuSans-99"/>
      <use x="467.867188" xlink:href="#DejaVuSans-116"/>
      <use x="507.076172" xlink:href="#DejaVuSans-32"/>
      <use x="538.863281" xlink:href="#DejaVuSans-115"/>
      <use x="590.962891" xlink:href="#DejaVuSans-111"/>
      <use x="652.144531" xlink:href="#DejaVuSans-109"/>
      <use x="749.556641" xlink:href="#DejaVuSans-101"/>
      <use x="811.080078" xlink:href="#DejaVuSans-116"/>
      <use x="850.289062" xlink:href="#DejaVuSans-104"/>
      <use x="913.667969" xlink:href="#DejaVuSans-105"/>
      <use x="941.451172" xlink:href="#DejaVuSans-110"/>
      <use x="1004.830078" xlink:href="#DejaVuSans-103"/>
      <use x="1068.306641" xlink:href="#DejaVuSans-32"/>
      <use x="1100.09375" xlink:href="#DejaVuSans-119"/>
      <use x="1181.880859" xlink:href="#DejaVuSans-105"/>
      <use x="1209.664062" xlink:href="#DejaVuSans-116"/>
      <use x="1248.873047" xlink:href="#DejaVuSans-104"/>
      <use x="1312.251953" xlink:href="#DejaVuSans-32"/>
      <use x="1344.039062" xlink:href="#DejaVuSans-116"/>
      <use x="1383.248047" xlink:href="#DejaVuSans-104"/>
      <use x="1446.626953" xlink:href="#DejaVuSans-105"/>
      <use x="1474.410156" xlink:href="#DejaVuSans-115"/>
      <use x="1526.509766" xlink:href="#DejaVuSans-32"/>
      <use x="1558.296875" xlink:href="#DejaVuSans-112"/>
      <use x="1621.773438" xlink:href="#DejaVuSans-114"/>
      <use x="1660.636719" xlink:href="#DejaVuSans-111"/>
      <use x="1721.818359" xlink:href="#DejaVuSans-98"/>
      <use x="1785.294922" xlink:href="#DejaVuSans-97"/>
      <use x="1846.574219" xlink:href="#DejaVuSans-98"/>
      <use x="1910.050781" xlink:href="#DejaVuSans-105"/>
      <use x="1937.833984" xlink:href="#DejaVuSans-108"/>
      <use x="1965.617188" xlink:href="#DejaVuSans-105"/>
      <use x="1993.400391" xlink:href="#DejaVuSans-116"/>
      <use x="2032.609375" xlink:href="#DejaVuSans-121"/>
      <use x="2077.539062" xlink:href="#DejaVuSans-46"/>
      <use x="2109.326172" xlink:href="#DejaVuSans-46"/>
      <use x="2141.113281" xlink:href="#DejaVuSans-46"/>
     </g>
    </g>
   </g>
   <g id="matplotlib.axis_2">
    <g id="ytick_1">
     <g id="line2d_8">
      <defs>
       <path d="M 0 0 
L -3.5 0 
" id="m0c39da3656" style="stroke:#000000;stroke-width:0.8;"/>
      </defs>
      <g>
       <use style="stroke:#000000;stroke-width:0.8;" x="63" xlink:href="#m0c39da3656" y="448.56"/>
      </g>
     </g>
     <g id="text_9">
      <!-- 0.4 -->
      <g transform="translate(40.096875 452.359219)scale(0.1 -0.1)">
       <use xlink:href="#DejaVuSans-48"/>
       <use x="63.623047" xlink:href="#DejaVuSans-46"/>
       <use x="95.410156" xlink:href="#DejaVuSans-52"/>
      </g>
     </g>
    </g>
    <g id="ytick_2">
     <g id="line2d_9">
      <g>
       <use style="stroke:#000000;stroke-width:0.8;" x="63" xlink:href="#m0c39da3656" y="383.88"/>
      </g>
     </g>
     <g id="text_10">
      <!-- 0.5 -->
      <g transform="translate(40.096875 387.679219)scale(0.1 -0.1)">
       <use xlink:href="#DejaVuSans-48"/>
       <use x="63.623047" xlink:href="#DejaVuSans-46"/>
       <use x="95.410156" xlink:href="#DejaVuSans-53"/>
      </g>
     </g>
    </g>
    <g id="ytick_3">
     <g id="line2d_10">
      <g>
       <use style="stroke:#000000;stroke-width:0.8;" x="63" xlink:href="#m0c39da3656" y="319.2"/>
      </g>
     </g>
     <g id="text_11">
      <!-- 0.6 -->
      <g transform="translate(40.096875 322.999219)scale(0.1 -0.1)">
       <use xlink:href="#DejaVuSans-48"/>
       <use x="63.623047" xlink:href="#DejaVuSans-46"/>
       <use x="95.410156" xlink:href="#DejaVuSans-54"/>
      </g>
     </g>
    </g>
    <g id="ytick_4">
     <g id="line2d_11">
      <g>
       <use style="stroke:#000000;stroke-width:0.8;" x="63" xlink:href="#m0c39da3656" y="254.52"/>
      </g>
     </g>
     <g id="text_12">
      <!-- 0.7 -->
      <g transform="translate(40.096875 258.319219)scale(0.1 -0.1)">
       <use xlink:href="#DejaVuSans-48"/>
       <use x="63.623047" xlink:href="#DejaVuSans-46"/>
       <use x="95.410156" xlink:href="#DejaVuSans-55"/>
      </g>
     </g>
    </g>
    <g id="ytick_5">
     <g id="line2d_12">
      <g>
       <use style="stroke:#000000;stroke-width:0.8;" x="63" xlink:href="#m0c39da3656" y="189.84"/>
      </g>
     </g>
     <g id="text_13">
      <!-- 0.8 -->
      <g transform="translate(40.096875 193.639219)scale(0.1 -0.1)">
       <use xlink:href="#DejaVuSans-48"/>
       <use x="63.623047" xlink:href="#DejaVuSans-46"/>
       <use x="95.410156" xlink:href="#DejaVuSans-56"/>
      </g>
     </g>
    </g>
    <g id="ytick_6">
     <g id="line2d_13">
      <g>
       <use style="stroke:#000000;stroke-width:0.8;" x="63" xlink:href="#m0c39da3656" y="125.16"/>
      </g>
     </g>
     <g id="text_14">
      <!-- 0.9 -->
      <g transform="translate(40.096875 128.959219)scale(0.1 -0.1)">
       <use xlink:href="#DejaVuSans-48"/>
       <use x="63.623047" xlink:href="#DejaVuSans-46"/>
       <use x="95.410156" xlink:href="#DejaVuSans-57"/>
      </g>
     </g>
    </g>
    <g id="ytick_7">
     <g id="line2d_14">
      <g>
       <use style="stroke:#000000;stroke-width:0.8;" x="63" xlink:href="#m0c39da3656" y="60.48"/>
      </g>
     </g>
     <g id="text_15">
      <!-- 1.0 -->
      <g transform="translate(40.096875 64.279219)scale(0.1 -0.1)">
       <use xlink:href="#DejaVuSans-49"/>
       <use x="63.623047" xlink:href="#DejaVuSans-46"/>
       <use x="95.410156" xlink:href="#DejaVuSans-48"/>
      </g>
     </g>
    </g>
    <g id="text_16">
     <!-- then it has this probability of coming true... -->
     <g transform="translate(34.017187 363.261406)rotate(-90)scale(0.1 -0.1)">
      <defs>
       <path d="M 8.5 21.578125 
L 8.5 54.6875 
L 17.484375 54.6875 
L 17.484375 21.921875 
Q 17.484375 14.15625 20.5 10.265625 
Q 23.53125 6.390625 29.59375 6.390625 
Q 36.859375 6.390625 41.078125 11.03125 
Q 45.3125 15.671875 45.3125 23.6875 
L 45.3125 54.6875 
L 54.296875 54.6875 
L 54.296875 0 
L 45.3125 0 
L 45.3125 8.40625 
Q 42.046875 3.421875 37.71875 1 
Q 33.40625 -1.421875 27.6875 -1.421875 
Q 18.265625 -1.421875 13.375 4.4375 
Q 8.5 10.296875 8.5 21.578125 
z
M 31.109375 56 
z
" id="DejaVuSans-117"/>
      </defs>
      <use xlink:href="#DejaVuSans-116"/>
      <use x="39.208984" xlink:href="#DejaVuSans-104"/>
      <use x="102.587891" xlink:href="#DejaVuSans-101"/>
      <use x="164.111328" xlink:href="#DejaVuSans-110"/>
      <use x="227.490234" xlink:href="#DejaVuSans-32"/>
      <use x="259.277344" xlink:href="#DejaVuSans-105"/>
      <use x="287.060547" xlink:href="#DejaVuSans-116"/>
      <use x="326.269531" xlink:href="#DejaVuSans-32"/>
      <use x="358.056641" xlink:href="#DejaVuSans-104"/>
      <use x="421.435547" xlink:href="#DejaVuSans-97"/>
      <use x="482.714844" xlink:href="#DejaVuSans-115"/>
      <use x="534.814453" xlink:href="#DejaVuSans-32"/>
      <use x="566.601562" xlink:href="#DejaVuSans-116"/>
      <use x="605.810547" xlink:href="#DejaVuSans-104"/>
      <use x="669.189453" xlink:href="#DejaVuSans-105"/>
      <use x="696.972656" xlink:href="#DejaVuSans-115"/>
      <use x="749.072266" xlink:href="#DejaVuSans-32"/>
      <use x="780.859375" xlink:href="#DejaVuSans-112"/>
      <use x="844.335938" xlink:href="#DejaVuSans-114"/>
      <use x="883.199219" xlink:href="#DejaVuSans-111"/>
      <use x="944.380859" xlink:href="#DejaVuSans-98"/>
      <use x="1007.857422" xlink:href="#DejaVuSans-97"/>
      <use x="1069.136719" xlink:href="#DejaVuSans-98"/>
      <use x="1132.613281" xlink:href="#DejaVuSans-105"/>
      <use x="1160.396484" xlink:href="#DejaVuSans-108"/>
      <use x="1188.179688" xlink:href="#DejaVuSans-105"/>
      <use x="1215.962891" xlink:href="#DejaVuSans-116"/>
      <use x="1255.171875" xlink:href="#DejaVuSans-121"/>
      <use x="1314.351562" xlink:href="#DejaVuSans-32"/>
      <use x="1346.138672" xlink:href="#DejaVuSans-111"/>
      <use x="1407.320312" xlink:href="#DejaVuSans-102"/>
      <use x="1442.525391" xlink:href="#DejaVuSans-32"/>
      <use x="1474.3125" xlink:href="#DejaVuSans-99"/>
      <use x="1529.292969" xlink:href="#DejaVuSans-111"/>
      <use x="1590.474609" xlink:href="#DejaVuSans-109"/>
      <use x="1687.886719" xlink:href="#DejaVuSans-105"/>
      <use x="1715.669922" xlink:href="#DejaVuSans-110"/>
      <use x="1779.048828" xlink:href="#DejaVuSans-103"/>
      <use x="1842.525391" xlink:href="#DejaVuSans-32"/>
      <use x="1874.3125" xlink:href="#DejaVuSans-116"/>
      <use x="1913.521484" xlink:href="#DejaVuSans-114"/>
      <use x="1954.634766" xlink:href="#DejaVuSans-117"/>
      <use x="2018.013672" xlink:href="#DejaVuSans-101"/>
      <use x="2079.537109" xlink:href="#DejaVuSans-46"/>
      <use x="2111.324219" xlink:href="#DejaVuSans-46"/>
      <use x="2143.111328" xlink:href="#DejaVuSans-46"/>
     </g>
    </g>
   </g>
   <g id="line2d_15">
    <path clip-path="url(#p5d37ee4fce)" d="M 128.1 437.540723 
L 146.364529 420.253177 
L 163.976754 403.275672 
L 181.588978 385.981952 
L 198.548898 369.015721 
L 215.508818 351.72772 
L 231.816433 334.786736 
L 248.124048 317.518974 
L 263.779359 300.619475 
L 279.434669 283.388272 
L 294.437675 266.547882 
L 309.440681 249.370305 
L 323.791383 232.606775 
L 338.142084 215.498976 
L 351.840481 198.82804 
L 365.538878 181.802183 
L 378.58497 165.233261 
L 390.978758 149.147301 
L 403.372545 132.693455 
L 415.114028 116.728229 
L 426.203206 101.264102 
L 435.987776 87.246579 
L 444.467735 74.729005 
L 450.990782 64.728156 
L 452.947695 61.588204 
L 452.947695 61.588204 
" style="fill:none;stroke:#0000ff;stroke-linecap:square;stroke-width:1.5;"/>
   </g>
   <g id="line2d_16">
    <path clip-path="url(#p5d37ee4fce)" d="M 128.1 383.88 
L 452.947695 61.128096 
L 452.947695 61.128096 
" style="fill:none;stroke:#000000;stroke-linecap:square;stroke-width:1.5;"/>
   </g>
   <g id="patch_3">
    <path d="M 63 448.56 
L 63 60.48 
" style="fill:none;stroke:#000000;stroke-linecap:square;stroke-linejoin:miter;stroke-width:0.8;"/>
   </g>
   <g id="patch_4">
    <path d="M 453.6 448.56 
L 453.6 60.48 
" style="fill:none;stroke:#000000;stroke-linecap:square;stroke-linejoin:miter;stroke-width:0.8;"/>
   </g>
   <g id="patch_5">
    <path d="M 63 448.56 
L 453.6 448.56 
" style="fill:none;stroke:#000000;stroke-linecap:square;stroke-linejoin:miter;stroke-width:0.8;"/>
   </g>
   <g id="patch_6">
    <path d="M 63 60.48 
L 453.6 60.48 
" style="fill:none;stroke:#000000;stroke-linecap:square;stroke-linejoin:miter;stroke-width:0.8;"/>
   </g>
   <g id="text_17">
    <!-- Posterior Predictive of Bayesian Logistic Model -->
    <g transform="translate(118.742813 54.48)scale(0.12 -0.12)">
     <defs>
      <path d="M 19.671875 64.796875 
L 19.671875 37.40625 
L 32.078125 37.40625 
Q 38.96875 37.40625 42.71875 40.96875 
Q 46.484375 44.53125 46.484375 51.125 
Q 46.484375 57.671875 42.71875 61.234375 
Q 38.96875 64.796875 32.078125 64.796875 
z
M 9.8125 72.90625 
L 32.078125 72.90625 
Q 44.34375 72.90625 50.609375 67.359375 
Q 56.890625 61.8125 56.890625 51.125 
Q 56.890625 40.328125 50.609375 34.8125 
Q 44.34375 29.296875 32.078125 29.296875 
L 19.671875 29.296875 
L 19.671875 0 
L 9.8125 0 
z
" id="DejaVuSans-80"/>
      <path d="M 2.984375 54.6875 
L 12.5 54.6875 
L 29.59375 8.796875 
L 46.6875 54.6875 
L 56.203125 54.6875 
L 35.6875 0 
L 23.484375 0 
z
" id="DejaVuSans-118"/>
      <path d="M 19.671875 34.8125 
L 19.671875 8.109375 
L 35.5 8.109375 
Q 43.453125 8.109375 47.28125 11.40625 
Q 51.125 14.703125 51.125 21.484375 
Q 51.125 28.328125 47.28125 31.5625 
Q 43.453125 34.8125 35.5 34.8125 
z
M 19.671875 64.796875 
L 19.671875 42.828125 
L 34.28125 42.828125 
Q 41.5 42.828125 45.03125 45.53125 
Q 48.578125 48.25 48.578125 53.8125 
Q 48.578125 59.328125 45.03125 62.0625 
Q 41.5 64.796875 34.28125 64.796875 
z
M 9.8125 72.90625 
L 35.015625 72.90625 
Q 46.296875 72.90625 52.390625 68.21875 
Q 58.5 63.53125 58.5 54.890625 
Q 58.5 48.1875 55.375 44.234375 
Q 52.25 40.28125 46.1875 39.3125 
Q 53.46875 37.75 57.5 32.78125 
Q 61.53125 27.828125 61.53125 20.40625 
Q 61.53125 10.640625 54.890625 5.3125 
Q 48.25 0 35.984375 0 
L 9.8125 0 
z
" id="DejaVuSans-66"/>
      <path d="M 9.8125 72.90625 
L 19.671875 72.90625 
L 19.671875 8.296875 
L 55.171875 8.296875 
L 55.171875 0 
L 9.8125 0 
z
" id="DejaVuSans-76"/>
      <path d="M 9.8125 72.90625 
L 24.515625 72.90625 
L 43.109375 23.296875 
L 61.8125 72.90625 
L 76.515625 72.90625 
L 76.515625 0 
L 66.890625 0 
L 66.890625 64.015625 
L 48.09375 14.015625 
L 38.1875 14.015625 
L 19.390625 64.015625 
L 19.390625 0 
L 9.8125 0 
z
" id="DejaVuSans-77"/>
     </defs>
     <use xlink:href="#DejaVuSans-80"/>
     <use x="56.677734" xlink:href="#DejaVuSans-111"/>
     <use x="117.859375" xlink:href="#DejaVuSans-115"/>
     <use x="169.958984" xlink:href="#DejaVuSans-116"/>
     <use x="209.167969" xlink:href="#DejaVuSans-101"/>
     <use x="270.691406" xlink:href="#DejaVuSans-114"/>
     <use x="311.804688" xlink:href="#DejaVuSans-105"/>
     <use x="339.587891" xlink:href="#DejaVuSans-111"/>
     <use x="400.769531" xlink:href="#DejaVuSans-114"/>
     <use x="441.882812" xlink:href="#DejaVuSans-32"/>
     <use x="473.669922" xlink:href="#DejaVuSans-80"/>
     <use x="532.222656" xlink:href="#DejaVuSans-114"/>
     <use x="571.085938" xlink:href="#DejaVuSans-101"/>
     <use x="632.609375" xlink:href="#DejaVuSans-100"/>
     <use x="696.085938" xlink:href="#DejaVuSans-105"/>
     <use x="723.869141" xlink:href="#DejaVuSans-99"/>
     <use x="778.849609" xlink:href="#DejaVuSans-116"/>
     <use x="818.058594" xlink:href="#DejaVuSans-105"/>
     <use x="845.841797" xlink:href="#DejaVuSans-118"/>
     <use x="905.021484" xlink:href="#DejaVuSans-101"/>
     <use x="966.544922" xlink:href="#DejaVuSans-32"/>
     <use x="998.332031" xlink:href="#DejaVuSans-111"/>
     <use x="1059.513672" xlink:href="#DejaVuSans-102"/>
     <use x="1094.71875" xlink:href="#DejaVuSans-32"/>
     <use x="1126.505859" xlink:href="#DejaVuSans-66"/>
     <use x="1195.109375" xlink:href="#DejaVuSans-97"/>
     <use x="1256.388672" xlink:href="#DejaVuSans-121"/>
     <use x="1315.568359" xlink:href="#DejaVuSans-101"/>
     <use x="1377.091797" xlink:href="#DejaVuSans-115"/>
     <use x="1429.191406" xlink:href="#DejaVuSans-105"/>
     <use x="1456.974609" xlink:href="#DejaVuSans-97"/>
     <use x="1518.253906" xlink:href="#DejaVuSans-110"/>
     <use x="1581.632812" xlink:href="#DejaVuSans-32"/>
     <use x="1613.419922" xlink:href="#DejaVuSans-76"/>
     <use x="1667.382812" xlink:href="#DejaVuSans-111"/>
     <use x="1728.564453" xlink:href="#DejaVuSans-103"/>
     <use x="1792.041016" xlink:href="#DejaVuSans-105"/>
     <use x="1819.824219" xlink:href="#DejaVuSans-115"/>
     <use x="1871.923828" xlink:href="#DejaVuSans-116"/>
     <use x="1911.132812" xlink:href="#DejaVuSans-105"/>
     <use x="1938.916016" xlink:href="#DejaVuSans-99"/>
     <use x="1993.896484" xlink:href="#DejaVuSans-32"/>
     <use x="2025.683594" xlink:href="#DejaVuSans-77"/>
     <use x="2111.962891" xlink:href="#DejaVuSans-111"/>
     <use x="2173.144531" xlink:href="#DejaVuSans-100"/>
     <use x="2236.621094" xlink:href="#DejaVuSans-101"/>
     <use x="2298.144531" xlink:href="#DejaVuSans-108"/>
    </g>
   </g>
  </g>
 </g>
 <defs>
  <clipPath id="p5d37ee4fce">
   <rect height="388.08" width="390.6" x="63" y="60.48"/>
  </clipPath>
 </defs>
</svg>
