<?xml version="1.0" encoding="utf-8" standalone="no"?>
<!DOCTYPE svg PUBLIC "-//W3C//DTD SVG 1.1//EN"
  "http://www.w3.org/Graphics/SVG/1.1/DTD/svg11.dtd">
<!-- Created with matplotlib (https://matplotlib.org/) -->
<svg height="360pt" version="1.1" viewBox="0 0 720 360" width="720pt" xmlns="http://www.w3.org/2000/svg" xmlns:xlink="http://www.w3.org/1999/xlink">
 <metadata>
  <rdf:RDF xmlns:cc="http://creativecommons.org/ns#" xmlns:dc="http://purl.org/dc/elements/1.1/" xmlns:rdf="http://www.w3.org/1999/02/22-rdf-syntax-ns#">
   <cc:Work>
    <dc:type rdf:resource="http://purl.org/dc/dcmitype/StillImage"/>
    <dc:date>2020-12-12T10:08:32.274293</dc:date>
    <dc:format>image/svg+xml</dc:format>
    <dc:creator>
     <cc:Agent>
      <dc:title>Matplotlib v3.3.3, https://matplotlib.org/</dc:title>
     </cc:Agent>
    </dc:creator>
   </cc:Work>
  </rdf:RDF>
 </metadata>
 <defs>
  <style type="text/css">*{stroke-linecap:butt;stroke-linejoin:round;}</style>
 </defs>
 <g id="figure_1">
  <g id="patch_1">
   <path d="M 0 360 
L 720 360 
L 720 0 
L 0 0 
z
" style="fill:#ffffff;"/>
  </g>
  <g id="axes_1">
   <g id="patch_2">
    <path d="M 90 320.4 
L 343.636364 320.4 
L 343.636364 43.2 
L 90 43.2 
z
" style="fill:#ffffff;"/>
   </g>
   <g id="PolyCollection_1">
    <defs>
     <path d="M 101.528926 -52.2 
L 101.528926 -53.884685 
L 101.980156 -53.8887 
L 102.431386 -53.901391 
L 102.882616 -53.919814 
L 103.333845 -53.943934 
L 103.785075 -53.976626 
L 104.236305 -54.012597 
L 104.687535 -54.051743 
L 105.138765 -54.099141 
L 105.589995 -54.14931 
L 106.041225 -54.207813 
L 106.492455 -54.272042 
L 106.943685 -54.344128 
L 107.394915 -54.420962 
L 107.846145 -54.502332 
L 108.297375 -54.587991 
L 108.748605 -54.683529 
L 109.199835 -54.774034 
L 109.651065 -54.874428 
L 110.102295 -54.978054 
L 110.553525 -55.08467 
L 111.004755 -55.191108 
L 111.455985 -55.299412 
L 111.907215 -55.409254 
L 112.358445 -55.526742 
L 112.809675 -55.641192 
L 113.260905 -55.759545 
L 113.712135 -55.876433 
L 114.163365 -55.99413 
L 114.614595 -56.116058 
L 115.065825 -56.245815 
L 115.517055 -56.369691 
L 115.968285 -56.497923 
L 116.419514 -56.628448 
L 116.870744 -56.758692 
L 117.321974 -56.891325 
L 117.773204 -57.029577 
L 118.224434 -57.171475 
L 118.675664 -57.314487 
L 119.126894 -57.461263 
L 119.578124 -57.612024 
L 120.029354 -57.769852 
L 120.480584 -57.947217 
L 120.931814 -58.118206 
L 121.383044 -58.300675 
L 121.834274 -58.487153 
L 122.285504 -58.674751 
L 122.736734 -58.874405 
L 123.187964 -59.077762 
L 123.639194 -59.292231 
L 124.090424 -59.504102 
L 124.541654 -59.722916 
L 124.992884 -59.951655 
L 125.444114 -60.188159 
L 125.895344 -60.42982 
L 126.346574 -60.667645 
L 126.797804 -60.925909 
L 127.249034 -61.178833 
L 127.700264 -61.432939 
L 128.151494 -61.699346 
L 128.602724 -61.977164 
L 129.053954 -62.250678 
L 129.505183 -62.527027 
L 129.956413 -62.812134 
L 130.407643 -63.093304 
L 130.858873 -63.395321 
L 131.310103 -63.698179 
L 131.761333 -64.01594 
L 132.212563 -64.342264 
L 132.663793 -64.68727 
L 133.115023 -65.041921 
L 133.566253 -65.420638 
L 134.017483 -65.80919 
L 134.468713 -66.219002 
L 134.919943 -66.657847 
L 135.371173 -67.105466 
L 135.822403 -67.593898 
L 136.273633 -68.095547 
L 136.724863 -68.630127 
L 137.176093 -69.188299 
L 137.627323 -69.766946 
L 138.078553 -70.376563 
L 138.529783 -71.012704 
L 138.981013 -71.6754 
L 139.432243 -72.349187 
L 139.883473 -73.0614 
L 140.334703 -73.784732 
L 140.785933 -74.538461 
L 141.237163 -75.307775 
L 141.688393 -76.089999 
L 142.139623 -76.890971 
L 142.590852 -77.70358 
L 143.042082 -78.528878 
L 143.493312 -79.368552 
L 143.944542 -80.212274 
L 144.395772 -81.065661 
L 144.847002 -81.916359 
L 145.298232 -82.767384 
L 145.749462 -83.620696 
L 146.200692 -84.458091 
L 146.651922 -85.307117 
L 147.103152 -86.150067 
L 147.554382 -87.003734 
L 148.005612 -87.833956 
L 148.456842 -88.669341 
L 148.908072 -89.521252 
L 149.359302 -90.345086 
L 149.810532 -91.15941 
L 150.261762 -91.998889 
L 150.712992 -92.836721 
L 151.164222 -93.691695 
L 151.615452 -94.555504 
L 152.066682 -95.421223 
L 152.517912 -96.333321 
L 152.969142 -97.257265 
L 153.420372 -98.19684 
L 153.871602 -99.156611 
L 154.322832 -100.13424 
L 154.774062 -101.176838 
L 155.225292 -102.246463 
L 155.676521 -103.364287 
L 156.127751 -104.522604 
L 156.578981 -105.718626 
L 157.030211 -106.963046 
L 157.481441 -108.262169 
L 157.932671 -109.608555 
L 158.383901 -111.017694 
L 158.835131 -112.45098 
L 159.286361 -113.954404 
L 159.737591 -115.506117 
L 160.188821 -117.119786 
L 160.640051 -118.78141 
L 161.091281 -120.497205 
L 161.542511 -122.24025 
L 161.993741 -124.033857 
L 162.444971 -125.859753 
L 162.896201 -127.732917 
L 163.347431 -129.632549 
L 163.798661 -131.562665 
L 164.249891 -133.512475 
L 164.701121 -135.491936 
L 165.152351 -137.504654 
L 165.603581 -139.526551 
L 166.054811 -141.569415 
L 166.506041 -143.61595 
L 166.957271 -145.645834 
L 167.408501 -147.705117 
L 167.859731 -149.747244 
L 168.310961 -151.79861 
L 168.76219 -153.86107 
L 169.21342 -155.904466 
L 169.66465 -157.935302 
L 170.11588 -159.969743 
L 170.56711 -161.965138 
L 171.01834 -163.947338 
L 171.46957 -165.935652 
L 171.9208 -167.901859 
L 172.37203 -169.857383 
L 172.82326 -171.777393 
L 173.27449 -173.687253 
L 173.72572 -175.570276 
L 174.17695 -177.448468 
L 174.62818 -179.293785 
L 175.07941 -181.114595 
L 175.53064 -182.909725 
L 175.98187 -184.677969 
L 176.4331 -186.46097 
L 176.88433 -188.196242 
L 177.33556 -189.941111 
L 177.78679 -191.608418 
L 178.23802 -193.297296 
L 178.68925 -194.959214 
L 179.14048 -196.612239 
L 179.59171 -198.249135 
L 180.04294 -199.865819 
L 180.49417 -201.461693 
L 180.9454 -203.072523 
L 181.39663 -204.662298 
L 181.847859 -206.207286 
L 182.299089 -207.799391 
L 182.750319 -209.367929 
L 183.201549 -210.946736 
L 183.652779 -212.521654 
L 184.104009 -214.108832 
L 184.555239 -215.701524 
L 185.006469 -217.316929 
L 185.457699 -218.938267 
L 185.908929 -220.597306 
L 186.360159 -222.259131 
L 186.811389 -223.959348 
L 187.262619 -225.690128 
L 187.713849 -227.437689 
L 188.165079 -229.230737 
L 188.616309 -231.033258 
L 189.067539 -232.852949 
L 189.518769 -234.732901 
L 189.969999 -236.642686 
L 190.421229 -238.578793 
L 190.872459 -240.535481 
L 191.323689 -242.558322 
L 191.774919 -244.610817 
L 192.226149 -246.675185 
L 192.677379 -248.744491 
L 193.128609 -250.826116 
L 193.579839 -252.937673 
L 194.031069 -255.086211 
L 194.482299 -257.212421 
L 194.933528 -259.380478 
L 195.384758 -261.535522 
L 195.835988 -263.692725 
L 196.287218 -265.835203 
L 196.738448 -267.92607 
L 197.189678 -270.012965 
L 197.640908 -272.080878 
L 198.092138 -274.149156 
L 198.543368 -276.161962 
L 198.994598 -278.109142 
L 199.445828 -280.026773 
L 199.897058 -281.866365 
L 200.348288 -283.643129 
L 200.799518 -285.397288 
L 201.250748 -287.041982 
L 201.701978 -288.639572 
L 202.153208 -290.135993 
L 202.604438 -291.55263 
L 203.055668 -292.869022 
L 203.506898 -294.117314 
L 203.958128 -295.275411 
L 204.409358 -296.351205 
L 204.860588 -297.321999 
L 205.311818 -298.218334 
L 205.763048 -299.03525 
L 206.214278 -299.754297 
L 206.665508 -300.388953 
L 207.116738 -300.91776 
L 207.567968 -301.41265 
L 208.019197 -301.804419 
L 208.470427 -302.151316 
L 208.921657 -302.433142 
L 209.372887 -302.643281 
L 209.824117 -302.841814 
L 210.275347 -302.990345 
L 210.726577 -303.053714 
L 211.177807 -303.117145 
L 211.629037 -303.153667 
L 212.080267 -303.169233 
L 212.531497 -303.173752 
L 212.982727 -303.207039 
L 213.433957 -303.203871 
L 213.885187 -303.191307 
L 214.336417 -303.204762 
L 214.787647 -303.209676 
L 215.238877 -303.239287 
L 215.690107 -303.267048 
L 216.141337 -303.299491 
L 216.592567 -303.327536 
L 217.043797 -303.431019 
L 217.495027 -303.487571 
L 217.946257 -303.587125 
L 218.397487 -303.674584 
L 218.848717 -303.757916 
L 219.299947 -303.821084 
L 219.751177 -303.924694 
L 220.202407 -304.005029 
L 220.653637 -304.088896 
L 221.104866 -304.144173 
L 221.556096 -304.183759 
L 222.007326 -304.2 
L 222.458556 -304.19648 
L 222.909786 -304.148618 
L 223.361016 -304.101193 
L 223.812246 -304.033527 
L 224.263476 -303.891029 
L 224.714706 -303.712943 
L 225.165936 -303.48899 
L 225.617166 -303.235357 
L 226.068396 -302.953432 
L 226.519626 -302.599575 
L 226.970856 -302.211893 
L 227.422086 -301.78113 
L 227.873316 -301.295486 
L 228.324546 -300.777187 
L 228.775776 -300.191909 
L 229.227006 -299.569324 
L 229.678236 -298.904165 
L 230.129466 -298.198512 
L 230.580696 -297.447046 
L 231.031926 -296.654753 
L 231.483156 -295.773469 
L 231.934386 -294.882066 
L 232.385616 -293.904933 
L 232.836846 -292.881811 
L 233.288076 -291.80929 
L 233.739306 -290.710672 
L 234.190535 -289.541982 
L 234.641765 -288.327492 
L 235.092995 -287.057652 
L 235.544225 -285.734484 
L 235.995455 -284.328376 
L 236.446685 -282.872741 
L 236.897915 -281.351081 
L 237.349145 -279.794681 
L 237.800375 -278.180514 
L 238.251605 -276.535016 
L 238.702835 -274.841012 
L 239.154065 -273.089945 
L 239.605295 -271.290644 
L 240.056525 -269.403143 
L 240.507755 -267.506607 
L 240.958985 -265.603745 
L 241.410215 -263.63475 
L 241.861445 -261.656855 
L 242.312675 -259.650213 
L 242.763905 -257.594798 
L 243.215135 -255.546504 
L 243.666365 -253.437635 
L 244.117595 -251.336266 
L 244.568825 -249.242092 
L 245.020055 -247.138308 
L 245.471285 -245.011513 
L 245.922515 -242.878447 
L 246.373745 -240.730076 
L 246.824975 -238.608796 
L 247.276204 -236.462222 
L 247.727434 -234.336844 
L 248.178664 -232.217382 
L 248.629894 -230.075127 
L 249.081124 -227.962722 
L 249.532354 -225.8149 
L 249.983584 -223.726042 
L 250.434814 -221.602811 
L 250.886044 -219.510344 
L 251.337274 -217.395605 
L 251.788504 -215.277008 
L 252.239734 -213.172169 
L 252.690964 -211.097095 
L 253.142194 -209.024547 
L 253.593424 -206.952033 
L 254.044654 -204.879694 
L 254.495884 -202.829985 
L 254.947114 -200.78623 
L 255.398344 -198.752291 
L 255.849574 -196.74594 
L 256.300804 -194.744305 
L 256.752034 -192.775475 
L 257.203264 -190.814332 
L 257.654494 -188.889956 
L 258.105724 -186.984741 
L 258.556954 -185.125059 
L 259.008184 -183.233107 
L 259.459414 -181.430599 
L 259.910644 -179.629595 
L 260.361873 -177.833785 
L 260.813103 -176.103294 
L 261.264333 -174.402661 
L 261.715563 -172.710751 
L 262.166793 -171.047228 
L 262.618023 -169.40317 
L 263.069253 -167.810002 
L 263.520483 -166.226996 
L 263.971713 -164.665876 
L 264.422943 -163.122156 
L 264.874173 -161.595219 
L 265.325403 -160.081972 
L 265.776633 -158.585233 
L 266.227863 -157.094929 
L 266.679093 -155.62628 
L 267.130323 -154.162631 
L 267.581553 -152.714859 
L 268.032783 -151.234089 
L 268.484013 -149.792637 
L 268.935243 -148.327936 
L 269.386473 -146.877989 
L 269.837703 -145.425633 
L 270.288933 -143.972141 
L 270.740163 -142.531992 
L 271.191393 -141.074298 
L 271.642623 -139.615559 
L 272.093853 -138.142417 
L 272.545083 -136.679483 
L 272.996313 -135.218976 
L 273.447542 -133.758144 
L 273.898772 -132.28301 
L 274.350002 -130.845418 
L 274.801232 -129.391903 
L 275.252462 -127.93602 
L 275.703692 -126.465685 
L 276.154922 -125.019004 
L 276.606152 -123.591331 
L 277.057382 -122.171943 
L 277.508612 -120.759338 
L 277.959842 -119.362131 
L 278.411072 -117.98268 
L 278.862302 -116.602142 
L 279.313532 -115.239545 
L 279.764762 -113.893323 
L 280.215992 -112.545252 
L 280.667222 -111.225973 
L 281.118452 -109.925827 
L 281.569682 -108.630354 
L 282.020912 -107.39187 
L 282.472142 -106.160188 
L 282.923372 -104.940428 
L 283.374602 -103.757398 
L 283.825832 -102.586357 
L 284.277062 -101.428479 
L 284.728292 -100.308098 
L 285.179522 -99.20219 
L 285.630752 -98.14517 
L 286.081982 -97.102146 
L 286.533211 -96.075319 
L 286.984441 -95.089522 
L 287.435671 -94.13489 
L 287.886901 -93.198596 
L 288.338131 -92.298034 
L 288.789361 -91.415494 
L 289.240591 -90.565974 
L 289.691821 -89.721384 
L 290.143051 -88.930536 
L 290.594281 -88.175521 
L 291.045511 -87.435011 
L 291.496741 -86.731236 
L 291.947971 -86.034087 
L 292.399201 -85.384116 
L 292.850431 -84.752902 
L 293.301661 -84.160518 
L 293.752891 -83.58728 
L 294.204121 -83.041356 
L 294.655351 -82.516753 
L 295.106581 -82.014924 
L 295.557811 -81.544308 
L 296.009041 -81.085745 
L 296.460271 -80.657357 
L 296.911501 -80.219661 
L 297.362731 -79.820637 
L 297.813961 -79.43535 
L 298.265191 -79.058018 
L 298.716421 -78.700346 
L 299.167651 -78.347185 
L 299.61888 -78.005512 
L 300.07011 -77.668307 
L 300.52134 -77.333243 
L 300.97257 -77.008002 
L 301.4238 -76.678082 
L 301.87503 -76.345326 
L 302.32626 -76.019984 
L 302.77749 -75.686788 
L 303.22872 -75.347493 
L 303.67995 -75.008714 
L 304.13118 -74.651476 
L 304.58241 -74.283653 
L 305.03364 -73.900734 
L 305.48487 -73.527791 
L 305.9361 -73.144286 
L 306.38733 -72.747447 
L 306.83856 -72.335113 
L 307.28979 -71.916267 
L 307.74102 -71.488448 
L 308.19225 -71.051749 
L 308.64348 -70.612282 
L 309.09471 -70.16294 
L 309.54594 -69.701231 
L 309.99717 -69.24647 
L 310.4484 -68.787904 
L 310.89963 -68.324743 
L 311.35086 -67.859079 
L 311.80209 -67.398251 
L 312.25332 -66.940384 
L 312.704549 -66.484703 
L 313.155779 -66.035619 
L 313.607009 -65.602266 
L 314.058239 -65.177531 
L 314.509469 -64.757689 
L 314.960699 -64.349873 
L 315.411929 -63.954687 
L 315.863159 -63.578462 
L 316.314389 -63.209279 
L 316.765619 -62.860775 
L 317.216849 -62.52833 
L 317.668079 -62.215416 
L 318.119309 -61.917227 
L 318.570539 -61.63641 
L 319.021769 -61.370167 
L 319.472999 -61.117123 
L 319.924229 -60.889888 
L 320.375459 -60.671788 
L 320.826689 -60.478181 
L 321.277919 -60.299896 
L 321.729149 -60.137016 
L 322.180379 -59.988986 
L 322.631609 -59.852247 
L 323.082839 -59.72949 
L 323.534069 -59.630506 
L 323.985299 -59.528828 
L 324.436529 -59.447569 
L 324.887759 -59.374793 
L 325.338989 -59.30964 
L 325.790218 -59.260674 
L 326.241448 -59.218428 
L 326.692678 -59.185689 
L 327.143908 -59.157101 
L 327.595138 -59.12667 
L 328.046368 -59.10645 
L 328.497598 -59.087476 
L 328.948828 -59.072446 
L 329.400058 -59.063007 
L 329.851288 -59.052718 
L 330.302518 -59.041497 
L 330.753748 -59.033984 
L 331.204978 -59.034428 
L 331.656208 -59.040298 
L 332.107438 -59.03395 
L 332.107438 -52.2 
L 332.107438 -52.2 
L 331.656208 -52.2 
L 331.204978 -52.2 
L 330.753748 -52.2 
L 330.302518 -52.2 
L 329.851288 -52.2 
L 329.400058 -52.2 
L 328.948828 -52.2 
L 328.497598 -52.2 
L 328.046368 -52.2 
L 327.595138 -52.2 
L 327.143908 -52.2 
L 326.692678 -52.2 
L 326.241448 -52.2 
L 325.790218 -52.2 
L 325.338989 -52.2 
L 324.887759 -52.2 
L 324.436529 -52.2 
L 323.985299 -52.2 
L 323.534069 -52.2 
L 323.082839 -52.2 
L 322.631609 -52.2 
L 322.180379 -52.2 
L 321.729149 -52.2 
L 321.277919 -52.2 
L 320.826689 -52.2 
L 320.375459 -52.2 
L 319.924229 -52.2 
L 319.472999 -52.2 
L 319.021769 -52.2 
L 318.570539 -52.2 
L 318.119309 -52.2 
L 317.668079 -52.2 
L 317.216849 -52.2 
L 316.765619 -52.2 
L 316.314389 -52.2 
L 315.863159 -52.2 
L 315.411929 -52.2 
L 314.960699 -52.2 
L 314.509469 -52.2 
L 314.058239 -52.2 
L 313.607009 -52.2 
L 313.155779 -52.2 
L 312.704549 -52.2 
L 312.25332 -52.2 
L 311.80209 -52.2 
L 311.35086 -52.2 
L 310.89963 -52.2 
L 310.4484 -52.2 
L 309.99717 -52.2 
L 309.54594 -52.2 
L 309.09471 -52.2 
L 308.64348 -52.2 
L 308.19225 -52.2 
L 307.74102 -52.2 
L 307.28979 -52.2 
L 306.83856 -52.2 
L 306.38733 -52.2 
L 305.9361 -52.2 
L 305.48487 -52.2 
L 305.03364 -52.2 
L 304.58241 -52.2 
L 304.13118 -52.2 
L 303.67995 -52.2 
L 303.22872 -52.2 
L 302.77749 -52.2 
L 302.32626 -52.2 
L 301.87503 -52.2 
L 301.4238 -52.2 
L 300.97257 -52.2 
L 300.52134 -52.2 
L 300.07011 -52.2 
L 299.61888 -52.2 
L 299.167651 -52.2 
L 298.716421 -52.2 
L 298.265191 -52.2 
L 297.813961 -52.2 
L 297.362731 -52.2 
L 296.911501 -52.2 
L 296.460271 -52.2 
L 296.009041 -52.2 
L 295.557811 -52.2 
L 295.106581 -52.2 
L 294.655351 -52.2 
L 294.204121 -52.2 
L 293.752891 -52.2 
L 293.301661 -52.2 
L 292.850431 -52.2 
L 292.399201 -52.2 
L 291.947971 -52.2 
L 291.496741 -52.2 
L 291.045511 -52.2 
L 290.594281 -52.2 
L 290.143051 -52.2 
L 289.691821 -52.2 
L 289.240591 -52.2 
L 288.789361 -52.2 
L 288.338131 -52.2 
L 287.886901 -52.2 
L 287.435671 -52.2 
L 286.984441 -52.2 
L 286.533211 -52.2 
L 286.081982 -52.2 
L 285.630752 -52.2 
L 285.179522 -52.2 
L 284.728292 -52.2 
L 284.277062 -52.2 
L 283.825832 -52.2 
L 283.374602 -52.2 
L 282.923372 -52.2 
L 282.472142 -52.2 
L 282.020912 -52.2 
L 281.569682 -52.2 
L 281.118452 -52.2 
L 280.667222 -52.2 
L 280.215992 -52.2 
L 279.764762 -52.2 
L 279.313532 -52.2 
L 278.862302 -52.2 
L 278.411072 -52.2 
L 277.959842 -52.2 
L 277.508612 -52.2 
L 277.057382 -52.2 
L 276.606152 -52.2 
L 276.154922 -52.2 
L 275.703692 -52.2 
L 275.252462 -52.2 
L 274.801232 -52.2 
L 274.350002 -52.2 
L 273.898772 -52.2 
L 273.447542 -52.2 
L 272.996313 -52.2 
L 272.545083 -52.2 
L 272.093853 -52.2 
L 271.642623 -52.2 
L 271.191393 -52.2 
L 270.740163 -52.2 
L 270.288933 -52.2 
L 269.837703 -52.2 
L 269.386473 -52.2 
L 268.935243 -52.2 
L 268.484013 -52.2 
L 268.032783 -52.2 
L 267.581553 -52.2 
L 267.130323 -52.2 
L 266.679093 -52.2 
L 266.227863 -52.2 
L 265.776633 -52.2 
L 265.325403 -52.2 
L 264.874173 -52.2 
L 264.422943 -52.2 
L 263.971713 -52.2 
L 263.520483 -52.2 
L 263.069253 -52.2 
L 262.618023 -52.2 
L 262.166793 -52.2 
L 261.715563 -52.2 
L 261.264333 -52.2 
L 260.813103 -52.2 
L 260.361873 -52.2 
L 259.910644 -52.2 
L 259.459414 -52.2 
L 259.008184 -52.2 
L 258.556954 -52.2 
L 258.105724 -52.2 
L 257.654494 -52.2 
L 257.203264 -52.2 
L 256.752034 -52.2 
L 256.300804 -52.2 
L 255.849574 -52.2 
L 255.398344 -52.2 
L 254.947114 -52.2 
L 254.495884 -52.2 
L 254.044654 -52.2 
L 253.593424 -52.2 
L 253.142194 -52.2 
L 252.690964 -52.2 
L 252.239734 -52.2 
L 251.788504 -52.2 
L 251.337274 -52.2 
L 250.886044 -52.2 
L 250.434814 -52.2 
L 249.983584 -52.2 
L 249.532354 -52.2 
L 249.081124 -52.2 
L 248.629894 -52.2 
L 248.178664 -52.2 
L 247.727434 -52.2 
L 247.276204 -52.2 
L 246.824975 -52.2 
L 246.373745 -52.2 
L 245.922515 -52.2 
L 245.471285 -52.2 
L 245.020055 -52.2 
L 244.568825 -52.2 
L 244.117595 -52.2 
L 243.666365 -52.2 
L 243.215135 -52.2 
L 242.763905 -52.2 
L 242.312675 -52.2 
L 241.861445 -52.2 
L 241.410215 -52.2 
L 240.958985 -52.2 
L 240.507755 -52.2 
L 240.056525 -52.2 
L 239.605295 -52.2 
L 239.154065 -52.2 
L 238.702835 -52.2 
L 238.251605 -52.2 
L 237.800375 -52.2 
L 237.349145 -52.2 
L 236.897915 -52.2 
L 236.446685 -52.2 
L 235.995455 -52.2 
L 235.544225 -52.2 
L 235.092995 -52.2 
L 234.641765 -52.2 
L 234.190535 -52.2 
L 233.739306 -52.2 
L 233.288076 -52.2 
L 232.836846 -52.2 
L 232.385616 -52.2 
L 231.934386 -52.2 
L 231.483156 -52.2 
L 231.031926 -52.2 
L 230.580696 -52.2 
L 230.129466 -52.2 
L 229.678236 -52.2 
L 229.227006 -52.2 
L 228.775776 -52.2 
L 228.324546 -52.2 
L 227.873316 -52.2 
L 227.422086 -52.2 
L 226.970856 -52.2 
L 226.519626 -52.2 
L 226.068396 -52.2 
L 225.617166 -52.2 
L 225.165936 -52.2 
L 224.714706 -52.2 
L 224.263476 -52.2 
L 223.812246 -52.2 
L 223.361016 -52.2 
L 222.909786 -52.2 
L 222.458556 -52.2 
L 222.007326 -52.2 
L 221.556096 -52.2 
L 221.104866 -52.2 
L 220.653637 -52.2 
L 220.202407 -52.2 
L 219.751177 -52.2 
L 219.299947 -52.2 
L 218.848717 -52.2 
L 218.397487 -52.2 
L 217.946257 -52.2 
L 217.495027 -52.2 
L 217.043797 -52.2 
L 216.592567 -52.2 
L 216.141337 -52.2 
L 215.690107 -52.2 
L 215.238877 -52.2 
L 214.787647 -52.2 
L 214.336417 -52.2 
L 213.885187 -52.2 
L 213.433957 -52.2 
L 212.982727 -52.2 
L 212.531497 -52.2 
L 212.080267 -52.2 
L 211.629037 -52.2 
L 211.177807 -52.2 
L 210.726577 -52.2 
L 210.275347 -52.2 
L 209.824117 -52.2 
L 209.372887 -52.2 
L 208.921657 -52.2 
L 208.470427 -52.2 
L 208.019197 -52.2 
L 207.567968 -52.2 
L 207.116738 -52.2 
L 206.665508 -52.2 
L 206.214278 -52.2 
L 205.763048 -52.2 
L 205.311818 -52.2 
L 204.860588 -52.2 
L 204.409358 -52.2 
L 203.958128 -52.2 
L 203.506898 -52.2 
L 203.055668 -52.2 
L 202.604438 -52.2 
L 202.153208 -52.2 
L 201.701978 -52.2 
L 201.250748 -52.2 
L 200.799518 -52.2 
L 200.348288 -52.2 
L 199.897058 -52.2 
L 199.445828 -52.2 
L 198.994598 -52.2 
L 198.543368 -52.2 
L 198.092138 -52.2 
L 197.640908 -52.2 
L 197.189678 -52.2 
L 196.738448 -52.2 
L 196.287218 -52.2 
L 195.835988 -52.2 
L 195.384758 -52.2 
L 194.933528 -52.2 
L 194.482299 -52.2 
L 194.031069 -52.2 
L 193.579839 -52.2 
L 193.128609 -52.2 
L 192.677379 -52.2 
L 192.226149 -52.2 
L 191.774919 -52.2 
L 191.323689 -52.2 
L 190.872459 -52.2 
L 190.421229 -52.2 
L 189.969999 -52.2 
L 189.518769 -52.2 
L 189.067539 -52.2 
L 188.616309 -52.2 
L 188.165079 -52.2 
L 187.713849 -52.2 
L 187.262619 -52.2 
L 186.811389 -52.2 
L 186.360159 -52.2 
L 185.908929 -52.2 
L 185.457699 -52.2 
L 185.006469 -52.2 
L 184.555239 -52.2 
L 184.104009 -52.2 
L 183.652779 -52.2 
L 183.201549 -52.2 
L 182.750319 -52.2 
L 182.299089 -52.2 
L 181.847859 -52.2 
L 181.39663 -52.2 
L 180.9454 -52.2 
L 180.49417 -52.2 
L 180.04294 -52.2 
L 179.59171 -52.2 
L 179.14048 -52.2 
L 178.68925 -52.2 
L 178.23802 -52.2 
L 177.78679 -52.2 
L 177.33556 -52.2 
L 176.88433 -52.2 
L 176.4331 -52.2 
L 175.98187 -52.2 
L 175.53064 -52.2 
L 175.07941 -52.2 
L 174.62818 -52.2 
L 174.17695 -52.2 
L 173.72572 -52.2 
L 173.27449 -52.2 
L 172.82326 -52.2 
L 172.37203 -52.2 
L 171.9208 -52.2 
L 171.46957 -52.2 
L 171.01834 -52.2 
L 170.56711 -52.2 
L 170.11588 -52.2 
L 169.66465 -52.2 
L 169.21342 -52.2 
L 168.76219 -52.2 
L 168.310961 -52.2 
L 167.859731 -52.2 
L 167.408501 -52.2 
L 166.957271 -52.2 
L 166.506041 -52.2 
L 166.054811 -52.2 
L 165.603581 -52.2 
L 165.152351 -52.2 
L 164.701121 -52.2 
L 164.249891 -52.2 
L 163.798661 -52.2 
L 163.347431 -52.2 
L 162.896201 -52.2 
L 162.444971 -52.2 
L 161.993741 -52.2 
L 161.542511 -52.2 
L 161.091281 -52.2 
L 160.640051 -52.2 
L 160.188821 -52.2 
L 159.737591 -52.2 
L 159.286361 -52.2 
L 158.835131 -52.2 
L 158.383901 -52.2 
L 157.932671 -52.2 
L 157.481441 -52.2 
L 157.030211 -52.2 
L 156.578981 -52.2 
L 156.127751 -52.2 
L 155.676521 -52.2 
L 155.225292 -52.2 
L 154.774062 -52.2 
L 154.322832 -52.2 
L 153.871602 -52.2 
L 153.420372 -52.2 
L 152.969142 -52.2 
L 152.517912 -52.2 
L 152.066682 -52.2 
L 151.615452 -52.2 
L 151.164222 -52.2 
L 150.712992 -52.2 
L 150.261762 -52.2 
L 149.810532 -52.2 
L 149.359302 -52.2 
L 148.908072 -52.2 
L 148.456842 -52.2 
L 148.005612 -52.2 
L 147.554382 -52.2 
L 147.103152 -52.2 
L 146.651922 -52.2 
L 146.200692 -52.2 
L 145.749462 -52.2 
L 145.298232 -52.2 
L 144.847002 -52.2 
L 144.395772 -52.2 
L 143.944542 -52.2 
L 143.493312 -52.2 
L 143.042082 -52.2 
L 142.590852 -52.2 
L 142.139623 -52.2 
L 141.688393 -52.2 
L 141.237163 -52.2 
L 140.785933 -52.2 
L 140.334703 -52.2 
L 139.883473 -52.2 
L 139.432243 -52.2 
L 138.981013 -52.2 
L 138.529783 -52.2 
L 138.078553 -52.2 
L 137.627323 -52.2 
L 137.176093 -52.2 
L 136.724863 -52.2 
L 136.273633 -52.2 
L 135.822403 -52.2 
L 135.371173 -52.2 
L 134.919943 -52.2 
L 134.468713 -52.2 
L 134.017483 -52.2 
L 133.566253 -52.2 
L 133.115023 -52.2 
L 132.663793 -52.2 
L 132.212563 -52.2 
L 131.761333 -52.2 
L 131.310103 -52.2 
L 130.858873 -52.2 
L 130.407643 -52.2 
L 129.956413 -52.2 
L 129.505183 -52.2 
L 129.053954 -52.2 
L 128.602724 -52.2 
L 128.151494 -52.2 
L 127.700264 -52.2 
L 127.249034 -52.2 
L 126.797804 -52.2 
L 126.346574 -52.2 
L 125.895344 -52.2 
L 125.444114 -52.2 
L 124.992884 -52.2 
L 124.541654 -52.2 
L 124.090424 -52.2 
L 123.639194 -52.2 
L 123.187964 -52.2 
L 122.736734 -52.2 
L 122.285504 -52.2 
L 121.834274 -52.2 
L 121.383044 -52.2 
L 120.931814 -52.2 
L 120.480584 -52.2 
L 120.029354 -52.2 
L 119.578124 -52.2 
L 119.126894 -52.2 
L 118.675664 -52.2 
L 118.224434 -52.2 
L 117.773204 -52.2 
L 117.321974 -52.2 
L 116.870744 -52.2 
L 116.419514 -52.2 
L 115.968285 -52.2 
L 115.517055 -52.2 
L 115.065825 -52.2 
L 114.614595 -52.2 
L 114.163365 -52.2 
L 113.712135 -52.2 
L 113.260905 -52.2 
L 112.809675 -52.2 
L 112.358445 -52.2 
L 111.907215 -52.2 
L 111.455985 -52.2 
L 111.004755 -52.2 
L 110.553525 -52.2 
L 110.102295 -52.2 
L 109.651065 -52.2 
L 109.199835 -52.2 
L 108.748605 -52.2 
L 108.297375 -52.2 
L 107.846145 -52.2 
L 107.394915 -52.2 
L 106.943685 -52.2 
L 106.492455 -52.2 
L 106.041225 -52.2 
L 105.589995 -52.2 
L 105.138765 -52.2 
L 104.687535 -52.2 
L 104.236305 -52.2 
L 103.785075 -52.2 
L 103.333845 -52.2 
L 102.882616 -52.2 
L 102.431386 -52.2 
L 101.980156 -52.2 
L 101.528926 -52.2 
z
" id="mdeb3afe8ed" style="stroke:#1f77b4;stroke-opacity:0;"/>
    </defs>
    <g clip-path="url(#p41251c03af)">
     <use style="fill:#1f77b4;fill-opacity:0;stroke:#1f77b4;stroke-opacity:0;" x="0" xlink:href="#mdeb3afe8ed" y="360"/>
    </g>
   </g>
   <g id="matplotlib.axis_1">
    <g id="xtick_1">
     <g id="line2d_1">
      <defs>
       <path d="M 0 0 
L 0 3 
" id="m9322574153" style="stroke:#808080;"/>
      </defs>
      <g>
       <use style="fill:#808080;stroke:#808080;" x="146.573686" xlink:href="#m9322574153" y="320.4"/>
      </g>
     </g>
     <g id="text_1">
      <!-- 0.5 -->
      <g transform="translate(135.441498 337.537813)scale(0.14 -0.14)">
       <defs>
        <path d="M 31.78125 66.40625 
Q 24.171875 66.40625 20.328125 58.90625 
Q 16.5 51.421875 16.5 36.375 
Q 16.5 21.390625 20.328125 13.890625 
Q 24.171875 6.390625 31.78125 6.390625 
Q 39.453125 6.390625 43.28125 13.890625 
Q 47.125 21.390625 47.125 36.375 
Q 47.125 51.421875 43.28125 58.90625 
Q 39.453125 66.40625 31.78125 66.40625 
z
M 31.78125 74.21875 
Q 44.046875 74.21875 50.515625 64.515625 
Q 56.984375 54.828125 56.984375 36.375 
Q 56.984375 17.96875 50.515625 8.265625 
Q 44.046875 -1.421875 31.78125 -1.421875 
Q 19.53125 -1.421875 13.0625 8.265625 
Q 6.59375 17.96875 6.59375 36.375 
Q 6.59375 54.828125 13.0625 64.515625 
Q 19.53125 74.21875 31.78125 74.21875 
z
" id="DejaVuSans-48"/>
        <path d="M 10.6875 12.40625 
L 21 12.40625 
L 21 0 
L 10.6875 0 
z
" id="DejaVuSans-46"/>
        <path d="M 10.796875 72.90625 
L 49.515625 72.90625 
L 49.515625 64.59375 
L 19.828125 64.59375 
L 19.828125 46.734375 
Q 21.96875 47.46875 24.109375 47.828125 
Q 26.265625 48.1875 28.421875 48.1875 
Q 40.625 48.1875 47.75 41.5 
Q 54.890625 34.8125 54.890625 23.390625 
Q 54.890625 11.625 47.5625 5.09375 
Q 40.234375 -1.421875 26.90625 -1.421875 
Q 22.3125 -1.421875 17.546875 -0.640625 
Q 12.796875 0.140625 7.71875 1.703125 
L 7.71875 11.625 
Q 12.109375 9.234375 16.796875 8.0625 
Q 21.484375 6.890625 26.703125 6.890625 
Q 35.15625 6.890625 40.078125 11.328125 
Q 45.015625 15.765625 45.015625 23.390625 
Q 45.015625 31 40.078125 35.4375 
Q 35.15625 39.890625 26.703125 39.890625 
Q 22.75 39.890625 18.8125 39.015625 
Q 14.890625 38.140625 10.796875 36.28125 
z
" id="DejaVuSans-53"/>
       </defs>
       <use xlink:href="#DejaVuSans-48"/>
       <use x="63.623047" xlink:href="#DejaVuSans-46"/>
       <use x="95.410156" xlink:href="#DejaVuSans-53"/>
      </g>
     </g>
    </g>
    <g id="xtick_2">
     <g id="line2d_2">
      <g>
       <use style="fill:#808080;stroke:#808080;" x="225.014183" xlink:href="#m9322574153" y="320.4"/>
      </g>
     </g>
     <g id="text_2">
      <!-- 1.0 -->
      <g transform="translate(213.881995 337.537813)scale(0.14 -0.14)">
       <defs>
        <path d="M 12.40625 8.296875 
L 28.515625 8.296875 
L 28.515625 63.921875 
L 10.984375 60.40625 
L 10.984375 69.390625 
L 28.421875 72.90625 
L 38.28125 72.90625 
L 38.28125 8.296875 
L 54.390625 8.296875 
L 54.390625 0 
L 12.40625 0 
z
" id="DejaVuSans-49"/>
       </defs>
       <use xlink:href="#DejaVuSans-49"/>
       <use x="63.623047" xlink:href="#DejaVuSans-46"/>
       <use x="95.410156" xlink:href="#DejaVuSans-48"/>
      </g>
     </g>
    </g>
    <g id="xtick_3">
     <g id="line2d_3">
      <g>
       <use style="fill:#808080;stroke:#808080;" x="303.45468" xlink:href="#m9322574153" y="320.4"/>
      </g>
     </g>
     <g id="text_3">
      <!-- 1.5 -->
      <g transform="translate(292.322493 337.537813)scale(0.14 -0.14)">
       <use xlink:href="#DejaVuSans-49"/>
       <use x="63.623047" xlink:href="#DejaVuSans-46"/>
       <use x="95.410156" xlink:href="#DejaVuSans-53"/>
      </g>
     </g>
    </g>
   </g>
   <g id="matplotlib.axis_2"/>
   <g id="line2d_4">
    <path clip-path="url(#p41251c03af)" d="M 101.528926 306.115315 
L 104.236305 305.987403 
L 106.943685 305.655872 
L 110.102295 305.021946 
L 115.517055 303.630309 
L 119.578124 302.387976 
L 122.285504 301.325249 
L 125.444114 299.811841 
L 128.602724 298.022836 
L 131.761333 295.98406 
L 133.566253 294.579362 
L 135.371173 292.894534 
L 137.176093 290.811701 
L 138.981013 288.3246 
L 140.785933 285.461539 
L 143.493312 280.631448 
L 152.969142 262.742735 
L 154.774062 258.823162 
L 156.578981 254.281374 
L 158.383901 248.982306 
L 160.188821 242.880214 
L 161.993741 235.966143 
L 164.249891 226.487525 
L 168.310961 208.20139 
L 172.37203 190.142617 
L 175.53064 177.090275 
L 179.14048 163.387761 
L 183.201549 149.053264 
L 186.360159 137.740869 
L 189.067539 127.147051 
L 191.323689 117.441678 
L 195.384758 98.464478 
L 198.543368 83.838038 
L 200.348288 76.356871 
L 201.701978 71.360428 
L 203.055668 67.130978 
L 204.409358 63.648795 
L 205.763048 60.96475 
L 206.665508 59.611047 
L 208.019197 58.195581 
L 208.921657 57.566858 
L 210.275347 57.009655 
L 212.080267 56.830767 
L 216.141337 56.700509 
L 217.495027 56.512429 
L 220.653637 55.911104 
L 222.007326 55.8 
L 223.361016 55.898807 
L 224.263476 56.108971 
L 225.165936 56.51101 
L 226.068396 57.046568 
L 227.422086 58.21887 
L 228.775776 59.808091 
L 230.129466 61.801488 
L 231.483156 64.226531 
L 232.836846 67.118189 
L 234.641765 71.672508 
L 235.995455 75.671624 
L 237.800375 81.819486 
L 239.605295 88.709356 
L 242.312675 100.349787 
L 246.824975 121.391204 
L 253.142194 150.975453 
L 257.203264 169.185668 
L 259.910644 180.370405 
L 262.166793 188.952772 
L 264.874173 198.404781 
L 268.935243 211.672064 
L 279.764762 246.106677 
L 282.020912 252.60813 
L 284.728292 259.691902 
L 286.533211 263.924681 
L 288.338131 267.701966 
L 290.143051 271.069464 
L 291.947971 273.965913 
L 293.752891 276.41272 
L 295.557811 278.455692 
L 297.362731 280.179363 
L 299.61888 281.994488 
L 305.48487 286.472209 
L 307.74102 288.511552 
L 311.35086 292.140921 
L 314.509469 295.242311 
L 316.765619 297.139225 
L 318.570539 298.36359 
L 320.375459 299.328212 
L 322.180379 300.011014 
L 323.985299 300.471172 
L 326.241448 300.781572 
L 329.851288 300.947282 
L 332.107438 300.96605 
L 332.107438 300.96605 
" style="fill:none;stroke:#1f77b4;stroke-linecap:square;stroke-width:1.5;"/>
   </g>
   <g id="line2d_5">
    <path clip-path="url(#p41251c03af)" d="M 152.526016 302.508 
L 288.293236 302.508 
" style="fill:none;stroke:#000000;stroke-width:3;"/>
   </g>
   <g id="patch_3">
    <path d="M 90 320.4 
L 343.636364 320.4 
" style="fill:none;stroke:#808080;stroke-linecap:square;stroke-linejoin:miter;stroke-width:0.8;"/>
   </g>
   <g id="text_4">
    <!-- 0.54  -->
    <g transform="translate(114.360391 289.278)scale(0.15 -0.15)">
     <defs>
      <path d="M 37.796875 64.3125 
L 12.890625 25.390625 
L 37.796875 25.390625 
z
M 35.203125 72.90625 
L 47.609375 72.90625 
L 47.609375 25.390625 
L 58.015625 25.390625 
L 58.015625 17.1875 
L 47.609375 17.1875 
L 47.609375 0 
L 37.796875 0 
L 37.796875 17.1875 
L 4.890625 17.1875 
L 4.890625 26.703125 
z
" id="DejaVuSans-52"/>
      <path id="DejaVuSans-32"/>
     </defs>
     <use xlink:href="#DejaVuSans-48"/>
     <use x="63.623047" xlink:href="#DejaVuSans-46"/>
     <use x="95.410156" xlink:href="#DejaVuSans-53"/>
     <use x="159.033203" xlink:href="#DejaVuSans-52"/>
     <use x="222.65625" xlink:href="#DejaVuSans-32"/>
    </g>
   </g>
   <g id="text_5">
    <!--  1.4 -->
    <g transform="translate(288.293236 289.278)scale(0.15 -0.15)">
     <use xlink:href="#DejaVuSans-32"/>
     <use x="31.787109" xlink:href="#DejaVuSans-49"/>
     <use x="95.410156" xlink:href="#DejaVuSans-46"/>
     <use x="127.197266" xlink:href="#DejaVuSans-52"/>
    </g>
   </g>
   <g id="text_6">
    <!-- 94% HDI -->
    <g transform="translate(187.728376 228.42)scale(0.15 -0.15)">
     <defs>
      <path d="M 10.984375 1.515625 
L 10.984375 10.5 
Q 14.703125 8.734375 18.5 7.8125 
Q 22.3125 6.890625 25.984375 6.890625 
Q 35.75 6.890625 40.890625 13.453125 
Q 46.046875 20.015625 46.78125 33.40625 
Q 43.953125 29.203125 39.59375 26.953125 
Q 35.25 24.703125 29.984375 24.703125 
Q 19.046875 24.703125 12.671875 31.3125 
Q 6.296875 37.9375 6.296875 49.421875 
Q 6.296875 60.640625 12.9375 67.421875 
Q 19.578125 74.21875 30.609375 74.21875 
Q 43.265625 74.21875 49.921875 64.515625 
Q 56.59375 54.828125 56.59375 36.375 
Q 56.59375 19.140625 48.40625 8.859375 
Q 40.234375 -1.421875 26.421875 -1.421875 
Q 22.703125 -1.421875 18.890625 -0.6875 
Q 15.09375 0.046875 10.984375 1.515625 
z
M 30.609375 32.421875 
Q 37.25 32.421875 41.125 36.953125 
Q 45.015625 41.5 45.015625 49.421875 
Q 45.015625 57.28125 41.125 61.84375 
Q 37.25 66.40625 30.609375 66.40625 
Q 23.96875 66.40625 20.09375 61.84375 
Q 16.21875 57.28125 16.21875 49.421875 
Q 16.21875 41.5 20.09375 36.953125 
Q 23.96875 32.421875 30.609375 32.421875 
z
" id="DejaVuSans-57"/>
      <path d="M 72.703125 32.078125 
Q 68.453125 32.078125 66.03125 28.46875 
Q 63.625 24.859375 63.625 18.40625 
Q 63.625 12.0625 66.03125 8.421875 
Q 68.453125 4.78125 72.703125 4.78125 
Q 76.859375 4.78125 79.265625 8.421875 
Q 81.6875 12.0625 81.6875 18.40625 
Q 81.6875 24.8125 79.265625 28.4375 
Q 76.859375 32.078125 72.703125 32.078125 
z
M 72.703125 38.28125 
Q 80.421875 38.28125 84.953125 32.90625 
Q 89.5 27.546875 89.5 18.40625 
Q 89.5 9.28125 84.9375 3.921875 
Q 80.375 -1.421875 72.703125 -1.421875 
Q 64.890625 -1.421875 60.34375 3.921875 
Q 55.8125 9.28125 55.8125 18.40625 
Q 55.8125 27.59375 60.375 32.9375 
Q 64.9375 38.28125 72.703125 38.28125 
z
M 22.3125 68.015625 
Q 18.109375 68.015625 15.6875 64.375 
Q 13.28125 60.75 13.28125 54.390625 
Q 13.28125 47.953125 15.671875 44.328125 
Q 18.0625 40.71875 22.3125 40.71875 
Q 26.5625 40.71875 28.96875 44.328125 
Q 31.390625 47.953125 31.390625 54.390625 
Q 31.390625 60.6875 28.953125 64.34375 
Q 26.515625 68.015625 22.3125 68.015625 
z
M 66.40625 74.21875 
L 74.21875 74.21875 
L 28.609375 -1.421875 
L 20.796875 -1.421875 
z
M 22.3125 74.21875 
Q 30.03125 74.21875 34.609375 68.875 
Q 39.203125 63.53125 39.203125 54.390625 
Q 39.203125 45.171875 34.640625 39.84375 
Q 30.078125 34.515625 22.3125 34.515625 
Q 14.546875 34.515625 10.03125 39.859375 
Q 5.515625 45.21875 5.515625 54.390625 
Q 5.515625 63.484375 10.046875 68.84375 
Q 14.59375 74.21875 22.3125 74.21875 
z
" id="DejaVuSans-37"/>
      <path d="M 9.8125 72.90625 
L 19.671875 72.90625 
L 19.671875 43.015625 
L 55.515625 43.015625 
L 55.515625 72.90625 
L 65.375 72.90625 
L 65.375 0 
L 55.515625 0 
L 55.515625 34.71875 
L 19.671875 34.71875 
L 19.671875 0 
L 9.8125 0 
z
" id="DejaVuSans-72"/>
      <path d="M 19.671875 64.796875 
L 19.671875 8.109375 
L 31.59375 8.109375 
Q 46.6875 8.109375 53.6875 14.9375 
Q 60.6875 21.78125 60.6875 36.53125 
Q 60.6875 51.171875 53.6875 57.984375 
Q 46.6875 64.796875 31.59375 64.796875 
z
M 9.8125 72.90625 
L 30.078125 72.90625 
Q 51.265625 72.90625 61.171875 64.09375 
Q 71.09375 55.28125 71.09375 36.53125 
Q 71.09375 17.671875 61.125 8.828125 
Q 51.171875 0 30.078125 0 
L 9.8125 0 
z
" id="DejaVuSans-68"/>
      <path d="M 9.8125 72.90625 
L 19.671875 72.90625 
L 19.671875 0 
L 9.8125 0 
z
" id="DejaVuSans-73"/>
     </defs>
     <use xlink:href="#DejaVuSans-57"/>
     <use x="63.623047" xlink:href="#DejaVuSans-52"/>
     <use x="127.246094" xlink:href="#DejaVuSans-37"/>
     <use x="222.265625" xlink:href="#DejaVuSans-32"/>
     <use x="254.052734" xlink:href="#DejaVuSans-72"/>
     <use x="329.248047" xlink:href="#DejaVuSans-68"/>
     <use x="406.25" xlink:href="#DejaVuSans-73"/>
    </g>
   </g>
   <g id="text_7">
    <!-- mean=0.96 -->
    <g transform="translate(175.245059 96.12)scale(0.15 -0.15)">
     <defs>
      <path d="M 52 44.1875 
Q 55.375 50.25 60.0625 53.125 
Q 64.75 56 71.09375 56 
Q 79.640625 56 84.28125 50.015625 
Q 88.921875 44.046875 88.921875 33.015625 
L 88.921875 0 
L 79.890625 0 
L 79.890625 32.71875 
Q 79.890625 40.578125 77.09375 44.375 
Q 74.3125 48.1875 68.609375 48.1875 
Q 61.625 48.1875 57.5625 43.546875 
Q 53.515625 38.921875 53.515625 30.90625 
L 53.515625 0 
L 44.484375 0 
L 44.484375 32.71875 
Q 44.484375 40.625 41.703125 44.40625 
Q 38.921875 48.1875 33.109375 48.1875 
Q 26.21875 48.1875 22.15625 43.53125 
Q 18.109375 38.875 18.109375 30.90625 
L 18.109375 0 
L 9.078125 0 
L 9.078125 54.6875 
L 18.109375 54.6875 
L 18.109375 46.1875 
Q 21.1875 51.21875 25.484375 53.609375 
Q 29.78125 56 35.6875 56 
Q 41.65625 56 45.828125 52.96875 
Q 50 49.953125 52 44.1875 
z
" id="DejaVuSans-109"/>
      <path d="M 56.203125 29.59375 
L 56.203125 25.203125 
L 14.890625 25.203125 
Q 15.484375 15.921875 20.484375 11.0625 
Q 25.484375 6.203125 34.421875 6.203125 
Q 39.59375 6.203125 44.453125 7.46875 
Q 49.3125 8.734375 54.109375 11.28125 
L 54.109375 2.78125 
Q 49.265625 0.734375 44.1875 -0.34375 
Q 39.109375 -1.421875 33.890625 -1.421875 
Q 20.796875 -1.421875 13.15625 6.1875 
Q 5.515625 13.8125 5.515625 26.8125 
Q 5.515625 40.234375 12.765625 48.109375 
Q 20.015625 56 32.328125 56 
Q 43.359375 56 49.78125 48.890625 
Q 56.203125 41.796875 56.203125 29.59375 
z
M 47.21875 32.234375 
Q 47.125 39.59375 43.09375 43.984375 
Q 39.0625 48.390625 32.421875 48.390625 
Q 24.90625 48.390625 20.390625 44.140625 
Q 15.875 39.890625 15.1875 32.171875 
z
" id="DejaVuSans-101"/>
      <path d="M 34.28125 27.484375 
Q 23.390625 27.484375 19.1875 25 
Q 14.984375 22.515625 14.984375 16.5 
Q 14.984375 11.71875 18.140625 8.90625 
Q 21.296875 6.109375 26.703125 6.109375 
Q 34.1875 6.109375 38.703125 11.40625 
Q 43.21875 16.703125 43.21875 25.484375 
L 43.21875 27.484375 
z
M 52.203125 31.203125 
L 52.203125 0 
L 43.21875 0 
L 43.21875 8.296875 
Q 40.140625 3.328125 35.546875 0.953125 
Q 30.953125 -1.421875 24.3125 -1.421875 
Q 15.921875 -1.421875 10.953125 3.296875 
Q 6 8.015625 6 15.921875 
Q 6 25.140625 12.171875 29.828125 
Q 18.359375 34.515625 30.609375 34.515625 
L 43.21875 34.515625 
L 43.21875 35.40625 
Q 43.21875 41.609375 39.140625 45 
Q 35.0625 48.390625 27.6875 48.390625 
Q 23 48.390625 18.546875 47.265625 
Q 14.109375 46.140625 10.015625 43.890625 
L 10.015625 52.203125 
Q 14.9375 54.109375 19.578125 55.046875 
Q 24.21875 56 28.609375 56 
Q 40.484375 56 46.34375 49.84375 
Q 52.203125 43.703125 52.203125 31.203125 
z
" id="DejaVuSans-97"/>
      <path d="M 54.890625 33.015625 
L 54.890625 0 
L 45.90625 0 
L 45.90625 32.71875 
Q 45.90625 40.484375 42.875 44.328125 
Q 39.84375 48.1875 33.796875 48.1875 
Q 26.515625 48.1875 22.3125 43.546875 
Q 18.109375 38.921875 18.109375 30.90625 
L 18.109375 0 
L 9.078125 0 
L 9.078125 54.6875 
L 18.109375 54.6875 
L 18.109375 46.1875 
Q 21.34375 51.125 25.703125 53.5625 
Q 30.078125 56 35.796875 56 
Q 45.21875 56 50.046875 50.171875 
Q 54.890625 44.34375 54.890625 33.015625 
z
" id="DejaVuSans-110"/>
      <path d="M 10.59375 45.40625 
L 73.1875 45.40625 
L 73.1875 37.203125 
L 10.59375 37.203125 
z
M 10.59375 25.484375 
L 73.1875 25.484375 
L 73.1875 17.1875 
L 10.59375 17.1875 
z
" id="DejaVuSans-61"/>
      <path d="M 33.015625 40.375 
Q 26.375 40.375 22.484375 35.828125 
Q 18.609375 31.296875 18.609375 23.390625 
Q 18.609375 15.53125 22.484375 10.953125 
Q 26.375 6.390625 33.015625 6.390625 
Q 39.65625 6.390625 43.53125 10.953125 
Q 47.40625 15.53125 47.40625 23.390625 
Q 47.40625 31.296875 43.53125 35.828125 
Q 39.65625 40.375 33.015625 40.375 
z
M 52.59375 71.296875 
L 52.59375 62.3125 
Q 48.875 64.0625 45.09375 64.984375 
Q 41.3125 65.921875 37.59375 65.921875 
Q 27.828125 65.921875 22.671875 59.328125 
Q 17.53125 52.734375 16.796875 39.40625 
Q 19.671875 43.65625 24.015625 45.921875 
Q 28.375 48.1875 33.59375 48.1875 
Q 44.578125 48.1875 50.953125 41.515625 
Q 57.328125 34.859375 57.328125 23.390625 
Q 57.328125 12.15625 50.6875 5.359375 
Q 44.046875 -1.421875 33.015625 -1.421875 
Q 20.359375 -1.421875 13.671875 8.265625 
Q 6.984375 17.96875 6.984375 36.375 
Q 6.984375 53.65625 15.1875 63.9375 
Q 23.390625 74.21875 37.203125 74.21875 
Q 40.921875 74.21875 44.703125 73.484375 
Q 48.484375 72.75 52.59375 71.296875 
z
" id="DejaVuSans-54"/>
     </defs>
     <use xlink:href="#DejaVuSans-109"/>
     <use x="97.412109" xlink:href="#DejaVuSans-101"/>
     <use x="158.935547" xlink:href="#DejaVuSans-97"/>
     <use x="220.214844" xlink:href="#DejaVuSans-110"/>
     <use x="283.59375" xlink:href="#DejaVuSans-61"/>
     <use x="367.382812" xlink:href="#DejaVuSans-48"/>
     <use x="431.005859" xlink:href="#DejaVuSans-46"/>
     <use x="462.792969" xlink:href="#DejaVuSans-57"/>
     <use x="526.416016" xlink:href="#DejaVuSans-54"/>
    </g>
   </g>
   <g id="text_8">
    <!-- a -->
    <g transform="translate(211.915682 37.2)scale(0.16 -0.16)">
     <use xlink:href="#DejaVuSans-97"/>
    </g>
   </g>
  </g>
  <g id="axes_2">
   <g id="patch_4">
    <path d="M 394.363636 320.4 
L 648 320.4 
L 648 43.2 
L 394.363636 43.2 
z
" style="fill:#ffffff;"/>
   </g>
   <g id="PolyCollection_2">
    <defs>
     <path d="M 405.892562 -52.2 
L 405.892562 -55.660806 
L 406.343792 -55.665856 
L 406.795022 -55.678532 
L 407.246252 -55.690639 
L 407.697482 -55.704725 
L 408.148712 -55.726433 
L 408.599942 -55.752458 
L 409.051172 -55.779471 
L 409.502402 -55.819557 
L 409.953632 -55.857966 
L 410.404862 -55.897184 
L 410.856092 -55.942799 
L 411.307322 -55.992108 
L 411.758552 -56.045007 
L 412.209782 -56.100748 
L 412.661011 -56.15923 
L 413.112241 -56.226833 
L 413.563471 -56.292059 
L 414.014701 -56.360003 
L 414.465931 -56.433813 
L 414.917161 -56.507687 
L 415.368391 -56.584098 
L 415.819621 -56.660311 
L 416.270851 -56.734085 
L 416.722081 -56.822335 
L 417.173311 -56.91591 
L 417.624541 -57.008998 
L 418.075771 -57.104036 
L 418.527001 -57.197576 
L 418.978231 -57.292462 
L 419.429461 -57.388906 
L 419.880691 -57.485779 
L 420.331921 -57.585162 
L 420.783151 -57.68729 
L 421.234381 -57.802261 
L 421.685611 -57.916788 
L 422.136841 -58.020799 
L 422.588071 -58.127785 
L 423.039301 -58.228795 
L 423.490531 -58.336111 
L 423.941761 -58.441683 
L 424.392991 -58.554338 
L 424.844221 -58.660007 
L 425.295451 -58.774202 
L 425.74668 -58.886962 
L 426.19791 -59.010266 
L 426.64914 -59.136432 
L 427.10037 -59.272682 
L 427.5516 -59.412218 
L 428.00283 -59.568152 
L 428.45406 -59.736411 
L 428.90529 -59.918764 
L 429.35652 -60.11695 
L 429.80775 -60.326142 
L 430.25898 -60.556014 
L 430.71021 -60.805156 
L 431.16144 -61.07126 
L 431.61267 -61.367805 
L 432.0639 -61.685047 
L 432.51513 -62.02187 
L 432.96636 -62.38317 
L 433.41759 -62.765819 
L 433.86882 -63.168899 
L 434.32005 -63.587868 
L 434.77128 -64.022233 
L 435.22251 -64.482721 
L 435.67374 -64.960762 
L 436.12497 -65.450949 
L 436.5762 -65.954197 
L 437.02743 -66.455901 
L 437.47866 -66.970832 
L 437.92989 -67.488925 
L 438.38112 -68.001528 
L 438.832349 -68.51482 
L 439.283579 -69.014613 
L 439.734809 -69.510588 
L 440.186039 -70.008364 
L 440.637269 -70.486488 
L 441.088499 -70.960991 
L 441.539729 -71.442143 
L 441.990959 -71.905717 
L 442.442189 -72.356606 
L 442.893419 -72.801189 
L 443.344649 -73.251432 
L 443.795879 -73.685711 
L 444.247109 -74.144265 
L 444.698339 -74.612282 
L 445.149569 -75.059087 
L 445.600799 -75.520842 
L 446.052029 -75.998332 
L 446.503259 -76.496908 
L 446.954489 -77.01424 
L 447.405719 -77.556175 
L 447.856949 -78.112174 
L 448.308179 -78.696188 
L 448.759409 -79.310195 
L 449.210639 -79.967502 
L 449.661869 -80.65311 
L 450.113099 -81.357908 
L 450.564329 -82.091889 
L 451.015559 -82.882747 
L 451.466789 -83.684446 
L 451.918018 -84.502176 
L 452.369248 -85.366872 
L 452.820478 -86.244687 
L 453.271708 -87.144465 
L 453.722938 -88.073628 
L 454.174168 -89.034776 
L 454.625398 -90.003236 
L 455.076628 -90.997386 
L 455.527858 -92.002536 
L 455.979088 -93.011162 
L 456.430318 -94.032393 
L 456.881548 -95.074412 
L 457.332778 -96.122173 
L 457.784008 -97.20027 
L 458.235238 -98.281996 
L 458.686468 -99.374851 
L 459.137698 -100.495638 
L 459.588928 -101.614693 
L 460.040158 -102.745112 
L 460.491388 -103.904357 
L 460.942618 -105.105108 
L 461.393848 -106.322661 
L 461.845078 -107.566187 
L 462.296308 -108.841439 
L 462.747538 -110.177403 
L 463.198768 -111.530788 
L 463.649998 -112.940064 
L 464.101228 -114.375489 
L 464.552458 -115.893826 
L 465.003687 -117.4178 
L 465.454917 -118.990425 
L 465.906147 -120.590415 
L 466.357377 -122.24591 
L 466.808607 -123.943143 
L 467.259837 -125.684812 
L 467.711067 -127.444245 
L 468.162297 -129.256399 
L 468.613527 -131.105551 
L 469.064757 -132.976532 
L 469.515987 -134.897692 
L 469.967217 -136.825636 
L 470.418447 -138.784076 
L 470.869677 -140.760747 
L 471.320907 -142.769147 
L 471.772137 -144.780003 
L 472.223367 -146.827018 
L 472.674597 -148.871086 
L 473.125827 -150.931404 
L 473.577057 -153.004864 
L 474.028287 -155.082747 
L 474.479517 -157.165878 
L 474.930747 -159.248509 
L 475.381977 -161.331073 
L 475.833207 -163.461099 
L 476.284437 -165.550626 
L 476.735667 -167.634645 
L 477.186897 -169.734204 
L 477.638127 -171.841237 
L 478.089356 -173.91297 
L 478.540586 -175.997867 
L 478.991816 -178.046855 
L 479.443046 -180.099044 
L 479.894276 -182.11594 
L 480.345506 -184.094601 
L 480.796736 -186.051504 
L 481.247966 -187.993071 
L 481.699196 -189.915632 
L 482.150426 -191.797001 
L 482.601656 -193.651291 
L 483.052886 -195.425449 
L 483.504116 -197.158412 
L 483.955346 -198.868885 
L 484.406576 -200.52852 
L 484.857806 -202.16766 
L 485.309036 -203.745028 
L 485.760266 -205.258517 
L 486.211496 -206.760057 
L 486.662726 -208.224308 
L 487.113956 -209.670463 
L 487.565186 -211.078002 
L 488.016416 -212.431467 
L 488.467646 -213.785056 
L 488.918876 -215.141668 
L 489.370106 -216.449424 
L 489.821336 -217.744995 
L 490.272566 -219.061652 
L 490.723796 -220.390223 
L 491.175025 -221.71094 
L 491.626255 -223.044678 
L 492.077485 -224.36814 
L 492.528715 -225.730022 
L 492.979945 -227.061791 
L 493.431175 -228.456914 
L 493.882405 -229.865337 
L 494.333635 -231.313272 
L 494.784865 -232.786331 
L 495.236095 -234.31181 
L 495.687325 -235.846473 
L 496.138555 -237.418304 
L 496.589785 -239.028733 
L 497.041015 -240.658364 
L 497.492245 -242.32826 
L 497.943475 -244.032426 
L 498.394705 -245.80547 
L 498.845935 -247.574389 
L 499.297165 -249.412043 
L 499.748395 -251.254027 
L 500.199625 -253.130887 
L 500.650855 -255.01671 
L 501.102085 -256.945425 
L 501.553315 -258.867892 
L 502.004545 -260.829078 
L 502.455775 -262.788861 
L 502.907005 -264.794078 
L 503.358235 -266.77602 
L 503.809465 -268.803254 
L 504.260694 -270.806985 
L 504.711924 -272.855671 
L 505.163154 -274.862766 
L 505.614384 -276.857031 
L 506.065614 -278.853275 
L 506.516844 -280.83956 
L 506.968074 -282.751019 
L 507.419304 -284.657854 
L 507.870534 -286.497228 
L 508.321764 -288.282052 
L 508.772994 -290.02223 
L 509.224224 -291.679479 
L 509.675454 -293.282719 
L 510.126684 -294.798852 
L 510.577914 -296.262618 
L 511.029144 -297.590026 
L 511.480374 -298.809468 
L 511.931604 -299.935332 
L 512.382834 -300.945846 
L 512.834064 -301.817314 
L 513.285294 -302.551985 
L 513.736524 -303.174127 
L 514.187754 -303.639399 
L 514.638984 -303.939423 
L 515.090214 -304.133925 
L 515.541444 -304.2 
L 515.992674 -304.100588 
L 516.443904 -303.884439 
L 516.895134 -303.555189 
L 517.346363 -303.086924 
L 517.797593 -302.503027 
L 518.248823 -301.810629 
L 518.700053 -301.01927 
L 519.151283 -300.182202 
L 519.602513 -299.252939 
L 520.053743 -298.254019 
L 520.504973 -297.163258 
L 520.956203 -296.099233 
L 521.407433 -294.990043 
L 521.858663 -293.896992 
L 522.309893 -292.825002 
L 522.761123 -291.774437 
L 523.212353 -290.74222 
L 523.663583 -289.732708 
L 524.114813 -288.854456 
L 524.566043 -288.006193 
L 525.017273 -287.202987 
L 525.468503 -286.491122 
L 525.919733 -285.835721 
L 526.370963 -285.292619 
L 526.822193 -284.836412 
L 527.273423 -284.478011 
L 527.724653 -284.182813 
L 528.175883 -283.986967 
L 528.627113 -283.849142 
L 529.078343 -283.801901 
L 529.529573 -283.825649 
L 529.980803 -283.914796 
L 530.432032 -284.056484 
L 530.883262 -284.271319 
L 531.334492 -284.495636 
L 531.785722 -284.782393 
L 532.236952 -285.054672 
L 532.688182 -285.34963 
L 533.139412 -285.634611 
L 533.590642 -285.924135 
L 534.041872 -286.183327 
L 534.493102 -286.454496 
L 534.944332 -286.677399 
L 535.395562 -286.843944 
L 535.846792 -286.995029 
L 536.298022 -287.050469 
L 536.749252 -287.037342 
L 537.200482 -286.945225 
L 537.651712 -286.812789 
L 538.102942 -286.528499 
L 538.554172 -286.177787 
L 539.005402 -285.727154 
L 539.456632 -285.194049 
L 539.907862 -284.516391 
L 540.359092 -283.746201 
L 540.810322 -282.864752 
L 541.261552 -281.915984 
L 541.712782 -280.812045 
L 542.164012 -279.638242 
L 542.615242 -278.339184 
L 543.066472 -276.992752 
L 543.517701 -275.517962 
L 543.968931 -273.970026 
L 544.420161 -272.350015 
L 544.871391 -270.655752 
L 545.322621 -268.917944 
L 545.773851 -267.188007 
L 546.225081 -265.372681 
L 546.676311 -263.588732 
L 547.127541 -261.778859 
L 547.578771 -259.964334 
L 548.030001 -258.139055 
L 548.481231 -256.31028 
L 548.932461 -254.508803 
L 549.383691 -252.727065 
L 549.834921 -250.992182 
L 550.286151 -249.342292 
L 550.737381 -247.689532 
L 551.188611 -246.061385 
L 551.639841 -244.492356 
L 552.091071 -242.962805 
L 552.542301 -241.473493 
L 552.993531 -240.012636 
L 553.444761 -238.569902 
L 553.895991 -237.146787 
L 554.347221 -235.736307 
L 554.798451 -234.350317 
L 555.249681 -232.947335 
L 555.700911 -231.555481 
L 556.152141 -230.130399 
L 556.60337 -228.703483 
L 557.0546 -227.237358 
L 557.50583 -225.763981 
L 557.95706 -224.228412 
L 558.40829 -222.677018 
L 558.85952 -221.062811 
L 559.31075 -219.443297 
L 559.76198 -217.715092 
L 560.21321 -215.980402 
L 560.66444 -214.186834 
L 561.11567 -212.332492 
L 561.5669 -210.422888 
L 562.01813 -208.487854 
L 562.46936 -206.501084 
L 562.92059 -204.450037 
L 563.37182 -202.43008 
L 563.82305 -200.383429 
L 564.27428 -198.310823 
L 564.72551 -196.228926 
L 565.17674 -194.129234 
L 565.62797 -192.055675 
L 566.0792 -189.96497 
L 566.53043 -187.906266 
L 566.98166 -185.873294 
L 567.43289 -183.844742 
L 567.88412 -181.833614 
L 568.33535 -179.86548 
L 568.78658 -177.913223 
L 569.23781 -176.002637 
L 569.689039 -174.116483 
L 570.140269 -172.264314 
L 570.591499 -170.447267 
L 571.042729 -168.669933 
L 571.493959 -166.908307 
L 571.945189 -165.16715 
L 572.396419 -163.454559 
L 572.847649 -161.757992 
L 573.298879 -160.056872 
L 573.750109 -158.378203 
L 574.201339 -156.702228 
L 574.652569 -155.027306 
L 575.103799 -153.398503 
L 575.555029 -151.740778 
L 576.006259 -150.080627 
L 576.457489 -148.409332 
L 576.908719 -146.753872 
L 577.359949 -145.087609 
L 577.811179 -143.417283 
L 578.262409 -141.745017 
L 578.713639 -140.085171 
L 579.164869 -138.407187 
L 579.616099 -136.726092 
L 580.067329 -135.033789 
L 580.518559 -133.376775 
L 580.969789 -131.69737 
L 581.421019 -130.078521 
L 581.872249 -128.4305 
L 582.323479 -126.808029 
L 582.774708 -125.228513 
L 583.225938 -123.661723 
L 583.677168 -122.117705 
L 584.128398 -120.593228 
L 584.579628 -119.08386 
L 585.030858 -117.625705 
L 585.482088 -116.172565 
L 585.933318 -114.756487 
L 586.384548 -113.394475 
L 586.835778 -112.069165 
L 587.287008 -110.78124 
L 587.738238 -109.517108 
L 588.189468 -108.276139 
L 588.640698 -107.075123 
L 589.091928 -105.873967 
L 589.543158 -104.726828 
L 589.994388 -103.614843 
L 590.445618 -102.52387 
L 590.896848 -101.460789 
L 591.348078 -100.39432 
L 591.799308 -99.371572 
L 592.250538 -98.362864 
L 592.701768 -97.372668 
L 593.152998 -96.385483 
L 593.604228 -95.408667 
L 594.055458 -94.434658 
L 594.506688 -93.484186 
L 594.957918 -92.545133 
L 595.409148 -91.618152 
L 595.860377 -90.686991 
L 596.311607 -89.751553 
L 596.762837 -88.804631 
L 597.214067 -87.871744 
L 597.665297 -86.952719 
L 598.116527 -86.021798 
L 598.567757 -85.09253 
L 599.018987 -84.161924 
L 599.470217 -83.239462 
L 599.921447 -82.317648 
L 600.372677 -81.420817 
L 600.823907 -80.519314 
L 601.275137 -79.634911 
L 601.726367 -78.744483 
L 602.177597 -77.869514 
L 602.628827 -77.012069 
L 603.080057 -76.182611 
L 603.531287 -75.373771 
L 603.982517 -74.589675 
L 604.433747 -73.818809 
L 604.884977 -73.075459 
L 605.336207 -72.363277 
L 605.787437 -71.690935 
L 606.238667 -71.058871 
L 606.689897 -70.436582 
L 607.141127 -69.831832 
L 607.592357 -69.277976 
L 608.043587 -68.754534 
L 608.494817 -68.255075 
L 608.946046 -67.78501 
L 609.397276 -67.337283 
L 609.848506 -66.905126 
L 610.299736 -66.501287 
L 610.750966 -66.125034 
L 611.202196 -65.757137 
L 611.653426 -65.402538 
L 612.104656 -65.064756 
L 612.555886 -64.746198 
L 613.007116 -64.436135 
L 613.458346 -64.13366 
L 613.909576 -63.821182 
L 614.360806 -63.529138 
L 614.812036 -63.232492 
L 615.263266 -62.947541 
L 615.714496 -62.666591 
L 616.165726 -62.38553 
L 616.616956 -62.101734 
L 617.068186 -61.813278 
L 617.519416 -61.52207 
L 617.970646 -61.248111 
L 618.421876 -60.9753 
L 618.873106 -60.693498 
L 619.324336 -60.418703 
L 619.775566 -60.15868 
L 620.226796 -59.889363 
L 620.678026 -59.64046 
L 621.129256 -59.399542 
L 621.580486 -59.156841 
L 622.031715 -58.928028 
L 622.482945 -58.70304 
L 622.934175 -58.493498 
L 623.385405 -58.285276 
L 623.836635 -58.093557 
L 624.287865 -57.914878 
L 624.739095 -57.74384 
L 625.190325 -57.578681 
L 625.641555 -57.433465 
L 626.092785 -57.29598 
L 626.544015 -57.172571 
L 626.995245 -57.054722 
L 627.446475 -56.950422 
L 627.897705 -56.858644 
L 628.348935 -56.773227 
L 628.800165 -56.696872 
L 629.251395 -56.641296 
L 629.702625 -56.586304 
L 630.153855 -56.539152 
L 630.605085 -56.496057 
L 631.056315 -56.459559 
L 631.507545 -56.426357 
L 631.958775 -56.401439 
L 632.410005 -56.384106 
L 632.861235 -56.370563 
L 633.312465 -56.354442 
L 633.763695 -56.344043 
L 634.214925 -56.33034 
L 634.666155 -56.330016 
L 635.117384 -56.328593 
L 635.568614 -56.32838 
L 636.019844 -56.322682 
L 636.471074 -56.32275 
L 636.471074 -52.2 
L 636.471074 -52.2 
L 636.019844 -52.2 
L 635.568614 -52.2 
L 635.117384 -52.2 
L 634.666155 -52.2 
L 634.214925 -52.2 
L 633.763695 -52.2 
L 633.312465 -52.2 
L 632.861235 -52.2 
L 632.410005 -52.2 
L 631.958775 -52.2 
L 631.507545 -52.2 
L 631.056315 -52.2 
L 630.605085 -52.2 
L 630.153855 -52.2 
L 629.702625 -52.2 
L 629.251395 -52.2 
L 628.800165 -52.2 
L 628.348935 -52.2 
L 627.897705 -52.2 
L 627.446475 -52.2 
L 626.995245 -52.2 
L 626.544015 -52.2 
L 626.092785 -52.2 
L 625.641555 -52.2 
L 625.190325 -52.2 
L 624.739095 -52.2 
L 624.287865 -52.2 
L 623.836635 -52.2 
L 623.385405 -52.2 
L 622.934175 -52.2 
L 622.482945 -52.2 
L 622.031715 -52.2 
L 621.580486 -52.2 
L 621.129256 -52.2 
L 620.678026 -52.2 
L 620.226796 -52.2 
L 619.775566 -52.2 
L 619.324336 -52.2 
L 618.873106 -52.2 
L 618.421876 -52.2 
L 617.970646 -52.2 
L 617.519416 -52.2 
L 617.068186 -52.2 
L 616.616956 -52.2 
L 616.165726 -52.2 
L 615.714496 -52.2 
L 615.263266 -52.2 
L 614.812036 -52.2 
L 614.360806 -52.2 
L 613.909576 -52.2 
L 613.458346 -52.2 
L 613.007116 -52.2 
L 612.555886 -52.2 
L 612.104656 -52.2 
L 611.653426 -52.2 
L 611.202196 -52.2 
L 610.750966 -52.2 
L 610.299736 -52.2 
L 609.848506 -52.2 
L 609.397276 -52.2 
L 608.946046 -52.2 
L 608.494817 -52.2 
L 608.043587 -52.2 
L 607.592357 -52.2 
L 607.141127 -52.2 
L 606.689897 -52.2 
L 606.238667 -52.2 
L 605.787437 -52.2 
L 605.336207 -52.2 
L 604.884977 -52.2 
L 604.433747 -52.2 
L 603.982517 -52.2 
L 603.531287 -52.2 
L 603.080057 -52.2 
L 602.628827 -52.2 
L 602.177597 -52.2 
L 601.726367 -52.2 
L 601.275137 -52.2 
L 600.823907 -52.2 
L 600.372677 -52.2 
L 599.921447 -52.2 
L 599.470217 -52.2 
L 599.018987 -52.2 
L 598.567757 -52.2 
L 598.116527 -52.2 
L 597.665297 -52.2 
L 597.214067 -52.2 
L 596.762837 -52.2 
L 596.311607 -52.2 
L 595.860377 -52.2 
L 595.409148 -52.2 
L 594.957918 -52.2 
L 594.506688 -52.2 
L 594.055458 -52.2 
L 593.604228 -52.2 
L 593.152998 -52.2 
L 592.701768 -52.2 
L 592.250538 -52.2 
L 591.799308 -52.2 
L 591.348078 -52.2 
L 590.896848 -52.2 
L 590.445618 -52.2 
L 589.994388 -52.2 
L 589.543158 -52.2 
L 589.091928 -52.2 
L 588.640698 -52.2 
L 588.189468 -52.2 
L 587.738238 -52.2 
L 587.287008 -52.2 
L 586.835778 -52.2 
L 586.384548 -52.2 
L 585.933318 -52.2 
L 585.482088 -52.2 
L 585.030858 -52.2 
L 584.579628 -52.2 
L 584.128398 -52.2 
L 583.677168 -52.2 
L 583.225938 -52.2 
L 582.774708 -52.2 
L 582.323479 -52.2 
L 581.872249 -52.2 
L 581.421019 -52.2 
L 580.969789 -52.2 
L 580.518559 -52.2 
L 580.067329 -52.2 
L 579.616099 -52.2 
L 579.164869 -52.2 
L 578.713639 -52.2 
L 578.262409 -52.2 
L 577.811179 -52.2 
L 577.359949 -52.2 
L 576.908719 -52.2 
L 576.457489 -52.2 
L 576.006259 -52.2 
L 575.555029 -52.2 
L 575.103799 -52.2 
L 574.652569 -52.2 
L 574.201339 -52.2 
L 573.750109 -52.2 
L 573.298879 -52.2 
L 572.847649 -52.2 
L 572.396419 -52.2 
L 571.945189 -52.2 
L 571.493959 -52.2 
L 571.042729 -52.2 
L 570.591499 -52.2 
L 570.140269 -52.2 
L 569.689039 -52.2 
L 569.23781 -52.2 
L 568.78658 -52.2 
L 568.33535 -52.2 
L 567.88412 -52.2 
L 567.43289 -52.2 
L 566.98166 -52.2 
L 566.53043 -52.2 
L 566.0792 -52.2 
L 565.62797 -52.2 
L 565.17674 -52.2 
L 564.72551 -52.2 
L 564.27428 -52.2 
L 563.82305 -52.2 
L 563.37182 -52.2 
L 562.92059 -52.2 
L 562.46936 -52.2 
L 562.01813 -52.2 
L 561.5669 -52.2 
L 561.11567 -52.2 
L 560.66444 -52.2 
L 560.21321 -52.2 
L 559.76198 -52.2 
L 559.31075 -52.2 
L 558.85952 -52.2 
L 558.40829 -52.2 
L 557.95706 -52.2 
L 557.50583 -52.2 
L 557.0546 -52.2 
L 556.60337 -52.2 
L 556.152141 -52.2 
L 555.700911 -52.2 
L 555.249681 -52.2 
L 554.798451 -52.2 
L 554.347221 -52.2 
L 553.895991 -52.2 
L 553.444761 -52.2 
L 552.993531 -52.2 
L 552.542301 -52.2 
L 552.091071 -52.2 
L 551.639841 -52.2 
L 551.188611 -52.2 
L 550.737381 -52.2 
L 550.286151 -52.2 
L 549.834921 -52.2 
L 549.383691 -52.2 
L 548.932461 -52.2 
L 548.481231 -52.2 
L 548.030001 -52.2 
L 547.578771 -52.2 
L 547.127541 -52.2 
L 546.676311 -52.2 
L 546.225081 -52.2 
L 545.773851 -52.2 
L 545.322621 -52.2 
L 544.871391 -52.2 
L 544.420161 -52.2 
L 543.968931 -52.2 
L 543.517701 -52.2 
L 543.066472 -52.2 
L 542.615242 -52.2 
L 542.164012 -52.2 
L 541.712782 -52.2 
L 541.261552 -52.2 
L 540.810322 -52.2 
L 540.359092 -52.2 
L 539.907862 -52.2 
L 539.456632 -52.2 
L 539.005402 -52.2 
L 538.554172 -52.2 
L 538.102942 -52.2 
L 537.651712 -52.2 
L 537.200482 -52.2 
L 536.749252 -52.2 
L 536.298022 -52.2 
L 535.846792 -52.2 
L 535.395562 -52.2 
L 534.944332 -52.2 
L 534.493102 -52.2 
L 534.041872 -52.2 
L 533.590642 -52.2 
L 533.139412 -52.2 
L 532.688182 -52.2 
L 532.236952 -52.2 
L 531.785722 -52.2 
L 531.334492 -52.2 
L 530.883262 -52.2 
L 530.432032 -52.2 
L 529.980803 -52.2 
L 529.529573 -52.2 
L 529.078343 -52.2 
L 528.627113 -52.2 
L 528.175883 -52.2 
L 527.724653 -52.2 
L 527.273423 -52.2 
L 526.822193 -52.2 
L 526.370963 -52.2 
L 525.919733 -52.2 
L 525.468503 -52.2 
L 525.017273 -52.2 
L 524.566043 -52.2 
L 524.114813 -52.2 
L 523.663583 -52.2 
L 523.212353 -52.2 
L 522.761123 -52.2 
L 522.309893 -52.2 
L 521.858663 -52.2 
L 521.407433 -52.2 
L 520.956203 -52.2 
L 520.504973 -52.2 
L 520.053743 -52.2 
L 519.602513 -52.2 
L 519.151283 -52.2 
L 518.700053 -52.2 
L 518.248823 -52.2 
L 517.797593 -52.2 
L 517.346363 -52.2 
L 516.895134 -52.2 
L 516.443904 -52.2 
L 515.992674 -52.2 
L 515.541444 -52.2 
L 515.090214 -52.2 
L 514.638984 -52.2 
L 514.187754 -52.2 
L 513.736524 -52.2 
L 513.285294 -52.2 
L 512.834064 -52.2 
L 512.382834 -52.2 
L 511.931604 -52.2 
L 511.480374 -52.2 
L 511.029144 -52.2 
L 510.577914 -52.2 
L 510.126684 -52.2 
L 509.675454 -52.2 
L 509.224224 -52.2 
L 508.772994 -52.2 
L 508.321764 -52.2 
L 507.870534 -52.2 
L 507.419304 -52.2 
L 506.968074 -52.2 
L 506.516844 -52.2 
L 506.065614 -52.2 
L 505.614384 -52.2 
L 505.163154 -52.2 
L 504.711924 -52.2 
L 504.260694 -52.2 
L 503.809465 -52.2 
L 503.358235 -52.2 
L 502.907005 -52.2 
L 502.455775 -52.2 
L 502.004545 -52.2 
L 501.553315 -52.2 
L 501.102085 -52.2 
L 500.650855 -52.2 
L 500.199625 -52.2 
L 499.748395 -52.2 
L 499.297165 -52.2 
L 498.845935 -52.2 
L 498.394705 -52.2 
L 497.943475 -52.2 
L 497.492245 -52.2 
L 497.041015 -52.2 
L 496.589785 -52.2 
L 496.138555 -52.2 
L 495.687325 -52.2 
L 495.236095 -52.2 
L 494.784865 -52.2 
L 494.333635 -52.2 
L 493.882405 -52.2 
L 493.431175 -52.2 
L 492.979945 -52.2 
L 492.528715 -52.2 
L 492.077485 -52.2 
L 491.626255 -52.2 
L 491.175025 -52.2 
L 490.723796 -52.2 
L 490.272566 -52.2 
L 489.821336 -52.2 
L 489.370106 -52.2 
L 488.918876 -52.2 
L 488.467646 -52.2 
L 488.016416 -52.2 
L 487.565186 -52.2 
L 487.113956 -52.2 
L 486.662726 -52.2 
L 486.211496 -52.2 
L 485.760266 -52.2 
L 485.309036 -52.2 
L 484.857806 -52.2 
L 484.406576 -52.2 
L 483.955346 -52.2 
L 483.504116 -52.2 
L 483.052886 -52.2 
L 482.601656 -52.2 
L 482.150426 -52.2 
L 481.699196 -52.2 
L 481.247966 -52.2 
L 480.796736 -52.2 
L 480.345506 -52.2 
L 479.894276 -52.2 
L 479.443046 -52.2 
L 478.991816 -52.2 
L 478.540586 -52.2 
L 478.089356 -52.2 
L 477.638127 -52.2 
L 477.186897 -52.2 
L 476.735667 -52.2 
L 476.284437 -52.2 
L 475.833207 -52.2 
L 475.381977 -52.2 
L 474.930747 -52.2 
L 474.479517 -52.2 
L 474.028287 -52.2 
L 473.577057 -52.2 
L 473.125827 -52.2 
L 472.674597 -52.2 
L 472.223367 -52.2 
L 471.772137 -52.2 
L 471.320907 -52.2 
L 470.869677 -52.2 
L 470.418447 -52.2 
L 469.967217 -52.2 
L 469.515987 -52.2 
L 469.064757 -52.2 
L 468.613527 -52.2 
L 468.162297 -52.2 
L 467.711067 -52.2 
L 467.259837 -52.2 
L 466.808607 -52.2 
L 466.357377 -52.2 
L 465.906147 -52.2 
L 465.454917 -52.2 
L 465.003687 -52.2 
L 464.552458 -52.2 
L 464.101228 -52.2 
L 463.649998 -52.2 
L 463.198768 -52.2 
L 462.747538 -52.2 
L 462.296308 -52.2 
L 461.845078 -52.2 
L 461.393848 -52.2 
L 460.942618 -52.2 
L 460.491388 -52.2 
L 460.040158 -52.2 
L 459.588928 -52.2 
L 459.137698 -52.2 
L 458.686468 -52.2 
L 458.235238 -52.2 
L 457.784008 -52.2 
L 457.332778 -52.2 
L 456.881548 -52.2 
L 456.430318 -52.2 
L 455.979088 -52.2 
L 455.527858 -52.2 
L 455.076628 -52.2 
L 454.625398 -52.2 
L 454.174168 -52.2 
L 453.722938 -52.2 
L 453.271708 -52.2 
L 452.820478 -52.2 
L 452.369248 -52.2 
L 451.918018 -52.2 
L 451.466789 -52.2 
L 451.015559 -52.2 
L 450.564329 -52.2 
L 450.113099 -52.2 
L 449.661869 -52.2 
L 449.210639 -52.2 
L 448.759409 -52.2 
L 448.308179 -52.2 
L 447.856949 -52.2 
L 447.405719 -52.2 
L 446.954489 -52.2 
L 446.503259 -52.2 
L 446.052029 -52.2 
L 445.600799 -52.2 
L 445.149569 -52.2 
L 444.698339 -52.2 
L 444.247109 -52.2 
L 443.795879 -52.2 
L 443.344649 -52.2 
L 442.893419 -52.2 
L 442.442189 -52.2 
L 441.990959 -52.2 
L 441.539729 -52.2 
L 441.088499 -52.2 
L 440.637269 -52.2 
L 440.186039 -52.2 
L 439.734809 -52.2 
L 439.283579 -52.2 
L 438.832349 -52.2 
L 438.38112 -52.2 
L 437.92989 -52.2 
L 437.47866 -52.2 
L 437.02743 -52.2 
L 436.5762 -52.2 
L 436.12497 -52.2 
L 435.67374 -52.2 
L 435.22251 -52.2 
L 434.77128 -52.2 
L 434.32005 -52.2 
L 433.86882 -52.2 
L 433.41759 -52.2 
L 432.96636 -52.2 
L 432.51513 -52.2 
L 432.0639 -52.2 
L 431.61267 -52.2 
L 431.16144 -52.2 
L 430.71021 -52.2 
L 430.25898 -52.2 
L 429.80775 -52.2 
L 429.35652 -52.2 
L 428.90529 -52.2 
L 428.45406 -52.2 
L 428.00283 -52.2 
L 427.5516 -52.2 
L 427.10037 -52.2 
L 426.64914 -52.2 
L 426.19791 -52.2 
L 425.74668 -52.2 
L 425.295451 -52.2 
L 424.844221 -52.2 
L 424.392991 -52.2 
L 423.941761 -52.2 
L 423.490531 -52.2 
L 423.039301 -52.2 
L 422.588071 -52.2 
L 422.136841 -52.2 
L 421.685611 -52.2 
L 421.234381 -52.2 
L 420.783151 -52.2 
L 420.331921 -52.2 
L 419.880691 -52.2 
L 419.429461 -52.2 
L 418.978231 -52.2 
L 418.527001 -52.2 
L 418.075771 -52.2 
L 417.624541 -52.2 
L 417.173311 -52.2 
L 416.722081 -52.2 
L 416.270851 -52.2 
L 415.819621 -52.2 
L 415.368391 -52.2 
L 414.917161 -52.2 
L 414.465931 -52.2 
L 414.014701 -52.2 
L 413.563471 -52.2 
L 413.112241 -52.2 
L 412.661011 -52.2 
L 412.209782 -52.2 
L 411.758552 -52.2 
L 411.307322 -52.2 
L 410.856092 -52.2 
L 410.404862 -52.2 
L 409.953632 -52.2 
L 409.502402 -52.2 
L 409.051172 -52.2 
L 408.599942 -52.2 
L 408.148712 -52.2 
L 407.697482 -52.2 
L 407.246252 -52.2 
L 406.795022 -52.2 
L 406.343792 -52.2 
L 405.892562 -52.2 
z
" id="m00f363e183" style="stroke:#1f77b4;stroke-opacity:0;"/>
    </defs>
    <g clip-path="url(#pdbfe985651)">
     <use style="fill:#1f77b4;fill-opacity:0;stroke:#1f77b4;stroke-opacity:0;" x="0" xlink:href="#m00f363e183" y="360"/>
    </g>
   </g>
   <g id="matplotlib.axis_3">
    <g id="xtick_4">
     <g id="line2d_6">
      <g>
       <use style="fill:#808080;stroke:#808080;" x="434.271739" xlink:href="#m9322574153" y="320.4"/>
      </g>
     </g>
     <g id="text_9">
      <!-- 1.0 -->
      <g transform="translate(417.27377 337.537813)scale(0.14 -0.14)">
       <defs>
        <path d="M 10.59375 35.5 
L 73.1875 35.5 
L 73.1875 27.203125 
L 10.59375 27.203125 
z
" id="DejaVuSans-8722"/>
       </defs>
       <use xlink:href="#DejaVuSans-8722"/>
       <use x="83.789062" xlink:href="#DejaVuSans-49"/>
       <use x="147.412109" xlink:href="#DejaVuSans-46"/>
       <use x="179.199219" xlink:href="#DejaVuSans-48"/>
      </g>
     </g>
    </g>
    <g id="xtick_5">
     <g id="line2d_7">
      <g>
       <use style="fill:#808080;stroke:#808080;" x="501.304126" xlink:href="#m9322574153" y="320.4"/>
      </g>
     </g>
     <g id="text_10">
      <!-- 0.5 -->
      <g transform="translate(484.306157 337.537813)scale(0.14 -0.14)">
       <use xlink:href="#DejaVuSans-8722"/>
       <use x="83.789062" xlink:href="#DejaVuSans-48"/>
       <use x="147.412109" xlink:href="#DejaVuSans-46"/>
       <use x="179.199219" xlink:href="#DejaVuSans-53"/>
      </g>
     </g>
    </g>
    <g id="xtick_6">
     <g id="line2d_8">
      <g>
       <use style="fill:#808080;stroke:#808080;" x="568.336513" xlink:href="#m9322574153" y="320.4"/>
      </g>
     </g>
     <g id="text_11">
      <!-- 0.0 -->
      <g transform="translate(557.204326 337.537813)scale(0.14 -0.14)">
       <use xlink:href="#DejaVuSans-48"/>
       <use x="63.623047" xlink:href="#DejaVuSans-46"/>
       <use x="95.410156" xlink:href="#DejaVuSans-48"/>
      </g>
     </g>
    </g>
    <g id="xtick_7">
     <g id="line2d_9">
      <g>
       <use style="fill:#808080;stroke:#808080;" x="635.368901" xlink:href="#m9322574153" y="320.4"/>
      </g>
     </g>
     <g id="text_12">
      <!-- 0.5 -->
      <g transform="translate(624.236713 337.537813)scale(0.14 -0.14)">
       <use xlink:href="#DejaVuSans-48"/>
       <use x="63.623047" xlink:href="#DejaVuSans-46"/>
       <use x="95.410156" xlink:href="#DejaVuSans-53"/>
      </g>
     </g>
    </g>
   </g>
   <g id="matplotlib.axis_4"/>
   <g id="line2d_10">
    <path clip-path="url(#pdbfe985651)" d="M 405.892562 304.339194 
L 409.051172 304.220529 
L 413.112241 303.773167 
L 417.173311 303.08409 
L 423.039301 301.771205 
L 427.5516 300.587782 
L 429.35652 299.88305 
L 431.16144 298.92874 
L 432.96636 297.61683 
L 434.77128 295.977767 
L 437.02743 293.544099 
L 441.539729 288.557857 
L 447.405719 282.443825 
L 448.759409 280.689805 
L 450.564329 277.908111 
L 452.820478 273.755313 
L 454.625398 269.996764 
L 457.784008 262.79973 
L 460.491388 256.095643 
L 462.747538 249.822597 
L 464.552458 244.106174 
L 466.357377 237.75409 
L 468.613527 228.894449 
L 471.320907 217.230853 
L 475.381977 198.668927 
L 479.894276 177.88406 
L 482.601656 166.348709 
L 484.857806 157.83234 
L 487.113956 150.329537 
L 489.370106 143.550576 
L 492.979945 132.938209 
L 495.236095 125.68819 
L 497.492245 117.67174 
L 499.748395 108.745973 
L 502.907005 95.205922 
L 508.321764 71.717948 
L 509.675454 66.717281 
L 511.029144 62.409974 
L 512.382834 59.054154 
L 513.285294 57.448015 
L 514.187754 56.360601 
L 515.090214 55.866075 
L 515.541444 55.8 
L 515.992674 55.899412 
L 516.895134 56.444811 
L 517.797593 57.496973 
L 518.700053 58.98073 
L 519.602513 60.747061 
L 521.407433 65.009957 
L 523.663583 70.267292 
L 525.017273 72.797013 
L 525.919733 74.164279 
L 526.822193 75.163588 
L 527.724653 75.817187 
L 528.627113 76.150858 
L 529.529573 76.174351 
L 530.432032 75.943516 
L 531.785722 75.217607 
L 535.395562 73.156056 
L 536.298022 72.949531 
L 537.200482 73.054775 
L 537.651712 73.187211 
L 538.554172 73.822213 
L 539.456632 74.805951 
L 540.359092 76.253799 
L 541.261552 78.084016 
L 542.615242 81.660816 
L 543.968931 86.029974 
L 545.773851 92.811993 
L 550.286151 110.657708 
L 552.542301 118.526507 
L 556.152141 129.869601 
L 558.40829 137.322982 
L 560.21321 144.019598 
L 562.01813 151.512146 
L 565.17674 165.870766 
L 568.78658 182.086777 
L 571.493959 193.091693 
L 575.103799 206.601497 
L 584.128398 239.406772 
L 586.384548 246.605525 
L 588.640698 252.924877 
L 590.445618 257.47613 
L 593.152998 263.614517 
L 596.762837 271.195369 
L 601.726367 281.255517 
L 603.982517 285.410325 
L 605.787437 288.309065 
L 607.592357 290.722024 
L 609.397276 292.662717 
L 611.202196 294.242863 
L 613.007116 295.563865 
L 617.519416 298.47793 
L 621.580486 300.843159 
L 623.836635 301.906443 
L 626.092785 302.70402 
L 628.348935 303.226773 
L 630.605085 303.503943 
L 633.763695 303.655957 
L 636.471074 303.67725 
L 636.471074 303.67725 
" style="fill:none;stroke:#1f77b4;stroke-linecap:square;stroke-width:1.5;"/>
   </g>
   <g id="line2d_11">
    <path clip-path="url(#pdbfe985651)" d="M 453.894516 302.508 
L 587.638601 302.508 
" style="fill:none;stroke:#000000;stroke-width:3;"/>
   </g>
   <g id="patch_5">
    <path d="M 394.363636 320.4 
L 648 320.4 
" style="fill:none;stroke:#808080;stroke-linecap:square;stroke-linejoin:miter;stroke-width:0.8;"/>
   </g>
   <g id="text_13">
    <!-- -0.85  -->
    <g transform="translate(410.317172 289.278)scale(0.15 -0.15)">
     <defs>
      <path d="M 4.890625 31.390625 
L 31.203125 31.390625 
L 31.203125 23.390625 
L 4.890625 23.390625 
z
" id="DejaVuSans-45"/>
      <path d="M 31.78125 34.625 
Q 24.75 34.625 20.71875 30.859375 
Q 16.703125 27.09375 16.703125 20.515625 
Q 16.703125 13.921875 20.71875 10.15625 
Q 24.75 6.390625 31.78125 6.390625 
Q 38.8125 6.390625 42.859375 10.171875 
Q 46.921875 13.96875 46.921875 20.515625 
Q 46.921875 27.09375 42.890625 30.859375 
Q 38.875 34.625 31.78125 34.625 
z
M 21.921875 38.8125 
Q 15.578125 40.375 12.03125 44.71875 
Q 8.5 49.078125 8.5 55.328125 
Q 8.5 64.0625 14.71875 69.140625 
Q 20.953125 74.21875 31.78125 74.21875 
Q 42.671875 74.21875 48.875 69.140625 
Q 55.078125 64.0625 55.078125 55.328125 
Q 55.078125 49.078125 51.53125 44.71875 
Q 48 40.375 41.703125 38.8125 
Q 48.828125 37.15625 52.796875 32.3125 
Q 56.78125 27.484375 56.78125 20.515625 
Q 56.78125 9.90625 50.3125 4.234375 
Q 43.84375 -1.421875 31.78125 -1.421875 
Q 19.734375 -1.421875 13.25 4.234375 
Q 6.78125 9.90625 6.78125 20.515625 
Q 6.78125 27.484375 10.78125 32.3125 
Q 14.796875 37.15625 21.921875 38.8125 
z
M 18.3125 54.390625 
Q 18.3125 48.734375 21.84375 45.5625 
Q 25.390625 42.390625 31.78125 42.390625 
Q 38.140625 42.390625 41.71875 45.5625 
Q 45.3125 48.734375 45.3125 54.390625 
Q 45.3125 60.0625 41.71875 63.234375 
Q 38.140625 66.40625 31.78125 66.40625 
Q 25.390625 66.40625 21.84375 63.234375 
Q 18.3125 60.0625 18.3125 54.390625 
z
" id="DejaVuSans-56"/>
     </defs>
     <use xlink:href="#DejaVuSans-45"/>
     <use x="36.083984" xlink:href="#DejaVuSans-48"/>
     <use x="99.707031" xlink:href="#DejaVuSans-46"/>
     <use x="131.494141" xlink:href="#DejaVuSans-56"/>
     <use x="195.117188" xlink:href="#DejaVuSans-53"/>
     <use x="258.740234" xlink:href="#DejaVuSans-32"/>
    </g>
   </g>
   <g id="text_14">
    <!--  0.14 -->
    <g transform="translate(587.638601 289.278)scale(0.15 -0.15)">
     <use xlink:href="#DejaVuSans-32"/>
     <use x="31.787109" xlink:href="#DejaVuSans-48"/>
     <use x="95.410156" xlink:href="#DejaVuSans-46"/>
     <use x="127.197266" xlink:href="#DejaVuSans-49"/>
     <use x="190.820312" xlink:href="#DejaVuSans-52"/>
    </g>
   </g>
   <g id="text_15">
    <!-- 94% HDI -->
    <g transform="translate(488.085308 228.42)scale(0.15 -0.15)">
     <use xlink:href="#DejaVuSans-57"/>
     <use x="63.623047" xlink:href="#DejaVuSans-52"/>
     <use x="127.246094" xlink:href="#DejaVuSans-37"/>
     <use x="222.265625" xlink:href="#DejaVuSans-32"/>
     <use x="254.052734" xlink:href="#DejaVuSans-72"/>
     <use x="329.248047" xlink:href="#DejaVuSans-68"/>
     <use x="406.25" xlink:href="#DejaVuSans-73"/>
    </g>
   </g>
   <g id="text_16">
    <!-- mean=-0.33 -->
    <g transform="translate(477.211395 96.12)scale(0.15 -0.15)">
     <defs>
      <path d="M 40.578125 39.3125 
Q 47.65625 37.796875 51.625 33 
Q 55.609375 28.21875 55.609375 21.1875 
Q 55.609375 10.40625 48.1875 4.484375 
Q 40.765625 -1.421875 27.09375 -1.421875 
Q 22.515625 -1.421875 17.65625 -0.515625 
Q 12.796875 0.390625 7.625 2.203125 
L 7.625 11.71875 
Q 11.71875 9.328125 16.59375 8.109375 
Q 21.484375 6.890625 26.8125 6.890625 
Q 36.078125 6.890625 40.9375 10.546875 
Q 45.796875 14.203125 45.796875 21.1875 
Q 45.796875 27.640625 41.28125 31.265625 
Q 36.765625 34.90625 28.71875 34.90625 
L 20.21875 34.90625 
L 20.21875 43.015625 
L 29.109375 43.015625 
Q 36.375 43.015625 40.234375 45.921875 
Q 44.09375 48.828125 44.09375 54.296875 
Q 44.09375 59.90625 40.109375 62.90625 
Q 36.140625 65.921875 28.71875 65.921875 
Q 24.65625 65.921875 20.015625 65.03125 
Q 15.375 64.15625 9.8125 62.3125 
L 9.8125 71.09375 
Q 15.4375 72.65625 20.34375 73.4375 
Q 25.25 74.21875 29.59375 74.21875 
Q 40.828125 74.21875 47.359375 69.109375 
Q 53.90625 64.015625 53.90625 55.328125 
Q 53.90625 49.265625 50.4375 45.09375 
Q 46.96875 40.921875 40.578125 39.3125 
z
" id="DejaVuSans-51"/>
     </defs>
     <use xlink:href="#DejaVuSans-109"/>
     <use x="97.412109" xlink:href="#DejaVuSans-101"/>
     <use x="158.935547" xlink:href="#DejaVuSans-97"/>
     <use x="220.214844" xlink:href="#DejaVuSans-110"/>
     <use x="283.59375" xlink:href="#DejaVuSans-61"/>
     <use x="367.382812" xlink:href="#DejaVuSans-45"/>
     <use x="403.466797" xlink:href="#DejaVuSans-48"/>
     <use x="467.089844" xlink:href="#DejaVuSans-46"/>
     <use x="498.876953" xlink:href="#DejaVuSans-51"/>
     <use x="562.5" xlink:href="#DejaVuSans-51"/>
    </g>
   </g>
   <g id="text_17">
    <!-- b -->
    <g transform="translate(516.103068 37.2)scale(0.16 -0.16)">
     <defs>
      <path d="M 48.6875 27.296875 
Q 48.6875 37.203125 44.609375 42.84375 
Q 40.53125 48.484375 33.40625 48.484375 
Q 26.265625 48.484375 22.1875 42.84375 
Q 18.109375 37.203125 18.109375 27.296875 
Q 18.109375 17.390625 22.1875 11.75 
Q 26.265625 6.109375 33.40625 6.109375 
Q 40.53125 6.109375 44.609375 11.75 
Q 48.6875 17.390625 48.6875 27.296875 
z
M 18.109375 46.390625 
Q 20.953125 51.265625 25.265625 53.625 
Q 29.59375 56 35.59375 56 
Q 45.5625 56 51.78125 48.09375 
Q 58.015625 40.1875 58.015625 27.296875 
Q 58.015625 14.40625 51.78125 6.484375 
Q 45.5625 -1.421875 35.59375 -1.421875 
Q 29.59375 -1.421875 25.265625 0.953125 
Q 20.953125 3.328125 18.109375 8.203125 
L 18.109375 0 
L 9.078125 0 
L 9.078125 75.984375 
L 18.109375 75.984375 
z
" id="DejaVuSans-98"/>
     </defs>
     <use xlink:href="#DejaVuSans-98"/>
    </g>
   </g>
  </g>
 </g>
 <defs>
  <clipPath id="p41251c03af">
   <rect height="277.2" width="253.636364" x="90" y="43.2"/>
  </clipPath>
  <clipPath id="pdbfe985651">
   <rect height="277.2" width="253.636364" x="394.363636" y="43.2"/>
  </clipPath>
 </defs>
</svg>
