<?xml version="1.0" encoding="utf-8" standalone="no"?>
<!DOCTYPE svg PUBLIC "-//W3C//DTD SVG 1.1//EN"
  "http://www.w3.org/Graphics/SVG/1.1/DTD/svg11.dtd">
<!-- Created with matplotlib (https://matplotlib.org/) -->
<svg height="504pt" version="1.1" viewBox="0 0 504 504" width="504pt" xmlns="http://www.w3.org/2000/svg" xmlns:xlink="http://www.w3.org/1999/xlink">
 <metadata>
  <rdf:RDF xmlns:cc="http://creativecommons.org/ns#" xmlns:dc="http://purl.org/dc/elements/1.1/" xmlns:rdf="http://www.w3.org/1999/02/22-rdf-syntax-ns#">
   <cc:Work>
    <dc:type rdf:resource="http://purl.org/dc/dcmitype/StillImage"/>
    <dc:date>2021-01-03T13:04:54.427961</dc:date>
    <dc:format>image/svg+xml</dc:format>
    <dc:creator>
     <cc:Agent>
      <dc:title>Matplotlib v3.3.3, https://matplotlib.org/</dc:title>
     </cc:Agent>
    </dc:creator>
   </cc:Work>
  </rdf:RDF>
 </metadata>
 <defs>
  <style type="text/css">*{stroke-linecap:butt;stroke-linejoin:round;}</style>
 </defs>
 <g id="figure_1">
  <g id="patch_1">
   <path d="M 0 504 
L 504 504 
L 504 0 
L 0 0 
z
" style="fill:#ffffff;"/>
  </g>
  <g id="axes_1">
   <g id="patch_2">
    <path d="M 63 448.56 
L 453.6 448.56 
L 453.6 60.48 
L 63 60.48 
z
" style="fill:#ffffff;"/>
   </g>
   <g id="PolyCollection_1">
    <path clip-path="url(#p39da3fd9d1)" d="M 128.1 228.87991 
L 128.1 519.835606 
L 128.752305 519.489148 
L 129.404609 518.603849 
L 130.056914 516.894898 
L 130.709218 516.068713 
L 131.361523 512.914676 
L 132.013828 512.575584 
L 132.666132 511.626271 
L 133.318437 511.066416 
L 133.970741 509.691852 
L 134.623046 508.563441 
L 135.275351 507.735765 
L 135.927655 507.102338 
L 136.57996 507.408155 
L 137.232265 505.899567 
L 137.884569 502.379517 
L 138.536874 504.701448 
L 139.189178 501.290739 
L 139.841483 500.466352 
L 140.493788 501.163656 
L 141.146092 498.909242 
L 141.798397 498.128199 
L 142.450701 500.251531 
L 143.103006 499.538677 
L 143.755311 498.84691 
L 144.407615 497.679905 
L 145.05992 496.797543 
L 145.712224 495.913076 
L 146.364529 495.241679 
L 147.016834 494.13784 
L 147.669138 493.371887 
L 148.321443 492.477062 
L 148.973747 491.744404 
L 149.626052 491.010308 
L 150.278357 490.413367 
L 150.930661 490.225377 
L 151.582966 489.502346 
L 152.235271 489.217957 
L 152.887575 488.602187 
L 153.53988 486.003094 
L 154.192184 485.235174 
L 154.844489 490.775054 
L 155.496794 489.608452 
L 156.149098 488.795247 
L 156.801403 480.557865 
L 157.453707 479.636011 
L 158.106012 478.956335 
L 158.758317 478.139258 
L 159.410621 477.44554 
L 160.062926 476.75061 
L 160.71523 476.054468 
L 161.367535 475.357112 
L 162.01984 473.125971 
L 162.672144 472.579024 
L 163.324449 473.052917 
L 163.976754 472.239437 
L 164.629058 480.146382 
L 165.281363 471.948205 
L 165.933667 471.152959 
L 166.585972 469.814467 
L 167.238277 469.186827 
L 167.890581 468.355913 
L 168.542886 467.928549 
L 169.19519 467.250565 
L 169.847495 466.666259 
L 170.4998 466.864493 
L 171.152104 465.97546 
L 171.804409 465.458544 
L 172.456713 464.561656 
L 173.109018 462.82396 
L 173.761323 462.060664 
L 174.413627 463.279443 
L 175.065932 462.721432 
L 175.718236 462.484261 
L 176.370541 461.423063 
L 177.022846 460.754816 
L 177.67515 460.208363 
L 178.327455 459.570435 
L 178.97976 458.840431 
L 179.632064 458.622887 
L 180.284369 458.014484 
L 180.936673 454.07468 
L 181.588978 448.230016 
L 182.241283 452.658273 
L 182.893587 451.761948 
L 183.545892 445.177005 
L 184.198196 450.175661 
L 184.850501 449.433826 
L 185.502806 448.989884 
L 186.15511 443.007969 
L 186.807415 447.200784 
L 187.459719 445.995244 
L 188.112024 445.140296 
L 188.764329 444.55981 
L 189.416633 442.704765 
L 190.068938 442.105335 
L 190.721242 440.964398 
L 191.373547 439.954563 
L 192.025852 439.034467 
L 192.678156 435.901066 
L 193.330461 436.904377 
L 193.982766 435.884519 
L 194.63507 434.862733 
L 195.287375 433.839028 
L 195.939679 432.911314 
L 196.591984 432.188309 
L 197.244289 431.613676 
L 197.896593 430.678626 
L 198.548898 429.741932 
L 199.201202 428.803599 
L 199.853507 427.863629 
L 200.505812 426.922028 
L 201.158116 425.978798 
L 201.810421 425.097623 
L 202.462725 424.218688 
L 203.11503 415.483244 
L 203.767335 414.757432 
L 204.419639 413.63507 
L 205.071944 415.748613 
L 205.724248 415.196869 
L 206.376553 414.142849 
L 207.028858 413.592464 
L 207.681162 412.102882 
L 208.333467 411.252464 
L 208.985772 410.40077 
L 209.638076 409.547799 
L 210.290381 405.218135 
L 210.942685 404.307319 
L 211.59499 403.395183 
L 212.247295 400.090568 
L 212.899599 399.488429 
L 213.551904 400.650889 
L 214.204208 397.303759 
L 214.856513 396.442996 
L 215.508818 395.682309 
L 216.161122 395.712517 
L 216.813427 394.540309 
L 217.465731 393.100239 
L 218.118036 393.34309 
L 218.770341 392.363805 
L 219.422645 391.551242 
L 220.07495 390.653072 
L 220.727255 390.608559 
L 221.379559 389.671607 
L 222.031864 389.230968 
L 222.684168 387.69035 
L 223.336473 386.552688 
L 223.988778 385.703097 
L 224.641082 386.720524 
L 225.293387 385.811724 
L 225.945691 385.190679 
L 226.597996 383.887429 
L 227.250301 382.34478 
L 227.902605 381.760949 
L 228.55491 381.045777 
L 229.207214 380.515142 
L 229.859519 379.983793 
L 230.511824 379.300816 
L 231.164128 377.855793 
L 231.816433 376.96391 
L 232.468737 377.888678 
L 233.121042 377.01208 
L 233.773347 376.969175 
L 234.425651 376.377588 
L 235.077956 375.304322 
L 235.730261 374.538806 
L 236.382565 373.113784 
L 237.03487 372.023057 
L 237.687174 370.930951 
L 238.339479 369.911212 
L 238.991784 368.897761 
L 239.644088 368.171814 
L 240.296393 367.799927 
L 240.948697 367.007581 
L 241.601002 366.350503 
L 242.253307 366.153841 
L 242.905611 366.127409 
L 243.557916 363.892101 
L 244.21022 363.035021 
L 244.862525 362.297798 
L 245.51483 361.331739 
L 246.167134 359.850472 
L 246.819439 359.164067 
L 247.471743 358.445937 
L 248.124048 357.757068 
L 248.776353 357.585941 
L 249.428657 356.784473 
L 250.080962 356.023042 
L 250.733267 355.260591 
L 251.385571 354.337959 
L 252.037876 353.885669 
L 252.69018 352.967102 
L 253.342485 352.212018 
L 253.99479 351.514578 
L 254.647094 350.816171 
L 255.299399 350.116793 
L 255.951703 349.513269 
L 256.604008 348.737233 
L 257.256313 347.677204 
L 257.908617 346.805821 
L 258.560922 345.874323 
L 259.213226 345.00407 
L 259.865531 343.991385 
L 260.517836 343.230309 
L 261.17014 342.932346 
L 261.822445 342.233823 
L 262.474749 341.45526 
L 263.127054 340.715183 
L 263.779359 338.428769 
L 264.431663 337.497751 
L 265.083968 336.596861 
L 265.736273 335.895272 
L 266.388577 335.192696 
L 267.040882 334.48913 
L 267.693186 334.826852 
L 268.345491 333.760976 
L 268.997796 333.0045 
L 269.6501 332.24698 
L 270.302405 331.49905 
L 270.954709 330.246744 
L 271.607014 328.924971 
L 272.259319 328.328799 
L 272.911623 328.111894 
L 273.563928 327.39823 
L 274.216232 326.91487 
L 274.868537 326.572683 
L 275.520842 325.971488 
L 276.173146 324.624731 
L 276.825451 324.084698 
L 277.477756 323.175086 
L 278.13006 322.373519 
L 278.782365 321.651505 
L 279.434669 320.92843 
L 280.086974 320.315245 
L 280.739279 319.561098 
L 281.391583 318.184692 
L 282.043888 317.292764 
L 282.696192 316.345849 
L 283.348497 315.61058 
L 284.000802 314.874229 
L 284.653106 315.150362 
L 285.305411 314.372344 
L 285.957715 309.01169 
L 286.61002 308.342684 
L 287.262325 307.750942 
L 287.914629 307.158215 
L 288.566934 310.109928 
L 289.219238 309.328508 
L 289.871543 308.232178 
L 290.523848 304.777334 
L 291.176152 303.446845 
L 291.828457 303.580819 
L 292.480762 302.558276 
L 293.133066 301.798945 
L 293.785371 300.252076 
L 294.437675 299.167773 
L 295.08998 297.52408 
L 295.742285 296.923656 
L 296.394589 296.252837 
L 297.046894 295.393502 
L 297.699198 295.443823 
L 298.351503 294.614921 
L 299.003808 293.338924 
L 299.656112 292.537305 
L 300.308417 291.230122 
L 300.960721 290.591684 
L 301.613026 291.063376 
L 302.265331 290.188255 
L 302.917635 289.251951 
L 303.56994 288.530719 
L 304.222244 288.043832 
L 304.874549 286.233248 
L 305.526854 285.26402 
L 306.179158 284.813524 
L 306.831463 284.809933 
L 307.483768 284.161795 
L 308.136072 281.699234 
L 308.788377 280.577282 
L 309.440681 279.805792 
L 310.092986 278.706834 
L 310.745291 278.3364 
L 311.397595 277.270456 
L 312.0499 276.44761 
L 312.702204 275.62359 
L 313.354509 274.798392 
L 314.006814 274.168332 
L 314.659118 273.591111 
L 315.311423 272.882746 
L 315.963727 271.661129 
L 316.616032 271.240681 
L 317.268337 270.566234 
L 317.920641 266.785856 
L 318.572946 265.810023 
L 319.225251 265.195354 
L 319.877555 264.481236 
L 320.52986 263.094411 
L 321.182164 261.91213 
L 321.834469 261.703206 
L 322.486774 262.05337 
L 323.139078 261.360326 
L 323.791383 263.391164 
L 324.443687 262.146269 
L 325.095992 261.20368 
L 325.748297 260.435691 
L 326.400601 259.410509 
L 327.052906 258.620744 
L 327.70521 257.708018 
L 328.357515 256.900325 
L 329.00982 256.091301 
L 329.662124 255.321336 
L 330.314429 255.827834 
L 330.966733 252.060232 
L 331.619038 251.200637 
L 332.271343 252.025997 
L 332.923647 251.450597 
L 333.575952 250.390342 
L 334.228257 249.787217 
L 334.880561 248.827592 
L 335.532866 247.975006 
L 336.18517 247.102408 
L 336.837475 246.306584 
L 337.48978 245.011653 
L 338.142084 244.621707 
L 338.794389 243.791962 
L 339.446693 241.285018 
L 340.098998 240.891443 
L 340.751303 240.13517 
L 341.403607 238.895922 
L 342.055912 238.323308 
L 342.708216 237.777516 
L 343.360521 236.411419 
L 344.012826 235.810136 
L 344.66513 234.952036 
L 345.317435 236.062841 
L 345.969739 233.373623 
L 346.622044 233.79214 
L 347.274349 232.872198 
L 347.926653 232.187385 
L 348.578958 232.224354 
L 349.231263 231.3597 
L 349.883567 230.509306 
L 350.535872 228.604378 
L 351.188176 227.74614 
L 351.840481 226.972596 
L 352.492786 226.479349 
L 353.14509 226.266944 
L 353.797395 225.719019 
L 354.449699 224.620216 
L 355.102004 225.455774 
L 355.754309 224.541319 
L 356.406613 222.137225 
L 357.058918 221.781699 
L 357.711222 221.000925 
L 358.363527 220.001677 
L 359.015832 219.300651 
L 359.668136 218.763938 
L 360.320441 218.139553 
L 360.972745 217.739268 
L 361.62505 216.914382 
L 362.277355 214.662451 
L 362.929659 213.944778 
L 363.581964 213.530417 
L 364.234269 212.63333 
L 364.886573 211.974514 
L 365.538878 211.313608 
L 366.191182 210.650586 
L 366.843487 210.0719 
L 367.495792 209.318104 
L 368.148096 208.648594 
L 368.800401 206.663442 
L 369.452705 205.441194 
L 370.10501 204.564759 
L 370.757315 203.186074 
L 371.409619 202.476681 
L 372.061924 201.707268 
L 372.714228 200.942934 
L 373.366533 200.375891 
L 374.018838 199.806548 
L 374.671142 199.234874 
L 375.323447 199.131517 
L 375.975752 197.769242 
L 376.628056 196.826174 
L 377.280361 196.218343 
L 377.932665 196.589053 
L 378.58497 195.902507 
L 379.237275 194.630385 
L 379.889579 193.761598 
L 380.541884 192.667214 
L 381.194188 191.687623 
L 381.846493 190.739042 
L 382.498798 189.737605 
L 383.151102 188.767479 
L 383.803407 187.794986 
L 384.455711 187.265453 
L 385.108016 186.311104 
L 385.760321 184.901513 
L 386.412625 184.434514 
L 387.06493 183.52912 
L 387.717234 183.008569 
L 388.369539 182.260863 
L 389.021844 181.196532 
L 389.674148 180.480746 
L 390.326453 180.203637 
L 390.978758 179.337627 
L 391.631062 178.176707 
L 392.283367 177.914411 
L 392.935671 177.197688 
L 393.587976 176.574922 
L 394.240281 175.839912 
L 394.892585 175.027434 
L 395.54489 174.392417 
L 396.197194 173.155544 
L 396.849499 172.27493 
L 397.501804 171.416639 
L 398.154108 170.47086 
L 398.806413 169.563251 
L 399.458717 168.660131 
L 400.111022 167.736614 
L 400.763327 166.990887 
L 401.415631 166.345683 
L 402.067936 165.207137 
L 402.72024 164.343259 
L 403.372545 163.551367 
L 404.02485 162.619343 
L 404.677154 161.495375 
L 405.329459 160.502209 
L 405.981764 159.824972 
L 406.634068 159.061523 
L 407.286373 158.33386 
L 407.938677 157.601178 
L 408.590982 156.863367 
L 409.243287 156.120314 
L 409.895591 155.371901 
L 410.547896 154.618008 
L 411.2002 153.591489 
L 411.852505 152.484995 
L 412.50481 151.572083 
L 413.157114 150.487268 
L 413.809419 149.263138 
L 414.461723 148.474258 
L 415.114028 147.790628 
L 415.766333 146.829713 
L 416.418637 145.626287 
L 417.070942 144.62419 
L 417.723246 143.127802 
L 418.375551 142.467765 
L 419.027856 141.770414 
L 419.68016 140.890578 
L 420.332465 140.069835 
L 420.98477 139.176565 
L 421.637074 138.079422 
L 422.289379 136.660863 
L 422.941683 135.312973 
L 423.593988 134.2563 
L 424.246293 133.28143 
L 424.898597 131.953386 
L 425.550902 130.588276 
L 426.203206 129.516747 
L 426.855511 128.383076 
L 427.507816 127.328261 
L 428.16012 126.24875 
L 428.812425 125.109551 
L 429.464729 123.909938 
L 430.117034 122.726577 
L 430.769339 121.647971 
L 431.421643 120.557192 
L 432.073948 119.453265 
L 432.726253 118.335648 
L 433.378557 117.203761 
L 434.030862 116.056979 
L 434.683166 114.894629 
L 435.335471 113.715985 
L 435.987776 112.478362 
L 436.64008 111.148115 
L 437.292385 109.804606 
L 437.944689 108.625892 
L 438.596994 107.42585 
L 439.249299 106.20318 
L 439.901603 104.933276 
L 440.553908 103.411909 
L 441.206212 102.101566 
L 441.858517 100.503245 
L 442.510822 98.65816 
L 443.163126 96.977308 
L 443.815431 95.642134 
L 444.467735 94.267166 
L 445.12004 92.694739 
L 445.772345 90.970737 
L 446.424649 89.081404 
L 447.076954 87.342937 
L 447.729259 85.526882 
L 448.381563 83.697526 
L 449.033868 81.671767 
L 449.686172 79.694457 
L 450.338477 77.578869 
L 450.990782 75.303165 
L 451.643086 72.85835 
L 452.295391 70.215944 
L 452.947695 66.710013 
L 452.947695 60.480003 
L 452.947695 60.480003 
L 452.295391 60.480019 
L 451.643086 60.480062 
L 450.990782 60.480144 
L 450.338477 60.480276 
L 449.686172 60.481274 
L 449.033868 60.480739 
L 448.381563 60.482626 
L 447.729259 60.481544 
L 447.076954 60.482103 
L 446.424649 60.482782 
L 445.772345 60.483593 
L 445.12004 60.484548 
L 444.467735 60.489956 
L 443.815431 60.486934 
L 443.163126 60.488389 
L 442.510822 60.490035 
L 441.858517 60.498254 
L 441.206212 60.493946 
L 440.553908 60.496236 
L 439.901603 60.506511 
L 439.249299 60.501545 
L 438.596994 60.504589 
L 437.944689 60.507909 
L 437.292385 60.511518 
L 436.64008 60.515429 
L 435.987776 60.519654 
L 435.335471 60.533381 
L 434.683166 60.529098 
L 434.030862 60.534344 
L 433.378557 60.539956 
L 432.726253 60.545948 
L 432.073948 60.552334 
L 431.421643 60.559127 
L 430.769339 60.572229 
L 430.117034 60.573988 
L 429.464729 60.582084 
L 428.812425 60.590643 
L 428.16012 60.599678 
L 427.507816 60.608194 
L 426.855511 60.616268 
L 426.203206 60.624647 
L 425.550902 60.633334 
L 424.898597 60.642335 
L 424.246293 60.651655 
L 423.593988 60.661297 
L 422.941683 60.671266 
L 422.289379 60.681567 
L 421.637074 60.692204 
L 420.98477 60.703183 
L 420.332465 60.714507 
L 419.68016 60.726181 
L 419.027856 60.73821 
L 418.375551 60.750599 
L 417.723246 60.763352 
L 417.070942 60.776474 
L 416.418637 60.78997 
L 415.766333 60.803844 
L 415.114028 60.8181 
L 414.461723 60.832745 
L 413.809419 60.847782 
L 413.157114 60.863216 
L 412.50481 60.879052 
L 411.852505 60.895295 
L 411.2002 60.91195 
L 410.547896 60.929021 
L 409.895591 60.946514 
L 409.243287 60.964432 
L 408.590982 60.982782 
L 407.938677 61.001568 
L 407.286373 61.020795 
L 406.634068 61.040467 
L 405.981764 61.142753 
L 405.329459 61.08117 
L 404.677154 61.102211 
L 404.02485 61.208308 
L 403.372545 61.145695 
L 402.72024 61.168148 
L 402.067936 61.191083 
L 401.415631 61.214505 
L 400.763327 61.238418 
L 400.111022 61.262827 
L 399.458717 61.287739 
L 398.806413 61.313159 
L 398.154108 61.339091 
L 397.501804 61.36554 
L 396.849499 61.392514 
L 396.197194 61.420015 
L 395.54489 62.014397 
L 394.892585 61.951605 
L 394.240281 61.986048 
L 393.587976 61.932837 
L 392.935671 61.96213 
L 392.283367 62.02123 
L 391.631062 61.627786 
L 390.978758 62.090891 
L 390.326453 62.135388 
L 389.674148 61.72531 
L 389.021844 61.758989 
L 388.369539 62.273721 
L 387.717234 62.321471 
L 387.06493 62.165348 
L 386.412625 62.205871 
L 385.760321 61.936434 
L 385.108016 62.516886 
L 384.455711 62.558369 
L 383.803407 62.125321 
L 383.151102 62.41777 
L 382.498798 62.462039 
L 381.846493 62.789681 
L 381.194188 62.846126 
L 380.541884 62.903487 
L 379.889579 63.097833 
L 379.237275 63.143861 
L 378.58497 63.698186 
L 377.932665 63.705352 
L 377.280361 62.472751 
L 376.628056 62.518762 
L 375.975752 62.565484 
L 375.323447 63.191526 
L 374.671142 62.661086 
L 374.018838 62.709979 
L 373.366533 62.75961 
L 372.714228 62.809983 
L 372.061924 62.861107 
L 371.409619 62.912988 
L 370.757315 62.965632 
L 370.10501 63.430627 
L 369.452705 63.48867 
L 368.800401 63.9422 
L 368.148096 65.201816 
L 367.495792 65.229684 
L 366.843487 65.31167 
L 366.191182 65.110871 
L 365.538878 65.194428 
L 364.886573 65.278948 
L 364.234269 65.364435 
L 363.581964 65.450897 
L 362.929659 65.106039 
L 362.277355 65.202566 
L 361.62505 66.619971 
L 360.972745 66.74476 
L 360.320441 66.286791 
L 359.668136 66.330894 
L 359.015832 66.241995 
L 358.363527 66.347558 
L 357.711222 66.629618 
L 357.058918 66.731343 
L 356.406613 66.136138 
L 355.754309 67.722612 
L 355.102004 67.926705 
L 354.449699 66.474302 
L 353.797395 67.123507 
L 353.14509 67.239761 
L 352.492786 66.810008 
L 351.840481 66.848561 
L 351.188176 66.941999 
L 350.535872 67.0363 
L 349.883567 68.440703 
L 349.231263 68.643373 
L 348.578958 68.791062 
L 347.926653 68.22036 
L 347.274349 68.349409 
L 346.622044 68.479931 
L 345.969739 67.491333 
L 345.317435 69.551299 
L 344.66513 67.924618 
L 344.012826 68.027806 
L 343.360521 67.982669 
L 342.708216 68.770052 
L 342.055912 68.89228 
L 341.403607 68.945793 
L 340.751303 69.645 
L 340.098998 69.777182 
L 339.446693 69.369146 
L 338.794389 71.240433 
L 338.142084 71.381385 
L 337.48978 71.096085 
L 336.837475 71.773646 
L 336.18517 71.80773 
L 335.532866 72.133319 
L 334.880561 72.316153 
L 334.228257 72.468106 
L 333.575952 72.573668 
L 332.923647 72.790779 
L 332.271343 72.692192 
L 331.619038 71.564866 
L 330.966733 71.744885 
L 330.314429 74.768317 
L 329.662124 73.852665 
L 329.00982 73.89504 
L 328.357515 74.075352 
L 327.70521 74.351404 
L 327.052906 74.671672 
L 326.400601 75.033923 
L 325.748297 75.918418 
L 325.095992 76.118445 
L 324.443687 76.32022 
L 323.791383 76.523431 
L 323.139078 73.647292 
L 322.486774 73.813577 
L 321.834469 73.313605 
L 321.182164 73.477988 
L 320.52986 73.643819 
L 319.877555 74.471579 
L 319.225251 74.666552 
L 318.572946 74.841513 
L 317.920641 75.017948 
L 317.268337 78.347658 
L 316.616032 78.536995 
L 315.963727 78.555956 
L 315.311423 78.919507 
L 314.659118 79.058148 
L 314.006814 79.307171 
L 313.354509 79.502949 
L 312.702204 79.700031 
L 312.0499 79.898422 
L 311.397595 80.098129 
L 310.745291 80.625034 
L 310.092986 80.560666 
L 309.440681 81.16787 
L 308.788377 81.443213 
L 308.136072 81.960847 
L 307.483768 84.060771 
L 306.831463 84.348407 
L 306.179158 83.728983 
L 305.526854 83.991602 
L 304.874549 84.256247 
L 304.222244 85.453381 
L 303.56994 85.699166 
L 302.917635 85.946513 
L 302.265331 86.195427 
L 301.613026 86.317669 
L 300.960721 85.349603 
L 300.308417 85.617117 
L 299.656112 86.378572 
L 299.003808 86.610654 
L 298.351503 87.542726 
L 297.699198 87.98224 
L 297.046894 87.314777 
L 296.394589 87.885392 
L 295.742285 87.790801 
L 295.08998 87.828595 
L 294.437675 88.774029 
L 293.785371 89.074618 
L 293.133066 89.848275 
L 292.480762 90.121443 
L 291.828457 90.396278 
L 291.176152 89.572398 
L 290.523848 90.2865 
L 289.871543 93.318717 
L 289.219238 93.856297 
L 288.566934 93.980422 
L 287.914629 90.714199 
L 287.262325 91.016575 
L 286.61002 91.274339 
L 285.957715 91.533503 
L 285.305411 95.92996 
L 284.653106 96.176674 
L 284.000802 95.473886 
L 283.348497 95.896879 
L 282.696192 96.307089 
L 282.043888 96.754136 
L 281.391583 97.165492 
L 280.739279 98.143285 
L 280.086974 98.452333 
L 279.434669 98.610125 
L 278.782365 98.964017 
L 278.13006 99.392087 
L 277.477756 99.787272 
L 276.825451 100.183569 
L 276.173146 100.516749 
L 275.520842 101.471164 
L 274.868537 101.744753 
L 274.216232 101.780408 
L 273.563928 101.970103 
L 272.911623 102.321029 
L 272.259319 102.203109 
L 271.607014 102.592479 
L 270.954709 103.43274 
L 270.302405 104.32302 
L 269.6501 104.752837 
L 268.997796 105.185619 
L 268.345491 105.621379 
L 267.693186 106.06013 
L 267.040882 105.327103 
L 266.388577 105.738232 
L 265.736273 106.101533 
L 265.083968 106.466771 
L 264.431663 106.833951 
L 263.779359 107.20308 
L 263.127054 108.785601 
L 262.474749 109.378963 
L 261.822445 109.965902 
L 261.17014 110.174254 
L 260.517836 110.319529 
L 259.865531 110.841667 
L 259.213226 111.367782 
L 258.560922 111.790839 
L 257.908617 112.299187 
L 257.256313 112.750486 
L 256.604008 113.51237 
L 255.951703 113.819383 
L 255.299399 114.120746 
L 254.647094 114.582986 
L 253.99479 115.047984 
L 253.342485 115.515752 
L 252.69018 115.986298 
L 252.037876 116.66216 
L 251.385571 116.935761 
L 250.733267 117.412718 
L 250.080962 117.780607 
L 249.428657 118.102368 
L 248.776353 118.425196 
L 248.124048 118.36111 
L 247.471743 118.850088 
L 246.819439 119.341946 
L 246.167134 119.727234 
L 245.51483 120.904786 
L 244.862525 121.54671 
L 244.21022 121.882942 
L 243.557916 122.205861 
L 242.905611 124.252781 
L 242.253307 124.115982 
L 241.601002 124.081088 
L 240.948697 124.477313 
L 240.296393 124.875103 
L 239.644088 124.945133 
L 238.991784 125.472286 
L 238.339479 125.951577 
L 237.687174 126.481997 
L 237.03487 127.071801 
L 236.382565 127.611022 
L 235.730261 128.626358 
L 235.077956 129.105565 
L 234.425651 129.707814 
L 233.773347 129.798406 
L 233.121042 129.412643 
L 232.468737 129.772136 
L 231.816433 128.69206 
L 231.164128 129.183095 
L 230.511824 130.319177 
L 229.859519 130.886278 
L 229.207214 131.10308 
L 228.55491 131.480266 
L 227.902605 131.858698 
L 227.250301 132.153293 
L 226.597996 133.597382 
L 225.945691 134.353793 
L 225.293387 134.682416 
L 224.641082 135.011875 
L 223.988778 133.619064 
L 223.336473 134.018537 
L 222.684168 134.930598 
L 222.031864 136.313172 
L 221.379559 136.588269 
L 220.727255 136.863884 
L 220.07495 136.413369 
L 219.422645 136.89313 
L 218.770341 137.289337 
L 218.118036 137.686839 
L 217.465731 137.072524 
L 216.813427 138.000992 
L 216.161122 138.62618 
L 215.508818 138.072509 
L 214.856513 138.404733 
L 214.204208 138.7378 
L 213.551904 141.582214 
L 212.899599 140.212387 
L 212.247295 140.494911 
L 211.59499 143.285713 
L 210.942685 143.758391 
L 210.290381 144.251763 
L 209.638076 148.158247 
L 208.985772 148.560156 
L 208.333467 148.91094 
L 207.681162 149.681073 
L 207.028858 150.736701 
L 206.376553 151.217282 
L 205.724248 151.699508 
L 205.071944 151.738438 
L 204.419639 149.282525 
L 203.767335 149.998269 
L 203.11503 150.486122 
L 202.462725 158.84016 
L 201.810421 159.542889 
L 201.158116 160.203329 
L 200.505812 160.891238 
L 199.853507 161.776367 
L 199.201202 162.45863 
L 198.548898 163.143993 
L 197.896593 163.78189 
L 197.244289 164.524033 
L 196.591984 165.010703 
L 195.939679 165.534418 
L 195.287375 166.123897 
L 194.63507 166.817991 
L 193.982766 167.307727 
L 193.330461 167.902861 
L 192.678156 166.501889 
L 192.025852 169.328524 
L 191.373547 169.947743 
L 190.721242 170.56926 
L 190.068938 171.454788 
L 189.416633 171.819198 
L 188.764329 173.510955 
L 188.112024 174.057498 
L 187.459719 174.5438 
L 186.807415 175.611675 
L 186.15511 170.864976 
L 185.502806 176.54798 
L 184.850501 176.626988 
L 184.198196 177.151446 
L 183.545892 171.969844 
L 182.893587 178.204775 
L 182.241283 178.733651 
L 181.588978 174.038929 
L 180.936673 179.531877 
L 180.284369 183.188561 
L 179.632064 183.58468 
L 178.97976 183.812342 
L 178.327455 184.312795 
L 177.67515 184.814478 
L 177.022846 185.317394 
L 176.370541 185.821545 
L 175.718236 186.270775 
L 175.065932 186.168331 
L 174.413627 186.539858 
L 173.761323 185.127358 
L 173.109018 185.49306 
L 172.456713 187.112328 
L 171.804409 187.698122 
L 171.152104 187.918433 
L 170.4998 188.467706 
L 169.847495 188.0155 
L 169.19519 188.475785 
L 168.542886 188.937082 
L 167.890581 189.251805 
L 167.238277 189.814202 
L 166.585972 190.078549 
L 165.933667 191.335344 
L 165.281363 191.805391 
L 164.629058 199.492854 
L 163.976754 191.287431 
L 163.324449 191.941613 
L 162.672144 191.428475 
L 162.01984 191.804814 
L 161.367535 193.839004 
L 160.71523 194.475421 
L 160.062926 195.000903 
L 159.410621 195.503008 
L 158.758317 195.909656 
L 158.106012 196.457652 
L 157.453707 196.936558 
L 156.801403 197.416523 
L 156.149098 205.337319 
L 155.496794 205.72861 
L 154.844489 206.613615 
L 154.192184 200.949038 
L 153.53988 201.60741 
L 152.887575 203.86961 
L 152.235271 204.314528 
L 151.582966 204.349024 
L 150.930661 204.880584 
L 150.278357 204.929518 
L 149.626052 205.550083 
L 148.973747 206.272531 
L 148.321443 206.947084 
L 147.669138 207.405302 
L 147.016834 207.816039 
L 146.364529 208.982965 
L 145.712224 209.339932 
L 145.05992 209.675464 
L 144.407615 210.365283 
L 143.755311 211.330782 
L 143.103006 211.966591 
L 142.450701 212.267272 
L 141.798397 209.983547 
L 141.146092 210.725134 
L 140.493788 213.026225 
L 139.841483 212.124569 
L 139.189178 212.623017 
L 138.536874 215.744454 
L 137.884569 213.35457 
L 137.232265 216.859047 
L 136.57996 218.308906 
L 135.927655 218.172413 
L 135.275351 219.09631 
L 134.623046 219.687482 
L 133.970741 220.349181 
L 133.318437 221.902652 
L 132.666132 222.247701 
L 132.013828 222.676698 
L 131.361523 222.724674 
L 130.709218 225.854725 
L 130.056914 226.41957 
L 129.404609 227.949199 
L 128.752305 228.730159 
L 128.1 228.87991 
z
" style="fill:#1f77b4;"/>
   </g>
   <g id="PolyCollection_2">
    <path clip-path="url(#p39da3fd9d1)" d="M 128.1 310.395069 
L 128.1 414.621941 
L 128.752305 413.909328 
L 129.404609 414.302939 
L 130.056914 413.602254 
L 130.709218 412.74949 
L 131.361523 411.797256 
L 132.013828 410.395566 
L 132.666132 409.661846 
L 133.318437 409.045676 
L 133.970741 408.589528 
L 134.623046 408.186564 
L 135.275351 401.888152 
L 135.927655 401.246996 
L 136.57996 400.543574 
L 137.232265 400.022256 
L 137.884569 399.322335 
L 138.536874 404.077889 
L 139.189178 403.17826 
L 139.841483 396.042873 
L 140.493788 395.226401 
L 141.146092 401.406083 
L 141.798397 400.383349 
L 142.450701 392.067273 
L 143.103006 398.772021 
L 143.755311 398.523526 
L 144.407615 398.059728 
L 145.05992 397.109507 
L 145.712224 396.428851 
L 146.364529 395.435714 
L 147.016834 395.793148 
L 147.669138 394.196106 
L 148.321443 393.104883 
L 148.973747 392.248363 
L 149.626052 392.578011 
L 150.278357 391.882796 
L 150.930661 387.257714 
L 151.582966 390.559454 
L 152.235271 384.06203 
L 152.887575 383.435877 
L 153.53988 384.523752 
L 154.192184 381.554786 
L 154.844489 380.937316 
L 155.496794 380.958966 
L 156.149098 380.429342 
L 156.801403 379.842751 
L 157.453707 379.530963 
L 158.106012 378.814933 
L 158.758317 377.744811 
L 159.410621 376.764697 
L 160.062926 375.65099 
L 160.71523 375.683779 
L 161.367535 377.801081 
L 162.01984 377.014808 
L 162.672144 369.437042 
L 163.324449 371.892473 
L 163.976754 371.174903 
L 164.629058 370.631894 
L 165.281363 369.763363 
L 165.933667 369.422129 
L 166.585972 368.533587 
L 167.238277 367.773494 
L 167.890581 367.066884 
L 168.542886 364.981494 
L 169.19519 364.547435 
L 169.847495 363.99652 
L 170.4998 362.873494 
L 171.152104 355.927712 
L 171.804409 355.89917 
L 172.456713 354.566236 
L 173.109018 353.652901 
L 173.761323 352.642663 
L 174.413627 352.30335 
L 175.065932 351.414711 
L 175.718236 351.031249 
L 176.370541 354.288337 
L 177.022846 353.653162 
L 177.67515 353.017251 
L 178.327455 351.867953 
L 178.97976 352.38421 
L 179.632064 351.473152 
L 180.284369 348.704221 
L 180.936673 348.249471 
L 181.588978 350.272057 
L 182.241283 349.403231 
L 182.893587 348.642207 
L 183.545892 348.281968 
L 184.198196 346.441498 
L 184.850501 345.433365 
L 185.502806 344.402653 
L 186.15511 343.7154 
L 186.807415 343.262257 
L 187.459719 340.869244 
L 188.112024 344.769121 
L 188.764329 339.205308 
L 189.416633 339.706621 
L 190.068938 336.109071 
L 190.721242 335.702384 
L 191.373547 334.297266 
L 192.025852 334.026893 
L 192.678156 334.566376 
L 193.330461 334.222326 
L 193.982766 333.867334 
L 194.63507 333.160829 
L 195.287375 332.155321 
L 195.939679 331.451746 
L 196.591984 330.69286 
L 197.244289 331.540819 
L 197.896593 329.810402 
L 198.548898 328.990691 
L 199.201202 328.386347 
L 199.853507 327.625212 
L 200.505812 327.40026 
L 201.158116 325.443097 
L 201.810421 324.847751 
L 202.462725 323.976809 
L 203.11503 323.323363 
L 203.767335 322.461907 
L 204.419639 321.723789 
L 205.071944 320.53295 
L 205.724248 319.885764 
L 206.376553 318.88734 
L 207.028858 317.929006 
L 207.681162 317.024238 
L 208.333467 316.30196 
L 208.985772 315.146933 
L 209.638076 314.60785 
L 210.290381 313.445867 
L 210.942685 312.911399 
L 211.59499 312.438686 
L 212.247295 311.691267 
L 212.899599 306.721671 
L 213.551904 305.906456 
L 214.204208 304.37755 
L 214.856513 306.540805 
L 215.508818 301.813972 
L 216.161122 301.116148 
L 216.813427 300.239393 
L 217.465731 299.05487 
L 218.118036 299.643161 
L 218.770341 299.109601 
L 219.422645 296.566584 
L 220.07495 294.697735 
L 220.727255 293.943192 
L 221.379559 294.173763 
L 222.031864 293.566787 
L 222.684168 289.562615 
L 223.336473 288.8074 
L 223.988778 288.32343 
L 224.641082 285.549381 
L 225.293387 284.724319 
L 225.945691 284.240326 
L 226.597996 284.561818 
L 227.250301 283.659538 
L 227.902605 282.50404 
L 228.55491 282.083839 
L 229.207214 281.391539 
L 229.859519 281.021783 
L 230.511824 279.356295 
L 231.164128 279.416134 
L 231.816433 278.041892 
L 232.468737 277.06393 
L 233.121042 276.12683 
L 233.773347 275.721743 
L 234.425651 275.062285 
L 235.077956 274.283053 
L 235.730261 273.437118 
L 236.382565 273.185278 
L 237.03487 271.991226 
L 237.687174 271.305344 
L 238.339479 270.474527 
L 238.991784 269.152501 
L 239.644088 268.317658 
L 240.296393 267.653547 
L 240.948697 266.896166 
L 241.601002 265.857599 
L 242.253307 265.745847 
L 242.905611 265.067897 
L 243.557916 263.54847 
L 244.21022 262.658938 
L 244.862525 261.916684 
L 245.51483 261.023689 
L 246.167134 260.453034 
L 246.819439 260.267497 
L 247.471743 256.933202 
L 248.124048 256.240309 
L 248.776353 255.566683 
L 249.428657 255.048494 
L 250.080962 254.530193 
L 250.733267 253.470774 
L 251.385571 252.778907 
L 252.037876 252.08725 
L 252.69018 250.101434 
L 253.342485 250.124746 
L 253.99479 248.949736 
L 254.647094 248.206924 
L 255.299399 247.611406 
L 255.951703 247.191759 
L 256.604008 241.797545 
L 257.256313 241.322821 
L 257.908617 240.530498 
L 258.560922 239.690764 
L 259.213226 241.142807 
L 259.865531 240.134245 
L 260.517836 239.205947 
L 261.17014 248.631871 
L 261.822445 237.891187 
L 262.474749 237.341776 
L 263.127054 244.913459 
L 263.779359 244.171138 
L 264.431663 243.584223 
L 265.083968 242.886825 
L 265.736273 242.308905 
L 266.388577 241.805933 
L 267.040882 241.153519 
L 267.693186 241.485731 
L 268.345491 240.734676 
L 268.997796 240.139472 
L 269.6501 234.309216 
L 270.302405 233.572997 
L 270.954709 232.856728 
L 271.607014 231.97711 
L 272.259319 231.138667 
L 272.911623 237.67958 
L 273.563928 236.821407 
L 274.216232 235.964265 
L 274.868537 235.149059 
L 275.520842 234.358964 
L 276.173146 233.68298 
L 276.825451 233.19963 
L 277.477756 232.065604 
L 278.13006 231.203284 
L 278.782365 230.675958 
L 279.434669 229.889631 
L 280.086974 229.455239 
L 280.739279 228.976927 
L 281.391583 228.159647 
L 282.043888 225.078449 
L 282.696192 224.25679 
L 283.348497 223.78962 
L 284.000802 223.070568 
L 284.653106 222.073121 
L 285.305411 221.331642 
L 285.957715 220.653793 
L 286.61002 220.19759 
L 287.262325 219.480166 
L 287.914629 203.699845 
L 288.566934 203.03317 
L 289.219238 215.75206 
L 289.871543 215.159728 
L 290.523848 214.366309 
L 291.176152 213.826005 
L 291.828457 200.368727 
L 292.480762 199.573046 
L 293.133066 214.13534 
L 293.785371 213.337362 
L 294.437675 212.864904 
L 295.08998 211.942464 
L 295.742285 210.892107 
L 296.394589 210.469471 
L 297.046894 210.132314 
L 297.699198 209.355083 
L 298.351503 196.482447 
L 299.003808 195.928831 
L 299.656112 201.784115 
L 300.308417 194.871699 
L 300.960721 200.80257 
L 301.613026 200.246973 
L 302.265331 199.292844 
L 302.917635 198.934334 
L 303.56994 197.817225 
L 304.222244 196.805094 
L 304.874549 195.9171 
L 305.526854 195.266624 
L 306.179158 194.706967 
L 306.831463 193.462977 
L 307.483768 192.72739 
L 308.136072 192.110013 
L 308.788377 191.379437 
L 309.440681 183.526824 
L 310.092986 182.073685 
L 310.745291 181.356901 
L 311.397595 180.749191 
L 312.0499 180.169808 
L 312.702204 179.442588 
L 313.354509 178.843487 
L 314.006814 178.240948 
L 314.659118 177.519833 
L 315.311423 176.980693 
L 315.963727 176.520975 
L 316.616032 177.136889 
L 317.268337 176.365926 
L 317.920641 175.523519 
L 318.572946 174.81798 
L 319.225251 173.574926 
L 319.877555 173.560924 
L 320.52986 172.647351 
L 321.182164 171.959369 
L 321.834469 172.515418 
L 322.486774 171.779571 
L 323.139078 171.328038 
L 323.791383 170.514994 
L 324.443687 169.230927 
L 325.095992 168.595264 
L 325.748297 167.606903 
L 326.400601 166.911294 
L 327.052906 166.568286 
L 327.70521 165.916635 
L 328.357515 164.280512 
L 329.00982 164.903615 
L 329.662124 164.289943 
L 330.314429 163.676734 
L 330.966733 163.063989 
L 331.619038 162.402916 
L 332.271343 161.687517 
L 332.923647 160.973366 
L 333.575952 160.388217 
L 334.228257 159.809353 
L 334.880561 159.230796 
L 335.532866 158.66302 
L 336.18517 157.374525 
L 336.837475 156.431878 
L 337.48978 155.7603 
L 338.142084 155.180984 
L 338.794389 154.53689 
L 339.446693 153.780114 
L 340.098998 153.358504 
L 340.751303 153.006998 
L 341.403607 151.839914 
L 342.055912 151.585893 
L 342.708216 151.144566 
L 343.360521 150.452514 
L 344.012826 150.055689 
L 344.66513 149.309776 
L 345.317435 148.71136 
L 345.969739 148.26875 
L 346.622044 147.361773 
L 347.274349 148.940955 
L 347.926653 148.28394 
L 348.578958 147.714733 
L 349.231263 146.759192 
L 349.883567 146.08491 
L 350.535872 145.522283 
L 351.188176 144.750249 
L 351.840481 131.501315 
L 352.492786 131.013964 
L 353.14509 130.521299 
L 353.797395 129.810799 
L 354.449699 129.251588 
L 355.102004 128.69645 
L 355.754309 128.262412 
L 356.406613 127.729086 
L 357.058918 127.100442 
L 357.711222 128.235603 
L 358.363527 127.700313 
L 359.015832 123.178151 
L 359.668136 122.63703 
L 360.320441 122.024382 
L 360.972745 121.508405 
L 361.62505 121.019885 
L 362.277355 120.444338 
L 362.929659 119.765228 
L 363.581964 119.430739 
L 364.234269 118.877401 
L 364.886573 120.158346 
L 365.538878 119.549265 
L 366.191182 118.781068 
L 366.843487 118.13617 
L 367.495792 117.733049 
L 368.148096 117.164224 
L 368.800401 116.809967 
L 369.452705 115.995103 
L 370.10501 115.416116 
L 370.757315 114.861732 
L 371.409619 114.36501 
L 372.061924 113.826541 
L 372.714228 113.435876 
L 373.366533 112.865894 
L 374.018838 112.407707 
L 374.671142 112.10229 
L 375.323447 111.339561 
L 375.975752 110.593005 
L 376.628056 108.470942 
L 377.280361 107.978871 
L 377.932665 107.454601 
L 378.58497 106.984588 
L 379.237275 106.560794 
L 379.889579 105.964911 
L 380.541884 105.099204 
L 381.194188 104.303409 
L 381.846493 104.705027 
L 382.498798 104.150032 
L 383.151102 103.480111 
L 383.803407 102.912858 
L 384.455711 102.414032 
L 385.108016 101.918912 
L 385.760321 101.425132 
L 386.412625 100.982771 
L 387.06493 100.461145 
L 387.717234 100.029014 
L 388.369539 99.507103 
L 389.021844 99.102267 
L 389.674148 98.676038 
L 390.326453 97.279367 
L 390.978758 97.108131 
L 391.631062 96.511137 
L 392.283367 95.843932 
L 392.935671 96.12869 
L 393.587976 95.660249 
L 394.240281 94.845013 
L 394.892585 94.345797 
L 395.54489 93.320952 
L 396.197194 92.801632 
L 396.849499 92.355533 
L 397.501804 91.988811 
L 398.154108 91.626741 
L 398.806413 91.028905 
L 399.458717 90.205128 
L 400.111022 89.956408 
L 400.763327 89.490147 
L 401.415631 89.043909 
L 402.067936 88.389207 
L 402.72024 87.92086 
L 403.372545 87.421926 
L 404.02485 87.037804 
L 404.677154 86.50939 
L 405.329459 85.989747 
L 405.981764 85.568351 
L 406.634068 85.172768 
L 407.286373 84.766419 
L 407.938677 84.337807 
L 408.590982 83.90954 
L 409.243287 83.22052 
L 409.895591 83.018438 
L 410.547896 82.437256 
L 411.2002 82.044865 
L 411.852505 81.642026 
L 412.50481 81.132874 
L 413.157114 80.937365 
L 413.809419 80.517144 
L 414.461723 79.945492 
L 415.114028 79.382209 
L 415.766333 78.929225 
L 416.418637 78.707023 
L 417.070942 78.297042 
L 417.723246 77.884008 
L 418.375551 77.383459 
L 419.027856 77.095402 
L 419.68016 76.652852 
L 420.332465 76.20342 
L 420.98477 75.806232 
L 421.637074 75.517176 
L 422.289379 75.068358 
L 422.941683 74.556823 
L 423.593988 74.139023 
L 424.246293 73.83581 
L 424.898597 73.539152 
L 425.550902 73.071537 
L 426.203206 72.674188 
L 426.855511 72.34922 
L 427.507816 72.018779 
L 428.16012 71.70142 
L 428.812425 71.426459 
L 429.464729 70.921967 
L 430.117034 70.54364 
L 430.769339 70.234616 
L 431.421643 69.831628 
L 432.073948 69.509886 
L 432.726253 69.133838 
L 433.378557 68.748561 
L 434.030862 68.424616 
L 434.683166 68.116992 
L 435.335471 67.8103 
L 435.987776 67.504897 
L 436.64008 67.170184 
L 437.292385 66.842209 
L 437.944689 66.513321 
L 438.596994 66.190983 
L 439.249299 65.872848 
L 439.901603 65.572803 
L 440.553908 65.249669 
L 441.206212 64.950874 
L 441.858517 64.651958 
L 442.510822 64.382422 
L 443.163126 64.073781 
L 443.815431 63.790915 
L 444.467735 63.508831 
L 445.12004 63.245707 
L 445.772345 62.97047 
L 446.424649 62.705333 
L 447.076954 62.464304 
L 447.729259 62.222796 
L 448.381563 61.981722 
L 449.033868 61.752435 
L 449.686172 61.525921 
L 450.338477 61.309863 
L 450.990782 61.113107 
L 451.643086 60.917187 
L 452.295391 60.742347 
L 452.947695 60.589675 
L 452.947695 60.480003 
L 452.947695 60.480003 
L 452.295391 60.480019 
L 451.643086 60.480062 
L 450.990782 60.480461 
L 450.338477 60.480276 
L 449.686172 60.480471 
L 449.033868 60.481877 
L 448.381563 60.481093 
L 447.729259 60.483446 
L 447.076954 60.484436 
L 446.424649 60.482782 
L 445.772345 60.486872 
L 445.12004 60.48833 
L 444.467735 60.485657 
L 443.815431 60.491756 
L 443.163126 60.493735 
L 442.510822 60.503351 
L 441.858517 60.491883 
L 441.206212 60.493946 
L 440.553908 60.503554 
L 439.901603 60.515794 
L 439.249299 60.501545 
L 438.596994 60.513061 
L 437.944689 60.529554 
L 437.292385 60.538134 
L 436.64008 60.540252 
L 435.987776 60.557177 
L 435.335471 60.552232 
L 434.683166 60.548977 
L 434.030862 60.534344 
L 433.378557 60.539956 
L 432.726253 60.568873 
L 432.073948 60.588084 
L 431.421643 60.559127 
L 430.769339 60.618455 
L 430.117034 60.573988 
L 429.464729 60.585752 
L 428.812425 60.717703 
L 428.16012 60.657098 
L 427.507816 60.646663 
L 426.855511 60.648865 
L 426.203206 60.629788 
L 425.550902 60.671173 
L 424.898597 60.774778 
L 424.246293 60.71311 
L 423.593988 60.661297 
L 422.941683 60.720241 
L 422.289379 60.86975 
L 421.637074 60.962392 
L 420.98477 60.914436 
L 420.332465 60.93796 
L 419.68016 61.023859 
L 419.027856 61.063297 
L 418.375551 60.966607 
L 417.723246 61.109673 
L 417.070942 61.140081 
L 416.418637 61.171412 
L 415.766333 61.030987 
L 415.114028 61.073783 
L 414.461723 61.257522 
L 413.809419 61.416525 
L 413.157114 61.455896 
L 412.50481 61.286837 
L 411.852505 61.411404 
L 411.2002 61.439728 
L 410.547896 61.448235 
L 409.895591 61.6684 
L 409.243287 61.459754 
L 408.590982 61.755501 
L 407.938677 61.80886 
L 407.286373 61.847843 
L 406.634068 61.893651 
L 405.981764 61.917603 
L 405.329459 61.960898 
L 404.677154 62.074373 
L 404.02485 62.167988 
L 403.372545 62.171516 
L 402.72024 62.267748 
L 402.067936 62.316998 
L 401.415631 62.575974 
L 400.763327 62.64281 
L 400.111022 62.691113 
L 399.458717 62.538931 
L 398.806413 63.000761 
L 398.154108 63.25624 
L 397.501804 63.260296 
L 396.849499 63.241255 
L 396.197194 63.287576 
L 395.54489 63.357553 
L 394.892585 64.023491 
L 394.240281 64.114692 
L 393.587976 64.535008 
L 392.935671 64.622331 
L 392.283367 63.960774 
L 391.631062 64.226615 
L 390.978758 64.452681 
L 390.326453 64.220686 
L 389.674148 65.213326 
L 389.021844 65.310205 
L 388.369539 65.397923 
L 387.717234 65.55114 
L 387.06493 65.660165 
L 386.412625 65.772127 
L 385.760321 65.880328 
L 385.108016 65.983598 
L 384.455711 66.102578 
L 383.803407 66.190102 
L 383.151102 66.329281 
L 382.498798 66.521975 
L 381.846493 66.672947 
L 381.194188 65.902042 
L 380.541884 66.290031 
L 379.889579 66.777988 
L 379.237275 67.029372 
L 378.58497 67.057581 
L 377.932665 67.116487 
L 377.280361 67.284094 
L 376.628056 67.353515 
L 375.975752 69.064724 
L 375.323447 69.473147 
L 374.671142 69.849209 
L 374.018838 69.789427 
L 373.366533 69.949924 
L 372.714228 70.143922 
L 372.061924 70.197259 
L 371.409619 70.399401 
L 370.757315 70.59662 
L 370.10501 70.787715 
L 369.452705 70.946279 
L 368.800401 71.389804 
L 368.148096 71.451421 
L 367.495792 71.655056 
L 366.843487 71.642749 
L 366.191182 71.942568 
L 365.538878 72.189965 
L 364.886573 72.433034 
L 364.234269 70.738614 
L 363.581964 70.897823 
L 362.929659 70.83563 
L 362.277355 71.195439 
L 361.62505 71.362366 
L 360.972745 71.507654 
L 360.320441 71.672372 
L 359.668136 71.908489 
L 359.015832 72.035455 
L 358.363527 76.114206 
L 357.711222 76.280678 
L 357.058918 74.813603 
L 356.406613 75.06157 
L 355.754309 75.296682 
L 355.102004 75.53322 
L 354.449699 75.699524 
L 353.797395 75.896449 
L 353.14509 76.256326 
L 352.492786 76.456766 
L 351.840481 76.647867 
L 351.188176 89.504089 
L 350.535872 90.069266 
L 349.883567 90.375096 
L 349.231263 90.682326 
L 348.578958 91.378013 
L 347.926653 91.758021 
L 347.274349 92.045906 
L 346.622044 90.269906 
L 345.969739 90.927053 
L 345.317435 91.237887 
L 344.66513 91.598361 
L 344.012826 92.082523 
L 343.360521 92.270178 
L 342.708216 92.700276 
L 342.055912 92.770946 
L 341.403607 92.786819 
L 340.751303 93.684191 
L 340.098998 93.917932 
L 339.446693 94.227805 
L 338.794389 94.625891 
L 338.142084 94.976399 
L 337.48978 95.313547 
L 336.837475 95.6561 
L 336.18517 96.315838 
L 335.532866 97.195452 
L 334.880561 97.563641 
L 334.228257 97.861051 
L 333.575952 98.179515 
L 332.923647 98.583937 
L 332.271343 98.990713 
L 331.619038 99.399846 
L 330.966733 99.793035 
L 330.314429 100.193575 
L 329.662124 100.567965 
L 329.00982 100.915639 
L 328.357515 100.105465 
L 327.70521 101.515097 
L 327.052906 101.928465 
L 326.400601 101.967289 
L 325.748297 102.395671 
L 325.095992 103.049479 
L 324.443687 103.357945 
L 323.791383 104.345636 
L 323.139078 104.907817 
L 322.486774 105.065183 
L 321.834469 105.582501 
L 321.182164 104.773542 
L 320.52986 105.114977 
L 319.877555 105.775537 
L 319.225251 105.547285 
L 318.572946 106.51405 
L 317.920641 106.871248 
L 317.268337 107.389541 
L 316.616032 107.886844 
L 315.963727 107.104915 
L 315.311423 107.282602 
L 314.659118 107.726451 
L 314.006814 108.240025 
L 313.354509 108.547193 
L 312.702204 108.89731 
L 312.0499 109.41787 
L 311.397595 109.801246 
L 310.745291 110.131448 
L 310.092986 110.612103 
L 309.440681 111.682693 
L 308.788377 119.309978 
L 308.136072 119.88114 
L 307.483768 120.341059 
L 306.831463 120.83827 
L 306.179158 121.890059 
L 305.526854 122.319307 
L 304.874549 122.802219 
L 304.222244 123.360903 
L 303.56994 124.181608 
L 302.917635 125.125384 
L 302.265331 125.183938 
L 301.613026 125.871823 
L 300.960721 126.08208 
L 300.308417 120.016449 
L 299.656112 126.636809 
L 299.003808 120.5244 
L 298.351503 120.993277 
L 297.699198 133.627881 
L 297.046894 134.253308 
L 296.394589 134.387048 
L 295.742285 134.658071 
L 295.08998 135.483127 
L 294.437675 136.162874 
L 293.785371 136.530697 
L 293.133066 137.044787 
L 292.480762 122.203572 
L 291.828457 122.900082 
L 291.176152 136.193865 
L 290.523848 136.548322 
L 289.871543 137.169505 
L 289.219238 137.585444 
L 288.566934 124.577852 
L 287.914629 125.090642 
L 287.262325 140.793769 
L 286.61002 141.311406 
L 285.957715 141.616184 
L 285.305411 142.209878 
L 284.653106 142.710524 
L 284.000802 143.570149 
L 283.348497 144.064666 
L 282.696192 144.339434 
L 282.043888 145.022593 
L 281.391583 147.919791 
L 280.739279 148.687182 
L 280.086974 148.787168 
L 279.434669 149.090071 
L 278.782365 149.709988 
L 278.13006 150.213529 
L 277.477756 150.792514 
L 276.825451 151.877652 
L 276.173146 152.309552 
L 275.520842 152.829453 
L 274.868537 153.342542 
L 274.216232 153.920928 
L 273.563928 154.634439 
L 272.911623 155.26743 
L 272.259319 148.530134 
L 271.607014 149.406458 
L 270.954709 150.105176 
L 270.302405 150.562704 
L 269.6501 151.053038 
L 268.997796 156.750954 
L 268.345491 157.301021 
L 267.693186 157.917382 
L 267.040882 157.458194 
L 266.388577 157.927172 
L 265.736273 158.34487 
L 265.083968 158.721048 
L 264.431663 159.248357 
L 263.779359 159.699879 
L 263.127054 160.229056 
L 262.474749 152.468685 
L 261.822445 152.987401 
L 261.17014 163.529821 
L 260.517836 153.934722 
L 259.865531 154.760794 
L 259.213226 155.499565 
L 258.560922 153.933898 
L 257.908617 154.66138 
L 257.256313 155.355057 
L 256.604008 155.841385 
L 255.951703 160.996117 
L 255.299399 161.369268 
L 254.647094 161.876698 
L 253.99479 162.599448 
L 253.342485 163.565266 
L 252.69018 163.419953 
L 252.037876 165.337547 
L 251.385571 165.993608 
L 250.733267 166.54373 
L 250.080962 167.418677 
L 249.428657 167.822635 
L 248.776353 168.322186 
L 248.124048 168.935073 
L 247.471743 169.430137 
L 246.819439 172.56409 
L 246.167134 172.803891 
L 245.51483 173.414923 
L 244.862525 174.152332 
L 244.21022 174.986446 
L 243.557916 175.730851 
L 242.905611 177.300485 
L 242.253307 177.918778 
L 241.601002 177.988923 
L 240.948697 179.047831 
L 240.296393 179.862748 
L 239.644088 180.397159 
L 238.991784 181.002538 
L 238.339479 182.324824 
L 237.687174 183.019282 
L 237.03487 183.685252 
L 236.382565 184.795648 
L 235.730261 185.022591 
L 235.077956 185.879951 
L 234.425651 186.52619 
L 233.773347 186.938271 
L 233.121042 187.18203 
L 232.468737 187.897356 
L 231.816433 188.636073 
L 231.164128 189.90781 
L 230.511824 189.531385 
L 229.859519 191.0874 
L 229.207214 191.361397 
L 228.55491 192.054129 
L 227.902605 192.116383 
L 227.250301 192.878372 
L 226.597996 193.554965 
L 225.945691 192.829019 
L 225.293387 193.109936 
L 224.641082 193.701971 
L 223.988778 196.239695 
L 223.336473 196.732326 
L 222.684168 197.341031 
L 222.031864 201.168517 
L 221.379559 201.635955 
L 220.727255 201.311125 
L 220.07495 201.890477 
L 219.422645 203.623634 
L 218.770341 205.981902 
L 218.118036 206.384844 
L 217.465731 205.735773 
L 216.813427 206.665208 
L 216.161122 207.613228 
L 215.508818 208.06898 
L 214.856513 212.586303 
L 214.204208 210.41642 
L 213.551904 211.847057 
L 212.899599 212.475986 
L 212.247295 217.349221 
L 211.59499 218.160656 
L 210.942685 218.687371 
L 210.290381 219.145728 
L 209.638076 220.170203 
L 208.985772 220.835706 
L 208.333467 221.844429 
L 207.681162 222.735714 
L 207.028858 223.646552 
L 206.376553 224.509152 
L 205.724248 225.4378 
L 205.071944 225.950124 
L 204.419639 226.997845 
L 203.767335 227.631542 
L 203.11503 228.345403 
L 202.462725 229.192907 
L 201.810421 229.744809 
L 201.158116 230.187991 
L 200.505812 232.023582 
L 199.853507 232.272001 
L 199.201202 232.991612 
L 198.548898 233.459821 
L 197.896593 234.027712 
L 197.244289 235.575015 
L 196.591984 234.602006 
L 195.939679 235.398759 
L 195.287375 235.962667 
L 194.63507 236.962114 
L 193.982766 237.4325 
L 193.330461 237.650803 
L 192.678156 238.085915 
L 192.025852 237.417415 
L 191.373547 237.665092 
L 190.721242 239.028994 
L 190.068938 239.247094 
L 189.416633 242.751854 
L 188.764329 242.34472 
L 188.112024 247.859248 
L 187.459719 243.831677 
L 186.807415 246.285576 
L 186.15511 246.876804 
L 185.502806 247.594955 
L 184.850501 248.620306 
L 184.198196 249.494704 
L 183.545892 251.082053 
L 182.893587 251.371738 
L 182.241283 252.128413 
L 181.588978 252.798039 
L 180.936673 250.727705 
L 180.284369 251.126172 
L 179.632064 254.035456 
L 178.97976 254.678762 
L 178.327455 254.056737 
L 177.67515 255.223474 
L 177.022846 255.83787 
L 176.370541 256.419222 
L 175.718236 253.136632 
L 175.065932 253.586431 
L 174.413627 254.321651 
L 173.761323 254.56396 
L 173.109018 255.58636 
L 172.456713 256.513104 
L 171.804409 257.5703 
L 171.152104 257.387216 
L 170.4998 264.225404 
L 169.847495 265.531171 
L 169.19519 266.031574 
L 168.542886 266.409446 
L 167.890581 268.194331 
L 167.238277 268.942653 
L 166.585972 269.714902 
L 165.933667 270.31813 
L 165.281363 270.538372 
L 164.629058 271.395232 
L 163.976754 271.862305 
L 163.324449 272.363908 
L 162.672144 269.818911 
L 162.01984 277.224695 
L 161.367535 277.919198 
L 160.71523 275.793905 
L 160.062926 275.852636 
L 159.410621 276.925584 
L 158.758317 277.766455 
L 158.106012 278.68233 
L 157.453707 279.235658 
L 156.801403 279.46282 
L 156.149098 279.853069 
L 155.496794 280.328624 
L 154.844489 280.247854 
L 154.192184 280.719217 
L 153.53988 283.597731 
L 152.887575 282.32013 
L 152.235271 282.745875 
L 151.582966 289.151424 
L 150.930661 285.731923 
L 150.278357 290.332742 
L 149.626052 290.870876 
L 148.973747 290.525252 
L 148.321443 291.434792 
L 147.669138 292.222245 
L 147.016834 293.943109 
L 146.364529 293.265191 
L 145.712224 294.138484 
L 145.05992 294.797661 
L 144.407615 295.613667 
L 143.755311 296.046196 
L 143.103006 296.17146 
L 142.450701 289.351657 
L 141.798397 297.543896 
L 141.146092 298.489006 
L 140.493788 292.367329 
L 139.841483 293.027474 
L 139.189178 299.989253 
L 138.536874 300.665753 
L 137.884569 295.821612 
L 137.232265 296.606258 
L 136.57996 297.177129 
L 135.927655 297.794106 
L 135.275351 298.26352 
L 134.623046 304.49223 
L 133.970741 304.843423 
L 133.318437 305.275926 
L 132.666132 305.970839 
L 132.013828 306.602279 
L 131.361523 308.08248 
L 130.709218 309.04709 
L 130.056914 309.884406 
L 129.404609 310.22793 
L 128.752305 309.754686 
L 128.1 310.395069 
z
" style="fill:#ff7f0e;"/>
   </g>
   <g id="matplotlib.axis_1">
    <g id="xtick_1">
     <g id="line2d_1">
      <defs>
       <path d="M 0 0 
L 0 3.5 
" id="mc22c2b01c9" style="stroke:#000000;stroke-width:0.8;"/>
      </defs>
      <g>
       <use style="stroke:#000000;stroke-width:0.8;" x="63" xlink:href="#mc22c2b01c9" y="448.56"/>
      </g>
     </g>
     <g id="text_1">
      <!-- 0.4 -->
      <g transform="translate(55.048437 463.158437)scale(0.1 -0.1)">
       <defs>
        <path d="M 31.78125 66.40625 
Q 24.171875 66.40625 20.328125 58.90625 
Q 16.5 51.421875 16.5 36.375 
Q 16.5 21.390625 20.328125 13.890625 
Q 24.171875 6.390625 31.78125 6.390625 
Q 39.453125 6.390625 43.28125 13.890625 
Q 47.125 21.390625 47.125 36.375 
Q 47.125 51.421875 43.28125 58.90625 
Q 39.453125 66.40625 31.78125 66.40625 
z
M 31.78125 74.21875 
Q 44.046875 74.21875 50.515625 64.515625 
Q 56.984375 54.828125 56.984375 36.375 
Q 56.984375 17.96875 50.515625 8.265625 
Q 44.046875 -1.421875 31.78125 -1.421875 
Q 19.53125 -1.421875 13.0625 8.265625 
Q 6.59375 17.96875 6.59375 36.375 
Q 6.59375 54.828125 13.0625 64.515625 
Q 19.53125 74.21875 31.78125 74.21875 
z
" id="DejaVuSans-48"/>
        <path d="M 10.6875 12.40625 
L 21 12.40625 
L 21 0 
L 10.6875 0 
z
" id="DejaVuSans-46"/>
        <path d="M 37.796875 64.3125 
L 12.890625 25.390625 
L 37.796875 25.390625 
z
M 35.203125 72.90625 
L 47.609375 72.90625 
L 47.609375 25.390625 
L 58.015625 25.390625 
L 58.015625 17.1875 
L 47.609375 17.1875 
L 47.609375 0 
L 37.796875 0 
L 37.796875 17.1875 
L 4.890625 17.1875 
L 4.890625 26.703125 
z
" id="DejaVuSans-52"/>
       </defs>
       <use xlink:href="#DejaVuSans-48"/>
       <use x="63.623047" xlink:href="#DejaVuSans-46"/>
       <use x="95.410156" xlink:href="#DejaVuSans-52"/>
      </g>
     </g>
    </g>
    <g id="xtick_2">
     <g id="line2d_2">
      <g>
       <use style="stroke:#000000;stroke-width:0.8;" x="128.1" xlink:href="#mc22c2b01c9" y="448.56"/>
      </g>
     </g>
     <g id="text_2">
      <!-- 0.5 -->
      <g transform="translate(120.148438 463.158437)scale(0.1 -0.1)">
       <defs>
        <path d="M 10.796875 72.90625 
L 49.515625 72.90625 
L 49.515625 64.59375 
L 19.828125 64.59375 
L 19.828125 46.734375 
Q 21.96875 47.46875 24.109375 47.828125 
Q 26.265625 48.1875 28.421875 48.1875 
Q 40.625 48.1875 47.75 41.5 
Q 54.890625 34.8125 54.890625 23.390625 
Q 54.890625 11.625 47.5625 5.09375 
Q 40.234375 -1.421875 26.90625 -1.421875 
Q 22.3125 -1.421875 17.546875 -0.640625 
Q 12.796875 0.140625 7.71875 1.703125 
L 7.71875 11.625 
Q 12.109375 9.234375 16.796875 8.0625 
Q 21.484375 6.890625 26.703125 6.890625 
Q 35.15625 6.890625 40.078125 11.328125 
Q 45.015625 15.765625 45.015625 23.390625 
Q 45.015625 31 40.078125 35.4375 
Q 35.15625 39.890625 26.703125 39.890625 
Q 22.75 39.890625 18.8125 39.015625 
Q 14.890625 38.140625 10.796875 36.28125 
z
" id="DejaVuSans-53"/>
       </defs>
       <use xlink:href="#DejaVuSans-48"/>
       <use x="63.623047" xlink:href="#DejaVuSans-46"/>
       <use x="95.410156" xlink:href="#DejaVuSans-53"/>
      </g>
     </g>
    </g>
    <g id="xtick_3">
     <g id="line2d_3">
      <g>
       <use style="stroke:#000000;stroke-width:0.8;" x="193.2" xlink:href="#mc22c2b01c9" y="448.56"/>
      </g>
     </g>
     <g id="text_3">
      <!-- 0.6 -->
      <g transform="translate(185.248438 463.158437)scale(0.1 -0.1)">
       <defs>
        <path d="M 33.015625 40.375 
Q 26.375 40.375 22.484375 35.828125 
Q 18.609375 31.296875 18.609375 23.390625 
Q 18.609375 15.53125 22.484375 10.953125 
Q 26.375 6.390625 33.015625 6.390625 
Q 39.65625 6.390625 43.53125 10.953125 
Q 47.40625 15.53125 47.40625 23.390625 
Q 47.40625 31.296875 43.53125 35.828125 
Q 39.65625 40.375 33.015625 40.375 
z
M 52.59375 71.296875 
L 52.59375 62.3125 
Q 48.875 64.0625 45.09375 64.984375 
Q 41.3125 65.921875 37.59375 65.921875 
Q 27.828125 65.921875 22.671875 59.328125 
Q 17.53125 52.734375 16.796875 39.40625 
Q 19.671875 43.65625 24.015625 45.921875 
Q 28.375 48.1875 33.59375 48.1875 
Q 44.578125 48.1875 50.953125 41.515625 
Q 57.328125 34.859375 57.328125 23.390625 
Q 57.328125 12.15625 50.6875 5.359375 
Q 44.046875 -1.421875 33.015625 -1.421875 
Q 20.359375 -1.421875 13.671875 8.265625 
Q 6.984375 17.96875 6.984375 36.375 
Q 6.984375 53.65625 15.1875 63.9375 
Q 23.390625 74.21875 37.203125 74.21875 
Q 40.921875 74.21875 44.703125 73.484375 
Q 48.484375 72.75 52.59375 71.296875 
z
" id="DejaVuSans-54"/>
       </defs>
       <use xlink:href="#DejaVuSans-48"/>
       <use x="63.623047" xlink:href="#DejaVuSans-46"/>
       <use x="95.410156" xlink:href="#DejaVuSans-54"/>
      </g>
     </g>
    </g>
    <g id="xtick_4">
     <g id="line2d_4">
      <g>
       <use style="stroke:#000000;stroke-width:0.8;" x="258.3" xlink:href="#mc22c2b01c9" y="448.56"/>
      </g>
     </g>
     <g id="text_4">
      <!-- 0.7 -->
      <g transform="translate(250.348438 463.158437)scale(0.1 -0.1)">
       <defs>
        <path d="M 8.203125 72.90625 
L 55.078125 72.90625 
L 55.078125 68.703125 
L 28.609375 0 
L 18.3125 0 
L 43.21875 64.59375 
L 8.203125 64.59375 
z
" id="DejaVuSans-55"/>
       </defs>
       <use xlink:href="#DejaVuSans-48"/>
       <use x="63.623047" xlink:href="#DejaVuSans-46"/>
       <use x="95.410156" xlink:href="#DejaVuSans-55"/>
      </g>
     </g>
    </g>
    <g id="xtick_5">
     <g id="line2d_5">
      <g>
       <use style="stroke:#000000;stroke-width:0.8;" x="323.4" xlink:href="#mc22c2b01c9" y="448.56"/>
      </g>
     </g>
     <g id="text_5">
      <!-- 0.8 -->
      <g transform="translate(315.448438 463.158437)scale(0.1 -0.1)">
       <defs>
        <path d="M 31.78125 34.625 
Q 24.75 34.625 20.71875 30.859375 
Q 16.703125 27.09375 16.703125 20.515625 
Q 16.703125 13.921875 20.71875 10.15625 
Q 24.75 6.390625 31.78125 6.390625 
Q 38.8125 6.390625 42.859375 10.171875 
Q 46.921875 13.96875 46.921875 20.515625 
Q 46.921875 27.09375 42.890625 30.859375 
Q 38.875 34.625 31.78125 34.625 
z
M 21.921875 38.8125 
Q 15.578125 40.375 12.03125 44.71875 
Q 8.5 49.078125 8.5 55.328125 
Q 8.5 64.0625 14.71875 69.140625 
Q 20.953125 74.21875 31.78125 74.21875 
Q 42.671875 74.21875 48.875 69.140625 
Q 55.078125 64.0625 55.078125 55.328125 
Q 55.078125 49.078125 51.53125 44.71875 
Q 48 40.375 41.703125 38.8125 
Q 48.828125 37.15625 52.796875 32.3125 
Q 56.78125 27.484375 56.78125 20.515625 
Q 56.78125 9.90625 50.3125 4.234375 
Q 43.84375 -1.421875 31.78125 -1.421875 
Q 19.734375 -1.421875 13.25 4.234375 
Q 6.78125 9.90625 6.78125 20.515625 
Q 6.78125 27.484375 10.78125 32.3125 
Q 14.796875 37.15625 21.921875 38.8125 
z
M 18.3125 54.390625 
Q 18.3125 48.734375 21.84375 45.5625 
Q 25.390625 42.390625 31.78125 42.390625 
Q 38.140625 42.390625 41.71875 45.5625 
Q 45.3125 48.734375 45.3125 54.390625 
Q 45.3125 60.0625 41.71875 63.234375 
Q 38.140625 66.40625 31.78125 66.40625 
Q 25.390625 66.40625 21.84375 63.234375 
Q 18.3125 60.0625 18.3125 54.390625 
z
" id="DejaVuSans-56"/>
       </defs>
       <use xlink:href="#DejaVuSans-48"/>
       <use x="63.623047" xlink:href="#DejaVuSans-46"/>
       <use x="95.410156" xlink:href="#DejaVuSans-56"/>
      </g>
     </g>
    </g>
    <g id="xtick_6">
     <g id="line2d_6">
      <g>
       <use style="stroke:#000000;stroke-width:0.8;" x="388.5" xlink:href="#mc22c2b01c9" y="448.56"/>
      </g>
     </g>
     <g id="text_6">
      <!-- 0.9 -->
      <g transform="translate(380.548438 463.158437)scale(0.1 -0.1)">
       <defs>
        <path d="M 10.984375 1.515625 
L 10.984375 10.5 
Q 14.703125 8.734375 18.5 7.8125 
Q 22.3125 6.890625 25.984375 6.890625 
Q 35.75 6.890625 40.890625 13.453125 
Q 46.046875 20.015625 46.78125 33.40625 
Q 43.953125 29.203125 39.59375 26.953125 
Q 35.25 24.703125 29.984375 24.703125 
Q 19.046875 24.703125 12.671875 31.3125 
Q 6.296875 37.9375 6.296875 49.421875 
Q 6.296875 60.640625 12.9375 67.421875 
Q 19.578125 74.21875 30.609375 74.21875 
Q 43.265625 74.21875 49.921875 64.515625 
Q 56.59375 54.828125 56.59375 36.375 
Q 56.59375 19.140625 48.40625 8.859375 
Q 40.234375 -1.421875 26.421875 -1.421875 
Q 22.703125 -1.421875 18.890625 -0.6875 
Q 15.09375 0.046875 10.984375 1.515625 
z
M 30.609375 32.421875 
Q 37.25 32.421875 41.125 36.953125 
Q 45.015625 41.5 45.015625 49.421875 
Q 45.015625 57.28125 41.125 61.84375 
Q 37.25 66.40625 30.609375 66.40625 
Q 23.96875 66.40625 20.09375 61.84375 
Q 16.21875 57.28125 16.21875 49.421875 
Q 16.21875 41.5 20.09375 36.953125 
Q 23.96875 32.421875 30.609375 32.421875 
z
" id="DejaVuSans-57"/>
       </defs>
       <use xlink:href="#DejaVuSans-48"/>
       <use x="63.623047" xlink:href="#DejaVuSans-46"/>
       <use x="95.410156" xlink:href="#DejaVuSans-57"/>
      </g>
     </g>
    </g>
    <g id="xtick_7">
     <g id="line2d_7">
      <g>
       <use style="stroke:#000000;stroke-width:0.8;" x="453.6" xlink:href="#mc22c2b01c9" y="448.56"/>
      </g>
     </g>
     <g id="text_7">
      <!-- 1.0 -->
      <g transform="translate(445.648438 463.158437)scale(0.1 -0.1)">
       <defs>
        <path d="M 12.40625 8.296875 
L 28.515625 8.296875 
L 28.515625 63.921875 
L 10.984375 60.40625 
L 10.984375 69.390625 
L 28.421875 72.90625 
L 38.28125 72.90625 
L 38.28125 8.296875 
L 54.390625 8.296875 
L 54.390625 0 
L 12.40625 0 
z
" id="DejaVuSans-49"/>
       </defs>
       <use xlink:href="#DejaVuSans-49"/>
       <use x="63.623047" xlink:href="#DejaVuSans-46"/>
       <use x="95.410156" xlink:href="#DejaVuSans-48"/>
      </g>
     </g>
    </g>
    <g id="text_8">
     <!-- If I predict something with this probability... -->
     <g transform="translate(149.657031 476.836563)scale(0.1 -0.1)">
      <defs>
       <path d="M 9.8125 72.90625 
L 19.671875 72.90625 
L 19.671875 0 
L 9.8125 0 
z
" id="DejaVuSans-73"/>
       <path d="M 37.109375 75.984375 
L 37.109375 68.5 
L 28.515625 68.5 
Q 23.6875 68.5 21.796875 66.546875 
Q 19.921875 64.59375 19.921875 59.515625 
L 19.921875 54.6875 
L 34.71875 54.6875 
L 34.71875 47.703125 
L 19.921875 47.703125 
L 19.921875 0 
L 10.890625 0 
L 10.890625 47.703125 
L 2.296875 47.703125 
L 2.296875 54.6875 
L 10.890625 54.6875 
L 10.890625 58.5 
Q 10.890625 67.625 15.140625 71.796875 
Q 19.390625 75.984375 28.609375 75.984375 
z
" id="DejaVuSans-102"/>
       <path id="DejaVuSans-32"/>
       <path d="M 18.109375 8.203125 
L 18.109375 -20.796875 
L 9.078125 -20.796875 
L 9.078125 54.6875 
L 18.109375 54.6875 
L 18.109375 46.390625 
Q 20.953125 51.265625 25.265625 53.625 
Q 29.59375 56 35.59375 56 
Q 45.5625 56 51.78125 48.09375 
Q 58.015625 40.1875 58.015625 27.296875 
Q 58.015625 14.40625 51.78125 6.484375 
Q 45.5625 -1.421875 35.59375 -1.421875 
Q 29.59375 -1.421875 25.265625 0.953125 
Q 20.953125 3.328125 18.109375 8.203125 
z
M 48.6875 27.296875 
Q 48.6875 37.203125 44.609375 42.84375 
Q 40.53125 48.484375 33.40625 48.484375 
Q 26.265625 48.484375 22.1875 42.84375 
Q 18.109375 37.203125 18.109375 27.296875 
Q 18.109375 17.390625 22.1875 11.75 
Q 26.265625 6.109375 33.40625 6.109375 
Q 40.53125 6.109375 44.609375 11.75 
Q 48.6875 17.390625 48.6875 27.296875 
z
" id="DejaVuSans-112"/>
       <path d="M 41.109375 46.296875 
Q 39.59375 47.171875 37.8125 47.578125 
Q 36.03125 48 33.890625 48 
Q 26.265625 48 22.1875 43.046875 
Q 18.109375 38.09375 18.109375 28.8125 
L 18.109375 0 
L 9.078125 0 
L 9.078125 54.6875 
L 18.109375 54.6875 
L 18.109375 46.1875 
Q 20.953125 51.171875 25.484375 53.578125 
Q 30.03125 56 36.53125 56 
Q 37.453125 56 38.578125 55.875 
Q 39.703125 55.765625 41.0625 55.515625 
z
" id="DejaVuSans-114"/>
       <path d="M 56.203125 29.59375 
L 56.203125 25.203125 
L 14.890625 25.203125 
Q 15.484375 15.921875 20.484375 11.0625 
Q 25.484375 6.203125 34.421875 6.203125 
Q 39.59375 6.203125 44.453125 7.46875 
Q 49.3125 8.734375 54.109375 11.28125 
L 54.109375 2.78125 
Q 49.265625 0.734375 44.1875 -0.34375 
Q 39.109375 -1.421875 33.890625 -1.421875 
Q 20.796875 -1.421875 13.15625 6.1875 
Q 5.515625 13.8125 5.515625 26.8125 
Q 5.515625 40.234375 12.765625 48.109375 
Q 20.015625 56 32.328125 56 
Q 43.359375 56 49.78125 48.890625 
Q 56.203125 41.796875 56.203125 29.59375 
z
M 47.21875 32.234375 
Q 47.125 39.59375 43.09375 43.984375 
Q 39.0625 48.390625 32.421875 48.390625 
Q 24.90625 48.390625 20.390625 44.140625 
Q 15.875 39.890625 15.1875 32.171875 
z
" id="DejaVuSans-101"/>
       <path d="M 45.40625 46.390625 
L 45.40625 75.984375 
L 54.390625 75.984375 
L 54.390625 0 
L 45.40625 0 
L 45.40625 8.203125 
Q 42.578125 3.328125 38.25 0.953125 
Q 33.9375 -1.421875 27.875 -1.421875 
Q 17.96875 -1.421875 11.734375 6.484375 
Q 5.515625 14.40625 5.515625 27.296875 
Q 5.515625 40.1875 11.734375 48.09375 
Q 17.96875 56 27.875 56 
Q 33.9375 56 38.25 53.625 
Q 42.578125 51.265625 45.40625 46.390625 
z
M 14.796875 27.296875 
Q 14.796875 17.390625 18.875 11.75 
Q 22.953125 6.109375 30.078125 6.109375 
Q 37.203125 6.109375 41.296875 11.75 
Q 45.40625 17.390625 45.40625 27.296875 
Q 45.40625 37.203125 41.296875 42.84375 
Q 37.203125 48.484375 30.078125 48.484375 
Q 22.953125 48.484375 18.875 42.84375 
Q 14.796875 37.203125 14.796875 27.296875 
z
" id="DejaVuSans-100"/>
       <path d="M 9.421875 54.6875 
L 18.40625 54.6875 
L 18.40625 0 
L 9.421875 0 
z
M 9.421875 75.984375 
L 18.40625 75.984375 
L 18.40625 64.59375 
L 9.421875 64.59375 
z
" id="DejaVuSans-105"/>
       <path d="M 48.78125 52.59375 
L 48.78125 44.1875 
Q 44.96875 46.296875 41.140625 47.34375 
Q 37.3125 48.390625 33.40625 48.390625 
Q 24.65625 48.390625 19.8125 42.84375 
Q 14.984375 37.3125 14.984375 27.296875 
Q 14.984375 17.28125 19.8125 11.734375 
Q 24.65625 6.203125 33.40625 6.203125 
Q 37.3125 6.203125 41.140625 7.25 
Q 44.96875 8.296875 48.78125 10.40625 
L 48.78125 2.09375 
Q 45.015625 0.34375 40.984375 -0.53125 
Q 36.96875 -1.421875 32.421875 -1.421875 
Q 20.0625 -1.421875 12.78125 6.34375 
Q 5.515625 14.109375 5.515625 27.296875 
Q 5.515625 40.671875 12.859375 48.328125 
Q 20.21875 56 33.015625 56 
Q 37.15625 56 41.109375 55.140625 
Q 45.0625 54.296875 48.78125 52.59375 
z
" id="DejaVuSans-99"/>
       <path d="M 18.3125 70.21875 
L 18.3125 54.6875 
L 36.8125 54.6875 
L 36.8125 47.703125 
L 18.3125 47.703125 
L 18.3125 18.015625 
Q 18.3125 11.328125 20.140625 9.421875 
Q 21.96875 7.515625 27.59375 7.515625 
L 36.8125 7.515625 
L 36.8125 0 
L 27.59375 0 
Q 17.1875 0 13.234375 3.875 
Q 9.28125 7.765625 9.28125 18.015625 
L 9.28125 47.703125 
L 2.6875 47.703125 
L 2.6875 54.6875 
L 9.28125 54.6875 
L 9.28125 70.21875 
z
" id="DejaVuSans-116"/>
       <path d="M 44.28125 53.078125 
L 44.28125 44.578125 
Q 40.484375 46.53125 36.375 47.5 
Q 32.28125 48.484375 27.875 48.484375 
Q 21.1875 48.484375 17.84375 46.4375 
Q 14.5 44.390625 14.5 40.28125 
Q 14.5 37.15625 16.890625 35.375 
Q 19.28125 33.59375 26.515625 31.984375 
L 29.59375 31.296875 
Q 39.15625 29.25 43.1875 25.515625 
Q 47.21875 21.78125 47.21875 15.09375 
Q 47.21875 7.46875 41.1875 3.015625 
Q 35.15625 -1.421875 24.609375 -1.421875 
Q 20.21875 -1.421875 15.453125 -0.5625 
Q 10.6875 0.296875 5.421875 2 
L 5.421875 11.28125 
Q 10.40625 8.6875 15.234375 7.390625 
Q 20.0625 6.109375 24.8125 6.109375 
Q 31.15625 6.109375 34.5625 8.28125 
Q 37.984375 10.453125 37.984375 14.40625 
Q 37.984375 18.0625 35.515625 20.015625 
Q 33.0625 21.96875 24.703125 23.78125 
L 21.578125 24.515625 
Q 13.234375 26.265625 9.515625 29.90625 
Q 5.8125 33.546875 5.8125 39.890625 
Q 5.8125 47.609375 11.28125 51.796875 
Q 16.75 56 26.8125 56 
Q 31.78125 56 36.171875 55.265625 
Q 40.578125 54.546875 44.28125 53.078125 
z
" id="DejaVuSans-115"/>
       <path d="M 30.609375 48.390625 
Q 23.390625 48.390625 19.1875 42.75 
Q 14.984375 37.109375 14.984375 27.296875 
Q 14.984375 17.484375 19.15625 11.84375 
Q 23.34375 6.203125 30.609375 6.203125 
Q 37.796875 6.203125 41.984375 11.859375 
Q 46.1875 17.53125 46.1875 27.296875 
Q 46.1875 37.015625 41.984375 42.703125 
Q 37.796875 48.390625 30.609375 48.390625 
z
M 30.609375 56 
Q 42.328125 56 49.015625 48.375 
Q 55.71875 40.765625 55.71875 27.296875 
Q 55.71875 13.875 49.015625 6.21875 
Q 42.328125 -1.421875 30.609375 -1.421875 
Q 18.84375 -1.421875 12.171875 6.21875 
Q 5.515625 13.875 5.515625 27.296875 
Q 5.515625 40.765625 12.171875 48.375 
Q 18.84375 56 30.609375 56 
z
" id="DejaVuSans-111"/>
       <path d="M 52 44.1875 
Q 55.375 50.25 60.0625 53.125 
Q 64.75 56 71.09375 56 
Q 79.640625 56 84.28125 50.015625 
Q 88.921875 44.046875 88.921875 33.015625 
L 88.921875 0 
L 79.890625 0 
L 79.890625 32.71875 
Q 79.890625 40.578125 77.09375 44.375 
Q 74.3125 48.1875 68.609375 48.1875 
Q 61.625 48.1875 57.5625 43.546875 
Q 53.515625 38.921875 53.515625 30.90625 
L 53.515625 0 
L 44.484375 0 
L 44.484375 32.71875 
Q 44.484375 40.625 41.703125 44.40625 
Q 38.921875 48.1875 33.109375 48.1875 
Q 26.21875 48.1875 22.15625 43.53125 
Q 18.109375 38.875 18.109375 30.90625 
L 18.109375 0 
L 9.078125 0 
L 9.078125 54.6875 
L 18.109375 54.6875 
L 18.109375 46.1875 
Q 21.1875 51.21875 25.484375 53.609375 
Q 29.78125 56 35.6875 56 
Q 41.65625 56 45.828125 52.96875 
Q 50 49.953125 52 44.1875 
z
" id="DejaVuSans-109"/>
       <path d="M 54.890625 33.015625 
L 54.890625 0 
L 45.90625 0 
L 45.90625 32.71875 
Q 45.90625 40.484375 42.875 44.328125 
Q 39.84375 48.1875 33.796875 48.1875 
Q 26.515625 48.1875 22.3125 43.546875 
Q 18.109375 38.921875 18.109375 30.90625 
L 18.109375 0 
L 9.078125 0 
L 9.078125 75.984375 
L 18.109375 75.984375 
L 18.109375 46.1875 
Q 21.34375 51.125 25.703125 53.5625 
Q 30.078125 56 35.796875 56 
Q 45.21875 56 50.046875 50.171875 
Q 54.890625 44.34375 54.890625 33.015625 
z
" id="DejaVuSans-104"/>
       <path d="M 54.890625 33.015625 
L 54.890625 0 
L 45.90625 0 
L 45.90625 32.71875 
Q 45.90625 40.484375 42.875 44.328125 
Q 39.84375 48.1875 33.796875 48.1875 
Q 26.515625 48.1875 22.3125 43.546875 
Q 18.109375 38.921875 18.109375 30.90625 
L 18.109375 0 
L 9.078125 0 
L 9.078125 54.6875 
L 18.109375 54.6875 
L 18.109375 46.1875 
Q 21.34375 51.125 25.703125 53.5625 
Q 30.078125 56 35.796875 56 
Q 45.21875 56 50.046875 50.171875 
Q 54.890625 44.34375 54.890625 33.015625 
z
" id="DejaVuSans-110"/>
       <path d="M 45.40625 27.984375 
Q 45.40625 37.75 41.375 43.109375 
Q 37.359375 48.484375 30.078125 48.484375 
Q 22.859375 48.484375 18.828125 43.109375 
Q 14.796875 37.75 14.796875 27.984375 
Q 14.796875 18.265625 18.828125 12.890625 
Q 22.859375 7.515625 30.078125 7.515625 
Q 37.359375 7.515625 41.375 12.890625 
Q 45.40625 18.265625 45.40625 27.984375 
z
M 54.390625 6.78125 
Q 54.390625 -7.171875 48.1875 -13.984375 
Q 42 -20.796875 29.203125 -20.796875 
Q 24.46875 -20.796875 20.265625 -20.09375 
Q 16.0625 -19.390625 12.109375 -17.921875 
L 12.109375 -9.1875 
Q 16.0625 -11.328125 19.921875 -12.34375 
Q 23.78125 -13.375 27.78125 -13.375 
Q 36.625 -13.375 41.015625 -8.765625 
Q 45.40625 -4.15625 45.40625 5.171875 
L 45.40625 9.625 
Q 42.625 4.78125 38.28125 2.390625 
Q 33.9375 0 27.875 0 
Q 17.828125 0 11.671875 7.65625 
Q 5.515625 15.328125 5.515625 27.984375 
Q 5.515625 40.671875 11.671875 48.328125 
Q 17.828125 56 27.875 56 
Q 33.9375 56 38.28125 53.609375 
Q 42.625 51.21875 45.40625 46.390625 
L 45.40625 54.6875 
L 54.390625 54.6875 
z
" id="DejaVuSans-103"/>
       <path d="M 4.203125 54.6875 
L 13.1875 54.6875 
L 24.421875 12.015625 
L 35.59375 54.6875 
L 46.1875 54.6875 
L 57.421875 12.015625 
L 68.609375 54.6875 
L 77.59375 54.6875 
L 63.28125 0 
L 52.6875 0 
L 40.921875 44.828125 
L 29.109375 0 
L 18.5 0 
z
" id="DejaVuSans-119"/>
       <path d="M 48.6875 27.296875 
Q 48.6875 37.203125 44.609375 42.84375 
Q 40.53125 48.484375 33.40625 48.484375 
Q 26.265625 48.484375 22.1875 42.84375 
Q 18.109375 37.203125 18.109375 27.296875 
Q 18.109375 17.390625 22.1875 11.75 
Q 26.265625 6.109375 33.40625 6.109375 
Q 40.53125 6.109375 44.609375 11.75 
Q 48.6875 17.390625 48.6875 27.296875 
z
M 18.109375 46.390625 
Q 20.953125 51.265625 25.265625 53.625 
Q 29.59375 56 35.59375 56 
Q 45.5625 56 51.78125 48.09375 
Q 58.015625 40.1875 58.015625 27.296875 
Q 58.015625 14.40625 51.78125 6.484375 
Q 45.5625 -1.421875 35.59375 -1.421875 
Q 29.59375 -1.421875 25.265625 0.953125 
Q 20.953125 3.328125 18.109375 8.203125 
L 18.109375 0 
L 9.078125 0 
L 9.078125 75.984375 
L 18.109375 75.984375 
z
" id="DejaVuSans-98"/>
       <path d="M 34.28125 27.484375 
Q 23.390625 27.484375 19.1875 25 
Q 14.984375 22.515625 14.984375 16.5 
Q 14.984375 11.71875 18.140625 8.90625 
Q 21.296875 6.109375 26.703125 6.109375 
Q 34.1875 6.109375 38.703125 11.40625 
Q 43.21875 16.703125 43.21875 25.484375 
L 43.21875 27.484375 
z
M 52.203125 31.203125 
L 52.203125 0 
L 43.21875 0 
L 43.21875 8.296875 
Q 40.140625 3.328125 35.546875 0.953125 
Q 30.953125 -1.421875 24.3125 -1.421875 
Q 15.921875 -1.421875 10.953125 3.296875 
Q 6 8.015625 6 15.921875 
Q 6 25.140625 12.171875 29.828125 
Q 18.359375 34.515625 30.609375 34.515625 
L 43.21875 34.515625 
L 43.21875 35.40625 
Q 43.21875 41.609375 39.140625 45 
Q 35.0625 48.390625 27.6875 48.390625 
Q 23 48.390625 18.546875 47.265625 
Q 14.109375 46.140625 10.015625 43.890625 
L 10.015625 52.203125 
Q 14.9375 54.109375 19.578125 55.046875 
Q 24.21875 56 28.609375 56 
Q 40.484375 56 46.34375 49.84375 
Q 52.203125 43.703125 52.203125 31.203125 
z
" id="DejaVuSans-97"/>
       <path d="M 9.421875 75.984375 
L 18.40625 75.984375 
L 18.40625 0 
L 9.421875 0 
z
" id="DejaVuSans-108"/>
       <path d="M 32.171875 -5.078125 
Q 28.375 -14.84375 24.75 -17.8125 
Q 21.140625 -20.796875 15.09375 -20.796875 
L 7.90625 -20.796875 
L 7.90625 -13.28125 
L 13.1875 -13.28125 
Q 16.890625 -13.28125 18.9375 -11.515625 
Q 21 -9.765625 23.484375 -3.21875 
L 25.09375 0.875 
L 2.984375 54.6875 
L 12.5 54.6875 
L 29.59375 11.921875 
L 46.6875 54.6875 
L 56.203125 54.6875 
z
" id="DejaVuSans-121"/>
      </defs>
      <use xlink:href="#DejaVuSans-73"/>
      <use x="29.492188" xlink:href="#DejaVuSans-102"/>
      <use x="64.697266" xlink:href="#DejaVuSans-32"/>
      <use x="96.484375" xlink:href="#DejaVuSans-73"/>
      <use x="125.976562" xlink:href="#DejaVuSans-32"/>
      <use x="157.763672" xlink:href="#DejaVuSans-112"/>
      <use x="221.240234" xlink:href="#DejaVuSans-114"/>
      <use x="260.103516" xlink:href="#DejaVuSans-101"/>
      <use x="321.626953" xlink:href="#DejaVuSans-100"/>
      <use x="385.103516" xlink:href="#DejaVuSans-105"/>
      <use x="412.886719" xlink:href="#DejaVuSans-99"/>
      <use x="467.867188" xlink:href="#DejaVuSans-116"/>
      <use x="507.076172" xlink:href="#DejaVuSans-32"/>
      <use x="538.863281" xlink:href="#DejaVuSans-115"/>
      <use x="590.962891" xlink:href="#DejaVuSans-111"/>
      <use x="652.144531" xlink:href="#DejaVuSans-109"/>
      <use x="749.556641" xlink:href="#DejaVuSans-101"/>
      <use x="811.080078" xlink:href="#DejaVuSans-116"/>
      <use x="850.289062" xlink:href="#DejaVuSans-104"/>
      <use x="913.667969" xlink:href="#DejaVuSans-105"/>
      <use x="941.451172" xlink:href="#DejaVuSans-110"/>
      <use x="1004.830078" xlink:href="#DejaVuSans-103"/>
      <use x="1068.306641" xlink:href="#DejaVuSans-32"/>
      <use x="1100.09375" xlink:href="#DejaVuSans-119"/>
      <use x="1181.880859" xlink:href="#DejaVuSans-105"/>
      <use x="1209.664062" xlink:href="#DejaVuSans-116"/>
      <use x="1248.873047" xlink:href="#DejaVuSans-104"/>
      <use x="1312.251953" xlink:href="#DejaVuSans-32"/>
      <use x="1344.039062" xlink:href="#DejaVuSans-116"/>
      <use x="1383.248047" xlink:href="#DejaVuSans-104"/>
      <use x="1446.626953" xlink:href="#DejaVuSans-105"/>
      <use x="1474.410156" xlink:href="#DejaVuSans-115"/>
      <use x="1526.509766" xlink:href="#DejaVuSans-32"/>
      <use x="1558.296875" xlink:href="#DejaVuSans-112"/>
      <use x="1621.773438" xlink:href="#DejaVuSans-114"/>
      <use x="1660.636719" xlink:href="#DejaVuSans-111"/>
      <use x="1721.818359" xlink:href="#DejaVuSans-98"/>
      <use x="1785.294922" xlink:href="#DejaVuSans-97"/>
      <use x="1846.574219" xlink:href="#DejaVuSans-98"/>
      <use x="1910.050781" xlink:href="#DejaVuSans-105"/>
      <use x="1937.833984" xlink:href="#DejaVuSans-108"/>
      <use x="1965.617188" xlink:href="#DejaVuSans-105"/>
      <use x="1993.400391" xlink:href="#DejaVuSans-116"/>
      <use x="2032.609375" xlink:href="#DejaVuSans-121"/>
      <use x="2077.539062" xlink:href="#DejaVuSans-46"/>
      <use x="2109.326172" xlink:href="#DejaVuSans-46"/>
      <use x="2141.113281" xlink:href="#DejaVuSans-46"/>
     </g>
    </g>
   </g>
   <g id="matplotlib.axis_2">
    <g id="ytick_1">
     <g id="line2d_8">
      <defs>
       <path d="M 0 0 
L -3.5 0 
" id="mbc588c05f1" style="stroke:#000000;stroke-width:0.8;"/>
      </defs>
      <g>
       <use style="stroke:#000000;stroke-width:0.8;" x="63" xlink:href="#mbc588c05f1" y="448.56"/>
      </g>
     </g>
     <g id="text_9">
      <!-- 0.4 -->
      <g transform="translate(40.096875 452.359219)scale(0.1 -0.1)">
       <use xlink:href="#DejaVuSans-48"/>
       <use x="63.623047" xlink:href="#DejaVuSans-46"/>
       <use x="95.410156" xlink:href="#DejaVuSans-52"/>
      </g>
     </g>
    </g>
    <g id="ytick_2">
     <g id="line2d_9">
      <g>
       <use style="stroke:#000000;stroke-width:0.8;" x="63" xlink:href="#mbc588c05f1" y="383.88"/>
      </g>
     </g>
     <g id="text_10">
      <!-- 0.5 -->
      <g transform="translate(40.096875 387.679219)scale(0.1 -0.1)">
       <use xlink:href="#DejaVuSans-48"/>
       <use x="63.623047" xlink:href="#DejaVuSans-46"/>
       <use x="95.410156" xlink:href="#DejaVuSans-53"/>
      </g>
     </g>
    </g>
    <g id="ytick_3">
     <g id="line2d_10">
      <g>
       <use style="stroke:#000000;stroke-width:0.8;" x="63" xlink:href="#mbc588c05f1" y="319.2"/>
      </g>
     </g>
     <g id="text_11">
      <!-- 0.6 -->
      <g transform="translate(40.096875 322.999219)scale(0.1 -0.1)">
       <use xlink:href="#DejaVuSans-48"/>
       <use x="63.623047" xlink:href="#DejaVuSans-46"/>
       <use x="95.410156" xlink:href="#DejaVuSans-54"/>
      </g>
     </g>
    </g>
    <g id="ytick_4">
     <g id="line2d_11">
      <g>
       <use style="stroke:#000000;stroke-width:0.8;" x="63" xlink:href="#mbc588c05f1" y="254.52"/>
      </g>
     </g>
     <g id="text_12">
      <!-- 0.7 -->
      <g transform="translate(40.096875 258.319219)scale(0.1 -0.1)">
       <use xlink:href="#DejaVuSans-48"/>
       <use x="63.623047" xlink:href="#DejaVuSans-46"/>
       <use x="95.410156" xlink:href="#DejaVuSans-55"/>
      </g>
     </g>
    </g>
    <g id="ytick_5">
     <g id="line2d_12">
      <g>
       <use style="stroke:#000000;stroke-width:0.8;" x="63" xlink:href="#mbc588c05f1" y="189.84"/>
      </g>
     </g>
     <g id="text_13">
      <!-- 0.8 -->
      <g transform="translate(40.096875 193.639219)scale(0.1 -0.1)">
       <use xlink:href="#DejaVuSans-48"/>
       <use x="63.623047" xlink:href="#DejaVuSans-46"/>
       <use x="95.410156" xlink:href="#DejaVuSans-56"/>
      </g>
     </g>
    </g>
    <g id="ytick_6">
     <g id="line2d_13">
      <g>
       <use style="stroke:#000000;stroke-width:0.8;" x="63" xlink:href="#mbc588c05f1" y="125.16"/>
      </g>
     </g>
     <g id="text_14">
      <!-- 0.9 -->
      <g transform="translate(40.096875 128.959219)scale(0.1 -0.1)">
       <use xlink:href="#DejaVuSans-48"/>
       <use x="63.623047" xlink:href="#DejaVuSans-46"/>
       <use x="95.410156" xlink:href="#DejaVuSans-57"/>
      </g>
     </g>
    </g>
    <g id="ytick_7">
     <g id="line2d_14">
      <g>
       <use style="stroke:#000000;stroke-width:0.8;" x="63" xlink:href="#mbc588c05f1" y="60.48"/>
      </g>
     </g>
     <g id="text_15">
      <!-- 1.0 -->
      <g transform="translate(40.096875 64.279219)scale(0.1 -0.1)">
       <use xlink:href="#DejaVuSans-49"/>
       <use x="63.623047" xlink:href="#DejaVuSans-46"/>
       <use x="95.410156" xlink:href="#DejaVuSans-48"/>
      </g>
     </g>
    </g>
    <g id="text_16">
     <!-- then it has this probability of coming true... -->
     <g transform="translate(34.017187 363.261406)rotate(-90)scale(0.1 -0.1)">
      <defs>
       <path d="M 8.5 21.578125 
L 8.5 54.6875 
L 17.484375 54.6875 
L 17.484375 21.921875 
Q 17.484375 14.15625 20.5 10.265625 
Q 23.53125 6.390625 29.59375 6.390625 
Q 36.859375 6.390625 41.078125 11.03125 
Q 45.3125 15.671875 45.3125 23.6875 
L 45.3125 54.6875 
L 54.296875 54.6875 
L 54.296875 0 
L 45.3125 0 
L 45.3125 8.40625 
Q 42.046875 3.421875 37.71875 1 
Q 33.40625 -1.421875 27.6875 -1.421875 
Q 18.265625 -1.421875 13.375 4.4375 
Q 8.5 10.296875 8.5 21.578125 
z
M 31.109375 56 
z
" id="DejaVuSans-117"/>
      </defs>
      <use xlink:href="#DejaVuSans-116"/>
      <use x="39.208984" xlink:href="#DejaVuSans-104"/>
      <use x="102.587891" xlink:href="#DejaVuSans-101"/>
      <use x="164.111328" xlink:href="#DejaVuSans-110"/>
      <use x="227.490234" xlink:href="#DejaVuSans-32"/>
      <use x="259.277344" xlink:href="#DejaVuSans-105"/>
      <use x="287.060547" xlink:href="#DejaVuSans-116"/>
      <use x="326.269531" xlink:href="#DejaVuSans-32"/>
      <use x="358.056641" xlink:href="#DejaVuSans-104"/>
      <use x="421.435547" xlink:href="#DejaVuSans-97"/>
      <use x="482.714844" xlink:href="#DejaVuSans-115"/>
      <use x="534.814453" xlink:href="#DejaVuSans-32"/>
      <use x="566.601562" xlink:href="#DejaVuSans-116"/>
      <use x="605.810547" xlink:href="#DejaVuSans-104"/>
      <use x="669.189453" xlink:href="#DejaVuSans-105"/>
      <use x="696.972656" xlink:href="#DejaVuSans-115"/>
      <use x="749.072266" xlink:href="#DejaVuSans-32"/>
      <use x="780.859375" xlink:href="#DejaVuSans-112"/>
      <use x="844.335938" xlink:href="#DejaVuSans-114"/>
      <use x="883.199219" xlink:href="#DejaVuSans-111"/>
      <use x="944.380859" xlink:href="#DejaVuSans-98"/>
      <use x="1007.857422" xlink:href="#DejaVuSans-97"/>
      <use x="1069.136719" xlink:href="#DejaVuSans-98"/>
      <use x="1132.613281" xlink:href="#DejaVuSans-105"/>
      <use x="1160.396484" xlink:href="#DejaVuSans-108"/>
      <use x="1188.179688" xlink:href="#DejaVuSans-105"/>
      <use x="1215.962891" xlink:href="#DejaVuSans-116"/>
      <use x="1255.171875" xlink:href="#DejaVuSans-121"/>
      <use x="1314.351562" xlink:href="#DejaVuSans-32"/>
      <use x="1346.138672" xlink:href="#DejaVuSans-111"/>
      <use x="1407.320312" xlink:href="#DejaVuSans-102"/>
      <use x="1442.525391" xlink:href="#DejaVuSans-32"/>
      <use x="1474.3125" xlink:href="#DejaVuSans-99"/>
      <use x="1529.292969" xlink:href="#DejaVuSans-111"/>
      <use x="1590.474609" xlink:href="#DejaVuSans-109"/>
      <use x="1687.886719" xlink:href="#DejaVuSans-105"/>
      <use x="1715.669922" xlink:href="#DejaVuSans-110"/>
      <use x="1779.048828" xlink:href="#DejaVuSans-103"/>
      <use x="1842.525391" xlink:href="#DejaVuSans-32"/>
      <use x="1874.3125" xlink:href="#DejaVuSans-116"/>
      <use x="1913.521484" xlink:href="#DejaVuSans-114"/>
      <use x="1954.634766" xlink:href="#DejaVuSans-117"/>
      <use x="2018.013672" xlink:href="#DejaVuSans-101"/>
      <use x="2079.537109" xlink:href="#DejaVuSans-46"/>
      <use x="2111.324219" xlink:href="#DejaVuSans-46"/>
      <use x="2143.111328" xlink:href="#DejaVuSans-46"/>
     </g>
    </g>
   </g>
   <g id="line2d_15">
    <path clip-path="url(#p39da3fd9d1)" d="M 128.1 369.854233 
L 153.53988 338.027742 
L 173.761323 313.07897 
L 191.373547 291.696612 
L 207.681162 272.251798 
L 222.684168 254.711653 
L 236.382565 239.025446 
L 249.428657 224.407303 
L 261.822445 210.834662 
L 274.216232 197.591234 
L 285.957715 185.368544 
L 297.046894 174.131333 
L 308.136072 163.20805 
L 318.572946 153.228597 
L 329.00982 143.555493 
L 338.794389 134.778086 
L 348.578958 126.29535 
L 357.711222 118.656005 
L 366.843487 111.297379 
L 375.975752 104.23306 
L 384.455711 97.950444 
L 392.935671 91.949655 
L 400.763327 86.675815 
L 408.590982 81.67433 
L 415.766333 77.347618 
L 422.941683 73.290815 
L 429.464729 69.863388 
L 435.335471 67.020467 
L 440.553908 64.719099 
L 445.12004 62.919121 
L 449.033868 61.585976 
L 452.295391 60.704593 
L 452.947695 60.573125 
L 452.947695 60.573125 
" style="fill:none;stroke:#0000ff;stroke-linecap:square;stroke-width:1.5;"/>
   </g>
   <g id="line2d_16">
    <path clip-path="url(#p39da3fd9d1)" d="M 128.1 383.88 
L 452.947695 61.128096 
L 452.947695 61.128096 
" style="fill:none;stroke:#000000;stroke-linecap:square;stroke-width:1.5;"/>
   </g>
   <g id="patch_3">
    <path d="M 63 448.56 
L 63 60.48 
" style="fill:none;stroke:#000000;stroke-linecap:square;stroke-linejoin:miter;stroke-width:0.8;"/>
   </g>
   <g id="patch_4">
    <path d="M 453.6 448.56 
L 453.6 60.48 
" style="fill:none;stroke:#000000;stroke-linecap:square;stroke-linejoin:miter;stroke-width:0.8;"/>
   </g>
   <g id="patch_5">
    <path d="M 63 448.56 
L 453.6 448.56 
" style="fill:none;stroke:#000000;stroke-linecap:square;stroke-linejoin:miter;stroke-width:0.8;"/>
   </g>
   <g id="patch_6">
    <path d="M 63 60.48 
L 453.6 60.48 
" style="fill:none;stroke:#000000;stroke-linecap:square;stroke-linejoin:miter;stroke-width:0.8;"/>
   </g>
   <g id="text_17">
    <!-- Posterior Predictive of Bayesian Logistic Model -->
    <g transform="translate(118.742813 54.48)scale(0.12 -0.12)">
     <defs>
      <path d="M 19.671875 64.796875 
L 19.671875 37.40625 
L 32.078125 37.40625 
Q 38.96875 37.40625 42.71875 40.96875 
Q 46.484375 44.53125 46.484375 51.125 
Q 46.484375 57.671875 42.71875 61.234375 
Q 38.96875 64.796875 32.078125 64.796875 
z
M 9.8125 72.90625 
L 32.078125 72.90625 
Q 44.34375 72.90625 50.609375 67.359375 
Q 56.890625 61.8125 56.890625 51.125 
Q 56.890625 40.328125 50.609375 34.8125 
Q 44.34375 29.296875 32.078125 29.296875 
L 19.671875 29.296875 
L 19.671875 0 
L 9.8125 0 
z
" id="DejaVuSans-80"/>
      <path d="M 2.984375 54.6875 
L 12.5 54.6875 
L 29.59375 8.796875 
L 46.6875 54.6875 
L 56.203125 54.6875 
L 35.6875 0 
L 23.484375 0 
z
" id="DejaVuSans-118"/>
      <path d="M 19.671875 34.8125 
L 19.671875 8.109375 
L 35.5 8.109375 
Q 43.453125 8.109375 47.28125 11.40625 
Q 51.125 14.703125 51.125 21.484375 
Q 51.125 28.328125 47.28125 31.5625 
Q 43.453125 34.8125 35.5 34.8125 
z
M 19.671875 64.796875 
L 19.671875 42.828125 
L 34.28125 42.828125 
Q 41.5 42.828125 45.03125 45.53125 
Q 48.578125 48.25 48.578125 53.8125 
Q 48.578125 59.328125 45.03125 62.0625 
Q 41.5 64.796875 34.28125 64.796875 
z
M 9.8125 72.90625 
L 35.015625 72.90625 
Q 46.296875 72.90625 52.390625 68.21875 
Q 58.5 63.53125 58.5 54.890625 
Q 58.5 48.1875 55.375 44.234375 
Q 52.25 40.28125 46.1875 39.3125 
Q 53.46875 37.75 57.5 32.78125 
Q 61.53125 27.828125 61.53125 20.40625 
Q 61.53125 10.640625 54.890625 5.3125 
Q 48.25 0 35.984375 0 
L 9.8125 0 
z
" id="DejaVuSans-66"/>
      <path d="M 9.8125 72.90625 
L 19.671875 72.90625 
L 19.671875 8.296875 
L 55.171875 8.296875 
L 55.171875 0 
L 9.8125 0 
z
" id="DejaVuSans-76"/>
      <path d="M 9.8125 72.90625 
L 24.515625 72.90625 
L 43.109375 23.296875 
L 61.8125 72.90625 
L 76.515625 72.90625 
L 76.515625 0 
L 66.890625 0 
L 66.890625 64.015625 
L 48.09375 14.015625 
L 38.1875 14.015625 
L 19.390625 64.015625 
L 19.390625 0 
L 9.8125 0 
z
" id="DejaVuSans-77"/>
     </defs>
     <use xlink:href="#DejaVuSans-80"/>
     <use x="56.677734" xlink:href="#DejaVuSans-111"/>
     <use x="117.859375" xlink:href="#DejaVuSans-115"/>
     <use x="169.958984" xlink:href="#DejaVuSans-116"/>
     <use x="209.167969" xlink:href="#DejaVuSans-101"/>
     <use x="270.691406" xlink:href="#DejaVuSans-114"/>
     <use x="311.804688" xlink:href="#DejaVuSans-105"/>
     <use x="339.587891" xlink:href="#DejaVuSans-111"/>
     <use x="400.769531" xlink:href="#DejaVuSans-114"/>
     <use x="441.882812" xlink:href="#DejaVuSans-32"/>
     <use x="473.669922" xlink:href="#DejaVuSans-80"/>
     <use x="532.222656" xlink:href="#DejaVuSans-114"/>
     <use x="571.085938" xlink:href="#DejaVuSans-101"/>
     <use x="632.609375" xlink:href="#DejaVuSans-100"/>
     <use x="696.085938" xlink:href="#DejaVuSans-105"/>
     <use x="723.869141" xlink:href="#DejaVuSans-99"/>
     <use x="778.849609" xlink:href="#DejaVuSans-116"/>
     <use x="818.058594" xlink:href="#DejaVuSans-105"/>
     <use x="845.841797" xlink:href="#DejaVuSans-118"/>
     <use x="905.021484" xlink:href="#DejaVuSans-101"/>
     <use x="966.544922" xlink:href="#DejaVuSans-32"/>
     <use x="998.332031" xlink:href="#DejaVuSans-111"/>
     <use x="1059.513672" xlink:href="#DejaVuSans-102"/>
     <use x="1094.71875" xlink:href="#DejaVuSans-32"/>
     <use x="1126.505859" xlink:href="#DejaVuSans-66"/>
     <use x="1195.109375" xlink:href="#DejaVuSans-97"/>
     <use x="1256.388672" xlink:href="#DejaVuSans-121"/>
     <use x="1315.568359" xlink:href="#DejaVuSans-101"/>
     <use x="1377.091797" xlink:href="#DejaVuSans-115"/>
     <use x="1429.191406" xlink:href="#DejaVuSans-105"/>
     <use x="1456.974609" xlink:href="#DejaVuSans-97"/>
     <use x="1518.253906" xlink:href="#DejaVuSans-110"/>
     <use x="1581.632812" xlink:href="#DejaVuSans-32"/>
     <use x="1613.419922" xlink:href="#DejaVuSans-76"/>
     <use x="1667.382812" xlink:href="#DejaVuSans-111"/>
     <use x="1728.564453" xlink:href="#DejaVuSans-103"/>
     <use x="1792.041016" xlink:href="#DejaVuSans-105"/>
     <use x="1819.824219" xlink:href="#DejaVuSans-115"/>
     <use x="1871.923828" xlink:href="#DejaVuSans-116"/>
     <use x="1911.132812" xlink:href="#DejaVuSans-105"/>
     <use x="1938.916016" xlink:href="#DejaVuSans-99"/>
     <use x="1993.896484" xlink:href="#DejaVuSans-32"/>
     <use x="2025.683594" xlink:href="#DejaVuSans-77"/>
     <use x="2111.962891" xlink:href="#DejaVuSans-111"/>
     <use x="2173.144531" xlink:href="#DejaVuSans-100"/>
     <use x="2236.621094" xlink:href="#DejaVuSans-101"/>
     <use x="2298.144531" xlink:href="#DejaVuSans-108"/>
    </g>
   </g>
  </g>
 </g>
 <defs>
  <clipPath id="p39da3fd9d1">
   <rect height="388.08" width="390.6" x="63" y="60.48"/>
  </clipPath>
 </defs>
</svg>
